<?xml version="1.0" encoding="UTF-8" standalone="no"?>
<!DOCTYPE svg PUBLIC "-//W3C//DTD SVG 1.1//EN"
 "http://www.w3.org/Graphics/SVG/1.1/DTD/svg11.dtd">
<!-- Generated by graphviz version 2.47.3 (20210619.1520)
 -->
<!-- Title: src/libBtf/src/btf_entity_types.cpp Pages: 1 -->
<svg width="292pt" height="263pt"
 viewBox="0.00 0.00 292.00 263.00" xmlns="http://www.w3.org/2000/svg" xmlns:xlink="http://www.w3.org/1999/xlink">
<g id="graph0" class="graph" transform="scale(1 1) rotate(0) translate(4 259)">
<title>src/libBtf/src/btf_entity_types.cpp</title>
<polygon fill="white" stroke="transparent" points="-4,4 -4,-259 288,-259 288,4 -4,4"/>
<!-- Node1 -->
<g id="node1" class="node">
<title>Node1</title>
<g id="a_node1"><a xlink:title=" ">
<polygon fill="#bfbfbf" stroke="black" points="72.5,-224.5 72.5,-254.5 166.5,-254.5 166.5,-224.5 72.5,-224.5"/>
<text text-anchor="start" x="80.5" y="-242.5" font-family="Helvetica,sans-Serif" font-size="10.00">src/libBtf/src/btf</text>
<text text-anchor="middle" x="119.5" y="-231.5" font-family="Helvetica,sans-Serif" font-size="10.00">_entity_types.cpp</text>
</a>
</g>
</g>
<!-- Node2 -->
<g id="node2" class="node">
<title>Node2</title>
<g id="a_node2"><a xlink:href="btf__entity__types_8h.html" target="_top" xlink:title=" ">
<polygon fill="white" stroke="black" points="11,-168.5 11,-187.5 118,-187.5 118,-168.5 11,-168.5"/>
<text text-anchor="middle" x="64.5" y="-175.5" font-family="Helvetica,sans-Serif" font-size="10.00">btf/btf_entity_types.h</text>
</a>
</g>
</g>
<!-- Node1&#45;&gt;Node2 -->
<g id="edge1" class="edge">
<title>Node1&#45;&gt;Node2</title>
<path fill="none" stroke="midnightblue" d="M106.47,-224.4C98.31,-215.58 87.78,-204.18 79.31,-195.02"/>
<polygon fill="midnightblue" stroke="midnightblue" points="81.86,-192.63 72.5,-187.66 76.72,-197.38 81.86,-192.63"/>
</g>
<!-- Node5 -->
<g id="node5" class="node">
<title>Node5</title>
<g id="a_node5"><a xlink:href="common_8h.html" target="_top" xlink:title=" ">
<polygon fill="white" stroke="black" points="136.5,-168.5 136.5,-187.5 212.5,-187.5 212.5,-168.5 136.5,-168.5"/>
<text text-anchor="middle" x="174.5" y="-175.5" font-family="Helvetica,sans-Serif" font-size="10.00">btf/common.h</text>
</a>
</g>
</g>
<!-- Node1&#45;&gt;Node5 -->
<g id="edge4" class="edge">
<title>Node1&#45;&gt;Node5</title>
<path fill="none" stroke="midnightblue" d="M132.53,-224.4C140.69,-215.58 151.22,-204.18 159.69,-195.02"/>
<polygon fill="midnightblue" stroke="midnightblue" points="162.28,-197.38 166.5,-187.66 157.14,-192.63 162.28,-197.38"/>
</g>
<!-- Node3 -->
<g id="node3" class="node">
<title>Node3</title>
<g id="a_node3"><a xlink:title=" ">
<polygon fill="white" stroke="#bfbfbf" points="0,-0.5 0,-19.5 41,-19.5 41,-0.5 0,-0.5"/>
<text text-anchor="middle" x="20.5" y="-7.5" font-family="Helvetica,sans-Serif" font-size="10.00">string</text>
</a>
</g>
</g>
<!-- Node2&#45;&gt;Node3 -->
<g id="edge2" class="edge">
<title>Node2&#45;&gt;Node3</title>
<path fill="none" stroke="midnightblue" d="M58.05,-168.18C52,-159.45 43.2,-145.46 38.5,-132 26.41,-97.36 22.44,-54.38 21.14,-30.08"/>
<polygon fill="midnightblue" stroke="midnightblue" points="24.62,-29.61 20.69,-19.77 17.63,-29.92 24.62,-29.61"/>
</g>
<!-- Node4 -->
<g id="node4" class="node">
<title>Node4</title>
<g id="a_node4"><a xlink:title=" ">
<polygon fill="white" stroke="#bfbfbf" points="47.5,-112.5 47.5,-131.5 125.5,-131.5 125.5,-112.5 47.5,-112.5"/>
<text text-anchor="middle" x="86.5" y="-119.5" font-family="Helvetica,sans-Serif" font-size="10.00">unordered_set</text>
</a>
</g>
</g>
<!-- Node2&#45;&gt;Node4 -->
<g id="edge3" class="edge">
<title>Node2&#45;&gt;Node4</title>
<path fill="none" stroke="midnightblue" d="M68.13,-168.08C71.11,-160.77 75.43,-150.18 79.12,-141.1"/>
<polygon fill="midnightblue" stroke="midnightblue" points="82.4,-142.33 82.93,-131.75 75.92,-139.69 82.4,-142.33"/>
</g>
<!-- Node6 -->
<g id="node6" class="node">
<title>Node6</title>
<g id="a_node6"><a xlink:title=" ">
<polygon fill="white" stroke="#bfbfbf" points="126.5,-0.5 126.5,-19.5 180.5,-19.5 180.5,-0.5 126.5,-0.5"/>
<text text-anchor="middle" x="153.5" y="-7.5" font-family="Helvetica,sans-Serif" font-size="10.00">iostream</text>
</a>
</g>
</g>
<!-- Node5&#45;&gt;Node6 -->
<g id="edge5" class="edge">
<title>Node5&#45;&gt;Node6</title>
<path fill="none" stroke="midnightblue" d="M173.37,-168.08C170.07,-141.95 160.36,-65.21 155.85,-29.58"/>
<polygon fill="midnightblue" stroke="midnightblue" points="159.31,-29.05 154.58,-19.57 152.37,-29.93 159.31,-29.05"/>
</g>
<!-- Node7 -->
<g id="node7" class="node">
<title>Node7</title>
<g id="a_node7"><a xlink:href="helper_8h.html" target="_top" xlink:title=" ">
<polygon fill="white" stroke="black" points="181.5,-112.5 181.5,-131.5 261.5,-131.5 261.5,-112.5 181.5,-112.5"/>
<text text-anchor="middle" x="221.5" y="-119.5" font-family="Helvetica,sans-Serif" font-size="10.00">helper/helper.h</text>
</a>
</g>
</g>
<!-- Node5&#45;&gt;Node7 -->
<g id="edge6" class="edge">
<title>Node5&#45;&gt;Node7</title>
<path fill="none" stroke="midnightblue" d="M182.26,-168.08C189.04,-160.3 199.04,-148.8 207.26,-139.37"/>
<polygon fill="midnightblue" stroke="midnightblue" points="209.96,-141.59 213.88,-131.75 204.68,-137 209.96,-141.59"/>
</g>
<!-- Node8 -->
<g id="node8" class="node">
<title>Node8</title>
<g id="a_node8"><a xlink:href="logging_8h.html" target="_top" xlink:title=" ">
<polygon fill="white" stroke="black" points="193.5,-56.5 193.5,-75.5 249.5,-75.5 249.5,-56.5 193.5,-56.5"/>
<text text-anchor="middle" x="221.5" y="-63.5" font-family="Helvetica,sans-Serif" font-size="10.00">logging.h</text>
</a>
</g>
</g>
<!-- Node7&#45;&gt;Node8 -->
<g id="edge7" class="edge">
<title>Node7&#45;&gt;Node8</title>
<path fill="none" stroke="midnightblue" d="M221.5,-112.08C221.5,-105.01 221.5,-94.86 221.5,-85.99"/>
<polygon fill="midnightblue" stroke="midnightblue" points="225,-85.75 221.5,-75.75 218,-85.75 225,-85.75"/>
</g>
<!-- Node10 -->
<g id="node10" class="node">
<title>Node10</title>
<g id="a_node10"><a xlink:href="util_8h.html" target="_top" xlink:title=" ">
<polygon fill="white" stroke="black" points="75.5,-56.5 75.5,-75.5 113.5,-75.5 113.5,-56.5 75.5,-56.5"/>
<text text-anchor="middle" x="94.5" y="-63.5" font-family="Helvetica,sans-Serif" font-size="10.00">util.h</text>
</a>
</g>
</g>
<!-- Node7&#45;&gt;Node10 -->
<g id="edge10" class="edge">
<title>Node7&#45;&gt;Node10</title>
<path fill="none" stroke="midnightblue" d="M201.38,-112.44C180.23,-103.45 146.79,-89.23 122.95,-79.1"/>
<polygon fill="midnightblue" stroke="midnightblue" points="124.27,-75.86 113.7,-75.16 121.53,-82.3 124.27,-75.86"/>
</g>
<!-- Node8&#45;&gt;Node6 -->
<g id="edge8" class="edge">
<title>Node8&#45;&gt;Node6</title>
<path fill="none" stroke="midnightblue" d="M210.57,-56.32C200.33,-48.18 184.78,-35.84 172.5,-26.09"/>
<polygon fill="midnightblue" stroke="midnightblue" points="174.63,-23.31 164.62,-19.83 170.28,-28.79 174.63,-23.31"/>
</g>
<!-- Node9 -->
<g id="node9" class="node">
<title>Node9</title>
<g id="a_node9"><a xlink:title=" ">
<polygon fill="white" stroke="#bfbfbf" points="199,-0.5 199,-19.5 284,-19.5 284,-0.5 199,-0.5"/>
<text text-anchor="middle" x="241.5" y="-7.5" font-family="Helvetica,sans-Serif" font-size="10.00">source_location</text>
</a>
</g>
</g>
<!-- Node8&#45;&gt;Node9 -->
<g id="edge9" class="edge">
<title>Node8&#45;&gt;Node9</title>
<path fill="none" stroke="midnightblue" d="M224.8,-56.08C227.48,-48.85 231.35,-38.41 234.69,-29.4"/>
<polygon fill="midnightblue" stroke="midnightblue" points="238.07,-30.34 238.26,-19.75 231.5,-27.91 238.07,-30.34"/>
</g>
<!-- Node10&#45;&gt;Node3 -->
<g id="edge13" class="edge">
<title>Node10&#45;&gt;Node3</title>
<path fill="none" stroke="midnightblue" d="M82.61,-56.32C71.35,-48.11 54.21,-35.6 40.79,-25.81"/>
<polygon fill="midnightblue" stroke="midnightblue" points="42.75,-22.9 32.61,-19.83 38.62,-28.56 42.75,-22.9"/>
</g>
<!-- Node10&#45;&gt;Node6 -->
<g id="edge12" class="edge">
<title>Node10&#45;&gt;Node6</title>
<path fill="none" stroke="midnightblue" d="M103.98,-56.32C112.7,-48.34 125.84,-36.31 136.4,-26.65"/>
<polygon fill="midnightblue" stroke="midnightblue" points="138.83,-29.17 143.85,-19.83 134.11,-24 138.83,-29.17"/>
</g>
<!-- Node11 -->
<g id="node11" class="node">
<title>Node11</title>
<g id="a_node11"><a xlink:title=" ">
<polygon fill="white" stroke="#bfbfbf" points="59,-0.5 59,-19.5 108,-19.5 108,-0.5 59,-0.5"/>
<text text-anchor="middle" x="83.5" y="-7.5" font-family="Helvetica,sans-Serif" font-size="10.00">fstream</text>
</a>
</g>
</g>
<!-- Node10&#45;&gt;Node11 -->
<g id="edge11" class="edge">
<title>Node10&#45;&gt;Node11</title>
<path fill="none" stroke="midnightblue" d="M92.68,-56.08C91.23,-48.93 89.13,-38.64 87.31,-29.69"/>
<polygon fill="midnightblue" stroke="midnightblue" points="90.71,-28.85 85.28,-19.75 83.85,-30.25 90.71,-28.85"/>
</g>
</g>
</svg>
