<?xml version="1.0" encoding="UTF-8" standalone="no"?>
<!DOCTYPE svg PUBLIC "-//W3C//DTD SVG 1.1//EN"
 "http://www.w3.org/Graphics/SVG/1.1/DTD/svg11.dtd">
<!-- Generated by graphviz version 2.47.3 (20210619.1520)
 -->
<!-- Title: src/libBtf/include/btf/btf.h Pages: 1 -->
<svg width="1407pt" height="319pt"
 viewBox="0.00 0.00 1407.00 319.00" xmlns="http://www.w3.org/2000/svg" xmlns:xlink="http://www.w3.org/1999/xlink">
<g id="graph0" class="graph" transform="scale(1 1) rotate(0) translate(4 315)">
<title>src/libBtf/include/btf/btf.h</title>
<polygon fill="white" stroke="transparent" points="-4,4 -4,-315 1403,-315 1403,4 -4,4"/>
<!-- Node1 -->
<g id="node1" class="node">
<title>Node1</title>
<g id="a_node1"><a xlink:title=" ">
<polygon fill="#bfbfbf" stroke="black" points="637.5,-280.5 637.5,-310.5 726.5,-310.5 726.5,-280.5 637.5,-280.5"/>
<text text-anchor="start" x="645.5" y="-298.5" font-family="Helvetica,sans-Serif" font-size="10.00">src/libBtf/include</text>
<text text-anchor="middle" x="682" y="-287.5" font-family="Helvetica,sans-Serif" font-size="10.00">/btf/btf.h</text>
</a>
</g>
</g>
<!-- Node2 -->
<g id="node2" class="node">
<title>Node2</title>
<g id="a_node2"><a xlink:title=" ">
<polygon fill="white" stroke="#bfbfbf" points="0,-224.5 0,-243.5 56,-243.5 56,-224.5 0,-224.5"/>
<text text-anchor="middle" x="28" y="-231.5" font-family="Helvetica,sans-Serif" font-size="10.00">algorithm</text>
</a>
</g>
</g>
<!-- Node1&#45;&gt;Node2 -->
<g id="edge1" class="edge">
<title>Node1&#45;&gt;Node2</title>
<path fill="none" stroke="midnightblue" d="M637.19,-293.24C536.61,-289.9 285.23,-278.67 66.26,-243.96"/>
<polygon fill="midnightblue" stroke="midnightblue" points="66.62,-240.47 56.19,-242.34 65.51,-247.38 66.62,-240.47"/>
</g>
<!-- Node3 -->
<g id="node3" class="node">
<title>Node3</title>
<g id="a_node3"><a xlink:title=" ">
<polygon fill="white" stroke="#bfbfbf" points="74,-224.5 74,-243.5 106,-243.5 106,-224.5 74,-224.5"/>
<text text-anchor="middle" x="90" y="-231.5" font-family="Helvetica,sans-Serif" font-size="10.00">any</text>
</a>
</g>
</g>
<!-- Node1&#45;&gt;Node3 -->
<g id="edge2" class="edge">
<title>Node1&#45;&gt;Node3</title>
<path fill="none" stroke="midnightblue" d="M637.5,-293.54C541.91,-290.83 310.22,-280.69 120,-244 118.71,-243.75 117.39,-243.47 116.07,-243.16"/>
<polygon fill="midnightblue" stroke="midnightblue" points="116.61,-239.68 106.04,-240.46 114.79,-246.44 116.61,-239.68"/>
</g>
<!-- Node4 -->
<g id="node4" class="node">
<title>Node4</title>
<g id="a_node4"><a xlink:title=" ">
<polygon fill="white" stroke="#bfbfbf" points="109.5,-0.5 109.5,-19.5 158.5,-19.5 158.5,-0.5 109.5,-0.5"/>
<text text-anchor="middle" x="134" y="-7.5" font-family="Helvetica,sans-Serif" font-size="10.00">fstream</text>
</a>
</g>
</g>
<!-- Node1&#45;&gt;Node4 -->
<g id="edge3" class="edge">
<title>Node1&#45;&gt;Node4</title>
<path fill="none" stroke="midnightblue" d="M637.28,-295.16C527.57,-295.98 248.49,-293.05 172,-244 143.83,-225.94 134,-212.46 134,-179 134,-179 134,-179 134,-121 134,-88.95 134,-51.64 134,-29.75"/>
<polygon fill="midnightblue" stroke="midnightblue" points="137.5,-29.56 134,-19.56 130.5,-29.56 137.5,-29.56"/>
</g>
<!-- Node5 -->
<g id="node5" class="node">
<title>Node5</title>
<g id="a_node5"><a xlink:title=" ">
<polygon fill="white" stroke="#bfbfbf" points="280,-0.5 280,-19.5 334,-19.5 334,-0.5 280,-0.5"/>
<text text-anchor="middle" x="307" y="-7.5" font-family="Helvetica,sans-Serif" font-size="10.00">iostream</text>
</a>
</g>
</g>
<!-- Node1&#45;&gt;Node5 -->
<g id="edge4" class="edge">
<title>Node1&#45;&gt;Node5</title>
<path fill="none" stroke="midnightblue" d="M637.42,-292.72C522.9,-287.77 224.95,-272.28 191,-244 167.87,-224.74 172,-209.1 172,-179 172,-179 172,-179 172,-121 172,-89.37 178.43,-78.16 201,-56 211.44,-45.75 244.57,-32.52 271.04,-23.06"/>
<polygon fill="midnightblue" stroke="midnightblue" points="272.53,-26.25 280.8,-19.64 270.21,-19.65 272.53,-26.25"/>
</g>
<!-- Node6 -->
<g id="node6" class="node">
<title>Node6</title>
<g id="a_node6"><a xlink:title=" ">
<polygon fill="white" stroke="#bfbfbf" points="1055.5,-224.5 1055.5,-243.5 1084.5,-243.5 1084.5,-224.5 1055.5,-224.5"/>
<text text-anchor="middle" x="1070" y="-231.5" font-family="Helvetica,sans-Serif" font-size="10.00">list</text>
</a>
</g>
</g>
<!-- Node1&#45;&gt;Node6 -->
<g id="edge5" class="edge">
<title>Node1&#45;&gt;Node6</title>
<path fill="none" stroke="midnightblue" d="M726.63,-290.56C794.93,-284 929.22,-269.04 1041,-244 1042.48,-243.67 1043.99,-243.3 1045.51,-242.9"/>
<polygon fill="midnightblue" stroke="midnightblue" points="1046.74,-246.19 1055.37,-240.04 1044.79,-239.47 1046.74,-246.19"/>
</g>
<!-- Node7 -->
<g id="node7" class="node">
<title>Node7</title>
<g id="a_node7"><a xlink:title=" ">
<polygon fill="white" stroke="#bfbfbf" points="1103,-224.5 1103,-243.5 1155,-243.5 1155,-224.5 1103,-224.5"/>
<text text-anchor="middle" x="1129" y="-231.5" font-family="Helvetica,sans-Serif" font-size="10.00">sstream</text>
</a>
</g>
</g>
<!-- Node1&#45;&gt;Node7 -->
<g id="edge6" class="edge">
<title>Node1&#45;&gt;Node7</title>
<path fill="none" stroke="midnightblue" d="M726.8,-290.93C801,-284.59 954.19,-269.75 1092.76,-244.02"/>
<polygon fill="midnightblue" stroke="midnightblue" points="1093.53,-247.44 1102.71,-242.15 1092.23,-240.56 1093.53,-247.44"/>
</g>
<!-- Node8 -->
<g id="node8" class="node">
<title>Node8</title>
<g id="a_node8"><a xlink:title=" ">
<polygon fill="white" stroke="#bfbfbf" points="567.5,-0.5 567.5,-19.5 608.5,-19.5 608.5,-0.5 567.5,-0.5"/>
<text text-anchor="middle" x="588" y="-7.5" font-family="Helvetica,sans-Serif" font-size="10.00">string</text>
</a>
</g>
</g>
<!-- Node1&#45;&gt;Node8 -->
<g id="edge7" class="edge">
<title>Node1&#45;&gt;Node8</title>
<path fill="none" stroke="midnightblue" d="M726.74,-291.7C801.12,-286.31 946.2,-272.41 988,-244 1015.86,-225.06 1027,-212.69 1027,-179 1027,-179 1027,-179 1027,-121 1027,-36.66 718.28,-16.42 618.62,-12.08"/>
<polygon fill="midnightblue" stroke="midnightblue" points="618.72,-8.58 608.59,-11.67 618.43,-15.58 618.72,-8.58"/>
</g>
<!-- Node9 -->
<g id="node9" class="node">
<title>Node9</title>
<g id="a_node9"><a xlink:title=" ">
<polygon fill="white" stroke="#bfbfbf" points="1173,-224.5 1173,-243.5 1237,-243.5 1237,-224.5 1173,-224.5"/>
<text text-anchor="middle" x="1205" y="-231.5" font-family="Helvetica,sans-Serif" font-size="10.00">string_view</text>
</a>
</g>
</g>
<!-- Node1&#45;&gt;Node9 -->
<g id="edge8" class="edge">
<title>Node1&#45;&gt;Node9</title>
<path fill="none" stroke="midnightblue" d="M726.74,-291.49C810.47,-285.49 996.65,-270.45 1162.92,-244.01"/>
<polygon fill="midnightblue" stroke="midnightblue" points="1163.52,-247.46 1172.84,-242.42 1162.41,-240.55 1163.52,-247.46"/>
</g>
<!-- Node10 -->
<g id="node10" class="node">
<title>Node10</title>
<g id="a_node10"><a xlink:title=" ">
<polygon fill="white" stroke="#bfbfbf" points="1255.5,-224.5 1255.5,-243.5 1338.5,-243.5 1338.5,-224.5 1255.5,-224.5"/>
<text text-anchor="middle" x="1297" y="-231.5" font-family="Helvetica,sans-Serif" font-size="10.00">unordered_map</text>
</a>
</g>
</g>
<!-- Node1&#45;&gt;Node10 -->
<g id="edge9" class="edge">
<title>Node1&#45;&gt;Node10</title>
<path fill="none" stroke="midnightblue" d="M726.74,-291.8C820.76,-285.84 1045.89,-270.09 1245.22,-243.99"/>
<polygon fill="midnightblue" stroke="midnightblue" points="1245.84,-247.44 1255.3,-242.66 1244.92,-240.5 1245.84,-247.44"/>
</g>
<!-- Node11 -->
<g id="node11" class="node">
<title>Node11</title>
<g id="a_node11"><a xlink:title=" ">
<polygon fill="white" stroke="#bfbfbf" points="785,-112.5 785,-131.5 863,-131.5 863,-112.5 785,-112.5"/>
<text text-anchor="middle" x="824" y="-119.5" font-family="Helvetica,sans-Serif" font-size="10.00">unordered_set</text>
</a>
</g>
</g>
<!-- Node1&#45;&gt;Node11 -->
<g id="edge10" class="edge">
<title>Node1&#45;&gt;Node11</title>
<path fill="none" stroke="midnightblue" d="M726.54,-293.4C799.5,-290.57 939.43,-280.39 970,-244 1009.25,-197.27 915.11,-154.77 860.17,-134.88"/>
<polygon fill="midnightblue" stroke="midnightblue" points="861.33,-131.58 850.74,-131.54 859,-138.18 861.33,-131.58"/>
</g>
<!-- Node12 -->
<g id="node12" class="node">
<title>Node12</title>
<g id="a_node12"><a xlink:title=" ">
<polygon fill="white" stroke="#bfbfbf" points="1357,-224.5 1357,-243.5 1399,-243.5 1399,-224.5 1357,-224.5"/>
<text text-anchor="middle" x="1378" y="-231.5" font-family="Helvetica,sans-Serif" font-size="10.00">vector</text>
</a>
</g>
</g>
<!-- Node1&#45;&gt;Node12 -->
<g id="edge11" class="edge">
<title>Node1&#45;&gt;Node12</title>
<path fill="none" stroke="midnightblue" d="M726.85,-294.42C833.31,-293.53 1109.44,-287.04 1346.98,-243.79"/>
<polygon fill="midnightblue" stroke="midnightblue" points="1347.64,-247.22 1356.83,-241.97 1346.36,-240.34 1347.64,-247.22"/>
</g>
<!-- Node13 -->
<g id="node13" class="node">
<title>Node13</title>
<g id="a_node13"><a xlink:href="btf__entity__types_8h.html" target="_top" xlink:title=" ">
<polygon fill="white" stroke="black" points="762,-168.5 762,-187.5 856,-187.5 856,-168.5 762,-168.5"/>
<text text-anchor="middle" x="809" y="-175.5" font-family="Helvetica,sans-Serif" font-size="10.00">btf_entity_types.h</text>
</a>
</g>
</g>
<!-- Node1&#45;&gt;Node13 -->
<g id="edge12" class="edge">
<title>Node1&#45;&gt;Node13</title>
<path fill="none" stroke="midnightblue" d="M726.53,-294.61C765.56,-292.05 820.29,-281.39 848,-244 859.97,-227.85 843.78,-207.84 828.76,-194.32"/>
<polygon fill="midnightblue" stroke="midnightblue" points="830.63,-191.31 820.73,-187.54 826.12,-196.66 830.63,-191.31"/>
</g>
<!-- Node14 -->
<g id="node14" class="node">
<title>Node14</title>
<g id="a_node14"><a xlink:href="btf__signal_8h.html" target="_top" xlink:title=" ">
<polygon fill="white" stroke="black" points="895,-224.5 895,-243.5 961,-243.5 961,-224.5 895,-224.5"/>
<text text-anchor="middle" x="928" y="-231.5" font-family="Helvetica,sans-Serif" font-size="10.00">btf_signal.h</text>
</a>
</g>
</g>
<!-- Node1&#45;&gt;Node14 -->
<g id="edge15" class="edge">
<title>Node1&#45;&gt;Node14</title>
<path fill="none" stroke="midnightblue" d="M726.55,-283.72C771.51,-272.85 840.46,-256.17 884.9,-245.42"/>
<polygon fill="midnightblue" stroke="midnightblue" points="885.92,-248.78 894.81,-243.03 884.27,-241.98 885.92,-248.78"/>
</g>
<!-- Node15 -->
<g id="node15" class="node">
<title>Node15</title>
<g id="a_node15"><a xlink:href="common_8h.html" target="_top" xlink:title=" ">
<polygon fill="white" stroke="black" points="454,-168.5 454,-187.5 516,-187.5 516,-168.5 454,-168.5"/>
<text text-anchor="middle" x="485" y="-175.5" font-family="Helvetica,sans-Serif" font-size="10.00">common.h</text>
</a>
</g>
</g>
<!-- Node1&#45;&gt;Node15 -->
<g id="edge27" class="edge">
<title>Node1&#45;&gt;Node15</title>
<path fill="none" stroke="midnightblue" d="M637.5,-291.35C576.61,-286 472.22,-272.8 449,-244 436.56,-228.58 452,-208.27 466.35,-194.49"/>
<polygon fill="midnightblue" stroke="midnightblue" points="468.93,-196.87 474.02,-187.57 464.25,-191.67 468.93,-196.87"/>
</g>
<!-- Node20 -->
<g id="node20" class="node">
<title>Node20</title>
<g id="a_node20"><a xlink:href="core_8h.html" target="_top" xlink:title=" ">
<polygon fill="white" stroke="black" points="458,-224.5 458,-243.5 502,-243.5 502,-224.5 458,-224.5"/>
<text text-anchor="middle" x="480" y="-231.5" font-family="Helvetica,sans-Serif" font-size="10.00">core.h</text>
</a>
</g>
</g>
<!-- Node1&#45;&gt;Node20 -->
<g id="edge28" class="edge">
<title>Node1&#45;&gt;Node20</title>
<path fill="none" stroke="midnightblue" d="M637.17,-281.3C599.25,-270.13 545.84,-254.39 512.08,-244.45"/>
<polygon fill="midnightblue" stroke="midnightblue" points="512.85,-241.03 502.27,-241.56 510.87,-247.74 512.85,-241.03"/>
</g>
<!-- Node21 -->
<g id="node21" class="node">
<title>Node21</title>
<g id="a_node21"><a xlink:href="os_8h.html" target="_top" xlink:title=" ">
<polygon fill="white" stroke="black" points="200.5,-224.5 200.5,-243.5 235.5,-243.5 235.5,-224.5 200.5,-224.5"/>
<text text-anchor="middle" x="218" y="-231.5" font-family="Helvetica,sans-Serif" font-size="10.00">os.h</text>
</a>
</g>
</g>
<!-- Node1&#45;&gt;Node21 -->
<g id="edge30" class="edge">
<title>Node1&#45;&gt;Node21</title>
<path fill="none" stroke="midnightblue" d="M637.46,-292.4C559.64,-288.06 393.95,-275.92 245.76,-243.69"/>
<polygon fill="midnightblue" stroke="midnightblue" points="246.09,-240.18 235.57,-241.44 244.58,-247.02 246.09,-240.18"/>
</g>
<!-- Node22 -->
<g id="node22" class="node">
<title>Node22</title>
<g id="a_node22"><a xlink:href="process_8h.html" target="_top" xlink:title=" ">
<polygon fill="white" stroke="black" points="779.5,-224.5 779.5,-243.5 838.5,-243.5 838.5,-224.5 779.5,-224.5"/>
<text text-anchor="middle" x="809" y="-231.5" font-family="Helvetica,sans-Serif" font-size="10.00">process.h</text>
</a>
</g>
</g>
<!-- Node1&#45;&gt;Node22 -->
<g id="edge33" class="edge">
<title>Node1&#45;&gt;Node22</title>
<path fill="none" stroke="midnightblue" d="M712.1,-280.4C733.12,-270.55 760.97,-257.5 781.42,-247.92"/>
<polygon fill="midnightblue" stroke="midnightblue" points="782.95,-251.07 790.52,-243.66 779.98,-244.73 782.95,-251.07"/>
</g>
<!-- Node23 -->
<g id="node23" class="node">
<title>Node23</title>
<g id="a_node23"><a xlink:href="runnable_8h.html" target="_top" xlink:title=" ">
<polygon fill="white" stroke="black" points="254,-224.5 254,-243.5 316,-243.5 316,-224.5 254,-224.5"/>
<text text-anchor="middle" x="285" y="-231.5" font-family="Helvetica,sans-Serif" font-size="10.00">runnable.h</text>
</a>
</g>
</g>
<!-- Node1&#45;&gt;Node23 -->
<g id="edge36" class="edge">
<title>Node1&#45;&gt;Node23</title>
<path fill="none" stroke="midnightblue" d="M637.29,-289.35C571.35,-281.5 443.97,-265.36 326.29,-244.12"/>
<polygon fill="midnightblue" stroke="midnightblue" points="326.86,-240.66 316.39,-242.32 325.6,-247.55 326.86,-240.66"/>
</g>
<!-- Node24 -->
<g id="node24" class="node">
<title>Node24</title>
<g id="a_node24"><a xlink:href="scheduler_8h.html" target="_top" xlink:title=" ">
<polygon fill="white" stroke="black" points="334.5,-224.5 334.5,-243.5 401.5,-243.5 401.5,-224.5 334.5,-224.5"/>
<text text-anchor="middle" x="368" y="-231.5" font-family="Helvetica,sans-Serif" font-size="10.00">scheduler.h</text>
</a>
</g>
</g>
<!-- Node1&#45;&gt;Node24 -->
<g id="edge39" class="edge">
<title>Node1&#45;&gt;Node24</title>
<path fill="none" stroke="midnightblue" d="M637.34,-286.04C577.32,-274.66 471.3,-254.57 411.75,-243.29"/>
<polygon fill="midnightblue" stroke="midnightblue" points="412.37,-239.85 401.9,-241.42 411.07,-246.72 412.37,-239.85"/>
</g>
<!-- Node25 -->
<g id="node25" class="node">
<title>Node25</title>
<g id="a_node25"><a xlink:href="semaphore_8h.html" target="_top" xlink:title=" ">
<polygon fill="white" stroke="black" points="688.5,-224.5 688.5,-243.5 761.5,-243.5 761.5,-224.5 688.5,-224.5"/>
<text text-anchor="middle" x="725" y="-231.5" font-family="Helvetica,sans-Serif" font-size="10.00">semaphore.h</text>
</a>
</g>
</g>
<!-- Node1&#45;&gt;Node25 -->
<g id="edge42" class="edge">
<title>Node1&#45;&gt;Node25</title>
<path fill="none" stroke="midnightblue" d="M692.19,-280.4C698.37,-271.84 706.3,-260.87 712.82,-251.86"/>
<polygon fill="midnightblue" stroke="midnightblue" points="715.72,-253.81 718.74,-243.66 710.05,-249.71 715.72,-253.81"/>
</g>
<!-- Node26 -->
<g id="node26" class="node">
<title>Node26</title>
<g id="a_node26"><a xlink:href="simulation_8h.html" target="_top" xlink:title=" ">
<polygon fill="white" stroke="black" points="520.5,-224.5 520.5,-243.5 589.5,-243.5 589.5,-224.5 520.5,-224.5"/>
<text text-anchor="middle" x="555" y="-231.5" font-family="Helvetica,sans-Serif" font-size="10.00">simulation.h</text>
</a>
</g>
</g>
<!-- Node1&#45;&gt;Node26 -->
<g id="edge46" class="edge">
<title>Node1&#45;&gt;Node26</title>
<path fill="none" stroke="midnightblue" d="M651.9,-280.4C630.88,-270.55 603.03,-257.5 582.58,-247.92"/>
<polygon fill="midnightblue" stroke="midnightblue" points="584.02,-244.73 573.48,-243.66 581.05,-251.07 584.02,-244.73"/>
</g>
<!-- Node27 -->
<g id="node27" class="node">
<title>Node27</title>
<g id="a_node27"><a xlink:href="stimulus_8h.html" target="_top" xlink:title=" ">
<polygon fill="white" stroke="black" points="608,-224.5 608,-243.5 670,-243.5 670,-224.5 608,-224.5"/>
<text text-anchor="middle" x="639" y="-231.5" font-family="Helvetica,sans-Serif" font-size="10.00">stimulus.h</text>
</a>
</g>
</g>
<!-- Node1&#45;&gt;Node27 -->
<g id="edge49" class="edge">
<title>Node1&#45;&gt;Node27</title>
<path fill="none" stroke="midnightblue" d="M671.81,-280.4C665.63,-271.84 657.7,-260.87 651.18,-251.86"/>
<polygon fill="midnightblue" stroke="midnightblue" points="653.95,-249.71 645.26,-243.66 648.28,-253.81 653.95,-249.71"/>
</g>
<!-- Node13&#45;&gt;Node8 -->
<g id="edge13" class="edge">
<title>Node13&#45;&gt;Node8</title>
<path fill="none" stroke="midnightblue" d="M801.04,-168.2C781.49,-146.95 728.91,-91.9 677,-56 658.5,-43.2 635.85,-31.8 618.03,-23.68"/>
<polygon fill="midnightblue" stroke="midnightblue" points="619.24,-20.39 608.68,-19.52 616.39,-26.78 619.24,-20.39"/>
</g>
<!-- Node13&#45;&gt;Node11 -->
<g id="edge14" class="edge">
<title>Node13&#45;&gt;Node11</title>
<path fill="none" stroke="midnightblue" d="M811.48,-168.08C813.49,-160.85 816.39,-150.41 818.89,-141.4"/>
<polygon fill="midnightblue" stroke="midnightblue" points="822.26,-142.32 821.57,-131.75 815.52,-140.45 822.26,-142.32"/>
</g>
<!-- Node14&#45;&gt;Node8 -->
<g id="edge16" class="edge">
<title>Node14&#45;&gt;Node8</title>
<path fill="none" stroke="midnightblue" d="M926.39,-224.31C921.88,-202.33 907.06,-143.98 872,-112 797.91,-44.41 675.58,-21.42 618.77,-14.13"/>
<polygon fill="midnightblue" stroke="midnightblue" points="618.98,-10.62 608.63,-12.9 618.14,-17.57 618.98,-10.62"/>
</g>
<!-- Node14&#45;&gt;Node15 -->
<g id="edge17" class="edge">
<title>Node14&#45;&gt;Node15</title>
<path fill="none" stroke="midnightblue" d="M894.7,-228.94C814.94,-219.22 613.12,-194.62 526.04,-184"/>
<polygon fill="midnightblue" stroke="midnightblue" points="526.35,-180.51 516,-182.78 525.5,-187.46 526.35,-180.51"/>
</g>
<!-- Node15&#45;&gt;Node5 -->
<g id="edge18" class="edge">
<title>Node15&#45;&gt;Node5</title>
<path fill="none" stroke="midnightblue" d="M475.43,-168.08C446.56,-141.15 360.09,-60.51 323.57,-26.45"/>
<polygon fill="midnightblue" stroke="midnightblue" points="325.89,-23.83 316.19,-19.57 321.11,-28.95 325.89,-23.83"/>
</g>
<!-- Node16 -->
<g id="node16" class="node">
<title>Node16</title>
<g id="a_node16"><a xlink:href="helper_8h.html" target="_top" xlink:title=" ">
<polygon fill="white" stroke="black" points="242,-112.5 242,-131.5 322,-131.5 322,-112.5 242,-112.5"/>
<text text-anchor="middle" x="282" y="-119.5" font-family="Helvetica,sans-Serif" font-size="10.00">helper/helper.h</text>
</a>
</g>
</g>
<!-- Node15&#45;&gt;Node16 -->
<g id="edge19" class="edge">
<title>Node15&#45;&gt;Node16</title>
<path fill="none" stroke="midnightblue" d="M453.73,-168.68C418.91,-159.42 362.48,-144.41 323.87,-134.14"/>
<polygon fill="midnightblue" stroke="midnightblue" points="324.54,-130.7 313.98,-131.51 322.74,-137.46 324.54,-130.7"/>
</g>
<!-- Node17 -->
<g id="node17" class="node">
<title>Node17</title>
<g id="a_node17"><a xlink:href="logging_8h.html" target="_top" xlink:title=" ">
<polygon fill="white" stroke="black" points="210,-56.5 210,-75.5 266,-75.5 266,-56.5 210,-56.5"/>
<text text-anchor="middle" x="238" y="-63.5" font-family="Helvetica,sans-Serif" font-size="10.00">logging.h</text>
</a>
</g>
</g>
<!-- Node16&#45;&gt;Node17 -->
<g id="edge20" class="edge">
<title>Node16&#45;&gt;Node17</title>
<path fill="none" stroke="midnightblue" d="M274.73,-112.08C268.46,-104.38 259.21,-93.03 251.57,-83.65"/>
<polygon fill="midnightblue" stroke="midnightblue" points="254.16,-81.29 245.13,-75.75 248.73,-85.71 254.16,-81.29"/>
</g>
<!-- Node19 -->
<g id="node19" class="node">
<title>Node19</title>
<g id="a_node19"><a xlink:href="util_8h.html" target="_top" xlink:title=" ">
<polygon fill="white" stroke="black" points="284,-56.5 284,-75.5 322,-75.5 322,-56.5 284,-56.5"/>
<text text-anchor="middle" x="303" y="-63.5" font-family="Helvetica,sans-Serif" font-size="10.00">util.h</text>
</a>
</g>
</g>
<!-- Node16&#45;&gt;Node19 -->
<g id="edge23" class="edge">
<title>Node16&#45;&gt;Node19</title>
<path fill="none" stroke="midnightblue" d="M285.47,-112.08C288.31,-104.77 292.43,-94.18 295.96,-85.1"/>
<polygon fill="midnightblue" stroke="midnightblue" points="299.23,-86.34 299.6,-75.75 292.71,-83.8 299.23,-86.34"/>
</g>
<!-- Node17&#45;&gt;Node5 -->
<g id="edge21" class="edge">
<title>Node17&#45;&gt;Node5</title>
<path fill="none" stroke="midnightblue" d="M249.09,-56.32C259.49,-48.18 275.26,-35.84 287.72,-26.09"/>
<polygon fill="midnightblue" stroke="midnightblue" points="289.99,-28.75 295.71,-19.83 285.68,-23.24 289.99,-28.75"/>
</g>
<!-- Node18 -->
<g id="node18" class="node">
<title>Node18</title>
<g id="a_node18"><a xlink:title=" ">
<polygon fill="white" stroke="#bfbfbf" points="176.5,-0.5 176.5,-19.5 261.5,-19.5 261.5,-0.5 176.5,-0.5"/>
<text text-anchor="middle" x="219" y="-7.5" font-family="Helvetica,sans-Serif" font-size="10.00">source_location</text>
</a>
</g>
</g>
<!-- Node17&#45;&gt;Node18 -->
<g id="edge22" class="edge">
<title>Node17&#45;&gt;Node18</title>
<path fill="none" stroke="midnightblue" d="M234.86,-56.08C232.32,-48.85 228.64,-38.41 225.47,-29.4"/>
<polygon fill="midnightblue" stroke="midnightblue" points="228.7,-28.02 222.08,-19.75 222.1,-30.35 228.7,-28.02"/>
</g>
<!-- Node19&#45;&gt;Node4 -->
<g id="edge24" class="edge">
<title>Node19&#45;&gt;Node4</title>
<path fill="none" stroke="midnightblue" d="M283.72,-58.8C280.8,-57.86 277.82,-56.9 275,-56 238.71,-44.38 197.15,-31.12 168.61,-22.02"/>
<polygon fill="midnightblue" stroke="midnightblue" points="169.3,-18.57 158.71,-18.87 167.18,-25.24 169.3,-18.57"/>
</g>
<!-- Node19&#45;&gt;Node5 -->
<g id="edge25" class="edge">
<title>Node19&#45;&gt;Node5</title>
<path fill="none" stroke="midnightblue" d="M303.66,-56.08C304.18,-49.01 304.94,-38.86 305.59,-29.99"/>
<polygon fill="midnightblue" stroke="midnightblue" points="309.1,-29.98 306.35,-19.75 302.12,-29.47 309.1,-29.98"/>
</g>
<!-- Node19&#45;&gt;Node8 -->
<g id="edge26" class="edge">
<title>Node19&#45;&gt;Node8</title>
<path fill="none" stroke="midnightblue" d="M322.12,-59.47C326.65,-58.25 331.48,-57.02 336,-56 415.21,-38.17 509.7,-22.87 557.32,-15.57"/>
<polygon fill="midnightblue" stroke="midnightblue" points="557.94,-19.02 567.3,-14.05 556.88,-12.1 557.94,-19.02"/>
</g>
<!-- Node20&#45;&gt;Node15 -->
<g id="edge29" class="edge">
<title>Node20&#45;&gt;Node15</title>
<path fill="none" stroke="midnightblue" d="M480.83,-224.08C481.48,-217.01 482.42,-206.86 483.24,-197.99"/>
<polygon fill="midnightblue" stroke="midnightblue" points="486.75,-198.03 484.19,-187.75 479.78,-197.39 486.75,-198.03"/>
</g>
<!-- Node21&#45;&gt;Node8 -->
<g id="edge31" class="edge">
<title>Node21&#45;&gt;Node8</title>
<path fill="none" stroke="midnightblue" d="M229.87,-224.43C267.19,-197.69 385.94,-114.05 491,-56 512.82,-43.94 538.45,-32.15 557.88,-23.66"/>
<polygon fill="midnightblue" stroke="midnightblue" points="559.35,-26.84 567.15,-19.66 556.58,-20.41 559.35,-26.84"/>
</g>
<!-- Node21&#45;&gt;Node15 -->
<g id="edge32" class="edge">
<title>Node21&#45;&gt;Node15</title>
<path fill="none" stroke="midnightblue" d="M235.62,-226.74C238.72,-225.75 241.94,-224.79 245,-224 313.82,-206.17 395.46,-192.39 443.6,-185"/>
<polygon fill="midnightblue" stroke="midnightblue" points="444.27,-188.44 453.63,-183.48 443.22,-181.52 444.27,-188.44"/>
</g>
<!-- Node22&#45;&gt;Node13 -->
<g id="edge34" class="edge">
<title>Node22&#45;&gt;Node13</title>
<path fill="none" stroke="midnightblue" d="M809,-224.08C809,-217.01 809,-206.86 809,-197.99"/>
<polygon fill="midnightblue" stroke="midnightblue" points="812.5,-197.75 809,-187.75 805.5,-197.75 812.5,-197.75"/>
</g>
<!-- Node22&#45;&gt;Node15 -->
<g id="edge35" class="edge">
<title>Node22&#45;&gt;Node15</title>
<path fill="none" stroke="midnightblue" d="M779.18,-225.71C776.42,-225.1 773.66,-224.52 771,-224 684.36,-206.95 581.95,-192.11 526.21,-184.47"/>
<polygon fill="midnightblue" stroke="midnightblue" points="526.41,-180.97 516.03,-183.09 525.47,-187.91 526.41,-180.97"/>
</g>
<!-- Node23&#45;&gt;Node8 -->
<g id="edge37" class="edge">
<title>Node23&#45;&gt;Node8</title>
<path fill="none" stroke="midnightblue" d="M302.19,-224.39C318.58,-215.91 343.69,-202.2 364,-188 438.44,-135.97 447.34,-110.49 520,-56 534.72,-44.96 552.03,-33.53 565.5,-24.95"/>
<polygon fill="midnightblue" stroke="midnightblue" points="567.54,-27.8 574.13,-19.51 563.8,-21.88 567.54,-27.8"/>
</g>
<!-- Node23&#45;&gt;Node15 -->
<g id="edge38" class="edge">
<title>Node23&#45;&gt;Node15</title>
<path fill="none" stroke="midnightblue" d="M316.25,-224.56C350.74,-215.25 406.38,-200.23 444.27,-190"/>
<polygon fill="midnightblue" stroke="midnightblue" points="445.23,-193.36 453.97,-187.38 443.4,-186.61 445.23,-193.36"/>
</g>
<!-- Node24&#45;&gt;Node8 -->
<g id="edge40" class="edge">
<title>Node24&#45;&gt;Node8</title>
<path fill="none" stroke="midnightblue" d="M376.62,-224.3C409.68,-190.94 528.62,-70.92 572.01,-27.13"/>
<polygon fill="midnightblue" stroke="midnightblue" points="574.64,-29.45 579.2,-19.88 569.67,-24.52 574.64,-29.45"/>
</g>
<!-- Node24&#45;&gt;Node15 -->
<g id="edge41" class="edge">
<title>Node24&#45;&gt;Node15</title>
<path fill="none" stroke="midnightblue" d="M386.54,-224.44C405.62,-215.64 435.57,-201.81 457.44,-191.72"/>
<polygon fill="midnightblue" stroke="midnightblue" points="458.93,-194.88 466.55,-187.52 456,-188.53 458.93,-194.88"/>
</g>
<!-- Node25&#45;&gt;Node8 -->
<g id="edge43" class="edge">
<title>Node25&#45;&gt;Node8</title>
<path fill="none" stroke="midnightblue" d="M719.63,-224.3C699.26,-191.29 626.51,-73.4 598.81,-28.52"/>
<polygon fill="midnightblue" stroke="midnightblue" points="601.71,-26.56 593.48,-19.88 595.76,-30.23 601.71,-26.56"/>
</g>
<!-- Node25&#45;&gt;Node13 -->
<g id="edge44" class="edge">
<title>Node25&#45;&gt;Node13</title>
<path fill="none" stroke="midnightblue" d="M738.5,-224.32C751.6,-215.9 771.71,-202.97 787.11,-193.07"/>
<polygon fill="midnightblue" stroke="midnightblue" points="789.02,-196.01 795.54,-187.65 785.23,-190.12 789.02,-196.01"/>
</g>
<!-- Node25&#45;&gt;Node15 -->
<g id="edge45" class="edge">
<title>Node25&#45;&gt;Node15</title>
<path fill="none" stroke="midnightblue" d="M688.29,-224.74C644.58,-214.91 571.8,-198.53 526.2,-188.27"/>
<polygon fill="midnightblue" stroke="midnightblue" points="526.88,-184.83 516.35,-186.05 525.34,-191.66 526.88,-184.83"/>
</g>
<!-- Node26&#45;&gt;Node8 -->
<g id="edge47" class="edge">
<title>Node26&#45;&gt;Node8</title>
<path fill="none" stroke="midnightblue" d="M556.29,-224.3C561.15,-191.63 578.36,-75.87 585.18,-29.96"/>
<polygon fill="midnightblue" stroke="midnightblue" points="588.67,-30.29 586.68,-19.88 581.75,-29.26 588.67,-30.29"/>
</g>
<!-- Node26&#45;&gt;Node15 -->
<g id="edge48" class="edge">
<title>Node26&#45;&gt;Node15</title>
<path fill="none" stroke="midnightblue" d="M543.75,-224.32C533.2,-216.18 517.2,-203.84 504.56,-194.09"/>
<polygon fill="midnightblue" stroke="midnightblue" points="506.51,-191.17 496.45,-187.83 502.23,-196.71 506.51,-191.17"/>
</g>
<!-- Node27&#45;&gt;Node8 -->
<g id="edge50" class="edge">
<title>Node27&#45;&gt;Node8</title>
<path fill="none" stroke="midnightblue" d="M637,-224.3C629.48,-191.56 602.79,-75.38 592.29,-29.67"/>
<polygon fill="midnightblue" stroke="midnightblue" points="595.69,-28.85 590.04,-19.88 588.87,-30.41 595.69,-28.85"/>
</g>
<!-- Node27&#45;&gt;Node15 -->
<g id="edge51" class="edge">
<title>Node27&#45;&gt;Node15</title>
<path fill="none" stroke="midnightblue" d="M614.6,-224.44C588.8,-215.4 547.92,-201.06 518.98,-190.92"/>
<polygon fill="midnightblue" stroke="midnightblue" points="519.88,-187.52 509.29,-187.52 517.57,-194.13 519.88,-187.52"/>
</g>
</g>
</svg>
