<?xml version="1.0" encoding="UTF-8" standalone="no"?>
<!DOCTYPE svg PUBLIC "-//W3C//DTD SVG 1.1//EN"
 "http://www.w3.org/Graphics/SVG/1.1/DTD/svg11.dtd">
<!-- Generated by graphviz version 2.47.3 (20210619.1520)
 -->
<!-- Title: src/libBtf/include/btf/btf_entity_types.h Pages: 1 -->
<svg width="429pt" height="240pt"
 viewBox="0.00 0.00 429.00 240.00" xmlns="http://www.w3.org/2000/svg" xmlns:xlink="http://www.w3.org/1999/xlink">
<g id="graph0" class="graph" transform="scale(1 1) rotate(0) translate(4 236)">
<title>src/libBtf/include/btf/btf_entity_types.h</title>
<polygon fill="white" stroke="transparent" points="-4,4 -4,-236 425,-236 425,4 -4,4"/>
<!-- Node1 -->
<g id="node1" class="node">
<title>Node1</title>
<g id="a_node1"><a xlink:title=" ">
<polygon fill="#bfbfbf" stroke="black" points="172,-201.5 172,-231.5 282,-231.5 282,-201.5 172,-201.5"/>
<text text-anchor="start" x="180" y="-219.5" font-family="Helvetica,sans-Serif" font-size="10.00">src/libBtf/include</text>
<text text-anchor="middle" x="227" y="-208.5" font-family="Helvetica,sans-Serif" font-size="10.00">/btf/btf_entity_types.h</text>
</a>
</g>
</g>
<!-- Node2 -->
<g id="node2" class="node">
<title>Node2</title>
<g id="a_node2"><a xlink:href="btf_8h.html" target="_top" xlink:title=" ">
<polygon fill="white" stroke="black" points="146.5,-67.5 146.5,-97.5 235.5,-97.5 235.5,-67.5 146.5,-67.5"/>
<text text-anchor="start" x="154.5" y="-85.5" font-family="Helvetica,sans-Serif" font-size="10.00">src/libBtf/include</text>
<text text-anchor="middle" x="191" y="-74.5" font-family="Helvetica,sans-Serif" font-size="10.00">/btf/btf.h</text>
</a>
</g>
</g>
<!-- Node1&#45;&gt;Node2 -->
<g id="edge1" class="edge">
<title>Node1&#45;&gt;Node2</title>
<path fill="none" stroke="midnightblue" d="M218.53,-191.89C215.65,-183.46 212.52,-173.86 210,-165 203.37,-141.66 197.3,-114.09 193.89,-97.74"/>
<polygon fill="midnightblue" stroke="midnightblue" points="215.27,-193.18 221.87,-201.46 221.88,-190.87 215.27,-193.18"/>
</g>
<!-- Node5 -->
<g id="node5" class="node">
<title>Node5</title>
<g id="a_node5"><a xlink:href="process_8h.html" target="_top" xlink:title=" ">
<polygon fill="white" stroke="black" points="73.5,-134.5 73.5,-164.5 162.5,-164.5 162.5,-134.5 73.5,-134.5"/>
<text text-anchor="start" x="81.5" y="-152.5" font-family="Helvetica,sans-Serif" font-size="10.00">src/libBtf/include</text>
<text text-anchor="middle" x="118" y="-141.5" font-family="Helvetica,sans-Serif" font-size="10.00">/btf/process.h</text>
</a>
</g>
</g>
<!-- Node1&#45;&gt;Node5 -->
<g id="edge4" class="edge">
<title>Node1&#45;&gt;Node5</title>
<path fill="none" stroke="midnightblue" d="M194.33,-196.02C177.36,-185.9 157.02,-173.77 141.61,-164.58"/>
<polygon fill="midnightblue" stroke="midnightblue" points="192.97,-199.28 203.35,-201.4 196.55,-193.27 192.97,-199.28"/>
</g>
<!-- Node7 -->
<g id="node7" class="node">
<title>Node7</title>
<g id="a_node7"><a xlink:href="semaphore_8h.html" target="_top" xlink:title=" ">
<polygon fill="white" stroke="black" points="219.5,-134.5 219.5,-164.5 308.5,-164.5 308.5,-134.5 219.5,-134.5"/>
<text text-anchor="start" x="227.5" y="-152.5" font-family="Helvetica,sans-Serif" font-size="10.00">src/libBtf/include</text>
<text text-anchor="middle" x="264" y="-141.5" font-family="Helvetica,sans-Serif" font-size="10.00">/btf/semaphore.h</text>
</a>
</g>
</g>
<!-- Node1&#45;&gt;Node7 -->
<g id="edge7" class="edge">
<title>Node1&#45;&gt;Node7</title>
<path fill="none" stroke="midnightblue" d="M240.05,-192.58C245.36,-183.24 251.34,-172.75 255.99,-164.58"/>
<polygon fill="midnightblue" stroke="midnightblue" points="236.93,-190.97 235.03,-201.4 243.02,-194.44 236.93,-190.97"/>
</g>
<!-- Node9 -->
<g id="node9" class="node">
<title>Node9</title>
<g id="a_node9"><a xlink:href="btf__entity__types_8cpp.html" target="_top" xlink:title=" ">
<polygon fill="white" stroke="black" points="327,-134.5 327,-164.5 421,-164.5 421,-134.5 327,-134.5"/>
<text text-anchor="start" x="335" y="-152.5" font-family="Helvetica,sans-Serif" font-size="10.00">src/libBtf/src/btf</text>
<text text-anchor="middle" x="374" y="-141.5" font-family="Helvetica,sans-Serif" font-size="10.00">_entity_types.cpp</text>
</a>
</g>
</g>
<!-- Node1&#45;&gt;Node9 -->
<g id="edge10" class="edge">
<title>Node1&#45;&gt;Node9</title>
<path fill="none" stroke="midnightblue" d="M268.23,-197.27C291.64,-186.92 320.51,-174.15 342.17,-164.58"/>
<polygon fill="midnightblue" stroke="midnightblue" points="266.63,-194.15 258.9,-201.4 269.46,-200.55 266.63,-194.15"/>
</g>
<!-- Node3 -->
<g id="node3" class="node">
<title>Node3</title>
<g id="a_node3"><a xlink:href="btf_8cpp.html" target="_top" xlink:title=" ">
<polygon fill="white" stroke="black" points="80,-6 80,-25 184,-25 184,-6 80,-6"/>
<text text-anchor="middle" x="132" y="-13" font-family="Helvetica,sans-Serif" font-size="10.00">src/libBtf/src/btf.cpp</text>
</a>
</g>
</g>
<!-- Node2&#45;&gt;Node3 -->
<g id="edge2" class="edge">
<title>Node2&#45;&gt;Node3</title>
<path fill="none" stroke="midnightblue" d="M171.17,-59.66C160.47,-47.86 147.85,-33.97 139.89,-25.19"/>
<polygon fill="midnightblue" stroke="midnightblue" points="168.89,-62.34 178.2,-67.4 174.07,-57.64 168.89,-62.34"/>
</g>
<!-- Node4 -->
<g id="node4" class="node">
<title>Node4</title>
<g id="a_node4"><a xlink:href="libbtf__binding_8cpp.html" target="_top" xlink:title=" ">
<polygon fill="white" stroke="black" points="202,-0.5 202,-30.5 298,-30.5 298,-0.5 202,-0.5"/>
<text text-anchor="start" x="210" y="-18.5" font-family="Helvetica,sans-Serif" font-size="10.00">src/pybindings/src</text>
<text text-anchor="middle" x="250" y="-7.5" font-family="Helvetica,sans-Serif" font-size="10.00">/libbtf_binding.cpp</text>
</a>
</g>
</g>
<!-- Node2&#45;&gt;Node4 -->
<g id="edge3" class="edge">
<title>Node2&#45;&gt;Node4</title>
<path fill="none" stroke="midnightblue" d="M210.75,-59.74C219.48,-50.12 229.5,-39.09 237.22,-30.58"/>
<polygon fill="midnightblue" stroke="midnightblue" points="207.93,-57.64 203.8,-67.4 213.11,-62.34 207.93,-57.64"/>
</g>
<!-- Node5&#45;&gt;Node2 -->
<g id="edge5" class="edge">
<title>Node5&#45;&gt;Node2</title>
<path fill="none" stroke="midnightblue" d="M141.47,-127.6C152.5,-117.78 165.34,-106.34 175.19,-97.58"/>
<polygon fill="midnightblue" stroke="midnightblue" points="138.98,-125.13 133.84,-134.4 143.64,-130.36 138.98,-125.13"/>
</g>
<!-- Node6 -->
<g id="node6" class="node">
<title>Node6</title>
<g id="a_node6"><a xlink:href="process_8cpp.html" target="_top" xlink:title=" ">
<polygon fill="white" stroke="black" points="0,-73 0,-92 128,-92 128,-73 0,-73"/>
<text text-anchor="middle" x="64" y="-80" font-family="Helvetica,sans-Serif" font-size="10.00">src/libBtf/src/process.cpp</text>
</a>
</g>
</g>
<!-- Node5&#45;&gt;Node6 -->
<g id="edge6" class="edge">
<title>Node5&#45;&gt;Node6</title>
<path fill="none" stroke="midnightblue" d="M99.85,-126.66C90.06,-114.86 78.51,-100.97 71.22,-92.19"/>
<polygon fill="midnightblue" stroke="midnightblue" points="97.2,-128.94 106.28,-134.4 102.58,-124.47 97.2,-128.94"/>
</g>
<!-- Node7&#45;&gt;Node2 -->
<g id="edge8" class="edge">
<title>Node7&#45;&gt;Node2</title>
<path fill="none" stroke="midnightblue" d="M240.53,-127.6C229.5,-117.78 216.66,-106.34 206.81,-97.58"/>
<polygon fill="midnightblue" stroke="midnightblue" points="238.36,-130.36 248.16,-134.4 243.02,-125.13 238.36,-130.36"/>
</g>
<!-- Node8 -->
<g id="node8" class="node">
<title>Node8</title>
<g id="a_node8"><a xlink:href="semaphore_8cpp.html" target="_top" xlink:title=" ">
<polygon fill="white" stroke="black" points="253.5,-73 253.5,-92 394.5,-92 394.5,-73 253.5,-73"/>
<text text-anchor="middle" x="324" y="-80" font-family="Helvetica,sans-Serif" font-size="10.00">src/libBtf/src/semaphore.cpp</text>
</a>
</g>
</g>
<!-- Node7&#45;&gt;Node8 -->
<g id="edge9" class="edge">
<title>Node7&#45;&gt;Node8</title>
<path fill="none" stroke="midnightblue" d="M283.85,-127C294.8,-115.13 307.8,-101.05 315.97,-92.19"/>
<polygon fill="midnightblue" stroke="midnightblue" points="281.23,-124.67 277.02,-134.4 286.37,-129.42 281.23,-124.67"/>
</g>
</g>
</svg>
