<?xml version="1.0" encoding="UTF-8" standalone="no"?>
<!DOCTYPE svg PUBLIC "-//W3C//DTD SVG 1.1//EN"
 "http://www.w3.org/Graphics/SVG/1.1/DTD/svg11.dtd">
<!-- Generated by graphviz version 2.47.3 (20210619.1520)
 -->
<!-- Title: src/libBtf/src/btf.cpp Pages: 1 -->
<!--zoomable 364 -->
<svg id="main" version="1.1" xmlns="http://www.w3.org/2000/svg" xmlns:xlink="http://www.w3.org/1999/xlink" xml:space="preserve" onload="init(evt)">
<style type="text/css"><![CDATA[
.edge:hover path { stroke: red; }
.edge:hover polygon { stroke: red; fill: red; }
]]></style>
<script type="text/javascript"><![CDATA[
var edges = document.getElementsByTagName('g');
if (edges && edges.length) {
  for (var i=0;i<edges.length;i++) {
    if (edges[i].id.substr(0,4)=='edge') {
      edges[i].setAttribute('class','edge');
    }
  }
}
]]></script>
        <defs>
                <circle id="rim" cx="0" cy="0" r="7"/>
                <circle id="rim2" cx="0" cy="0" r="3.5"/>
                <g id="zoomPlus">
                        <use xlink:href="#rim" fill="#404040">
                                <set attributeName="fill" to="#808080" begin="zoomplus.mouseover" end="zoomplus.mouseout"/>
                        </use>
                        <path d="M-4,0h8M0,-4v8" fill="none" stroke="white" stroke-width="1.5" pointer-events="none"/>
                </g>
                <g id="zoomMin">
                        <use xlink:href="#rim" fill="#404040">
                                <set attributeName="fill" to="#808080" begin="zoomminus.mouseover" end="zoomminus.mouseout"/>
                        </use>
                        <path d="M-4,0h8" fill="none" stroke="white" stroke-width="1.5" pointer-events="none"/>
                </g>
                <g id="dirArrow">
                        <path fill="none" stroke="white" stroke-width="1.5" d="M0,-3.0v7 M-2.5,-0.5L0,-3.0L2.5,-0.5"/>
                </g>
               <g id="resetDef">
                       <use xlink:href="#rim2" fill="#404040">
                               <set attributeName="fill" to="#808080" begin="reset.mouseover" end="reset.mouseout"/>
                       </use>
               </g>
        </defs>

<script type="text/javascript">
var viewWidth = 1502;
var viewHeight = 364;
var sectionId = 'dynsection-0';
</script>
<script xlink:href="svgpan.js"/>
<svg id="graph" class="graph">
<g id="viewport">
<title>src/libBtf/src/btf.cpp</title>
<polygon fill="white" stroke="transparent" points="-4,4 -4,-360 1497.5,-360 1497.5,4 -4,4"/>
<!-- Node1 -->
<g id="node1" class="node">
<title>Node1</title>
<g id="a_node1"><a xlink:title=" ">
<polygon fill="#bfbfbf" stroke="black" points="352.5,-336.5 352.5,-355.5 456.5,-355.5 456.5,-336.5 352.5,-336.5"/>
<text text-anchor="middle" x="404.5" y="-343.5" font-family="Helvetica,sans-Serif" font-size="10.00">src/libBtf/src/btf.cpp</text>
</a>
</g>
</g>
<!-- Node2 -->
<g id="node2" class="node">
<title>Node2</title>
<g id="a_node2"><a xlink:href="btf_8h.html" target="_top" xlink:title=" ">
<polygon fill="white" stroke="black" points="717,-280.5 717,-299.5 766,-299.5 766,-280.5 717,-280.5"/>
<text text-anchor="middle" x="741.5" y="-287.5" font-family="Helvetica,sans-Serif" font-size="10.00">btf/btf.h</text>
</a>
</g>
</g>
<!-- Node1&#45;&gt;Node2 -->
<g id="edge1" class="edge">
<title>Node1&#45;&gt;Node2</title>
<path fill="none" stroke="midnightblue" d="M456.79,-336.62C526.37,-325.47 647.52,-306.06 706.81,-296.56"/>
<polygon fill="midnightblue" stroke="midnightblue" points="707.48,-300 716.8,-294.96 706.37,-293.08 707.48,-300"/>
</g>
<!-- Node17 -->
<g id="node17" class="node">
<title>Node17</title>
<g id="a_node17"><a xlink:href="helper_8h.html" target="_top" xlink:title=" ">
<polygon fill="white" stroke="black" points="72.5,-112.5 72.5,-131.5 152.5,-131.5 152.5,-112.5 72.5,-112.5"/>
<text text-anchor="middle" x="112.5" y="-119.5" font-family="Helvetica,sans-Serif" font-size="10.00">helper/helper.h</text>
</a>
</g>
</g>
<!-- Node1&#45;&gt;Node17 -->
<g id="edge53" class="edge">
<title>Node1&#45;&gt;Node17</title>
<path fill="none" stroke="midnightblue" d="M352.33,-342.25C287.68,-335.8 179.36,-314.43 124.5,-244 101.45,-214.4 104.62,-167.59 108.71,-141.73"/>
<polygon fill="midnightblue" stroke="midnightblue" points="112.18,-142.21 110.51,-131.74 105.29,-140.97 112.18,-142.21"/>
</g>
<!-- Node3 -->
<g id="node3" class="node">
<title>Node3</title>
<g id="a_node3"><a xlink:title=" ">
<polygon fill="white" stroke="#bfbfbf" points="1437.5,-224.5 1437.5,-243.5 1493.5,-243.5 1493.5,-224.5 1437.5,-224.5"/>
<text text-anchor="middle" x="1465.5" y="-231.5" font-family="Helvetica,sans-Serif" font-size="10.00">algorithm</text>
</a>
</g>
</g>
<!-- Node2&#45;&gt;Node3 -->
<g id="edge2" class="edge">
<title>Node2&#45;&gt;Node3</title>
<path fill="none" stroke="midnightblue" d="M766,-288.92C854.17,-288.33 1163.54,-283.49 1427.17,-243.93"/>
<polygon fill="midnightblue" stroke="midnightblue" points="1427.96,-247.35 1437.32,-242.39 1426.91,-240.43 1427.96,-247.35"/>
</g>
<!-- Node4 -->
<g id="node4" class="node">
<title>Node4</title>
<g id="a_node4"><a xlink:title=" ">
<polygon fill="white" stroke="#bfbfbf" points="133.5,-224.5 133.5,-243.5 165.5,-243.5 165.5,-224.5 133.5,-224.5"/>
<text text-anchor="middle" x="149.5" y="-231.5" font-family="Helvetica,sans-Serif" font-size="10.00">any</text>
</a>
</g>
</g>
<!-- Node2&#45;&gt;Node4 -->
<g id="edge3" class="edge">
<title>Node2&#45;&gt;Node4</title>
<path fill="none" stroke="midnightblue" d="M716.88,-288.88C637.99,-288.1 384.64,-282.53 179.5,-244 178.21,-243.76 176.89,-243.48 175.57,-243.18"/>
<polygon fill="midnightblue" stroke="midnightblue" points="176.1,-239.7 165.54,-240.49 174.29,-246.46 176.1,-239.7"/>
</g>
<!-- Node5 -->
<g id="node5" class="node">
<title>Node5</title>
<g id="a_node5"><a xlink:title=" ">
<polygon fill="white" stroke="#bfbfbf" points="0,-0.5 0,-19.5 49,-19.5 49,-0.5 0,-0.5"/>
<text text-anchor="middle" x="24.5" y="-7.5" font-family="Helvetica,sans-Serif" font-size="10.00">fstream</text>
</a>
</g>
</g>
<!-- Node2&#45;&gt;Node5 -->
<g id="edge4" class="edge">
<title>Node2&#45;&gt;Node5</title>
<path fill="none" stroke="midnightblue" d="M717,-288.59C608.56,-286.58 175,-276.54 124.5,-244 49.11,-195.42 30.38,-76.59 25.88,-30.1"/>
<polygon fill="midnightblue" stroke="midnightblue" points="29.35,-29.59 25.01,-19.92 22.37,-30.18 29.35,-29.59"/>
</g>
<!-- Node6 -->
<g id="node6" class="node">
<title>Node6</title>
<g id="a_node6"><a xlink:title=" ">
<polygon fill="white" stroke="#bfbfbf" points="170.5,-0.5 170.5,-19.5 224.5,-19.5 224.5,-0.5 170.5,-0.5"/>
<text text-anchor="middle" x="197.5" y="-7.5" font-family="Helvetica,sans-Serif" font-size="10.00">iostream</text>
</a>
</g>
</g>
<!-- Node2&#45;&gt;Node6 -->
<g id="edge5" class="edge">
<title>Node2&#45;&gt;Node6</title>
<path fill="none" stroke="midnightblue" d="M716.88,-288.75C617.32,-287.5 248.18,-280.42 212.5,-244 154.97,-185.27 179.18,-73.36 191.72,-29.39"/>
<polygon fill="midnightblue" stroke="midnightblue" points="195.09,-30.33 194.6,-19.75 188.39,-28.33 195.09,-30.33"/>
</g>
<!-- Node7 -->
<g id="node7" class="node">
<title>Node7</title>
<g id="a_node7"><a xlink:title=" ">
<polygon fill="white" stroke="#bfbfbf" points="1076,-224.5 1076,-243.5 1105,-243.5 1105,-224.5 1076,-224.5"/>
<text text-anchor="middle" x="1090.5" y="-231.5" font-family="Helvetica,sans-Serif" font-size="10.00">list</text>
</a>
</g>
</g>
<!-- Node2&#45;&gt;Node7 -->
<g id="edge6" class="edge">
<title>Node2&#45;&gt;Node7</title>
<path fill="none" stroke="midnightblue" d="M766.23,-286.89C820.29,-281.99 952.83,-268.34 1061.5,-244 1062.98,-243.67 1064.49,-243.3 1066.01,-242.9"/>
<polygon fill="midnightblue" stroke="midnightblue" points="1067.24,-246.19 1075.87,-240.04 1065.29,-239.47 1067.24,-246.19"/>
</g>
<!-- Node8 -->
<g id="node8" class="node">
<title>Node8</title>
<g id="a_node8"><a xlink:title=" ">
<polygon fill="white" stroke="#bfbfbf" points="1123.5,-224.5 1123.5,-243.5 1175.5,-243.5 1175.5,-224.5 1123.5,-224.5"/>
<text text-anchor="middle" x="1149.5" y="-231.5" font-family="Helvetica,sans-Serif" font-size="10.00">sstream</text>
</a>
</g>
</g>
<!-- Node2&#45;&gt;Node8 -->
<g id="edge7" class="edge">
<title>Node2&#45;&gt;Node8</title>
<path fill="none" stroke="midnightblue" d="M766.11,-287.16C824.61,-282.54 976.7,-269.15 1113.01,-244.06"/>
<polygon fill="midnightblue" stroke="midnightblue" points="1114.02,-247.43 1123.21,-242.16 1112.74,-240.55 1114.02,-247.43"/>
</g>
<!-- Node9 -->
<g id="node9" class="node">
<title>Node9</title>
<g id="a_node9"><a xlink:title=" ">
<polygon fill="white" stroke="#bfbfbf" points="604,-0.5 604,-19.5 645,-19.5 645,-0.5 604,-0.5"/>
<text text-anchor="middle" x="624.5" y="-7.5" font-family="Helvetica,sans-Serif" font-size="10.00">string</text>
</a>
</g>
</g>
<!-- Node2&#45;&gt;Node9 -->
<g id="edge8" class="edge">
<title>Node2&#45;&gt;Node9</title>
<path fill="none" stroke="midnightblue" d="M766.24,-289.51C812.61,-289.41 914.47,-284.2 987.5,-244 1021.94,-225.04 1047.5,-218.32 1047.5,-179 1047.5,-179 1047.5,-179 1047.5,-121 1047.5,-39.91 752.64,-17.55 655.28,-12.37"/>
<polygon fill="midnightblue" stroke="midnightblue" points="655.35,-8.87 645.19,-11.86 655,-15.86 655.35,-8.87"/>
</g>
<!-- Node10 -->
<g id="node10" class="node">
<title>Node10</title>
<g id="a_node10"><a xlink:title=" ">
<polygon fill="white" stroke="#bfbfbf" points="1193.5,-224.5 1193.5,-243.5 1257.5,-243.5 1257.5,-224.5 1193.5,-224.5"/>
<text text-anchor="middle" x="1225.5" y="-231.5" font-family="Helvetica,sans-Serif" font-size="10.00">string_view</text>
</a>
</g>
</g>
<!-- Node2&#45;&gt;Node10 -->
<g id="edge9" class="edge">
<title>Node2&#45;&gt;Node10</title>
<path fill="none" stroke="midnightblue" d="M766.12,-287.5C832.06,-283.26 1018.26,-269.91 1183.02,-244.07"/>
<polygon fill="midnightblue" stroke="midnightblue" points="1184.01,-247.45 1193.34,-242.43 1182.91,-240.54 1184.01,-247.45"/>
</g>
<!-- Node11 -->
<g id="node11" class="node">
<title>Node11</title>
<g id="a_node11"><a xlink:title=" ">
<polygon fill="white" stroke="#bfbfbf" points="1276,-224.5 1276,-243.5 1359,-243.5 1359,-224.5 1276,-224.5"/>
<text text-anchor="middle" x="1317.5" y="-231.5" font-family="Helvetica,sans-Serif" font-size="10.00">unordered_map</text>
</a>
</g>
</g>
<!-- Node2&#45;&gt;Node11 -->
<g id="edge10" class="edge">
<title>Node2&#45;&gt;Node11</title>
<path fill="none" stroke="midnightblue" d="M766.18,-287.67C840.21,-283.51 1066.96,-269.57 1265.75,-243.98"/>
<polygon fill="midnightblue" stroke="midnightblue" points="1266.33,-247.43 1275.8,-242.67 1265.43,-240.49 1266.33,-247.43"/>
</g>
<!-- Node12 -->
<g id="node12" class="node">
<title>Node12</title>
<g id="a_node12"><a xlink:title=" ">
<polygon fill="white" stroke="#bfbfbf" points="917.5,-112.5 917.5,-131.5 995.5,-131.5 995.5,-112.5 917.5,-112.5"/>
<text text-anchor="middle" x="956.5" y="-119.5" font-family="Helvetica,sans-Serif" font-size="10.00">unordered_set</text>
</a>
</g>
</g>
<!-- Node2&#45;&gt;Node12 -->
<g id="edge11" class="edge">
<title>Node2&#45;&gt;Node12</title>
<path fill="none" stroke="midnightblue" d="M766.03,-287.88C819.29,-284.9 942.79,-274.74 968.5,-244 992.9,-214.82 977.01,-166.78 965.46,-140.88"/>
<polygon fill="midnightblue" stroke="midnightblue" points="968.48,-139.09 961.04,-131.54 962.15,-142.08 968.48,-139.09"/>
</g>
<!-- Node13 -->
<g id="node13" class="node">
<title>Node13</title>
<g id="a_node13"><a xlink:title=" ">
<polygon fill="white" stroke="#bfbfbf" points="1377.5,-224.5 1377.5,-243.5 1419.5,-243.5 1419.5,-224.5 1377.5,-224.5"/>
<text text-anchor="middle" x="1398.5" y="-231.5" font-family="Helvetica,sans-Serif" font-size="10.00">vector</text>
</a>
</g>
</g>
<!-- Node2&#45;&gt;Node13 -->
<g id="edge12" class="edge">
<title>Node2&#45;&gt;Node13</title>
<path fill="none" stroke="midnightblue" d="M766.24,-289.17C849.84,-289.32 1129.39,-286.54 1367.46,-243.78"/>
<polygon fill="midnightblue" stroke="midnightblue" points="1368.13,-247.22 1377.34,-241.98 1366.87,-240.33 1368.13,-247.22"/>
</g>
<!-- Node14 -->
<g id="node14" class="node">
<title>Node14</title>
<g id="a_node14"><a xlink:href="btf__entity__types_8h.html" target="_top" xlink:title=" ">
<polygon fill="white" stroke="black" points="866.5,-168.5 866.5,-187.5 960.5,-187.5 960.5,-168.5 866.5,-168.5"/>
<text text-anchor="middle" x="913.5" y="-175.5" font-family="Helvetica,sans-Serif" font-size="10.00">btf_entity_types.h</text>
</a>
</g>
</g>
<!-- Node2&#45;&gt;Node14 -->
<g id="edge13" class="edge">
<title>Node2&#45;&gt;Node14</title>
<path fill="none" stroke="midnightblue" d="M766.26,-287.5C816.85,-283.87 929.29,-272.68 952.5,-244 965.26,-228.23 948.52,-207.89 933.17,-194.2"/>
<polygon fill="midnightblue" stroke="midnightblue" points="935.35,-191.45 925.44,-187.7 930.85,-196.81 935.35,-191.45"/>
</g>
<!-- Node15 -->
<g id="node15" class="node">
<title>Node15</title>
<g id="a_node15"><a xlink:href="btf__signal_8h.html" target="_top" xlink:title=" ">
<polygon fill="white" stroke="black" points="389.5,-224.5 389.5,-243.5 455.5,-243.5 455.5,-224.5 389.5,-224.5"/>
<text text-anchor="middle" x="422.5" y="-231.5" font-family="Helvetica,sans-Serif" font-size="10.00">btf_signal.h</text>
</a>
</g>
</g>
<!-- Node2&#45;&gt;Node15 -->
<g id="edge16" class="edge">
<title>Node2&#45;&gt;Node15</title>
<path fill="none" stroke="midnightblue" d="M716.97,-285.44C670.13,-278.54 564.49,-262.56 465.78,-244.17"/>
<polygon fill="midnightblue" stroke="midnightblue" points="466.41,-240.73 455.94,-242.32 465.12,-247.61 466.41,-240.73"/>
</g>
<!-- Node16 -->
<g id="node16" class="node">
<title>Node16</title>
<g id="a_node16"><a xlink:href="common_8h.html" target="_top" xlink:title=" ">
<polygon fill="white" stroke="black" points="482.5,-168.5 482.5,-187.5 544.5,-187.5 544.5,-168.5 482.5,-168.5"/>
<text text-anchor="middle" x="513.5" y="-175.5" font-family="Helvetica,sans-Serif" font-size="10.00">common.h</text>
</a>
</g>
</g>
<!-- Node2&#45;&gt;Node16 -->
<g id="edge28" class="edge">
<title>Node2&#45;&gt;Node16</title>
<path fill="none" stroke="midnightblue" d="M716.79,-287.6C680.83,-284.53 613.2,-274.79 565.5,-244 546.97,-232.04 532.06,-211.25 523.03,-196.4"/>
<polygon fill="midnightblue" stroke="midnightblue" points="526.01,-194.56 517.97,-187.65 519.95,-198.06 526.01,-194.56"/>
</g>
<!-- Node21 -->
<g id="node21" class="node">
<title>Node21</title>
<g id="a_node21"><a xlink:href="core_8h.html" target="_top" xlink:title=" ">
<polygon fill="white" stroke="black" points="473.5,-224.5 473.5,-243.5 517.5,-243.5 517.5,-224.5 473.5,-224.5"/>
<text text-anchor="middle" x="495.5" y="-231.5" font-family="Helvetica,sans-Serif" font-size="10.00">core.h</text>
</a>
</g>
</g>
<!-- Node2&#45;&gt;Node21 -->
<g id="edge29" class="edge">
<title>Node2&#45;&gt;Node21</title>
<path fill="none" stroke="midnightblue" d="M716.87,-284C677.58,-275.97 598.33,-259.51 531.5,-244 530.23,-243.71 528.93,-243.4 527.63,-243.09"/>
<polygon fill="midnightblue" stroke="midnightblue" points="528.1,-239.6 517.56,-240.64 526.45,-246.4 528.1,-239.6"/>
</g>
<!-- Node22 -->
<g id="node22" class="node">
<title>Node22</title>
<g id="a_node22"><a xlink:href="os_8h.html" target="_top" xlink:title=" ">
<polygon fill="white" stroke="black" points="574,-224.5 574,-243.5 609,-243.5 609,-224.5 574,-224.5"/>
<text text-anchor="middle" x="591.5" y="-231.5" font-family="Helvetica,sans-Serif" font-size="10.00">os.h</text>
</a>
</g>
</g>
<!-- Node2&#45;&gt;Node22 -->
<g id="edge31" class="edge">
<title>Node2&#45;&gt;Node22</title>
<path fill="none" stroke="midnightblue" d="M717.73,-280.44C690.8,-270.75 647,-254.98 618.72,-244.8"/>
<polygon fill="midnightblue" stroke="midnightblue" points="619.66,-241.42 609.06,-241.32 617.29,-248 619.66,-241.42"/>
</g>
<!-- Node23 -->
<g id="node23" class="node">
<title>Node23</title>
<g id="a_node23"><a xlink:href="process_8h.html" target="_top" xlink:title=" ">
<polygon fill="white" stroke="black" points="884,-224.5 884,-243.5 943,-243.5 943,-224.5 884,-224.5"/>
<text text-anchor="middle" x="913.5" y="-231.5" font-family="Helvetica,sans-Serif" font-size="10.00">process.h</text>
</a>
</g>
</g>
<!-- Node2&#45;&gt;Node23 -->
<g id="edge34" class="edge">
<title>Node2&#45;&gt;Node23</title>
<path fill="none" stroke="midnightblue" d="M766.14,-281.26C795.02,-272.2 843.15,-257.09 876.51,-246.61"/>
<polygon fill="midnightblue" stroke="midnightblue" points="877.86,-249.86 886.35,-243.52 875.76,-243.18 877.86,-249.86"/>
</g>
<!-- Node24 -->
<g id="node24" class="node">
<title>Node24</title>
<g id="a_node24"><a xlink:href="runnable_8h.html" target="_top" xlink:title=" ">
<polygon fill="white" stroke="black" points="627.5,-224.5 627.5,-243.5 689.5,-243.5 689.5,-224.5 627.5,-224.5"/>
<text text-anchor="middle" x="658.5" y="-231.5" font-family="Helvetica,sans-Serif" font-size="10.00">runnable.h</text>
</a>
</g>
</g>
<!-- Node2&#45;&gt;Node24 -->
<g id="edge37" class="edge">
<title>Node2&#45;&gt;Node24</title>
<path fill="none" stroke="midnightblue" d="M728.16,-280.32C715.34,-271.98 695.72,-259.21 680.56,-249.35"/>
<polygon fill="midnightblue" stroke="midnightblue" points="682.09,-246.17 671.8,-243.65 678.28,-252.04 682.09,-246.17"/>
</g>
<!-- Node25 -->
<g id="node25" class="node">
<title>Node25</title>
<g id="a_node25"><a xlink:href="scheduler_8h.html" target="_top" xlink:title=" ">
<polygon fill="white" stroke="black" points="708,-224.5 708,-243.5 775,-243.5 775,-224.5 708,-224.5"/>
<text text-anchor="middle" x="741.5" y="-231.5" font-family="Helvetica,sans-Serif" font-size="10.00">scheduler.h</text>
</a>
</g>
</g>
<!-- Node2&#45;&gt;Node25 -->
<g id="edge40" class="edge">
<title>Node2&#45;&gt;Node25</title>
<path fill="none" stroke="midnightblue" d="M741.5,-280.08C741.5,-273.01 741.5,-262.86 741.5,-253.99"/>
<polygon fill="midnightblue" stroke="midnightblue" points="745,-253.75 741.5,-243.75 738,-253.75 745,-253.75"/>
</g>
<!-- Node26 -->
<g id="node26" class="node">
<title>Node26</title>
<g id="a_node26"><a xlink:href="semaphore_8h.html" target="_top" xlink:title=" ">
<polygon fill="white" stroke="black" points="793,-224.5 793,-243.5 866,-243.5 866,-224.5 793,-224.5"/>
<text text-anchor="middle" x="829.5" y="-231.5" font-family="Helvetica,sans-Serif" font-size="10.00">semaphore.h</text>
</a>
</g>
</g>
<!-- Node2&#45;&gt;Node26 -->
<g id="edge43" class="edge">
<title>Node2&#45;&gt;Node26</title>
<path fill="none" stroke="midnightblue" d="M755.64,-280.32C769.37,-271.9 790.44,-258.97 806.56,-249.07"/>
<polygon fill="midnightblue" stroke="midnightblue" points="808.7,-251.87 815.4,-243.65 805.04,-245.9 808.7,-251.87"/>
</g>
<!-- Node27 -->
<g id="node27" class="node">
<title>Node27</title>
<g id="a_node27"><a xlink:href="simulation_8h.html" target="_top" xlink:title=" ">
<polygon fill="white" stroke="black" points="222,-224.5 222,-243.5 291,-243.5 291,-224.5 222,-224.5"/>
<text text-anchor="middle" x="256.5" y="-231.5" font-family="Helvetica,sans-Serif" font-size="10.00">simulation.h</text>
</a>
</g>
</g>
<!-- Node2&#45;&gt;Node27 -->
<g id="edge47" class="edge">
<title>Node2&#45;&gt;Node27</title>
<path fill="none" stroke="midnightblue" d="M716.52,-287.33C650.5,-282.74 465.76,-268.67 301.33,-243.97"/>
<polygon fill="midnightblue" stroke="midnightblue" points="301.44,-240.45 291.03,-242.4 300.39,-247.37 301.44,-240.45"/>
</g>
<!-- Node28 -->
<g id="node28" class="node">
<title>Node28</title>
<g id="a_node28"><a xlink:href="stimulus_8h.html" target="_top" xlink:title=" ">
<polygon fill="white" stroke="black" points="309.5,-224.5 309.5,-243.5 371.5,-243.5 371.5,-224.5 309.5,-224.5"/>
<text text-anchor="middle" x="340.5" y="-231.5" font-family="Helvetica,sans-Serif" font-size="10.00">stimulus.h</text>
</a>
</g>
</g>
<!-- Node2&#45;&gt;Node28 -->
<g id="edge50" class="edge">
<title>Node2&#45;&gt;Node28</title>
<path fill="none" stroke="midnightblue" d="M716.87,-286.76C659.72,-281.4 513.55,-266.66 381.75,-244.08"/>
<polygon fill="midnightblue" stroke="midnightblue" points="382.34,-240.62 371.88,-242.36 381.14,-247.52 382.34,-240.62"/>
</g>
<!-- Node14&#45;&gt;Node9 -->
<g id="edge14" class="edge">
<title>Node14&#45;&gt;Node9</title>
<path fill="none" stroke="midnightblue" d="M907.17,-168.49C890.3,-146.42 841.8,-86.89 787.5,-56 745.25,-31.96 689.46,-20.19 655.33,-14.88"/>
<polygon fill="midnightblue" stroke="midnightblue" points="655.45,-11.36 645.05,-13.37 654.44,-18.29 655.45,-11.36"/>
</g>
<!-- Node14&#45;&gt;Node12 -->
<g id="edge15" class="edge">
<title>Node14&#45;&gt;Node12</title>
<path fill="none" stroke="midnightblue" d="M920.6,-168.08C926.74,-160.38 935.77,-149.03 943.24,-139.65"/>
<polygon fill="midnightblue" stroke="midnightblue" points="946.04,-141.75 949.53,-131.75 940.56,-137.39 946.04,-141.75"/>
</g>
<!-- Node15&#45;&gt;Node9 -->
<g id="edge17" class="edge">
<title>Node15&#45;&gt;Node9</title>
<path fill="none" stroke="midnightblue" d="M428.84,-224.37C438.23,-211.7 456.56,-187.49 473.5,-168 520.24,-114.23 579.97,-54.57 608.25,-26.81"/>
<polygon fill="midnightblue" stroke="midnightblue" points="610.96,-29.05 615.67,-19.56 606.07,-24.05 610.96,-29.05"/>
</g>
<!-- Node15&#45;&gt;Node16 -->
<g id="edge18" class="edge">
<title>Node15&#45;&gt;Node16</title>
<path fill="none" stroke="midnightblue" d="M437.12,-224.32C451.45,-215.82 473.51,-202.73 490.25,-192.8"/>
<polygon fill="midnightblue" stroke="midnightblue" points="492.1,-195.77 498.92,-187.65 488.53,-189.75 492.1,-195.77"/>
</g>
<!-- Node16&#45;&gt;Node6 -->
<g id="edge19" class="edge">
<title>Node16&#45;&gt;Node6</title>
<path fill="none" stroke="midnightblue" d="M496.96,-168.31C445.12,-141.08 285.62,-57.29 223.06,-24.43"/>
<polygon fill="midnightblue" stroke="midnightblue" points="224.36,-21.16 213.88,-19.61 221.11,-27.35 224.36,-21.16"/>
</g>
<!-- Node16&#45;&gt;Node17 -->
<g id="edge20" class="edge">
<title>Node16&#45;&gt;Node17</title>
<path fill="none" stroke="midnightblue" d="M482.37,-172.81C413.3,-163.51 246.72,-141.07 162.72,-129.76"/>
<polygon fill="midnightblue" stroke="midnightblue" points="163.03,-126.27 152.65,-128.41 162.1,-133.21 163.03,-126.27"/>
</g>
<!-- Node18 -->
<g id="node18" class="node">
<title>Node18</title>
<g id="a_node18"><a xlink:href="logging_8h.html" target="_top" xlink:title=" ">
<polygon fill="white" stroke="black" points="57.5,-56.5 57.5,-75.5 113.5,-75.5 113.5,-56.5 57.5,-56.5"/>
<text text-anchor="middle" x="85.5" y="-63.5" font-family="Helvetica,sans-Serif" font-size="10.00">logging.h</text>
</a>
</g>
</g>
<!-- Node17&#45;&gt;Node18 -->
<g id="edge21" class="edge">
<title>Node17&#45;&gt;Node18</title>
<path fill="none" stroke="midnightblue" d="M108.04,-112.08C104.35,-104.69 98.98,-93.95 94.41,-84.81"/>
<polygon fill="midnightblue" stroke="midnightblue" points="97.48,-83.13 89.88,-75.75 91.22,-86.26 97.48,-83.13"/>
</g>
<!-- Node20 -->
<g id="node20" class="node">
<title>Node20</title>
<g id="a_node20"><a xlink:href="util_8h.html" target="_top" xlink:title=" ">
<polygon fill="white" stroke="black" points="131.5,-56.5 131.5,-75.5 169.5,-75.5 169.5,-56.5 131.5,-56.5"/>
<text text-anchor="middle" x="150.5" y="-63.5" font-family="Helvetica,sans-Serif" font-size="10.00">util.h</text>
</a>
</g>
</g>
<!-- Node17&#45;&gt;Node20 -->
<g id="edge24" class="edge">
<title>Node17&#45;&gt;Node20</title>
<path fill="none" stroke="midnightblue" d="M118.77,-112.08C124.14,-104.46 132.02,-93.26 138.58,-83.94"/>
<polygon fill="midnightblue" stroke="midnightblue" points="141.45,-85.94 144.34,-75.75 135.72,-81.91 141.45,-85.94"/>
</g>
<!-- Node18&#45;&gt;Node6 -->
<g id="edge22" class="edge">
<title>Node18&#45;&gt;Node6</title>
<path fill="none" stroke="midnightblue" d="M103.49,-56.32C121.54,-47.62 149.55,-34.12 170.3,-24.11"/>
<polygon fill="midnightblue" stroke="midnightblue" points="172.06,-27.15 179.55,-19.65 169.02,-20.84 172.06,-27.15"/>
</g>
<!-- Node19 -->
<g id="node19" class="node">
<title>Node19</title>
<g id="a_node19"><a xlink:title=" ">
<polygon fill="white" stroke="#bfbfbf" points="67,-0.5 67,-19.5 152,-19.5 152,-0.5 67,-0.5"/>
<text text-anchor="middle" x="109.5" y="-7.5" font-family="Helvetica,sans-Serif" font-size="10.00">source_location</text>
</a>
</g>
</g>
<!-- Node18&#45;&gt;Node19 -->
<g id="edge23" class="edge">
<title>Node18&#45;&gt;Node19</title>
<path fill="none" stroke="midnightblue" d="M89.46,-56.08C92.71,-48.77 97.42,-38.18 101.45,-29.1"/>
<polygon fill="midnightblue" stroke="midnightblue" points="104.75,-30.31 105.61,-19.75 98.35,-27.47 104.75,-30.31"/>
</g>
<!-- Node20&#45;&gt;Node5 -->
<g id="edge25" class="edge">
<title>Node20&#45;&gt;Node5</title>
<path fill="none" stroke="midnightblue" d="M131.36,-56.8C110.79,-47.98 77.83,-33.86 53.95,-23.62"/>
<polygon fill="midnightblue" stroke="midnightblue" points="55.22,-20.36 44.65,-19.64 52.47,-26.79 55.22,-20.36"/>
</g>
<!-- Node20&#45;&gt;Node6 -->
<g id="edge26" class="edge">
<title>Node20&#45;&gt;Node6</title>
<path fill="none" stroke="midnightblue" d="M158.26,-56.08C165.04,-48.3 175.04,-36.8 183.26,-27.37"/>
<polygon fill="midnightblue" stroke="midnightblue" points="185.96,-29.59 189.88,-19.75 180.68,-25 185.96,-29.59"/>
</g>
<!-- Node20&#45;&gt;Node9 -->
<g id="edge27" class="edge">
<title>Node20&#45;&gt;Node9</title>
<path fill="none" stroke="midnightblue" d="M169.67,-62.82C242.65,-54.5 503.57,-24.78 593.65,-14.51"/>
<polygon fill="midnightblue" stroke="midnightblue" points="594.23,-17.97 603.77,-13.36 593.44,-11.02 594.23,-17.97"/>
</g>
<!-- Node21&#45;&gt;Node16 -->
<g id="edge30" class="edge">
<title>Node21&#45;&gt;Node16</title>
<path fill="none" stroke="midnightblue" d="M498.47,-224.08C500.88,-216.85 504.36,-206.41 507.37,-197.4"/>
<polygon fill="midnightblue" stroke="midnightblue" points="510.74,-198.34 510.58,-187.75 504.1,-196.13 510.74,-198.34"/>
</g>
<!-- Node22&#45;&gt;Node9 -->
<g id="edge32" class="edge">
<title>Node22&#45;&gt;Node9</title>
<path fill="none" stroke="midnightblue" d="M592.79,-224.3C597.65,-191.63 614.86,-75.87 621.68,-29.96"/>
<polygon fill="midnightblue" stroke="midnightblue" points="625.17,-30.29 623.18,-19.88 618.25,-29.26 625.17,-30.29"/>
</g>
<!-- Node22&#45;&gt;Node16 -->
<g id="edge33" class="edge">
<title>Node22&#45;&gt;Node16</title>
<path fill="none" stroke="midnightblue" d="M578.97,-224.32C566.91,-215.98 548.47,-203.21 534.23,-193.35"/>
<polygon fill="midnightblue" stroke="midnightblue" points="536.22,-190.47 526,-187.65 532.23,-196.22 536.22,-190.47"/>
</g>
<!-- Node23&#45;&gt;Node14 -->
<g id="edge35" class="edge">
<title>Node23&#45;&gt;Node14</title>
<path fill="none" stroke="midnightblue" d="M913.5,-224.08C913.5,-217.01 913.5,-206.86 913.5,-197.99"/>
<polygon fill="midnightblue" stroke="midnightblue" points="917,-197.75 913.5,-187.75 910,-197.75 917,-197.75"/>
</g>
<!-- Node23&#45;&gt;Node16 -->
<g id="edge36" class="edge">
<title>Node23&#45;&gt;Node16</title>
<path fill="none" stroke="midnightblue" d="M883.69,-225.62C880.93,-225.03 878.17,-224.48 875.5,-224 760.13,-203.23 622.35,-188.97 554.87,-182.66"/>
<polygon fill="midnightblue" stroke="midnightblue" points="554.94,-179.16 544.66,-181.72 554.3,-186.13 554.94,-179.16"/>
</g>
<!-- Node24&#45;&gt;Node9 -->
<g id="edge38" class="edge">
<title>Node24&#45;&gt;Node9</title>
<path fill="none" stroke="midnightblue" d="M657.17,-224.3C652.16,-191.63 634.43,-75.87 627.4,-29.96"/>
<polygon fill="midnightblue" stroke="midnightblue" points="630.83,-29.24 625.86,-19.88 623.91,-30.3 630.83,-29.24"/>
</g>
<!-- Node24&#45;&gt;Node16 -->
<g id="edge39" class="edge">
<title>Node24&#45;&gt;Node16</title>
<path fill="none" stroke="midnightblue" d="M635.52,-224.44C611.34,-215.44 573.08,-201.19 545.85,-191.05"/>
<polygon fill="midnightblue" stroke="midnightblue" points="546.96,-187.73 536.37,-187.52 544.52,-194.29 546.96,-187.73"/>
</g>
<!-- Node25&#45;&gt;Node9 -->
<g id="edge41" class="edge">
<title>Node25&#45;&gt;Node9</title>
<path fill="none" stroke="midnightblue" d="M736.91,-224.3C719.55,-191.36 657.65,-73.9 633.88,-28.81"/>
<polygon fill="midnightblue" stroke="midnightblue" points="636.94,-27.1 629.18,-19.88 630.75,-30.36 636.94,-27.1"/>
</g>
<!-- Node25&#45;&gt;Node16 -->
<g id="edge42" class="edge">
<title>Node25&#45;&gt;Node16</title>
<path fill="none" stroke="midnightblue" d="M707.86,-225.03C667.06,-215.37 598.33,-199.09 554.48,-188.71"/>
<polygon fill="midnightblue" stroke="midnightblue" points="555.25,-185.29 544.71,-186.39 553.64,-192.1 555.25,-185.29"/>
</g>
<!-- Node26&#45;&gt;Node9 -->
<g id="edge44" class="edge">
<title>Node26&#45;&gt;Node9</title>
<path fill="none" stroke="midnightblue" d="M821.81,-224.47C798.66,-198.81 727.54,-120.2 667.5,-56 658.44,-46.31 648.18,-35.57 639.96,-27.01"/>
<polygon fill="midnightblue" stroke="midnightblue" points="642.26,-24.35 632.8,-19.57 637.21,-29.21 642.26,-24.35"/>
</g>
<!-- Node26&#45;&gt;Node14 -->
<g id="edge45" class="edge">
<title>Node26&#45;&gt;Node14</title>
<path fill="none" stroke="midnightblue" d="M843,-224.32C856.1,-215.9 876.21,-202.97 891.61,-193.07"/>
<polygon fill="midnightblue" stroke="midnightblue" points="893.52,-196.01 900.04,-187.65 889.73,-190.12 893.52,-196.01"/>
</g>
<!-- Node26&#45;&gt;Node16 -->
<g id="edge46" class="edge">
<title>Node26&#45;&gt;Node16</title>
<path fill="none" stroke="midnightblue" d="M792.68,-225.53C789.92,-225 787.16,-224.49 784.5,-224 703.35,-209.15 608.15,-193.83 554.92,-185.44"/>
<polygon fill="midnightblue" stroke="midnightblue" points="555.28,-181.96 544.85,-183.86 554.19,-188.87 555.28,-181.96"/>
</g>
<!-- Node27&#45;&gt;Node9 -->
<g id="edge48" class="edge">
<title>Node27&#45;&gt;Node9</title>
<path fill="none" stroke="midnightblue" d="M268.33,-224.45C305.53,-197.74 423.87,-114.2 528.5,-56 550.24,-43.91 575.79,-32.04 595.06,-23.53"/>
<polygon fill="midnightblue" stroke="midnightblue" points="596.48,-26.73 604.24,-19.52 593.67,-20.31 596.48,-26.73"/>
</g>
<!-- Node27&#45;&gt;Node16 -->
<g id="edge49" class="edge">
<title>Node27&#45;&gt;Node16</title>
<path fill="none" stroke="midnightblue" d="M291.16,-225.72C338.2,-215.83 422.14,-198.2 472.33,-187.65"/>
<polygon fill="midnightblue" stroke="midnightblue" points="473.14,-191.06 482.2,-185.58 471.7,-184.21 473.14,-191.06"/>
</g>
<!-- Node28&#45;&gt;Node9 -->
<g id="edge51" class="edge">
<title>Node28&#45;&gt;Node9</title>
<path fill="none" stroke="midnightblue" d="M350.54,-224.14C380.82,-197.59 474.18,-116.73 556.5,-56 571.31,-45.08 588.61,-33.64 602.06,-25.03"/>
<polygon fill="midnightblue" stroke="midnightblue" points="604.11,-27.88 610.67,-19.57 600.36,-21.97 604.11,-27.88"/>
</g>
<!-- Node28&#45;&gt;Node16 -->
<g id="edge52" class="edge">
<title>Node28&#45;&gt;Node16</title>
<path fill="none" stroke="midnightblue" d="M367.91,-224.44C397.27,-215.28 444.02,-200.69 476.6,-190.52"/>
<polygon fill="midnightblue" stroke="midnightblue" points="477.71,-193.84 486.22,-187.52 475.63,-187.16 477.71,-193.84"/>
</g>
</g>
</svg>
        <g id="navigator" transform="translate(0 0)" fill="#404254">
                <rect fill="#f2f5e9" fill-opacity="0.5" stroke="#606060" stroke-width=".5" x="0" y="0" width="60" height="60"/>
                <use id="zoomplus" xlink:href="#zoomPlus" x="17" y="9" onmousedown="handleZoom(evt,'in')"/>
                <use id="zoomminus" xlink:href="#zoomMin" x="42" y="9" onmousedown="handleZoom(evt,'out')"/>
                <use id="reset" xlink:href="#resetDef" x="30" y="36" onmousedown="handleReset()"/>
                <g id="arrowUp" xlink:href="#dirArrow" transform="translate(30 24)" onmousedown="handlePan(0,-1)">
                  <use xlink:href="#rim" fill="#404040">
                        <set attributeName="fill" to="#808080" begin="arrowUp.mouseover" end="arrowUp.mouseout"/>
                  </use>
                  <path fill="none" stroke="white" stroke-width="1.5" d="M0,-3.0v7 M-2.5,-0.5L0,-3.0L2.5,-0.5"/>
                </g>
                <g id="arrowRight" xlink:href="#dirArrow" transform="rotate(90) translate(36 -43)" onmousedown="handlePan(1,0)">
                  <use xlink:href="#rim" fill="#404040">
                        <set attributeName="fill" to="#808080" begin="arrowRight.mouseover" end="arrowRight.mouseout"/>
                  </use>
                  <path fill="none" stroke="white" stroke-width="1.5" d="M0,-3.0v7 M-2.5,-0.5L0,-3.0L2.5,-0.5"/>
                </g>
                <g id="arrowDown" xlink:href="#dirArrow" transform="rotate(180) translate(-30 -48)" onmousedown="handlePan(0,1)">
                  <use xlink:href="#rim" fill="#404040">
                        <set attributeName="fill" to="#808080" begin="arrowDown.mouseover" end="arrowDown.mouseout"/>
                  </use>
                  <path fill="none" stroke="white" stroke-width="1.5" d="M0,-3.0v7 M-2.5,-0.5L0,-3.0L2.5,-0.5"/>
                </g>
                <g id="arrowLeft" xlink:href="#dirArrow" transform="rotate(270) translate(-36 17)" onmousedown="handlePan(-1,0)">
                  <use xlink:href="#rim" fill="#404040">
                        <set attributeName="fill" to="#808080" begin="arrowLeft.mouseover" end="arrowLeft.mouseout"/>
                  </use>
                  <path fill="none" stroke="white" stroke-width="1.5" d="M0,-3.0v7 M-2.5,-0.5L0,-3.0L2.5,-0.5"/>
                </g>
        </g>
        <svg viewBox="0 0 15 15" width="100%" height="30px" preserveAspectRatio="xMaxYMin meet">
         <g id="arrow_out" transform="scale(0.3 0.3)">
          <a xlink:href="btf_8cpp__incl_org.svg" target="_base">
           <rect id="button" ry="5" rx="5" y="6" x="6" height="38" width="38"
                fill="#f2f5e9" fill-opacity="0.5" stroke="#606060" stroke-width="1.0"/>
           <path id="arrow"
             d="M 11.500037,31.436501 C 11.940474,20.09759 22.043105,11.32322 32.158766,21.979434 L 37.068811,17.246167 C 37.068811,17.246167 37.088388,32 37.088388,32 L 22.160133,31.978069 C 22.160133,31.978069 26.997745,27.140456 26.997745,27.140456 C 18.528582,18.264221 13.291696,25.230495 11.500037,31.436501 z"
             style="fill:#404040;"/>
          </a>
         </g>
        </svg>
</svg>
