<?xml version="1.0" encoding="UTF-8" standalone="no"?>
<!DOCTYPE svg PUBLIC "-//W3C//DTD SVG 1.1//EN"
 "http://www.w3.org/Graphics/SVG/1.1/DTD/svg11.dtd">
<!-- Generated by graphviz version 2.47.3 (20210619.1520)
 -->
<!-- Title: btf::Runnable::eventToString Pages: 1 -->
<!--zoomable 180 -->
<svg id="main" version="1.1" xmlns="http://www.w3.org/2000/svg" xmlns:xlink="http://www.w3.org/1999/xlink" xml:space="preserve" onload="init(evt)">
<style type="text/css"><![CDATA[
.edge:hover path { stroke: red; }
.edge:hover polygon { stroke: red; fill: red; }
]]></style>
<script type="text/javascript"><![CDATA[
var edges = document.getElementsByTagName('g');
if (edges && edges.length) {
  for (var i=0;i<edges.length;i++) {
    if (edges[i].id.substr(0,4)=='edge') {
      edges[i].setAttribute('class','edge');
    }
  }
}
]]></script>
        <defs>
                <circle id="rim" cx="0" cy="0" r="7"/>
                <circle id="rim2" cx="0" cy="0" r="3.5"/>
                <g id="zoomPlus">
                        <use xlink:href="#rim" fill="#404040">
                                <set attributeName="fill" to="#808080" begin="zoomplus.mouseover" end="zoomplus.mouseout"/>
                        </use>
                        <path d="M-4,0h8M0,-4v8" fill="none" stroke="white" stroke-width="1.5" pointer-events="none"/>
                </g>
                <g id="zoomMin">
                        <use xlink:href="#rim" fill="#404040">
                                <set attributeName="fill" to="#808080" begin="zoomminus.mouseover" end="zoomminus.mouseout"/>
                        </use>
                        <path d="M-4,0h8" fill="none" stroke="white" stroke-width="1.5" pointer-events="none"/>
                </g>
                <g id="dirArrow">
                        <path fill="none" stroke="white" stroke-width="1.5" d="M0,-3.0v7 M-2.5,-0.5L0,-3.0L2.5,-0.5"/>
                </g>
               <g id="resetDef">
                       <use xlink:href="#rim2" fill="#404040">
                               <set attributeName="fill" to="#808080" begin="reset.mouseover" end="reset.mouseout"/>
                       </use>
               </g>
        </defs>

<script type="text/javascript">
var viewWidth = 629;
var viewHeight = 180;
var sectionId = 'dynsection-0';
</script>
<script xlink:href="svgpan.js"/>
<svg id="graph" class="graph">
<g id="viewport">
<title>btf::Runnable::eventToString</title>
<polygon fill="white" stroke="transparent" points="-4,4 -4,-176 625,-176 625,4 -4,4"/>
<!-- Node1 -->
<g id="node1" class="node">
<title>Node1</title>
<g id="a_node1"><a xlink:title="Converts the enum Events into string.">
<polygon fill="#bfbfbf" stroke="black" points="483,-95.5 483,-114.5 621,-114.5 621,-95.5 483,-95.5"/>
<text text-anchor="middle" x="552" y="-102.5" font-family="Helvetica,sans-Serif" font-size="10.00">btf::Runnable::eventToString</text>
</a>
</g>
</g>
<!-- Node2 -->
<g id="node2" class="node">
<title>Node2</title>
<g id="a_node2"><a xlink:href="classbtf_1_1_btf_entry.html#a056141170fa8f9dd0001691a1bb336b8" target="_top" xlink:title="Converts union Events into string according to the type_ of the BtfEntry.">
<polygon fill="white" stroke="black" points="314,-133.5 314,-152.5 447,-152.5 447,-133.5 314,-133.5"/>
<text text-anchor="middle" x="380.5" y="-140.5" font-family="Helvetica,sans-Serif" font-size="10.00">btf::BtfEntry::eventToString</text>
</a>
</g>
</g>
<!-- Node1&#45;&gt;Node2 -->
<g id="edge1" class="edge">
<title>Node1&#45;&gt;Node2</title>
<path fill="none" stroke="midnightblue" d="M498.26,-116.82C474.36,-122.18 446.48,-128.43 423.96,-133.48"/>
<polygon fill="midnightblue" stroke="midnightblue" points="499.24,-120.19 508.23,-114.59 497.7,-113.36 499.24,-120.19"/>
</g>
<!-- Node5 -->
<g id="node5" class="node">
<title>Node5</title>
<g id="a_node5"><a xlink:href="classbtf_1_1_btf_file.html#a3a7b48f23d0c26343e8b4a2a452319b6" target="_top" xlink:title="Emits a runnable event (source is a core or process depending on the value of the core_is_source para...">
<polygon fill="white" stroke="black" points="316.5,-76.5 316.5,-95.5 444.5,-95.5 444.5,-76.5 316.5,-76.5"/>
<text text-anchor="middle" x="380.5" y="-83.5" font-family="Helvetica,sans-Serif" font-size="10.00">btf::BtfFile::runnableEvent</text>
</a>
</g>
</g>
<!-- Node1&#45;&gt;Node5 -->
<g id="edge4" class="edge">
<title>Node1&#45;&gt;Node5</title>
<path fill="none" stroke="midnightblue" d="M472.51,-96.2C463.2,-95.16 453.79,-94.1 444.73,-93.09"/>
<polygon fill="midnightblue" stroke="midnightblue" points="472.22,-99.69 482.55,-97.33 473,-92.73 472.22,-99.69"/>
</g>
<!-- Node3 -->
<g id="node3" class="node">
<title>Node3</title>
<g id="a_node3"><a xlink:href="classbtf_1_1_btf_entry.html#ac6671a1d4b5a7d46aa0402142a79d4b8" target="_top" xlink:title="Converts a BtfEntry into string.">
<polygon fill="white" stroke="black" points="158,-152.5 158,-171.5 266,-171.5 266,-152.5 158,-152.5"/>
<text text-anchor="middle" x="212" y="-159.5" font-family="Helvetica,sans-Serif" font-size="10.00">btf::BtfEntry::toString</text>
</a>
</g>
</g>
<!-- Node2&#45;&gt;Node3 -->
<g id="edge2" class="edge">
<title>Node2&#45;&gt;Node3</title>
<path fill="none" stroke="midnightblue" d="M303.59,-151.66C290.9,-153.11 277.99,-154.58 266.03,-155.95"/>
<polygon fill="midnightblue" stroke="midnightblue" points="304.16,-155.12 313.69,-150.51 303.36,-148.17 304.16,-155.12"/>
</g>
<!-- Node4 -->
<g id="node4" class="node">
<title>Node4</title>
<g id="a_node4"><a xlink:href="libbtf__binding_8cpp.html#adfae743278a01284c171e56ddabf18bd" target="_top" xlink:title="Macro that creates a function that will be called when the module pybtf is imported within python....">
<polygon fill="white" stroke="black" points="0,-114.5 0,-133.5 110,-133.5 110,-114.5 0,-114.5"/>
<text text-anchor="middle" x="55" y="-121.5" font-family="Helvetica,sans-Serif" font-size="10.00">PYBIND11_MODULE</text>
</a>
</g>
</g>
<!-- Node3&#45;&gt;Node4 -->
<g id="edge3" class="edge">
<title>Node3&#45;&gt;Node4</title>
<path fill="none" stroke="midnightblue" d="M161.89,-149.96C140.24,-144.65 115.15,-138.5 94.83,-133.52"/>
<polygon fill="midnightblue" stroke="midnightblue" points="161.34,-153.43 171.89,-152.41 163.01,-146.63 161.34,-153.43"/>
</g>
<!-- Node5&#45;&gt;Node4 -->
<g id="edge8" class="edge">
<title>Node5&#45;&gt;Node4</title>
<path fill="none" stroke="midnightblue" d="M323.87,-97.45C309.02,-100.22 292.94,-102.97 278,-105 221.08,-112.74 155.5,-117.9 110.45,-120.86"/>
<polygon fill="midnightblue" stroke="midnightblue" points="324.76,-100.84 333.93,-95.53 323.45,-93.96 324.76,-100.84"/>
</g>
<!-- Node6 -->
<g id="node6" class="node">
<title>Node6</title>
<g id="a_node6"><a xlink:href="classbtf_1_1_btf_file.html#ae1e0e725a1569e510b767acc6ce2d648" target="_top" xlink:title="Appends the data from a BTF file. Currently only import into an empty BTF file is supported.">
<polygon fill="white" stroke="black" points="146,-76.5 146,-95.5 278,-95.5 278,-76.5 146,-76.5"/>
<text text-anchor="middle" x="212" y="-83.5" font-family="Helvetica,sans-Serif" font-size="10.00">btf::BtfFile::importFromFile</text>
</a>
</g>
</g>
<!-- Node5&#45;&gt;Node6 -->
<g id="edge5" class="edge">
<title>Node5&#45;&gt;Node6</title>
<path fill="none" stroke="midnightblue" d="M305.79,-86C296.59,-86 287.23,-86 278.18,-86"/>
<polygon fill="midnightblue" stroke="midnightblue" points="306.08,-89.5 316.08,-86 306.08,-82.5 306.08,-89.5"/>
</g>
<!-- Node7 -->
<g id="node7" class="node">
<title>Node7</title>
<g id="a_node7"><a xlink:href="classbtf_1_1_btf_file.html#a64dd3a4762bd03767ebbc380810f1bcb" target="_top" xlink:title="Emits a process event (except task migration).">
<polygon fill="white" stroke="black" points="149.5,-38.5 149.5,-57.5 274.5,-57.5 274.5,-38.5 149.5,-38.5"/>
<text text-anchor="middle" x="212" y="-45.5" font-family="Helvetica,sans-Serif" font-size="10.00">btf::BtfFile::processEvent</text>
</a>
</g>
</g>
<!-- Node5&#45;&gt;Node7 -->
<g id="edge7" class="edge">
<title>Node5&#45;&gt;Node7</title>
<path fill="none" stroke="midnightblue" d="M327.69,-74.18C304.22,-68.82 276.83,-62.57 254.71,-57.52"/>
<polygon fill="midnightblue" stroke="midnightblue" points="326.96,-77.6 337.49,-76.41 328.51,-70.77 326.96,-77.6"/>
</g>
<!-- Node8 -->
<g id="node8" class="node">
<title>Node8</title>
<g id="a_node8"><a xlink:href="classbtf_1_1_btf_file.html#a37ac4560542170c72a0e1aad2d8b4753" target="_top" xlink:title="Emits a runnable event (source is a core or process depending on the value of the core_is_source para...">
<polygon fill="white" stroke="black" points="148,-0.5 148,-19.5 276,-19.5 276,-0.5 148,-0.5"/>
<text text-anchor="middle" x="212" y="-7.5" font-family="Helvetica,sans-Serif" font-size="10.00">btf::BtfFile::runnableEvent</text>
</a>
</g>
</g>
<!-- Node5&#45;&gt;Node8 -->
<g id="edge9" class="edge">
<title>Node5&#45;&gt;Node8</title>
<path fill="none" stroke="midnightblue" d="M356.44,-71.04C336.35,-58.51 306.11,-40.82 278,-29 269.44,-25.4 259.97,-22.21 250.97,-19.53"/>
<polygon fill="midnightblue" stroke="midnightblue" points="354.58,-74.01 364.91,-76.4 358.33,-68.1 354.58,-74.01"/>
</g>
<!-- Node6&#45;&gt;Node4 -->
<g id="edge6" class="edge">
<title>Node6&#45;&gt;Node4</title>
<path fill="none" stroke="midnightblue" d="M161.89,-98.04C140.24,-103.35 115.15,-109.5 94.83,-114.48"/>
<polygon fill="midnightblue" stroke="midnightblue" points="163.01,-101.37 171.89,-95.59 161.34,-94.57 163.01,-101.37"/>
</g>
</g>
</svg>
        <g id="navigator" transform="translate(0 0)" fill="#404254">
                <rect fill="#f2f5e9" fill-opacity="0.5" stroke="#606060" stroke-width=".5" x="0" y="0" width="60" height="60"/>
                <use id="zoomplus" xlink:href="#zoomPlus" x="17" y="9" onmousedown="handleZoom(evt,'in')"/>
                <use id="zoomminus" xlink:href="#zoomMin" x="42" y="9" onmousedown="handleZoom(evt,'out')"/>
                <use id="reset" xlink:href="#resetDef" x="30" y="36" onmousedown="handleReset()"/>
                <g id="arrowUp" xlink:href="#dirArrow" transform="translate(30 24)" onmousedown="handlePan(0,-1)">
                  <use xlink:href="#rim" fill="#404040">
                        <set attributeName="fill" to="#808080" begin="arrowUp.mouseover" end="arrowUp.mouseout"/>
                  </use>
                  <path fill="none" stroke="white" stroke-width="1.5" d="M0,-3.0v7 M-2.5,-0.5L0,-3.0L2.5,-0.5"/>
                </g>
                <g id="arrowRight" xlink:href="#dirArrow" transform="rotate(90) translate(36 -43)" onmousedown="handlePan(1,0)">
                  <use xlink:href="#rim" fill="#404040">
                        <set attributeName="fill" to="#808080" begin="arrowRight.mouseover" end="arrowRight.mouseout"/>
                  </use>
                  <path fill="none" stroke="white" stroke-width="1.5" d="M0,-3.0v7 M-2.5,-0.5L0,-3.0L2.5,-0.5"/>
                </g>
                <g id="arrowDown" xlink:href="#dirArrow" transform="rotate(180) translate(-30 -48)" onmousedown="handlePan(0,1)">
                  <use xlink:href="#rim" fill="#404040">
                        <set attributeName="fill" to="#808080" begin="arrowDown.mouseover" end="arrowDown.mouseout"/>
                  </use>
                  <path fill="none" stroke="white" stroke-width="1.5" d="M0,-3.0v7 M-2.5,-0.5L0,-3.0L2.5,-0.5"/>
                </g>
                <g id="arrowLeft" xlink:href="#dirArrow" transform="rotate(270) translate(-36 17)" onmousedown="handlePan(-1,0)">
                  <use xlink:href="#rim" fill="#404040">
                        <set attributeName="fill" to="#808080" begin="arrowLeft.mouseover" end="arrowLeft.mouseout"/>
                  </use>
                  <path fill="none" stroke="white" stroke-width="1.5" d="M0,-3.0v7 M-2.5,-0.5L0,-3.0L2.5,-0.5"/>
                </g>
        </g>
        <svg viewBox="0 0 15 15" width="100%" height="30px" preserveAspectRatio="xMaxYMin meet">
         <g id="arrow_out" transform="scale(0.3 0.3)">
          <a xlink:href="classbtf_1_1_runnable_ae588697e7b86706ac5a094af09db0c74_icgraph_org.svg" target="_base">
           <rect id="button" ry="5" rx="5" y="6" x="6" height="38" width="38"
                fill="#f2f5e9" fill-opacity="0.5" stroke="#606060" stroke-width="1.0"/>
           <path id="arrow"
             d="M 11.500037,31.436501 C 11.940474,20.09759 22.043105,11.32322 32.158766,21.979434 L 37.068811,17.246167 C 37.068811,17.246167 37.088388,32 37.088388,32 L 22.160133,31.978069 C 22.160133,31.978069 26.997745,27.140456 26.997745,27.140456 C 18.528582,18.264221 13.291696,25.230495 11.500037,31.436501 z"
             style="fill:#404040;"/>
          </a>
         </g>
        </svg>
</svg>
