<?xml version="1.0" encoding="UTF-8" standalone="no"?>
<!DOCTYPE svg PUBLIC "-//W3C//DTD SVG 1.1//EN"
 "http://www.w3.org/Graphics/SVG/1.1/DTD/svg11.dtd">
<!-- Generated by graphviz version 2.47.3 (20210619.1520)
 -->
<!-- Title: btf::BtfFile::osEvent Pages: 1 -->
<!--zoomable 186 -->
<svg id="main" version="1.1" xmlns="http://www.w3.org/2000/svg" xmlns:xlink="http://www.w3.org/1999/xlink" xml:space="preserve" onload="init(evt)">
<style type="text/css"><![CDATA[
.edge:hover path { stroke: red; }
.edge:hover polygon { stroke: red; fill: red; }
]]></style>
<script type="text/javascript"><![CDATA[
var edges = document.getElementsByTagName('g');
if (edges && edges.length) {
  for (var i=0;i<edges.length;i++) {
    if (edges[i].id.substr(0,4)=='edge') {
      edges[i].setAttribute('class','edge');
    }
  }
}
]]></script>
        <defs>
                <circle id="rim" cx="0" cy="0" r="7"/>
                <circle id="rim2" cx="0" cy="0" r="3.5"/>
                <g id="zoomPlus">
                        <use xlink:href="#rim" fill="#404040">
                                <set attributeName="fill" to="#808080" begin="zoomplus.mouseover" end="zoomplus.mouseout"/>
                        </use>
                        <path d="M-4,0h8M0,-4v8" fill="none" stroke="white" stroke-width="1.5" pointer-events="none"/>
                </g>
                <g id="zoomMin">
                        <use xlink:href="#rim" fill="#404040">
                                <set attributeName="fill" to="#808080" begin="zoomminus.mouseover" end="zoomminus.mouseout"/>
                        </use>
                        <path d="M-4,0h8" fill="none" stroke="white" stroke-width="1.5" pointer-events="none"/>
                </g>
                <g id="dirArrow">
                        <path fill="none" stroke="white" stroke-width="1.5" d="M0,-3.0v7 M-2.5,-0.5L0,-3.0L2.5,-0.5"/>
                </g>
               <g id="resetDef">
                       <use xlink:href="#rim2" fill="#404040">
                               <set attributeName="fill" to="#808080" begin="reset.mouseover" end="reset.mouseout"/>
                       </use>
               </g>
        </defs>

<script type="text/javascript">
var viewWidth = 781;
var viewHeight = 186;
var sectionId = 'dynsection-11';
</script>
<script xlink:href="svgpan.js"/>
<svg id="graph" class="graph">
<g id="viewport">
<title>btf::BtfFile::osEvent</title>
<polygon fill="white" stroke="transparent" points="-4,4 -4,-182 777,-182 777,4 -4,4"/>
<!-- Node1 -->
<g id="node1" class="node">
<title>Node1</title>
<g id="a_node1"><a xlink:title="Emits an OS event (source is a core or a process depending on the value of the core_is_source paramet...">
<polygon fill="#bfbfbf" stroke="black" points="0,-136 0,-155 101,-155 101,-136 0,-136"/>
<text text-anchor="middle" x="50.5" y="-143" font-family="Helvetica,sans-Serif" font-size="10.00">btf::BtfFile::osEvent</text>
</a>
</g>
</g>
<!-- Node2 -->
<g id="node2" class="node">
<title>Node2</title>
<g id="a_node2"><a xlink:href="classbtf_1_1_o_s.html#af627f5bcc47760ff9809871b23da87cc" target="_top" xlink:title="Converts the enum Events into string.">
<polygon fill="white" stroke="black" points="143.5,-155 143.5,-174 255.5,-174 255.5,-155 143.5,-155"/>
<text text-anchor="middle" x="199.5" y="-162" font-family="Helvetica,sans-Serif" font-size="10.00">btf::OS::eventToString</text>
</a>
</g>
</g>
<!-- Node1&#45;&gt;Node2 -->
<g id="edge1" class="edge">
<title>Node1&#45;&gt;Node2</title>
<path fill="none" stroke="midnightblue" d="M101.27,-151.93C111.56,-153.26 122.54,-154.68 133.28,-156.07"/>
<polygon fill="midnightblue" stroke="midnightblue" points="133.12,-159.58 143.48,-157.39 134.01,-152.64 133.12,-159.58"/>
</g>
<!-- Node3 -->
<g id="node3" class="node">
<title>Node3</title>
<g id="a_node3"><a xlink:href="classbtf_1_1_btf_file.html#a3f6b54fa6c96e04ce016ab81d1f80901" target="_top" xlink:title="Emits a task event (except migration). See overloaded function for more information.">
<polygon fill="white" stroke="black" points="137,-117 137,-136 262,-136 262,-117 137,-117"/>
<text text-anchor="middle" x="199.5" y="-124" font-family="Helvetica,sans-Serif" font-size="10.00">btf::BtfFile::processEvent</text>
</a>
</g>
</g>
<!-- Node1&#45;&gt;Node3 -->
<g id="edge2" class="edge">
<title>Node1&#45;&gt;Node3</title>
<path fill="none" stroke="midnightblue" d="M101.27,-139.07C109.47,-138.01 118.11,-136.89 126.72,-135.78"/>
<polygon fill="midnightblue" stroke="midnightblue" points="127.32,-139.23 136.79,-134.48 126.42,-132.29 127.32,-139.23"/>
</g>
<!-- Node4 -->
<g id="node4" class="node">
<title>Node4</title>
<g id="a_node4"><a xlink:href="classbtf_1_1_process.html#ac2b6cd5b0524fba0a5c248ba4b223001" target="_top" xlink:title="Converts the enum Events into string.">
<polygon fill="white" stroke="black" points="301,-155 301,-174 435,-174 435,-155 301,-155"/>
<text text-anchor="middle" x="368" y="-162" font-family="Helvetica,sans-Serif" font-size="10.00">btf::Process::eventToString</text>
</a>
</g>
</g>
<!-- Node3&#45;&gt;Node4 -->
<g id="edge3" class="edge">
<title>Node3&#45;&gt;Node4</title>
<path fill="none" stroke="midnightblue" d="M242.51,-136.09C264.68,-141.15 292.07,-147.4 315.51,-152.75"/>
<polygon fill="midnightblue" stroke="midnightblue" points="314.76,-156.17 325.29,-154.98 316.32,-149.34 314.76,-156.17"/>
</g>
<!-- Node5 -->
<g id="node5" class="node">
<title>Node5</title>
<g id="a_node5"><a xlink:href="classbtf_1_1_process.html#a11991ab813dd34ef8d763f86b7fd40ad" target="_top" xlink:title="Gets the source type of the event.">
<polygon fill="white" stroke="black" points="298,-117 298,-136 438,-136 438,-117 298,-117"/>
<text text-anchor="middle" x="368" y="-124" font-family="Helvetica,sans-Serif" font-size="10.00">btf::Process::getSourceType</text>
</a>
</g>
</g>
<!-- Node3&#45;&gt;Node5 -->
<g id="edge4" class="edge">
<title>Node3&#45;&gt;Node5</title>
<path fill="none" stroke="midnightblue" d="M262.03,-126.5C270.41,-126.5 279.12,-126.5 287.77,-126.5"/>
<polygon fill="midnightblue" stroke="midnightblue" points="287.87,-130 297.87,-126.5 287.87,-123 287.87,-130"/>
</g>
<!-- Node6 -->
<g id="node6" class="node">
<title>Node6</title>
<g id="a_node6"><a xlink:href="namespacehelper_1_1logging.html#a0e1881bbc937b702aa298c5f5141b79b" target="_top" xlink:title="Writes a trace message to the log.">
<polygon fill="white" stroke="black" points="304,-79 304,-98 432,-98 432,-79 304,-79"/>
<text text-anchor="middle" x="368" y="-86" font-family="Helvetica,sans-Serif" font-size="10.00">helper::logging::printTrace</text>
</a>
</g>
</g>
<!-- Node3&#45;&gt;Node6 -->
<g id="edge5" class="edge">
<title>Node3&#45;&gt;Node6</title>
<path fill="none" stroke="midnightblue" d="M242.51,-116.91C264.68,-111.85 292.07,-105.6 315.51,-100.25"/>
<polygon fill="midnightblue" stroke="midnightblue" points="316.32,-103.66 325.29,-98.02 314.76,-96.83 316.32,-103.66"/>
</g>
<!-- Node7 -->
<g id="node7" class="node">
<title>Node7</title>
<g id="a_node7"><a xlink:href="namespacehelper_1_1logging.html#aadee8ee5d31250ae8288888fa86814a3" target="_top" xlink:title="Prints a log message to the log.">
<polygon fill="white" stroke="black" points="474,-79 474,-98 594,-98 594,-79 474,-79"/>
<text text-anchor="middle" x="534" y="-86" font-family="Helvetica,sans-Serif" font-size="10.00">helper::logging::printLog</text>
</a>
</g>
</g>
<!-- Node6&#45;&gt;Node7 -->
<g id="edge6" class="edge">
<title>Node6&#45;&gt;Node7</title>
<path fill="none" stroke="midnightblue" d="M432.41,-88.5C442.61,-88.5 453.23,-88.5 463.57,-88.5"/>
<polygon fill="midnightblue" stroke="midnightblue" points="463.79,-92 473.79,-88.5 463.79,-85 463.79,-92"/>
</g>
<!-- Node8 -->
<g id="node8" class="node">
<title>Node8</title>
<g id="a_node8"><a xlink:href="classhelper_1_1logging_1_1_global_logger.html#a080a88af50f5861331d887d02324e9c2" target="_top" xlink:title="Gets the logger (ostream).">
<polygon fill="white" stroke="black" points="630,-147.5 630,-177.5 773,-177.5 773,-147.5 630,-147.5"/>
<text text-anchor="start" x="638" y="-165.5" font-family="Helvetica,sans-Serif" font-size="10.00">helper::logging::GlobalLogger</text>
<text text-anchor="middle" x="701.5" y="-154.5" font-family="Helvetica,sans-Serif" font-size="10.00">::getLogger</text>
</a>
</g>
</g>
<!-- Node7&#45;&gt;Node8 -->
<g id="edge7" class="edge">
<title>Node7&#45;&gt;Node8</title>
<path fill="none" stroke="midnightblue" d="M551.43,-98.16C570.07,-108.88 601.58,-126.27 630,-138.5 634.37,-140.38 638.94,-142.22 643.57,-143.98"/>
<polygon fill="midnightblue" stroke="midnightblue" points="642.5,-147.32 653.09,-147.5 644.92,-140.75 642.5,-147.32"/>
</g>
<!-- Node9 -->
<g id="node9" class="node">
<title>Node9</title>
<g id="a_node9"><a xlink:href="classhelper_1_1logging_1_1_global_logger.html#a956281901fd88046239494c600e3c5e5" target="_top" xlink:title="Gets the null logger (ostream).">
<polygon fill="white" stroke="black" points="630,-98.5 630,-128.5 773,-128.5 773,-98.5 630,-98.5"/>
<text text-anchor="start" x="638" y="-116.5" font-family="Helvetica,sans-Serif" font-size="10.00">helper::logging::GlobalLogger</text>
<text text-anchor="middle" x="701.5" y="-105.5" font-family="Helvetica,sans-Serif" font-size="10.00">::getNullLogger</text>
</a>
</g>
</g>
<!-- Node7&#45;&gt;Node9 -->
<g id="edge8" class="edge">
<title>Node7&#45;&gt;Node9</title>
<path fill="none" stroke="midnightblue" d="M594.28,-97.45C602.55,-98.7 611.16,-100 619.73,-101.3"/>
<polygon fill="midnightblue" stroke="midnightblue" points="619.36,-104.78 629.77,-102.82 620.4,-97.86 619.36,-104.78"/>
</g>
<!-- Node10 -->
<g id="node10" class="node">
<title>Node10</title>
<g id="a_node10"><a xlink:href="namespacehelper_1_1logging.html#a69b892408158ee6bed51c5aafa694af7" target="_top" xlink:title="Converts the enum LogLevel into string.">
<polygon fill="white" stroke="black" points="641.5,-49.5 641.5,-79.5 761.5,-79.5 761.5,-49.5 641.5,-49.5"/>
<text text-anchor="start" x="649.5" y="-67.5" font-family="Helvetica,sans-Serif" font-size="10.00">helper::logging::logLevel</text>
<text text-anchor="middle" x="701.5" y="-56.5" font-family="Helvetica,sans-Serif" font-size="10.00">ToString</text>
</a>
</g>
</g>
<!-- Node7&#45;&gt;Node10 -->
<g id="edge9" class="edge">
<title>Node7&#45;&gt;Node10</title>
<path fill="none" stroke="midnightblue" d="M594.28,-79.9C606.24,-78.17 618.91,-76.33 631.17,-74.55"/>
<polygon fill="midnightblue" stroke="midnightblue" points="631.96,-77.98 641.35,-73.08 630.96,-71.05 631.96,-77.98"/>
</g>
<!-- Node11 -->
<g id="node11" class="node">
<title>Node11</title>
<g id="a_node11"><a xlink:href="namespacehelper_1_1logging.html#a33b1f83f96be6edb81fa28ddba33179d" target="_top" xlink:title="Gets the source file name out of the path.">
<polygon fill="white" stroke="black" points="634,-0.5 634,-30.5 769,-30.5 769,-0.5 634,-0.5"/>
<text text-anchor="start" x="642" y="-18.5" font-family="Helvetica,sans-Serif" font-size="10.00">helper::logging::stripSource</text>
<text text-anchor="middle" x="701.5" y="-7.5" font-family="Helvetica,sans-Serif" font-size="10.00">FileName</text>
</a>
</g>
</g>
<!-- Node7&#45;&gt;Node11 -->
<g id="edge10" class="edge">
<title>Node7&#45;&gt;Node11</title>
<path fill="none" stroke="midnightblue" d="M552.19,-78.98C570.99,-68.77 602.14,-52.42 630,-40.5 635.07,-38.33 640.41,-36.19 645.77,-34.13"/>
<polygon fill="midnightblue" stroke="midnightblue" points="647.28,-37.31 655.42,-30.52 644.82,-30.75 647.28,-37.31"/>
</g>
</g>
</svg>
        <g id="navigator" transform="translate(0 0)" fill="#404254">
                <rect fill="#f2f5e9" fill-opacity="0.5" stroke="#606060" stroke-width=".5" x="0" y="0" width="60" height="60"/>
                <use id="zoomplus" xlink:href="#zoomPlus" x="17" y="9" onmousedown="handleZoom(evt,'in')"/>
                <use id="zoomminus" xlink:href="#zoomMin" x="42" y="9" onmousedown="handleZoom(evt,'out')"/>
                <use id="reset" xlink:href="#resetDef" x="30" y="36" onmousedown="handleReset()"/>
                <g id="arrowUp" xlink:href="#dirArrow" transform="translate(30 24)" onmousedown="handlePan(0,-1)">
                  <use xlink:href="#rim" fill="#404040">
                        <set attributeName="fill" to="#808080" begin="arrowUp.mouseover" end="arrowUp.mouseout"/>
                  </use>
                  <path fill="none" stroke="white" stroke-width="1.5" d="M0,-3.0v7 M-2.5,-0.5L0,-3.0L2.5,-0.5"/>
                </g>
                <g id="arrowRight" xlink:href="#dirArrow" transform="rotate(90) translate(36 -43)" onmousedown="handlePan(1,0)">
                  <use xlink:href="#rim" fill="#404040">
                        <set attributeName="fill" to="#808080" begin="arrowRight.mouseover" end="arrowRight.mouseout"/>
                  </use>
                  <path fill="none" stroke="white" stroke-width="1.5" d="M0,-3.0v7 M-2.5,-0.5L0,-3.0L2.5,-0.5"/>
                </g>
                <g id="arrowDown" xlink:href="#dirArrow" transform="rotate(180) translate(-30 -48)" onmousedown="handlePan(0,1)">
                  <use xlink:href="#rim" fill="#404040">
                        <set attributeName="fill" to="#808080" begin="arrowDown.mouseover" end="arrowDown.mouseout"/>
                  </use>
                  <path fill="none" stroke="white" stroke-width="1.5" d="M0,-3.0v7 M-2.5,-0.5L0,-3.0L2.5,-0.5"/>
                </g>
                <g id="arrowLeft" xlink:href="#dirArrow" transform="rotate(270) translate(-36 17)" onmousedown="handlePan(-1,0)">
                  <use xlink:href="#rim" fill="#404040">
                        <set attributeName="fill" to="#808080" begin="arrowLeft.mouseover" end="arrowLeft.mouseout"/>
                  </use>
                  <path fill="none" stroke="white" stroke-width="1.5" d="M0,-3.0v7 M-2.5,-0.5L0,-3.0L2.5,-0.5"/>
                </g>
        </g>
        <svg viewBox="0 0 15 15" width="100%" height="30px" preserveAspectRatio="xMaxYMin meet">
         <g id="arrow_out" transform="scale(0.3 0.3)">
          <a xlink:href="classbtf_1_1_btf_file_a67251691e4a66475a4a5a1206687247d_cgraph_org.svg" target="_base">
           <rect id="button" ry="5" rx="5" y="6" x="6" height="38" width="38"
                fill="#f2f5e9" fill-opacity="0.5" stroke="#606060" stroke-width="1.0"/>
           <path id="arrow"
             d="M 11.500037,31.436501 C 11.940474,20.09759 22.043105,11.32322 32.158766,21.979434 L 37.068811,17.246167 C 37.068811,17.246167 37.088388,32 37.088388,32 L 22.160133,31.978069 C 22.160133,31.978069 26.997745,27.140456 26.997745,27.140456 C 18.528582,18.264221 13.291696,25.230495 11.500037,31.436501 z"
             style="fill:#404040;"/>
          </a>
         </g>
        </svg>
</svg>
