<?xml version="1.0" encoding="UTF-8" standalone="no"?>
<!DOCTYPE svg PUBLIC "-//W3C//DTD SVG 1.1//EN"
 "http://www.w3.org/Graphics/SVG/1.1/DTD/svg11.dtd">
<!-- Generated by graphviz version 2.47.3 (20210619.1520)
 -->
<!-- Title: btf::BtfFile::runnableEvent Pages: 1 -->
<svg width="464pt" height="192pt"
 viewBox="0.00 0.00 464.00 191.50" xmlns="http://www.w3.org/2000/svg" xmlns:xlink="http://www.w3.org/1999/xlink">
<g id="graph0" class="graph" transform="scale(1 1) rotate(0) translate(4 187.5)">
<title>btf::BtfFile::runnableEvent</title>
<polygon fill="white" stroke="transparent" points="-4,4 -4,-187.5 460,-187.5 460,4 -4,4"/>
<!-- Node1 -->
<g id="node1" class="node">
<title>Node1</title>
<g id="a_node1"><a xlink:title="Emits a runnable event (source is a task). See overloaded function for more information.">
<polygon fill="#bfbfbf" stroke="black" points="328,-88 328,-107 456,-107 456,-88 328,-88"/>
<text text-anchor="middle" x="392" y="-95" font-family="Helvetica,sans-Serif" font-size="10.00">btf::BtfFile::runnableEvent</text>
</a>
</g>
</g>
<!-- Node2 -->
<g id="node2" class="node">
<title>Node2</title>
<g id="a_node2"><a xlink:href="classbtf_1_1_btf_file.html#ae1e0e725a1569e510b767acc6ce2d648" target="_top" xlink:title="Appends the data from a BTF file. Currently only import into an empty BTF file is supported.">
<polygon fill="white" stroke="black" points="153,-164 153,-183 285,-183 285,-164 153,-164"/>
<text text-anchor="middle" x="219" y="-171" font-family="Helvetica,sans-Serif" font-size="10.00">btf::BtfFile::importFromFile</text>
</a>
</g>
</g>
<!-- Node1&#45;&gt;Node2 -->
<g id="edge1" class="edge">
<title>Node1&#45;&gt;Node2</title>
<path fill="none" stroke="midnightblue" d="M365.66,-112.27C345.98,-123.38 317.79,-138.52 292,-149.5 279.27,-154.92 264.87,-159.93 252.31,-163.96"/>
<polygon fill="midnightblue" stroke="midnightblue" points="367.63,-115.17 374.58,-107.18 364.16,-109.09 367.63,-115.17"/>
</g>
<!-- Node3 -->
<g id="node3" class="node">
<title>Node3</title>
<g id="a_node3"><a xlink:href="libbtf__binding_8cpp.html#adfae743278a01284c171e56ddabf18bd" target="_top" xlink:title="Macro that creates a function that will be called when the module pybtf is imported within python....">
<polygon fill="white" stroke="black" points="0,-145 0,-164 110,-164 110,-145 0,-145"/>
<text text-anchor="middle" x="55" y="-152" font-family="Helvetica,sans-Serif" font-size="10.00">PYBIND11_MODULE</text>
</a>
</g>
</g>
<!-- Node1&#45;&gt;Node3 -->
<g id="edge4" class="edge">
<title>Node1&#45;&gt;Node3</title>
<path fill="none" stroke="midnightblue" d="M332.89,-108.95C319.48,-111.51 305.25,-114.16 292,-116.5 229.88,-127.46 158.33,-138.8 110.44,-146.21"/>
<polygon fill="midnightblue" stroke="midnightblue" points="333.8,-112.34 342.97,-107.02 332.48,-105.47 333.8,-112.34"/>
</g>
<!-- Node4 -->
<g id="node4" class="node">
<title>Node4</title>
<g id="a_node4"><a xlink:href="classbtf_1_1_btf_file.html#a203a2ef1f5885049936597c21a3ca9bb" target="_top" xlink:title="Emits a task event (except migration).">
<polygon fill="white" stroke="black" points="156.5,-88 156.5,-107 281.5,-107 281.5,-88 156.5,-88"/>
<text text-anchor="middle" x="219" y="-95" font-family="Helvetica,sans-Serif" font-size="10.00">btf::BtfFile::processEvent</text>
</a>
</g>
</g>
<!-- Node1&#45;&gt;Node4 -->
<g id="edge3" class="edge">
<title>Node1&#45;&gt;Node4</title>
<path fill="none" stroke="midnightblue" d="M317.76,-97.5C305.68,-97.5 293.26,-97.5 281.51,-97.5"/>
<polygon fill="midnightblue" stroke="midnightblue" points="317.81,-101 327.81,-97.5 317.81,-94 317.81,-101"/>
</g>
<!-- Node5 -->
<g id="node5" class="node">
<title>Node5</title>
<g id="a_node5"><a xlink:href="classbtf_1_1_btf_file.html#a896b211a7dc7ae186bc40def24118d63" target="_top" xlink:title="Emits a runnable event (source is a task).">
<polygon fill="white" stroke="black" points="155,-50 155,-69 283,-69 283,-50 155,-50"/>
<text text-anchor="middle" x="219" y="-57" font-family="Helvetica,sans-Serif" font-size="10.00">btf::BtfFile::runnableEvent</text>
</a>
</g>
</g>
<!-- Node1&#45;&gt;Node5 -->
<g id="edge5" class="edge">
<title>Node1&#45;&gt;Node5</title>
<path fill="none" stroke="midnightblue" d="M337.79,-85.68C313.68,-80.32 285.56,-74.07 262.84,-69.02"/>
<polygon fill="midnightblue" stroke="midnightblue" points="337.33,-89.16 347.85,-87.91 338.85,-82.32 337.33,-89.16"/>
</g>
<!-- Node6 -->
<g id="node6" class="node">
<title>Node6</title>
<g id="a_node6"><a xlink:href="classbtf_1_1_btf_file.html#a29e25ddb474d4715fc0a2302f2d3748c" target="_top" xlink:title="Emits a runnable terminate event on the current running runnable (source is a task).">
<polygon fill="white" stroke="black" points="146,-0.5 146,-30.5 292,-30.5 292,-0.5 146,-0.5"/>
<text text-anchor="start" x="154" y="-18.5" font-family="Helvetica,sans-Serif" font-size="10.00">btf::BtfFile::runnableTerminate</text>
<text text-anchor="middle" x="219" y="-7.5" font-family="Helvetica,sans-Serif" font-size="10.00">Current</text>
</a>
</g>
</g>
<!-- Node1&#45;&gt;Node6 -->
<g id="edge6" class="edge">
<title>Node1&#45;&gt;Node6</title>
<path fill="none" stroke="midnightblue" d="M367.8,-82.47C348.14,-70.15 318.94,-52.8 292,-40.5 284.18,-36.93 275.68,-33.56 267.37,-30.52"/>
<polygon fill="midnightblue" stroke="midnightblue" points="366.05,-85.51 376.37,-87.9 369.8,-79.59 366.05,-85.51"/>
</g>
<!-- Node2&#45;&gt;Node3 -->
<g id="edge2" class="edge">
<title>Node2&#45;&gt;Node3</title>
<path fill="none" stroke="midnightblue" d="M142.61,-164.66C131.7,-163.38 120.64,-162.08 110.25,-160.86"/>
<polygon fill="midnightblue" stroke="midnightblue" points="142.24,-168.14 152.58,-165.83 143.05,-161.19 142.24,-168.14"/>
</g>
</g>
</svg>
