<?xml version="1.0" encoding="UTF-8" standalone="no"?>
<!DOCTYPE svg PUBLIC "-//W3C//DTD SVG 1.1//EN"
 "http://www.w3.org/Graphics/SVG/1.1/DTD/svg11.dtd">
<!-- Generated by graphviz version 2.47.3 (20210619.1520)
 -->
<!-- Title: btf::BtfFile::signalEvent Pages: 1 -->
<svg width="623pt" height="186pt"
 viewBox="0.00 0.00 623.00 186.00" xmlns="http://www.w3.org/2000/svg" xmlns:xlink="http://www.w3.org/1999/xlink">
<g id="graph0" class="graph" transform="scale(1 1) rotate(0) translate(4 182)">
<title>btf::BtfFile::signalEvent</title>
<polygon fill="white" stroke="transparent" points="-4,4 -4,-182 619,-182 619,4 -4,4"/>
<!-- Node1 -->
<g id="node1" class="node">
<title>Node1</title>
<g id="a_node1"><a xlink:title="Emits a signal event (source is a task). See overloaded function for more information.">
<polygon fill="#bfbfbf" stroke="black" points="0,-98 0,-117 116,-117 116,-98 0,-98"/>
<text text-anchor="middle" x="58" y="-105" font-family="Helvetica,sans-Serif" font-size="10.00">btf::BtfFile::signalEvent</text>
</a>
</g>
</g>
<!-- Node2 -->
<g id="node2" class="node">
<title>Node2</title>
<g id="a_node2"><a xlink:href="classbtf_1_1_signal.html#a120fa6ebdf2e3b74c57f98bced1d53e2" target="_top" xlink:title="Converts the enum Events into string.">
<polygon fill="white" stroke="black" points="153.5,-117 153.5,-136 278.5,-136 278.5,-117 153.5,-117"/>
<text text-anchor="middle" x="216" y="-124" font-family="Helvetica,sans-Serif" font-size="10.00">btf::Signal::eventToString</text>
</a>
</g>
</g>
<!-- Node1&#45;&gt;Node2 -->
<g id="edge1" class="edge">
<title>Node1&#45;&gt;Node2</title>
<path fill="none" stroke="midnightblue" d="M116.2,-114.47C124.98,-115.54 134.15,-116.65 143.2,-117.75"/>
<polygon fill="midnightblue" stroke="midnightblue" points="142.99,-121.26 153.34,-118.99 143.84,-114.31 142.99,-121.26"/>
</g>
<!-- Node3 -->
<g id="node3" class="node">
<title>Node3</title>
<g id="a_node3"><a xlink:href="namespacehelper_1_1logging.html#a0e1881bbc937b702aa298c5f5141b79b" target="_top" xlink:title="Writes a trace message to the log.">
<polygon fill="white" stroke="black" points="152,-79 152,-98 280,-98 280,-79 152,-79"/>
<text text-anchor="middle" x="216" y="-86" font-family="Helvetica,sans-Serif" font-size="10.00">helper::logging::printTrace</text>
</a>
</g>
</g>
<!-- Node1&#45;&gt;Node3 -->
<g id="edge2" class="edge">
<title>Node1&#45;&gt;Node3</title>
<path fill="none" stroke="midnightblue" d="M116.2,-100.53C124.52,-99.52 133.17,-98.47 141.74,-97.42"/>
<polygon fill="midnightblue" stroke="midnightblue" points="142.25,-100.89 151.75,-96.2 141.4,-93.94 142.25,-100.89"/>
</g>
<!-- Node4 -->
<g id="node4" class="node">
<title>Node4</title>
<g id="a_node4"><a xlink:href="namespacehelper_1_1logging.html#aadee8ee5d31250ae8288888fa86814a3" target="_top" xlink:title="Prints a log message to the log.">
<polygon fill="white" stroke="black" points="316,-79 316,-98 436,-98 436,-79 316,-79"/>
<text text-anchor="middle" x="376" y="-86" font-family="Helvetica,sans-Serif" font-size="10.00">helper::logging::printLog</text>
</a>
</g>
</g>
<!-- Node3&#45;&gt;Node4 -->
<g id="edge3" class="edge">
<title>Node3&#45;&gt;Node4</title>
<path fill="none" stroke="midnightblue" d="M280.35,-88.5C288.72,-88.5 297.32,-88.5 305.78,-88.5"/>
<polygon fill="midnightblue" stroke="midnightblue" points="305.99,-92 315.99,-88.5 305.99,-85 305.99,-92"/>
</g>
<!-- Node5 -->
<g id="node5" class="node">
<title>Node5</title>
<g id="a_node5"><a xlink:href="classhelper_1_1logging_1_1_global_logger.html#a080a88af50f5861331d887d02324e9c2" target="_top" xlink:title="Gets the logger (ostream).">
<polygon fill="white" stroke="black" points="472,-147.5 472,-177.5 615,-177.5 615,-147.5 472,-147.5"/>
<text text-anchor="start" x="480" y="-165.5" font-family="Helvetica,sans-Serif" font-size="10.00">helper::logging::GlobalLogger</text>
<text text-anchor="middle" x="543.5" y="-154.5" font-family="Helvetica,sans-Serif" font-size="10.00">::getLogger</text>
</a>
</g>
</g>
<!-- Node4&#45;&gt;Node5 -->
<g id="edge4" class="edge">
<title>Node4&#45;&gt;Node5</title>
<path fill="none" stroke="midnightblue" d="M393.43,-98.16C412.07,-108.88 443.58,-126.27 472,-138.5 476.37,-140.38 480.94,-142.22 485.57,-143.98"/>
<polygon fill="midnightblue" stroke="midnightblue" points="484.5,-147.32 495.09,-147.5 486.92,-140.75 484.5,-147.32"/>
</g>
<!-- Node6 -->
<g id="node6" class="node">
<title>Node6</title>
<g id="a_node6"><a xlink:href="classhelper_1_1logging_1_1_global_logger.html#a956281901fd88046239494c600e3c5e5" target="_top" xlink:title="Gets the null logger (ostream).">
<polygon fill="white" stroke="black" points="472,-98.5 472,-128.5 615,-128.5 615,-98.5 472,-98.5"/>
<text text-anchor="start" x="480" y="-116.5" font-family="Helvetica,sans-Serif" font-size="10.00">helper::logging::GlobalLogger</text>
<text text-anchor="middle" x="543.5" y="-105.5" font-family="Helvetica,sans-Serif" font-size="10.00">::getNullLogger</text>
</a>
</g>
</g>
<!-- Node4&#45;&gt;Node6 -->
<g id="edge5" class="edge">
<title>Node4&#45;&gt;Node6</title>
<path fill="none" stroke="midnightblue" d="M436.28,-97.45C444.55,-98.7 453.16,-100 461.73,-101.3"/>
<polygon fill="midnightblue" stroke="midnightblue" points="461.36,-104.78 471.77,-102.82 462.4,-97.86 461.36,-104.78"/>
</g>
<!-- Node7 -->
<g id="node7" class="node">
<title>Node7</title>
<g id="a_node7"><a xlink:href="namespacehelper_1_1logging.html#a69b892408158ee6bed51c5aafa694af7" target="_top" xlink:title="Converts the enum LogLevel into string.">
<polygon fill="white" stroke="black" points="483.5,-49.5 483.5,-79.5 603.5,-79.5 603.5,-49.5 483.5,-49.5"/>
<text text-anchor="start" x="491.5" y="-67.5" font-family="Helvetica,sans-Serif" font-size="10.00">helper::logging::logLevel</text>
<text text-anchor="middle" x="543.5" y="-56.5" font-family="Helvetica,sans-Serif" font-size="10.00">ToString</text>
</a>
</g>
</g>
<!-- Node4&#45;&gt;Node7 -->
<g id="edge6" class="edge">
<title>Node4&#45;&gt;Node7</title>
<path fill="none" stroke="midnightblue" d="M436.28,-79.9C448.24,-78.17 460.91,-76.33 473.17,-74.55"/>
<polygon fill="midnightblue" stroke="midnightblue" points="473.96,-77.98 483.35,-73.08 472.96,-71.05 473.96,-77.98"/>
</g>
<!-- Node8 -->
<g id="node8" class="node">
<title>Node8</title>
<g id="a_node8"><a xlink:href="namespacehelper_1_1logging.html#a33b1f83f96be6edb81fa28ddba33179d" target="_top" xlink:title="Gets the source file name out of the path.">
<polygon fill="white" stroke="black" points="476,-0.5 476,-30.5 611,-30.5 611,-0.5 476,-0.5"/>
<text text-anchor="start" x="484" y="-18.5" font-family="Helvetica,sans-Serif" font-size="10.00">helper::logging::stripSource</text>
<text text-anchor="middle" x="543.5" y="-7.5" font-family="Helvetica,sans-Serif" font-size="10.00">FileName</text>
</a>
</g>
</g>
<!-- Node4&#45;&gt;Node8 -->
<g id="edge7" class="edge">
<title>Node4&#45;&gt;Node8</title>
<path fill="none" stroke="midnightblue" d="M394.19,-78.98C412.99,-68.77 444.14,-52.42 472,-40.5 477.07,-38.33 482.41,-36.19 487.77,-34.13"/>
<polygon fill="midnightblue" stroke="midnightblue" points="489.28,-37.31 497.42,-30.52 486.82,-30.75 489.28,-37.31"/>
</g>
</g>
</svg>
