<?xml version="1.0" encoding="UTF-8" standalone="no"?>
<!DOCTYPE svg PUBLIC "-//W3C//DTD SVG 1.1//EN"
 "http://www.w3.org/Graphics/SVG/1.1/DTD/svg11.dtd">
<!-- Generated by graphviz version 2.47.3 (20210619.1520)
 -->
<!-- Title: btf::BtfFile::taskMigrationEvent Pages: 1 -->
<svg width="447pt" height="53pt"
 viewBox="0.00 0.00 447.00 52.50" xmlns="http://www.w3.org/2000/svg" xmlns:xlink="http://www.w3.org/1999/xlink">
<g id="graph0" class="graph" transform="scale(1 1) rotate(0) translate(4 48.5)">
<title>btf::BtfFile::taskMigrationEvent</title>
<polygon fill="white" stroke="transparent" points="-4,4 -4,-48.5 443,-48.5 443,4 -4,4"/>
<!-- Node1 -->
<g id="node1" class="node">
<title>Node1</title>
<g id="a_node1"><a xlink:title="Emits a task migration event. See overloaded function for more information.">
<polygon fill="#bfbfbf" stroke="black" points="314,-0.5 314,-30.5 439,-30.5 439,-0.5 314,-0.5"/>
<text text-anchor="start" x="322" y="-18.5" font-family="Helvetica,sans-Serif" font-size="10.00">btf::BtfFile::taskMigration</text>
<text text-anchor="middle" x="376.5" y="-7.5" font-family="Helvetica,sans-Serif" font-size="10.00">Event</text>
</a>
</g>
</g>
<!-- Node2 -->
<g id="node2" class="node">
<title>Node2</title>
<g id="a_node2"><a xlink:href="classbtf_1_1_btf_file.html#ae1e0e725a1569e510b767acc6ce2d648" target="_top" xlink:title="Appends the data from a BTF file. Currently only import into an empty BTF file is supported.">
<polygon fill="white" stroke="black" points="146,-25 146,-44 278,-44 278,-25 146,-25"/>
<text text-anchor="middle" x="212" y="-32" font-family="Helvetica,sans-Serif" font-size="10.00">btf::BtfFile::importFromFile</text>
</a>
</g>
</g>
<!-- Node1&#45;&gt;Node2 -->
<g id="edge1" class="edge">
<title>Node1&#45;&gt;Node2</title>
<path fill="none" stroke="midnightblue" d="M303.45,-23.92C295.06,-24.91 286.53,-25.9 278.24,-26.87"/>
<polygon fill="midnightblue" stroke="midnightblue" points="304.08,-27.38 313.6,-22.74 303.26,-20.42 304.08,-27.38"/>
</g>
<!-- Node3 -->
<g id="node3" class="node">
<title>Node3</title>
<g id="a_node3"><a xlink:href="libbtf__binding_8cpp.html#adfae743278a01284c171e56ddabf18bd" target="_top" xlink:title="Macro that creates a function that will be called when the module pybtf is imported within python....">
<polygon fill="white" stroke="black" points="0,-6 0,-25 110,-25 110,-6 0,-6"/>
<text text-anchor="middle" x="55" y="-13" font-family="Helvetica,sans-Serif" font-size="10.00">PYBIND11_MODULE</text>
</a>
</g>
</g>
<!-- Node1&#45;&gt;Node3 -->
<g id="edge3" class="edge">
<title>Node1&#45;&gt;Node3</title>
<path fill="none" stroke="midnightblue" d="M303.6,-15.5C244.98,-15.5 163.47,-15.5 110.23,-15.5"/>
<polygon fill="midnightblue" stroke="midnightblue" points="303.9,-19 313.9,-15.5 303.9,-12 303.9,-19"/>
</g>
<!-- Node2&#45;&gt;Node3 -->
<g id="edge2" class="edge">
<title>Node2&#45;&gt;Node3</title>
<path fill="none" stroke="midnightblue" d="M135.74,-25.27C127.2,-24.23 118.63,-23.18 110.43,-22.17"/>
<polygon fill="midnightblue" stroke="midnightblue" points="135.36,-28.75 145.72,-26.5 136.22,-21.81 135.36,-28.75"/>
</g>
</g>
</svg>
