<?xml version="1.0" encoding="UTF-8" standalone="no"?>
<!DOCTYPE svg PUBLIC "-//W3C//DTD SVG 1.1//EN"
 "http://www.w3.org/Graphics/SVG/1.1/DTD/svg11.dtd">
<!-- Generated by graphviz version 2.47.3 (20210619.1520)
 -->
<!-- Title: btf::BtfEntry::eventToString Pages: 1 -->
<svg width="324pt" height="344pt"
 viewBox="0.00 0.00 324.00 344.00" xmlns="http://www.w3.org/2000/svg" xmlns:xlink="http://www.w3.org/1999/xlink">
<g id="graph0" class="graph" transform="scale(1 1) rotate(0) translate(4 340)">
<title>btf::BtfEntry::eventToString</title>
<polygon fill="white" stroke="transparent" points="-4,4 -4,-340 320,-340 320,4 -4,4"/>
<!-- Node1 -->
<g id="node1" class="node">
<title>Node1</title>
<g id="a_node1"><a xlink:title="Converts union Events into string according to the type_ of the BtfEntry.">
<polygon fill="#bfbfbf" stroke="black" points="0,-164.5 0,-183.5 133,-183.5 133,-164.5 0,-164.5"/>
<text text-anchor="middle" x="66.5" y="-171.5" font-family="Helvetica,sans-Serif" font-size="10.00">btf::BtfEntry::eventToString</text>
</a>
</g>
</g>
<!-- Node2 -->
<g id="node2" class="node">
<title>Node2</title>
<g id="a_node2"><a xlink:href="classbtf_1_1_signal.html#a120fa6ebdf2e3b74c57f98bced1d53e2" target="_top" xlink:title="Converts the enum Events into string.">
<polygon fill="white" stroke="black" points="180,-316.5 180,-335.5 305,-335.5 305,-316.5 180,-316.5"/>
<text text-anchor="middle" x="242.5" y="-323.5" font-family="Helvetica,sans-Serif" font-size="10.00">btf::Signal::eventToString</text>
</a>
</g>
</g>
<!-- Node1&#45;&gt;Node2 -->
<g id="edge1" class="edge">
<title>Node1&#45;&gt;Node2</title>
<path fill="none" stroke="midnightblue" d="M72.08,-183.8C84.17,-208.56 119.44,-273.99 169,-307 172.11,-309.07 175.43,-310.91 178.88,-312.56"/>
<polygon fill="midnightblue" stroke="midnightblue" points="177.66,-315.84 188.24,-316.46 180.35,-309.38 177.66,-315.84"/>
</g>
<!-- Node3 -->
<g id="node3" class="node">
<title>Node3</title>
<g id="a_node3"><a xlink:href="classbtf_1_1_core.html#af577029a98e9f5f82e8981cc0d80f62e" target="_top" xlink:title="Converts the enum Events into string.">
<polygon fill="white" stroke="black" points="183.5,-278.5 183.5,-297.5 301.5,-297.5 301.5,-278.5 183.5,-278.5"/>
<text text-anchor="middle" x="242.5" y="-285.5" font-family="Helvetica,sans-Serif" font-size="10.00">btf::Core::eventToString</text>
</a>
</g>
</g>
<!-- Node1&#45;&gt;Node3 -->
<g id="edge2" class="edge">
<title>Node1&#45;&gt;Node3</title>
<path fill="none" stroke="midnightblue" d="M75.02,-183.74C90.47,-203.04 127.79,-246.26 169,-269 173.02,-271.22 177.3,-273.18 181.71,-274.93"/>
<polygon fill="midnightblue" stroke="midnightblue" points="180.89,-278.35 191.48,-278.4 183.23,-271.75 180.89,-278.35"/>
</g>
<!-- Node4 -->
<g id="node4" class="node">
<title>Node4</title>
<g id="a_node4"><a xlink:href="classbtf_1_1_o_s.html#af627f5bcc47760ff9809871b23da87cc" target="_top" xlink:title="Converts the enum Events into string.">
<polygon fill="white" stroke="black" points="186.5,-240.5 186.5,-259.5 298.5,-259.5 298.5,-240.5 186.5,-240.5"/>
<text text-anchor="middle" x="242.5" y="-247.5" font-family="Helvetica,sans-Serif" font-size="10.00">btf::OS::eventToString</text>
</a>
</g>
</g>
<!-- Node1&#45;&gt;Node4 -->
<g id="edge3" class="edge">
<title>Node1&#45;&gt;Node4</title>
<path fill="none" stroke="midnightblue" d="M81.71,-183.53C100.82,-195.98 136.21,-217.75 169,-231 174.94,-233.4 181.27,-235.58 187.63,-237.53"/>
<polygon fill="midnightblue" stroke="midnightblue" points="187.01,-241 197.59,-240.42 188.96,-234.27 187.01,-241"/>
</g>
<!-- Node5 -->
<g id="node5" class="node">
<title>Node5</title>
<g id="a_node5"><a xlink:href="classbtf_1_1_process.html#ac2b6cd5b0524fba0a5c248ba4b223001" target="_top" xlink:title="Converts the enum Events into string.">
<polygon fill="white" stroke="black" points="175.5,-202.5 175.5,-221.5 309.5,-221.5 309.5,-202.5 175.5,-202.5"/>
<text text-anchor="middle" x="242.5" y="-209.5" font-family="Helvetica,sans-Serif" font-size="10.00">btf::Process::eventToString</text>
</a>
</g>
</g>
<!-- Node1&#45;&gt;Node5 -->
<g id="edge4" class="edge">
<title>Node1&#45;&gt;Node5</title>
<path fill="none" stroke="midnightblue" d="M111.41,-183.59C134.68,-188.67 163.45,-194.96 188.02,-200.32"/>
<polygon fill="midnightblue" stroke="midnightblue" points="187.39,-203.77 197.91,-202.48 188.89,-196.93 187.39,-203.77"/>
</g>
<!-- Node6 -->
<g id="node6" class="node">
<title>Node6</title>
<g id="a_node6"><a xlink:href="classbtf_1_1_runnable.html#ae588697e7b86706ac5a094af09db0c74" target="_top" xlink:title="Converts the enum Events into string.">
<polygon fill="white" stroke="black" points="173.5,-164.5 173.5,-183.5 311.5,-183.5 311.5,-164.5 173.5,-164.5"/>
<text text-anchor="middle" x="242.5" y="-171.5" font-family="Helvetica,sans-Serif" font-size="10.00">btf::Runnable::eventToString</text>
</a>
</g>
</g>
<!-- Node1&#45;&gt;Node6 -->
<g id="edge5" class="edge">
<title>Node1&#45;&gt;Node6</title>
<path fill="none" stroke="midnightblue" d="M133.28,-174C143,-174 153.09,-174 163.03,-174"/>
<polygon fill="midnightblue" stroke="midnightblue" points="163.31,-177.5 173.31,-174 163.31,-170.5 163.31,-177.5"/>
</g>
<!-- Node7 -->
<g id="node7" class="node">
<title>Node7</title>
<g id="a_node7"><a xlink:href="classbtf_1_1_scheduler.html#ade30adab31494faff6e8b89727522464" target="_top" xlink:title="Converts the enum Events into string.">
<polygon fill="white" stroke="black" points="172,-126.5 172,-145.5 313,-145.5 313,-126.5 172,-126.5"/>
<text text-anchor="middle" x="242.5" y="-133.5" font-family="Helvetica,sans-Serif" font-size="10.00">btf::Scheduler::eventToString</text>
</a>
</g>
</g>
<!-- Node1&#45;&gt;Node7 -->
<g id="edge6" class="edge">
<title>Node1&#45;&gt;Node7</title>
<path fill="none" stroke="midnightblue" d="M111.41,-164.41C134.68,-159.33 163.45,-153.04 188.02,-147.68"/>
<polygon fill="midnightblue" stroke="midnightblue" points="188.89,-151.07 197.91,-145.52 187.39,-144.23 188.89,-151.07"/>
</g>
<!-- Node8 -->
<g id="node8" class="node">
<title>Node8</title>
<g id="a_node8"><a xlink:href="classbtf_1_1_semaphore.html#a009325c47cd25c9396f83f8558ed565a" target="_top" xlink:title="Converts the enum Events into string.">
<polygon fill="white" stroke="black" points="169,-88.5 169,-107.5 316,-107.5 316,-88.5 169,-88.5"/>
<text text-anchor="middle" x="242.5" y="-95.5" font-family="Helvetica,sans-Serif" font-size="10.00">btf::Semaphore::eventToString</text>
</a>
</g>
</g>
<!-- Node1&#45;&gt;Node8 -->
<g id="edge7" class="edge">
<title>Node1&#45;&gt;Node8</title>
<path fill="none" stroke="midnightblue" d="M81.71,-164.47C100.82,-152.02 136.21,-130.25 169,-117 174.94,-114.6 181.27,-112.42 187.63,-110.47"/>
<polygon fill="midnightblue" stroke="midnightblue" points="188.96,-113.73 197.59,-107.58 187.01,-107 188.96,-113.73"/>
</g>
<!-- Node9 -->
<g id="node9" class="node">
<title>Node9</title>
<g id="a_node9"><a xlink:href="classbtf_1_1_simulation.html#a4e8900d9b37d10d407927ca039533cec" target="_top" xlink:title="Converts the enum Events into string.">
<polygon fill="white" stroke="black" points="183.5,-39 183.5,-69 301.5,-69 301.5,-39 183.5,-39"/>
<text text-anchor="start" x="191.5" y="-57" font-family="Helvetica,sans-Serif" font-size="10.00">btf::Simulation::eventTo</text>
<text text-anchor="middle" x="242.5" y="-46" font-family="Helvetica,sans-Serif" font-size="10.00">String</text>
</a>
</g>
</g>
<!-- Node1&#45;&gt;Node9 -->
<g id="edge8" class="edge">
<title>Node1&#45;&gt;Node9</title>
<path fill="none" stroke="midnightblue" d="M75.42,-164.23C91.28,-145.26 128.89,-103.16 169,-79 172.43,-76.93 176.06,-75.01 179.78,-73.22"/>
<polygon fill="midnightblue" stroke="midnightblue" points="181.48,-76.3 189.2,-69.05 178.64,-69.89 181.48,-76.3"/>
</g>
<!-- Node10 -->
<g id="node10" class="node">
<title>Node10</title>
<g id="a_node10"><a xlink:href="classbtf_1_1_stimulus.html#a7a7c5b6d5ef557ed266a8ecb025e326c" target="_top" xlink:title="Converts the enum Events into string.">
<polygon fill="white" stroke="black" points="174.5,-0.5 174.5,-19.5 310.5,-19.5 310.5,-0.5 174.5,-0.5"/>
<text text-anchor="middle" x="242.5" y="-7.5" font-family="Helvetica,sans-Serif" font-size="10.00">btf::Stimulus::eventToString</text>
</a>
</g>
</g>
<!-- Node1&#45;&gt;Node10 -->
<g id="edge9" class="edge">
<title>Node1&#45;&gt;Node10</title>
<path fill="none" stroke="midnightblue" d="M71.54,-164.2C82.81,-138.09 117.21,-66.43 169,-30 172.48,-27.55 176.26,-25.4 180.19,-23.51"/>
<polygon fill="midnightblue" stroke="midnightblue" points="181.73,-26.66 189.59,-19.57 179.02,-20.21 181.73,-26.66"/>
</g>
</g>
</svg>
