<?xml version="1.0" encoding="UTF-8" standalone="no"?>
<!DOCTYPE svg PUBLIC "-//W3C//DTD SVG 1.1//EN"
 "http://www.w3.org/Graphics/SVG/1.1/DTD/svg11.dtd">
<!-- Generated by graphviz version 2.47.3 (20210619.1520)
 -->
<!-- Title: btf::BtfFile::taskEvent Pages: 1 -->
<svg width="432pt" height="104pt"
 viewBox="0.00 0.00 432.00 104.00" xmlns="http://www.w3.org/2000/svg" xmlns:xlink="http://www.w3.org/1999/xlink">
<g id="graph0" class="graph" transform="scale(1 1) rotate(0) translate(4 100)">
<title>btf::BtfFile::taskEvent</title>
<polygon fill="white" stroke="transparent" points="-4,4 -4,-100 428,-100 428,4 -4,4"/>
<!-- Node1 -->
<g id="node1" class="node">
<title>Node1</title>
<g id="a_node1"><a xlink:title="Emits a task event (except migration). See overloaded function for more information.">
<polygon fill="#bfbfbf" stroke="black" points="314,-38.5 314,-57.5 424,-57.5 424,-38.5 314,-38.5"/>
<text text-anchor="middle" x="369" y="-45.5" font-family="Helvetica,sans-Serif" font-size="10.00">btf::BtfFile::taskEvent</text>
</a>
</g>
</g>
<!-- Node2 -->
<g id="node2" class="node">
<title>Node2</title>
<g id="a_node2"><a xlink:href="classbtf_1_1_btf_file.html#ae1e0e725a1569e510b767acc6ce2d648" target="_top" xlink:title="Appends the data from a BTF file. Currently only import into an empty BTF file is supported.">
<polygon fill="white" stroke="black" points="146,-76.5 146,-95.5 278,-95.5 278,-76.5 146,-76.5"/>
<text text-anchor="middle" x="212" y="-83.5" font-family="Helvetica,sans-Serif" font-size="10.00">btf::BtfFile::importFromFile</text>
</a>
</g>
</g>
<!-- Node1&#45;&gt;Node2 -->
<g id="edge1" class="edge">
<title>Node1&#45;&gt;Node2</title>
<path fill="none" stroke="midnightblue" d="M318.89,-60.04C297.24,-65.35 272.15,-71.5 251.83,-76.48"/>
<polygon fill="midnightblue" stroke="midnightblue" points="320.01,-63.37 328.89,-57.59 318.34,-56.57 320.01,-63.37"/>
</g>
<!-- Node3 -->
<g id="node3" class="node">
<title>Node3</title>
<g id="a_node3"><a xlink:href="libbtf__binding_8cpp.html#adfae743278a01284c171e56ddabf18bd" target="_top" xlink:title="Macro that creates a function that will be called when the module pybtf is imported within python....">
<polygon fill="white" stroke="black" points="0,-57.5 0,-76.5 110,-76.5 110,-57.5 0,-57.5"/>
<text text-anchor="middle" x="55" y="-64.5" font-family="Helvetica,sans-Serif" font-size="10.00">PYBIND11_MODULE</text>
</a>
</g>
</g>
<!-- Node1&#45;&gt;Node3 -->
<g id="edge4" class="edge">
<title>Node1&#45;&gt;Node3</title>
<path fill="none" stroke="midnightblue" d="M303.65,-51.92C246.55,-55.4 164.07,-60.42 110.25,-63.7"/>
<polygon fill="midnightblue" stroke="midnightblue" points="303.89,-55.41 313.65,-51.31 303.46,-48.42 303.89,-55.41"/>
</g>
<!-- Node4 -->
<g id="node4" class="node">
<title>Node4</title>
<g id="a_node4"><a xlink:href="classbtf_1_1_btf_file.html#a67251691e4a66475a4a5a1206687247d" target="_top" xlink:title="Emits an OS event (source is a task).">
<polygon fill="white" stroke="black" points="161.5,-0.5 161.5,-19.5 262.5,-19.5 262.5,-0.5 161.5,-0.5"/>
<text text-anchor="middle" x="212" y="-7.5" font-family="Helvetica,sans-Serif" font-size="10.00">btf::BtfFile::osEvent</text>
</a>
</g>
</g>
<!-- Node1&#45;&gt;Node4 -->
<g id="edge3" class="edge">
<title>Node1&#45;&gt;Node4</title>
<path fill="none" stroke="midnightblue" d="M318.89,-35.96C297.24,-30.65 272.15,-24.5 251.83,-19.52"/>
<polygon fill="midnightblue" stroke="midnightblue" points="318.34,-39.43 328.89,-38.41 320.01,-32.63 318.34,-39.43"/>
</g>
<!-- Node2&#45;&gt;Node3 -->
<g id="edge2" class="edge">
<title>Node2&#45;&gt;Node3</title>
<path fill="none" stroke="midnightblue" d="M135.74,-76.77C127.2,-75.73 118.63,-74.68 110.43,-73.67"/>
<polygon fill="midnightblue" stroke="midnightblue" points="135.36,-80.25 145.72,-78 136.22,-73.31 135.36,-80.25"/>
</g>
</g>
</svg>
