<?xml version="1.0" encoding="UTF-8" standalone="no"?>
<!DOCTYPE svg PUBLIC "-//W3C//DTD SVG 1.1//EN"
 "http://www.w3.org/Graphics/SVG/1.1/DTD/svg11.dtd">
<!-- Generated by graphviz version 2.47.3 (20210619.1520)
 -->
<!-- Title: btf::BtfEntry::toString Pages: 1 -->
<svg width="468pt" height="344pt"
 viewBox="0.00 0.00 468.00 344.00" xmlns="http://www.w3.org/2000/svg" xmlns:xlink="http://www.w3.org/1999/xlink">
<g id="graph0" class="graph" transform="scale(1 1) rotate(0) translate(4 340)">
<title>btf::BtfEntry::toString</title>
<polygon fill="white" stroke="transparent" points="-4,4 -4,-340 464,-340 464,4 -4,4"/>
<!-- Node1 -->
<g id="node1" class="node">
<title>Node1</title>
<g id="a_node1"><a xlink:title="Converts a BtfEntry into string.">
<polygon fill="#bfbfbf" stroke="black" points="0,-183.5 0,-202.5 108,-202.5 108,-183.5 0,-183.5"/>
<text text-anchor="middle" x="54" y="-190.5" font-family="Helvetica,sans-Serif" font-size="10.00">btf::BtfEntry::toString</text>
</a>
</g>
</g>
<!-- Node2 -->
<g id="node2" class="node">
<title>Node2</title>
<g id="a_node2"><a xlink:href="namespacebtf.html#a6baf1b32b87e1c30ff1ab04904a03490" target="_top" xlink:title="Converts the enum EntityTypes into string.">
<polygon fill="white" stroke="black" points="153.5,-202.5 153.5,-221.5 267.5,-221.5 267.5,-202.5 153.5,-202.5"/>
<text text-anchor="middle" x="210.5" y="-209.5" font-family="Helvetica,sans-Serif" font-size="10.00">btf::entityTypeToString</text>
</a>
</g>
</g>
<!-- Node1&#45;&gt;Node2 -->
<g id="edge1" class="edge">
<title>Node1&#45;&gt;Node2</title>
<path fill="none" stroke="midnightblue" d="M108.17,-199.54C119.44,-200.93 131.48,-202.41 143.17,-203.84"/>
<polygon fill="midnightblue" stroke="midnightblue" points="142.98,-207.35 153.33,-205.09 143.84,-200.4 142.98,-207.35"/>
</g>
<!-- Node3 -->
<g id="node3" class="node">
<title>Node3</title>
<g id="a_node3"><a xlink:href="classbtf_1_1_btf_entry.html#a056141170fa8f9dd0001691a1bb336b8" target="_top" xlink:title="Converts union Events into string according to the type_ of the BtfEntry.">
<polygon fill="white" stroke="black" points="144,-164.5 144,-183.5 277,-183.5 277,-164.5 144,-164.5"/>
<text text-anchor="middle" x="210.5" y="-171.5" font-family="Helvetica,sans-Serif" font-size="10.00">btf::BtfEntry::eventToString</text>
</a>
</g>
</g>
<!-- Node1&#45;&gt;Node3 -->
<g id="edge2" class="edge">
<title>Node1&#45;&gt;Node3</title>
<path fill="none" stroke="midnightblue" d="M108.17,-186.46C116.45,-185.44 125.14,-184.37 133.81,-183.31"/>
<polygon fill="midnightblue" stroke="midnightblue" points="134.45,-186.76 143.94,-182.06 133.59,-179.81 134.45,-186.76"/>
</g>
<!-- Node4 -->
<g id="node4" class="node">
<title>Node4</title>
<g id="a_node4"><a xlink:href="classbtf_1_1_signal.html#a120fa6ebdf2e3b74c57f98bced1d53e2" target="_top" xlink:title="Converts the enum Events into string.">
<polygon fill="white" stroke="black" points="324,-316.5 324,-335.5 449,-335.5 449,-316.5 324,-316.5"/>
<text text-anchor="middle" x="386.5" y="-323.5" font-family="Helvetica,sans-Serif" font-size="10.00">btf::Signal::eventToString</text>
</a>
</g>
</g>
<!-- Node3&#45;&gt;Node4 -->
<g id="edge3" class="edge">
<title>Node3&#45;&gt;Node4</title>
<path fill="none" stroke="midnightblue" d="M263.23,-183.54C268.29,-186.01 273.02,-189.11 277,-193 315.01,-230.13 274.51,-270.37 313,-307 314.65,-308.57 316.41,-310.01 318.26,-311.33"/>
<polygon fill="midnightblue" stroke="midnightblue" points="316.48,-314.35 326.87,-316.44 320.05,-308.33 316.48,-314.35"/>
</g>
<!-- Node5 -->
<g id="node5" class="node">
<title>Node5</title>
<g id="a_node5"><a xlink:href="classbtf_1_1_core.html#af577029a98e9f5f82e8981cc0d80f62e" target="_top" xlink:title="Converts the enum Events into string.">
<polygon fill="white" stroke="black" points="327.5,-278.5 327.5,-297.5 445.5,-297.5 445.5,-278.5 327.5,-278.5"/>
<text text-anchor="middle" x="386.5" y="-285.5" font-family="Helvetica,sans-Serif" font-size="10.00">btf::Core::eventToString</text>
</a>
</g>
</g>
<!-- Node3&#45;&gt;Node5 -->
<g id="edge4" class="edge">
<title>Node3&#45;&gt;Node5</title>
<path fill="none" stroke="midnightblue" d="M261.39,-183.51C267.04,-185.98 272.4,-189.09 277,-193 305.46,-217.23 284.23,-245.14 313,-269 315.06,-270.71 317.26,-272.26 319.55,-273.68"/>
<polygon fill="midnightblue" stroke="midnightblue" points="318.36,-277 328.85,-278.49 321.57,-270.79 318.36,-277"/>
</g>
<!-- Node6 -->
<g id="node6" class="node">
<title>Node6</title>
<g id="a_node6"><a xlink:href="classbtf_1_1_o_s.html#af627f5bcc47760ff9809871b23da87cc" target="_top" xlink:title="Converts the enum Events into string.">
<polygon fill="white" stroke="black" points="330.5,-240.5 330.5,-259.5 442.5,-259.5 442.5,-240.5 330.5,-240.5"/>
<text text-anchor="middle" x="386.5" y="-247.5" font-family="Helvetica,sans-Serif" font-size="10.00">btf::OS::eventToString</text>
</a>
</g>
</g>
<!-- Node3&#45;&gt;Node6 -->
<g id="edge5" class="edge">
<title>Node3&#45;&gt;Node6</title>
<path fill="none" stroke="midnightblue" d="M256.54,-183.61C263.66,-186.09 270.73,-189.18 277,-193 296.87,-205.11 292.98,-219.15 313,-231 316.65,-233.16 320.55,-235.08 324.58,-236.79"/>
<polygon fill="midnightblue" stroke="midnightblue" points="323.54,-240.14 334.13,-240.38 326.01,-233.58 323.54,-240.14"/>
</g>
<!-- Node7 -->
<g id="node7" class="node">
<title>Node7</title>
<g id="a_node7"><a xlink:href="classbtf_1_1_process.html#ac2b6cd5b0524fba0a5c248ba4b223001" target="_top" xlink:title="Converts the enum Events into string.">
<polygon fill="white" stroke="black" points="319.5,-202.5 319.5,-221.5 453.5,-221.5 453.5,-202.5 319.5,-202.5"/>
<text text-anchor="middle" x="386.5" y="-209.5" font-family="Helvetica,sans-Serif" font-size="10.00">btf::Process::eventToString</text>
</a>
</g>
</g>
<!-- Node3&#45;&gt;Node7 -->
<g id="edge6" class="edge">
<title>Node3&#45;&gt;Node7</title>
<path fill="none" stroke="midnightblue" d="M255.41,-183.59C278.68,-188.67 307.45,-194.96 332.02,-200.32"/>
<polygon fill="midnightblue" stroke="midnightblue" points="331.39,-203.77 341.91,-202.48 332.89,-196.93 331.39,-203.77"/>
</g>
<!-- Node8 -->
<g id="node8" class="node">
<title>Node8</title>
<g id="a_node8"><a xlink:href="classbtf_1_1_runnable.html#ae588697e7b86706ac5a094af09db0c74" target="_top" xlink:title="Converts the enum Events into string.">
<polygon fill="white" stroke="black" points="317.5,-164.5 317.5,-183.5 455.5,-183.5 455.5,-164.5 317.5,-164.5"/>
<text text-anchor="middle" x="386.5" y="-171.5" font-family="Helvetica,sans-Serif" font-size="10.00">btf::Runnable::eventToString</text>
</a>
</g>
</g>
<!-- Node3&#45;&gt;Node8 -->
<g id="edge7" class="edge">
<title>Node3&#45;&gt;Node8</title>
<path fill="none" stroke="midnightblue" d="M277.28,-174C287,-174 297.09,-174 307.03,-174"/>
<polygon fill="midnightblue" stroke="midnightblue" points="307.31,-177.5 317.31,-174 307.31,-170.5 307.31,-177.5"/>
</g>
<!-- Node9 -->
<g id="node9" class="node">
<title>Node9</title>
<g id="a_node9"><a xlink:href="classbtf_1_1_scheduler.html#ade30adab31494faff6e8b89727522464" target="_top" xlink:title="Converts the enum Events into string.">
<polygon fill="white" stroke="black" points="316,-126.5 316,-145.5 457,-145.5 457,-126.5 316,-126.5"/>
<text text-anchor="middle" x="386.5" y="-133.5" font-family="Helvetica,sans-Serif" font-size="10.00">btf::Scheduler::eventToString</text>
</a>
</g>
</g>
<!-- Node3&#45;&gt;Node9 -->
<g id="edge8" class="edge">
<title>Node3&#45;&gt;Node9</title>
<path fill="none" stroke="midnightblue" d="M255.41,-164.41C278.68,-159.33 307.45,-153.04 332.02,-147.68"/>
<polygon fill="midnightblue" stroke="midnightblue" points="332.89,-151.07 341.91,-145.52 331.39,-144.23 332.89,-151.07"/>
</g>
<!-- Node10 -->
<g id="node10" class="node">
<title>Node10</title>
<g id="a_node10"><a xlink:href="classbtf_1_1_semaphore.html#a009325c47cd25c9396f83f8558ed565a" target="_top" xlink:title="Converts the enum Events into string.">
<polygon fill="white" stroke="black" points="313,-88.5 313,-107.5 460,-107.5 460,-88.5 313,-88.5"/>
<text text-anchor="middle" x="386.5" y="-95.5" font-family="Helvetica,sans-Serif" font-size="10.00">btf::Semaphore::eventToString</text>
</a>
</g>
</g>
<!-- Node3&#45;&gt;Node10 -->
<g id="edge9" class="edge">
<title>Node3&#45;&gt;Node10</title>
<path fill="none" stroke="midnightblue" d="M225.71,-164.47C244.82,-152.02 280.21,-130.25 313,-117 318.94,-114.6 325.27,-112.42 331.63,-110.47"/>
<polygon fill="midnightblue" stroke="midnightblue" points="332.96,-113.73 341.59,-107.58 331.01,-107 332.96,-113.73"/>
</g>
<!-- Node11 -->
<g id="node11" class="node">
<title>Node11</title>
<g id="a_node11"><a xlink:href="classbtf_1_1_simulation.html#a4e8900d9b37d10d407927ca039533cec" target="_top" xlink:title="Converts the enum Events into string.">
<polygon fill="white" stroke="black" points="327.5,-39 327.5,-69 445.5,-69 445.5,-39 327.5,-39"/>
<text text-anchor="start" x="335.5" y="-57" font-family="Helvetica,sans-Serif" font-size="10.00">btf::Simulation::eventTo</text>
<text text-anchor="middle" x="386.5" y="-46" font-family="Helvetica,sans-Serif" font-size="10.00">String</text>
</a>
</g>
</g>
<!-- Node3&#45;&gt;Node11 -->
<g id="edge10" class="edge">
<title>Node3&#45;&gt;Node11</title>
<path fill="none" stroke="midnightblue" d="M219.42,-164.23C235.28,-145.26 272.89,-103.16 313,-79 316.43,-76.93 320.06,-75.01 323.78,-73.22"/>
<polygon fill="midnightblue" stroke="midnightblue" points="325.48,-76.3 333.2,-69.05 322.64,-69.89 325.48,-76.3"/>
</g>
<!-- Node12 -->
<g id="node12" class="node">
<title>Node12</title>
<g id="a_node12"><a xlink:href="classbtf_1_1_stimulus.html#a7a7c5b6d5ef557ed266a8ecb025e326c" target="_top" xlink:title="Converts the enum Events into string.">
<polygon fill="white" stroke="black" points="318.5,-0.5 318.5,-19.5 454.5,-19.5 454.5,-0.5 318.5,-0.5"/>
<text text-anchor="middle" x="386.5" y="-7.5" font-family="Helvetica,sans-Serif" font-size="10.00">btf::Stimulus::eventToString</text>
</a>
</g>
</g>
<!-- Node3&#45;&gt;Node12 -->
<g id="edge11" class="edge">
<title>Node3&#45;&gt;Node12</title>
<path fill="none" stroke="midnightblue" d="M215.54,-164.2C226.81,-138.09 261.21,-66.43 313,-30 316.48,-27.55 320.26,-25.4 324.19,-23.51"/>
<polygon fill="midnightblue" stroke="midnightblue" points="325.73,-26.66 333.59,-19.57 323.02,-20.21 325.73,-26.66"/>
</g>
</g>
</svg>
