<?xml version="1.0" encoding="UTF-8" standalone="no"?>
<!DOCTYPE svg PUBLIC "-//W3C//DTD SVG 1.1//EN"
 "http://www.w3.org/Graphics/SVG/1.1/DTD/svg11.dtd">
<!-- Generated by graphviz version 2.47.3 (20210619.1520)
 -->
<!-- Title: btf::BtfFile::stimulusEvent Pages: 1 -->
<svg width="647pt" height="186pt"
 viewBox="0.00 0.00 647.00 186.00" xmlns="http://www.w3.org/2000/svg" xmlns:xlink="http://www.w3.org/1999/xlink">
<g id="graph0" class="graph" transform="scale(1 1) rotate(0) translate(4 182)">
<title>btf::BtfFile::stimulusEvent</title>
<polygon fill="white" stroke="transparent" points="-4,4 -4,-182 643,-182 643,4 -4,4"/>
<!-- Node1 -->
<g id="node1" class="node">
<title>Node1</title>
<g id="a_node1"><a xlink:title="Emits a stimulus event.">
<polygon fill="#bfbfbf" stroke="black" points="0,-79 0,-98 128,-98 128,-79 0,-79"/>
<text text-anchor="middle" x="64" y="-86" font-family="Helvetica,sans-Serif" font-size="10.00">btf::BtfFile::stimulusEvent</text>
</a>
</g>
</g>
<!-- Node2 -->
<g id="node2" class="node">
<title>Node2</title>
<g id="a_node2"><a xlink:href="namespacehelper_1_1logging.html#a9181c24054b42b4c6b18afff28b762bb" target="_top" xlink:title="Writes a warning message to the log.">
<polygon fill="white" stroke="black" points="164,-79 164,-98 304,-98 304,-79 164,-79"/>
<text text-anchor="middle" x="234" y="-86" font-family="Helvetica,sans-Serif" font-size="10.00">helper::logging::printWarning</text>
</a>
</g>
</g>
<!-- Node1&#45;&gt;Node2 -->
<g id="edge1" class="edge">
<title>Node1&#45;&gt;Node2</title>
<path fill="none" stroke="midnightblue" d="M128.03,-88.5C136.47,-88.5 145.2,-88.5 153.86,-88.5"/>
<polygon fill="midnightblue" stroke="midnightblue" points="153.98,-92 163.98,-88.5 153.98,-85 153.98,-92"/>
</g>
<!-- Node3 -->
<g id="node3" class="node">
<title>Node3</title>
<g id="a_node3"><a xlink:href="namespacehelper_1_1logging.html#aadee8ee5d31250ae8288888fa86814a3" target="_top" xlink:title="Prints a log message to the log.">
<polygon fill="white" stroke="black" points="340,-79 340,-98 460,-98 460,-79 340,-79"/>
<text text-anchor="middle" x="400" y="-86" font-family="Helvetica,sans-Serif" font-size="10.00">helper::logging::printLog</text>
</a>
</g>
</g>
<!-- Node2&#45;&gt;Node3 -->
<g id="edge2" class="edge">
<title>Node2&#45;&gt;Node3</title>
<path fill="none" stroke="midnightblue" d="M304.08,-88.5C312.54,-88.5 321.19,-88.5 329.66,-88.5"/>
<polygon fill="midnightblue" stroke="midnightblue" points="329.87,-92 339.87,-88.5 329.87,-85 329.87,-92"/>
</g>
<!-- Node4 -->
<g id="node4" class="node">
<title>Node4</title>
<g id="a_node4"><a xlink:href="classhelper_1_1logging_1_1_global_logger.html#a080a88af50f5861331d887d02324e9c2" target="_top" xlink:title="Gets the logger (ostream).">
<polygon fill="white" stroke="black" points="496,-147.5 496,-177.5 639,-177.5 639,-147.5 496,-147.5"/>
<text text-anchor="start" x="504" y="-165.5" font-family="Helvetica,sans-Serif" font-size="10.00">helper::logging::GlobalLogger</text>
<text text-anchor="middle" x="567.5" y="-154.5" font-family="Helvetica,sans-Serif" font-size="10.00">::getLogger</text>
</a>
</g>
</g>
<!-- Node3&#45;&gt;Node4 -->
<g id="edge3" class="edge">
<title>Node3&#45;&gt;Node4</title>
<path fill="none" stroke="midnightblue" d="M417.43,-98.16C436.07,-108.88 467.58,-126.27 496,-138.5 500.37,-140.38 504.94,-142.22 509.57,-143.98"/>
<polygon fill="midnightblue" stroke="midnightblue" points="508.5,-147.32 519.09,-147.5 510.92,-140.75 508.5,-147.32"/>
</g>
<!-- Node5 -->
<g id="node5" class="node">
<title>Node5</title>
<g id="a_node5"><a xlink:href="classhelper_1_1logging_1_1_global_logger.html#a956281901fd88046239494c600e3c5e5" target="_top" xlink:title="Gets the null logger (ostream).">
<polygon fill="white" stroke="black" points="496,-98.5 496,-128.5 639,-128.5 639,-98.5 496,-98.5"/>
<text text-anchor="start" x="504" y="-116.5" font-family="Helvetica,sans-Serif" font-size="10.00">helper::logging::GlobalLogger</text>
<text text-anchor="middle" x="567.5" y="-105.5" font-family="Helvetica,sans-Serif" font-size="10.00">::getNullLogger</text>
</a>
</g>
</g>
<!-- Node3&#45;&gt;Node5 -->
<g id="edge4" class="edge">
<title>Node3&#45;&gt;Node5</title>
<path fill="none" stroke="midnightblue" d="M460.28,-97.45C468.55,-98.7 477.16,-100 485.73,-101.3"/>
<polygon fill="midnightblue" stroke="midnightblue" points="485.36,-104.78 495.77,-102.82 486.4,-97.86 485.36,-104.78"/>
</g>
<!-- Node6 -->
<g id="node6" class="node">
<title>Node6</title>
<g id="a_node6"><a xlink:href="namespacehelper_1_1logging.html#a69b892408158ee6bed51c5aafa694af7" target="_top" xlink:title="Converts the enum LogLevel into string.">
<polygon fill="white" stroke="black" points="507.5,-49.5 507.5,-79.5 627.5,-79.5 627.5,-49.5 507.5,-49.5"/>
<text text-anchor="start" x="515.5" y="-67.5" font-family="Helvetica,sans-Serif" font-size="10.00">helper::logging::logLevel</text>
<text text-anchor="middle" x="567.5" y="-56.5" font-family="Helvetica,sans-Serif" font-size="10.00">ToString</text>
</a>
</g>
</g>
<!-- Node3&#45;&gt;Node6 -->
<g id="edge5" class="edge">
<title>Node3&#45;&gt;Node6</title>
<path fill="none" stroke="midnightblue" d="M460.28,-79.9C472.24,-78.17 484.91,-76.33 497.17,-74.55"/>
<polygon fill="midnightblue" stroke="midnightblue" points="497.96,-77.98 507.35,-73.08 496.96,-71.05 497.96,-77.98"/>
</g>
<!-- Node7 -->
<g id="node7" class="node">
<title>Node7</title>
<g id="a_node7"><a xlink:href="namespacehelper_1_1logging.html#a33b1f83f96be6edb81fa28ddba33179d" target="_top" xlink:title="Gets the source file name out of the path.">
<polygon fill="white" stroke="black" points="500,-0.5 500,-30.5 635,-30.5 635,-0.5 500,-0.5"/>
<text text-anchor="start" x="508" y="-18.5" font-family="Helvetica,sans-Serif" font-size="10.00">helper::logging::stripSource</text>
<text text-anchor="middle" x="567.5" y="-7.5" font-family="Helvetica,sans-Serif" font-size="10.00">FileName</text>
</a>
</g>
</g>
<!-- Node3&#45;&gt;Node7 -->
<g id="edge6" class="edge">
<title>Node3&#45;&gt;Node7</title>
<path fill="none" stroke="midnightblue" d="M418.19,-78.98C436.99,-68.77 468.14,-52.42 496,-40.5 501.07,-38.33 506.41,-36.19 511.77,-34.13"/>
<polygon fill="midnightblue" stroke="midnightblue" points="513.28,-37.31 521.42,-30.52 510.82,-30.75 513.28,-37.31"/>
</g>
</g>
</svg>
