<?xml version="1.0" encoding="UTF-8" standalone="no"?>
<!DOCTYPE svg PUBLIC "-//W3C//DTD SVG 1.1//EN"
 "http://www.w3.org/Graphics/SVG/1.1/DTD/svg11.dtd">
<!-- Generated by graphviz version 2.47.3 (20210619.1520)
 -->
<!-- Title: btf::BtfFile::coreEvent Pages: 1 -->
<svg width="617pt" height="186pt"
 viewBox="0.00 0.00 617.00 186.00" xmlns="http://www.w3.org/2000/svg" xmlns:xlink="http://www.w3.org/1999/xlink">
<g id="graph0" class="graph" transform="scale(1 1) rotate(0) translate(4 182)">
<title>btf::BtfFile::coreEvent</title>
<polygon fill="white" stroke="transparent" points="-4,4 -4,-182 613,-182 613,4 -4,4"/>
<!-- Node1 -->
<g id="node1" class="node">
<title>Node1</title>
<g id="a_node1"><a xlink:title="Emits a core event. See overloaded function for more information.">
<polygon fill="#bfbfbf" stroke="black" points="0,-98 0,-117 110,-117 110,-98 0,-98"/>
<text text-anchor="middle" x="55" y="-105" font-family="Helvetica,sans-Serif" font-size="10.00">btf::BtfFile::coreEvent</text>
</a>
</g>
</g>
<!-- Node2 -->
<g id="node2" class="node">
<title>Node2</title>
<g id="a_node2"><a xlink:href="classbtf_1_1_core.html#af577029a98e9f5f82e8981cc0d80f62e" target="_top" xlink:title="Converts the enum Events into string.">
<polygon fill="white" stroke="black" points="151,-117 151,-136 269,-136 269,-117 151,-117"/>
<text text-anchor="middle" x="210" y="-124" font-family="Helvetica,sans-Serif" font-size="10.00">btf::Core::eventToString</text>
</a>
</g>
</g>
<!-- Node1&#45;&gt;Node2 -->
<g id="edge1" class="edge">
<title>Node1&#45;&gt;Node2</title>
<path fill="none" stroke="midnightblue" d="M110.37,-114.25C120.23,-115.48 130.62,-116.77 140.81,-118.03"/>
<polygon fill="midnightblue" stroke="midnightblue" points="140.56,-121.53 150.91,-119.29 141.42,-114.58 140.56,-121.53"/>
</g>
<!-- Node3 -->
<g id="node3" class="node">
<title>Node3</title>
<g id="a_node3"><a xlink:href="namespacehelper_1_1logging.html#a0e1881bbc937b702aa298c5f5141b79b" target="_top" xlink:title="Writes a trace message to the log.">
<polygon fill="white" stroke="black" points="146,-79 146,-98 274,-98 274,-79 146,-79"/>
<text text-anchor="middle" x="210" y="-86" font-family="Helvetica,sans-Serif" font-size="10.00">helper::logging::printTrace</text>
</a>
</g>
</g>
<!-- Node1&#45;&gt;Node3 -->
<g id="edge2" class="edge">
<title>Node1&#45;&gt;Node3</title>
<path fill="none" stroke="midnightblue" d="M110.37,-100.75C118.65,-99.72 127.3,-98.65 135.89,-97.58"/>
<polygon fill="midnightblue" stroke="midnightblue" points="136.43,-101.04 145.92,-96.33 135.57,-94.09 136.43,-101.04"/>
</g>
<!-- Node4 -->
<g id="node4" class="node">
<title>Node4</title>
<g id="a_node4"><a xlink:href="namespacehelper_1_1logging.html#aadee8ee5d31250ae8288888fa86814a3" target="_top" xlink:title="Prints a log message to the log.">
<polygon fill="white" stroke="black" points="310,-79 310,-98 430,-98 430,-79 310,-79"/>
<text text-anchor="middle" x="370" y="-86" font-family="Helvetica,sans-Serif" font-size="10.00">helper::logging::printLog</text>
</a>
</g>
</g>
<!-- Node3&#45;&gt;Node4 -->
<g id="edge3" class="edge">
<title>Node3&#45;&gt;Node4</title>
<path fill="none" stroke="midnightblue" d="M274.35,-88.5C282.72,-88.5 291.32,-88.5 299.78,-88.5"/>
<polygon fill="midnightblue" stroke="midnightblue" points="299.99,-92 309.99,-88.5 299.99,-85 299.99,-92"/>
</g>
<!-- Node5 -->
<g id="node5" class="node">
<title>Node5</title>
<g id="a_node5"><a xlink:href="classhelper_1_1logging_1_1_global_logger.html#a080a88af50f5861331d887d02324e9c2" target="_top" xlink:title="Gets the logger (ostream).">
<polygon fill="white" stroke="black" points="466,-147.5 466,-177.5 609,-177.5 609,-147.5 466,-147.5"/>
<text text-anchor="start" x="474" y="-165.5" font-family="Helvetica,sans-Serif" font-size="10.00">helper::logging::GlobalLogger</text>
<text text-anchor="middle" x="537.5" y="-154.5" font-family="Helvetica,sans-Serif" font-size="10.00">::getLogger</text>
</a>
</g>
</g>
<!-- Node4&#45;&gt;Node5 -->
<g id="edge4" class="edge">
<title>Node4&#45;&gt;Node5</title>
<path fill="none" stroke="midnightblue" d="M387.43,-98.16C406.07,-108.88 437.58,-126.27 466,-138.5 470.37,-140.38 474.94,-142.22 479.57,-143.98"/>
<polygon fill="midnightblue" stroke="midnightblue" points="478.5,-147.32 489.09,-147.5 480.92,-140.75 478.5,-147.32"/>
</g>
<!-- Node6 -->
<g id="node6" class="node">
<title>Node6</title>
<g id="a_node6"><a xlink:href="classhelper_1_1logging_1_1_global_logger.html#a956281901fd88046239494c600e3c5e5" target="_top" xlink:title="Gets the null logger (ostream).">
<polygon fill="white" stroke="black" points="466,-98.5 466,-128.5 609,-128.5 609,-98.5 466,-98.5"/>
<text text-anchor="start" x="474" y="-116.5" font-family="Helvetica,sans-Serif" font-size="10.00">helper::logging::GlobalLogger</text>
<text text-anchor="middle" x="537.5" y="-105.5" font-family="Helvetica,sans-Serif" font-size="10.00">::getNullLogger</text>
</a>
</g>
</g>
<!-- Node4&#45;&gt;Node6 -->
<g id="edge5" class="edge">
<title>Node4&#45;&gt;Node6</title>
<path fill="none" stroke="midnightblue" d="M430.28,-97.45C438.55,-98.7 447.16,-100 455.73,-101.3"/>
<polygon fill="midnightblue" stroke="midnightblue" points="455.36,-104.78 465.77,-102.82 456.4,-97.86 455.36,-104.78"/>
</g>
<!-- Node7 -->
<g id="node7" class="node">
<title>Node7</title>
<g id="a_node7"><a xlink:href="namespacehelper_1_1logging.html#a69b892408158ee6bed51c5aafa694af7" target="_top" xlink:title="Converts the enum LogLevel into string.">
<polygon fill="white" stroke="black" points="477.5,-49.5 477.5,-79.5 597.5,-79.5 597.5,-49.5 477.5,-49.5"/>
<text text-anchor="start" x="485.5" y="-67.5" font-family="Helvetica,sans-Serif" font-size="10.00">helper::logging::logLevel</text>
<text text-anchor="middle" x="537.5" y="-56.5" font-family="Helvetica,sans-Serif" font-size="10.00">ToString</text>
</a>
</g>
</g>
<!-- Node4&#45;&gt;Node7 -->
<g id="edge6" class="edge">
<title>Node4&#45;&gt;Node7</title>
<path fill="none" stroke="midnightblue" d="M430.28,-79.9C442.24,-78.17 454.91,-76.33 467.17,-74.55"/>
<polygon fill="midnightblue" stroke="midnightblue" points="467.96,-77.98 477.35,-73.08 466.96,-71.05 467.96,-77.98"/>
</g>
<!-- Node8 -->
<g id="node8" class="node">
<title>Node8</title>
<g id="a_node8"><a xlink:href="namespacehelper_1_1logging.html#a33b1f83f96be6edb81fa28ddba33179d" target="_top" xlink:title="Gets the source file name out of the path.">
<polygon fill="white" stroke="black" points="470,-0.5 470,-30.5 605,-30.5 605,-0.5 470,-0.5"/>
<text text-anchor="start" x="478" y="-18.5" font-family="Helvetica,sans-Serif" font-size="10.00">helper::logging::stripSource</text>
<text text-anchor="middle" x="537.5" y="-7.5" font-family="Helvetica,sans-Serif" font-size="10.00">FileName</text>
</a>
</g>
</g>
<!-- Node4&#45;&gt;Node8 -->
<g id="edge7" class="edge">
<title>Node4&#45;&gt;Node8</title>
<path fill="none" stroke="midnightblue" d="M388.19,-78.98C406.99,-68.77 438.14,-52.42 466,-40.5 471.07,-38.33 476.41,-36.19 481.77,-34.13"/>
<polygon fill="midnightblue" stroke="midnightblue" points="483.28,-37.31 491.42,-30.52 480.82,-30.75 483.28,-37.31"/>
</g>
</g>
</svg>
