<?xml version="1.0" encoding="UTF-8" standalone="no"?>
<!DOCTYPE svg PUBLIC "-//W3C//DTD SVG 1.1//EN"
 "http://www.w3.org/Graphics/SVG/1.1/DTD/svg11.dtd">
<!-- Generated by graphviz version 2.47.3 (20210619.1520)
 -->
<!-- Title: btf::BtfFile::semaphoreEvent Pages: 1 -->
<svg width="658pt" height="186pt"
 viewBox="0.00 0.00 658.00 186.00" xmlns="http://www.w3.org/2000/svg" xmlns:xlink="http://www.w3.org/1999/xlink">
<g id="graph0" class="graph" transform="scale(1 1) rotate(0) translate(4 182)">
<title>btf::BtfFile::semaphoreEvent</title>
<polygon fill="white" stroke="transparent" points="-4,4 -4,-182 654,-182 654,4 -4,4"/>
<!-- Node1 -->
<g id="node1" class="node">
<title>Node1</title>
<g id="a_node1"><a xlink:title="Emits a semaphore event (source is a process).">
<polygon fill="#bfbfbf" stroke="black" points="0,-79 0,-98 139,-98 139,-79 0,-79"/>
<text text-anchor="middle" x="69.5" y="-86" font-family="Helvetica,sans-Serif" font-size="10.00">btf::BtfFile::semaphoreEvent</text>
</a>
</g>
</g>
<!-- Node2 -->
<g id="node2" class="node">
<title>Node2</title>
<g id="a_node2"><a xlink:href="namespacehelper_1_1logging.html#a9181c24054b42b4c6b18afff28b762bb" target="_top" xlink:title="Writes a warning message to the log.">
<polygon fill="white" stroke="black" points="175,-79 175,-98 315,-98 315,-79 175,-79"/>
<text text-anchor="middle" x="245" y="-86" font-family="Helvetica,sans-Serif" font-size="10.00">helper::logging::printWarning</text>
</a>
</g>
</g>
<!-- Node1&#45;&gt;Node2 -->
<g id="edge1" class="edge">
<title>Node1&#45;&gt;Node2</title>
<path fill="none" stroke="midnightblue" d="M139.07,-88.5C147.51,-88.5 156.2,-88.5 164.78,-88.5"/>
<polygon fill="midnightblue" stroke="midnightblue" points="164.79,-92 174.79,-88.5 164.79,-85 164.79,-92"/>
</g>
<!-- Node3 -->
<g id="node3" class="node">
<title>Node3</title>
<g id="a_node3"><a xlink:href="namespacehelper_1_1logging.html#aadee8ee5d31250ae8288888fa86814a3" target="_top" xlink:title="Prints a log message to the log.">
<polygon fill="white" stroke="black" points="351,-79 351,-98 471,-98 471,-79 351,-79"/>
<text text-anchor="middle" x="411" y="-86" font-family="Helvetica,sans-Serif" font-size="10.00">helper::logging::printLog</text>
</a>
</g>
</g>
<!-- Node2&#45;&gt;Node3 -->
<g id="edge2" class="edge">
<title>Node2&#45;&gt;Node3</title>
<path fill="none" stroke="midnightblue" d="M315.08,-88.5C323.54,-88.5 332.19,-88.5 340.66,-88.5"/>
<polygon fill="midnightblue" stroke="midnightblue" points="340.87,-92 350.87,-88.5 340.87,-85 340.87,-92"/>
</g>
<!-- Node4 -->
<g id="node4" class="node">
<title>Node4</title>
<g id="a_node4"><a xlink:href="classhelper_1_1logging_1_1_global_logger.html#a080a88af50f5861331d887d02324e9c2" target="_top" xlink:title="Gets the logger (ostream).">
<polygon fill="white" stroke="black" points="507,-147.5 507,-177.5 650,-177.5 650,-147.5 507,-147.5"/>
<text text-anchor="start" x="515" y="-165.5" font-family="Helvetica,sans-Serif" font-size="10.00">helper::logging::GlobalLogger</text>
<text text-anchor="middle" x="578.5" y="-154.5" font-family="Helvetica,sans-Serif" font-size="10.00">::getLogger</text>
</a>
</g>
</g>
<!-- Node3&#45;&gt;Node4 -->
<g id="edge3" class="edge">
<title>Node3&#45;&gt;Node4</title>
<path fill="none" stroke="midnightblue" d="M428.43,-98.16C447.07,-108.88 478.58,-126.27 507,-138.5 511.37,-140.38 515.94,-142.22 520.57,-143.98"/>
<polygon fill="midnightblue" stroke="midnightblue" points="519.5,-147.32 530.09,-147.5 521.92,-140.75 519.5,-147.32"/>
</g>
<!-- Node5 -->
<g id="node5" class="node">
<title>Node5</title>
<g id="a_node5"><a xlink:href="classhelper_1_1logging_1_1_global_logger.html#a956281901fd88046239494c600e3c5e5" target="_top" xlink:title="Gets the null logger (ostream).">
<polygon fill="white" stroke="black" points="507,-98.5 507,-128.5 650,-128.5 650,-98.5 507,-98.5"/>
<text text-anchor="start" x="515" y="-116.5" font-family="Helvetica,sans-Serif" font-size="10.00">helper::logging::GlobalLogger</text>
<text text-anchor="middle" x="578.5" y="-105.5" font-family="Helvetica,sans-Serif" font-size="10.00">::getNullLogger</text>
</a>
</g>
</g>
<!-- Node3&#45;&gt;Node5 -->
<g id="edge4" class="edge">
<title>Node3&#45;&gt;Node5</title>
<path fill="none" stroke="midnightblue" d="M471.28,-97.45C479.55,-98.7 488.16,-100 496.73,-101.3"/>
<polygon fill="midnightblue" stroke="midnightblue" points="496.36,-104.78 506.77,-102.82 497.4,-97.86 496.36,-104.78"/>
</g>
<!-- Node6 -->
<g id="node6" class="node">
<title>Node6</title>
<g id="a_node6"><a xlink:href="namespacehelper_1_1logging.html#a69b892408158ee6bed51c5aafa694af7" target="_top" xlink:title="Converts the enum LogLevel into string.">
<polygon fill="white" stroke="black" points="518.5,-49.5 518.5,-79.5 638.5,-79.5 638.5,-49.5 518.5,-49.5"/>
<text text-anchor="start" x="526.5" y="-67.5" font-family="Helvetica,sans-Serif" font-size="10.00">helper::logging::logLevel</text>
<text text-anchor="middle" x="578.5" y="-56.5" font-family="Helvetica,sans-Serif" font-size="10.00">ToString</text>
</a>
</g>
</g>
<!-- Node3&#45;&gt;Node6 -->
<g id="edge5" class="edge">
<title>Node3&#45;&gt;Node6</title>
<path fill="none" stroke="midnightblue" d="M471.28,-79.9C483.24,-78.17 495.91,-76.33 508.17,-74.55"/>
<polygon fill="midnightblue" stroke="midnightblue" points="508.96,-77.98 518.35,-73.08 507.96,-71.05 508.96,-77.98"/>
</g>
<!-- Node7 -->
<g id="node7" class="node">
<title>Node7</title>
<g id="a_node7"><a xlink:href="namespacehelper_1_1logging.html#a33b1f83f96be6edb81fa28ddba33179d" target="_top" xlink:title="Gets the source file name out of the path.">
<polygon fill="white" stroke="black" points="511,-0.5 511,-30.5 646,-30.5 646,-0.5 511,-0.5"/>
<text text-anchor="start" x="519" y="-18.5" font-family="Helvetica,sans-Serif" font-size="10.00">helper::logging::stripSource</text>
<text text-anchor="middle" x="578.5" y="-7.5" font-family="Helvetica,sans-Serif" font-size="10.00">FileName</text>
</a>
</g>
</g>
<!-- Node3&#45;&gt;Node7 -->
<g id="edge6" class="edge">
<title>Node3&#45;&gt;Node7</title>
<path fill="none" stroke="midnightblue" d="M429.19,-78.98C447.99,-68.77 479.14,-52.42 507,-40.5 512.07,-38.33 517.41,-36.19 522.77,-34.13"/>
<polygon fill="midnightblue" stroke="midnightblue" points="524.28,-37.31 532.42,-30.52 521.82,-30.75 524.28,-37.31"/>
</g>
</g>
</svg>
