<?xml version="1.0" encoding="UTF-8" standalone="no"?>
<!DOCTYPE svg PUBLIC "-//W3C//DTD SVG 1.1//EN"
 "http://www.w3.org/Graphics/SVG/1.1/DTD/svg11.dtd">
<!-- Generated by graphviz version 2.47.3 (20210619.1520)
 -->
<!-- Title: btf::BtfFile::runnableTerminateCurrent Pages: 1 -->
<svg width="827pt" height="186pt"
 viewBox="0.00 0.00 827.00 186.00" xmlns="http://www.w3.org/2000/svg" xmlns:xlink="http://www.w3.org/1999/xlink">
<g id="graph0" class="graph" transform="scale(1 1) rotate(0) translate(4 182)">
<title>btf::BtfFile::runnableTerminateCurrent</title>
<polygon fill="white" stroke="transparent" points="-4,4 -4,-182 823,-182 823,4 -4,4"/>
<!-- Node1 -->
<g id="node1" class="node">
<title>Node1</title>
<g id="a_node1"><a xlink:title="Emits a runnable terminate event on the current running runnable (source is a task).">
<polygon fill="#bfbfbf" stroke="black" points="0,-92.5 0,-122.5 146,-122.5 146,-92.5 0,-92.5"/>
<text text-anchor="start" x="8" y="-110.5" font-family="Helvetica,sans-Serif" font-size="10.00">btf::BtfFile::runnableTerminate</text>
<text text-anchor="middle" x="73" y="-99.5" font-family="Helvetica,sans-Serif" font-size="10.00">Current</text>
</a>
</g>
</g>
<!-- Node2 -->
<g id="node2" class="node">
<title>Node2</title>
<g id="a_node2"><a xlink:href="classbtf_1_1_btf_file.html#a8289105b0268539a36dceb4fbc14ca99" target="_top" xlink:title="Emits a runnable event (source is a process). See overloaded function for more information.">
<polygon fill="white" stroke="black" points="182,-98 182,-117 310,-117 310,-98 182,-98"/>
<text text-anchor="middle" x="246" y="-105" font-family="Helvetica,sans-Serif" font-size="10.00">btf::BtfFile::runnableEvent</text>
</a>
</g>
</g>
<!-- Node1&#45;&gt;Node2 -->
<g id="edge1" class="edge">
<title>Node1&#45;&gt;Node2</title>
<path fill="none" stroke="midnightblue" d="M146.02,-107.5C154.46,-107.5 163.08,-107.5 171.53,-107.5"/>
<polygon fill="midnightblue" stroke="midnightblue" points="171.74,-111 181.74,-107.5 171.74,-104 171.74,-111"/>
</g>
<!-- Node3 -->
<g id="node3" class="node">
<title>Node3</title>
<g id="a_node3"><a xlink:href="classbtf_1_1_runnable.html#ae588697e7b86706ac5a094af09db0c74" target="_top" xlink:title="Converts the enum Events into string.">
<polygon fill="white" stroke="black" points="346,-117 346,-136 484,-136 484,-117 346,-117"/>
<text text-anchor="middle" x="415" y="-124" font-family="Helvetica,sans-Serif" font-size="10.00">btf::Runnable::eventToString</text>
</a>
</g>
</g>
<!-- Node2&#45;&gt;Node3 -->
<g id="edge2" class="edge">
<title>Node2&#45;&gt;Node3</title>
<path fill="none" stroke="midnightblue" d="M310.14,-114.68C318.5,-115.63 327.16,-116.62 335.74,-117.6"/>
<polygon fill="midnightblue" stroke="midnightblue" points="335.42,-121.08 345.75,-118.74 336.21,-114.13 335.42,-121.08"/>
</g>
<!-- Node4 -->
<g id="node4" class="node">
<title>Node4</title>
<g id="a_node4"><a xlink:href="namespacehelper_1_1logging.html#a0e1881bbc937b702aa298c5f5141b79b" target="_top" xlink:title="Writes a trace message to the log.">
<polygon fill="white" stroke="black" points="351,-79 351,-98 479,-98 479,-79 351,-79"/>
<text text-anchor="middle" x="415" y="-86" font-family="Helvetica,sans-Serif" font-size="10.00">helper::logging::printTrace</text>
</a>
</g>
</g>
<!-- Node2&#45;&gt;Node4 -->
<g id="edge3" class="edge">
<title>Node2&#45;&gt;Node4</title>
<path fill="none" stroke="midnightblue" d="M310.14,-100.32C320.11,-99.18 330.5,-98 340.68,-96.84"/>
<polygon fill="midnightblue" stroke="midnightblue" points="341.23,-100.3 350.78,-95.69 340.44,-93.35 341.23,-100.3"/>
</g>
<!-- Node5 -->
<g id="node5" class="node">
<title>Node5</title>
<g id="a_node5"><a xlink:href="namespacehelper_1_1logging.html#aadee8ee5d31250ae8288888fa86814a3" target="_top" xlink:title="Prints a log message to the log.">
<polygon fill="white" stroke="black" points="520,-79 520,-98 640,-98 640,-79 520,-79"/>
<text text-anchor="middle" x="580" y="-86" font-family="Helvetica,sans-Serif" font-size="10.00">helper::logging::printLog</text>
</a>
</g>
</g>
<!-- Node4&#45;&gt;Node5 -->
<g id="edge4" class="edge">
<title>Node4&#45;&gt;Node5</title>
<path fill="none" stroke="midnightblue" d="M479.02,-88.5C489.1,-88.5 499.57,-88.5 509.79,-88.5"/>
<polygon fill="midnightblue" stroke="midnightblue" points="509.89,-92 519.89,-88.5 509.89,-85 509.89,-92"/>
</g>
<!-- Node6 -->
<g id="node6" class="node">
<title>Node6</title>
<g id="a_node6"><a xlink:href="classhelper_1_1logging_1_1_global_logger.html#a080a88af50f5861331d887d02324e9c2" target="_top" xlink:title="Gets the logger (ostream).">
<polygon fill="white" stroke="black" points="676,-147.5 676,-177.5 819,-177.5 819,-147.5 676,-147.5"/>
<text text-anchor="start" x="684" y="-165.5" font-family="Helvetica,sans-Serif" font-size="10.00">helper::logging::GlobalLogger</text>
<text text-anchor="middle" x="747.5" y="-154.5" font-family="Helvetica,sans-Serif" font-size="10.00">::getLogger</text>
</a>
</g>
</g>
<!-- Node5&#45;&gt;Node6 -->
<g id="edge5" class="edge">
<title>Node5&#45;&gt;Node6</title>
<path fill="none" stroke="midnightblue" d="M597.43,-98.16C616.07,-108.88 647.58,-126.27 676,-138.5 680.37,-140.38 684.94,-142.22 689.57,-143.98"/>
<polygon fill="midnightblue" stroke="midnightblue" points="688.5,-147.32 699.09,-147.5 690.92,-140.75 688.5,-147.32"/>
</g>
<!-- Node7 -->
<g id="node7" class="node">
<title>Node7</title>
<g id="a_node7"><a xlink:href="classhelper_1_1logging_1_1_global_logger.html#a956281901fd88046239494c600e3c5e5" target="_top" xlink:title="Gets the null logger (ostream).">
<polygon fill="white" stroke="black" points="676,-98.5 676,-128.5 819,-128.5 819,-98.5 676,-98.5"/>
<text text-anchor="start" x="684" y="-116.5" font-family="Helvetica,sans-Serif" font-size="10.00">helper::logging::GlobalLogger</text>
<text text-anchor="middle" x="747.5" y="-105.5" font-family="Helvetica,sans-Serif" font-size="10.00">::getNullLogger</text>
</a>
</g>
</g>
<!-- Node5&#45;&gt;Node7 -->
<g id="edge6" class="edge">
<title>Node5&#45;&gt;Node7</title>
<path fill="none" stroke="midnightblue" d="M640.28,-97.45C648.55,-98.7 657.16,-100 665.73,-101.3"/>
<polygon fill="midnightblue" stroke="midnightblue" points="665.36,-104.78 675.77,-102.82 666.4,-97.86 665.36,-104.78"/>
</g>
<!-- Node8 -->
<g id="node8" class="node">
<title>Node8</title>
<g id="a_node8"><a xlink:href="namespacehelper_1_1logging.html#a69b892408158ee6bed51c5aafa694af7" target="_top" xlink:title="Converts the enum LogLevel into string.">
<polygon fill="white" stroke="black" points="687.5,-49.5 687.5,-79.5 807.5,-79.5 807.5,-49.5 687.5,-49.5"/>
<text text-anchor="start" x="695.5" y="-67.5" font-family="Helvetica,sans-Serif" font-size="10.00">helper::logging::logLevel</text>
<text text-anchor="middle" x="747.5" y="-56.5" font-family="Helvetica,sans-Serif" font-size="10.00">ToString</text>
</a>
</g>
</g>
<!-- Node5&#45;&gt;Node8 -->
<g id="edge7" class="edge">
<title>Node5&#45;&gt;Node8</title>
<path fill="none" stroke="midnightblue" d="M640.28,-79.9C652.24,-78.17 664.91,-76.33 677.17,-74.55"/>
<polygon fill="midnightblue" stroke="midnightblue" points="677.96,-77.98 687.35,-73.08 676.96,-71.05 677.96,-77.98"/>
</g>
<!-- Node9 -->
<g id="node9" class="node">
<title>Node9</title>
<g id="a_node9"><a xlink:href="namespacehelper_1_1logging.html#a33b1f83f96be6edb81fa28ddba33179d" target="_top" xlink:title="Gets the source file name out of the path.">
<polygon fill="white" stroke="black" points="680,-0.5 680,-30.5 815,-30.5 815,-0.5 680,-0.5"/>
<text text-anchor="start" x="688" y="-18.5" font-family="Helvetica,sans-Serif" font-size="10.00">helper::logging::stripSource</text>
<text text-anchor="middle" x="747.5" y="-7.5" font-family="Helvetica,sans-Serif" font-size="10.00">FileName</text>
</a>
</g>
</g>
<!-- Node5&#45;&gt;Node9 -->
<g id="edge8" class="edge">
<title>Node5&#45;&gt;Node9</title>
<path fill="none" stroke="midnightblue" d="M598.19,-78.98C616.99,-68.77 648.14,-52.42 676,-40.5 681.07,-38.33 686.41,-36.19 691.77,-34.13"/>
<polygon fill="midnightblue" stroke="midnightblue" points="693.28,-37.31 701.42,-30.52 690.82,-30.75 693.28,-37.31"/>
</g>
</g>
</svg>
