<?xml version="1.0" encoding="UTF-8" standalone="no"?>
<!DOCTYPE svg PUBLIC "-//W3C//DTD SVG 1.1//EN"
 "http://www.w3.org/Graphics/SVG/1.1/DTD/svg11.dtd">
<!-- Generated by graphviz version 2.47.3 (20210619.1520)
 -->
<!-- Title: btf::BtfEntry::note_ Pages: 1 -->
<svg width="396pt" height="47pt"
 viewBox="0.00 0.00 396.00 47.00" xmlns="http://www.w3.org/2000/svg" xmlns:xlink="http://www.w3.org/1999/xlink">
<g id="graph0" class="graph" transform="scale(1 1) rotate(0) translate(4 43)">
<title>btf::BtfEntry::note_</title>
<polygon fill="white" stroke="transparent" points="-4,4 -4,-43 392,-43 392,4 -4,4"/>
<!-- Node1 -->
<g id="node1" class="node">
<title>Node1</title>
<g id="a_node1"><a xlink:title="Comments added to the BtfEntry.">
<polygon fill="#bfbfbf" stroke="black" points="290,-19.5 290,-38.5 388,-38.5 388,-19.5 290,-19.5"/>
<text text-anchor="middle" x="339" y="-26.5" font-family="Helvetica,sans-Serif" font-size="10.00">btf::BtfEntry::note_</text>
</a>
</g>
</g>
<!-- Node2 -->
<g id="node2" class="node">
<title>Node2</title>
<g id="a_node2"><a xlink:href="libbtf__binding_8cpp.html#adfae743278a01284c171e56ddabf18bd" target="_top" xlink:title="Macro that creates a function that will be called when the module pybtf is imported within python....">
<polygon fill="white" stroke="black" points="0,-19.5 0,-38.5 110,-38.5 110,-19.5 0,-19.5"/>
<text text-anchor="middle" x="55" y="-26.5" font-family="Helvetica,sans-Serif" font-size="10.00">PYBIND11_MODULE</text>
</a>
</g>
</g>
<!-- Node1&#45;&gt;Node2 -->
<g id="edge1" class="edge">
<title>Node1&#45;&gt;Node2</title>
<path fill="none" stroke="midnightblue" d="M279.56,-29C229.76,-29 158.77,-29 110.22,-29"/>
<polygon fill="midnightblue" stroke="midnightblue" points="279.84,-32.5 289.84,-29 279.84,-25.5 279.84,-32.5"/>
</g>
<!-- Node3 -->
<g id="node3" class="node">
<title>Node3</title>
<g id="a_node3"><a xlink:href="classbtf_1_1_btf_entry.html#ac6671a1d4b5a7d46aa0402142a79d4b8" target="_top" xlink:title="Converts a BtfEntry into string.">
<polygon fill="white" stroke="black" points="146,-0.5 146,-19.5 254,-19.5 254,-0.5 146,-0.5"/>
<text text-anchor="middle" x="200" y="-7.5" font-family="Helvetica,sans-Serif" font-size="10.00">btf::BtfEntry::toString</text>
</a>
</g>
</g>
<!-- Node1&#45;&gt;Node3 -->
<g id="edge2" class="edge">
<title>Node1&#45;&gt;Node3</title>
<path fill="none" stroke="midnightblue" d="M279.64,-20.91C271.28,-19.75 262.72,-18.56 254.46,-17.41"/>
<polygon fill="midnightblue" stroke="midnightblue" points="279.31,-24.39 289.7,-22.3 280.27,-17.46 279.31,-24.39"/>
</g>
<!-- Node3&#45;&gt;Node2 -->
<g id="edge3" class="edge">
<title>Node3&#45;&gt;Node2</title>
<path fill="none" stroke="midnightblue" d="M135.84,-18.39C127.3,-19.53 118.61,-20.68 110.25,-21.79"/>
<polygon fill="midnightblue" stroke="midnightblue" points="136.3,-21.86 145.75,-17.07 135.38,-14.92 136.3,-21.86"/>
</g>
</g>
</svg>
