<?xml version="1.0" encoding="UTF-8" standalone="no"?>
<!DOCTYPE svg PUBLIC "-//W3C//DTD SVG 1.1//EN"
 "http://www.w3.org/Graphics/SVG/1.1/DTD/svg11.dtd">
<!-- Generated by graphviz version 2.47.3 (20210619.1520)
 -->
<!-- Title: btf::BtfFile::simulationEventThreadCreation Pages: 1 -->
<svg width="618pt" height="186pt"
 viewBox="0.00 0.00 618.00 186.00" xmlns="http://www.w3.org/2000/svg" xmlns:xlink="http://www.w3.org/1999/xlink">
<g id="graph0" class="graph" transform="scale(1 1) rotate(0) translate(4 182)">
<title>btf::BtfFile::simulationEventThreadCreation</title>
<polygon fill="white" stroke="transparent" points="-4,4 -4,-182 614,-182 614,4 -4,4"/>
<!-- Node1 -->
<g id="node1" class="node">
<title>Node1</title>
<g id="a_node1"><a xlink:title="Emits a thread creation event. See overloaded function for more information.">
<polygon fill="#bfbfbf" stroke="black" points="0,-73.5 0,-103.5 111,-103.5 111,-73.5 0,-73.5"/>
<text text-anchor="start" x="8" y="-91.5" font-family="Helvetica,sans-Serif" font-size="10.00">btf::BtfFile::simulation</text>
<text text-anchor="middle" x="55.5" y="-80.5" font-family="Helvetica,sans-Serif" font-size="10.00">EventThreadCreation</text>
</a>
</g>
</g>
<!-- Node2 -->
<g id="node2" class="node">
<title>Node2</title>
<g id="a_node2"><a xlink:href="namespacehelper_1_1logging.html#a0e1881bbc937b702aa298c5f5141b79b" target="_top" xlink:title="Writes a trace message to the log.">
<polygon fill="white" stroke="black" points="147,-79 147,-98 275,-98 275,-79 147,-79"/>
<text text-anchor="middle" x="211" y="-86" font-family="Helvetica,sans-Serif" font-size="10.00">helper::logging::printTrace</text>
</a>
</g>
</g>
<!-- Node1&#45;&gt;Node2 -->
<g id="edge1" class="edge">
<title>Node1&#45;&gt;Node2</title>
<path fill="none" stroke="midnightblue" d="M111.05,-88.5C119.41,-88.5 128.16,-88.5 136.84,-88.5"/>
<polygon fill="midnightblue" stroke="midnightblue" points="136.98,-92 146.98,-88.5 136.98,-85 136.98,-92"/>
</g>
<!-- Node3 -->
<g id="node3" class="node">
<title>Node3</title>
<g id="a_node3"><a xlink:href="namespacehelper_1_1logging.html#aadee8ee5d31250ae8288888fa86814a3" target="_top" xlink:title="Prints a log message to the log.">
<polygon fill="white" stroke="black" points="311,-79 311,-98 431,-98 431,-79 311,-79"/>
<text text-anchor="middle" x="371" y="-86" font-family="Helvetica,sans-Serif" font-size="10.00">helper::logging::printLog</text>
</a>
</g>
</g>
<!-- Node2&#45;&gt;Node3 -->
<g id="edge2" class="edge">
<title>Node2&#45;&gt;Node3</title>
<path fill="none" stroke="midnightblue" d="M275.35,-88.5C283.72,-88.5 292.32,-88.5 300.78,-88.5"/>
<polygon fill="midnightblue" stroke="midnightblue" points="300.99,-92 310.99,-88.5 300.99,-85 300.99,-92"/>
</g>
<!-- Node4 -->
<g id="node4" class="node">
<title>Node4</title>
<g id="a_node4"><a xlink:href="classhelper_1_1logging_1_1_global_logger.html#a080a88af50f5861331d887d02324e9c2" target="_top" xlink:title="Gets the logger (ostream).">
<polygon fill="white" stroke="black" points="467,-147.5 467,-177.5 610,-177.5 610,-147.5 467,-147.5"/>
<text text-anchor="start" x="475" y="-165.5" font-family="Helvetica,sans-Serif" font-size="10.00">helper::logging::GlobalLogger</text>
<text text-anchor="middle" x="538.5" y="-154.5" font-family="Helvetica,sans-Serif" font-size="10.00">::getLogger</text>
</a>
</g>
</g>
<!-- Node3&#45;&gt;Node4 -->
<g id="edge3" class="edge">
<title>Node3&#45;&gt;Node4</title>
<path fill="none" stroke="midnightblue" d="M388.43,-98.16C407.07,-108.88 438.58,-126.27 467,-138.5 471.37,-140.38 475.94,-142.22 480.57,-143.98"/>
<polygon fill="midnightblue" stroke="midnightblue" points="479.5,-147.32 490.09,-147.5 481.92,-140.75 479.5,-147.32"/>
</g>
<!-- Node5 -->
<g id="node5" class="node">
<title>Node5</title>
<g id="a_node5"><a xlink:href="classhelper_1_1logging_1_1_global_logger.html#a956281901fd88046239494c600e3c5e5" target="_top" xlink:title="Gets the null logger (ostream).">
<polygon fill="white" stroke="black" points="467,-98.5 467,-128.5 610,-128.5 610,-98.5 467,-98.5"/>
<text text-anchor="start" x="475" y="-116.5" font-family="Helvetica,sans-Serif" font-size="10.00">helper::logging::GlobalLogger</text>
<text text-anchor="middle" x="538.5" y="-105.5" font-family="Helvetica,sans-Serif" font-size="10.00">::getNullLogger</text>
</a>
</g>
</g>
<!-- Node3&#45;&gt;Node5 -->
<g id="edge4" class="edge">
<title>Node3&#45;&gt;Node5</title>
<path fill="none" stroke="midnightblue" d="M431.28,-97.45C439.55,-98.7 448.16,-100 456.73,-101.3"/>
<polygon fill="midnightblue" stroke="midnightblue" points="456.36,-104.78 466.77,-102.82 457.4,-97.86 456.36,-104.78"/>
</g>
<!-- Node6 -->
<g id="node6" class="node">
<title>Node6</title>
<g id="a_node6"><a xlink:href="namespacehelper_1_1logging.html#a69b892408158ee6bed51c5aafa694af7" target="_top" xlink:title="Converts the enum LogLevel into string.">
<polygon fill="white" stroke="black" points="478.5,-49.5 478.5,-79.5 598.5,-79.5 598.5,-49.5 478.5,-49.5"/>
<text text-anchor="start" x="486.5" y="-67.5" font-family="Helvetica,sans-Serif" font-size="10.00">helper::logging::logLevel</text>
<text text-anchor="middle" x="538.5" y="-56.5" font-family="Helvetica,sans-Serif" font-size="10.00">ToString</text>
</a>
</g>
</g>
<!-- Node3&#45;&gt;Node6 -->
<g id="edge5" class="edge">
<title>Node3&#45;&gt;Node6</title>
<path fill="none" stroke="midnightblue" d="M431.28,-79.9C443.24,-78.17 455.91,-76.33 468.17,-74.55"/>
<polygon fill="midnightblue" stroke="midnightblue" points="468.96,-77.98 478.35,-73.08 467.96,-71.05 468.96,-77.98"/>
</g>
<!-- Node7 -->
<g id="node7" class="node">
<title>Node7</title>
<g id="a_node7"><a xlink:href="namespacehelper_1_1logging.html#a33b1f83f96be6edb81fa28ddba33179d" target="_top" xlink:title="Gets the source file name out of the path.">
<polygon fill="white" stroke="black" points="471,-0.5 471,-30.5 606,-30.5 606,-0.5 471,-0.5"/>
<text text-anchor="start" x="479" y="-18.5" font-family="Helvetica,sans-Serif" font-size="10.00">helper::logging::stripSource</text>
<text text-anchor="middle" x="538.5" y="-7.5" font-family="Helvetica,sans-Serif" font-size="10.00">FileName</text>
</a>
</g>
</g>
<!-- Node3&#45;&gt;Node7 -->
<g id="edge6" class="edge">
<title>Node3&#45;&gt;Node7</title>
<path fill="none" stroke="midnightblue" d="M389.19,-78.98C407.99,-68.77 439.14,-52.42 467,-40.5 472.07,-38.33 477.41,-36.19 482.77,-34.13"/>
<polygon fill="midnightblue" stroke="midnightblue" points="484.28,-37.31 492.42,-30.52 481.82,-30.75 484.28,-37.31"/>
</g>
</g>
</svg>
