<?xml version="1.0" encoding="UTF-8" standalone="no"?>
<!DOCTYPE svg PUBLIC "-//W3C//DTD SVG 1.1//EN"
 "http://www.w3.org/Graphics/SVG/1.1/DTD/svg11.dtd">
<!-- Generated by graphviz version 2.47.3 (20210619.1520)
 -->
<!-- Title: btf::BtfFile::processEvent Pages: 1 -->
<svg width="858pt" height="240pt"
 viewBox="0.00 0.00 858.00 239.50" xmlns="http://www.w3.org/2000/svg" xmlns:xlink="http://www.w3.org/1999/xlink">
<g id="graph0" class="graph" transform="scale(1 1) rotate(0) translate(4 235.5)">
<title>btf::BtfFile::processEvent</title>
<polygon fill="white" stroke="transparent" points="-4,4 -4,-235.5 854,-235.5 854,4 -4,4"/>
<!-- Node1 -->
<g id="node1" class="node">
<title>Node1</title>
<g id="a_node1"><a xlink:title="Emits a task event (except migration).">
<polygon fill="#bfbfbf" stroke="black" points="0,-155 0,-174 125,-174 125,-155 0,-155"/>
<text text-anchor="middle" x="62.5" y="-162" font-family="Helvetica,sans-Serif" font-size="10.00">btf::BtfFile::processEvent</text>
</a>
</g>
</g>
<!-- Node2 -->
<g id="node2" class="node">
<title>Node2</title>
<g id="a_node2"><a xlink:href="classbtf_1_1_process.html#a11991ab813dd34ef8d763f86b7fd40ad" target="_top" xlink:title="Gets the source type of the event.">
<polygon fill="white" stroke="black" points="181,-212 181,-231 321,-231 321,-212 181,-212"/>
<text text-anchor="middle" x="251" y="-219" font-family="Helvetica,sans-Serif" font-size="10.00">btf::Process::getSourceType</text>
</a>
</g>
</g>
<!-- Node1&#45;&gt;Node2 -->
<g id="edge1" class="edge">
<title>Node1&#45;&gt;Node2</title>
<path fill="none" stroke="midnightblue" d="M85.22,-174.13C104.75,-182.51 134.37,-194.53 161,-202.5 169.78,-205.13 179.15,-207.54 188.4,-209.7"/>
<polygon fill="midnightblue" stroke="midnightblue" points="187.82,-213.16 198.34,-211.95 189.36,-206.33 187.82,-213.16"/>
</g>
<!-- Node3 -->
<g id="node3" class="node">
<title>Node3</title>
<g id="a_node3"><a xlink:href="classbtf_1_1_process.html#a4d6bfff0474ce9b59ff3f24ebf4f9707" target="_top" xlink:title="Checks, if the event will lead to an allocation on the core.">
<polygon fill="white" stroke="black" points="166,-174 166,-193 336,-193 336,-174 166,-174"/>
<text text-anchor="middle" x="251" y="-181" font-family="Helvetica,sans-Serif" font-size="10.00">btf::Process::isEventAllocatingCore</text>
</a>
</g>
</g>
<!-- Node1&#45;&gt;Node3 -->
<g id="edge2" class="edge">
<title>Node1&#45;&gt;Node3</title>
<path fill="none" stroke="midnightblue" d="M125.08,-170.77C134.97,-171.78 145.4,-172.84 155.85,-173.91"/>
<polygon fill="midnightblue" stroke="midnightblue" points="155.54,-177.4 165.85,-174.93 156.25,-170.43 155.54,-177.4"/>
</g>
<!-- Node4 -->
<g id="node4" class="node">
<title>Node4</title>
<g id="a_node4"><a xlink:href="classbtf_1_1_process.html#a17fe41d5a36b8cb66280bfc2d9aa37dd" target="_top" xlink:title="Checks, if the event will lead to an deallocation from the core.">
<polygon fill="white" stroke="black" points="161,-136 161,-155 341,-155 341,-136 161,-136"/>
<text text-anchor="middle" x="251" y="-143" font-family="Helvetica,sans-Serif" font-size="10.00">btf::Process::isEventDeallocatingCore</text>
</a>
</g>
</g>
<!-- Node1&#45;&gt;Node4 -->
<g id="edge3" class="edge">
<title>Node1&#45;&gt;Node4</title>
<path fill="none" stroke="midnightblue" d="M125.08,-158.23C133.32,-157.39 141.93,-156.51 150.61,-155.63"/>
<polygon fill="midnightblue" stroke="midnightblue" points="151.22,-159.08 160.82,-154.59 150.51,-152.12 151.22,-159.08"/>
</g>
<!-- Node5 -->
<g id="node5" class="node">
<title>Node5</title>
<g id="a_node5"><a xlink:href="classbtf_1_1_btf_file.html#a126fc4ed06668e78d7a462c5e0294c13" target="_top" xlink:title="Emits a runnable event (source is a task). See overloaded function for more information.">
<polygon fill="white" stroke="black" points="187,-98 187,-117 315,-117 315,-98 187,-98"/>
<text text-anchor="middle" x="251" y="-105" font-family="Helvetica,sans-Serif" font-size="10.00">btf::BtfFile::runnableEvent</text>
</a>
</g>
</g>
<!-- Node1&#45;&gt;Node5 -->
<g id="edge4" class="edge">
<title>Node1&#45;&gt;Node5</title>
<path fill="none" stroke="midnightblue" d="M85.22,-154.87C104.75,-146.49 134.37,-134.47 161,-126.5 169.78,-123.87 179.15,-121.46 188.4,-119.3"/>
<polygon fill="midnightblue" stroke="midnightblue" points="189.36,-122.67 198.34,-117.05 187.82,-115.84 189.36,-122.67"/>
</g>
<!-- Node6 -->
<g id="node6" class="node">
<title>Node6</title>
<g id="a_node6"><a xlink:href="classbtf_1_1_runnable.html#ae588697e7b86706ac5a094af09db0c74" target="_top" xlink:title="Converts the enum Events into string.">
<polygon fill="white" stroke="black" points="377,-117 377,-136 515,-136 515,-117 377,-117"/>
<text text-anchor="middle" x="446" y="-124" font-family="Helvetica,sans-Serif" font-size="10.00">btf::Runnable::eventToString</text>
</a>
</g>
</g>
<!-- Node5&#45;&gt;Node6 -->
<g id="edge5" class="edge">
<title>Node5&#45;&gt;Node6</title>
<path fill="none" stroke="midnightblue" d="M315.2,-113.72C331.65,-115.34 349.57,-117.11 366.7,-118.79"/>
<polygon fill="midnightblue" stroke="midnightblue" points="366.38,-122.28 376.67,-119.77 367.06,-115.31 366.38,-122.28"/>
</g>
<!-- Node7 -->
<g id="node7" class="node">
<title>Node7</title>
<g id="a_node7"><a xlink:href="namespacehelper_1_1logging.html#a0e1881bbc937b702aa298c5f5141b79b" target="_top" xlink:title="Writes a trace message to the log.">
<polygon fill="white" stroke="black" points="382,-79 382,-98 510,-98 510,-79 382,-79"/>
<text text-anchor="middle" x="446" y="-86" font-family="Helvetica,sans-Serif" font-size="10.00">helper::logging::printTrace</text>
</a>
</g>
</g>
<!-- Node5&#45;&gt;Node7 -->
<g id="edge6" class="edge">
<title>Node5&#45;&gt;Node7</title>
<path fill="none" stroke="midnightblue" d="M315.2,-101.28C333.28,-99.5 353.15,-97.54 371.79,-95.71"/>
<polygon fill="midnightblue" stroke="midnightblue" points="372.38,-99.17 381.99,-94.7 371.7,-92.2 372.38,-99.17"/>
</g>
<!-- Node8 -->
<g id="node8" class="node">
<title>Node8</title>
<g id="a_node8"><a xlink:href="namespacehelper_1_1logging.html#aadee8ee5d31250ae8288888fa86814a3" target="_top" xlink:title="Prints a log message to the log.">
<polygon fill="white" stroke="black" points="551,-79 551,-98 671,-98 671,-79 551,-79"/>
<text text-anchor="middle" x="611" y="-86" font-family="Helvetica,sans-Serif" font-size="10.00">helper::logging::printLog</text>
</a>
</g>
</g>
<!-- Node7&#45;&gt;Node8 -->
<g id="edge7" class="edge">
<title>Node7&#45;&gt;Node8</title>
<path fill="none" stroke="midnightblue" d="M510.02,-88.5C520.1,-88.5 530.57,-88.5 540.79,-88.5"/>
<polygon fill="midnightblue" stroke="midnightblue" points="540.89,-92 550.89,-88.5 540.89,-85 540.89,-92"/>
</g>
<!-- Node9 -->
<g id="node9" class="node">
<title>Node9</title>
<g id="a_node9"><a xlink:href="classhelper_1_1logging_1_1_global_logger.html#a080a88af50f5861331d887d02324e9c2" target="_top" xlink:title="Gets the logger (ostream).">
<polygon fill="white" stroke="black" points="707,-147.5 707,-177.5 850,-177.5 850,-147.5 707,-147.5"/>
<text text-anchor="start" x="715" y="-165.5" font-family="Helvetica,sans-Serif" font-size="10.00">helper::logging::GlobalLogger</text>
<text text-anchor="middle" x="778.5" y="-154.5" font-family="Helvetica,sans-Serif" font-size="10.00">::getLogger</text>
</a>
</g>
</g>
<!-- Node8&#45;&gt;Node9 -->
<g id="edge8" class="edge">
<title>Node8&#45;&gt;Node9</title>
<path fill="none" stroke="midnightblue" d="M628.43,-98.16C647.07,-108.88 678.58,-126.27 707,-138.5 711.37,-140.38 715.94,-142.22 720.57,-143.98"/>
<polygon fill="midnightblue" stroke="midnightblue" points="719.5,-147.32 730.09,-147.5 721.92,-140.75 719.5,-147.32"/>
</g>
<!-- Node10 -->
<g id="node10" class="node">
<title>Node10</title>
<g id="a_node10"><a xlink:href="classhelper_1_1logging_1_1_global_logger.html#a956281901fd88046239494c600e3c5e5" target="_top" xlink:title="Gets the null logger (ostream).">
<polygon fill="white" stroke="black" points="707,-98.5 707,-128.5 850,-128.5 850,-98.5 707,-98.5"/>
<text text-anchor="start" x="715" y="-116.5" font-family="Helvetica,sans-Serif" font-size="10.00">helper::logging::GlobalLogger</text>
<text text-anchor="middle" x="778.5" y="-105.5" font-family="Helvetica,sans-Serif" font-size="10.00">::getNullLogger</text>
</a>
</g>
</g>
<!-- Node8&#45;&gt;Node10 -->
<g id="edge9" class="edge">
<title>Node8&#45;&gt;Node10</title>
<path fill="none" stroke="midnightblue" d="M671.28,-97.45C679.55,-98.7 688.16,-100 696.73,-101.3"/>
<polygon fill="midnightblue" stroke="midnightblue" points="696.36,-104.78 706.77,-102.82 697.4,-97.86 696.36,-104.78"/>
</g>
<!-- Node11 -->
<g id="node11" class="node">
<title>Node11</title>
<g id="a_node11"><a xlink:href="namespacehelper_1_1logging.html#a69b892408158ee6bed51c5aafa694af7" target="_top" xlink:title="Converts the enum LogLevel into string.">
<polygon fill="white" stroke="black" points="718.5,-49.5 718.5,-79.5 838.5,-79.5 838.5,-49.5 718.5,-49.5"/>
<text text-anchor="start" x="726.5" y="-67.5" font-family="Helvetica,sans-Serif" font-size="10.00">helper::logging::logLevel</text>
<text text-anchor="middle" x="778.5" y="-56.5" font-family="Helvetica,sans-Serif" font-size="10.00">ToString</text>
</a>
</g>
</g>
<!-- Node8&#45;&gt;Node11 -->
<g id="edge10" class="edge">
<title>Node8&#45;&gt;Node11</title>
<path fill="none" stroke="midnightblue" d="M671.28,-79.9C683.24,-78.17 695.91,-76.33 708.17,-74.55"/>
<polygon fill="midnightblue" stroke="midnightblue" points="708.96,-77.98 718.35,-73.08 707.96,-71.05 708.96,-77.98"/>
</g>
<!-- Node12 -->
<g id="node12" class="node">
<title>Node12</title>
<g id="a_node12"><a xlink:href="namespacehelper_1_1logging.html#a33b1f83f96be6edb81fa28ddba33179d" target="_top" xlink:title="Gets the source file name out of the path.">
<polygon fill="white" stroke="black" points="711,-0.5 711,-30.5 846,-30.5 846,-0.5 711,-0.5"/>
<text text-anchor="start" x="719" y="-18.5" font-family="Helvetica,sans-Serif" font-size="10.00">helper::logging::stripSource</text>
<text text-anchor="middle" x="778.5" y="-7.5" font-family="Helvetica,sans-Serif" font-size="10.00">FileName</text>
</a>
</g>
</g>
<!-- Node8&#45;&gt;Node12 -->
<g id="edge11" class="edge">
<title>Node8&#45;&gt;Node12</title>
<path fill="none" stroke="midnightblue" d="M629.19,-78.98C647.99,-68.77 679.14,-52.42 707,-40.5 712.07,-38.33 717.41,-36.19 722.77,-34.13"/>
<polygon fill="midnightblue" stroke="midnightblue" points="724.28,-37.31 732.42,-30.52 721.82,-30.75 724.28,-37.31"/>
</g>
</g>
</svg>
