<?xml version="1.0" encoding="UTF-8" standalone="no"?>
<!DOCTYPE svg PUBLIC "-//W3C//DTD SVG 1.1//EN"
 "http://www.w3.org/Graphics/SVG/1.1/DTD/svg11.dtd">
<!-- Generated by graphviz version 2.47.3 (20210619.1520)
 -->
<!-- Title: btf::BtfFile::runnableEvent Pages: 1 -->
<svg width="809pt" height="186pt"
 viewBox="0.00 0.00 809.00 186.00" xmlns="http://www.w3.org/2000/svg" xmlns:xlink="http://www.w3.org/1999/xlink">
<g id="graph0" class="graph" transform="scale(1 1) rotate(0) translate(4 182)">
<title>btf::BtfFile::runnableEvent</title>
<polygon fill="white" stroke="transparent" points="-4,4 -4,-182 805,-182 805,4 -4,4"/>
<!-- Node1 -->
<g id="node1" class="node">
<title>Node1</title>
<g id="a_node1"><a xlink:title="Emits a runnable event (source is a core or process depending on the value of the core_is_source para...">
<polygon fill="#bfbfbf" stroke="black" points="0,-98 0,-117 128,-117 128,-98 0,-98"/>
<text text-anchor="middle" x="64" y="-105" font-family="Helvetica,sans-Serif" font-size="10.00">btf::BtfFile::runnableEvent</text>
</a>
</g>
</g>
<!-- Node2 -->
<g id="node2" class="node">
<title>Node2</title>
<g id="a_node2"><a xlink:href="classbtf_1_1_btf_file.html#a3a7b48f23d0c26343e8b4a2a452319b6" target="_top" xlink:title="Emits a runnable event (source is a core or process depending on the value of the core_is_source para...">
<polygon fill="white" stroke="black" points="164,-98 164,-117 292,-117 292,-98 164,-98"/>
<text text-anchor="middle" x="228" y="-105" font-family="Helvetica,sans-Serif" font-size="10.00">btf::BtfFile::runnableEvent</text>
</a>
</g>
</g>
<!-- Node1&#45;&gt;Node2 -->
<g id="edge1" class="edge">
<title>Node1&#45;&gt;Node2</title>
<path fill="none" stroke="midnightblue" d="M128.1,-107.5C136.43,-107.5 145.04,-107.5 153.53,-107.5"/>
<polygon fill="midnightblue" stroke="midnightblue" points="153.81,-111 163.81,-107.5 153.81,-104 153.81,-111"/>
</g>
<!-- Node3 -->
<g id="node3" class="node">
<title>Node3</title>
<g id="a_node3"><a xlink:href="classbtf_1_1_runnable.html#ae588697e7b86706ac5a094af09db0c74" target="_top" xlink:title="Converts the enum Events into string.">
<polygon fill="white" stroke="black" points="328,-117 328,-136 466,-136 466,-117 328,-117"/>
<text text-anchor="middle" x="397" y="-124" font-family="Helvetica,sans-Serif" font-size="10.00">btf::Runnable::eventToString</text>
</a>
</g>
</g>
<!-- Node2&#45;&gt;Node3 -->
<g id="edge2" class="edge">
<title>Node2&#45;&gt;Node3</title>
<path fill="none" stroke="midnightblue" d="M292.14,-114.68C300.5,-115.63 309.16,-116.62 317.74,-117.6"/>
<polygon fill="midnightblue" stroke="midnightblue" points="317.42,-121.08 327.75,-118.74 318.21,-114.13 317.42,-121.08"/>
</g>
<!-- Node4 -->
<g id="node4" class="node">
<title>Node4</title>
<g id="a_node4"><a xlink:href="namespacehelper_1_1logging.html#a0e1881bbc937b702aa298c5f5141b79b" target="_top" xlink:title="Writes a trace message to the log.">
<polygon fill="white" stroke="black" points="333,-79 333,-98 461,-98 461,-79 333,-79"/>
<text text-anchor="middle" x="397" y="-86" font-family="Helvetica,sans-Serif" font-size="10.00">helper::logging::printTrace</text>
</a>
</g>
</g>
<!-- Node2&#45;&gt;Node4 -->
<g id="edge3" class="edge">
<title>Node2&#45;&gt;Node4</title>
<path fill="none" stroke="midnightblue" d="M292.14,-100.32C302.11,-99.18 312.5,-98 322.68,-96.84"/>
<polygon fill="midnightblue" stroke="midnightblue" points="323.23,-100.3 332.78,-95.69 322.44,-93.35 323.23,-100.3"/>
</g>
<!-- Node5 -->
<g id="node5" class="node">
<title>Node5</title>
<g id="a_node5"><a xlink:href="namespacehelper_1_1logging.html#aadee8ee5d31250ae8288888fa86814a3" target="_top" xlink:title="Prints a log message to the log.">
<polygon fill="white" stroke="black" points="502,-79 502,-98 622,-98 622,-79 502,-79"/>
<text text-anchor="middle" x="562" y="-86" font-family="Helvetica,sans-Serif" font-size="10.00">helper::logging::printLog</text>
</a>
</g>
</g>
<!-- Node4&#45;&gt;Node5 -->
<g id="edge4" class="edge">
<title>Node4&#45;&gt;Node5</title>
<path fill="none" stroke="midnightblue" d="M461.02,-88.5C471.1,-88.5 481.57,-88.5 491.79,-88.5"/>
<polygon fill="midnightblue" stroke="midnightblue" points="491.89,-92 501.89,-88.5 491.89,-85 491.89,-92"/>
</g>
<!-- Node6 -->
<g id="node6" class="node">
<title>Node6</title>
<g id="a_node6"><a xlink:href="classhelper_1_1logging_1_1_global_logger.html#a080a88af50f5861331d887d02324e9c2" target="_top" xlink:title="Gets the logger (ostream).">
<polygon fill="white" stroke="black" points="658,-147.5 658,-177.5 801,-177.5 801,-147.5 658,-147.5"/>
<text text-anchor="start" x="666" y="-165.5" font-family="Helvetica,sans-Serif" font-size="10.00">helper::logging::GlobalLogger</text>
<text text-anchor="middle" x="729.5" y="-154.5" font-family="Helvetica,sans-Serif" font-size="10.00">::getLogger</text>
</a>
</g>
</g>
<!-- Node5&#45;&gt;Node6 -->
<g id="edge5" class="edge">
<title>Node5&#45;&gt;Node6</title>
<path fill="none" stroke="midnightblue" d="M579.43,-98.16C598.07,-108.88 629.58,-126.27 658,-138.5 662.37,-140.38 666.94,-142.22 671.57,-143.98"/>
<polygon fill="midnightblue" stroke="midnightblue" points="670.5,-147.32 681.09,-147.5 672.92,-140.75 670.5,-147.32"/>
</g>
<!-- Node7 -->
<g id="node7" class="node">
<title>Node7</title>
<g id="a_node7"><a xlink:href="classhelper_1_1logging_1_1_global_logger.html#a956281901fd88046239494c600e3c5e5" target="_top" xlink:title="Gets the null logger (ostream).">
<polygon fill="white" stroke="black" points="658,-98.5 658,-128.5 801,-128.5 801,-98.5 658,-98.5"/>
<text text-anchor="start" x="666" y="-116.5" font-family="Helvetica,sans-Serif" font-size="10.00">helper::logging::GlobalLogger</text>
<text text-anchor="middle" x="729.5" y="-105.5" font-family="Helvetica,sans-Serif" font-size="10.00">::getNullLogger</text>
</a>
</g>
</g>
<!-- Node5&#45;&gt;Node7 -->
<g id="edge6" class="edge">
<title>Node5&#45;&gt;Node7</title>
<path fill="none" stroke="midnightblue" d="M622.28,-97.45C630.55,-98.7 639.16,-100 647.73,-101.3"/>
<polygon fill="midnightblue" stroke="midnightblue" points="647.36,-104.78 657.77,-102.82 648.4,-97.86 647.36,-104.78"/>
</g>
<!-- Node8 -->
<g id="node8" class="node">
<title>Node8</title>
<g id="a_node8"><a xlink:href="namespacehelper_1_1logging.html#a69b892408158ee6bed51c5aafa694af7" target="_top" xlink:title="Converts the enum LogLevel into string.">
<polygon fill="white" stroke="black" points="669.5,-49.5 669.5,-79.5 789.5,-79.5 789.5,-49.5 669.5,-49.5"/>
<text text-anchor="start" x="677.5" y="-67.5" font-family="Helvetica,sans-Serif" font-size="10.00">helper::logging::logLevel</text>
<text text-anchor="middle" x="729.5" y="-56.5" font-family="Helvetica,sans-Serif" font-size="10.00">ToString</text>
</a>
</g>
</g>
<!-- Node5&#45;&gt;Node8 -->
<g id="edge7" class="edge">
<title>Node5&#45;&gt;Node8</title>
<path fill="none" stroke="midnightblue" d="M622.28,-79.9C634.24,-78.17 646.91,-76.33 659.17,-74.55"/>
<polygon fill="midnightblue" stroke="midnightblue" points="659.96,-77.98 669.35,-73.08 658.96,-71.05 659.96,-77.98"/>
</g>
<!-- Node9 -->
<g id="node9" class="node">
<title>Node9</title>
<g id="a_node9"><a xlink:href="namespacehelper_1_1logging.html#a33b1f83f96be6edb81fa28ddba33179d" target="_top" xlink:title="Gets the source file name out of the path.">
<polygon fill="white" stroke="black" points="662,-0.5 662,-30.5 797,-30.5 797,-0.5 662,-0.5"/>
<text text-anchor="start" x="670" y="-18.5" font-family="Helvetica,sans-Serif" font-size="10.00">helper::logging::stripSource</text>
<text text-anchor="middle" x="729.5" y="-7.5" font-family="Helvetica,sans-Serif" font-size="10.00">FileName</text>
</a>
</g>
</g>
<!-- Node5&#45;&gt;Node9 -->
<g id="edge8" class="edge">
<title>Node5&#45;&gt;Node9</title>
<path fill="none" stroke="midnightblue" d="M580.19,-78.98C598.99,-68.77 630.14,-52.42 658,-40.5 663.07,-38.33 668.41,-36.19 673.77,-34.13"/>
<polygon fill="midnightblue" stroke="midnightblue" points="675.28,-37.31 683.42,-30.52 672.82,-30.75 675.28,-37.31"/>
</g>
</g>
</svg>
