<?xml version="1.0" encoding="UTF-8" standalone="no"?>
<!DOCTYPE svg PUBLIC "-//W3C//DTD SVG 1.1//EN"
 "http://www.w3.org/Graphics/SVG/1.1/DTD/svg11.dtd">
<!-- Generated by graphviz version 2.47.3 (20210619.1520)
 -->
<!-- Title: btf::Scheduler::eventToString Pages: 1 -->
<svg width="632pt" height="104pt"
 viewBox="0.00 0.00 632.00 104.00" xmlns="http://www.w3.org/2000/svg" xmlns:xlink="http://www.w3.org/1999/xlink">
<g id="graph0" class="graph" transform="scale(1 1) rotate(0) translate(4 100)">
<title>btf::Scheduler::eventToString</title>
<polygon fill="white" stroke="transparent" points="-4,4 -4,-100 628,-100 628,4 -4,4"/>
<!-- Node1 -->
<g id="node1" class="node">
<title>Node1</title>
<g id="a_node1"><a xlink:title="Converts the enum Events into string.">
<polygon fill="#bfbfbf" stroke="black" points="483,-57.5 483,-76.5 624,-76.5 624,-57.5 483,-57.5"/>
<text text-anchor="middle" x="553.5" y="-64.5" font-family="Helvetica,sans-Serif" font-size="10.00">btf::Scheduler::eventToString</text>
</a>
</g>
</g>
<!-- Node2 -->
<g id="node2" class="node">
<title>Node2</title>
<g id="a_node2"><a xlink:href="classbtf_1_1_btf_entry.html#a056141170fa8f9dd0001691a1bb336b8" target="_top" xlink:title="Converts union Events into string according to the type_ of the BtfEntry.">
<polygon fill="white" stroke="black" points="314,-76.5 314,-95.5 447,-95.5 447,-76.5 314,-76.5"/>
<text text-anchor="middle" x="380.5" y="-83.5" font-family="Helvetica,sans-Serif" font-size="10.00">btf::BtfEntry::eventToString</text>
</a>
</g>
</g>
<!-- Node1&#45;&gt;Node2 -->
<g id="edge1" class="edge">
<title>Node1&#45;&gt;Node2</title>
<path fill="none" stroke="midnightblue" d="M472.88,-75.85C464.26,-76.8 455.55,-77.77 447.12,-78.71"/>
<polygon fill="midnightblue" stroke="midnightblue" points="473.4,-79.31 482.95,-74.73 472.62,-72.35 473.4,-79.31"/>
</g>
<!-- Node5 -->
<g id="node5" class="node">
<title>Node5</title>
<g id="a_node5"><a xlink:href="classbtf_1_1_btf_file.html#ae1ebfe73fc7c7d04defcb27446a2c4b6" target="_top" xlink:title="Emits a scheduler event. See overloaded function for more information.">
<polygon fill="white" stroke="black" points="314,-38.5 314,-57.5 447,-57.5 447,-38.5 314,-38.5"/>
<text text-anchor="middle" x="380.5" y="-45.5" font-family="Helvetica,sans-Serif" font-size="10.00">btf::BtfFile::schedulerEvent</text>
</a>
</g>
</g>
<!-- Node1&#45;&gt;Node5 -->
<g id="edge4" class="edge">
<title>Node1&#45;&gt;Node5</title>
<path fill="none" stroke="midnightblue" d="M472.88,-58.15C464.26,-57.2 455.55,-56.23 447.12,-55.29"/>
<polygon fill="midnightblue" stroke="midnightblue" points="472.62,-61.65 482.95,-59.27 473.4,-54.69 472.62,-61.65"/>
</g>
<!-- Node3 -->
<g id="node3" class="node">
<title>Node3</title>
<g id="a_node3"><a xlink:href="classbtf_1_1_btf_entry.html#ac6671a1d4b5a7d46aa0402142a79d4b8" target="_top" xlink:title="Converts a BtfEntry into string.">
<polygon fill="white" stroke="black" points="158,-76.5 158,-95.5 266,-95.5 266,-76.5 158,-76.5"/>
<text text-anchor="middle" x="212" y="-83.5" font-family="Helvetica,sans-Serif" font-size="10.00">btf::BtfEntry::toString</text>
</a>
</g>
</g>
<!-- Node2&#45;&gt;Node3 -->
<g id="edge2" class="edge">
<title>Node2&#45;&gt;Node3</title>
<path fill="none" stroke="midnightblue" d="M303.59,-86C290.9,-86 277.99,-86 266.03,-86"/>
<polygon fill="midnightblue" stroke="midnightblue" points="303.69,-89.5 313.69,-86 303.69,-82.5 303.69,-89.5"/>
</g>
<!-- Node4 -->
<g id="node4" class="node">
<title>Node4</title>
<g id="a_node4"><a xlink:href="libbtf__binding_8cpp.html#adfae743278a01284c171e56ddabf18bd" target="_top" xlink:title="Macro that creates a function that will be called when the module pybtf is imported within python....">
<polygon fill="white" stroke="black" points="0,-38.5 0,-57.5 110,-57.5 110,-38.5 0,-38.5"/>
<text text-anchor="middle" x="55" y="-45.5" font-family="Helvetica,sans-Serif" font-size="10.00">PYBIND11_MODULE</text>
</a>
</g>
</g>
<!-- Node3&#45;&gt;Node4 -->
<g id="edge3" class="edge">
<title>Node3&#45;&gt;Node4</title>
<path fill="none" stroke="midnightblue" d="M161.89,-73.96C140.24,-68.65 115.15,-62.5 94.83,-57.52"/>
<polygon fill="midnightblue" stroke="midnightblue" points="161.34,-77.43 171.89,-76.41 163.01,-70.63 161.34,-77.43"/>
</g>
<!-- Node5&#45;&gt;Node4 -->
<g id="edge7" class="edge">
<title>Node5&#45;&gt;Node4</title>
<path fill="none" stroke="midnightblue" d="M303.57,-48C244.23,-48 163.18,-48 110.23,-48"/>
<polygon fill="midnightblue" stroke="midnightblue" points="303.65,-51.5 313.65,-48 303.64,-44.5 303.65,-51.5"/>
</g>
<!-- Node6 -->
<g id="node6" class="node">
<title>Node6</title>
<g id="a_node6"><a xlink:href="classbtf_1_1_btf_file.html#ae1e0e725a1569e510b767acc6ce2d648" target="_top" xlink:title="Appends the data from a BTF file. Currently only import into an empty BTF file is supported.">
<polygon fill="white" stroke="black" points="146,-0.5 146,-19.5 278,-19.5 278,-0.5 146,-0.5"/>
<text text-anchor="middle" x="212" y="-7.5" font-family="Helvetica,sans-Serif" font-size="10.00">btf::BtfFile::importFromFile</text>
</a>
</g>
</g>
<!-- Node5&#45;&gt;Node6 -->
<g id="edge5" class="edge">
<title>Node5&#45;&gt;Node6</title>
<path fill="none" stroke="midnightblue" d="M327.69,-36.18C304.22,-30.82 276.83,-24.57 254.71,-19.52"/>
<polygon fill="midnightblue" stroke="midnightblue" points="326.96,-39.6 337.49,-38.41 328.51,-32.77 326.96,-39.6"/>
</g>
<!-- Node6&#45;&gt;Node4 -->
<g id="edge6" class="edge">
<title>Node6&#45;&gt;Node4</title>
<path fill="none" stroke="midnightblue" d="M161.89,-22.04C140.24,-27.35 115.15,-33.5 94.83,-38.48"/>
<polygon fill="midnightblue" stroke="midnightblue" points="163.01,-25.37 171.89,-19.59 161.34,-18.57 163.01,-25.37"/>
</g>
</g>
</svg>
