<?xml version="1.0" encoding="UTF-8" standalone="no"?>
<!DOCTYPE svg PUBLIC "-//W3C//DTD SVG 1.1//EN"
 "http://www.w3.org/Graphics/SVG/1.1/DTD/svg11.dtd">
<!-- Generated by graphviz version 2.47.3 (20210619.1520)
 -->
<!-- Title: btf::BtfFile::taskEvent Pages: 1 -->
<svg width="629pt" height="186pt"
 viewBox="0.00 0.00 629.00 186.00" xmlns="http://www.w3.org/2000/svg" xmlns:xlink="http://www.w3.org/1999/xlink">
<g id="graph0" class="graph" transform="scale(1 1) rotate(0) translate(4 182)">
<title>btf::BtfFile::taskEvent</title>
<polygon fill="white" stroke="transparent" points="-4,4 -4,-182 625,-182 625,4 -4,4"/>
<!-- Node1 -->
<g id="node1" class="node">
<title>Node1</title>
<g id="a_node1"><a xlink:title="Emits a task event (except migration). See overloaded function for more information.">
<polygon fill="#bfbfbf" stroke="black" points="0,-117 0,-136 110,-136 110,-117 0,-117"/>
<text text-anchor="middle" x="55" y="-124" font-family="Helvetica,sans-Serif" font-size="10.00">btf::BtfFile::taskEvent</text>
</a>
</g>
</g>
<!-- Node2 -->
<g id="node2" class="node">
<title>Node2</title>
<g id="a_node2"><a xlink:href="classbtf_1_1_process.html#ac2b6cd5b0524fba0a5c248ba4b223001" target="_top" xlink:title="Converts the enum Events into string.">
<polygon fill="white" stroke="black" points="149,-155 149,-174 283,-174 283,-155 149,-155"/>
<text text-anchor="middle" x="216" y="-162" font-family="Helvetica,sans-Serif" font-size="10.00">btf::Process::eventToString</text>
</a>
</g>
</g>
<!-- Node1&#45;&gt;Node2 -->
<g id="edge1" class="edge">
<title>Node1&#45;&gt;Node2</title>
<path fill="none" stroke="midnightblue" d="M96.12,-136.09C117.1,-141.1 142.98,-147.29 165.23,-152.61"/>
<polygon fill="midnightblue" stroke="midnightblue" points="164.63,-156.06 175.17,-154.98 166.25,-149.25 164.63,-156.06"/>
</g>
<!-- Node3 -->
<g id="node3" class="node">
<title>Node3</title>
<g id="a_node3"><a xlink:href="classbtf_1_1_process.html#a11991ab813dd34ef8d763f86b7fd40ad" target="_top" xlink:title="Gets the source type of the event.">
<polygon fill="white" stroke="black" points="146,-117 146,-136 286,-136 286,-117 146,-117"/>
<text text-anchor="middle" x="216" y="-124" font-family="Helvetica,sans-Serif" font-size="10.00">btf::Process::getSourceType</text>
</a>
</g>
</g>
<!-- Node1&#45;&gt;Node3 -->
<g id="edge2" class="edge">
<title>Node1&#45;&gt;Node3</title>
<path fill="none" stroke="midnightblue" d="M110.27,-126.5C118.49,-126.5 127.1,-126.5 135.71,-126.5"/>
<polygon fill="midnightblue" stroke="midnightblue" points="135.79,-130 145.79,-126.5 135.79,-123 135.79,-130"/>
</g>
<!-- Node4 -->
<g id="node4" class="node">
<title>Node4</title>
<g id="a_node4"><a xlink:href="namespacehelper_1_1logging.html#a0e1881bbc937b702aa298c5f5141b79b" target="_top" xlink:title="Writes a trace message to the log.">
<polygon fill="white" stroke="black" points="152,-79 152,-98 280,-98 280,-79 152,-79"/>
<text text-anchor="middle" x="216" y="-86" font-family="Helvetica,sans-Serif" font-size="10.00">helper::logging::printTrace</text>
</a>
</g>
</g>
<!-- Node1&#45;&gt;Node4 -->
<g id="edge3" class="edge">
<title>Node1&#45;&gt;Node4</title>
<path fill="none" stroke="midnightblue" d="M96.12,-116.91C117.1,-111.9 142.98,-105.71 165.23,-100.39"/>
<polygon fill="midnightblue" stroke="midnightblue" points="166.25,-103.75 175.17,-98.02 164.63,-96.94 166.25,-103.75"/>
</g>
<!-- Node5 -->
<g id="node5" class="node">
<title>Node5</title>
<g id="a_node5"><a xlink:href="namespacehelper_1_1logging.html#aadee8ee5d31250ae8288888fa86814a3" target="_top" xlink:title="Prints a log message to the log.">
<polygon fill="white" stroke="black" points="322,-79 322,-98 442,-98 442,-79 322,-79"/>
<text text-anchor="middle" x="382" y="-86" font-family="Helvetica,sans-Serif" font-size="10.00">helper::logging::printLog</text>
</a>
</g>
</g>
<!-- Node4&#45;&gt;Node5 -->
<g id="edge4" class="edge">
<title>Node4&#45;&gt;Node5</title>
<path fill="none" stroke="midnightblue" d="M280.41,-88.5C290.61,-88.5 301.23,-88.5 311.57,-88.5"/>
<polygon fill="midnightblue" stroke="midnightblue" points="311.79,-92 321.79,-88.5 311.79,-85 311.79,-92"/>
</g>
<!-- Node6 -->
<g id="node6" class="node">
<title>Node6</title>
<g id="a_node6"><a xlink:href="classhelper_1_1logging_1_1_global_logger.html#a080a88af50f5861331d887d02324e9c2" target="_top" xlink:title="Gets the logger (ostream).">
<polygon fill="white" stroke="black" points="478,-147.5 478,-177.5 621,-177.5 621,-147.5 478,-147.5"/>
<text text-anchor="start" x="486" y="-165.5" font-family="Helvetica,sans-Serif" font-size="10.00">helper::logging::GlobalLogger</text>
<text text-anchor="middle" x="549.5" y="-154.5" font-family="Helvetica,sans-Serif" font-size="10.00">::getLogger</text>
</a>
</g>
</g>
<!-- Node5&#45;&gt;Node6 -->
<g id="edge5" class="edge">
<title>Node5&#45;&gt;Node6</title>
<path fill="none" stroke="midnightblue" d="M399.43,-98.16C418.07,-108.88 449.58,-126.27 478,-138.5 482.37,-140.38 486.94,-142.22 491.57,-143.98"/>
<polygon fill="midnightblue" stroke="midnightblue" points="490.5,-147.32 501.09,-147.5 492.92,-140.75 490.5,-147.32"/>
</g>
<!-- Node7 -->
<g id="node7" class="node">
<title>Node7</title>
<g id="a_node7"><a xlink:href="classhelper_1_1logging_1_1_global_logger.html#a956281901fd88046239494c600e3c5e5" target="_top" xlink:title="Gets the null logger (ostream).">
<polygon fill="white" stroke="black" points="478,-98.5 478,-128.5 621,-128.5 621,-98.5 478,-98.5"/>
<text text-anchor="start" x="486" y="-116.5" font-family="Helvetica,sans-Serif" font-size="10.00">helper::logging::GlobalLogger</text>
<text text-anchor="middle" x="549.5" y="-105.5" font-family="Helvetica,sans-Serif" font-size="10.00">::getNullLogger</text>
</a>
</g>
</g>
<!-- Node5&#45;&gt;Node7 -->
<g id="edge6" class="edge">
<title>Node5&#45;&gt;Node7</title>
<path fill="none" stroke="midnightblue" d="M442.28,-97.45C450.55,-98.7 459.16,-100 467.73,-101.3"/>
<polygon fill="midnightblue" stroke="midnightblue" points="467.36,-104.78 477.77,-102.82 468.4,-97.86 467.36,-104.78"/>
</g>
<!-- Node8 -->
<g id="node8" class="node">
<title>Node8</title>
<g id="a_node8"><a xlink:href="namespacehelper_1_1logging.html#a69b892408158ee6bed51c5aafa694af7" target="_top" xlink:title="Converts the enum LogLevel into string.">
<polygon fill="white" stroke="black" points="489.5,-49.5 489.5,-79.5 609.5,-79.5 609.5,-49.5 489.5,-49.5"/>
<text text-anchor="start" x="497.5" y="-67.5" font-family="Helvetica,sans-Serif" font-size="10.00">helper::logging::logLevel</text>
<text text-anchor="middle" x="549.5" y="-56.5" font-family="Helvetica,sans-Serif" font-size="10.00">ToString</text>
</a>
</g>
</g>
<!-- Node5&#45;&gt;Node8 -->
<g id="edge7" class="edge">
<title>Node5&#45;&gt;Node8</title>
<path fill="none" stroke="midnightblue" d="M442.28,-79.9C454.24,-78.17 466.91,-76.33 479.17,-74.55"/>
<polygon fill="midnightblue" stroke="midnightblue" points="479.96,-77.98 489.35,-73.08 478.96,-71.05 479.96,-77.98"/>
</g>
<!-- Node9 -->
<g id="node9" class="node">
<title>Node9</title>
<g id="a_node9"><a xlink:href="namespacehelper_1_1logging.html#a33b1f83f96be6edb81fa28ddba33179d" target="_top" xlink:title="Gets the source file name out of the path.">
<polygon fill="white" stroke="black" points="482,-0.5 482,-30.5 617,-30.5 617,-0.5 482,-0.5"/>
<text text-anchor="start" x="490" y="-18.5" font-family="Helvetica,sans-Serif" font-size="10.00">helper::logging::stripSource</text>
<text text-anchor="middle" x="549.5" y="-7.5" font-family="Helvetica,sans-Serif" font-size="10.00">FileName</text>
</a>
</g>
</g>
<!-- Node5&#45;&gt;Node9 -->
<g id="edge8" class="edge">
<title>Node5&#45;&gt;Node9</title>
<path fill="none" stroke="midnightblue" d="M400.19,-78.98C418.99,-68.77 450.14,-52.42 478,-40.5 483.07,-38.33 488.41,-36.19 493.77,-34.13"/>
<polygon fill="midnightblue" stroke="midnightblue" points="495.28,-37.31 503.42,-30.52 492.82,-30.75 495.28,-37.31"/>
</g>
</g>
</svg>
