<?xml version="1.0" encoding="UTF-8" standalone="no"?>
<!DOCTYPE svg PUBLIC "-//W3C//DTD SVG 1.1//EN"
 "http://www.w3.org/Graphics/SVG/1.1/DTD/svg11.dtd">
<!-- Generated by graphviz version 2.47.3 (20210619.1520)
 -->
<!-- Title: btf::BtfEntry::toString Pages: 1 -->
<svg width="654pt" height="461pt"
 viewBox="0.00 0.00 654.00 460.50" xmlns="http://www.w3.org/2000/svg" xmlns:xlink="http://www.w3.org/1999/xlink">
<g id="graph0" class="graph" transform="scale(1 1) rotate(0) translate(4 456.5)">
<title>btf::BtfEntry::toString</title>
<polygon fill="white" stroke="transparent" points="-4,4 -4,-456.5 650,-456.5 650,4 -4,4"/>
<!-- Node1 -->
<g id="node1" class="node">
<title>Node1</title>
<g id="a_node1"><a xlink:title="Converts a BtfEntry into string.">
<polygon fill="#bfbfbf" stroke="black" points="0,-262 0,-281 108,-281 108,-262 0,-262"/>
<text text-anchor="middle" x="54" y="-269" font-family="Helvetica,sans-Serif" font-size="10.00">btf::BtfEntry::toString</text>
</a>
</g>
</g>
<!-- Node2 -->
<g id="node2" class="node">
<title>Node2</title>
<g id="a_node2"><a xlink:href="namespacebtf.html#a6baf1b32b87e1c30ff1ab04904a03490" target="_top" xlink:title="Converts the enum EntityTypes into string.">
<polygon fill="white" stroke="black" points="157,-300 157,-319 271,-319 271,-300 157,-300"/>
<text text-anchor="middle" x="214" y="-307" font-family="Helvetica,sans-Serif" font-size="10.00">btf::entityTypeToString</text>
</a>
</g>
</g>
<!-- Node1&#45;&gt;Node2 -->
<g id="edge1" class="edge">
<title>Node1&#45;&gt;Node2</title>
<path fill="none" stroke="midnightblue" d="M94.87,-281.09C115.72,-286.1 141.43,-292.29 163.54,-297.61"/>
<polygon fill="midnightblue" stroke="midnightblue" points="162.88,-301.04 173.42,-299.98 164.51,-294.24 162.88,-301.04"/>
</g>
<!-- Node3 -->
<g id="node3" class="node">
<title>Node3</title>
<g id="a_node3"><a xlink:href="classbtf_1_1_btf_entry.html#a056141170fa8f9dd0001691a1bb336b8" target="_top" xlink:title="Converts union Events into string according to the type_ of the BtfEntry.">
<polygon fill="white" stroke="black" points="147.5,-262 147.5,-281 280.5,-281 280.5,-262 147.5,-262"/>
<text text-anchor="middle" x="214" y="-269" font-family="Helvetica,sans-Serif" font-size="10.00">btf::BtfEntry::eventToString</text>
</a>
</g>
</g>
<!-- Node1&#45;&gt;Node3 -->
<g id="edge2" class="edge">
<title>Node1&#45;&gt;Node3</title>
<path fill="none" stroke="midnightblue" d="M108.05,-271.5C117.43,-271.5 127.36,-271.5 137.23,-271.5"/>
<polygon fill="midnightblue" stroke="midnightblue" points="137.46,-275 147.46,-271.5 137.46,-268 137.46,-275"/>
</g>
<!-- Node13 -->
<g id="node13" class="node">
<title>Node13</title>
<g id="a_node13"><a xlink:href="namespacehelper_1_1logging.html#a9181c24054b42b4c6b18afff28b762bb" target="_top" xlink:title="Writes a warning message to the log.">
<polygon fill="white" stroke="black" points="144,-161 144,-180 284,-180 284,-161 144,-161"/>
<text text-anchor="middle" x="214" y="-168" font-family="Helvetica,sans-Serif" font-size="10.00">helper::logging::printWarning</text>
</a>
</g>
</g>
<!-- Node1&#45;&gt;Node13 -->
<g id="edge12" class="edge">
<title>Node1&#45;&gt;Node13</title>
<path fill="none" stroke="midnightblue" d="M69.86,-262C97.39,-244.4 156.49,-206.62 189.49,-185.53"/>
<polygon fill="midnightblue" stroke="midnightblue" points="191.52,-188.39 198.06,-180.05 187.75,-182.49 191.52,-188.39"/>
</g>
<!-- Node4 -->
<g id="node4" class="node">
<title>Node4</title>
<g id="a_node4"><a xlink:href="classbtf_1_1_signal.html#a120fa6ebdf2e3b74c57f98bced1d53e2" target="_top" xlink:title="Converts the enum Events into string.">
<polygon fill="white" stroke="black" points="331,-433 331,-452 456,-452 456,-433 331,-433"/>
<text text-anchor="middle" x="393.5" y="-440" font-family="Helvetica,sans-Serif" font-size="10.00">btf::Signal::eventToString</text>
</a>
</g>
</g>
<!-- Node3&#45;&gt;Node4 -->
<g id="edge3" class="edge">
<title>Node3&#45;&gt;Node4</title>
<path fill="none" stroke="midnightblue" d="M270.65,-281.04C275.57,-283.52 280.14,-286.63 284,-290.5 327.21,-333.9 276.52,-380.37 320,-423.5 321.45,-424.94 323.01,-426.28 324.63,-427.52"/>
<polygon fill="midnightblue" stroke="midnightblue" points="323.01,-430.63 333.35,-432.93 326.7,-424.68 323.01,-430.63"/>
</g>
<!-- Node5 -->
<g id="node5" class="node">
<title>Node5</title>
<g id="a_node5"><a xlink:href="classbtf_1_1_core.html#af577029a98e9f5f82e8981cc0d80f62e" target="_top" xlink:title="Converts the enum Events into string.">
<polygon fill="white" stroke="black" points="334.5,-395 334.5,-414 452.5,-414 452.5,-395 334.5,-395"/>
<text text-anchor="middle" x="393.5" y="-402" font-family="Helvetica,sans-Serif" font-size="10.00">btf::Core::eventToString</text>
</a>
</g>
</g>
<!-- Node3&#45;&gt;Node5 -->
<g id="edge4" class="edge">
<title>Node3&#45;&gt;Node5</title>
<path fill="none" stroke="midnightblue" d="M269.59,-281.11C274.84,-283.57 279.77,-286.65 284,-290.5 317.38,-320.9 286.43,-355.31 320,-385.5 321.73,-387.06 323.57,-388.49 325.5,-389.8"/>
<polygon fill="midnightblue" stroke="midnightblue" points="324.02,-392.99 334.45,-394.87 327.47,-386.89 324.02,-392.99"/>
</g>
<!-- Node6 -->
<g id="node6" class="node">
<title>Node6</title>
<g id="a_node6"><a xlink:href="classbtf_1_1_o_s.html#af627f5bcc47760ff9809871b23da87cc" target="_top" xlink:title="Converts the enum Events into string.">
<polygon fill="white" stroke="black" points="337.5,-357 337.5,-376 449.5,-376 449.5,-357 337.5,-357"/>
<text text-anchor="middle" x="393.5" y="-364" font-family="Helvetica,sans-Serif" font-size="10.00">btf::OS::eventToString</text>
</a>
</g>
</g>
<!-- Node3&#45;&gt;Node6 -->
<g id="edge5" class="edge">
<title>Node3&#45;&gt;Node6</title>
<path fill="none" stroke="midnightblue" d="M266.73,-281.13C272.88,-283.58 278.81,-286.65 284,-290.5 308.07,-308.35 295.82,-329.8 320,-347.5 322.54,-349.36 325.25,-351.04 328.08,-352.56"/>
<polygon fill="midnightblue" stroke="midnightblue" points="326.87,-355.85 337.41,-356.86 329.8,-349.49 326.87,-355.85"/>
</g>
<!-- Node7 -->
<g id="node7" class="node">
<title>Node7</title>
<g id="a_node7"><a xlink:href="classbtf_1_1_process.html#ac2b6cd5b0524fba0a5c248ba4b223001" target="_top" xlink:title="Converts the enum Events into string.">
<polygon fill="white" stroke="black" points="326.5,-319 326.5,-338 460.5,-338 460.5,-319 326.5,-319"/>
<text text-anchor="middle" x="393.5" y="-326" font-family="Helvetica,sans-Serif" font-size="10.00">btf::Process::eventToString</text>
</a>
</g>
</g>
<!-- Node3&#45;&gt;Node7 -->
<g id="edge6" class="edge">
<title>Node3&#45;&gt;Node7</title>
<path fill="none" stroke="midnightblue" d="M255.26,-281C264.81,-283.69 274.87,-286.89 284,-290.5 300.82,-297.16 303.14,-302.94 320,-309.5 326.27,-311.94 332.97,-314.17 339.67,-316.18"/>
<polygon fill="midnightblue" stroke="midnightblue" points="338.85,-319.58 349.43,-318.95 340.77,-312.85 338.85,-319.58"/>
</g>
<!-- Node8 -->
<g id="node8" class="node">
<title>Node8</title>
<g id="a_node8"><a xlink:href="classbtf_1_1_runnable.html#ae588697e7b86706ac5a094af09db0c74" target="_top" xlink:title="Converts the enum Events into string.">
<polygon fill="white" stroke="black" points="324.5,-281 324.5,-300 462.5,-300 462.5,-281 324.5,-281"/>
<text text-anchor="middle" x="393.5" y="-288" font-family="Helvetica,sans-Serif" font-size="10.00">btf::Runnable::eventToString</text>
</a>
</g>
</g>
<!-- Node3&#45;&gt;Node8 -->
<g id="edge7" class="edge">
<title>Node3&#45;&gt;Node8</title>
<path fill="none" stroke="midnightblue" d="M280.59,-278.52C291.48,-279.69 302.87,-280.91 314.03,-282.1"/>
<polygon fill="midnightblue" stroke="midnightblue" points="313.89,-285.61 324.21,-283.19 314.64,-278.65 313.89,-285.61"/>
</g>
<!-- Node9 -->
<g id="node9" class="node">
<title>Node9</title>
<g id="a_node9"><a xlink:href="classbtf_1_1_scheduler.html#ade30adab31494faff6e8b89727522464" target="_top" xlink:title="Converts the enum Events into string.">
<polygon fill="white" stroke="black" points="323,-243 323,-262 464,-262 464,-243 323,-243"/>
<text text-anchor="middle" x="393.5" y="-250" font-family="Helvetica,sans-Serif" font-size="10.00">btf::Scheduler::eventToString</text>
</a>
</g>
</g>
<!-- Node3&#45;&gt;Node9 -->
<g id="edge8" class="edge">
<title>Node3&#45;&gt;Node9</title>
<path fill="none" stroke="midnightblue" d="M280.59,-264.48C290.99,-263.37 301.85,-262.2 312.54,-261.06"/>
<polygon fill="midnightblue" stroke="midnightblue" points="313.14,-264.51 322.71,-259.97 312.4,-257.55 313.14,-264.51"/>
</g>
<!-- Node10 -->
<g id="node10" class="node">
<title>Node10</title>
<g id="a_node10"><a xlink:href="classbtf_1_1_semaphore.html#a009325c47cd25c9396f83f8558ed565a" target="_top" xlink:title="Converts the enum Events into string.">
<polygon fill="white" stroke="black" points="320,-205 320,-224 467,-224 467,-205 320,-205"/>
<text text-anchor="middle" x="393.5" y="-212" font-family="Helvetica,sans-Serif" font-size="10.00">btf::Semaphore::eventToString</text>
</a>
</g>
</g>
<!-- Node3&#45;&gt;Node10 -->
<g id="edge9" class="edge">
<title>Node3&#45;&gt;Node10</title>
<path fill="none" stroke="midnightblue" d="M239.4,-261.96C260.54,-253.86 292.05,-242.2 320,-233.5 327.6,-231.13 335.71,-228.81 343.65,-226.65"/>
<polygon fill="midnightblue" stroke="midnightblue" points="344.8,-229.97 353.56,-224.01 343,-223.2 344.8,-229.97"/>
</g>
<!-- Node11 -->
<g id="node11" class="node">
<title>Node11</title>
<g id="a_node11"><a xlink:href="classbtf_1_1_simulation.html#a4e8900d9b37d10d407927ca039533cec" target="_top" xlink:title="Converts the enum Events into string.">
<polygon fill="white" stroke="black" points="334.5,-155.5 334.5,-185.5 452.5,-185.5 452.5,-155.5 334.5,-155.5"/>
<text text-anchor="start" x="342.5" y="-173.5" font-family="Helvetica,sans-Serif" font-size="10.00">btf::Simulation::eventTo</text>
<text text-anchor="middle" x="393.5" y="-162.5" font-family="Helvetica,sans-Serif" font-size="10.00">String</text>
</a>
</g>
</g>
<!-- Node3&#45;&gt;Node11 -->
<g id="edge10" class="edge">
<title>Node3&#45;&gt;Node11</title>
<path fill="none" stroke="midnightblue" d="M225.93,-261.89C244.26,-246.18 282.86,-214.8 320,-195.5 324.21,-193.31 328.65,-191.25 333.18,-189.32"/>
<polygon fill="midnightblue" stroke="midnightblue" points="334.58,-192.53 342.55,-185.55 331.96,-186.04 334.58,-192.53"/>
</g>
<!-- Node12 -->
<g id="node12" class="node">
<title>Node12</title>
<g id="a_node12"><a xlink:href="classbtf_1_1_stimulus.html#a7a7c5b6d5ef557ed266a8ecb025e326c" target="_top" xlink:title="Converts the enum Events into string.">
<polygon fill="white" stroke="black" points="325.5,-117 325.5,-136 461.5,-136 461.5,-117 325.5,-117"/>
<text text-anchor="middle" x="393.5" y="-124" font-family="Helvetica,sans-Serif" font-size="10.00">btf::Stimulus::eventToString</text>
</a>
</g>
</g>
<!-- Node3&#45;&gt;Node12 -->
<g id="edge11" class="edge">
<title>Node3&#45;&gt;Node12</title>
<path fill="none" stroke="midnightblue" d="M223.08,-261.91C235.97,-246.61 261.99,-215.72 284,-189.5 300.02,-170.41 299.04,-159.98 320,-146.5 324.04,-143.9 328.42,-141.63 332.96,-139.66"/>
<polygon fill="midnightblue" stroke="midnightblue" points="334.36,-142.87 342.43,-136.01 331.84,-136.34 334.36,-142.87"/>
</g>
<!-- Node14 -->
<g id="node14" class="node">
<title>Node14</title>
<g id="a_node14"><a xlink:href="namespacehelper_1_1logging.html#aadee8ee5d31250ae8288888fa86814a3" target="_top" xlink:title="Prints a log message to the log.">
<polygon fill="white" stroke="black" points="333.5,-79 333.5,-98 453.5,-98 453.5,-79 333.5,-79"/>
<text text-anchor="middle" x="393.5" y="-86" font-family="Helvetica,sans-Serif" font-size="10.00">helper::logging::printLog</text>
</a>
</g>
</g>
<!-- Node13&#45;&gt;Node14 -->
<g id="edge13" class="edge">
<title>Node13&#45;&gt;Node14</title>
<path fill="none" stroke="midnightblue" d="M228.26,-160.84C247.57,-147.18 284.93,-122.26 320,-107.5 325.75,-105.08 331.88,-102.9 338.06,-100.96"/>
<polygon fill="midnightblue" stroke="midnightblue" points="339.15,-104.29 347.74,-98.1 337.16,-97.57 339.15,-104.29"/>
</g>
<!-- Node15 -->
<g id="node15" class="node">
<title>Node15</title>
<g id="a_node15"><a xlink:href="classhelper_1_1logging_1_1_global_logger.html#a080a88af50f5861331d887d02324e9c2" target="_top" xlink:title="Gets the logger (ostream).">
<polygon fill="white" stroke="black" points="503,-147.5 503,-177.5 646,-177.5 646,-147.5 503,-147.5"/>
<text text-anchor="start" x="511" y="-165.5" font-family="Helvetica,sans-Serif" font-size="10.00">helper::logging::GlobalLogger</text>
<text text-anchor="middle" x="574.5" y="-154.5" font-family="Helvetica,sans-Serif" font-size="10.00">::getLogger</text>
</a>
</g>
</g>
<!-- Node14&#45;&gt;Node15 -->
<g id="edge14" class="edge">
<title>Node14&#45;&gt;Node15</title>
<path fill="none" stroke="midnightblue" d="M443.61,-98.12C451.67,-100.6 459.74,-103.69 467,-107.5 485.69,-117.32 484.67,-128.02 503,-138.5 506.01,-140.22 509.16,-141.84 512.39,-143.37"/>
<polygon fill="midnightblue" stroke="midnightblue" points="511.1,-146.63 521.66,-147.43 513.9,-140.21 511.1,-146.63"/>
</g>
<!-- Node16 -->
<g id="node16" class="node">
<title>Node16</title>
<g id="a_node16"><a xlink:href="classhelper_1_1logging_1_1_global_logger.html#a956281901fd88046239494c600e3c5e5" target="_top" xlink:title="Gets the null logger (ostream).">
<polygon fill="white" stroke="black" points="503,-98.5 503,-128.5 646,-128.5 646,-98.5 503,-98.5"/>
<text text-anchor="start" x="511" y="-116.5" font-family="Helvetica,sans-Serif" font-size="10.00">helper::logging::GlobalLogger</text>
<text text-anchor="middle" x="574.5" y="-105.5" font-family="Helvetica,sans-Serif" font-size="10.00">::getNullLogger</text>
</a>
</g>
</g>
<!-- Node14&#45;&gt;Node16 -->
<g id="edge15" class="edge">
<title>Node14&#45;&gt;Node16</title>
<path fill="none" stroke="midnightblue" d="M453.61,-96.76C466.19,-98.51 479.67,-100.4 492.9,-102.24"/>
<polygon fill="midnightblue" stroke="midnightblue" points="492.55,-105.73 502.94,-103.65 493.52,-98.8 492.55,-105.73"/>
</g>
<!-- Node17 -->
<g id="node17" class="node">
<title>Node17</title>
<g id="a_node17"><a xlink:href="namespacehelper_1_1logging.html#a69b892408158ee6bed51c5aafa694af7" target="_top" xlink:title="Converts the enum LogLevel into string.">
<polygon fill="white" stroke="black" points="514.5,-49.5 514.5,-79.5 634.5,-79.5 634.5,-49.5 514.5,-49.5"/>
<text text-anchor="start" x="522.5" y="-67.5" font-family="Helvetica,sans-Serif" font-size="10.00">helper::logging::logLevel</text>
<text text-anchor="middle" x="574.5" y="-56.5" font-family="Helvetica,sans-Serif" font-size="10.00">ToString</text>
</a>
</g>
</g>
<!-- Node14&#45;&gt;Node17 -->
<g id="edge16" class="edge">
<title>Node14&#45;&gt;Node17</title>
<path fill="none" stroke="midnightblue" d="M453.61,-80.57C469.8,-78.4 487.5,-76.03 504.2,-73.79"/>
<polygon fill="midnightblue" stroke="midnightblue" points="505.01,-77.21 514.45,-72.42 504.08,-70.28 505.01,-77.21"/>
</g>
<!-- Node18 -->
<g id="node18" class="node">
<title>Node18</title>
<g id="a_node18"><a xlink:href="namespacehelper_1_1logging.html#a33b1f83f96be6edb81fa28ddba33179d" target="_top" xlink:title="Gets the source file name out of the path.">
<polygon fill="white" stroke="black" points="507,-0.5 507,-30.5 642,-30.5 642,-0.5 507,-0.5"/>
<text text-anchor="start" x="515" y="-18.5" font-family="Helvetica,sans-Serif" font-size="10.00">helper::logging::stripSource</text>
<text text-anchor="middle" x="574.5" y="-7.5" font-family="Helvetica,sans-Serif" font-size="10.00">FileName</text>
</a>
</g>
</g>
<!-- Node14&#45;&gt;Node18 -->
<g id="edge17" class="edge">
<title>Node14&#45;&gt;Node18</title>
<path fill="none" stroke="midnightblue" d="M414.25,-78.89C435.81,-68.56 471.47,-51.95 503,-39.5 507.69,-37.65 512.59,-35.8 517.52,-34.01"/>
<polygon fill="midnightblue" stroke="midnightblue" points="518.76,-37.28 527,-30.62 516.41,-30.69 518.76,-37.28"/>
</g>
</g>
</svg>
