<?xml version="1.0" encoding="UTF-8" standalone="no"?>
<!DOCTYPE svg PUBLIC "-//W3C//DTD SVG 1.1//EN"
 "http://www.w3.org/Graphics/SVG/1.1/DTD/svg11.dtd">
<!-- Generated by graphviz version 2.47.3 (20210619.1520)
 -->
<!-- Title: helper::logging::GlobalLogger::getLogger Pages: 1 -->
<svg width="972pt" height="712pt"
 viewBox="0.00 0.00 972.00 712.05" xmlns="http://www.w3.org/2000/svg" xmlns:xlink="http://www.w3.org/1999/xlink">
<g id="graph0" class="graph" transform="scale(1 1) rotate(0) translate(4 708.05)">
<title>helper::logging::GlobalLogger::getLogger</title>
<polygon fill="white" stroke="transparent" points="-4,4 -4,-708.05 968,-708.05 968,4 -4,4"/>
<!-- Node1 -->
<g id="node1" class="node">
<title>Node1</title>
<g id="a_node1"><a xlink:title="Gets the logger (ostream).">
<polygon fill="#bfbfbf" stroke="black" points="821,-593.5 821,-623.5 964,-623.5 964,-593.5 821,-593.5"/>
<text text-anchor="start" x="829" y="-611.5" font-family="Helvetica,sans-Serif" font-size="10.00">helper::logging::GlobalLogger</text>
<text text-anchor="middle" x="892.5" y="-600.5" font-family="Helvetica,sans-Serif" font-size="10.00">::getLogger</text>
</a>
</g>
</g>
<!-- Node2 -->
<g id="node2" class="node">
<title>Node2</title>
<g id="a_node2"><a xlink:href="namespacehelper_1_1logging.html#a8405ad51527364dd7ad47a226e4bab85" target="_top" xlink:title="Flushes the log.">
<polygon fill="white" stroke="black" points="672,-627 672,-646 778,-646 778,-627 672,-627"/>
<text text-anchor="middle" x="725" y="-634" font-family="Helvetica,sans-Serif" font-size="10.00">helper::logging::flush</text>
</a>
</g>
</g>
<!-- Node1&#45;&gt;Node2 -->
<g id="edge1" class="edge">
<title>Node1&#45;&gt;Node2</title>
<path fill="none" stroke="midnightblue" d="M810.77,-622.16C799.77,-624.02 788.72,-625.89 778.41,-627.63"/>
<polygon fill="midnightblue" stroke="midnightblue" points="811.56,-625.57 820.83,-620.46 810.39,-618.67 811.56,-625.57"/>
</g>
<!-- Node5 -->
<g id="node5" class="node">
<title>Node5</title>
<g id="a_node5"><a xlink:href="namespacehelper_1_1logging.html#aadee8ee5d31250ae8288888fa86814a3" target="_top" xlink:title="Prints a log message to the log.">
<polygon fill="white" stroke="black" points="665,-580 665,-599 785,-599 785,-580 665,-580"/>
<text text-anchor="middle" x="725" y="-587" font-family="Helvetica,sans-Serif" font-size="10.00">helper::logging::printLog</text>
</a>
</g>
</g>
<!-- Node1&#45;&gt;Node5 -->
<g id="edge4" class="edge">
<title>Node1&#45;&gt;Node5</title>
<path fill="none" stroke="midnightblue" d="M810.77,-599.23C802.16,-598.24 793.53,-597.25 785.24,-596.3"/>
<polygon fill="midnightblue" stroke="midnightblue" points="810.5,-602.72 820.83,-600.39 811.3,-595.77 810.5,-602.72"/>
</g>
<!-- Node3 -->
<g id="node3" class="node">
<title>Node3</title>
<g id="a_node3"><a xlink:href="libhelper__binding_8h.html#a2c5a40794af354dc9e9ec0a59b15a093" target="_top" xlink:title="Helper function which is called inside the PYBIND11_MODULE macro and adds Python bindings to the C++ ...">
<polygon fill="white" stroke="black" points="342.5,-637 342.5,-656 424.5,-656 424.5,-637 342.5,-637"/>
<text text-anchor="middle" x="383.5" y="-644" font-family="Helvetica,sans-Serif" font-size="10.00">init_pybtfhelper</text>
</a>
</g>
</g>
<!-- Node2&#45;&gt;Node3 -->
<g id="edge2" class="edge">
<title>Node2&#45;&gt;Node3</title>
<path fill="none" stroke="midnightblue" d="M661.38,-638.34C592.28,-640.38 483.11,-643.6 424.63,-645.32"/>
<polygon fill="midnightblue" stroke="midnightblue" points="661.8,-641.83 671.7,-638.04 661.6,-634.84 661.8,-641.83"/>
</g>
<!-- Node4 -->
<g id="node4" class="node">
<title>Node4</title>
<g id="a_node4"><a xlink:href="libbtf__binding_8cpp.html#adfae743278a01284c171e56ddabf18bd" target="_top" xlink:title="Macro that creates a function that will be called when the module pybtf is imported within python....">
<polygon fill="white" stroke="black" points="0,-365 0,-384 110,-384 110,-365 0,-365"/>
<text text-anchor="middle" x="55" y="-372" font-family="Helvetica,sans-Serif" font-size="10.00">PYBIND11_MODULE</text>
</a>
</g>
</g>
<!-- Node3&#45;&gt;Node4 -->
<g id="edge3" class="edge">
<title>Node3&#45;&gt;Node4</title>
<path fill="none" stroke="midnightblue" d="M357.7,-660.99C311.2,-686.05 209.89,-730.39 146,-682.5 95.41,-644.58 63.77,-431.74 57.26,-384"/>
<polygon fill="midnightblue" stroke="midnightblue" points="359.44,-664.03 366.49,-656.13 356.05,-657.9 359.44,-664.03"/>
</g>
<!-- Node6 -->
<g id="node6" class="node">
<title>Node6</title>
<g id="a_node6"><a xlink:href="namespacehelper_1_1logging.html#a182d159db05f7638d388b4ee9740af04" target="_top" xlink:title="Writes an error message to the log.">
<polygon fill="white" stroke="black" points="496.5,-599 496.5,-618 621.5,-618 621.5,-599 496.5,-599"/>
<text text-anchor="middle" x="559" y="-606" font-family="Helvetica,sans-Serif" font-size="10.00">helper::logging::printError</text>
</a>
</g>
</g>
<!-- Node5&#45;&gt;Node6 -->
<g id="edge5" class="edge">
<title>Node5&#45;&gt;Node6</title>
<path fill="none" stroke="midnightblue" d="M654.79,-597.52C643.77,-598.8 632.43,-600.11 621.61,-601.36"/>
<polygon fill="midnightblue" stroke="midnightblue" points="655.26,-600.99 664.79,-596.36 654.46,-594.03 655.26,-600.99"/>
</g>
<!-- Node7 -->
<g id="node7" class="node">
<title>Node7</title>
<g id="a_node7"><a xlink:href="namespacehelper_1_1logging.html#a0e1881bbc937b702aa298c5f5141b79b" target="_top" xlink:title="Writes a trace message to the log.">
<polygon fill="white" stroke="black" points="495,-359 495,-378 623,-378 623,-359 495,-359"/>
<text text-anchor="middle" x="559" y="-366" font-family="Helvetica,sans-Serif" font-size="10.00">helper::logging::printTrace</text>
</a>
</g>
</g>
<!-- Node5&#45;&gt;Node7 -->
<g id="edge7" class="edge">
<title>Node5&#45;&gt;Node7</title>
<path fill="none" stroke="midnightblue" d="M710.68,-571.55C677.58,-526.94 592.44,-412.22 567.17,-378.17"/>
<polygon fill="midnightblue" stroke="midnightblue" points="707.97,-573.77 716.74,-579.72 713.59,-569.6 707.97,-573.77"/>
</g>
<!-- Node25 -->
<g id="node25" class="node">
<title>Node25</title>
<g id="a_node25"><a xlink:href="namespacehelper_1_1logging.html#a9181c24054b42b4c6b18afff28b762bb" target="_top" xlink:title="Writes a warning message to the log.">
<polygon fill="white" stroke="black" points="489,-561 489,-580 629,-580 629,-561 489,-561"/>
<text text-anchor="middle" x="559" y="-568" font-family="Helvetica,sans-Serif" font-size="10.00">helper::logging::printWarning</text>
</a>
</g>
</g>
<!-- Node5&#45;&gt;Node25 -->
<g id="edge48" class="edge">
<title>Node5&#45;&gt;Node25</title>
<path fill="none" stroke="midnightblue" d="M654.63,-581.46C646.2,-580.49 637.59,-579.49 629.16,-578.51"/>
<polygon fill="midnightblue" stroke="midnightblue" points="654.46,-584.97 664.79,-582.64 655.26,-578.01 654.46,-584.97"/>
</g>
<!-- Node6&#45;&gt;Node3 -->
<g id="edge6" class="edge">
<title>Node6&#45;&gt;Node3</title>
<path fill="none" stroke="midnightblue" d="M504.26,-620.27C478.57,-625.9 448.36,-632.51 424.7,-637.7"/>
<polygon fill="midnightblue" stroke="midnightblue" points="505.2,-623.65 514.22,-618.09 503.7,-616.81 505.2,-623.65"/>
</g>
<!-- Node7&#45;&gt;Node3 -->
<g id="edge12" class="edge">
<title>Node7&#45;&gt;Node3</title>
<path fill="none" stroke="midnightblue" d="M551.08,-387.76C530.7,-444.01 471.27,-605.21 453,-622.5 445.13,-629.95 434.82,-635.1 424.59,-638.66"/>
<polygon fill="midnightblue" stroke="midnightblue" points="554.4,-388.85 554.51,-378.25 547.82,-386.47 554.4,-388.85"/>
</g>
<!-- Node8 -->
<g id="node8" class="node">
<title>Node8</title>
<g id="a_node8"><a xlink:href="classbtf_1_1_btf_file.html#a9454b5166914314b2af545df306f4dab" target="_top" xlink:title="Emits a core event. See overloaded function for more information.">
<polygon fill="white" stroke="black" points="328.5,-359 328.5,-378 438.5,-378 438.5,-359 328.5,-359"/>
<text text-anchor="middle" x="383.5" y="-366" font-family="Helvetica,sans-Serif" font-size="10.00">btf::BtfFile::coreEvent</text>
</a>
</g>
</g>
<!-- Node7&#45;&gt;Node8 -->
<g id="edge8" class="edge">
<title>Node7&#45;&gt;Node8</title>
<path fill="none" stroke="midnightblue" d="M484.82,-368.5C469.36,-368.5 453.32,-368.5 438.71,-368.5"/>
<polygon fill="midnightblue" stroke="midnightblue" points="484.87,-372 494.87,-368.5 484.87,-365 484.87,-372"/>
</g>
<!-- Node10 -->
<g id="node10" class="node">
<title>Node10</title>
<g id="a_node10"><a xlink:href="classbtf_1_1_btf_file.html#a53a53570d80ddcb7d3e762fe219fd019" target="_top" xlink:title="Emits an OS event (source is a core or a process depending on the value of the core_is_source paramet...">
<polygon fill="white" stroke="black" points="333,-321 333,-340 434,-340 434,-321 333,-321"/>
<text text-anchor="middle" x="383.5" y="-328" font-family="Helvetica,sans-Serif" font-size="10.00">btf::BtfFile::osEvent</text>
</a>
</g>
</g>
<!-- Node7&#45;&gt;Node10 -->
<g id="edge13" class="edge">
<title>Node7&#45;&gt;Node10</title>
<path fill="none" stroke="midnightblue" d="M504.34,-356.75C479.81,-351.37 451.12,-345.09 427.97,-340.02"/>
<polygon fill="midnightblue" stroke="midnightblue" points="503.7,-360.19 514.22,-358.91 505.2,-353.35 503.7,-360.19"/>
</g>
<!-- Node11 -->
<g id="node11" class="node">
<title>Node11</title>
<g id="a_node11"><a xlink:href="classbtf_1_1_btf_file.html#a3f6b54fa6c96e04ce016ab81d1f80901" target="_top" xlink:title="Emits a task event (except migration). See overloaded function for more information.">
<polygon fill="white" stroke="black" points="321,-523 321,-542 446,-542 446,-523 321,-523"/>
<text text-anchor="middle" x="383.5" y="-530" font-family="Helvetica,sans-Serif" font-size="10.00">btf::BtfFile::processEvent</text>
</a>
</g>
</g>
<!-- Node7&#45;&gt;Node11 -->
<g id="edge16" class="edge">
<title>Node7&#45;&gt;Node11</title>
<path fill="none" stroke="midnightblue" d="M549.38,-387.71C534.38,-418.93 500.47,-480.51 453,-513.5 447.43,-517.37 441.09,-520.46 434.56,-522.92"/>
<polygon fill="midnightblue" stroke="midnightblue" points="552.68,-388.91 553.74,-378.37 546.34,-385.95 552.68,-388.91"/>
</g>
<!-- Node13 -->
<g id="node13" class="node">
<title>Node13</title>
<g id="a_node13"><a xlink:href="classbtf_1_1_btf_file.html#a3a7b48f23d0c26343e8b4a2a452319b6" target="_top" xlink:title="Emits a runnable event (source is a core or process depending on the value of the core_is_source para...">
<polygon fill="white" stroke="black" points="319.5,-283 319.5,-302 447.5,-302 447.5,-283 319.5,-283"/>
<text text-anchor="middle" x="383.5" y="-290" font-family="Helvetica,sans-Serif" font-size="10.00">btf::BtfFile::runnableEvent</text>
</a>
</g>
</g>
<!-- Node7&#45;&gt;Node13 -->
<g id="edge20" class="edge">
<title>Node7&#45;&gt;Node13</title>
<path fill="none" stroke="midnightblue" d="M534.11,-353.49C513.31,-340.93 482.02,-323.22 453,-311.5 444.07,-307.89 434.23,-304.72 424.85,-302.05"/>
<polygon fill="midnightblue" stroke="midnightblue" points="532.53,-356.63 542.88,-358.86 536.18,-350.66 532.53,-356.63"/>
</g>
<!-- Node16 -->
<g id="node16" class="node">
<title>Node16</title>
<g id="a_node16"><a xlink:href="classbtf_1_1_btf_file.html#ae1ebfe73fc7c7d04defcb27446a2c4b6" target="_top" xlink:title="Emits a scheduler event. See overloaded function for more information.">
<polygon fill="white" stroke="black" points="317,-245 317,-264 450,-264 450,-245 317,-245"/>
<text text-anchor="middle" x="383.5" y="-252" font-family="Helvetica,sans-Serif" font-size="10.00">btf::BtfFile::schedulerEvent</text>
</a>
</g>
</g>
<!-- Node7&#45;&gt;Node16 -->
<g id="edge25" class="edge">
<title>Node7&#45;&gt;Node16</title>
<path fill="none" stroke="midnightblue" d="M543.52,-351.17C524.77,-329.82 490.08,-293.9 453,-273.5 446.08,-269.69 438.34,-266.6 430.62,-264.11"/>
<polygon fill="midnightblue" stroke="midnightblue" points="540.93,-353.53 550.11,-358.82 546.24,-348.96 540.93,-353.53"/>
</g>
<!-- Node17 -->
<g id="node17" class="node">
<title>Node17</title>
<g id="a_node17"><a xlink:href="classbtf_1_1_btf_file.html#ad3520a015342189e2b8969547dedcb43" target="_top" xlink:title="Emits a semaphore event. See overloaded function for more information.">
<polygon fill="white" stroke="black" points="314,-207 314,-226 453,-226 453,-207 314,-207"/>
<text text-anchor="middle" x="383.5" y="-214" font-family="Helvetica,sans-Serif" font-size="10.00">btf::BtfFile::semaphoreEvent</text>
</a>
</g>
</g>
<!-- Node7&#45;&gt;Node17 -->
<g id="edge28" class="edge">
<title>Node7&#45;&gt;Node17</title>
<path fill="none" stroke="midnightblue" d="M548.29,-349.67C532.37,-320.69 497.93,-265.36 453,-235.5 447.14,-231.61 440.5,-228.5 433.7,-226.04"/>
<polygon fill="midnightblue" stroke="midnightblue" points="545.34,-351.57 553.14,-358.74 551.51,-348.27 545.34,-351.57"/>
</g>
<!-- Node18 -->
<g id="node18" class="node">
<title>Node18</title>
<g id="a_node18"><a xlink:href="classbtf_1_1_btf_file.html#abd1356570158b60e3bf92fc006adcda8" target="_top" xlink:title="Emits a signal event (source is a core or process depending on the value of the core_is_source parame...">
<polygon fill="white" stroke="black" points="325.5,-169 325.5,-188 441.5,-188 441.5,-169 325.5,-169"/>
<text text-anchor="middle" x="383.5" y="-176" font-family="Helvetica,sans-Serif" font-size="10.00">btf::BtfFile::signalEvent</text>
</a>
</g>
</g>
<!-- Node7&#45;&gt;Node18 -->
<g id="edge31" class="edge">
<title>Node7&#45;&gt;Node18</title>
<path fill="none" stroke="midnightblue" d="M551.46,-348.89C538.52,-313.18 506.22,-237.57 453,-197.5 447.87,-193.64 442,-190.56 435.9,-188.11"/>
<polygon fill="midnightblue" stroke="midnightblue" points="548.25,-350.32 554.85,-358.6 554.86,-348.01 548.25,-350.32"/>
</g>
<!-- Node19 -->
<g id="node19" class="node">
<title>Node19</title>
<g id="a_node19"><a xlink:href="classbtf_1_1_btf_file.html#a7e534fb0663307cb4fbdacfcfda78308" target="_top" xlink:title="Emits a process creation event. See overloaded function for more information.">
<polygon fill="white" stroke="black" points="155.5,-49.5 155.5,-79.5 268.5,-79.5 268.5,-49.5 155.5,-49.5"/>
<text text-anchor="start" x="163.5" y="-67.5" font-family="Helvetica,sans-Serif" font-size="10.00">btf::BtfFile::simulation</text>
<text text-anchor="middle" x="212" y="-56.5" font-family="Helvetica,sans-Serif" font-size="10.00">EventProcessCreation</text>
</a>
</g>
</g>
<!-- Node7&#45;&gt;Node19 -->
<g id="edge34" class="edge">
<title>Node7&#45;&gt;Node19</title>
<path fill="none" stroke="midnightblue" d="M553.23,-348.88C542.36,-308.1 512,-213.49 453,-159.5 400.77,-111.7 321.59,-86.72 268.62,-74.59"/>
<polygon fill="midnightblue" stroke="midnightblue" points="549.87,-349.85 555.74,-358.67 556.65,-348.11 549.87,-349.85"/>
</g>
<!-- Node20 -->
<g id="node20" class="node">
<title>Node20</title>
<g id="a_node20"><a xlink:href="classbtf_1_1_btf_file.html#a8e8ea0a0f02b56b5a5622641052a5e98" target="_top" xlink:title="Emits a process name event (e.g. name change or initial name). See overloaded function for more infor...">
<polygon fill="white" stroke="black" points="156.5,-0.5 156.5,-30.5 267.5,-30.5 267.5,-0.5 156.5,-0.5"/>
<text text-anchor="start" x="164.5" y="-18.5" font-family="Helvetica,sans-Serif" font-size="10.00">btf::BtfFile::simulation</text>
<text text-anchor="middle" x="212" y="-7.5" font-family="Helvetica,sans-Serif" font-size="10.00">EventProcessName</text>
</a>
</g>
</g>
<!-- Node7&#45;&gt;Node20 -->
<g id="edge36" class="edge">
<title>Node7&#45;&gt;Node20</title>
<path fill="none" stroke="midnightblue" d="M556.63,-348.61C551.98,-297.08 532.33,-158.15 453,-84.5 402.24,-37.38 321.38,-22.2 267.74,-17.44"/>
<polygon fill="midnightblue" stroke="midnightblue" points="553.15,-349.05 557.44,-358.73 560.13,-348.48 553.15,-349.05"/>
</g>
<!-- Node21 -->
<g id="node21" class="node">
<title>Node21</title>
<g id="a_node21"><a xlink:href="classbtf_1_1_btf_file.html#a4b3c16fb33a93dcc75746a0b828eb040" target="_top" xlink:title="Emits a thread creation event. See overloaded function for more information.">
<polygon fill="white" stroke="black" points="156.5,-642.5 156.5,-672.5 267.5,-672.5 267.5,-642.5 156.5,-642.5"/>
<text text-anchor="start" x="164.5" y="-660.5" font-family="Helvetica,sans-Serif" font-size="10.00">btf::BtfFile::simulation</text>
<text text-anchor="middle" x="212" y="-649.5" font-family="Helvetica,sans-Serif" font-size="10.00">EventThreadCreation</text>
</a>
</g>
</g>
<!-- Node7&#45;&gt;Node21 -->
<g id="edge38" class="edge">
<title>Node7&#45;&gt;Node21</title>
<path fill="none" stroke="midnightblue" d="M554.03,-388.41C544.47,-431.05 516.16,-531.67 453,-585.5 452.07,-586.29 333.79,-621.57 263.65,-642.44"/>
<polygon fill="midnightblue" stroke="midnightblue" points="557.49,-388.95 556.15,-378.44 550.64,-387.49 557.49,-388.95"/>
</g>
<!-- Node22 -->
<g id="node22" class="node">
<title>Node22</title>
<g id="a_node22"><a xlink:href="classbtf_1_1_btf_file.html#ae21ef03719f3af5a72d682bf9ae5d8d9" target="_top" xlink:title="Emits a thread name event (e.g. name change or initial name). See overloaded function for more inform...">
<polygon fill="white" stroke="black" points="156.5,-593.5 156.5,-623.5 267.5,-623.5 267.5,-593.5 156.5,-593.5"/>
<text text-anchor="start" x="164.5" y="-611.5" font-family="Helvetica,sans-Serif" font-size="10.00">btf::BtfFile::simulation</text>
<text text-anchor="middle" x="212" y="-600.5" font-family="Helvetica,sans-Serif" font-size="10.00">EventThreadName</text>
</a>
</g>
</g>
<!-- Node7&#45;&gt;Node22 -->
<g id="edge40" class="edge">
<title>Node7&#45;&gt;Node22</title>
<path fill="none" stroke="midnightblue" d="M552.5,-388.1C540.83,-425.93 509.89,-509.01 453,-551.5 424.05,-573.12 328.98,-591.01 267.54,-600.69"/>
<polygon fill="midnightblue" stroke="midnightblue" points="555.92,-388.89 555.4,-378.3 549.21,-386.9 555.92,-388.89"/>
</g>
<!-- Node23 -->
<g id="node23" class="node">
<title>Node23</title>
<g id="a_node23"><a xlink:href="classbtf_1_1_btf_file.html#aad9571cc39c02a1e460e8c913598abb9" target="_top" xlink:title="Emits a stimulus event. See overloaded function for more information.">
<polygon fill="white" stroke="black" points="319.5,-485 319.5,-504 447.5,-504 447.5,-485 319.5,-485"/>
<text text-anchor="middle" x="383.5" y="-492" font-family="Helvetica,sans-Serif" font-size="10.00">btf::BtfFile::stimulusEvent</text>
</a>
</g>
</g>
<!-- Node7&#45;&gt;Node23 -->
<g id="edge42" class="edge">
<title>Node7&#45;&gt;Node23</title>
<path fill="none" stroke="midnightblue" d="M545.35,-386.32C527.47,-410.17 492.56,-452.18 453,-475.5 446.41,-479.39 438.99,-482.5 431.54,-485"/>
<polygon fill="midnightblue" stroke="midnightblue" points="548.25,-388.27 551.34,-378.14 542.6,-384.14 548.25,-388.27"/>
</g>
<!-- Node24 -->
<g id="node24" class="node">
<title>Node24</title>
<g id="a_node24"><a xlink:href="classbtf_1_1_btf_file.html#a66ddf92cf6d3b6f48ca5876d0bdfea20" target="_top" xlink:title="Emits a task migration event. See overloaded function for more information.">
<polygon fill="white" stroke="black" points="321,-435.5 321,-465.5 446,-465.5 446,-435.5 321,-435.5"/>
<text text-anchor="start" x="329" y="-453.5" font-family="Helvetica,sans-Serif" font-size="10.00">btf::BtfFile::taskMigration</text>
<text text-anchor="middle" x="383.5" y="-442.5" font-family="Helvetica,sans-Serif" font-size="10.00">Event</text>
</a>
</g>
</g>
<!-- Node7&#45;&gt;Node24 -->
<g id="edge45" class="edge">
<title>Node7&#45;&gt;Node24</title>
<path fill="none" stroke="midnightblue" d="M528.71,-382.34C497.56,-397.06 448.46,-420.27 416.37,-435.44"/>
<polygon fill="midnightblue" stroke="midnightblue" points="530.21,-385.5 537.76,-378.07 527.22,-379.18 530.21,-385.5"/>
</g>
<!-- Node8&#45;&gt;Node4 -->
<g id="edge11" class="edge">
<title>Node8&#45;&gt;Node4</title>
<path fill="none" stroke="midnightblue" d="M341,-380.8C321.98,-385.82 299.04,-391.02 278,-393.5 219.74,-400.37 204.35,-399.59 146,-393.5 128.21,-391.64 108.76,-387.77 92.51,-384.01"/>
<polygon fill="midnightblue" stroke="midnightblue" points="342.1,-384.13 350.84,-378.13 340.27,-377.37 342.1,-384.13"/>
</g>
<!-- Node9 -->
<g id="node9" class="node">
<title>Node9</title>
<g id="a_node9"><a xlink:href="classbtf_1_1_btf_file.html#ae1e0e725a1569e510b767acc6ce2d648" target="_top" xlink:title="Appends the data from a BTF file. Currently only import into an empty BTF file is supported.">
<polygon fill="white" stroke="black" points="146,-365 146,-384 278,-384 278,-365 146,-365"/>
<text text-anchor="middle" x="212" y="-372" font-family="Helvetica,sans-Serif" font-size="10.00">btf::BtfFile::importFromFile</text>
</a>
</g>
</g>
<!-- Node8&#45;&gt;Node9 -->
<g id="edge9" class="edge">
<title>Node8&#45;&gt;Node9</title>
<path fill="none" stroke="midnightblue" d="M318.09,-370.78C305.01,-371.24 291.25,-371.73 278.14,-372.19"/>
<polygon fill="midnightblue" stroke="midnightblue" points="318.53,-374.27 328.4,-370.41 318.29,-367.27 318.53,-374.27"/>
</g>
<!-- Node9&#45;&gt;Node4 -->
<g id="edge10" class="edge">
<title>Node9&#45;&gt;Node4</title>
<path fill="none" stroke="midnightblue" d="M135.46,-374.5C127.01,-374.5 118.54,-374.5 110.43,-374.5"/>
<polygon fill="midnightblue" stroke="midnightblue" points="135.72,-378 145.72,-374.5 135.72,-371 135.72,-378"/>
</g>
<!-- Node10&#45;&gt;Node4 -->
<g id="edge15" class="edge">
<title>Node10&#45;&gt;Node4</title>
<path fill="none" stroke="midnightblue" d="M322.73,-335.11C274.78,-339.22 205.84,-346.05 146,-355.5 129.91,-358.04 112.35,-361.57 97.06,-364.9"/>
<polygon fill="midnightblue" stroke="midnightblue" points="323.26,-338.58 332.93,-334.25 322.67,-331.6 323.26,-338.58"/>
</g>
<!-- Node10&#45;&gt;Node9 -->
<g id="edge14" class="edge">
<title>Node10&#45;&gt;Node9</title>
<path fill="none" stroke="midnightblue" d="M336.03,-342.56C308.85,-349.62 275.01,-358.4 249.71,-364.97"/>
<polygon fill="midnightblue" stroke="midnightblue" points="336.92,-345.95 345.72,-340.05 335.16,-339.17 336.92,-345.95"/>
</g>
<!-- Node11&#45;&gt;Node4 -->
<g id="edge19" class="edge">
<title>Node11&#45;&gt;Node4</title>
<path fill="none" stroke="midnightblue" d="M310.9,-524.35C261.78,-516.3 196.58,-500.62 146,-470.5 107.53,-447.59 75.21,-403.49 62.17,-384.07"/>
<polygon fill="midnightblue" stroke="midnightblue" points="310.39,-527.81 320.81,-525.9 311.48,-520.89 310.39,-527.81"/>
</g>
<!-- Node11&#45;&gt;Node9 -->
<g id="edge17" class="edge">
<title>Node11&#45;&gt;Node9</title>
<path fill="none" stroke="midnightblue" d="M323.16,-518.88C319.95,-517.28 316.88,-515.49 314,-513.5 263.51,-478.47 228.88,-409.81 217.28,-384.33"/>
<polygon fill="midnightblue" stroke="midnightblue" points="321.87,-522.14 332.44,-522.91 324.66,-515.72 321.87,-522.14"/>
</g>
<!-- Node12 -->
<g id="node12" class="node">
<title>Node12</title>
<g id="a_node12"><a xlink:href="classbtf_1_1_btf_file.html#a67251691e4a66475a4a5a1206687247d" target="_top" xlink:title="Emits an OS event (source is a core or a process depending on the value of the core_is_source paramet...">
<polygon fill="white" stroke="black" points="161.5,-555 161.5,-574 262.5,-574 262.5,-555 161.5,-555"/>
<text text-anchor="middle" x="212" y="-562" font-family="Helvetica,sans-Serif" font-size="10.00">btf::BtfFile::osEvent</text>
</a>
</g>
</g>
<!-- Node11&#45;&gt;Node12 -->
<g id="edge18" class="edge">
<title>Node11&#45;&gt;Node12</title>
<path fill="none" stroke="midnightblue" d="M322.11,-543.9C302.61,-547.58 281.24,-551.62 262.62,-555.13"/>
<polygon fill="midnightblue" stroke="midnightblue" points="322.93,-547.31 332.1,-542.01 321.63,-540.43 322.93,-547.31"/>
</g>
<!-- Node13&#45;&gt;Node4 -->
<g id="edge23" class="edge">
<title>Node13&#45;&gt;Node4</title>
<path fill="none" stroke="midnightblue" d="M327.25,-279.59C322.66,-277.8 318.18,-275.78 314,-273.5 295.2,-263.26 298.01,-249.11 278,-241.5 223.16,-220.65 197.82,-214 146,-241.5 95.02,-268.56 67.64,-338.82 59.03,-364.72"/>
<polygon fill="midnightblue" stroke="midnightblue" points="326.18,-282.93 336.77,-282.96 328.51,-276.33 326.18,-282.93"/>
</g>
<!-- Node13&#45;&gt;Node9 -->
<g id="edge21" class="edge">
<title>Node13&#45;&gt;Node9</title>
<path fill="none" stroke="midnightblue" d="M330.85,-305.1C325.08,-307.01 319.36,-309.15 314,-311.5 280.13,-326.39 244.25,-351.26 225.72,-364.87"/>
<polygon fill="midnightblue" stroke="midnightblue" points="332.03,-308.39 340.54,-302.08 329.95,-301.71 332.03,-308.39"/>
</g>
<!-- Node14 -->
<g id="node14" class="node">
<title>Node14</title>
<g id="a_node14"><a xlink:href="classbtf_1_1_btf_file.html#a64dd3a4762bd03767ebbc380810f1bcb" target="_top" xlink:title="Emits a process event (except task migration).">
<polygon fill="white" stroke="black" points="149.5,-251 149.5,-270 274.5,-270 274.5,-251 149.5,-251"/>
<text text-anchor="middle" x="212" y="-258" font-family="Helvetica,sans-Serif" font-size="10.00">btf::BtfFile::processEvent</text>
</a>
</g>
</g>
<!-- Node13&#45;&gt;Node14 -->
<g id="edge22" class="edge">
<title>Node13&#45;&gt;Node14</title>
<path fill="none" stroke="midnightblue" d="M322.24,-281.12C303.02,-277.49 281.95,-273.52 263.5,-270.03"/>
<polygon fill="midnightblue" stroke="midnightblue" points="321.63,-284.57 332.1,-282.99 322.93,-277.69 321.63,-284.57"/>
</g>
<!-- Node15 -->
<g id="node15" class="node">
<title>Node15</title>
<g id="a_node15"><a xlink:href="classbtf_1_1_btf_file.html#a37ac4560542170c72a0e1aad2d8b4753" target="_top" xlink:title="Emits a runnable event (source is a core or process depending on the value of the core_is_source para...">
<polygon fill="white" stroke="black" points="148,-289 148,-308 276,-308 276,-289 148,-289"/>
<text text-anchor="middle" x="212" y="-296" font-family="Helvetica,sans-Serif" font-size="10.00">btf::BtfFile::runnableEvent</text>
</a>
</g>
</g>
<!-- Node13&#45;&gt;Node15 -->
<g id="edge24" class="edge">
<title>Node13&#45;&gt;Node15</title>
<path fill="none" stroke="midnightblue" d="M309.34,-295.09C298.29,-295.48 286.98,-295.88 276.17,-296.26"/>
<polygon fill="midnightblue" stroke="midnightblue" points="309.51,-298.59 319.38,-294.73 309.27,-291.59 309.51,-298.59"/>
</g>
<!-- Node16&#45;&gt;Node4 -->
<g id="edge27" class="edge">
<title>Node16&#45;&gt;Node4</title>
<path fill="none" stroke="midnightblue" d="M333.93,-242.14C327.18,-240.1 320.37,-237.87 314,-235.5 297.41,-229.34 295.27,-222.37 278,-218.5 220.75,-205.66 196.8,-189.16 146,-218.5 88.87,-251.5 64.77,-336.08 58.07,-364.79"/>
<polygon fill="midnightblue" stroke="midnightblue" points="333.15,-245.56 343.73,-244.99 335.1,-238.83 333.15,-245.56"/>
</g>
<!-- Node16&#45;&gt;Node9 -->
<g id="edge26" class="edge">
<title>Node16&#45;&gt;Node9</title>
<path fill="none" stroke="midnightblue" d="M323.95,-268C320.48,-269.63 317.13,-271.46 314,-273.5 292.83,-287.3 295.56,-299.33 278,-317.5 260.69,-335.42 238.5,-354.06 225.03,-364.96"/>
<polygon fill="midnightblue" stroke="midnightblue" points="325.44,-271.17 333.36,-264.13 322.78,-264.7 325.44,-271.17"/>
</g>
<!-- Node17&#45;&gt;Node4 -->
<g id="edge30" class="edge">
<title>Node17&#45;&gt;Node4</title>
<path fill="none" stroke="midnightblue" d="M328.62,-204.95C268.42,-193.29 175.54,-179.38 146,-197.5 83.11,-236.07 62.47,-333.84 57.39,-364.89"/>
<polygon fill="midnightblue" stroke="midnightblue" points="328.23,-208.44 338.72,-206.94 329.58,-201.57 328.23,-208.44"/>
</g>
<!-- Node17&#45;&gt;Node9 -->
<g id="edge29" class="edge">
<title>Node17&#45;&gt;Node9</title>
<path fill="none" stroke="midnightblue" d="M320.26,-230.85C318.06,-232.26 315.96,-233.8 314,-235.5 283.92,-261.56 301.52,-285.39 278,-317.5 263.72,-336.99 241.69,-354.51 227.31,-364.83"/>
<polygon fill="midnightblue" stroke="midnightblue" points="322.03,-233.87 329.19,-226.07 318.72,-227.7 322.03,-233.87"/>
</g>
<!-- Node18&#45;&gt;Node4 -->
<g id="edge33" class="edge">
<title>Node18&#45;&gt;Node4</title>
<path fill="none" stroke="midnightblue" d="M337.89,-166.7C287.08,-155.98 203.65,-146.99 146,-184.5 80.23,-227.3 61.45,-332.22 57.12,-364.73"/>
<polygon fill="midnightblue" stroke="midnightblue" points="337.39,-170.17 347.91,-168.92 338.9,-163.33 337.39,-170.17"/>
</g>
<!-- Node18&#45;&gt;Node9 -->
<g id="edge32" class="edge">
<title>Node18&#45;&gt;Node9</title>
<path fill="none" stroke="midnightblue" d="M318.75,-193.45C317.08,-194.7 315.49,-196.04 314,-197.5 274.22,-236.46 308.1,-270.66 278,-317.5 265.02,-337.7 242.87,-354.92 228.09,-364.99"/>
<polygon fill="midnightblue" stroke="midnightblue" points="320.96,-196.2 327.69,-188.03 317.33,-190.22 320.96,-196.2"/>
</g>
<!-- Node19&#45;&gt;Node4 -->
<g id="edge35" class="edge">
<title>Node19&#45;&gt;Node4</title>
<path fill="none" stroke="midnightblue" d="M156.87,-84.89C152.88,-87.72 149.18,-90.91 146,-94.5 71.2,-178.99 58.47,-326.27 56.39,-364.97"/>
<polygon fill="midnightblue" stroke="midnightblue" points="158.75,-87.84 165.39,-79.58 155.05,-81.9 158.75,-87.84"/>
</g>
<!-- Node20&#45;&gt;Node4 -->
<g id="edge37" class="edge">
<title>Node20&#45;&gt;Node4</title>
<path fill="none" stroke="midnightblue" d="M148.79,-36.69C147.82,-37.59 146.89,-38.53 146,-39.5 55.06,-139.14 54.36,-320.89 55.6,-364.78"/>
<polygon fill="midnightblue" stroke="midnightblue" points="151.05,-39.37 156.88,-30.53 146.81,-33.81 151.05,-39.37"/>
</g>
<!-- Node21&#45;&gt;Node4 -->
<g id="edge39" class="edge">
<title>Node21&#45;&gt;Node4</title>
<path fill="none" stroke="midnightblue" d="M149.31,-636.58C148.16,-635.6 147.05,-634.57 146,-633.5 72.83,-558.91 58.97,-421.82 56.5,-384.24"/>
<polygon fill="midnightblue" stroke="midnightblue" points="147.29,-639.44 157.46,-642.41 151.36,-633.75 147.29,-639.44"/>
</g>
<!-- Node22&#45;&gt;Node4 -->
<g id="edge41" class="edge">
<title>Node22&#45;&gt;Node4</title>
<path fill="none" stroke="midnightblue" d="M151.19,-587.92C149.37,-586.54 147.63,-585.07 146,-583.5 84.77,-524.64 62.91,-417.23 57.47,-384.34"/>
<polygon fill="midnightblue" stroke="midnightblue" points="149.34,-590.89 159.64,-593.41 153.16,-585.03 149.34,-590.89"/>
</g>
<!-- Node23&#45;&gt;Node4 -->
<g id="edge44" class="edge">
<title>Node23&#45;&gt;Node4</title>
<path fill="none" stroke="midnightblue" d="M309.48,-483.66C261.55,-474.85 198.3,-459.97 146,-436.5 115.01,-422.59 83.36,-397.82 67.12,-384.18"/>
<polygon fill="midnightblue" stroke="midnightblue" points="309,-487.13 319.46,-485.44 310.24,-480.24 309,-487.13"/>
</g>
<!-- Node23&#45;&gt;Node9 -->
<g id="edge43" class="edge">
<title>Node23&#45;&gt;Node9</title>
<path fill="none" stroke="midnightblue" d="M325.79,-481.32C321.69,-479.6 317.72,-477.67 314,-475.5 271.8,-450.89 234.74,-404.35 219.9,-384.2"/>
<polygon fill="midnightblue" stroke="midnightblue" points="324.9,-484.72 335.49,-484.94 327.35,-478.16 324.9,-484.72"/>
</g>
<!-- Node24&#45;&gt;Node4 -->
<g id="edge47" class="edge">
<title>Node24&#45;&gt;Node4</title>
<path fill="none" stroke="midnightblue" d="M310.85,-441.86C263.52,-435.24 200.42,-424.64 146,-409.5 121.77,-402.76 95.04,-391.9 77.05,-384.07"/>
<polygon fill="midnightblue" stroke="midnightblue" points="310.62,-445.37 321,-443.26 311.57,-438.43 310.62,-445.37"/>
</g>
<!-- Node24&#45;&gt;Node9 -->
<g id="edge46" class="edge">
<title>Node24&#45;&gt;Node9</title>
<path fill="none" stroke="midnightblue" d="M338.55,-431.36C330.38,-427.78 321.92,-424.04 314,-420.5 286.2,-408.08 254.25,-393.47 233.85,-384.1"/>
<polygon fill="midnightblue" stroke="midnightblue" points="337.4,-434.68 347.96,-435.49 340.21,-428.27 337.4,-434.68"/>
</g>
<!-- Node25&#45;&gt;Node3 -->
<g id="edge50" class="edge">
<title>Node25&#45;&gt;Node3</title>
<path fill="none" stroke="midnightblue" d="M502.1,-583.4C497.56,-585.19 493.13,-587.21 489,-589.5 470.01,-600.01 471.62,-611.35 453,-622.5 443.05,-628.46 431.41,-633.23 420.57,-636.9"/>
<polygon fill="midnightblue" stroke="midnightblue" points="503.28,-586.69 511.52,-580.04 500.93,-580.1 503.28,-586.69"/>
</g>
<!-- Node25&#45;&gt;Node9 -->
<g id="edge49" class="edge">
<title>Node25&#45;&gt;Node9</title>
<path fill="none" stroke="midnightblue" d="M549.77,-551.57C535.12,-520.27 501.46,-458.04 453,-426.5 424.59,-408.01 338.89,-392.43 278.02,-383.28"/>
<polygon fill="midnightblue" stroke="midnightblue" points="546.68,-553.25 554,-560.91 553.06,-550.36 546.68,-553.25"/>
</g>
</g>
</svg>
