<?xml version="1.0" encoding="UTF-8" standalone="no"?>
<!DOCTYPE svg PUBLIC "-//W3C//DTD SVG 1.1//EN"
 "http://www.w3.org/Graphics/SVG/1.1/DTD/svg11.dtd">
<!-- Generated by graphviz version 2.47.3 (20210619.1520)
 -->
<!-- Title: btf::BtfFile::runnableEvent Pages: 1 -->
<svg width="450pt" height="142pt"
 viewBox="0.00 0.00 450.00 142.00" xmlns="http://www.w3.org/2000/svg" xmlns:xlink="http://www.w3.org/1999/xlink">
<g id="graph0" class="graph" transform="scale(1 1) rotate(0) translate(4 138)">
<title>btf::BtfFile::runnableEvent</title>
<polygon fill="white" stroke="transparent" points="-4,4 -4,-138 446,-138 446,4 -4,4"/>
<!-- Node1 -->
<g id="node1" class="node">
<title>Node1</title>
<g id="a_node1"><a xlink:title="Emits a runnable event (source is a process). See overloaded function for more information.">
<polygon fill="#bfbfbf" stroke="black" points="314,-57.5 314,-76.5 442,-76.5 442,-57.5 314,-57.5"/>
<text text-anchor="middle" x="378" y="-64.5" font-family="Helvetica,sans-Serif" font-size="10.00">btf::BtfFile::runnableEvent</text>
</a>
</g>
</g>
<!-- Node2 -->
<g id="node2" class="node">
<title>Node2</title>
<g id="a_node2"><a xlink:href="classbtf_1_1_btf_file.html#ae1e0e725a1569e510b767acc6ce2d648" target="_top" xlink:title="Appends the data from a BTF file. Currently only import into an empty BTF file is supported.">
<polygon fill="white" stroke="black" points="146,-114.5 146,-133.5 278,-133.5 278,-114.5 146,-114.5"/>
<text text-anchor="middle" x="212" y="-121.5" font-family="Helvetica,sans-Serif" font-size="10.00">btf::BtfFile::importFromFile</text>
</a>
</g>
</g>
<!-- Node1&#45;&gt;Node2 -->
<g id="edge1" class="edge">
<title>Node1&#45;&gt;Node2</title>
<path fill="none" stroke="midnightblue" d="M339.8,-79.93C309.63,-90.42 267.77,-104.96 240.54,-114.43"/>
<polygon fill="midnightblue" stroke="midnightblue" points="341.25,-83.13 349.55,-76.54 338.96,-76.52 341.25,-83.13"/>
</g>
<!-- Node3 -->
<g id="node3" class="node">
<title>Node3</title>
<g id="a_node3"><a xlink:href="libbtf__binding_8cpp.html#adfae743278a01284c171e56ddabf18bd" target="_top" xlink:title="Macro that creates a function that will be called when the module pybtf is imported within python....">
<polygon fill="white" stroke="black" points="0,-95.5 0,-114.5 110,-114.5 110,-95.5 0,-95.5"/>
<text text-anchor="middle" x="55" y="-102.5" font-family="Helvetica,sans-Serif" font-size="10.00">PYBIND11_MODULE</text>
</a>
</g>
</g>
<!-- Node1&#45;&gt;Node3 -->
<g id="edge4" class="edge">
<title>Node1&#45;&gt;Node3</title>
<path fill="none" stroke="midnightblue" d="M303.97,-75.65C244.99,-82.63 163.33,-92.29 110.09,-98.6"/>
<polygon fill="midnightblue" stroke="midnightblue" points="304.44,-79.11 313.96,-74.46 303.62,-72.16 304.44,-79.11"/>
</g>
<!-- Node4 -->
<g id="node4" class="node">
<title>Node4</title>
<g id="a_node4"><a xlink:href="classbtf_1_1_btf_file.html#a64dd3a4762bd03767ebbc380810f1bcb" target="_top" xlink:title="Emits a process event (except task migration).">
<polygon fill="white" stroke="black" points="149.5,-38.5 149.5,-57.5 274.5,-57.5 274.5,-38.5 149.5,-38.5"/>
<text text-anchor="middle" x="212" y="-45.5" font-family="Helvetica,sans-Serif" font-size="10.00">btf::BtfFile::processEvent</text>
</a>
</g>
</g>
<!-- Node1&#45;&gt;Node4 -->
<g id="edge3" class="edge">
<title>Node1&#45;&gt;Node4</title>
<path fill="none" stroke="midnightblue" d="M303.59,-58.5C293.91,-57.37 284.07,-56.23 274.62,-55.14"/>
<polygon fill="midnightblue" stroke="midnightblue" points="303.26,-61.98 313.59,-59.65 304.06,-55.03 303.26,-61.98"/>
</g>
<!-- Node5 -->
<g id="node5" class="node">
<title>Node5</title>
<g id="a_node5"><a xlink:href="classbtf_1_1_btf_file.html#a37ac4560542170c72a0e1aad2d8b4753" target="_top" xlink:title="Emits a runnable event (source is a process).">
<polygon fill="white" stroke="black" points="148,-0.5 148,-19.5 276,-19.5 276,-0.5 148,-0.5"/>
<text text-anchor="middle" x="212" y="-7.5" font-family="Helvetica,sans-Serif" font-size="10.00">btf::BtfFile::runnableEvent</text>
</a>
</g>
</g>
<!-- Node1&#45;&gt;Node5 -->
<g id="edge5" class="edge">
<title>Node1&#45;&gt;Node5</title>
<path fill="none" stroke="midnightblue" d="M344.13,-53.6C324.98,-45.99 300.28,-36.52 278,-29 268.2,-25.69 257.45,-22.41 247.57,-19.53"/>
<polygon fill="midnightblue" stroke="midnightblue" points="343.01,-56.93 353.59,-57.39 345.61,-50.43 343.01,-56.93"/>
</g>
<!-- Node2&#45;&gt;Node3 -->
<g id="edge2" class="edge">
<title>Node2&#45;&gt;Node3</title>
<path fill="none" stroke="midnightblue" d="M135.74,-114.77C127.2,-113.73 118.63,-112.68 110.43,-111.67"/>
<polygon fill="midnightblue" stroke="midnightblue" points="135.36,-118.25 145.72,-116 136.22,-111.31 135.36,-118.25"/>
</g>
</g>
</svg>
