<?xml version="1.0" encoding="UTF-8" standalone="no"?>
<!DOCTYPE svg PUBLIC "-//W3C//DTD SVG 1.1//EN"
 "http://www.w3.org/Graphics/SVG/1.1/DTD/svg11.dtd">
<!-- Generated by graphviz version 2.47.3 (20210619.1520)
 -->
<!-- Title: btf::BtfFile::runnableTerminateCurrent Pages: 1 -->
<!--zoomable 186 -->
<svg id="main" version="1.1" xmlns="http://www.w3.org/2000/svg" xmlns:xlink="http://www.w3.org/1999/xlink" xml:space="preserve" onload="init(evt)">
<style type="text/css"><![CDATA[
.edge:hover path { stroke: red; }
.edge:hover polygon { stroke: red; fill: red; }
]]></style>
<script type="text/javascript"><![CDATA[
var edges = document.getElementsByTagName('g');
if (edges && edges.length) {
  for (var i=0;i<edges.length;i++) {
    if (edges[i].id.substr(0,4)=='edge') {
      edges[i].setAttribute('class','edge');
    }
  }
}
]]></script>
        <defs>
                <circle id="rim" cx="0" cy="0" r="7"/>
                <circle id="rim2" cx="0" cy="0" r="3.5"/>
                <g id="zoomPlus">
                        <use xlink:href="#rim" fill="#404040">
                                <set attributeName="fill" to="#808080" begin="zoomplus.mouseover" end="zoomplus.mouseout"/>
                        </use>
                        <path d="M-4,0h8M0,-4v8" fill="none" stroke="white" stroke-width="1.5" pointer-events="none"/>
                </g>
                <g id="zoomMin">
                        <use xlink:href="#rim" fill="#404040">
                                <set attributeName="fill" to="#808080" begin="zoomminus.mouseover" end="zoomminus.mouseout"/>
                        </use>
                        <path d="M-4,0h8" fill="none" stroke="white" stroke-width="1.5" pointer-events="none"/>
                </g>
                <g id="dirArrow">
                        <path fill="none" stroke="white" stroke-width="1.5" d="M0,-3.0v7 M-2.5,-0.5L0,-3.0L2.5,-0.5"/>
                </g>
               <g id="resetDef">
                       <use xlink:href="#rim2" fill="#404040">
                               <set attributeName="fill" to="#808080" begin="reset.mouseover" end="reset.mouseout"/>
                       </use>
               </g>
        </defs>

<script type="text/javascript">
var viewWidth = 653;
var viewHeight = 186;
var sectionId = 'dynsection-12';
</script>
<script xlink:href="svgpan.js"/>
<svg id="graph" class="graph">
<g id="viewport">
<title>btf::BtfFile::runnableTerminateCurrent</title>
<polygon fill="white" stroke="transparent" points="-4,4 -4,-182 649,-182 649,4 -4,4"/>
<!-- Node1 -->
<g id="node1" class="node">
<title>Node1</title>
<g id="a_node1"><a xlink:title="Emits a runnable terminate event on the current running runnable (source is a core)....">
<polygon fill="#bfbfbf" stroke="black" points="0,-73.5 0,-103.5 146,-103.5 146,-73.5 0,-73.5"/>
<text text-anchor="start" x="8" y="-91.5" font-family="Helvetica,sans-Serif" font-size="10.00">btf::BtfFile::runnableTerminate</text>
<text text-anchor="middle" x="73" y="-80.5" font-family="Helvetica,sans-Serif" font-size="10.00">Current</text>
</a>
</g>
</g>
<!-- Node2 -->
<g id="node2" class="node">
<title>Node2</title>
<g id="a_node2"><a xlink:href="namespacehelper_1_1logging.html#a0e1881bbc937b702aa298c5f5141b79b" target="_top" xlink:title="Writes a trace message to the log.">
<polygon fill="white" stroke="black" points="182,-79 182,-98 310,-98 310,-79 182,-79"/>
<text text-anchor="middle" x="246" y="-86" font-family="Helvetica,sans-Serif" font-size="10.00">helper::logging::printTrace</text>
</a>
</g>
</g>
<!-- Node1&#45;&gt;Node2 -->
<g id="edge1" class="edge">
<title>Node1&#45;&gt;Node2</title>
<path fill="none" stroke="midnightblue" d="M146.02,-88.5C154.46,-88.5 163.08,-88.5 171.53,-88.5"/>
<polygon fill="midnightblue" stroke="midnightblue" points="171.74,-92 181.74,-88.5 171.74,-85 171.74,-92"/>
</g>
<!-- Node3 -->
<g id="node3" class="node">
<title>Node3</title>
<g id="a_node3"><a xlink:href="namespacehelper_1_1logging.html#aadee8ee5d31250ae8288888fa86814a3" target="_top" xlink:title="Prints a log message to the log.">
<polygon fill="white" stroke="black" points="346,-79 346,-98 466,-98 466,-79 346,-79"/>
<text text-anchor="middle" x="406" y="-86" font-family="Helvetica,sans-Serif" font-size="10.00">helper::logging::printLog</text>
</a>
</g>
</g>
<!-- Node2&#45;&gt;Node3 -->
<g id="edge2" class="edge">
<title>Node2&#45;&gt;Node3</title>
<path fill="none" stroke="midnightblue" d="M310.35,-88.5C318.72,-88.5 327.32,-88.5 335.78,-88.5"/>
<polygon fill="midnightblue" stroke="midnightblue" points="335.99,-92 345.99,-88.5 335.99,-85 335.99,-92"/>
</g>
<!-- Node4 -->
<g id="node4" class="node">
<title>Node4</title>
<g id="a_node4"><a xlink:href="classhelper_1_1logging_1_1_global_logger.html#a080a88af50f5861331d887d02324e9c2" target="_top" xlink:title="Gets the logger (ostream).">
<polygon fill="white" stroke="black" points="502,-147.5 502,-177.5 645,-177.5 645,-147.5 502,-147.5"/>
<text text-anchor="start" x="510" y="-165.5" font-family="Helvetica,sans-Serif" font-size="10.00">helper::logging::GlobalLogger</text>
<text text-anchor="middle" x="573.5" y="-154.5" font-family="Helvetica,sans-Serif" font-size="10.00">::getLogger</text>
</a>
</g>
</g>
<!-- Node3&#45;&gt;Node4 -->
<g id="edge3" class="edge">
<title>Node3&#45;&gt;Node4</title>
<path fill="none" stroke="midnightblue" d="M423.43,-98.16C442.07,-108.88 473.58,-126.27 502,-138.5 506.37,-140.38 510.94,-142.22 515.57,-143.98"/>
<polygon fill="midnightblue" stroke="midnightblue" points="514.5,-147.32 525.09,-147.5 516.92,-140.75 514.5,-147.32"/>
</g>
<!-- Node5 -->
<g id="node5" class="node">
<title>Node5</title>
<g id="a_node5"><a xlink:href="classhelper_1_1logging_1_1_global_logger.html#a956281901fd88046239494c600e3c5e5" target="_top" xlink:title="Gets the null logger (ostream).">
<polygon fill="white" stroke="black" points="502,-98.5 502,-128.5 645,-128.5 645,-98.5 502,-98.5"/>
<text text-anchor="start" x="510" y="-116.5" font-family="Helvetica,sans-Serif" font-size="10.00">helper::logging::GlobalLogger</text>
<text text-anchor="middle" x="573.5" y="-105.5" font-family="Helvetica,sans-Serif" font-size="10.00">::getNullLogger</text>
</a>
</g>
</g>
<!-- Node3&#45;&gt;Node5 -->
<g id="edge4" class="edge">
<title>Node3&#45;&gt;Node5</title>
<path fill="none" stroke="midnightblue" d="M466.28,-97.45C474.55,-98.7 483.16,-100 491.73,-101.3"/>
<polygon fill="midnightblue" stroke="midnightblue" points="491.36,-104.78 501.77,-102.82 492.4,-97.86 491.36,-104.78"/>
</g>
<!-- Node6 -->
<g id="node6" class="node">
<title>Node6</title>
<g id="a_node6"><a xlink:href="namespacehelper_1_1logging.html#a69b892408158ee6bed51c5aafa694af7" target="_top" xlink:title="Converts the enum LogLevel into string.">
<polygon fill="white" stroke="black" points="513.5,-49.5 513.5,-79.5 633.5,-79.5 633.5,-49.5 513.5,-49.5"/>
<text text-anchor="start" x="521.5" y="-67.5" font-family="Helvetica,sans-Serif" font-size="10.00">helper::logging::logLevel</text>
<text text-anchor="middle" x="573.5" y="-56.5" font-family="Helvetica,sans-Serif" font-size="10.00">ToString</text>
</a>
</g>
</g>
<!-- Node3&#45;&gt;Node6 -->
<g id="edge5" class="edge">
<title>Node3&#45;&gt;Node6</title>
<path fill="none" stroke="midnightblue" d="M466.28,-79.9C478.24,-78.17 490.91,-76.33 503.17,-74.55"/>
<polygon fill="midnightblue" stroke="midnightblue" points="503.96,-77.98 513.35,-73.08 502.96,-71.05 503.96,-77.98"/>
</g>
<!-- Node7 -->
<g id="node7" class="node">
<title>Node7</title>
<g id="a_node7"><a xlink:href="namespacehelper_1_1logging.html#a33b1f83f96be6edb81fa28ddba33179d" target="_top" xlink:title="Gets the source file name out of the path.">
<polygon fill="white" stroke="black" points="506,-0.5 506,-30.5 641,-30.5 641,-0.5 506,-0.5"/>
<text text-anchor="start" x="514" y="-18.5" font-family="Helvetica,sans-Serif" font-size="10.00">helper::logging::stripSource</text>
<text text-anchor="middle" x="573.5" y="-7.5" font-family="Helvetica,sans-Serif" font-size="10.00">FileName</text>
</a>
</g>
</g>
<!-- Node3&#45;&gt;Node7 -->
<g id="edge6" class="edge">
<title>Node3&#45;&gt;Node7</title>
<path fill="none" stroke="midnightblue" d="M424.19,-78.98C442.99,-68.77 474.14,-52.42 502,-40.5 507.07,-38.33 512.41,-36.19 517.77,-34.13"/>
<polygon fill="midnightblue" stroke="midnightblue" points="519.28,-37.31 527.42,-30.52 516.82,-30.75 519.28,-37.31"/>
</g>
</g>
</svg>
        <g id="navigator" transform="translate(0 0)" fill="#404254">
                <rect fill="#f2f5e9" fill-opacity="0.5" stroke="#606060" stroke-width=".5" x="0" y="0" width="60" height="60"/>
                <use id="zoomplus" xlink:href="#zoomPlus" x="17" y="9" onmousedown="handleZoom(evt,'in')"/>
                <use id="zoomminus" xlink:href="#zoomMin" x="42" y="9" onmousedown="handleZoom(evt,'out')"/>
                <use id="reset" xlink:href="#resetDef" x="30" y="36" onmousedown="handleReset()"/>
                <g id="arrowUp" xlink:href="#dirArrow" transform="translate(30 24)" onmousedown="handlePan(0,-1)">
                  <use xlink:href="#rim" fill="#404040">
                        <set attributeName="fill" to="#808080" begin="arrowUp.mouseover" end="arrowUp.mouseout"/>
                  </use>
                  <path fill="none" stroke="white" stroke-width="1.5" d="M0,-3.0v7 M-2.5,-0.5L0,-3.0L2.5,-0.5"/>
                </g>
                <g id="arrowRight" xlink:href="#dirArrow" transform="rotate(90) translate(36 -43)" onmousedown="handlePan(1,0)">
                  <use xlink:href="#rim" fill="#404040">
                        <set attributeName="fill" to="#808080" begin="arrowRight.mouseover" end="arrowRight.mouseout"/>
                  </use>
                  <path fill="none" stroke="white" stroke-width="1.5" d="M0,-3.0v7 M-2.5,-0.5L0,-3.0L2.5,-0.5"/>
                </g>
                <g id="arrowDown" xlink:href="#dirArrow" transform="rotate(180) translate(-30 -48)" onmousedown="handlePan(0,1)">
                  <use xlink:href="#rim" fill="#404040">
                        <set attributeName="fill" to="#808080" begin="arrowDown.mouseover" end="arrowDown.mouseout"/>
                  </use>
                  <path fill="none" stroke="white" stroke-width="1.5" d="M0,-3.0v7 M-2.5,-0.5L0,-3.0L2.5,-0.5"/>
                </g>
                <g id="arrowLeft" xlink:href="#dirArrow" transform="rotate(270) translate(-36 17)" onmousedown="handlePan(-1,0)">
                  <use xlink:href="#rim" fill="#404040">
                        <set attributeName="fill" to="#808080" begin="arrowLeft.mouseover" end="arrowLeft.mouseout"/>
                  </use>
                  <path fill="none" stroke="white" stroke-width="1.5" d="M0,-3.0v7 M-2.5,-0.5L0,-3.0L2.5,-0.5"/>
                </g>
        </g>
        <svg viewBox="0 0 15 15" width="100%" height="30px" preserveAspectRatio="xMaxYMin meet">
         <g id="arrow_out" transform="scale(0.3 0.3)">
          <a xlink:href="classbtf_1_1_btf_file_a82246d08d01e51982543447aa48019a8_cgraph_org.svg" target="_base">
           <rect id="button" ry="5" rx="5" y="6" x="6" height="38" width="38"
                fill="#f2f5e9" fill-opacity="0.5" stroke="#606060" stroke-width="1.0"/>
           <path id="arrow"
             d="M 11.500037,31.436501 C 11.940474,20.09759 22.043105,11.32322 32.158766,21.979434 L 37.068811,17.246167 C 37.068811,17.246167 37.088388,32 37.088388,32 L 22.160133,31.978069 C 22.160133,31.978069 26.997745,27.140456 26.997745,27.140456 C 18.528582,18.264221 13.291696,25.230495 11.500037,31.436501 z"
             style="fill:#404040;"/>
          </a>
         </g>
        </svg>
</svg>
