<?xml version="1.0" encoding="UTF-8" standalone="no"?>
<!DOCTYPE svg PUBLIC "-//W3C//DTD SVG 1.1//EN"
 "http://www.w3.org/Graphics/SVG/1.1/DTD/svg11.dtd">
<!-- Generated by graphviz version 2.47.3 (20210619.1520)
 -->
<!-- Title: btf::Simulation::eventToString Pages: 1 -->
<svg width="585pt" height="39pt"
 viewBox="0.00 0.00 585.00 39.00" xmlns="http://www.w3.org/2000/svg" xmlns:xlink="http://www.w3.org/1999/xlink">
<g id="graph0" class="graph" transform="scale(1 1) rotate(0) translate(4 35)">
<title>btf::Simulation::eventToString</title>
<polygon fill="white" stroke="transparent" points="-4,4 -4,-35 581,-35 581,4 -4,4"/>
<!-- Node1 -->
<g id="node1" class="node">
<title>Node1</title>
<g id="a_node1"><a xlink:title="Converts the enum Events into string.">
<polygon fill="#bfbfbf" stroke="black" points="459,-0.5 459,-30.5 577,-30.5 577,-0.5 459,-0.5"/>
<text text-anchor="start" x="467" y="-18.5" font-family="Helvetica,sans-Serif" font-size="10.00">btf::Simulation::eventTo</text>
<text text-anchor="middle" x="518" y="-7.5" font-family="Helvetica,sans-Serif" font-size="10.00">String</text>
</a>
</g>
</g>
<!-- Node2 -->
<g id="node2" class="node">
<title>Node2</title>
<g id="a_node2"><a xlink:href="classbtf_1_1_btf_entry.html#a056141170fa8f9dd0001691a1bb336b8" target="_top" xlink:title="Converts union Events into string according to the type_ of the BtfEntry.">
<polygon fill="white" stroke="black" points="290,-6 290,-25 423,-25 423,-6 290,-6"/>
<text text-anchor="middle" x="356.5" y="-13" font-family="Helvetica,sans-Serif" font-size="10.00">btf::BtfEntry::eventToString</text>
</a>
</g>
</g>
<!-- Node1&#45;&gt;Node2 -->
<g id="edge1" class="edge">
<title>Node1&#45;&gt;Node2</title>
<path fill="none" stroke="midnightblue" d="M448.71,-15.5C440.2,-15.5 431.52,-15.5 423.05,-15.5"/>
<polygon fill="midnightblue" stroke="midnightblue" points="448.97,-19 458.97,-15.5 448.97,-12 448.97,-19"/>
</g>
<!-- Node3 -->
<g id="node3" class="node">
<title>Node3</title>
<g id="a_node3"><a xlink:href="classbtf_1_1_btf_entry.html#ac6671a1d4b5a7d46aa0402142a79d4b8" target="_top" xlink:title="Converts a BtfEntry into string.">
<polygon fill="white" stroke="black" points="146,-6 146,-25 254,-25 254,-6 146,-6"/>
<text text-anchor="middle" x="200" y="-13" font-family="Helvetica,sans-Serif" font-size="10.00">btf::BtfEntry::toString</text>
</a>
</g>
</g>
<!-- Node2&#45;&gt;Node3 -->
<g id="edge2" class="edge">
<title>Node2&#45;&gt;Node3</title>
<path fill="none" stroke="midnightblue" d="M279.92,-15.5C271.32,-15.5 262.7,-15.5 254.47,-15.5"/>
<polygon fill="midnightblue" stroke="midnightblue" points="279.98,-19 289.98,-15.5 279.98,-12 279.98,-19"/>
</g>
<!-- Node4 -->
<g id="node4" class="node">
<title>Node4</title>
<g id="a_node4"><a xlink:href="libbtf__binding_8cpp.html#adfae743278a01284c171e56ddabf18bd" target="_top" xlink:title="Macro that creates a function that will be called when the module pybtf is imported within python....">
<polygon fill="white" stroke="black" points="0,-6 0,-25 110,-25 110,-6 0,-6"/>
<text text-anchor="middle" x="55" y="-13" font-family="Helvetica,sans-Serif" font-size="10.00">PYBIND11_MODULE</text>
</a>
</g>
</g>
<!-- Node3&#45;&gt;Node4 -->
<g id="edge3" class="edge">
<title>Node3&#45;&gt;Node4</title>
<path fill="none" stroke="midnightblue" d="M135.56,-15.5C127.11,-15.5 118.52,-15.5 110.25,-15.5"/>
<polygon fill="midnightblue" stroke="midnightblue" points="135.75,-19 145.75,-15.5 135.75,-12 135.75,-19"/>
</g>
</g>
</svg>
