<?xml version="1.0" encoding="UTF-8" standalone="no"?>
<!DOCTYPE svg PUBLIC "-//W3C//DTD SVG 1.1//EN"
 "http://www.w3.org/Graphics/SVG/1.1/DTD/svg11.dtd">
<!-- Generated by graphviz version 2.47.3 (20210619.1520)
 -->
<!-- Title: btf::BtfFile::taskMigrationEvent Pages: 1 -->
<svg width="632pt" height="186pt"
 viewBox="0.00 0.00 632.00 186.00" xmlns="http://www.w3.org/2000/svg" xmlns:xlink="http://www.w3.org/1999/xlink">
<g id="graph0" class="graph" transform="scale(1 1) rotate(0) translate(4 182)">
<title>btf::BtfFile::taskMigrationEvent</title>
<polygon fill="white" stroke="transparent" points="-4,4 -4,-182 628,-182 628,4 -4,4"/>
<!-- Node1 -->
<g id="node1" class="node">
<title>Node1</title>
<g id="a_node1"><a xlink:title="Emits a task migration event. See overloaded function for more information.">
<polygon fill="#bfbfbf" stroke="black" points="0,-73.5 0,-103.5 125,-103.5 125,-73.5 0,-73.5"/>
<text text-anchor="start" x="8" y="-91.5" font-family="Helvetica,sans-Serif" font-size="10.00">btf::BtfFile::taskMigration</text>
<text text-anchor="middle" x="62.5" y="-80.5" font-family="Helvetica,sans-Serif" font-size="10.00">Event</text>
</a>
</g>
</g>
<!-- Node2 -->
<g id="node2" class="node">
<title>Node2</title>
<g id="a_node2"><a xlink:href="namespacehelper_1_1logging.html#a0e1881bbc937b702aa298c5f5141b79b" target="_top" xlink:title="Writes a trace message to the log.">
<polygon fill="white" stroke="black" points="161,-79 161,-98 289,-98 289,-79 161,-79"/>
<text text-anchor="middle" x="225" y="-86" font-family="Helvetica,sans-Serif" font-size="10.00">helper::logging::printTrace</text>
</a>
</g>
</g>
<!-- Node1&#45;&gt;Node2 -->
<g id="edge1" class="edge">
<title>Node1&#45;&gt;Node2</title>
<path fill="none" stroke="midnightblue" d="M125.09,-88.5C133.55,-88.5 142.29,-88.5 150.92,-88.5"/>
<polygon fill="midnightblue" stroke="midnightblue" points="150.98,-92 160.98,-88.5 150.98,-85 150.98,-92"/>
</g>
<!-- Node3 -->
<g id="node3" class="node">
<title>Node3</title>
<g id="a_node3"><a xlink:href="namespacehelper_1_1logging.html#aadee8ee5d31250ae8288888fa86814a3" target="_top" xlink:title="Prints a log message to the log.">
<polygon fill="white" stroke="black" points="325,-79 325,-98 445,-98 445,-79 325,-79"/>
<text text-anchor="middle" x="385" y="-86" font-family="Helvetica,sans-Serif" font-size="10.00">helper::logging::printLog</text>
</a>
</g>
</g>
<!-- Node2&#45;&gt;Node3 -->
<g id="edge2" class="edge">
<title>Node2&#45;&gt;Node3</title>
<path fill="none" stroke="midnightblue" d="M289.35,-88.5C297.72,-88.5 306.32,-88.5 314.78,-88.5"/>
<polygon fill="midnightblue" stroke="midnightblue" points="314.99,-92 324.99,-88.5 314.99,-85 314.99,-92"/>
</g>
<!-- Node4 -->
<g id="node4" class="node">
<title>Node4</title>
<g id="a_node4"><a xlink:href="classhelper_1_1logging_1_1_global_logger.html#a080a88af50f5861331d887d02324e9c2" target="_top" xlink:title="Gets the logger (ostream).">
<polygon fill="white" stroke="black" points="481,-147.5 481,-177.5 624,-177.5 624,-147.5 481,-147.5"/>
<text text-anchor="start" x="489" y="-165.5" font-family="Helvetica,sans-Serif" font-size="10.00">helper::logging::GlobalLogger</text>
<text text-anchor="middle" x="552.5" y="-154.5" font-family="Helvetica,sans-Serif" font-size="10.00">::getLogger</text>
</a>
</g>
</g>
<!-- Node3&#45;&gt;Node4 -->
<g id="edge3" class="edge">
<title>Node3&#45;&gt;Node4</title>
<path fill="none" stroke="midnightblue" d="M402.43,-98.16C421.07,-108.88 452.58,-126.27 481,-138.5 485.37,-140.38 489.94,-142.22 494.57,-143.98"/>
<polygon fill="midnightblue" stroke="midnightblue" points="493.5,-147.32 504.09,-147.5 495.92,-140.75 493.5,-147.32"/>
</g>
<!-- Node5 -->
<g id="node5" class="node">
<title>Node5</title>
<g id="a_node5"><a xlink:href="classhelper_1_1logging_1_1_global_logger.html#a956281901fd88046239494c600e3c5e5" target="_top" xlink:title="Gets the null logger (ostream).">
<polygon fill="white" stroke="black" points="481,-98.5 481,-128.5 624,-128.5 624,-98.5 481,-98.5"/>
<text text-anchor="start" x="489" y="-116.5" font-family="Helvetica,sans-Serif" font-size="10.00">helper::logging::GlobalLogger</text>
<text text-anchor="middle" x="552.5" y="-105.5" font-family="Helvetica,sans-Serif" font-size="10.00">::getNullLogger</text>
</a>
</g>
</g>
<!-- Node3&#45;&gt;Node5 -->
<g id="edge4" class="edge">
<title>Node3&#45;&gt;Node5</title>
<path fill="none" stroke="midnightblue" d="M445.28,-97.45C453.55,-98.7 462.16,-100 470.73,-101.3"/>
<polygon fill="midnightblue" stroke="midnightblue" points="470.36,-104.78 480.77,-102.82 471.4,-97.86 470.36,-104.78"/>
</g>
<!-- Node6 -->
<g id="node6" class="node">
<title>Node6</title>
<g id="a_node6"><a xlink:href="namespacehelper_1_1logging.html#a69b892408158ee6bed51c5aafa694af7" target="_top" xlink:title="Converts the enum LogLevel into string.">
<polygon fill="white" stroke="black" points="492.5,-49.5 492.5,-79.5 612.5,-79.5 612.5,-49.5 492.5,-49.5"/>
<text text-anchor="start" x="500.5" y="-67.5" font-family="Helvetica,sans-Serif" font-size="10.00">helper::logging::logLevel</text>
<text text-anchor="middle" x="552.5" y="-56.5" font-family="Helvetica,sans-Serif" font-size="10.00">ToString</text>
</a>
</g>
</g>
<!-- Node3&#45;&gt;Node6 -->
<g id="edge5" class="edge">
<title>Node3&#45;&gt;Node6</title>
<path fill="none" stroke="midnightblue" d="M445.28,-79.9C457.24,-78.17 469.91,-76.33 482.17,-74.55"/>
<polygon fill="midnightblue" stroke="midnightblue" points="482.96,-77.98 492.35,-73.08 481.96,-71.05 482.96,-77.98"/>
</g>
<!-- Node7 -->
<g id="node7" class="node">
<title>Node7</title>
<g id="a_node7"><a xlink:href="namespacehelper_1_1logging.html#a33b1f83f96be6edb81fa28ddba33179d" target="_top" xlink:title="Gets the source file name out of the path.">
<polygon fill="white" stroke="black" points="485,-0.5 485,-30.5 620,-30.5 620,-0.5 485,-0.5"/>
<text text-anchor="start" x="493" y="-18.5" font-family="Helvetica,sans-Serif" font-size="10.00">helper::logging::stripSource</text>
<text text-anchor="middle" x="552.5" y="-7.5" font-family="Helvetica,sans-Serif" font-size="10.00">FileName</text>
</a>
</g>
</g>
<!-- Node3&#45;&gt;Node7 -->
<g id="edge6" class="edge">
<title>Node3&#45;&gt;Node7</title>
<path fill="none" stroke="midnightblue" d="M403.19,-78.98C421.99,-68.77 453.14,-52.42 481,-40.5 486.07,-38.33 491.41,-36.19 496.77,-34.13"/>
<polygon fill="midnightblue" stroke="midnightblue" points="498.28,-37.31 506.42,-30.52 495.82,-30.75 498.28,-37.31"/>
</g>
</g>
</svg>
