<?xml version="1.0" encoding="UTF-8" standalone="no"?>
<!DOCTYPE svg PUBLIC "-//W3C//DTD SVG 1.1//EN"
 "http://www.w3.org/Graphics/SVG/1.1/DTD/svg11.dtd">
<!-- Generated by graphviz version 2.47.3 (20210619.1520)
 -->
<!-- Title: btf::BtfFile::stimulusEvent Pages: 1 -->
<svg width="643pt" height="186pt"
 viewBox="0.00 0.00 643.00 186.00" xmlns="http://www.w3.org/2000/svg" xmlns:xlink="http://www.w3.org/1999/xlink">
<g id="graph0" class="graph" transform="scale(1 1) rotate(0) translate(4 182)">
<title>btf::BtfFile::stimulusEvent</title>
<polygon fill="white" stroke="transparent" points="-4,4 -4,-182 639,-182 639,4 -4,4"/>
<!-- Node1 -->
<g id="node1" class="node">
<title>Node1</title>
<g id="a_node1"><a xlink:title="Emits a stimulus event. See overloaded function for more information.">
<polygon fill="#bfbfbf" stroke="black" points="0,-98 0,-117 128,-117 128,-98 0,-98"/>
<text text-anchor="middle" x="64" y="-105" font-family="Helvetica,sans-Serif" font-size="10.00">btf::BtfFile::stimulusEvent</text>
</a>
</g>
</g>
<!-- Node2 -->
<g id="node2" class="node">
<title>Node2</title>
<g id="a_node2"><a xlink:href="classbtf_1_1_stimulus.html#a7a7c5b6d5ef557ed266a8ecb025e326c" target="_top" xlink:title="Converts the enum Events into string.">
<polygon fill="white" stroke="black" points="164,-117 164,-136 300,-136 300,-117 164,-117"/>
<text text-anchor="middle" x="232" y="-124" font-family="Helvetica,sans-Serif" font-size="10.00">btf::Stimulus::eventToString</text>
</a>
</g>
</g>
<!-- Node1&#45;&gt;Node2 -->
<g id="edge1" class="edge">
<title>Node1&#45;&gt;Node2</title>
<path fill="none" stroke="midnightblue" d="M128.23,-114.74C136.59,-115.69 145.24,-116.68 153.81,-117.66"/>
<polygon fill="midnightblue" stroke="midnightblue" points="153.47,-121.15 163.8,-118.81 154.26,-114.19 153.47,-121.15"/>
</g>
<!-- Node3 -->
<g id="node3" class="node">
<title>Node3</title>
<g id="a_node3"><a xlink:href="namespacehelper_1_1logging.html#a0e1881bbc937b702aa298c5f5141b79b" target="_top" xlink:title="Writes a trace message to the log.">
<polygon fill="white" stroke="black" points="168,-79 168,-98 296,-98 296,-79 168,-79"/>
<text text-anchor="middle" x="232" y="-86" font-family="Helvetica,sans-Serif" font-size="10.00">helper::logging::printTrace</text>
</a>
</g>
</g>
<!-- Node1&#45;&gt;Node3 -->
<g id="edge2" class="edge">
<title>Node1&#45;&gt;Node3</title>
<path fill="none" stroke="midnightblue" d="M128.23,-100.26C137.89,-99.16 147.92,-98.01 157.77,-96.88"/>
<polygon fill="midnightblue" stroke="midnightblue" points="158.41,-100.33 167.94,-95.72 157.61,-93.38 158.41,-100.33"/>
</g>
<!-- Node4 -->
<g id="node4" class="node">
<title>Node4</title>
<g id="a_node4"><a xlink:href="namespacehelper_1_1logging.html#aadee8ee5d31250ae8288888fa86814a3" target="_top" xlink:title="Prints a log message to the log.">
<polygon fill="white" stroke="black" points="336,-79 336,-98 456,-98 456,-79 336,-79"/>
<text text-anchor="middle" x="396" y="-86" font-family="Helvetica,sans-Serif" font-size="10.00">helper::logging::printLog</text>
</a>
</g>
</g>
<!-- Node3&#45;&gt;Node4 -->
<g id="edge3" class="edge">
<title>Node3&#45;&gt;Node4</title>
<path fill="none" stroke="midnightblue" d="M296.1,-88.5C305.79,-88.5 315.84,-88.5 325.66,-88.5"/>
<polygon fill="midnightblue" stroke="midnightblue" points="325.79,-92 335.79,-88.5 325.79,-85 325.79,-92"/>
</g>
<!-- Node5 -->
<g id="node5" class="node">
<title>Node5</title>
<g id="a_node5"><a xlink:href="classhelper_1_1logging_1_1_global_logger.html#a080a88af50f5861331d887d02324e9c2" target="_top" xlink:title="Gets the logger (ostream).">
<polygon fill="white" stroke="black" points="492,-147.5 492,-177.5 635,-177.5 635,-147.5 492,-147.5"/>
<text text-anchor="start" x="500" y="-165.5" font-family="Helvetica,sans-Serif" font-size="10.00">helper::logging::GlobalLogger</text>
<text text-anchor="middle" x="563.5" y="-154.5" font-family="Helvetica,sans-Serif" font-size="10.00">::getLogger</text>
</a>
</g>
</g>
<!-- Node4&#45;&gt;Node5 -->
<g id="edge4" class="edge">
<title>Node4&#45;&gt;Node5</title>
<path fill="none" stroke="midnightblue" d="M413.43,-98.16C432.07,-108.88 463.58,-126.27 492,-138.5 496.37,-140.38 500.94,-142.22 505.57,-143.98"/>
<polygon fill="midnightblue" stroke="midnightblue" points="504.5,-147.32 515.09,-147.5 506.92,-140.75 504.5,-147.32"/>
</g>
<!-- Node6 -->
<g id="node6" class="node">
<title>Node6</title>
<g id="a_node6"><a xlink:href="classhelper_1_1logging_1_1_global_logger.html#a956281901fd88046239494c600e3c5e5" target="_top" xlink:title="Gets the null logger (ostream).">
<polygon fill="white" stroke="black" points="492,-98.5 492,-128.5 635,-128.5 635,-98.5 492,-98.5"/>
<text text-anchor="start" x="500" y="-116.5" font-family="Helvetica,sans-Serif" font-size="10.00">helper::logging::GlobalLogger</text>
<text text-anchor="middle" x="563.5" y="-105.5" font-family="Helvetica,sans-Serif" font-size="10.00">::getNullLogger</text>
</a>
</g>
</g>
<!-- Node4&#45;&gt;Node6 -->
<g id="edge5" class="edge">
<title>Node4&#45;&gt;Node6</title>
<path fill="none" stroke="midnightblue" d="M456.28,-97.45C464.55,-98.7 473.16,-100 481.73,-101.3"/>
<polygon fill="midnightblue" stroke="midnightblue" points="481.36,-104.78 491.77,-102.82 482.4,-97.86 481.36,-104.78"/>
</g>
<!-- Node7 -->
<g id="node7" class="node">
<title>Node7</title>
<g id="a_node7"><a xlink:href="namespacehelper_1_1logging.html#a69b892408158ee6bed51c5aafa694af7" target="_top" xlink:title="Converts the enum LogLevel into string.">
<polygon fill="white" stroke="black" points="503.5,-49.5 503.5,-79.5 623.5,-79.5 623.5,-49.5 503.5,-49.5"/>
<text text-anchor="start" x="511.5" y="-67.5" font-family="Helvetica,sans-Serif" font-size="10.00">helper::logging::logLevel</text>
<text text-anchor="middle" x="563.5" y="-56.5" font-family="Helvetica,sans-Serif" font-size="10.00">ToString</text>
</a>
</g>
</g>
<!-- Node4&#45;&gt;Node7 -->
<g id="edge6" class="edge">
<title>Node4&#45;&gt;Node7</title>
<path fill="none" stroke="midnightblue" d="M456.28,-79.9C468.24,-78.17 480.91,-76.33 493.17,-74.55"/>
<polygon fill="midnightblue" stroke="midnightblue" points="493.96,-77.98 503.35,-73.08 492.96,-71.05 493.96,-77.98"/>
</g>
<!-- Node8 -->
<g id="node8" class="node">
<title>Node8</title>
<g id="a_node8"><a xlink:href="namespacehelper_1_1logging.html#a33b1f83f96be6edb81fa28ddba33179d" target="_top" xlink:title="Gets the source file name out of the path.">
<polygon fill="white" stroke="black" points="496,-0.5 496,-30.5 631,-30.5 631,-0.5 496,-0.5"/>
<text text-anchor="start" x="504" y="-18.5" font-family="Helvetica,sans-Serif" font-size="10.00">helper::logging::stripSource</text>
<text text-anchor="middle" x="563.5" y="-7.5" font-family="Helvetica,sans-Serif" font-size="10.00">FileName</text>
</a>
</g>
</g>
<!-- Node4&#45;&gt;Node8 -->
<g id="edge7" class="edge">
<title>Node4&#45;&gt;Node8</title>
<path fill="none" stroke="midnightblue" d="M414.19,-78.98C432.99,-68.77 464.14,-52.42 492,-40.5 497.07,-38.33 502.41,-36.19 507.77,-34.13"/>
<polygon fill="midnightblue" stroke="midnightblue" points="509.28,-37.31 517.42,-30.52 506.82,-30.75 509.28,-37.31"/>
</g>
</g>
</svg>
