<?xml version="1.0" encoding="UTF-8" standalone="no"?>
<!DOCTYPE svg PUBLIC "-//W3C//DTD SVG 1.1//EN"
 "http://www.w3.org/Graphics/SVG/1.1/DTD/svg11.dtd">
<!-- Generated by graphviz version 2.47.3 (20210619.1520)
 -->
<!-- Title: btf::BtfFile::importFromFile Pages: 1 -->
<svg width="833pt" height="861pt"
 viewBox="0.00 0.00 833.00 861.00" xmlns="http://www.w3.org/2000/svg" xmlns:xlink="http://www.w3.org/1999/xlink">
<g id="graph0" class="graph" transform="scale(1 1) rotate(0) translate(4 857)">
<title>btf::BtfFile::importFromFile</title>
<polygon fill="white" stroke="transparent" points="-4,4 -4,-857 829,-857 829,4 -4,4"/>
<!-- Node1 -->
<g id="node1" class="node">
<title>Node1</title>
<g id="a_node1"><a xlink:title="Appends the data from a BTF file. Currently only import into an empty BTF file is supported.">
<polygon fill="#bfbfbf" stroke="black" points="0,-422.5 0,-441.5 132,-441.5 132,-422.5 0,-422.5"/>
<text text-anchor="middle" x="66" y="-429.5" font-family="Helvetica,sans-Serif" font-size="10.00">btf::BtfFile::importFromFile</text>
</a>
</g>
</g>
<!-- Node2 -->
<g id="node2" class="node">
<title>Node2</title>
<g id="a_node2"><a xlink:href="classbtf_1_1_btf_file.html#ac5d7ec6b90a8f97ccfb08a725c84b242" target="_top" xlink:title="Emits a comment.">
<polygon fill="white" stroke="black" points="184,-833.5 184,-852.5 291,-852.5 291,-833.5 184,-833.5"/>
<text text-anchor="middle" x="237.5" y="-840.5" font-family="Helvetica,sans-Serif" font-size="10.00">btf::BtfFile::comment</text>
</a>
</g>
</g>
<!-- Node1&#45;&gt;Node2 -->
<g id="edge1" class="edge">
<title>Node1&#45;&gt;Node2</title>
<path fill="none" stroke="midnightblue" d="M68.16,-441.52C74.97,-495.87 111.38,-766.33 168,-824 170.11,-826.15 172.43,-828.06 174.92,-829.76"/>
<polygon fill="midnightblue" stroke="midnightblue" points="173.46,-832.95 183.9,-834.76 176.86,-826.83 173.46,-832.95"/>
</g>
<!-- Node3 -->
<g id="node3" class="node">
<title>Node3</title>
<g id="a_node3"><a xlink:href="classbtf_1_1_btf_file.html#a9454b5166914314b2af545df306f4dab" target="_top" xlink:title="Emits a core event. See overloaded function for more information.">
<polygon fill="white" stroke="black" points="182.5,-757.5 182.5,-776.5 292.5,-776.5 292.5,-757.5 182.5,-757.5"/>
<text text-anchor="middle" x="237.5" y="-764.5" font-family="Helvetica,sans-Serif" font-size="10.00">btf::BtfFile::coreEvent</text>
</a>
</g>
</g>
<!-- Node1&#45;&gt;Node3 -->
<g id="edge2" class="edge">
<title>Node1&#45;&gt;Node3</title>
<path fill="none" stroke="midnightblue" d="M66.98,-441.67C67.46,-484.48 75.23,-658.76 168,-748 169.7,-749.63 171.52,-751.13 173.45,-752.5"/>
<polygon fill="midnightblue" stroke="midnightblue" points="172.03,-755.72 182.44,-757.73 175.55,-749.67 172.03,-755.72"/>
</g>
<!-- Node11 -->
<g id="node11" class="node">
<title>Node11</title>
<g id="a_node11"><a xlink:href="namespacebtf.html#a1389d0e3061f7956b2482354b0c22bf5" target="_top" xlink:title="Converts the enum ErrorCode into string.">
<polygon fill="white" stroke="black" points="182,-403.5 182,-422.5 293,-422.5 293,-403.5 182,-403.5"/>
<text text-anchor="middle" x="237.5" y="-410.5" font-family="Helvetica,sans-Serif" font-size="10.00">btf::errorCodeToString</text>
</a>
</g>
</g>
<!-- Node1&#45;&gt;Node11 -->
<g id="edge10" class="edge">
<title>Node1&#45;&gt;Node11</title>
<path fill="none" stroke="midnightblue" d="M132.05,-424.71C145.01,-423.26 158.63,-421.73 171.59,-420.28"/>
<polygon fill="midnightblue" stroke="midnightblue" points="172.27,-423.72 181.82,-419.13 171.49,-416.77 172.27,-423.72"/>
</g>
<!-- Node12 -->
<g id="node12" class="node">
<title>Node12</title>
<g id="a_node12"><a xlink:href="namespacehelper_1_1util.html#a872f7404be7bfb2833c259729d994c2f" target="_top" xlink:title="wrapper for std::getline that removes CR (\r) at the end of the line.">
<polygon fill="white" stroke="black" points="189.5,-365.5 189.5,-384.5 285.5,-384.5 285.5,-365.5 189.5,-365.5"/>
<text text-anchor="middle" x="237.5" y="-372.5" font-family="Helvetica,sans-Serif" font-size="10.00">helper::util::getline</text>
</a>
</g>
</g>
<!-- Node1&#45;&gt;Node12 -->
<g id="edge11" class="edge">
<title>Node1&#45;&gt;Node12</title>
<path fill="none" stroke="midnightblue" d="M90.46,-422.49C110.8,-414.42 141.1,-402.77 168,-394 175.02,-391.71 182.5,-389.46 189.84,-387.34"/>
<polygon fill="midnightblue" stroke="midnightblue" points="191.03,-390.64 199.7,-384.56 189.13,-383.9 191.03,-390.64"/>
</g>
<!-- Node13 -->
<g id="node13" class="node">
<title>Node13</title>
<g id="a_node13"><a xlink:href="classbtf_1_1_btf_file.html#a53a53570d80ddcb7d3e762fe219fd019" target="_top" xlink:title="Emits an OS event (source is a core or a process depending on the value of the core_is_source paramet...">
<polygon fill="white" stroke="black" points="187,-719.5 187,-738.5 288,-738.5 288,-719.5 187,-719.5"/>
<text text-anchor="middle" x="237.5" y="-726.5" font-family="Helvetica,sans-Serif" font-size="10.00">btf::BtfFile::osEvent</text>
</a>
</g>
</g>
<!-- Node1&#45;&gt;Node13 -->
<g id="edge12" class="edge">
<title>Node1&#45;&gt;Node13</title>
<path fill="none" stroke="midnightblue" d="M67.46,-441.58C69.88,-481.06 84.5,-632.77 168,-710 170.92,-712.7 174.2,-715.03 177.69,-717.03"/>
<polygon fill="midnightblue" stroke="midnightblue" points="176.2,-720.19 186.73,-721.35 179.22,-713.88 176.2,-720.19"/>
</g>
<!-- Node15 -->
<g id="node15" class="node">
<title>Node15</title>
<g id="a_node15"><a xlink:href="namespacehelper_1_1logging.html#a9181c24054b42b4c6b18afff28b762bb" target="_top" xlink:title="Writes a warning message to the log.">
<polygon fill="white" stroke="black" points="346.5,-441.5 346.5,-460.5 486.5,-460.5 486.5,-441.5 346.5,-441.5"/>
<text text-anchor="middle" x="416.5" y="-448.5" font-family="Helvetica,sans-Serif" font-size="10.00">helper::logging::printWarning</text>
</a>
</g>
</g>
<!-- Node1&#45;&gt;Node15 -->
<g id="edge15" class="edge">
<title>Node1&#45;&gt;Node15</title>
<path fill="none" stroke="midnightblue" d="M132.14,-435.55C189.9,-438.7 274.42,-443.31 336.12,-446.67"/>
<polygon fill="midnightblue" stroke="midnightblue" points="336.03,-450.17 346.2,-447.22 336.41,-443.18 336.03,-450.17"/>
</g>
<!-- Node16 -->
<g id="node16" class="node">
<title>Node16</title>
<g id="a_node16"><a xlink:href="classbtf_1_1_btf_file.html#a3f6b54fa6c96e04ce016ab81d1f80901" target="_top" xlink:title="Emits a task event (except migration). See overloaded function for more information.">
<polygon fill="white" stroke="black" points="175,-795.5 175,-814.5 300,-814.5 300,-795.5 175,-795.5"/>
<text text-anchor="middle" x="237.5" y="-802.5" font-family="Helvetica,sans-Serif" font-size="10.00">btf::BtfFile::processEvent</text>
</a>
</g>
</g>
<!-- Node1&#45;&gt;Node16 -->
<g id="edge17" class="edge">
<title>Node1&#45;&gt;Node16</title>
<path fill="none" stroke="midnightblue" d="M66.6,-441.55C65.26,-487.13 65.72,-684.47 168,-786 169.45,-787.43 170.99,-788.76 172.61,-789.99"/>
<polygon fill="midnightblue" stroke="midnightblue" points="170.96,-793.08 181.3,-795.36 174.63,-787.13 170.96,-793.08"/>
</g>
<!-- Node19 -->
<g id="node19" class="node">
<title>Node19</title>
<g id="a_node19"><a xlink:href="classbtf_1_1_btf_file.html#a3a7b48f23d0c26343e8b4a2a452319b6" target="_top" xlink:title="Emits a runnable event (source is a core or process depending on the value of the core_is_source para...">
<polygon fill="white" stroke="black" points="173.5,-681.5 173.5,-700.5 301.5,-700.5 301.5,-681.5 173.5,-681.5"/>
<text text-anchor="middle" x="237.5" y="-688.5" font-family="Helvetica,sans-Serif" font-size="10.00">btf::BtfFile::runnableEvent</text>
</a>
</g>
</g>
<!-- Node1&#45;&gt;Node19 -->
<g id="edge21" class="edge">
<title>Node1&#45;&gt;Node19</title>
<path fill="none" stroke="midnightblue" d="M68.12,-441.99C72.79,-478.64 94.01,-606.91 168,-672 169.77,-673.56 171.66,-674.99 173.63,-676.3"/>
<polygon fill="midnightblue" stroke="midnightblue" points="172.34,-679.58 182.79,-681.35 175.72,-673.45 172.34,-679.58"/>
</g>
<!-- Node21 -->
<g id="node21" class="node">
<title>Node21</title>
<g id="a_node21"><a xlink:href="classbtf_1_1_btf_file.html#ae1ebfe73fc7c7d04defcb27446a2c4b6" target="_top" xlink:title="Emits a scheduler event. See overloaded function for more information.">
<polygon fill="white" stroke="black" points="171,-593.5 171,-612.5 304,-612.5 304,-593.5 171,-593.5"/>
<text text-anchor="middle" x="237.5" y="-600.5" font-family="Helvetica,sans-Serif" font-size="10.00">btf::BtfFile::schedulerEvent</text>
</a>
</g>
</g>
<!-- Node1&#45;&gt;Node21 -->
<g id="edge24" class="edge">
<title>Node1&#45;&gt;Node21</title>
<path fill="none" stroke="midnightblue" d="M70.54,-441.56C81,-468.41 114.39,-545.12 168,-584 170.7,-585.96 173.59,-587.71 176.6,-589.29"/>
<polygon fill="midnightblue" stroke="midnightblue" points="175.38,-592.57 185.93,-593.49 178.25,-586.19 175.38,-592.57"/>
</g>
<!-- Node23 -->
<g id="node23" class="node">
<title>Node23</title>
<g id="a_node23"><a xlink:href="classbtf_1_1_btf_file.html#ad3520a015342189e2b8969547dedcb43" target="_top" xlink:title="Emits a semaphore event. See overloaded function for more information.">
<polygon fill="white" stroke="black" points="168,-555.5 168,-574.5 307,-574.5 307,-555.5 168,-555.5"/>
<text text-anchor="middle" x="237.5" y="-562.5" font-family="Helvetica,sans-Serif" font-size="10.00">btf::BtfFile::semaphoreEvent</text>
</a>
</g>
</g>
<!-- Node1&#45;&gt;Node23 -->
<g id="edge27" class="edge">
<title>Node1&#45;&gt;Node23</title>
<path fill="none" stroke="midnightblue" d="M72.74,-441.63C86.37,-463.63 122.92,-517.85 168,-546 171.38,-548.11 174.99,-549.99 178.73,-551.66"/>
<polygon fill="midnightblue" stroke="midnightblue" points="177.62,-554.99 188.21,-555.41 180.2,-548.48 177.62,-554.99"/>
</g>
<!-- Node25 -->
<g id="node25" class="node">
<title>Node25</title>
<g id="a_node25"><a xlink:href="classbtf_1_1_btf_file.html#abd1356570158b60e3bf92fc006adcda8" target="_top" xlink:title="Emits a signal event (source is a core or process depending on the value of the core_is_source parame...">
<polygon fill="white" stroke="black" points="179.5,-517.5 179.5,-536.5 295.5,-536.5 295.5,-517.5 179.5,-517.5"/>
<text text-anchor="middle" x="237.5" y="-524.5" font-family="Helvetica,sans-Serif" font-size="10.00">btf::BtfFile::signalEvent</text>
</a>
</g>
</g>
<!-- Node1&#45;&gt;Node25 -->
<g id="edge30" class="edge">
<title>Node1&#45;&gt;Node25</title>
<path fill="none" stroke="midnightblue" d="M77.03,-441.63C94.27,-457.67 131.19,-489.86 168,-508 172.65,-510.29 177.63,-512.35 182.69,-514.18"/>
<polygon fill="midnightblue" stroke="midnightblue" points="181.88,-517.59 192.47,-517.42 184.09,-510.95 181.88,-517.59"/>
</g>
<!-- Node27 -->
<g id="node27" class="node">
<title>Node27</title>
<g id="a_node27"><a xlink:href="classbtf_1_1_btf_file.html#aad9571cc39c02a1e460e8c913598abb9" target="_top" xlink:title="Emits a stimulus event. See overloaded function for more information.">
<polygon fill="white" stroke="black" points="173.5,-479.5 173.5,-498.5 301.5,-498.5 301.5,-479.5 173.5,-479.5"/>
<text text-anchor="middle" x="237.5" y="-486.5" font-family="Helvetica,sans-Serif" font-size="10.00">btf::BtfFile::stimulusEvent</text>
</a>
</g>
</g>
<!-- Node1&#45;&gt;Node27 -->
<g id="edge33" class="edge">
<title>Node1&#45;&gt;Node27</title>
<path fill="none" stroke="midnightblue" d="M95.37,-441.54C123.6,-451.03 167.11,-465.67 198.36,-476.17"/>
<polygon fill="midnightblue" stroke="midnightblue" points="197.44,-479.56 208.04,-479.43 199.67,-472.92 197.44,-479.56"/>
</g>
<!-- Node29 -->
<g id="node29" class="node">
<title>Node29</title>
<g id="a_node29"><a xlink:href="namespacebtf.html#aba6cd98ccf3ea8b4993955b1e715d686" target="_top" xlink:title="Converts a string into the enum EntityTypes.">
<polygon fill="white" stroke="black" points="180.5,-327.5 180.5,-346.5 294.5,-346.5 294.5,-327.5 180.5,-327.5"/>
<text text-anchor="middle" x="237.5" y="-334.5" font-family="Helvetica,sans-Serif" font-size="10.00">btf::stringToEntityType</text>
</a>
</g>
</g>
<!-- Node1&#45;&gt;Node29 -->
<g id="edge36" class="edge">
<title>Node1&#45;&gt;Node29</title>
<path fill="none" stroke="midnightblue" d="M77.03,-422.37C94.27,-406.33 131.19,-374.14 168,-356 172.65,-353.71 177.63,-351.65 182.69,-349.82"/>
<polygon fill="midnightblue" stroke="midnightblue" points="184.09,-353.05 192.47,-346.58 181.88,-346.41 184.09,-353.05"/>
</g>
<!-- Node30 -->
<g id="node30" class="node">
<title>Node30</title>
<g id="a_node30"><a xlink:href="classbtf_1_1_signal.html#a4bdf27af3f0e88a726487b3fa107afc7" target="_top" xlink:title="Converts a string into the enum Events.">
<polygon fill="white" stroke="black" points="175,-289.5 175,-308.5 300,-308.5 300,-289.5 175,-289.5"/>
<text text-anchor="middle" x="237.5" y="-296.5" font-family="Helvetica,sans-Serif" font-size="10.00">btf::Signal::stringToEvent</text>
</a>
</g>
</g>
<!-- Node1&#45;&gt;Node30 -->
<g id="edge37" class="edge">
<title>Node1&#45;&gt;Node30</title>
<path fill="none" stroke="midnightblue" d="M72.74,-422.37C86.37,-400.37 122.92,-346.15 168,-318 171.38,-315.89 174.99,-314.01 178.73,-312.34"/>
<polygon fill="midnightblue" stroke="midnightblue" points="180.2,-315.52 188.21,-308.59 177.62,-309.01 180.2,-315.52"/>
</g>
<!-- Node31 -->
<g id="node31" class="node">
<title>Node31</title>
<g id="a_node31"><a xlink:href="classbtf_1_1_core.html#acf744430d1e33620e155d7df1cdaeb80" target="_top" xlink:title="Converts a string into the enum Events.">
<polygon fill="white" stroke="black" points="178.5,-251.5 178.5,-270.5 296.5,-270.5 296.5,-251.5 178.5,-251.5"/>
<text text-anchor="middle" x="237.5" y="-258.5" font-family="Helvetica,sans-Serif" font-size="10.00">btf::Core::stringToEvent</text>
</a>
</g>
</g>
<!-- Node1&#45;&gt;Node31 -->
<g id="edge38" class="edge">
<title>Node1&#45;&gt;Node31</title>
<path fill="none" stroke="midnightblue" d="M70.54,-422.44C81,-395.59 114.39,-318.88 168,-280 170.7,-278.04 173.59,-276.29 176.6,-274.71"/>
<polygon fill="midnightblue" stroke="midnightblue" points="178.25,-277.81 185.93,-270.51 175.38,-271.43 178.25,-277.81"/>
</g>
<!-- Node32 -->
<g id="node32" class="node">
<title>Node32</title>
<g id="a_node32"><a xlink:href="classbtf_1_1_o_s.html#a86068b1362b0323b869c912e2623f2f1" target="_top" xlink:title="Converts a string into the enum Events.">
<polygon fill="white" stroke="black" points="181.5,-213.5 181.5,-232.5 293.5,-232.5 293.5,-213.5 181.5,-213.5"/>
<text text-anchor="middle" x="237.5" y="-220.5" font-family="Helvetica,sans-Serif" font-size="10.00">btf::OS::stringToEvent</text>
</a>
</g>
</g>
<!-- Node1&#45;&gt;Node32 -->
<g id="edge39" class="edge">
<title>Node1&#45;&gt;Node32</title>
<path fill="none" stroke="midnightblue" d="M69.23,-422.38C76.97,-391.19 105.66,-292.04 168,-242 170.26,-240.19 172.67,-238.55 175.2,-237.07"/>
<polygon fill="midnightblue" stroke="midnightblue" points="176.77,-240.2 184.17,-232.61 173.65,-233.93 176.77,-240.2"/>
</g>
<!-- Node33 -->
<g id="node33" class="node">
<title>Node33</title>
<g id="a_node33"><a xlink:href="classbtf_1_1_process.html#a06cca288fa550ac64e33f848168a6291" target="_top" xlink:title="Converts a string into the enum Events.">
<polygon fill="white" stroke="black" points="170.5,-175.5 170.5,-194.5 304.5,-194.5 304.5,-175.5 170.5,-175.5"/>
<text text-anchor="middle" x="237.5" y="-182.5" font-family="Helvetica,sans-Serif" font-size="10.00">btf::Process::stringToEvent</text>
</a>
</g>
</g>
<!-- Node1&#45;&gt;Node33 -->
<g id="edge40" class="edge">
<title>Node1&#45;&gt;Node33</title>
<path fill="none" stroke="midnightblue" d="M68.29,-422.5C73.55,-387.65 96.56,-265.68 168,-204 169.96,-202.31 172.06,-200.76 174.27,-199.36"/>
<polygon fill="midnightblue" stroke="midnightblue" points="176.03,-202.38 183.2,-194.58 172.73,-196.21 176.03,-202.38"/>
</g>
<!-- Node34 -->
<g id="node34" class="node">
<title>Node34</title>
<g id="a_node34"><a xlink:href="classbtf_1_1_runnable.html#aa0ad3470a47d0ff7599cdb3c28c169e8" target="_top" xlink:title="Converts a string into the enum Events.">
<polygon fill="white" stroke="black" points="168.5,-137.5 168.5,-156.5 306.5,-156.5 306.5,-137.5 168.5,-137.5"/>
<text text-anchor="middle" x="237.5" y="-144.5" font-family="Helvetica,sans-Serif" font-size="10.00">btf::Runnable::stringToEvent</text>
</a>
</g>
</g>
<!-- Node1&#45;&gt;Node34 -->
<g id="edge41" class="edge">
<title>Node1&#45;&gt;Node34</title>
<path fill="none" stroke="midnightblue" d="M67.64,-422.31C70.75,-383.69 87.51,-239.38 168,-166 169.7,-164.45 171.52,-163.02 173.44,-161.71"/>
<polygon fill="midnightblue" stroke="midnightblue" points="175.35,-164.64 182.31,-156.66 171.89,-158.56 175.35,-164.64"/>
</g>
<!-- Node35 -->
<g id="node35" class="node">
<title>Node35</title>
<g id="a_node35"><a xlink:href="classbtf_1_1_scheduler.html#a2a0d666b72b769e4b7abdf34550f8611" target="_top" xlink:title="Converts a string into the enum Events.">
<polygon fill="white" stroke="black" points="179,-88 179,-118 296,-118 296,-88 179,-88"/>
<text text-anchor="start" x="187" y="-106" font-family="Helvetica,sans-Serif" font-size="10.00">btf::Scheduler::stringTo</text>
<text text-anchor="middle" x="237.5" y="-95" font-family="Helvetica,sans-Serif" font-size="10.00">Event</text>
</a>
</g>
</g>
<!-- Node1&#45;&gt;Node35 -->
<g id="edge42" class="edge">
<title>Node1&#45;&gt;Node35</title>
<path fill="none" stroke="midnightblue" d="M67.31,-422.31C69.14,-380.87 81.79,-216.77 168,-128 169.42,-126.54 170.94,-125.16 172.53,-123.86"/>
<polygon fill="midnightblue" stroke="midnightblue" points="174.77,-126.56 181.03,-118.01 170.8,-120.8 174.77,-126.56"/>
</g>
<!-- Node36 -->
<g id="node36" class="node">
<title>Node36</title>
<g id="a_node36"><a xlink:href="classbtf_1_1_semaphore.html#a5491890701d2c9bb4594f10a65503b81" target="_top" xlink:title="Converts a string into the enum Events.">
<polygon fill="white" stroke="black" points="176,-39 176,-69 299,-69 299,-39 176,-39"/>
<text text-anchor="start" x="184" y="-57" font-family="Helvetica,sans-Serif" font-size="10.00">btf::Semaphore::stringTo</text>
<text text-anchor="middle" x="237.5" y="-46" font-family="Helvetica,sans-Serif" font-size="10.00">Event</text>
</a>
</g>
</g>
<!-- Node1&#45;&gt;Node36 -->
<g id="edge43" class="edge">
<title>Node1&#45;&gt;Node36</title>
<path fill="none" stroke="midnightblue" d="M66.75,-422.29C66.09,-376.8 69.37,-182.64 168,-78 168.9,-77.05 169.84,-76.13 170.81,-75.25"/>
<polygon fill="midnightblue" stroke="midnightblue" points="173,-77.99 178.9,-69.19 168.8,-72.39 173,-77.99"/>
</g>
<!-- Node37 -->
<g id="node37" class="node">
<title>Node37</title>
<g id="a_node37"><a xlink:href="classbtf_1_1_stimulus.html#a76dcc28363cc1780d567fdc5925ae256" target="_top" xlink:title="Converts a string into the enum Events.">
<polygon fill="white" stroke="black" points="169.5,-0.5 169.5,-19.5 305.5,-19.5 305.5,-0.5 169.5,-0.5"/>
<text text-anchor="middle" x="237.5" y="-7.5" font-family="Helvetica,sans-Serif" font-size="10.00">btf::Stimulus::stringToEvent</text>
</a>
</g>
</g>
<!-- Node1&#45;&gt;Node37 -->
<g id="edge44" class="edge">
<title>Node1&#45;&gt;Node37</title>
<path fill="none" stroke="midnightblue" d="M68.12,-422.21C74.71,-366.36 110.08,-88.38 168,-29 169.42,-27.54 170.94,-26.19 172.55,-24.95"/>
<polygon fill="midnightblue" stroke="midnightblue" points="174.58,-27.8 181.18,-19.51 170.85,-21.88 174.58,-27.8"/>
</g>
<!-- Node38 -->
<g id="node38" class="node">
<title>Node38</title>
<g id="a_node38"><a xlink:href="classbtf_1_1_btf_file.html#a66ddf92cf6d3b6f48ca5876d0bdfea20" target="_top" xlink:title="Emits a task migration event. See overloaded function for more information.">
<polygon fill="white" stroke="black" points="175,-632 175,-662 300,-662 300,-632 175,-632"/>
<text text-anchor="start" x="183" y="-650" font-family="Helvetica,sans-Serif" font-size="10.00">btf::BtfFile::taskMigration</text>
<text text-anchor="middle" x="237.5" y="-639" font-family="Helvetica,sans-Serif" font-size="10.00">Event</text>
</a>
</g>
</g>
<!-- Node1&#45;&gt;Node38 -->
<g id="edge45" class="edge">
<title>Node1&#45;&gt;Node38</title>
<path fill="none" stroke="midnightblue" d="M69.51,-441.86C77.91,-472.92 107.97,-569.77 168,-622 169.92,-623.67 171.97,-625.24 174.1,-626.7"/>
<polygon fill="midnightblue" stroke="midnightblue" points="172.33,-629.72 182.71,-631.85 175.92,-623.71 172.33,-629.72"/>
</g>
<!-- Node4 -->
<g id="node4" class="node">
<title>Node4</title>
<g id="a_node4"><a xlink:href="classbtf_1_1_core.html#af577029a98e9f5f82e8981cc0d80f62e" target="_top" xlink:title="Converts the enum Events into string.">
<polygon fill="white" stroke="black" points="357.5,-757.5 357.5,-776.5 475.5,-776.5 475.5,-757.5 357.5,-757.5"/>
<text text-anchor="middle" x="416.5" y="-764.5" font-family="Helvetica,sans-Serif" font-size="10.00">btf::Core::eventToString</text>
</a>
</g>
</g>
<!-- Node3&#45;&gt;Node4 -->
<g id="edge3" class="edge">
<title>Node3&#45;&gt;Node4</title>
<path fill="none" stroke="midnightblue" d="M292.57,-767C309.81,-767 329.13,-767 347.25,-767"/>
<polygon fill="midnightblue" stroke="midnightblue" points="347.46,-770.5 357.46,-767 347.46,-763.5 347.46,-770.5"/>
</g>
<!-- Node5 -->
<g id="node5" class="node">
<title>Node5</title>
<g id="a_node5"><a xlink:href="namespacehelper_1_1logging.html#a0e1881bbc937b702aa298c5f5141b79b" target="_top" xlink:title="Writes a trace message to the log.">
<polygon fill="white" stroke="black" points="352.5,-634.5 352.5,-653.5 480.5,-653.5 480.5,-634.5 352.5,-634.5"/>
<text text-anchor="middle" x="416.5" y="-641.5" font-family="Helvetica,sans-Serif" font-size="10.00">helper::logging::printTrace</text>
</a>
</g>
</g>
<!-- Node3&#45;&gt;Node5 -->
<g id="edge4" class="edge">
<title>Node3&#45;&gt;Node5</title>
<path fill="none" stroke="midnightblue" d="M291.36,-757.46C297.01,-754.99 302.37,-751.89 307,-748 335.6,-723.94 315.61,-697.44 343,-672 349.46,-666 357.36,-661.23 365.53,-657.47"/>
<polygon fill="midnightblue" stroke="midnightblue" points="366.9,-660.68 374.81,-653.63 364.23,-654.22 366.9,-660.68"/>
</g>
<!-- Node6 -->
<g id="node6" class="node">
<title>Node6</title>
<g id="a_node6"><a xlink:href="namespacehelper_1_1logging.html#aadee8ee5d31250ae8288888fa86814a3" target="_top" xlink:title="Prints a log message to the log.">
<polygon fill="white" stroke="black" points="526,-539.5 526,-558.5 646,-558.5 646,-539.5 526,-539.5"/>
<text text-anchor="middle" x="586" y="-546.5" font-family="Helvetica,sans-Serif" font-size="10.00">helper::logging::printLog</text>
</a>
</g>
</g>
<!-- Node5&#45;&gt;Node6 -->
<g id="edge5" class="edge">
<title>Node5&#45;&gt;Node6</title>
<path fill="none" stroke="midnightblue" d="M458.4,-634.39C468.99,-631.16 480.17,-627.05 490,-622 519.68,-606.74 549.47,-581.94 567.57,-565.55"/>
<polygon fill="midnightblue" stroke="midnightblue" points="570.05,-568.02 575.03,-558.67 565.3,-562.88 570.05,-568.02"/>
</g>
<!-- Node7 -->
<g id="node7" class="node">
<title>Node7</title>
<g id="a_node7"><a xlink:href="classhelper_1_1logging_1_1_global_logger.html#a080a88af50f5861331d887d02324e9c2" target="_top" xlink:title="Gets the logger (ostream).">
<polygon fill="white" stroke="black" points="682,-608 682,-638 825,-638 825,-608 682,-608"/>
<text text-anchor="start" x="690" y="-626" font-family="Helvetica,sans-Serif" font-size="10.00">helper::logging::GlobalLogger</text>
<text text-anchor="middle" x="753.5" y="-615" font-family="Helvetica,sans-Serif" font-size="10.00">::getLogger</text>
</a>
</g>
</g>
<!-- Node6&#45;&gt;Node7 -->
<g id="edge6" class="edge">
<title>Node6&#45;&gt;Node7</title>
<path fill="none" stroke="midnightblue" d="M603.43,-558.66C622.07,-569.38 653.58,-586.77 682,-599 686.37,-600.88 690.94,-602.72 695.57,-604.48"/>
<polygon fill="midnightblue" stroke="midnightblue" points="694.5,-607.82 705.09,-608 696.92,-601.25 694.5,-607.82"/>
</g>
<!-- Node8 -->
<g id="node8" class="node">
<title>Node8</title>
<g id="a_node8"><a xlink:href="classhelper_1_1logging_1_1_global_logger.html#a956281901fd88046239494c600e3c5e5" target="_top" xlink:title="Gets the null logger (ostream).">
<polygon fill="white" stroke="black" points="682,-559 682,-589 825,-589 825,-559 682,-559"/>
<text text-anchor="start" x="690" y="-577" font-family="Helvetica,sans-Serif" font-size="10.00">helper::logging::GlobalLogger</text>
<text text-anchor="middle" x="753.5" y="-566" font-family="Helvetica,sans-Serif" font-size="10.00">::getNullLogger</text>
</a>
</g>
</g>
<!-- Node6&#45;&gt;Node8 -->
<g id="edge7" class="edge">
<title>Node6&#45;&gt;Node8</title>
<path fill="none" stroke="midnightblue" d="M646.28,-557.95C654.55,-559.2 663.16,-560.5 671.73,-561.8"/>
<polygon fill="midnightblue" stroke="midnightblue" points="671.36,-565.28 681.77,-563.32 672.4,-558.36 671.36,-565.28"/>
</g>
<!-- Node9 -->
<g id="node9" class="node">
<title>Node9</title>
<g id="a_node9"><a xlink:href="namespacehelper_1_1logging.html#a69b892408158ee6bed51c5aafa694af7" target="_top" xlink:title="Converts the enum LogLevel into string.">
<polygon fill="white" stroke="black" points="693.5,-510 693.5,-540 813.5,-540 813.5,-510 693.5,-510"/>
<text text-anchor="start" x="701.5" y="-528" font-family="Helvetica,sans-Serif" font-size="10.00">helper::logging::logLevel</text>
<text text-anchor="middle" x="753.5" y="-517" font-family="Helvetica,sans-Serif" font-size="10.00">ToString</text>
</a>
</g>
</g>
<!-- Node6&#45;&gt;Node9 -->
<g id="edge8" class="edge">
<title>Node6&#45;&gt;Node9</title>
<path fill="none" stroke="midnightblue" d="M646.28,-540.4C658.24,-538.67 670.91,-536.83 683.17,-535.05"/>
<polygon fill="midnightblue" stroke="midnightblue" points="683.96,-538.48 693.35,-533.58 682.96,-531.55 683.96,-538.48"/>
</g>
<!-- Node10 -->
<g id="node10" class="node">
<title>Node10</title>
<g id="a_node10"><a xlink:href="namespacehelper_1_1logging.html#a33b1f83f96be6edb81fa28ddba33179d" target="_top" xlink:title="Gets the source file name out of the path.">
<polygon fill="white" stroke="black" points="686,-461 686,-491 821,-491 821,-461 686,-461"/>
<text text-anchor="start" x="694" y="-479" font-family="Helvetica,sans-Serif" font-size="10.00">helper::logging::stripSource</text>
<text text-anchor="middle" x="753.5" y="-468" font-family="Helvetica,sans-Serif" font-size="10.00">FileName</text>
</a>
</g>
</g>
<!-- Node6&#45;&gt;Node10 -->
<g id="edge9" class="edge">
<title>Node6&#45;&gt;Node10</title>
<path fill="none" stroke="midnightblue" d="M604.19,-539.48C622.99,-529.27 654.14,-512.92 682,-501 687.07,-498.83 692.41,-496.69 697.77,-494.63"/>
<polygon fill="midnightblue" stroke="midnightblue" points="699.28,-497.81 707.42,-491.02 696.82,-491.25 699.28,-497.81"/>
</g>
<!-- Node13&#45;&gt;Node5 -->
<g id="edge14" class="edge">
<title>Node13&#45;&gt;Node5</title>
<path fill="none" stroke="midnightblue" d="M285.96,-719.48C293.28,-716.99 300.55,-713.88 307,-710 326.94,-698.01 323.67,-684.95 343,-672 351.83,-666.08 362.1,-661.15 372.08,-657.16"/>
<polygon fill="midnightblue" stroke="midnightblue" points="373.37,-660.42 381.5,-653.63 370.91,-653.86 373.37,-660.42"/>
</g>
<!-- Node14 -->
<g id="node14" class="node">
<title>Node14</title>
<g id="a_node14"><a xlink:href="classbtf_1_1_o_s.html#af627f5bcc47760ff9809871b23da87cc" target="_top" xlink:title="Converts the enum Events into string.">
<polygon fill="white" stroke="black" points="360.5,-719.5 360.5,-738.5 472.5,-738.5 472.5,-719.5 360.5,-719.5"/>
<text text-anchor="middle" x="416.5" y="-726.5" font-family="Helvetica,sans-Serif" font-size="10.00">btf::OS::eventToString</text>
</a>
</g>
</g>
<!-- Node13&#45;&gt;Node14 -->
<g id="edge13" class="edge">
<title>Node13&#45;&gt;Node14</title>
<path fill="none" stroke="midnightblue" d="M288.28,-729C307.43,-729 329.6,-729 350.02,-729"/>
<polygon fill="midnightblue" stroke="midnightblue" points="350.19,-732.5 360.19,-729 350.19,-725.5 350.19,-732.5"/>
</g>
<!-- Node15&#45;&gt;Node6 -->
<g id="edge16" class="edge">
<title>Node15&#45;&gt;Node6</title>
<path fill="none" stroke="midnightblue" d="M466.17,-460.6C474.36,-463.1 482.59,-466.19 490,-470 521.27,-486.08 551.44,-513.95 569.1,-531.92"/>
<polygon fill="midnightblue" stroke="midnightblue" points="566.84,-534.63 576.29,-539.41 571.89,-529.77 566.84,-534.63"/>
</g>
<!-- Node16&#45;&gt;Node5 -->
<g id="edge20" class="edge">
<title>Node16&#45;&gt;Node5</title>
<path fill="none" stroke="midnightblue" d="M293.25,-795.42C298.3,-792.95 303,-789.86 307,-786 345.23,-749.1 306.63,-710.73 343,-672 348.52,-666.12 355.42,-661.46 362.74,-657.77"/>
<polygon fill="midnightblue" stroke="midnightblue" points="364.45,-660.84 372.18,-653.6 361.62,-654.44 364.45,-660.84"/>
</g>
<!-- Node17 -->
<g id="node17" class="node">
<title>Node17</title>
<g id="a_node17"><a xlink:href="classbtf_1_1_process.html#ac2b6cd5b0524fba0a5c248ba4b223001" target="_top" xlink:title="Converts the enum Events into string.">
<polygon fill="white" stroke="black" points="349.5,-833.5 349.5,-852.5 483.5,-852.5 483.5,-833.5 349.5,-833.5"/>
<text text-anchor="middle" x="416.5" y="-840.5" font-family="Helvetica,sans-Serif" font-size="10.00">btf::Process::eventToString</text>
</a>
</g>
</g>
<!-- Node16&#45;&gt;Node17 -->
<g id="edge18" class="edge">
<title>Node16&#45;&gt;Node17</title>
<path fill="none" stroke="midnightblue" d="M283.16,-814.59C306.84,-819.67 336.11,-825.96 361.1,-831.32"/>
<polygon fill="midnightblue" stroke="midnightblue" points="360.64,-834.8 371.16,-833.48 362.11,-827.96 360.64,-834.8"/>
</g>
<!-- Node18 -->
<g id="node18" class="node">
<title>Node18</title>
<g id="a_node18"><a xlink:href="classbtf_1_1_process.html#a11991ab813dd34ef8d763f86b7fd40ad" target="_top" xlink:title="Gets the source type of the event.">
<polygon fill="white" stroke="black" points="346.5,-795.5 346.5,-814.5 486.5,-814.5 486.5,-795.5 346.5,-795.5"/>
<text text-anchor="middle" x="416.5" y="-802.5" font-family="Helvetica,sans-Serif" font-size="10.00">btf::Process::getSourceType</text>
</a>
</g>
</g>
<!-- Node16&#45;&gt;Node18 -->
<g id="edge19" class="edge">
<title>Node16&#45;&gt;Node18</title>
<path fill="none" stroke="midnightblue" d="M300.41,-805C312.01,-805 324.29,-805 336.33,-805"/>
<polygon fill="midnightblue" stroke="midnightblue" points="336.37,-808.5 346.37,-805 336.37,-801.5 336.37,-808.5"/>
</g>
<!-- Node19&#45;&gt;Node5 -->
<g id="edge23" class="edge">
<title>Node19&#45;&gt;Node5</title>
<path fill="none" stroke="midnightblue" d="M274.32,-681.49C301.82,-674.19 339.99,-664.05 369.7,-656.16"/>
<polygon fill="midnightblue" stroke="midnightblue" points="370.66,-659.53 379.43,-653.58 368.87,-652.76 370.66,-659.53"/>
</g>
<!-- Node20 -->
<g id="node20" class="node">
<title>Node20</title>
<g id="a_node20"><a xlink:href="classbtf_1_1_runnable.html#ae588697e7b86706ac5a094af09db0c74" target="_top" xlink:title="Converts the enum Events into string.">
<polygon fill="white" stroke="black" points="347.5,-681.5 347.5,-700.5 485.5,-700.5 485.5,-681.5 347.5,-681.5"/>
<text text-anchor="middle" x="416.5" y="-688.5" font-family="Helvetica,sans-Serif" font-size="10.00">btf::Runnable::eventToString</text>
</a>
</g>
</g>
<!-- Node19&#45;&gt;Node20 -->
<g id="edge22" class="edge">
<title>Node19&#45;&gt;Node20</title>
<path fill="none" stroke="midnightblue" d="M301.9,-691C313.33,-691 325.37,-691 337.17,-691"/>
<polygon fill="midnightblue" stroke="midnightblue" points="337.45,-694.5 347.45,-691 337.45,-687.5 337.45,-694.5"/>
</g>
<!-- Node21&#45;&gt;Node5 -->
<g id="edge26" class="edge">
<title>Node21&#45;&gt;Node5</title>
<path fill="none" stroke="midnightblue" d="M279.55,-612.51C304.82,-618.36 337.41,-625.91 364.34,-632.15"/>
<polygon fill="midnightblue" stroke="midnightblue" points="363.83,-635.62 374.36,-634.47 365.41,-628.8 363.83,-635.62"/>
</g>
<!-- Node22 -->
<g id="node22" class="node">
<title>Node22</title>
<g id="a_node22"><a xlink:href="classbtf_1_1_scheduler.html#ade30adab31494faff6e8b89727522464" target="_top" xlink:title="Converts the enum Events into string.">
<polygon fill="white" stroke="black" points="346,-593.5 346,-612.5 487,-612.5 487,-593.5 346,-593.5"/>
<text text-anchor="middle" x="416.5" y="-600.5" font-family="Helvetica,sans-Serif" font-size="10.00">btf::Scheduler::eventToString</text>
</a>
</g>
</g>
<!-- Node21&#45;&gt;Node22 -->
<g id="edge25" class="edge">
<title>Node21&#45;&gt;Node22</title>
<path fill="none" stroke="midnightblue" d="M304.16,-603C314.45,-603 325.18,-603 335.74,-603"/>
<polygon fill="midnightblue" stroke="midnightblue" points="335.8,-606.5 345.8,-603 335.8,-599.5 335.8,-606.5"/>
</g>
<!-- Node23&#45;&gt;Node5 -->
<g id="edge29" class="edge">
<title>Node23&#45;&gt;Node5</title>
<path fill="none" stroke="midnightblue" d="M285.96,-574.52C293.28,-577.01 300.55,-580.12 307,-584 326.94,-595.99 323.21,-609.77 343,-622 348.71,-625.53 355.03,-628.53 361.49,-631.06"/>
<polygon fill="midnightblue" stroke="midnightblue" points="360.39,-634.39 370.99,-634.46 362.75,-627.8 360.39,-634.39"/>
</g>
<!-- Node24 -->
<g id="node24" class="node">
<title>Node24</title>
<g id="a_node24"><a xlink:href="classbtf_1_1_semaphore.html#a009325c47cd25c9396f83f8558ed565a" target="_top" xlink:title="Converts the enum Events into string.">
<polygon fill="white" stroke="black" points="343,-555.5 343,-574.5 490,-574.5 490,-555.5 343,-555.5"/>
<text text-anchor="middle" x="416.5" y="-562.5" font-family="Helvetica,sans-Serif" font-size="10.00">btf::Semaphore::eventToString</text>
</a>
</g>
</g>
<!-- Node23&#45;&gt;Node24 -->
<g id="edge28" class="edge">
<title>Node23&#45;&gt;Node24</title>
<path fill="none" stroke="midnightblue" d="M307.19,-565C315.48,-565 324.01,-565 332.48,-565"/>
<polygon fill="midnightblue" stroke="midnightblue" points="332.75,-568.5 342.75,-565 332.75,-561.5 332.75,-568.5"/>
</g>
<!-- Node25&#45;&gt;Node5 -->
<g id="edge32" class="edge">
<title>Node25&#45;&gt;Node5</title>
<path fill="none" stroke="midnightblue" d="M291.36,-536.54C297.01,-539.01 302.37,-542.11 307,-546 335.6,-570.06 314.69,-597.59 343,-622 346.67,-625.16 350.78,-627.87 355.13,-630.19"/>
<polygon fill="midnightblue" stroke="midnightblue" points="353.79,-633.42 364.34,-634.42 356.72,-627.06 353.79,-633.42"/>
</g>
<!-- Node26 -->
<g id="node26" class="node">
<title>Node26</title>
<g id="a_node26"><a xlink:href="classbtf_1_1_signal.html#a120fa6ebdf2e3b74c57f98bced1d53e2" target="_top" xlink:title="Converts the enum Events into string.">
<polygon fill="white" stroke="black" points="354,-517.5 354,-536.5 479,-536.5 479,-517.5 354,-517.5"/>
<text text-anchor="middle" x="416.5" y="-524.5" font-family="Helvetica,sans-Serif" font-size="10.00">btf::Signal::eventToString</text>
</a>
</g>
</g>
<!-- Node25&#45;&gt;Node26 -->
<g id="edge31" class="edge">
<title>Node25&#45;&gt;Node26</title>
<path fill="none" stroke="midnightblue" d="M295.97,-527C311.12,-527 327.66,-527 343.48,-527"/>
<polygon fill="midnightblue" stroke="midnightblue" points="343.74,-530.5 353.74,-527 343.74,-523.5 343.74,-530.5"/>
</g>
<!-- Node27&#45;&gt;Node5 -->
<g id="edge35" class="edge">
<title>Node27&#45;&gt;Node5</title>
<path fill="none" stroke="midnightblue" d="M293.25,-498.58C298.3,-501.05 303,-504.14 307,-508 345.23,-544.9 305.22,-584.64 343,-622 345.92,-624.88 349.2,-627.39 352.71,-629.57"/>
<polygon fill="midnightblue" stroke="midnightblue" points="351.36,-632.82 361.85,-634.34 354.6,-626.61 351.36,-632.82"/>
</g>
<!-- Node28 -->
<g id="node28" class="node">
<title>Node28</title>
<g id="a_node28"><a xlink:href="classbtf_1_1_stimulus.html#a7a7c5b6d5ef557ed266a8ecb025e326c" target="_top" xlink:title="Converts the enum Events into string.">
<polygon fill="white" stroke="black" points="348.5,-479.5 348.5,-498.5 484.5,-498.5 484.5,-479.5 348.5,-479.5"/>
<text text-anchor="middle" x="416.5" y="-486.5" font-family="Helvetica,sans-Serif" font-size="10.00">btf::Stimulus::eventToString</text>
</a>
</g>
</g>
<!-- Node27&#45;&gt;Node28 -->
<g id="edge34" class="edge">
<title>Node27&#45;&gt;Node28</title>
<path fill="none" stroke="midnightblue" d="M301.9,-489C313.68,-489 326.11,-489 338.25,-489"/>
<polygon fill="midnightblue" stroke="midnightblue" points="338.36,-492.5 348.36,-489 338.36,-485.5 338.36,-492.5"/>
</g>
<!-- Node38&#45;&gt;Node5 -->
<g id="edge46" class="edge">
<title>Node38&#45;&gt;Node5</title>
<path fill="none" stroke="midnightblue" d="M300.41,-645.95C313.96,-645.72 328.44,-645.48 342.39,-645.24"/>
<polygon fill="midnightblue" stroke="midnightblue" points="342.49,-648.74 352.43,-645.07 342.37,-641.74 342.49,-648.74"/>
</g>
</g>
</svg>
