<?xml version="1.0" encoding="UTF-8" standalone="no"?>
<!DOCTYPE svg PUBLIC "-//W3C//DTD SVG 1.1//EN"
 "http://www.w3.org/Graphics/SVG/1.1/DTD/svg11.dtd">
<!-- Generated by graphviz version 2.47.3 (20210619.1520)
 -->
<!-- Title: btf::BtfFile::osEvent Pages: 1 -->
<svg width="608pt" height="186pt"
 viewBox="0.00 0.00 608.00 186.00" xmlns="http://www.w3.org/2000/svg" xmlns:xlink="http://www.w3.org/1999/xlink">
<g id="graph0" class="graph" transform="scale(1 1) rotate(0) translate(4 182)">
<title>btf::BtfFile::osEvent</title>
<polygon fill="white" stroke="transparent" points="-4,4 -4,-182 604,-182 604,4 -4,4"/>
<!-- Node1 -->
<g id="node1" class="node">
<title>Node1</title>
<g id="a_node1"><a xlink:title="Emits an OS event (source is a core or a process depending on the value of the core_is_source paramet...">
<polygon fill="#bfbfbf" stroke="black" points="0,-98 0,-117 101,-117 101,-98 0,-98"/>
<text text-anchor="middle" x="50.5" y="-105" font-family="Helvetica,sans-Serif" font-size="10.00">btf::BtfFile::osEvent</text>
</a>
</g>
</g>
<!-- Node2 -->
<g id="node2" class="node">
<title>Node2</title>
<g id="a_node2"><a xlink:href="classbtf_1_1_o_s.html#af627f5bcc47760ff9809871b23da87cc" target="_top" xlink:title="Converts the enum Events into string.">
<polygon fill="white" stroke="black" points="145,-117 145,-136 257,-136 257,-117 145,-117"/>
<text text-anchor="middle" x="201" y="-124" font-family="Helvetica,sans-Serif" font-size="10.00">btf::OS::eventToString</text>
</a>
</g>
</g>
<!-- Node1&#45;&gt;Node2 -->
<g id="edge1" class="edge">
<title>Node1&#45;&gt;Node2</title>
<path fill="none" stroke="midnightblue" d="M101.36,-113.88C112.07,-115.25 123.54,-116.72 134.73,-118.15"/>
<polygon fill="midnightblue" stroke="midnightblue" points="134.54,-121.65 144.91,-119.45 135.43,-114.71 134.54,-121.65"/>
</g>
<!-- Node3 -->
<g id="node3" class="node">
<title>Node3</title>
<g id="a_node3"><a xlink:href="namespacehelper_1_1logging.html#a0e1881bbc937b702aa298c5f5141b79b" target="_top" xlink:title="Writes a trace message to the log.">
<polygon fill="white" stroke="black" points="137,-79 137,-98 265,-98 265,-79 137,-79"/>
<text text-anchor="middle" x="201" y="-86" font-family="Helvetica,sans-Serif" font-size="10.00">helper::logging::printTrace</text>
</a>
</g>
</g>
<!-- Node1&#45;&gt;Node3 -->
<g id="edge2" class="edge">
<title>Node1&#45;&gt;Node3</title>
<path fill="none" stroke="midnightblue" d="M101.36,-101.12C109.54,-100.07 118.16,-98.97 126.76,-97.87"/>
<polygon fill="midnightblue" stroke="midnightblue" points="127.35,-101.32 136.82,-96.58 126.46,-94.38 127.35,-101.32"/>
</g>
<!-- Node4 -->
<g id="node4" class="node">
<title>Node4</title>
<g id="a_node4"><a xlink:href="namespacehelper_1_1logging.html#aadee8ee5d31250ae8288888fa86814a3" target="_top" xlink:title="Prints a log message to the log.">
<polygon fill="white" stroke="black" points="301,-79 301,-98 421,-98 421,-79 301,-79"/>
<text text-anchor="middle" x="361" y="-86" font-family="Helvetica,sans-Serif" font-size="10.00">helper::logging::printLog</text>
</a>
</g>
</g>
<!-- Node3&#45;&gt;Node4 -->
<g id="edge3" class="edge">
<title>Node3&#45;&gt;Node4</title>
<path fill="none" stroke="midnightblue" d="M265.35,-88.5C273.72,-88.5 282.32,-88.5 290.78,-88.5"/>
<polygon fill="midnightblue" stroke="midnightblue" points="290.99,-92 300.99,-88.5 290.99,-85 290.99,-92"/>
</g>
<!-- Node5 -->
<g id="node5" class="node">
<title>Node5</title>
<g id="a_node5"><a xlink:href="classhelper_1_1logging_1_1_global_logger.html#a080a88af50f5861331d887d02324e9c2" target="_top" xlink:title="Gets the logger (ostream).">
<polygon fill="white" stroke="black" points="457,-147.5 457,-177.5 600,-177.5 600,-147.5 457,-147.5"/>
<text text-anchor="start" x="465" y="-165.5" font-family="Helvetica,sans-Serif" font-size="10.00">helper::logging::GlobalLogger</text>
<text text-anchor="middle" x="528.5" y="-154.5" font-family="Helvetica,sans-Serif" font-size="10.00">::getLogger</text>
</a>
</g>
</g>
<!-- Node4&#45;&gt;Node5 -->
<g id="edge4" class="edge">
<title>Node4&#45;&gt;Node5</title>
<path fill="none" stroke="midnightblue" d="M378.43,-98.16C397.07,-108.88 428.58,-126.27 457,-138.5 461.37,-140.38 465.94,-142.22 470.57,-143.98"/>
<polygon fill="midnightblue" stroke="midnightblue" points="469.5,-147.32 480.09,-147.5 471.92,-140.75 469.5,-147.32"/>
</g>
<!-- Node6 -->
<g id="node6" class="node">
<title>Node6</title>
<g id="a_node6"><a xlink:href="classhelper_1_1logging_1_1_global_logger.html#a956281901fd88046239494c600e3c5e5" target="_top" xlink:title="Gets the null logger (ostream).">
<polygon fill="white" stroke="black" points="457,-98.5 457,-128.5 600,-128.5 600,-98.5 457,-98.5"/>
<text text-anchor="start" x="465" y="-116.5" font-family="Helvetica,sans-Serif" font-size="10.00">helper::logging::GlobalLogger</text>
<text text-anchor="middle" x="528.5" y="-105.5" font-family="Helvetica,sans-Serif" font-size="10.00">::getNullLogger</text>
</a>
</g>
</g>
<!-- Node4&#45;&gt;Node6 -->
<g id="edge5" class="edge">
<title>Node4&#45;&gt;Node6</title>
<path fill="none" stroke="midnightblue" d="M421.28,-97.45C429.55,-98.7 438.16,-100 446.73,-101.3"/>
<polygon fill="midnightblue" stroke="midnightblue" points="446.36,-104.78 456.77,-102.82 447.4,-97.86 446.36,-104.78"/>
</g>
<!-- Node7 -->
<g id="node7" class="node">
<title>Node7</title>
<g id="a_node7"><a xlink:href="namespacehelper_1_1logging.html#a69b892408158ee6bed51c5aafa694af7" target="_top" xlink:title="Converts the enum LogLevel into string.">
<polygon fill="white" stroke="black" points="468.5,-49.5 468.5,-79.5 588.5,-79.5 588.5,-49.5 468.5,-49.5"/>
<text text-anchor="start" x="476.5" y="-67.5" font-family="Helvetica,sans-Serif" font-size="10.00">helper::logging::logLevel</text>
<text text-anchor="middle" x="528.5" y="-56.5" font-family="Helvetica,sans-Serif" font-size="10.00">ToString</text>
</a>
</g>
</g>
<!-- Node4&#45;&gt;Node7 -->
<g id="edge6" class="edge">
<title>Node4&#45;&gt;Node7</title>
<path fill="none" stroke="midnightblue" d="M421.28,-79.9C433.24,-78.17 445.91,-76.33 458.17,-74.55"/>
<polygon fill="midnightblue" stroke="midnightblue" points="458.96,-77.98 468.35,-73.08 457.96,-71.05 458.96,-77.98"/>
</g>
<!-- Node8 -->
<g id="node8" class="node">
<title>Node8</title>
<g id="a_node8"><a xlink:href="namespacehelper_1_1logging.html#a33b1f83f96be6edb81fa28ddba33179d" target="_top" xlink:title="Gets the source file name out of the path.">
<polygon fill="white" stroke="black" points="461,-0.5 461,-30.5 596,-30.5 596,-0.5 461,-0.5"/>
<text text-anchor="start" x="469" y="-18.5" font-family="Helvetica,sans-Serif" font-size="10.00">helper::logging::stripSource</text>
<text text-anchor="middle" x="528.5" y="-7.5" font-family="Helvetica,sans-Serif" font-size="10.00">FileName</text>
</a>
</g>
</g>
<!-- Node4&#45;&gt;Node8 -->
<g id="edge7" class="edge">
<title>Node4&#45;&gt;Node8</title>
<path fill="none" stroke="midnightblue" d="M379.19,-78.98C397.99,-68.77 429.14,-52.42 457,-40.5 462.07,-38.33 467.41,-36.19 472.77,-34.13"/>
<polygon fill="midnightblue" stroke="midnightblue" points="474.28,-37.31 482.42,-30.52 471.82,-30.75 474.28,-37.31"/>
</g>
</g>
</svg>
