<?xml version="1.0" encoding="UTF-8" standalone="no"?>
<!DOCTYPE svg PUBLIC "-//W3C//DTD SVG 1.1//EN"
 "http://www.w3.org/Graphics/SVG/1.1/DTD/svg11.dtd">
<!-- Generated by graphviz version 2.47.3 (20210619.1520)
 -->
<!-- Title: btf::BtfFile::taskEvent Pages: 1 -->
<svg width="843pt" height="240pt"
 viewBox="0.00 0.00 843.00 239.50" xmlns="http://www.w3.org/2000/svg" xmlns:xlink="http://www.w3.org/1999/xlink">
<g id="graph0" class="graph" transform="scale(1 1) rotate(0) translate(4 235.5)">
<title>btf::BtfFile::taskEvent</title>
<polygon fill="white" stroke="transparent" points="-4,4 -4,-235.5 839,-235.5 839,4 -4,4"/>
<!-- Node1 -->
<g id="node1" class="node">
<title>Node1</title>
<g id="a_node1"><a xlink:title="Emits a task event (except migration).">
<polygon fill="#bfbfbf" stroke="black" points="0,-155 0,-174 110,-174 110,-155 0,-155"/>
<text text-anchor="middle" x="55" y="-162" font-family="Helvetica,sans-Serif" font-size="10.00">btf::BtfFile::taskEvent</text>
</a>
</g>
</g>
<!-- Node2 -->
<g id="node2" class="node">
<title>Node2</title>
<g id="a_node2"><a xlink:href="classbtf_1_1_process.html#a11991ab813dd34ef8d763f86b7fd40ad" target="_top" xlink:title="Gets the source type of the event.">
<polygon fill="white" stroke="black" points="166,-212 166,-231 306,-231 306,-212 166,-212"/>
<text text-anchor="middle" x="236" y="-219" font-family="Helvetica,sans-Serif" font-size="10.00">btf::Process::getSourceType</text>
</a>
</g>
</g>
<!-- Node1&#45;&gt;Node2 -->
<g id="edge1" class="edge">
<title>Node1&#45;&gt;Node2</title>
<path fill="none" stroke="midnightblue" d="M75.61,-174.06C93.58,-182.5 121.09,-194.66 146,-202.5 154.43,-205.15 163.43,-207.55 172.34,-209.69"/>
<polygon fill="midnightblue" stroke="midnightblue" points="171.8,-213.15 182.33,-211.98 173.37,-206.33 171.8,-213.15"/>
</g>
<!-- Node3 -->
<g id="node3" class="node">
<title>Node3</title>
<g id="a_node3"><a xlink:href="classbtf_1_1_process.html#a4d6bfff0474ce9b59ff3f24ebf4f9707" target="_top" xlink:title="Checks, if the event will lead to an allocation on the core.">
<polygon fill="white" stroke="black" points="151,-174 151,-193 321,-193 321,-174 151,-174"/>
<text text-anchor="middle" x="236" y="-181" font-family="Helvetica,sans-Serif" font-size="10.00">btf::Process::isEventAllocatingCore</text>
</a>
</g>
</g>
<!-- Node1&#45;&gt;Node3 -->
<g id="edge2" class="edge">
<title>Node1&#45;&gt;Node3</title>
<path fill="none" stroke="midnightblue" d="M110.19,-170.25C119.94,-171.29 130.35,-172.39 140.85,-173.51"/>
<polygon fill="midnightblue" stroke="midnightblue" points="140.61,-177 150.92,-174.58 141.35,-170.04 140.61,-177"/>
</g>
<!-- Node4 -->
<g id="node4" class="node">
<title>Node4</title>
<g id="a_node4"><a xlink:href="classbtf_1_1_process.html#a17fe41d5a36b8cb66280bfc2d9aa37dd" target="_top" xlink:title="Checks, if the event will lead to an deallocation from the core.">
<polygon fill="white" stroke="black" points="146,-136 146,-155 326,-155 326,-136 146,-136"/>
<text text-anchor="middle" x="236" y="-143" font-family="Helvetica,sans-Serif" font-size="10.00">btf::Process::isEventDeallocatingCore</text>
</a>
</g>
</g>
<!-- Node1&#45;&gt;Node4 -->
<g id="edge3" class="edge">
<title>Node1&#45;&gt;Node4</title>
<path fill="none" stroke="midnightblue" d="M110.19,-158.75C118.42,-157.87 127.11,-156.95 135.94,-156.02"/>
<polygon fill="midnightblue" stroke="midnightblue" points="136.36,-159.49 145.93,-154.95 135.62,-152.53 136.36,-159.49"/>
</g>
<!-- Node5 -->
<g id="node5" class="node">
<title>Node5</title>
<g id="a_node5"><a xlink:href="classbtf_1_1_btf_file.html#a126fc4ed06668e78d7a462c5e0294c13" target="_top" xlink:title="Emits a runnable event (source is a task). See overloaded function for more information.">
<polygon fill="white" stroke="black" points="172,-98 172,-117 300,-117 300,-98 172,-98"/>
<text text-anchor="middle" x="236" y="-105" font-family="Helvetica,sans-Serif" font-size="10.00">btf::BtfFile::runnableEvent</text>
</a>
</g>
</g>
<!-- Node1&#45;&gt;Node5 -->
<g id="edge4" class="edge">
<title>Node1&#45;&gt;Node5</title>
<path fill="none" stroke="midnightblue" d="M75.61,-154.94C93.58,-146.5 121.09,-134.34 146,-126.5 154.43,-123.85 163.43,-121.45 172.34,-119.31"/>
<polygon fill="midnightblue" stroke="midnightblue" points="173.37,-122.67 182.33,-117.02 171.8,-115.85 173.37,-122.67"/>
</g>
<!-- Node6 -->
<g id="node6" class="node">
<title>Node6</title>
<g id="a_node6"><a xlink:href="classbtf_1_1_runnable.html#ae588697e7b86706ac5a094af09db0c74" target="_top" xlink:title="Converts the enum Events into string.">
<polygon fill="white" stroke="black" points="362,-117 362,-136 500,-136 500,-117 362,-117"/>
<text text-anchor="middle" x="431" y="-124" font-family="Helvetica,sans-Serif" font-size="10.00">btf::Runnable::eventToString</text>
</a>
</g>
</g>
<!-- Node5&#45;&gt;Node6 -->
<g id="edge5" class="edge">
<title>Node5&#45;&gt;Node6</title>
<path fill="none" stroke="midnightblue" d="M300.2,-113.72C316.65,-115.34 334.57,-117.11 351.7,-118.79"/>
<polygon fill="midnightblue" stroke="midnightblue" points="351.38,-122.28 361.67,-119.77 352.06,-115.31 351.38,-122.28"/>
</g>
<!-- Node7 -->
<g id="node7" class="node">
<title>Node7</title>
<g id="a_node7"><a xlink:href="namespacehelper_1_1logging.html#a0e1881bbc937b702aa298c5f5141b79b" target="_top" xlink:title="Writes a trace message to the log.">
<polygon fill="white" stroke="black" points="367,-79 367,-98 495,-98 495,-79 367,-79"/>
<text text-anchor="middle" x="431" y="-86" font-family="Helvetica,sans-Serif" font-size="10.00">helper::logging::printTrace</text>
</a>
</g>
</g>
<!-- Node5&#45;&gt;Node7 -->
<g id="edge6" class="edge">
<title>Node5&#45;&gt;Node7</title>
<path fill="none" stroke="midnightblue" d="M300.2,-101.28C318.28,-99.5 338.15,-97.54 356.79,-95.71"/>
<polygon fill="midnightblue" stroke="midnightblue" points="357.38,-99.17 366.99,-94.7 356.7,-92.2 357.38,-99.17"/>
</g>
<!-- Node8 -->
<g id="node8" class="node">
<title>Node8</title>
<g id="a_node8"><a xlink:href="namespacehelper_1_1logging.html#aadee8ee5d31250ae8288888fa86814a3" target="_top" xlink:title="Prints a log message to the log.">
<polygon fill="white" stroke="black" points="536,-79 536,-98 656,-98 656,-79 536,-79"/>
<text text-anchor="middle" x="596" y="-86" font-family="Helvetica,sans-Serif" font-size="10.00">helper::logging::printLog</text>
</a>
</g>
</g>
<!-- Node7&#45;&gt;Node8 -->
<g id="edge7" class="edge">
<title>Node7&#45;&gt;Node8</title>
<path fill="none" stroke="midnightblue" d="M495.02,-88.5C505.1,-88.5 515.57,-88.5 525.79,-88.5"/>
<polygon fill="midnightblue" stroke="midnightblue" points="525.89,-92 535.89,-88.5 525.89,-85 525.89,-92"/>
</g>
<!-- Node9 -->
<g id="node9" class="node">
<title>Node9</title>
<g id="a_node9"><a xlink:href="classhelper_1_1logging_1_1_global_logger.html#a080a88af50f5861331d887d02324e9c2" target="_top" xlink:title="Gets the logger (ostream).">
<polygon fill="white" stroke="black" points="692,-147.5 692,-177.5 835,-177.5 835,-147.5 692,-147.5"/>
<text text-anchor="start" x="700" y="-165.5" font-family="Helvetica,sans-Serif" font-size="10.00">helper::logging::GlobalLogger</text>
<text text-anchor="middle" x="763.5" y="-154.5" font-family="Helvetica,sans-Serif" font-size="10.00">::getLogger</text>
</a>
</g>
</g>
<!-- Node8&#45;&gt;Node9 -->
<g id="edge8" class="edge">
<title>Node8&#45;&gt;Node9</title>
<path fill="none" stroke="midnightblue" d="M613.43,-98.16C632.07,-108.88 663.58,-126.27 692,-138.5 696.37,-140.38 700.94,-142.22 705.57,-143.98"/>
<polygon fill="midnightblue" stroke="midnightblue" points="704.5,-147.32 715.09,-147.5 706.92,-140.75 704.5,-147.32"/>
</g>
<!-- Node10 -->
<g id="node10" class="node">
<title>Node10</title>
<g id="a_node10"><a xlink:href="classhelper_1_1logging_1_1_global_logger.html#a956281901fd88046239494c600e3c5e5" target="_top" xlink:title="Gets the null logger (ostream).">
<polygon fill="white" stroke="black" points="692,-98.5 692,-128.5 835,-128.5 835,-98.5 692,-98.5"/>
<text text-anchor="start" x="700" y="-116.5" font-family="Helvetica,sans-Serif" font-size="10.00">helper::logging::GlobalLogger</text>
<text text-anchor="middle" x="763.5" y="-105.5" font-family="Helvetica,sans-Serif" font-size="10.00">::getNullLogger</text>
</a>
</g>
</g>
<!-- Node8&#45;&gt;Node10 -->
<g id="edge9" class="edge">
<title>Node8&#45;&gt;Node10</title>
<path fill="none" stroke="midnightblue" d="M656.28,-97.45C664.55,-98.7 673.16,-100 681.73,-101.3"/>
<polygon fill="midnightblue" stroke="midnightblue" points="681.36,-104.78 691.77,-102.82 682.4,-97.86 681.36,-104.78"/>
</g>
<!-- Node11 -->
<g id="node11" class="node">
<title>Node11</title>
<g id="a_node11"><a xlink:href="namespacehelper_1_1logging.html#a69b892408158ee6bed51c5aafa694af7" target="_top" xlink:title="Converts the enum LogLevel into string.">
<polygon fill="white" stroke="black" points="703.5,-49.5 703.5,-79.5 823.5,-79.5 823.5,-49.5 703.5,-49.5"/>
<text text-anchor="start" x="711.5" y="-67.5" font-family="Helvetica,sans-Serif" font-size="10.00">helper::logging::logLevel</text>
<text text-anchor="middle" x="763.5" y="-56.5" font-family="Helvetica,sans-Serif" font-size="10.00">ToString</text>
</a>
</g>
</g>
<!-- Node8&#45;&gt;Node11 -->
<g id="edge10" class="edge">
<title>Node8&#45;&gt;Node11</title>
<path fill="none" stroke="midnightblue" d="M656.28,-79.9C668.24,-78.17 680.91,-76.33 693.17,-74.55"/>
<polygon fill="midnightblue" stroke="midnightblue" points="693.96,-77.98 703.35,-73.08 692.96,-71.05 693.96,-77.98"/>
</g>
<!-- Node12 -->
<g id="node12" class="node">
<title>Node12</title>
<g id="a_node12"><a xlink:href="namespacehelper_1_1logging.html#a33b1f83f96be6edb81fa28ddba33179d" target="_top" xlink:title="Gets the source file name out of the path.">
<polygon fill="white" stroke="black" points="696,-0.5 696,-30.5 831,-30.5 831,-0.5 696,-0.5"/>
<text text-anchor="start" x="704" y="-18.5" font-family="Helvetica,sans-Serif" font-size="10.00">helper::logging::stripSource</text>
<text text-anchor="middle" x="763.5" y="-7.5" font-family="Helvetica,sans-Serif" font-size="10.00">FileName</text>
</a>
</g>
</g>
<!-- Node8&#45;&gt;Node12 -->
<g id="edge11" class="edge">
<title>Node8&#45;&gt;Node12</title>
<path fill="none" stroke="midnightblue" d="M614.19,-78.98C632.99,-68.77 664.14,-52.42 692,-40.5 697.07,-38.33 702.41,-36.19 707.77,-34.13"/>
<polygon fill="midnightblue" stroke="midnightblue" points="709.28,-37.31 717.42,-30.52 706.82,-30.75 709.28,-37.31"/>
</g>
</g>
</svg>
