<?xml version="1.0" encoding="UTF-8" standalone="no"?>
<!DOCTYPE svg PUBLIC "-//W3C//DTD SVG 1.1//EN"
 "http://www.w3.org/Graphics/SVG/1.1/DTD/svg11.dtd">
<!-- Generated by graphviz version 2.47.3 (20210619.1520)
 -->
<!-- Title: btf::BtfFile::schedulerEvent Pages: 1 -->
<svg width="653pt" height="186pt"
 viewBox="0.00 0.00 653.00 186.00" xmlns="http://www.w3.org/2000/svg" xmlns:xlink="http://www.w3.org/1999/xlink">
<g id="graph0" class="graph" transform="scale(1 1) rotate(0) translate(4 182)">
<title>btf::BtfFile::schedulerEvent</title>
<polygon fill="white" stroke="transparent" points="-4,4 -4,-182 649,-182 649,4 -4,4"/>
<!-- Node1 -->
<g id="node1" class="node">
<title>Node1</title>
<g id="a_node1"><a xlink:title="Emits a scheduler event. See overloaded function for more information.">
<polygon fill="#bfbfbf" stroke="black" points="0,-98 0,-117 133,-117 133,-98 0,-98"/>
<text text-anchor="middle" x="66.5" y="-105" font-family="Helvetica,sans-Serif" font-size="10.00">btf::BtfFile::schedulerEvent</text>
</a>
</g>
</g>
<!-- Node2 -->
<g id="node2" class="node">
<title>Node2</title>
<g id="a_node2"><a xlink:href="classbtf_1_1_scheduler.html#ade30adab31494faff6e8b89727522464" target="_top" xlink:title="Converts the enum Events into string.">
<polygon fill="white" stroke="black" points="169,-117 169,-136 310,-136 310,-117 169,-117"/>
<text text-anchor="middle" x="239.5" y="-124" font-family="Helvetica,sans-Serif" font-size="10.00">btf::Scheduler::eventToString</text>
</a>
</g>
</g>
<!-- Node1&#45;&gt;Node2 -->
<g id="edge1" class="edge">
<title>Node1&#45;&gt;Node2</title>
<path fill="none" stroke="midnightblue" d="M133.12,-114.79C141.52,-115.72 150.18,-116.69 158.77,-117.64"/>
<polygon fill="midnightblue" stroke="midnightblue" points="158.47,-121.13 168.79,-118.75 159.24,-114.17 158.47,-121.13"/>
</g>
<!-- Node3 -->
<g id="node3" class="node">
<title>Node3</title>
<g id="a_node3"><a xlink:href="namespacehelper_1_1logging.html#a0e1881bbc937b702aa298c5f5141b79b" target="_top" xlink:title="Writes a trace message to the log.">
<polygon fill="white" stroke="black" points="175.5,-79 175.5,-98 303.5,-98 303.5,-79 175.5,-79"/>
<text text-anchor="middle" x="239.5" y="-86" font-family="Helvetica,sans-Serif" font-size="10.00">helper::logging::printTrace</text>
</a>
</g>
</g>
<!-- Node1&#45;&gt;Node3 -->
<g id="edge2" class="edge">
<title>Node1&#45;&gt;Node3</title>
<path fill="none" stroke="midnightblue" d="M133.12,-100.21C143.62,-99.04 154.53,-97.83 165.19,-96.65"/>
<polygon fill="midnightblue" stroke="midnightblue" points="165.75,-100.1 175.3,-95.52 164.98,-93.15 165.75,-100.1"/>
</g>
<!-- Node4 -->
<g id="node4" class="node">
<title>Node4</title>
<g id="a_node4"><a xlink:href="namespacehelper_1_1logging.html#aadee8ee5d31250ae8288888fa86814a3" target="_top" xlink:title="Prints a log message to the log.">
<polygon fill="white" stroke="black" points="346,-79 346,-98 466,-98 466,-79 346,-79"/>
<text text-anchor="middle" x="406" y="-86" font-family="Helvetica,sans-Serif" font-size="10.00">helper::logging::printLog</text>
</a>
</g>
</g>
<!-- Node3&#45;&gt;Node4 -->
<g id="edge3" class="edge">
<title>Node3&#45;&gt;Node4</title>
<path fill="none" stroke="midnightblue" d="M303.63,-88.5C314.13,-88.5 325.08,-88.5 335.73,-88.5"/>
<polygon fill="midnightblue" stroke="midnightblue" points="335.82,-92 345.82,-88.5 335.82,-85 335.82,-92"/>
</g>
<!-- Node5 -->
<g id="node5" class="node">
<title>Node5</title>
<g id="a_node5"><a xlink:href="classhelper_1_1logging_1_1_global_logger.html#a080a88af50f5861331d887d02324e9c2" target="_top" xlink:title="Gets the logger (ostream).">
<polygon fill="white" stroke="black" points="502,-147.5 502,-177.5 645,-177.5 645,-147.5 502,-147.5"/>
<text text-anchor="start" x="510" y="-165.5" font-family="Helvetica,sans-Serif" font-size="10.00">helper::logging::GlobalLogger</text>
<text text-anchor="middle" x="573.5" y="-154.5" font-family="Helvetica,sans-Serif" font-size="10.00">::getLogger</text>
</a>
</g>
</g>
<!-- Node4&#45;&gt;Node5 -->
<g id="edge4" class="edge">
<title>Node4&#45;&gt;Node5</title>
<path fill="none" stroke="midnightblue" d="M423.43,-98.16C442.07,-108.88 473.58,-126.27 502,-138.5 506.37,-140.38 510.94,-142.22 515.57,-143.98"/>
<polygon fill="midnightblue" stroke="midnightblue" points="514.5,-147.32 525.09,-147.5 516.92,-140.75 514.5,-147.32"/>
</g>
<!-- Node6 -->
<g id="node6" class="node">
<title>Node6</title>
<g id="a_node6"><a xlink:href="classhelper_1_1logging_1_1_global_logger.html#a956281901fd88046239494c600e3c5e5" target="_top" xlink:title="Gets the null logger (ostream).">
<polygon fill="white" stroke="black" points="502,-98.5 502,-128.5 645,-128.5 645,-98.5 502,-98.5"/>
<text text-anchor="start" x="510" y="-116.5" font-family="Helvetica,sans-Serif" font-size="10.00">helper::logging::GlobalLogger</text>
<text text-anchor="middle" x="573.5" y="-105.5" font-family="Helvetica,sans-Serif" font-size="10.00">::getNullLogger</text>
</a>
</g>
</g>
<!-- Node4&#45;&gt;Node6 -->
<g id="edge5" class="edge">
<title>Node4&#45;&gt;Node6</title>
<path fill="none" stroke="midnightblue" d="M466.28,-97.45C474.55,-98.7 483.16,-100 491.73,-101.3"/>
<polygon fill="midnightblue" stroke="midnightblue" points="491.36,-104.78 501.77,-102.82 492.4,-97.86 491.36,-104.78"/>
</g>
<!-- Node7 -->
<g id="node7" class="node">
<title>Node7</title>
<g id="a_node7"><a xlink:href="namespacehelper_1_1logging.html#a69b892408158ee6bed51c5aafa694af7" target="_top" xlink:title="Converts the enum LogLevel into string.">
<polygon fill="white" stroke="black" points="513.5,-49.5 513.5,-79.5 633.5,-79.5 633.5,-49.5 513.5,-49.5"/>
<text text-anchor="start" x="521.5" y="-67.5" font-family="Helvetica,sans-Serif" font-size="10.00">helper::logging::logLevel</text>
<text text-anchor="middle" x="573.5" y="-56.5" font-family="Helvetica,sans-Serif" font-size="10.00">ToString</text>
</a>
</g>
</g>
<!-- Node4&#45;&gt;Node7 -->
<g id="edge6" class="edge">
<title>Node4&#45;&gt;Node7</title>
<path fill="none" stroke="midnightblue" d="M466.28,-79.9C478.24,-78.17 490.91,-76.33 503.17,-74.55"/>
<polygon fill="midnightblue" stroke="midnightblue" points="503.96,-77.98 513.35,-73.08 502.96,-71.05 503.96,-77.98"/>
</g>
<!-- Node8 -->
<g id="node8" class="node">
<title>Node8</title>
<g id="a_node8"><a xlink:href="namespacehelper_1_1logging.html#a33b1f83f96be6edb81fa28ddba33179d" target="_top" xlink:title="Gets the source file name out of the path.">
<polygon fill="white" stroke="black" points="506,-0.5 506,-30.5 641,-30.5 641,-0.5 506,-0.5"/>
<text text-anchor="start" x="514" y="-18.5" font-family="Helvetica,sans-Serif" font-size="10.00">helper::logging::stripSource</text>
<text text-anchor="middle" x="573.5" y="-7.5" font-family="Helvetica,sans-Serif" font-size="10.00">FileName</text>
</a>
</g>
</g>
<!-- Node4&#45;&gt;Node8 -->
<g id="edge7" class="edge">
<title>Node4&#45;&gt;Node8</title>
<path fill="none" stroke="midnightblue" d="M424.19,-78.98C442.99,-68.77 474.14,-52.42 502,-40.5 507.07,-38.33 512.41,-36.19 517.77,-34.13"/>
<polygon fill="midnightblue" stroke="midnightblue" points="519.28,-37.31 527.42,-30.52 516.82,-30.75 519.28,-37.31"/>
</g>
</g>
</svg>
