<?xml version="1.0" encoding="UTF-8" standalone="no"?>
<!DOCTYPE svg PUBLIC "-//W3C//DTD SVG 1.1//EN"
 "http://www.w3.org/Graphics/SVG/1.1/DTD/svg11.dtd">
<!-- Generated by graphviz version 2.47.3 (20210619.1520)
 -->
<!-- Title: helper::logging::GlobalLogger::openLogFile Pages: 1 -->
<svg width="583pt" height="39pt"
 viewBox="0.00 0.00 583.00 39.00" xmlns="http://www.w3.org/2000/svg" xmlns:xlink="http://www.w3.org/1999/xlink">
<g id="graph0" class="graph" transform="scale(1 1) rotate(0) translate(4 35)">
<title>helper::logging::GlobalLogger::openLogFile</title>
<polygon fill="white" stroke="transparent" points="-4,4 -4,-35 579,-35 579,4 -4,4"/>
<!-- Node1 -->
<g id="node1" class="node">
<title>Node1</title>
<g id="a_node1"><a xlink:title="Opens the log file.">
<polygon fill="#bfbfbf" stroke="black" points="432,-0.5 432,-30.5 575,-30.5 575,-0.5 432,-0.5"/>
<text text-anchor="start" x="440" y="-18.5" font-family="Helvetica,sans-Serif" font-size="10.00">helper::logging::GlobalLogger</text>
<text text-anchor="middle" x="503.5" y="-7.5" font-family="Helvetica,sans-Serif" font-size="10.00">::openLogFile</text>
</a>
</g>
</g>
<!-- Node2 -->
<g id="node2" class="node">
<title>Node2</title>
<g id="a_node2"><a xlink:href="namespacehelper_1_1logging.html#a07c8ea0d769c17b04f96a11ea545f8e8" target="_top" xlink:title="Initalizes the logging feature.">
<polygon fill="white" stroke="black" points="264,-6 264,-25 396,-25 396,-6 264,-6"/>
<text text-anchor="middle" x="330" y="-13" font-family="Helvetica,sans-Serif" font-size="10.00">helper::logging::initLogging</text>
</a>
</g>
</g>
<!-- Node1&#45;&gt;Node2 -->
<g id="edge1" class="edge">
<title>Node1&#45;&gt;Node2</title>
<path fill="none" stroke="midnightblue" d="M421.72,-15.5C413.12,-15.5 404.46,-15.5 396.08,-15.5"/>
<polygon fill="midnightblue" stroke="midnightblue" points="421.75,-19 431.75,-15.5 421.75,-12 421.75,-19"/>
</g>
<!-- Node3 -->
<g id="node3" class="node">
<title>Node3</title>
<g id="a_node3"><a xlink:href="libhelper__binding_8h.html#a2c5a40794af354dc9e9ec0a59b15a093" target="_top" xlink:title="Helper function which is called inside the PYBIND11_MODULE macro and adds Python bindings to the C++ ...">
<polygon fill="white" stroke="black" points="146,-6 146,-25 228,-25 228,-6 146,-6"/>
<text text-anchor="middle" x="187" y="-13" font-family="Helvetica,sans-Serif" font-size="10.00">init_pybtfhelper</text>
</a>
</g>
</g>
<!-- Node2&#45;&gt;Node3 -->
<g id="edge2" class="edge">
<title>Node2&#45;&gt;Node3</title>
<path fill="none" stroke="midnightblue" d="M253.62,-15.5C244.9,-15.5 236.29,-15.5 228.3,-15.5"/>
<polygon fill="midnightblue" stroke="midnightblue" points="253.87,-19 263.87,-15.5 253.87,-12 253.87,-19"/>
</g>
<!-- Node4 -->
<g id="node4" class="node">
<title>Node4</title>
<g id="a_node4"><a xlink:href="libbtf__binding_8cpp.html#adfae743278a01284c171e56ddabf18bd" target="_top" xlink:title="Macro that creates a function that will be called when the module pybtf is imported within python....">
<polygon fill="white" stroke="black" points="0,-6 0,-25 110,-25 110,-6 0,-6"/>
<text text-anchor="middle" x="55" y="-13" font-family="Helvetica,sans-Serif" font-size="10.00">PYBIND11_MODULE</text>
</a>
</g>
</g>
<!-- Node3&#45;&gt;Node4 -->
<g id="edge3" class="edge">
<title>Node3&#45;&gt;Node4</title>
<path fill="none" stroke="midnightblue" d="M135.84,-15.5C127.39,-15.5 118.59,-15.5 110.04,-15.5"/>
<polygon fill="midnightblue" stroke="midnightblue" points="135.93,-19 145.93,-15.5 135.93,-12 135.93,-19"/>
</g>
</g>
</svg>
