<?xml version="1.0" encoding="UTF-8" standalone="no"?>
<!DOCTYPE svg PUBLIC "-//W3C//DTD SVG 1.1//EN"
 "http://www.w3.org/Graphics/SVG/1.1/DTD/svg11.dtd">
<!-- Generated by graphviz version 2.47.3 (20210619.1520)
 -->
<!-- Title: btf::BtfFile::semaphoreEvent Pages: 1 -->
<svg width="461pt" height="47pt"
 viewBox="0.00 0.00 461.00 47.00" xmlns="http://www.w3.org/2000/svg" xmlns:xlink="http://www.w3.org/1999/xlink">
<g id="graph0" class="graph" transform="scale(1 1) rotate(0) translate(4 43)">
<title>btf::BtfFile::semaphoreEvent</title>
<polygon fill="white" stroke="transparent" points="-4,4 -4,-43 457,-43 457,4 -4,4"/>
<!-- Node1 -->
<g id="node1" class="node">
<title>Node1</title>
<g id="a_node1"><a xlink:title="Emits a semaphore event. See overloaded function for more information.">
<polygon fill="#bfbfbf" stroke="black" points="314,-0.5 314,-19.5 453,-19.5 453,-0.5 314,-0.5"/>
<text text-anchor="middle" x="383.5" y="-7.5" font-family="Helvetica,sans-Serif" font-size="10.00">btf::BtfFile::semaphoreEvent</text>
</a>
</g>
</g>
<!-- Node2 -->
<g id="node2" class="node">
<title>Node2</title>
<g id="a_node2"><a xlink:href="classbtf_1_1_btf_file.html#ae1e0e725a1569e510b767acc6ce2d648" target="_top" xlink:title="Appends the data from a BTF file. Currently only import into an empty BTF file is supported.">
<polygon fill="white" stroke="black" points="146,-19.5 146,-38.5 278,-38.5 278,-19.5 146,-19.5"/>
<text text-anchor="middle" x="212" y="-26.5" font-family="Helvetica,sans-Serif" font-size="10.00">btf::BtfFile::importFromFile</text>
</a>
</g>
</g>
<!-- Node1&#45;&gt;Node2 -->
<g id="edge1" class="edge">
<title>Node1&#45;&gt;Node2</title>
<path fill="none" stroke="midnightblue" d="M303.58,-18.85C295.03,-19.8 286.41,-20.77 278.05,-21.71"/>
<polygon fill="midnightblue" stroke="midnightblue" points="304.01,-22.32 313.56,-17.73 303.23,-15.36 304.01,-22.32"/>
</g>
<!-- Node3 -->
<g id="node3" class="node">
<title>Node3</title>
<g id="a_node3"><a xlink:href="libbtf__binding_8cpp.html#adfae743278a01284c171e56ddabf18bd" target="_top" xlink:title="Macro that creates a function that will be called when the module pybtf is imported within python....">
<polygon fill="white" stroke="black" points="0,-0.5 0,-19.5 110,-19.5 110,-0.5 0,-0.5"/>
<text text-anchor="middle" x="55" y="-7.5" font-family="Helvetica,sans-Serif" font-size="10.00">PYBIND11_MODULE</text>
</a>
</g>
</g>
<!-- Node1&#45;&gt;Node3 -->
<g id="edge3" class="edge">
<title>Node1&#45;&gt;Node3</title>
<path fill="none" stroke="midnightblue" d="M303.48,-10C243.61,-10 162.91,-10 110.19,-10"/>
<polygon fill="midnightblue" stroke="midnightblue" points="303.66,-13.5 313.66,-10 303.66,-6.5 303.66,-13.5"/>
</g>
<!-- Node2&#45;&gt;Node3 -->
<g id="edge2" class="edge">
<title>Node2&#45;&gt;Node3</title>
<path fill="none" stroke="midnightblue" d="M135.74,-19.77C127.2,-18.73 118.63,-17.68 110.43,-16.67"/>
<polygon fill="midnightblue" stroke="midnightblue" points="135.36,-23.25 145.72,-21 136.22,-16.31 135.36,-23.25"/>
</g>
</g>
</svg>
