<?xml version="1.0" encoding="UTF-8" standalone="no"?>
<!DOCTYPE svg PUBLIC "-//W3C//DTD SVG 1.1//EN"
 "http://www.w3.org/Graphics/SVG/1.1/DTD/svg11.dtd">
<!-- Generated by graphviz version 2.47.3 (20210619.1520)
 -->
<!-- Title: src/libBtf/include/btf/common.h Pages: 1 -->
<!--zoomable 240 -->
<svg id="main" version="1.1" xmlns="http://www.w3.org/2000/svg" xmlns:xlink="http://www.w3.org/1999/xlink" xml:space="preserve" onload="init(evt)">
<style type="text/css"><![CDATA[
.edge:hover path { stroke: red; }
.edge:hover polygon { stroke: red; fill: red; }
]]></style>
<script type="text/javascript"><![CDATA[
var edges = document.getElementsByTagName('g');
if (edges && edges.length) {
  for (var i=0;i<edges.length;i++) {
    if (edges[i].id.substr(0,4)=='edge') {
      edges[i].setAttribute('class','edge');
    }
  }
}
]]></script>
        <defs>
                <circle id="rim" cx="0" cy="0" r="7"/>
                <circle id="rim2" cx="0" cy="0" r="3.5"/>
                <g id="zoomPlus">
                        <use xlink:href="#rim" fill="#404040">
                                <set attributeName="fill" to="#808080" begin="zoomplus.mouseover" end="zoomplus.mouseout"/>
                        </use>
                        <path d="M-4,0h8M0,-4v8" fill="none" stroke="white" stroke-width="1.5" pointer-events="none"/>
                </g>
                <g id="zoomMin">
                        <use xlink:href="#rim" fill="#404040">
                                <set attributeName="fill" to="#808080" begin="zoomminus.mouseover" end="zoomminus.mouseout"/>
                        </use>
                        <path d="M-4,0h8" fill="none" stroke="white" stroke-width="1.5" pointer-events="none"/>
                </g>
                <g id="dirArrow">
                        <path fill="none" stroke="white" stroke-width="1.5" d="M0,-3.0v7 M-2.5,-0.5L0,-3.0L2.5,-0.5"/>
                </g>
               <g id="resetDef">
                       <use xlink:href="#rim2" fill="#404040">
                               <set attributeName="fill" to="#808080" begin="reset.mouseover" end="reset.mouseout"/>
                       </use>
               </g>
        </defs>

<script type="text/javascript">
var viewWidth = 1468;
var viewHeight = 240;
var sectionId = 'dynsection-1';
</script>
<script xlink:href="svgpan.js"/>
<svg id="graph" class="graph">
<g id="viewport">
<title>src/libBtf/include/btf/common.h</title>
<polygon fill="white" stroke="transparent" points="-4,4 -4,-236 1463.5,-236 1463.5,4 -4,4"/>
<!-- Node1 -->
<g id="node1" class="node">
<title>Node1</title>
<g id="a_node1"><a xlink:title=" ">
<polygon fill="#bfbfbf" stroke="black" points="710.5,-201.5 710.5,-231.5 799.5,-231.5 799.5,-201.5 710.5,-201.5"/>
<text text-anchor="start" x="718.5" y="-219.5" font-family="Helvetica,sans-Serif" font-size="10.00">src/libBtf/include</text>
<text text-anchor="middle" x="755" y="-208.5" font-family="Helvetica,sans-Serif" font-size="10.00">/btf/common.h</text>
</a>
</g>
</g>
<!-- Node2 -->
<g id="node2" class="node">
<title>Node2</title>
<g id="a_node2"><a xlink:href="btf_8h.html" target="_top" xlink:title=" ">
<polygon fill="white" stroke="black" points="502.5,-67.5 502.5,-97.5 591.5,-97.5 591.5,-67.5 502.5,-67.5"/>
<text text-anchor="start" x="510.5" y="-85.5" font-family="Helvetica,sans-Serif" font-size="10.00">src/libBtf/include</text>
<text text-anchor="middle" x="547" y="-74.5" font-family="Helvetica,sans-Serif" font-size="10.00">/btf/btf.h</text>
</a>
</g>
</g>
<!-- Node1&#45;&gt;Node2 -->
<g id="edge1" class="edge">
<title>Node1&#45;&gt;Node2</title>
<path fill="none" stroke="midnightblue" d="M700.16,-208.33C666.88,-201.68 625.16,-189 595,-165 572.64,-147.21 558.5,-115.95 551.74,-97.75"/>
<polygon fill="midnightblue" stroke="midnightblue" points="699.72,-211.81 710.2,-210.21 701.01,-204.93 699.72,-211.81"/>
</g>
<!-- Node5 -->
<g id="node5" class="node">
<title>Node5</title>
<g id="a_node5"><a xlink:href="btf__signal_8h.html" target="_top" xlink:title=" ">
<polygon fill="white" stroke="black" points="243.5,-134.5 243.5,-164.5 332.5,-164.5 332.5,-134.5 243.5,-134.5"/>
<text text-anchor="start" x="251.5" y="-152.5" font-family="Helvetica,sans-Serif" font-size="10.00">src/libBtf/include</text>
<text text-anchor="middle" x="288" y="-141.5" font-family="Helvetica,sans-Serif" font-size="10.00">/btf/btf_signal.h</text>
</a>
</g>
</g>
<!-- Node1&#45;&gt;Node5 -->
<g id="edge4" class="edge">
<title>Node1&#45;&gt;Node5</title>
<path fill="none" stroke="midnightblue" d="M699.96,-211.35C620.26,-204.77 468.32,-190.04 341,-165 338.29,-164.47 335.51,-163.87 332.71,-163.22"/>
<polygon fill="midnightblue" stroke="midnightblue" points="700,-214.87 710.25,-212.19 700.56,-207.89 700,-214.87"/>
</g>
<!-- Node7 -->
<g id="node7" class="node">
<title>Node7</title>
<g id="a_node7"><a xlink:href="core_8h.html" target="_top" xlink:title=" ">
<polygon fill="white" stroke="black" points="350.5,-134.5 350.5,-164.5 439.5,-164.5 439.5,-134.5 350.5,-134.5"/>
<text text-anchor="start" x="358.5" y="-152.5" font-family="Helvetica,sans-Serif" font-size="10.00">src/libBtf/include</text>
<text text-anchor="middle" x="395" y="-141.5" font-family="Helvetica,sans-Serif" font-size="10.00">/btf/core.h</text>
</a>
</g>
</g>
<!-- Node1&#45;&gt;Node7 -->
<g id="edge7" class="edge">
<title>Node1&#45;&gt;Node7</title>
<path fill="none" stroke="midnightblue" d="M700.22,-208.24C638.56,-199.67 535.55,-184.12 448,-165 445.3,-164.41 442.53,-163.77 439.74,-163.09"/>
<polygon fill="midnightblue" stroke="midnightblue" points="700.11,-211.76 710.49,-209.66 701.07,-204.83 700.11,-211.76"/>
</g>
<!-- Node9 -->
<g id="node9" class="node">
<title>Node9</title>
<g id="a_node9"><a xlink:href="os_8h.html" target="_top" xlink:title=" ">
<polygon fill="white" stroke="black" points="457.5,-134.5 457.5,-164.5 546.5,-164.5 546.5,-134.5 457.5,-134.5"/>
<text text-anchor="start" x="465.5" y="-152.5" font-family="Helvetica,sans-Serif" font-size="10.00">src/libBtf/include</text>
<text text-anchor="middle" x="502" y="-141.5" font-family="Helvetica,sans-Serif" font-size="10.00">/btf/os.h</text>
</a>
</g>
</g>
<!-- Node1&#45;&gt;Node9 -->
<g id="edge10" class="edge">
<title>Node1&#45;&gt;Node9</title>
<path fill="none" stroke="midnightblue" d="M700.56,-201.51C654.59,-189.7 589.57,-173 546.63,-161.97"/>
<polygon fill="midnightblue" stroke="midnightblue" points="699.79,-204.93 710.35,-204.03 701.54,-198.15 699.79,-204.93"/>
</g>
<!-- Node11 -->
<g id="node11" class="node">
<title>Node11</title>
<g id="a_node11"><a xlink:href="process_8h.html" target="_top" xlink:title=" ">
<polygon fill="white" stroke="black" points="136.5,-134.5 136.5,-164.5 225.5,-164.5 225.5,-134.5 136.5,-134.5"/>
<text text-anchor="start" x="144.5" y="-152.5" font-family="Helvetica,sans-Serif" font-size="10.00">src/libBtf/include</text>
<text text-anchor="middle" x="181" y="-141.5" font-family="Helvetica,sans-Serif" font-size="10.00">/btf/process.h</text>
</a>
</g>
</g>
<!-- Node1&#45;&gt;Node11 -->
<g id="edge13" class="edge">
<title>Node1&#45;&gt;Node11</title>
<path fill="none" stroke="midnightblue" d="M700.11,-213.26C604.66,-208.67 402.2,-195.93 234,-165 231.28,-164.5 228.49,-163.93 225.7,-163.3"/>
<polygon fill="midnightblue" stroke="midnightblue" points="700.24,-216.77 710.39,-213.74 700.56,-209.77 700.24,-216.77"/>
</g>
<!-- Node12 -->
<g id="node12" class="node">
<title>Node12</title>
<g id="a_node12"><a xlink:href="process_8cpp.html" target="_top" xlink:title=" ">
<polygon fill="white" stroke="black" points="0,-73 0,-92 128,-92 128,-73 0,-73"/>
<text text-anchor="middle" x="64" y="-80" font-family="Helvetica,sans-Serif" font-size="10.00">src/libBtf/src/process.cpp</text>
</a>
</g>
</g>
<!-- Node1&#45;&gt;Node12 -->
<g id="edge33" class="edge">
<title>Node1&#45;&gt;Node12</title>
<path fill="none" stroke="midnightblue" d="M699.89,-213.61C556.01,-208.31 176.73,-191.94 127,-165 96.18,-148.3 75.62,-109.4 67.68,-92.08"/>
<polygon fill="midnightblue" stroke="midnightblue" points="700.12,-217.12 710.24,-213.98 700.37,-210.12 700.12,-217.12"/>
</g>
<!-- Node13 -->
<g id="node13" class="node">
<title>Node13</title>
<g id="a_node13"><a xlink:href="runnable_8h.html" target="_top" xlink:title=" ">
<polygon fill="white" stroke="black" points="924.5,-134.5 924.5,-164.5 1013.5,-164.5 1013.5,-134.5 924.5,-134.5"/>
<text text-anchor="start" x="932.5" y="-152.5" font-family="Helvetica,sans-Serif" font-size="10.00">src/libBtf/include</text>
<text text-anchor="middle" x="969" y="-141.5" font-family="Helvetica,sans-Serif" font-size="10.00">/btf/runnable.h</text>
</a>
</g>
</g>
<!-- Node1&#45;&gt;Node13 -->
<g id="edge16" class="edge">
<title>Node1&#45;&gt;Node13</title>
<path fill="none" stroke="midnightblue" d="M809.36,-198.99C844.99,-188.17 890.99,-174.19 924.46,-164.03"/>
<polygon fill="midnightblue" stroke="midnightblue" points="808.15,-195.7 799.6,-201.95 810.19,-202.4 808.15,-195.7"/>
</g>
<!-- Node14 -->
<g id="node14" class="node">
<title>Node14</title>
<g id="a_node14"><a xlink:href="runnable_8cpp.html" target="_top" xlink:title=" ">
<polygon fill="white" stroke="black" points="1066,-73 1066,-92 1196,-92 1196,-73 1066,-73"/>
<text text-anchor="middle" x="1131" y="-80" font-family="Helvetica,sans-Serif" font-size="10.00">src/libBtf/src/runnable.cpp</text>
</a>
</g>
</g>
<!-- Node1&#45;&gt;Node14 -->
<g id="edge34" class="edge">
<title>Node1&#45;&gt;Node14</title>
<path fill="none" stroke="midnightblue" d="M809.71,-212.89C865.57,-208.5 953.69,-196.7 1023,-165 1043.14,-155.79 1044.4,-147.43 1062,-134 1081.71,-118.96 1105.07,-102.05 1118.93,-92.11"/>
<polygon fill="midnightblue" stroke="midnightblue" points="809.38,-209.41 799.67,-213.63 809.89,-216.39 809.38,-209.41"/>
</g>
<!-- Node15 -->
<g id="node15" class="node">
<title>Node15</title>
<g id="a_node15"><a xlink:href="scheduler_8h.html" target="_top" xlink:title=" ">
<polygon fill="white" stroke="black" points="603.5,-134.5 603.5,-164.5 692.5,-164.5 692.5,-134.5 603.5,-134.5"/>
<text text-anchor="start" x="611.5" y="-152.5" font-family="Helvetica,sans-Serif" font-size="10.00">src/libBtf/include</text>
<text text-anchor="middle" x="648" y="-141.5" font-family="Helvetica,sans-Serif" font-size="10.00">/btf/scheduler.h</text>
</a>
</g>
</g>
<!-- Node1&#45;&gt;Node15 -->
<g id="edge19" class="edge">
<title>Node1&#45;&gt;Node15</title>
<path fill="none" stroke="midnightblue" d="M722.92,-196.02C706.27,-185.9 686.31,-173.77 671.17,-164.58"/>
<polygon fill="midnightblue" stroke="midnightblue" points="721.42,-199.2 731.78,-201.4 725.05,-193.21 721.42,-199.2"/>
</g>
<!-- Node17 -->
<g id="node17" class="node">
<title>Node17</title>
<g id="a_node17"><a xlink:href="semaphore_8h.html" target="_top" xlink:title=" ">
<polygon fill="white" stroke="black" points="1070.5,-134.5 1070.5,-164.5 1159.5,-164.5 1159.5,-134.5 1070.5,-134.5"/>
<text text-anchor="start" x="1078.5" y="-152.5" font-family="Helvetica,sans-Serif" font-size="10.00">src/libBtf/include</text>
<text text-anchor="middle" x="1115" y="-141.5" font-family="Helvetica,sans-Serif" font-size="10.00">/btf/semaphore.h</text>
</a>
</g>
</g>
<!-- Node1&#45;&gt;Node17 -->
<g id="edge22" class="edge">
<title>Node1&#45;&gt;Node17</title>
<path fill="none" stroke="midnightblue" d="M809.65,-207.59C870.14,-198.54 970.4,-182.67 1056,-165 1060.65,-164.04 1065.49,-162.97 1070.3,-161.86"/>
<polygon fill="midnightblue" stroke="midnightblue" points="808.94,-204.15 799.56,-209.09 809.97,-211.08 808.94,-204.15"/>
</g>
<!-- Node18 -->
<g id="node18" class="node">
<title>Node18</title>
<g id="a_node18"><a xlink:href="semaphore_8cpp.html" target="_top" xlink:title=" ">
<polygon fill="white" stroke="black" points="1214.5,-73 1214.5,-92 1355.5,-92 1355.5,-73 1214.5,-73"/>
<text text-anchor="middle" x="1285" y="-80" font-family="Helvetica,sans-Serif" font-size="10.00">src/libBtf/src/semaphore.cpp</text>
</a>
</g>
</g>
<!-- Node1&#45;&gt;Node18 -->
<g id="edge35" class="edge">
<title>Node1&#45;&gt;Node18</title>
<path fill="none" stroke="midnightblue" d="M809.89,-212.59C907.16,-206.81 1105.53,-192.05 1169,-165 1189.05,-156.46 1189.38,-146.83 1207,-134 1228.52,-118.33 1254.7,-101.88 1270.6,-92.17"/>
<polygon fill="midnightblue" stroke="midnightblue" points="809.45,-209.11 799.67,-213.19 809.86,-216.1 809.45,-209.11"/>
</g>
<!-- Node19 -->
<g id="node19" class="node">
<title>Node19</title>
<g id="a_node19"><a xlink:href="simulation_8h.html" target="_top" xlink:title=" ">
<polygon fill="white" stroke="black" points="710.5,-134.5 710.5,-164.5 799.5,-164.5 799.5,-134.5 710.5,-134.5"/>
<text text-anchor="start" x="718.5" y="-152.5" font-family="Helvetica,sans-Serif" font-size="10.00">src/libBtf/include</text>
<text text-anchor="middle" x="755" y="-141.5" font-family="Helvetica,sans-Serif" font-size="10.00">/btf/simulation.h</text>
</a>
</g>
</g>
<!-- Node1&#45;&gt;Node19 -->
<g id="edge25" class="edge">
<title>Node1&#45;&gt;Node19</title>
<path fill="none" stroke="midnightblue" d="M755,-191.11C755,-182.15 755,-172.32 755,-164.58"/>
<polygon fill="midnightblue" stroke="midnightblue" points="751.5,-191.4 755,-201.4 758.5,-191.4 751.5,-191.4"/>
</g>
<!-- Node21 -->
<g id="node21" class="node">
<title>Node21</title>
<g id="a_node21"><a xlink:href="stimulus_8h.html" target="_top" xlink:title=" ">
<polygon fill="white" stroke="black" points="817.5,-134.5 817.5,-164.5 906.5,-164.5 906.5,-134.5 817.5,-134.5"/>
<text text-anchor="start" x="825.5" y="-152.5" font-family="Helvetica,sans-Serif" font-size="10.00">src/libBtf/include</text>
<text text-anchor="middle" x="862" y="-141.5" font-family="Helvetica,sans-Serif" font-size="10.00">/btf/stimulus.h</text>
</a>
</g>
</g>
<!-- Node1&#45;&gt;Node21 -->
<g id="edge28" class="edge">
<title>Node1&#45;&gt;Node21</title>
<path fill="none" stroke="midnightblue" d="M787.08,-196.02C803.73,-185.9 823.69,-173.77 838.83,-164.58"/>
<polygon fill="midnightblue" stroke="midnightblue" points="784.95,-193.21 778.22,-201.4 788.58,-199.2 784.95,-193.21"/>
</g>
<!-- Node23 -->
<g id="node23" class="node">
<title>Node23</title>
<g id="a_node23"><a xlink:href="btf__entity__types_8cpp.html" target="_top" xlink:title=" ">
<polygon fill="white" stroke="black" points="1216,-134.5 1216,-164.5 1310,-164.5 1310,-134.5 1216,-134.5"/>
<text text-anchor="start" x="1224" y="-152.5" font-family="Helvetica,sans-Serif" font-size="10.00">src/libBtf/src/btf</text>
<text text-anchor="middle" x="1263" y="-141.5" font-family="Helvetica,sans-Serif" font-size="10.00">_entity_types.cpp</text>
</a>
</g>
</g>
<!-- Node1&#45;&gt;Node23 -->
<g id="edge31" class="edge">
<title>Node1&#45;&gt;Node23</title>
<path fill="none" stroke="midnightblue" d="M809.81,-211.46C894.4,-204.73 1061.68,-189.51 1202,-165 1206.5,-164.21 1211.17,-163.29 1215.83,-162.31"/>
<polygon fill="midnightblue" stroke="midnightblue" points="809.36,-207.98 799.67,-212.25 809.91,-214.96 809.36,-207.98"/>
</g>
<!-- Node24 -->
<g id="node24" class="node">
<title>Node24</title>
<g id="a_node24"><a xlink:href="common_8cpp.html" target="_top" xlink:title=" ">
<polygon fill="white" stroke="black" points="1328.5,-140 1328.5,-159 1459.5,-159 1459.5,-140 1328.5,-140"/>
<text text-anchor="middle" x="1394" y="-147" font-family="Helvetica,sans-Serif" font-size="10.00">src/libBtf/src/common.cpp</text>
</a>
</g>
</g>
<!-- Node1&#45;&gt;Node24 -->
<g id="edge32" class="edge">
<title>Node1&#45;&gt;Node24</title>
<path fill="none" stroke="midnightblue" d="M810.05,-212.44C911.21,-206.39 1133.32,-191.19 1319,-165 1330.42,-163.39 1342.75,-161.2 1354.04,-159.01"/>
<polygon fill="midnightblue" stroke="midnightblue" points="809.55,-208.96 799.78,-213.04 809.97,-215.95 809.55,-208.96"/>
</g>
<!-- Node3 -->
<g id="node3" class="node">
<title>Node3</title>
<g id="a_node3"><a xlink:href="btf_8cpp.html" target="_top" xlink:title=" ">
<polygon fill="white" stroke="black" points="436,-6 436,-25 540,-25 540,-6 436,-6"/>
<text text-anchor="middle" x="488" y="-13" font-family="Helvetica,sans-Serif" font-size="10.00">src/libBtf/src/btf.cpp</text>
</a>
</g>
</g>
<!-- Node2&#45;&gt;Node3 -->
<g id="edge2" class="edge">
<title>Node2&#45;&gt;Node3</title>
<path fill="none" stroke="midnightblue" d="M527.17,-59.66C516.47,-47.86 503.85,-33.97 495.89,-25.19"/>
<polygon fill="midnightblue" stroke="midnightblue" points="524.89,-62.34 534.2,-67.4 530.07,-57.64 524.89,-62.34"/>
</g>
<!-- Node4 -->
<g id="node4" class="node">
<title>Node4</title>
<g id="a_node4"><a xlink:href="libbtf__binding_8cpp.html" target="_top" xlink:title=" ">
<polygon fill="white" stroke="black" points="558,-0.5 558,-30.5 654,-30.5 654,-0.5 558,-0.5"/>
<text text-anchor="start" x="566" y="-18.5" font-family="Helvetica,sans-Serif" font-size="10.00">src/pybindings/src</text>
<text text-anchor="middle" x="606" y="-7.5" font-family="Helvetica,sans-Serif" font-size="10.00">/libbtf_binding.cpp</text>
</a>
</g>
</g>
<!-- Node2&#45;&gt;Node4 -->
<g id="edge3" class="edge">
<title>Node2&#45;&gt;Node4</title>
<path fill="none" stroke="midnightblue" d="M566.75,-59.74C575.48,-50.12 585.5,-39.09 593.22,-30.58"/>
<polygon fill="midnightblue" stroke="midnightblue" points="563.93,-57.64 559.8,-67.4 569.11,-62.34 563.93,-57.64"/>
</g>
<!-- Node5&#45;&gt;Node2 -->
<g id="edge5" class="edge">
<title>Node5&#45;&gt;Node2</title>
<path fill="none" stroke="midnightblue" d="M342.37,-133.7C409.94,-116.64 428.71,-114.24 493,-98 496.01,-97.24 499.11,-96.44 502.24,-95.63"/>
<polygon fill="midnightblue" stroke="midnightblue" points="341.33,-130.35 332.5,-136.2 343.06,-137.13 341.33,-130.35"/>
</g>
<!-- Node6 -->
<g id="node6" class="node">
<title>Node6</title>
<g id="a_node6"><a xlink:href="btf__signal_8cpp.html" target="_top" xlink:title=" ">
<polygon fill="white" stroke="black" points="146.5,-67.5 146.5,-97.5 231.5,-97.5 231.5,-67.5 146.5,-67.5"/>
<text text-anchor="start" x="154.5" y="-85.5" font-family="Helvetica,sans-Serif" font-size="10.00">src/libBtf/src/btf</text>
<text text-anchor="middle" x="189" y="-74.5" font-family="Helvetica,sans-Serif" font-size="10.00">_signal.cpp</text>
</a>
</g>
</g>
<!-- Node5&#45;&gt;Node6 -->
<g id="edge6" class="edge">
<title>Node5&#45;&gt;Node6</title>
<path fill="none" stroke="midnightblue" d="M257.89,-128.73C242.58,-118.68 224.31,-106.68 210.44,-97.58"/>
<polygon fill="midnightblue" stroke="midnightblue" points="256.24,-131.83 266.52,-134.4 260.08,-125.98 256.24,-131.83"/>
</g>
<!-- Node7&#45;&gt;Node2 -->
<g id="edge8" class="edge">
<title>Node7&#45;&gt;Node2</title>
<path fill="none" stroke="midnightblue" d="M437.31,-130.41C461.58,-120.03 491.59,-107.2 514.08,-97.58"/>
<polygon fill="midnightblue" stroke="midnightblue" points="435.8,-127.25 427.98,-134.4 438.55,-133.68 435.8,-127.25"/>
</g>
<!-- Node8 -->
<g id="node8" class="node">
<title>Node8</title>
<g id="a_node8"><a xlink:href="core_8cpp.html" target="_top" xlink:title=" ">
<polygon fill="white" stroke="black" points="250,-73 250,-92 362,-92 362,-73 250,-73"/>
<text text-anchor="middle" x="306" y="-80" font-family="Helvetica,sans-Serif" font-size="10.00">src/libBtf/src/core.cpp</text>
</a>
</g>
</g>
<!-- Node7&#45;&gt;Node8 -->
<g id="edge9" class="edge">
<title>Node7&#45;&gt;Node8</title>
<path fill="none" stroke="midnightblue" d="M367.35,-128.31C350.64,-116.1 330.2,-101.18 317.65,-92.01"/>
<polygon fill="midnightblue" stroke="midnightblue" points="365.55,-131.32 375.69,-134.4 369.68,-125.67 365.55,-131.32"/>
</g>
<!-- Node9&#45;&gt;Node2 -->
<g id="edge11" class="edge">
<title>Node9&#45;&gt;Node2</title>
<path fill="none" stroke="midnightblue" d="M517.47,-126.16C524.03,-116.68 531.48,-105.92 537.25,-97.58"/>
<polygon fill="midnightblue" stroke="midnightblue" points="514.58,-124.18 511.76,-134.4 520.33,-128.17 514.58,-124.18"/>
</g>
<!-- Node10 -->
<g id="node10" class="node">
<title>Node10</title>
<g id="a_node10"><a xlink:href="os_8cpp.html" target="_top" xlink:title=" ">
<polygon fill="white" stroke="black" points="380,-73 380,-92 484,-92 484,-73 380,-73"/>
<text text-anchor="middle" x="432" y="-80" font-family="Helvetica,sans-Serif" font-size="10.00">src/libBtf/src/os.cpp</text>
</a>
</g>
</g>
<!-- Node9&#45;&gt;Node10 -->
<g id="edge12" class="edge">
<title>Node9&#45;&gt;Node10</title>
<path fill="none" stroke="midnightblue" d="M479.21,-127.34C466.35,-115.4 450.99,-101.14 441.36,-92.19"/>
<polygon fill="midnightblue" stroke="midnightblue" points="477.1,-130.16 486.81,-134.4 481.86,-125.03 477.1,-130.16"/>
</g>
<!-- Node11&#45;&gt;Node2 -->
<g id="edge14" class="edge">
<title>Node11&#45;&gt;Node2</title>
<path fill="none" stroke="midnightblue" d="M235.54,-133.84C349.61,-111.17 382.22,-120.48 493,-98 496.04,-97.38 499.17,-96.69 502.31,-95.96"/>
<polygon fill="midnightblue" stroke="midnightblue" points="234.83,-130.41 225.72,-135.83 236.22,-137.27 234.83,-130.41"/>
</g>
<!-- Node11&#45;&gt;Node12 -->
<g id="edge15" class="edge">
<title>Node11&#45;&gt;Node12</title>
<path fill="none" stroke="midnightblue" d="M146.75,-129.47C124.42,-117.06 96.35,-101.47 79.31,-92.01"/>
<polygon fill="midnightblue" stroke="midnightblue" points="145.17,-132.6 155.61,-134.4 148.57,-126.48 145.17,-132.6"/>
</g>
<!-- Node13&#45;&gt;Node2 -->
<g id="edge17" class="edge">
<title>Node13&#45;&gt;Node2</title>
<path fill="none" stroke="midnightblue" d="M914.16,-133.83C775.79,-108.1 736.18,-123.73 601,-98 597.95,-97.42 594.82,-96.76 591.67,-96.04"/>
<polygon fill="midnightblue" stroke="midnightblue" points="913.82,-137.32 924.29,-135.75 915.12,-130.45 913.82,-137.32"/>
</g>
<!-- Node13&#45;&gt;Node14 -->
<g id="edge18" class="edge">
<title>Node13&#45;&gt;Node14</title>
<path fill="none" stroke="midnightblue" d="M1013.56,-130.62C1044.92,-118.04 1085.48,-101.77 1109.8,-92.01"/>
<polygon fill="midnightblue" stroke="midnightblue" points="1012.13,-127.42 1004.15,-134.4 1014.74,-133.92 1012.13,-127.42"/>
</g>
<!-- Node15&#45;&gt;Node2 -->
<g id="edge20" class="edge">
<title>Node15&#45;&gt;Node2</title>
<path fill="none" stroke="midnightblue" d="M617.29,-128.73C601.66,-118.68 583.03,-106.68 568.87,-97.58"/>
<polygon fill="midnightblue" stroke="midnightblue" points="615.78,-131.93 626.08,-134.4 619.57,-126.04 615.78,-131.93"/>
</g>
<!-- Node16 -->
<g id="node16" class="node">
<title>Node16</title>
<g id="a_node16"><a xlink:href="scheduler_8cpp.html" target="_top" xlink:title=" ">
<polygon fill="white" stroke="black" points="609.5,-73 609.5,-92 744.5,-92 744.5,-73 609.5,-73"/>
<text text-anchor="middle" x="677" y="-80" font-family="Helvetica,sans-Serif" font-size="10.00">src/libBtf/src/scheduler.cpp</text>
</a>
</g>
</g>
<!-- Node15&#45;&gt;Node16 -->
<g id="edge21" class="edge">
<title>Node15&#45;&gt;Node16</title>
<path fill="none" stroke="midnightblue" d="M658.51,-124.94C663.6,-113.54 669.4,-100.55 673.12,-92.19"/>
<polygon fill="midnightblue" stroke="midnightblue" points="655.17,-123.84 654.29,-134.4 661.56,-126.69 655.17,-123.84"/>
</g>
<!-- Node17&#45;&gt;Node2 -->
<g id="edge23" class="edge">
<title>Node17&#45;&gt;Node2</title>
<path fill="none" stroke="midnightblue" d="M1060.12,-139.19C1047.92,-137.31 1035.04,-135.46 1023,-134 836.13,-111.33 786.4,-130.54 601,-98 597.94,-97.46 594.8,-96.83 591.65,-96.14"/>
<polygon fill="midnightblue" stroke="midnightblue" points="1059.74,-142.68 1070.17,-140.78 1060.83,-135.76 1059.74,-142.68"/>
</g>
<!-- Node17&#45;&gt;Node18 -->
<g id="edge24" class="edge">
<title>Node17&#45;&gt;Node18</title>
<path fill="none" stroke="midnightblue" d="M1161.33,-130.78C1194.3,-118.18 1237.12,-101.81 1262.75,-92.01"/>
<polygon fill="midnightblue" stroke="midnightblue" points="1159.98,-127.56 1151.89,-134.4 1162.48,-134.09 1159.98,-127.56"/>
</g>
<!-- Node19&#45;&gt;Node2 -->
<g id="edge26" class="edge">
<title>Node19&#45;&gt;Node2</title>
<path fill="none" stroke="midnightblue" d="M700.61,-131.5C666.65,-120.89 623.47,-107.4 591.55,-97.42"/>
<polygon fill="midnightblue" stroke="midnightblue" points="699.79,-134.91 710.38,-134.56 701.88,-128.23 699.79,-134.91"/>
</g>
<!-- Node20 -->
<g id="node20" class="node">
<title>Node20</title>
<g id="a_node20"><a xlink:href="simulation_8cpp.html" target="_top" xlink:title=" ">
<polygon fill="white" stroke="black" points="762.5,-73 762.5,-92 899.5,-92 899.5,-73 762.5,-73"/>
<text text-anchor="middle" x="831" y="-80" font-family="Helvetica,sans-Serif" font-size="10.00">src/libBtf/src/simulation.cpp</text>
</a>
</g>
</g>
<!-- Node19&#45;&gt;Node20 -->
<g id="edge27" class="edge">
<title>Node19&#45;&gt;Node20</title>
<path fill="none" stroke="midnightblue" d="M779.35,-127.67C793.39,-115.67 810.28,-101.22 820.83,-92.19"/>
<polygon fill="midnightblue" stroke="midnightblue" points="776.82,-125.24 771.49,-134.4 781.37,-130.56 776.82,-125.24"/>
</g>
<!-- Node21&#45;&gt;Node2 -->
<g id="edge29" class="edge">
<title>Node21&#45;&gt;Node2</title>
<path fill="none" stroke="midnightblue" d="M807.28,-133.74C715.65,-113.88 689.49,-117.5 601,-98 597.97,-97.33 594.85,-96.6 591.71,-95.84"/>
<polygon fill="midnightblue" stroke="midnightblue" points="806.74,-137.2 817.26,-135.94 808.24,-130.37 806.74,-137.2"/>
</g>
<!-- Node22 -->
<g id="node22" class="node">
<title>Node22</title>
<g id="a_node22"><a xlink:href="stimulus_8cpp.html" target="_top" xlink:title=" ">
<polygon fill="white" stroke="black" points="918,-73 918,-92 1048,-92 1048,-73 918,-73"/>
<text text-anchor="middle" x="983" y="-80" font-family="Helvetica,sans-Serif" font-size="10.00">src/libBtf/src/stimulus.cpp</text>
</a>
</g>
</g>
<!-- Node21&#45;&gt;Node22 -->
<g id="edge30" class="edge">
<title>Node21&#45;&gt;Node22</title>
<path fill="none" stroke="midnightblue" d="M897.11,-129.64C920.26,-117.2 949.47,-101.51 967.16,-92.01"/>
<polygon fill="midnightblue" stroke="midnightblue" points="895.41,-126.58 888.26,-134.4 898.72,-132.75 895.41,-126.58"/>
</g>
</g>
</svg>
        <g id="navigator" transform="translate(0 0)" fill="#404254">
                <rect fill="#f2f5e9" fill-opacity="0.5" stroke="#606060" stroke-width=".5" x="0" y="0" width="60" height="60"/>
                <use id="zoomplus" xlink:href="#zoomPlus" x="17" y="9" onmousedown="handleZoom(evt,'in')"/>
                <use id="zoomminus" xlink:href="#zoomMin" x="42" y="9" onmousedown="handleZoom(evt,'out')"/>
                <use id="reset" xlink:href="#resetDef" x="30" y="36" onmousedown="handleReset()"/>
                <g id="arrowUp" xlink:href="#dirArrow" transform="translate(30 24)" onmousedown="handlePan(0,-1)">
                  <use xlink:href="#rim" fill="#404040">
                        <set attributeName="fill" to="#808080" begin="arrowUp.mouseover" end="arrowUp.mouseout"/>
                  </use>
                  <path fill="none" stroke="white" stroke-width="1.5" d="M0,-3.0v7 M-2.5,-0.5L0,-3.0L2.5,-0.5"/>
                </g>
                <g id="arrowRight" xlink:href="#dirArrow" transform="rotate(90) translate(36 -43)" onmousedown="handlePan(1,0)">
                  <use xlink:href="#rim" fill="#404040">
                        <set attributeName="fill" to="#808080" begin="arrowRight.mouseover" end="arrowRight.mouseout"/>
                  </use>
                  <path fill="none" stroke="white" stroke-width="1.5" d="M0,-3.0v7 M-2.5,-0.5L0,-3.0L2.5,-0.5"/>
                </g>
                <g id="arrowDown" xlink:href="#dirArrow" transform="rotate(180) translate(-30 -48)" onmousedown="handlePan(0,1)">
                  <use xlink:href="#rim" fill="#404040">
                        <set attributeName="fill" to="#808080" begin="arrowDown.mouseover" end="arrowDown.mouseout"/>
                  </use>
                  <path fill="none" stroke="white" stroke-width="1.5" d="M0,-3.0v7 M-2.5,-0.5L0,-3.0L2.5,-0.5"/>
                </g>
                <g id="arrowLeft" xlink:href="#dirArrow" transform="rotate(270) translate(-36 17)" onmousedown="handlePan(-1,0)">
                  <use xlink:href="#rim" fill="#404040">
                        <set attributeName="fill" to="#808080" begin="arrowLeft.mouseover" end="arrowLeft.mouseout"/>
                  </use>
                  <path fill="none" stroke="white" stroke-width="1.5" d="M0,-3.0v7 M-2.5,-0.5L0,-3.0L2.5,-0.5"/>
                </g>
        </g>
        <svg viewBox="0 0 15 15" width="100%" height="30px" preserveAspectRatio="xMaxYMin meet">
         <g id="arrow_out" transform="scale(0.3 0.3)">
          <a xlink:href="common_8h__dep__incl_org.svg" target="_base">
           <rect id="button" ry="5" rx="5" y="6" x="6" height="38" width="38"
                fill="#f2f5e9" fill-opacity="0.5" stroke="#606060" stroke-width="1.0"/>
           <path id="arrow"
             d="M 11.500037,31.436501 C 11.940474,20.09759 22.043105,11.32322 32.158766,21.979434 L 37.068811,17.246167 C 37.068811,17.246167 37.088388,32 37.088388,32 L 22.160133,31.978069 C 22.160133,31.978069 26.997745,27.140456 26.997745,27.140456 C 18.528582,18.264221 13.291696,25.230495 11.500037,31.436501 z"
             style="fill:#404040;"/>
          </a>
         </g>
        </svg>
</svg>
