<?xml version="1.0" encoding="UTF-8" standalone="no"?>
<!DOCTYPE svg PUBLIC "-//W3C//DTD SVG 1.1//EN"
 "http://www.w3.org/Graphics/SVG/1.1/DTD/svg11.dtd">
<!-- Generated by graphviz version 2.47.3 (20210619.1520)
 -->
<!-- Title: src/libBtf/include/btf/common.h Pages: 1 -->
<svg width="292pt" height="207pt"
 viewBox="0.00 0.00 291.50 207.00" xmlns="http://www.w3.org/2000/svg" xmlns:xlink="http://www.w3.org/1999/xlink">
<g id="graph0" class="graph" transform="scale(1 1) rotate(0) translate(4 203)">
<title>src/libBtf/include/btf/common.h</title>
<polygon fill="white" stroke="transparent" points="-4,4 -4,-203 287.5,-203 287.5,4 -4,4"/>
<!-- Node1 -->
<g id="node1" class="node">
<title>Node1</title>
<g id="a_node1"><a xlink:title=" ">
<polygon fill="#bfbfbf" stroke="black" points="163,-168.5 163,-198.5 252,-198.5 252,-168.5 163,-168.5"/>
<text text-anchor="start" x="171" y="-186.5" font-family="Helvetica,sans-Serif" font-size="10.00">src/libBtf/include</text>
<text text-anchor="middle" x="207.5" y="-175.5" font-family="Helvetica,sans-Serif" font-size="10.00">/btf/common.h</text>
</a>
</g>
</g>
<!-- Node2 -->
<g id="node2" class="node">
<title>Node2</title>
<g id="a_node2"><a xlink:title=" ">
<polygon fill="white" stroke="#bfbfbf" points="229.5,-0.5 229.5,-19.5 283.5,-19.5 283.5,-0.5 229.5,-0.5"/>
<text text-anchor="middle" x="256.5" y="-7.5" font-family="Helvetica,sans-Serif" font-size="10.00">iostream</text>
</a>
</g>
</g>
<!-- Node1&#45;&gt;Node2 -->
<g id="edge1" class="edge">
<title>Node1&#45;&gt;Node2</title>
<path fill="none" stroke="midnightblue" d="M211.76,-168.37C214.79,-158.25 218.95,-144.3 222.5,-132 233.01,-95.63 244.89,-52.97 251.46,-29.26"/>
<polygon fill="midnightblue" stroke="midnightblue" points="254.86,-30.09 254.15,-19.52 248.11,-28.23 254.86,-30.09"/>
</g>
<!-- Node3 -->
<g id="node3" class="node">
<title>Node3</title>
<g id="a_node3"><a xlink:href="helper_8h.html" target="_top" xlink:title=" ">
<polygon fill="white" stroke="black" points="133.5,-112.5 133.5,-131.5 213.5,-131.5 213.5,-112.5 133.5,-112.5"/>
<text text-anchor="middle" x="173.5" y="-119.5" font-family="Helvetica,sans-Serif" font-size="10.00">helper/helper.h</text>
</a>
</g>
</g>
<!-- Node1&#45;&gt;Node3 -->
<g id="edge2" class="edge">
<title>Node1&#45;&gt;Node3</title>
<path fill="none" stroke="midnightblue" d="M199.44,-168.4C194.65,-160.02 188.54,-149.33 183.46,-140.42"/>
<polygon fill="midnightblue" stroke="midnightblue" points="186.45,-138.6 178.45,-131.66 180.37,-142.08 186.45,-138.6"/>
</g>
<!-- Node4 -->
<g id="node4" class="node">
<title>Node4</title>
<g id="a_node4"><a xlink:href="logging_8h.html" target="_top" xlink:title=" ">
<polygon fill="white" stroke="black" points="145.5,-56.5 145.5,-75.5 201.5,-75.5 201.5,-56.5 145.5,-56.5"/>
<text text-anchor="middle" x="173.5" y="-63.5" font-family="Helvetica,sans-Serif" font-size="10.00">logging.h</text>
</a>
</g>
</g>
<!-- Node3&#45;&gt;Node4 -->
<g id="edge3" class="edge">
<title>Node3&#45;&gt;Node4</title>
<path fill="none" stroke="midnightblue" d="M173.5,-112.08C173.5,-105.01 173.5,-94.86 173.5,-85.99"/>
<polygon fill="midnightblue" stroke="midnightblue" points="177,-85.75 173.5,-75.75 170,-85.75 177,-85.75"/>
</g>
<!-- Node6 -->
<g id="node6" class="node">
<title>Node6</title>
<g id="a_node6"><a xlink:href="util_8h.html" target="_top" xlink:title=" ">
<polygon fill="white" stroke="black" points="79.5,-56.5 79.5,-75.5 117.5,-75.5 117.5,-56.5 79.5,-56.5"/>
<text text-anchor="middle" x="98.5" y="-63.5" font-family="Helvetica,sans-Serif" font-size="10.00">util.h</text>
</a>
</g>
</g>
<!-- Node3&#45;&gt;Node6 -->
<g id="edge6" class="edge">
<title>Node3&#45;&gt;Node6</title>
<path fill="none" stroke="midnightblue" d="M161.45,-112.32C150.04,-104.11 132.67,-91.6 119.07,-81.81"/>
<polygon fill="midnightblue" stroke="midnightblue" points="120.93,-78.84 110.77,-75.83 116.84,-84.52 120.93,-78.84"/>
</g>
<!-- Node4&#45;&gt;Node2 -->
<g id="edge4" class="edge">
<title>Node4&#45;&gt;Node2</title>
<path fill="none" stroke="midnightblue" d="M186.84,-56.32C199.66,-47.98 219.28,-35.21 234.44,-25.35"/>
<polygon fill="midnightblue" stroke="midnightblue" points="236.72,-28.04 243.2,-19.65 232.91,-22.17 236.72,-28.04"/>
</g>
<!-- Node5 -->
<g id="node5" class="node">
<title>Node5</title>
<g id="a_node5"><a xlink:title=" ">
<polygon fill="white" stroke="#bfbfbf" points="126,-0.5 126,-19.5 211,-19.5 211,-0.5 126,-0.5"/>
<text text-anchor="middle" x="168.5" y="-7.5" font-family="Helvetica,sans-Serif" font-size="10.00">source_location</text>
</a>
</g>
</g>
<!-- Node4&#45;&gt;Node5 -->
<g id="edge5" class="edge">
<title>Node4&#45;&gt;Node5</title>
<path fill="none" stroke="midnightblue" d="M172.67,-56.08C172.02,-49.01 171.08,-38.86 170.26,-29.99"/>
<polygon fill="midnightblue" stroke="midnightblue" points="173.72,-29.39 169.31,-19.75 166.75,-30.03 173.72,-29.39"/>
</g>
<!-- Node6&#45;&gt;Node2 -->
<g id="edge8" class="edge">
<title>Node6&#45;&gt;Node2</title>
<path fill="none" stroke="midnightblue" d="M117.56,-58.49C143.26,-49.7 189.49,-33.9 221.53,-22.95"/>
<polygon fill="midnightblue" stroke="midnightblue" points="223.05,-26.13 231.38,-19.58 220.79,-19.51 223.05,-26.13"/>
</g>
<!-- Node7 -->
<g id="node7" class="node">
<title>Node7</title>
<g id="a_node7"><a xlink:title=" ">
<polygon fill="white" stroke="#bfbfbf" points="59,-0.5 59,-19.5 108,-19.5 108,-0.5 59,-0.5"/>
<text text-anchor="middle" x="83.5" y="-7.5" font-family="Helvetica,sans-Serif" font-size="10.00">fstream</text>
</a>
</g>
</g>
<!-- Node6&#45;&gt;Node7 -->
<g id="edge7" class="edge">
<title>Node6&#45;&gt;Node7</title>
<path fill="none" stroke="midnightblue" d="M96.02,-56.08C94.01,-48.85 91.11,-38.41 88.61,-29.4"/>
<polygon fill="midnightblue" stroke="midnightblue" points="91.98,-28.45 85.93,-19.75 85.24,-30.32 91.98,-28.45"/>
</g>
<!-- Node8 -->
<g id="node8" class="node">
<title>Node8</title>
<g id="a_node8"><a xlink:title=" ">
<polygon fill="white" stroke="#bfbfbf" points="0,-0.5 0,-19.5 41,-19.5 41,-0.5 0,-0.5"/>
<text text-anchor="middle" x="20.5" y="-7.5" font-family="Helvetica,sans-Serif" font-size="10.00">string</text>
</a>
</g>
</g>
<!-- Node6&#45;&gt;Node8 -->
<g id="edge9" class="edge">
<title>Node6&#45;&gt;Node8</title>
<path fill="none" stroke="midnightblue" d="M85.97,-56.32C73.91,-47.98 55.47,-35.21 41.23,-25.35"/>
<polygon fill="midnightblue" stroke="midnightblue" points="43.22,-22.47 33,-19.65 39.23,-28.22 43.22,-22.47"/>
</g>
</g>
</svg>
