<?xml version="1.0" encoding="UTF-8" standalone="no"?>
<!DOCTYPE svg PUBLIC "-//W3C//DTD SVG 1.1//EN"
 "http://www.w3.org/Graphics/SVG/1.1/DTD/svg11.dtd">
<!-- Generated by graphviz version 2.47.3 (20210619.1520)
 -->
<!-- Title: src/libBtf/include Pages: 1 -->
<svg width="182pt" height="159pt"
 viewBox="0.00 0.00 182.00 159.00" xmlns="http://www.w3.org/2000/svg" xmlns:xlink="http://www.w3.org/1999/xlink">
<g id="graph0" class="graph" transform="scale(1 1) rotate(0) translate(4 155)">
<title>src/libBtf/include</title>
<polygon fill="white" stroke="transparent" points="-4,4 -4,-155 178,-155 178,4 -4,4"/>
<g id="clust1" class="cluster">
<title>clusterdir_d15d2018b18c79d65d79b7f233abbc93</title>
<g id="a_clust1"><a xlink:href="dir_d15d2018b18c79d65d79b7f233abbc93.html" target="_top" xlink:title="libBtf">
<polygon fill="#ddddee" stroke="black" points="8,-56 8,-143 166,-143 166,-56 8,-56"/>
<text text-anchor="middle" x="87" y="-131" font-family="Helvetica,sans-Serif" font-size="10.00">libBtf</text>
</a>
</g>
</g>
<g id="clust2" class="cluster">
<title>clusterdir_5f168588f48bbd2e86b71fa285a33e79</title>
<g id="a_clust2"><a xlink:href="dir_5f168588f48bbd2e86b71fa285a33e79.html" target="_top">
<polygon fill="#eeeeff" stroke="black" points="16,-64 16,-116 158,-116 158,-64 16,-64"/>
</a>
</g>
</g>
<!-- dir_5f168588f48bbd2e86b71fa285a33e79 -->
<g id="node1" class="node">
<title>dir_5f168588f48bbd2e86b71fa285a33e79</title>
<text text-anchor="middle" x="123" y="-87.5" font-family="Helvetica,sans-Serif" font-size="10.00">include</text>
</g>
<!-- dir_6aa65d5b9b925c17e3ea79c8b37cdc65 -->
<g id="node2" class="node">
<title>dir_6aa65d5b9b925c17e3ea79c8b37cdc65</title>
<g id="a_node2"><a xlink:href="dir_6aa65d5b9b925c17e3ea79c8b37cdc65.html" target="_top" xlink:title="btf">
<polygon fill="white" stroke="black" points="78,-108 24,-108 24,-72 78,-72 78,-108"/>
<text text-anchor="middle" x="51" y="-87.5" font-family="Helvetica,sans-Serif" font-size="10.00">btf</text>
</a>
</g>
</g>
<!-- dir_b126ede605183bf54c841164c04b7f80 -->
<g id="node3" class="node">
<title>dir_b126ede605183bf54c841164c04b7f80</title>
<g id="a_node3"><a xlink:href="dir_b126ede605183bf54c841164c04b7f80.html" target="_top" xlink:title="libHelper">
<polygon fill="white" stroke="red" points="78,-36 24,-36 24,0 78,0 78,-36"/>
<text text-anchor="middle" x="51" y="-15.5" font-family="Helvetica,sans-Serif" font-size="10.00">libHelper</text>
</a>
</g>
</g>
<!-- dir_6aa65d5b9b925c17e3ea79c8b37cdc65&#45;&gt;dir_b126ede605183bf54c841164c04b7f80 -->
<g id="edge1" class="edge">
<title>dir_6aa65d5b9b925c17e3ea79c8b37cdc65&#45;&gt;dir_b126ede605183bf54c841164c04b7f80</title>
<path fill="none" stroke="black" d="M51,-71.7C51,-63.98 51,-54.71 51,-46.11"/>
<polygon fill="black" stroke="black" points="54.5,-46.1 51,-36.1 47.5,-46.1 54.5,-46.1"/>
<g id="a_edge1&#45;headlabel"><a xlink:href="dir_000005_000007.html" target="_top" xlink:title="1">
<text text-anchor="middle" x="57.34" y="-47.2" font-family="Helvetica,sans-Serif" font-size="10.00">1</text>
</a>
</g>
</g>
</g>
</svg>
