<?xml version="1.0" encoding="UTF-8" standalone="no"?>
<!DOCTYPE svg PUBLIC "-//W3C//DTD SVG 1.1//EN"
 "http://www.w3.org/Graphics/SVG/1.1/DTD/svg11.dtd">
<!-- Generated by graphviz version 2.47.3 (20210619.1520)
 -->
<!-- Title: src/pybindings/src Pages: 1 -->
<svg width="150pt" height="167pt"
 viewBox="0.00 0.00 150.00 167.00" xmlns="http://www.w3.org/2000/svg" xmlns:xlink="http://www.w3.org/1999/xlink">
<g id="graph0" class="graph" transform="scale(1 1) rotate(0) translate(4 163)">
<title>src/pybindings/src</title>
<polygon fill="white" stroke="transparent" points="-4,4 -4,-163 146,-163 146,4 -4,4"/>
<g id="clust1" class="cluster">
<title>clusterdir_641dd1d6eec6839bde8723c7512dd2a4</title>
<g id="a_clust1"><a xlink:href="dir_641dd1d6eec6839bde8723c7512dd2a4.html" target="_top" xlink:title="pybindings">
<polygon fill="#ddddee" stroke="black" points="8,-8 8,-151 78,-151 78,-8 8,-8"/>
<text text-anchor="middle" x="43" y="-139" font-family="Helvetica,sans-Serif" font-size="10.00">pybindings</text>
</a>
</g>
</g>
<!-- dir_34d501b7c96c5c8662f0390f816ce323 -->
<g id="node1" class="node">
<title>dir_34d501b7c96c5c8662f0390f816ce323</title>
<g id="a_node1"><a xlink:href="dir_34d501b7c96c5c8662f0390f816ce323.html" target="_top" xlink:title="include">
<polygon fill="none" stroke="black" points="70,-52 16,-52 16,-16 70,-16 70,-52"/>
<text text-anchor="middle" x="43" y="-31.5" font-family="Helvetica,sans-Serif" font-size="10.00">include</text>
</a>
</g>
</g>
<!-- dir_aae30d431c49d1a3836b4040c532f08c -->
<g id="node2" class="node">
<title>dir_aae30d431c49d1a3836b4040c532f08c</title>
<g id="a_node2"><a xlink:href="dir_aae30d431c49d1a3836b4040c532f08c.html" target="_top" xlink:title="src">
<polygon fill="#eeeeff" stroke="black" points="70,-124 16,-124 16,-88 70,-88 70,-124"/>
<text text-anchor="middle" x="43" y="-103.5" font-family="Helvetica,sans-Serif" font-size="10.00">src</text>
</a>
</g>
</g>
<!-- dir_aae30d431c49d1a3836b4040c532f08c&#45;&gt;dir_34d501b7c96c5c8662f0390f816ce323 -->
<g id="edge1" class="edge">
<title>dir_aae30d431c49d1a3836b4040c532f08c&#45;&gt;dir_34d501b7c96c5c8662f0390f816ce323</title>
<path fill="none" stroke="black" d="M43,-87.7C43,-79.98 43,-70.71 43,-62.11"/>
<polygon fill="black" stroke="black" points="46.5,-62.1 43,-52.1 39.5,-62.1 46.5,-62.1"/>
<g id="a_edge1&#45;headlabel"><a xlink:href="dir_000013_000012.html" target="_top" xlink:title="2">
<text text-anchor="middle" x="49.34" y="-63.2" font-family="Helvetica,sans-Serif" font-size="10.00">2</text>
</a>
</g>
</g>
<!-- dir_d15d2018b18c79d65d79b7f233abbc93 -->
<g id="node3" class="node">
<title>dir_d15d2018b18c79d65d79b7f233abbc93</title>
<g id="a_node3"><a xlink:href="dir_d15d2018b18c79d65d79b7f233abbc93.html" target="_top" xlink:title="libBtf">
<polygon fill="white" stroke="red" points="142,-52 88,-52 88,-16 142,-16 142,-52"/>
<text text-anchor="middle" x="115" y="-31.5" font-family="Helvetica,sans-Serif" font-size="10.00">libBtf</text>
</a>
</g>
</g>
<!-- dir_aae30d431c49d1a3836b4040c532f08c&#45;&gt;dir_d15d2018b18c79d65d79b7f233abbc93 -->
<g id="edge2" class="edge">
<title>dir_aae30d431c49d1a3836b4040c532f08c&#45;&gt;dir_d15d2018b18c79d65d79b7f233abbc93</title>
<path fill="none" stroke="black" d="M60.8,-87.7C69.6,-79.14 80.38,-68.66 90,-59.3"/>
<polygon fill="black" stroke="black" points="92.68,-61.58 97.41,-52.1 87.8,-56.57 92.68,-61.58"/>
<g id="a_edge2&#45;headlabel"><a xlink:href="dir_000013_000003.html" target="_top" xlink:title="1">
<text text-anchor="middle" x="92.08" y="-63.63" font-family="Helvetica,sans-Serif" font-size="10.00">1</text>
</a>
</g>
</g>
</g>
</svg>
