<?xml version="1.0" encoding="UTF-8" standalone="no"?>
<!DOCTYPE svg PUBLIC "-//W3C//DTD SVG 1.1//EN"
 "http://www.w3.org/Graphics/SVG/1.1/DTD/svg11.dtd">
<!-- Generated by graphviz version 2.47.3 (20210619.1520)
 -->
<!-- Title: src/libBtf Pages: 1 -->
<svg width="182pt" height="247pt"
 viewBox="0.00 0.00 182.00 247.00" xmlns="http://www.w3.org/2000/svg" xmlns:xlink="http://www.w3.org/1999/xlink">
<g id="graph0" class="graph" transform="scale(1 1) rotate(0) translate(4 243)">
<title>src/libBtf</title>
<polygon fill="white" stroke="transparent" points="-4,4 -4,-243 178,-243 178,4 -4,4"/>
<g id="clust1" class="cluster">
<title>clusterdir_68267d1309a1af8e8297ef4c3efbcdba</title>
<g id="a_clust1"><a xlink:href="dir_68267d1309a1af8e8297ef4c3efbcdba.html" target="_top" xlink:title="src">
<polygon fill="#ddddee" stroke="black" points="8,-8 8,-231 166,-231 166,-8 8,-8"/>
<text text-anchor="middle" x="87" y="-219" font-family="Helvetica,sans-Serif" font-size="10.00">src</text>
</a>
</g>
</g>
<g id="clust2" class="cluster">
<title>clusterdir_d15d2018b18c79d65d79b7f233abbc93</title>
<g id="a_clust2"><a xlink:href="dir_d15d2018b18c79d65d79b7f233abbc93.html" target="_top">
<polygon fill="#eeeeff" stroke="black" points="16,-80 16,-204 158,-204 158,-80 16,-80"/>
</a>
</g>
</g>
<!-- dir_b126ede605183bf54c841164c04b7f80 -->
<g id="node1" class="node">
<title>dir_b126ede605183bf54c841164c04b7f80</title>
<g id="a_node1"><a xlink:href="dir_b126ede605183bf54c841164c04b7f80.html" target="_top" xlink:title="libHelper">
<polygon fill="white" stroke="red" points="101,-52 47,-52 47,-16 101,-16 101,-52"/>
<text text-anchor="middle" x="74" y="-31.5" font-family="Helvetica,sans-Serif" font-size="10.00">libHelper</text>
</a>
</g>
</g>
<!-- dir_d15d2018b18c79d65d79b7f233abbc93 -->
<g id="node2" class="node">
<title>dir_d15d2018b18c79d65d79b7f233abbc93</title>
<text text-anchor="middle" x="123" y="-175.5" font-family="Helvetica,sans-Serif" font-size="10.00">libBtf</text>
</g>
<!-- dir_5f168588f48bbd2e86b71fa285a33e79 -->
<g id="node3" class="node">
<title>dir_5f168588f48bbd2e86b71fa285a33e79</title>
<g id="a_node3"><a xlink:href="dir_5f168588f48bbd2e86b71fa285a33e79.html" target="_top" xlink:title="include">
<polygon fill="white" stroke="red" points="78,-124 24,-124 24,-88 78,-88 78,-124"/>
<text text-anchor="middle" x="51" y="-103.5" font-family="Helvetica,sans-Serif" font-size="10.00">include</text>
</a>
</g>
</g>
<!-- dir_5f168588f48bbd2e86b71fa285a33e79&#45;&gt;dir_b126ede605183bf54c841164c04b7f80 -->
<g id="edge3" class="edge">
<title>dir_5f168588f48bbd2e86b71fa285a33e79&#45;&gt;dir_b126ede605183bf54c841164c04b7f80</title>
<path fill="none" stroke="black" d="M56.69,-87.7C59.25,-79.9 62.33,-70.51 65.18,-61.83"/>
<polygon fill="black" stroke="black" points="68.58,-62.7 68.38,-52.1 61.93,-60.51 68.58,-62.7"/>
<g id="a_edge3&#45;headlabel"><a xlink:href="dir_000004_000007.html" target="_top" xlink:title="1">
<text text-anchor="middle" x="70.16" y="-64.5" font-family="Helvetica,sans-Serif" font-size="10.00">1</text>
</a>
</g>
</g>
<!-- dir_aae371a1ccd6c7d3296fd5b3b616b43e -->
<g id="node4" class="node">
<title>dir_aae371a1ccd6c7d3296fd5b3b616b43e</title>
<g id="a_node4"><a xlink:href="dir_aae371a1ccd6c7d3296fd5b3b616b43e.html" target="_top" xlink:title="src">
<polygon fill="white" stroke="black" points="78,-196 24,-196 24,-160 78,-160 78,-196"/>
<text text-anchor="middle" x="51" y="-175.5" font-family="Helvetica,sans-Serif" font-size="10.00">src</text>
</a>
</g>
</g>
<!-- dir_aae371a1ccd6c7d3296fd5b3b616b43e&#45;&gt;dir_b126ede605183bf54c841164c04b7f80 -->
<g id="edge2" class="edge">
<title>dir_aae371a1ccd6c7d3296fd5b3b616b43e&#45;&gt;dir_b126ede605183bf54c841164c04b7f80</title>
<path fill="none" stroke="black" d="M66.61,-159.77C74.37,-150.03 82.95,-137.18 87,-124 93.28,-103.57 89.13,-79.54 83.9,-61.6"/>
<polygon fill="black" stroke="black" points="87.24,-60.53 80.86,-52.07 80.57,-62.66 87.24,-60.53"/>
<g id="a_edge2&#45;headlabel"><a xlink:href="dir_000006_000007.html" target="_top" xlink:title="1">
<text text-anchor="middle" x="91.03" y="-60.59" font-family="Helvetica,sans-Serif" font-size="10.00">1</text>
</a>
</g>
</g>
<!-- dir_aae371a1ccd6c7d3296fd5b3b616b43e&#45;&gt;dir_5f168588f48bbd2e86b71fa285a33e79 -->
<g id="edge1" class="edge">
<title>dir_aae371a1ccd6c7d3296fd5b3b616b43e&#45;&gt;dir_5f168588f48bbd2e86b71fa285a33e79</title>
<path fill="none" stroke="black" d="M51,-159.7C51,-151.98 51,-142.71 51,-134.11"/>
<polygon fill="black" stroke="black" points="54.5,-134.1 51,-124.1 47.5,-134.1 54.5,-134.1"/>
<g id="a_edge1&#45;headlabel"><a xlink:href="dir_000006_000004.html" target="_top" xlink:title="16">
<text text-anchor="middle" x="57.34" y="-135.2" font-family="Helvetica,sans-Serif" font-size="10.00">16</text>
</a>
</g>
</g>
</g>
</svg>
