<?xml version="1.0" encoding="UTF-8" standalone="no"?>
<!DOCTYPE svg PUBLIC "-//W3C//DTD SVG 1.1//EN"
 "http://www.w3.org/Graphics/SVG/1.1/DTD/svg11.dtd">
<!-- Generated by graphviz version 2.47.3 (20210619.1520)
 -->
<!-- Title: src/pybindings Pages: 1 -->
<svg width="254pt" height="247pt"
 viewBox="0.00 0.00 254.00 247.00" xmlns="http://www.w3.org/2000/svg" xmlns:xlink="http://www.w3.org/1999/xlink">
<g id="graph0" class="graph" transform="scale(1 1) rotate(0) translate(4 243)">
<title>src/pybindings</title>
<polygon fill="white" stroke="transparent" points="-4,4 -4,-243 250,-243 250,4 -4,4"/>
<g id="clust1" class="cluster">
<title>clusterdir_68267d1309a1af8e8297ef4c3efbcdba</title>
<g id="a_clust1"><a xlink:href="dir_68267d1309a1af8e8297ef4c3efbcdba.html" target="_top" xlink:title="src">
<polygon fill="#ddddee" stroke="black" points="8,-8 8,-231 238,-231 238,-8 8,-8"/>
<text text-anchor="middle" x="123" y="-219" font-family="Helvetica,sans-Serif" font-size="10.00">src</text>
</a>
</g>
</g>
<g id="clust2" class="cluster">
<title>clusterdir_641dd1d6eec6839bde8723c7512dd2a4</title>
<g id="a_clust2"><a xlink:href="dir_641dd1d6eec6839bde8723c7512dd2a4.html" target="_top">
<polygon fill="#eeeeff" stroke="black" points="16,-80 16,-204 168,-204 168,-80 16,-80"/>
</a>
</g>
</g>
<!-- dir_b126ede605183bf54c841164c04b7f80 -->
<g id="node1" class="node">
<title>dir_b126ede605183bf54c841164c04b7f80</title>
<g id="a_node1"><a xlink:href="dir_b126ede605183bf54c841164c04b7f80.html" target="_top" xlink:title="libHelper">
<polygon fill="white" stroke="red" points="174,-52 120,-52 120,-16 174,-16 174,-52"/>
<text text-anchor="middle" x="147" y="-31.5" font-family="Helvetica,sans-Serif" font-size="10.00">libHelper</text>
</a>
</g>
</g>
<!-- dir_d15d2018b18c79d65d79b7f233abbc93 -->
<g id="node2" class="node">
<title>dir_d15d2018b18c79d65d79b7f233abbc93</title>
<g id="a_node2"><a xlink:href="dir_d15d2018b18c79d65d79b7f233abbc93.html" target="_top" xlink:title="libBtf">
<polygon fill="white" stroke="red" points="230,-124 176,-124 176,-88 230,-88 230,-124"/>
<text text-anchor="middle" x="203" y="-103.5" font-family="Helvetica,sans-Serif" font-size="10.00">libBtf</text>
</a>
</g>
</g>
<!-- dir_d15d2018b18c79d65d79b7f233abbc93&#45;&gt;dir_b126ede605183bf54c841164c04b7f80 -->
<g id="edge1" class="edge">
<title>dir_d15d2018b18c79d65d79b7f233abbc93&#45;&gt;dir_b126ede605183bf54c841164c04b7f80</title>
<path fill="none" stroke="black" d="M189.16,-87.7C182.51,-79.39 174.42,-69.28 167.11,-60.14"/>
<polygon fill="black" stroke="black" points="169.66,-57.73 160.68,-52.1 164.2,-62.1 169.66,-57.73"/>
<g id="a_edge1&#45;headlabel"><a xlink:href="dir_000003_000007.html" target="_top" xlink:title="2">
<text text-anchor="middle" x="174.13" y="-56.26" font-family="Helvetica,sans-Serif" font-size="10.00">2</text>
</a>
</g>
</g>
<!-- dir_641dd1d6eec6839bde8723c7512dd2a4 -->
<g id="node3" class="node">
<title>dir_641dd1d6eec6839bde8723c7512dd2a4</title>
<text text-anchor="middle" x="128" y="-175.5" font-family="Helvetica,sans-Serif" font-size="10.00">pybindings</text>
</g>
<!-- dir_34d501b7c96c5c8662f0390f816ce323 -->
<g id="node4" class="node">
<title>dir_34d501b7c96c5c8662f0390f816ce323</title>
<g id="a_node4"><a xlink:href="dir_34d501b7c96c5c8662f0390f816ce323.html" target="_top" xlink:title="include">
<polygon fill="white" stroke="black" points="118,-124 64,-124 64,-88 118,-88 118,-124"/>
<text text-anchor="middle" x="91" y="-103.5" font-family="Helvetica,sans-Serif" font-size="10.00">include</text>
</a>
</g>
</g>
<!-- dir_34d501b7c96c5c8662f0390f816ce323&#45;&gt;dir_b126ede605183bf54c841164c04b7f80 -->
<g id="edge4" class="edge">
<title>dir_34d501b7c96c5c8662f0390f816ce323&#45;&gt;dir_b126ede605183bf54c841164c04b7f80</title>
<path fill="none" stroke="black" d="M104.84,-87.7C111.49,-79.39 119.58,-69.28 126.89,-60.14"/>
<polygon fill="black" stroke="black" points="129.8,-62.1 133.32,-52.1 124.34,-57.73 129.8,-62.1"/>
<g id="a_edge4&#45;headlabel"><a xlink:href="dir_000012_000007.html" target="_top" xlink:title="1">
<text text-anchor="middle" x="129.77" y="-64.18" font-family="Helvetica,sans-Serif" font-size="10.00">1</text>
</a>
</g>
</g>
<!-- dir_aae30d431c49d1a3836b4040c532f08c -->
<g id="node5" class="node">
<title>dir_aae30d431c49d1a3836b4040c532f08c</title>
<g id="a_node5"><a xlink:href="dir_aae30d431c49d1a3836b4040c532f08c.html" target="_top" xlink:title="src">
<polygon fill="white" stroke="black" points="78,-196 24,-196 24,-160 78,-160 78,-196"/>
<text text-anchor="middle" x="51" y="-175.5" font-family="Helvetica,sans-Serif" font-size="10.00">src</text>
</a>
</g>
</g>
<!-- dir_aae30d431c49d1a3836b4040c532f08c&#45;&gt;dir_d15d2018b18c79d65d79b7f233abbc93 -->
<g id="edge3" class="edge">
<title>dir_aae30d431c49d1a3836b4040c532f08c&#45;&gt;dir_d15d2018b18c79d65d79b7f233abbc93</title>
<path fill="none" stroke="black" d="M78.04,-164.48C81.39,-162.96 84.77,-161.43 88,-160 122.08,-144.87 133.6,-142.17 166.37,-126.65"/>
<polygon fill="black" stroke="black" points="168.2,-129.65 175.69,-122.16 165.16,-123.34 168.2,-129.65"/>
<g id="a_edge3&#45;headlabel"><a xlink:href="dir_000013_000003.html" target="_top" xlink:title="1">
<text text-anchor="middle" x="166.19" y="-131.27" font-family="Helvetica,sans-Serif" font-size="10.00">1</text>
</a>
</g>
</g>
<!-- dir_aae30d431c49d1a3836b4040c532f08c&#45;&gt;dir_34d501b7c96c5c8662f0390f816ce323 -->
<g id="edge2" class="edge">
<title>dir_aae30d431c49d1a3836b4040c532f08c&#45;&gt;dir_34d501b7c96c5c8662f0390f816ce323</title>
<path fill="none" stroke="black" d="M60.89,-159.7C65.49,-151.64 71.06,-141.89 76.15,-132.98"/>
<polygon fill="black" stroke="black" points="79.3,-134.52 81.23,-124.1 73.23,-131.05 79.3,-134.52"/>
<g id="a_edge2&#45;headlabel"><a xlink:href="dir_000013_000012.html" target="_top" xlink:title="2">
<text text-anchor="middle" x="79.99" y="-136.55" font-family="Helvetica,sans-Serif" font-size="10.00">2</text>
</a>
</g>
</g>
</g>
</svg>
