<?xml version="1.0" encoding="UTF-8" standalone="no"?>
<!DOCTYPE svg PUBLIC "-//W3C//DTD SVG 1.1//EN"
 "http://www.w3.org/Graphics/SVG/1.1/DTD/svg11.dtd">
<!-- Generated by graphviz version 2.47.3 (20210619.1520)
 -->
<!-- Title: src/libHelper Pages: 1 -->
<svg width="182pt" height="183pt"
 viewBox="0.00 0.00 182.00 183.00" xmlns="http://www.w3.org/2000/svg" xmlns:xlink="http://www.w3.org/1999/xlink">
<g id="graph0" class="graph" transform="scale(1 1) rotate(0) translate(4 179)">
<title>src/libHelper</title>
<polygon fill="white" stroke="transparent" points="-4,4 -4,-179 178,-179 178,4 -4,4"/>
<g id="clust1" class="cluster">
<title>clusterdir_68267d1309a1af8e8297ef4c3efbcdba</title>
<g id="a_clust1"><a xlink:href="dir_68267d1309a1af8e8297ef4c3efbcdba.html" target="_top" xlink:title="src">
<polygon fill="#ddddee" stroke="black" points="8,-8 8,-167 166,-167 166,-8 8,-8"/>
<text text-anchor="middle" x="87" y="-155" font-family="Helvetica,sans-Serif" font-size="10.00">src</text>
</a>
</g>
</g>
<g id="clust2" class="cluster">
<title>clusterdir_b126ede605183bf54c841164c04b7f80</title>
<g id="a_clust2"><a xlink:href="dir_b126ede605183bf54c841164c04b7f80.html" target="_top">
<polygon fill="#eeeeff" stroke="black" points="16,-16 16,-140 158,-140 158,-16 16,-16"/>
</a>
</g>
</g>
<!-- dir_b126ede605183bf54c841164c04b7f80 -->
<g id="node1" class="node">
<title>dir_b126ede605183bf54c841164c04b7f80</title>
<text text-anchor="middle" x="123" y="-111.5" font-family="Helvetica,sans-Serif" font-size="10.00">libHelper</text>
</g>
<!-- dir_56479e3db7321cb59168f806680f4485 -->
<g id="node2" class="node">
<title>dir_56479e3db7321cb59168f806680f4485</title>
<g id="a_node2"><a xlink:href="dir_56479e3db7321cb59168f806680f4485.html" target="_top" xlink:title="include">
<polygon fill="white" stroke="red" points="78,-60 24,-60 24,-24 78,-24 78,-60"/>
<text text-anchor="middle" x="51" y="-39.5" font-family="Helvetica,sans-Serif" font-size="10.00">include</text>
</a>
</g>
</g>
<!-- dir_ae1b43b332e4d7890352ad83ea9abd3b -->
<g id="node3" class="node">
<title>dir_ae1b43b332e4d7890352ad83ea9abd3b</title>
<g id="a_node3"><a xlink:href="dir_ae1b43b332e4d7890352ad83ea9abd3b.html" target="_top" xlink:title="src">
<polygon fill="white" stroke="black" points="78,-132 24,-132 24,-96 78,-96 78,-132"/>
<text text-anchor="middle" x="51" y="-111.5" font-family="Helvetica,sans-Serif" font-size="10.00">src</text>
</a>
</g>
</g>
<!-- dir_ae1b43b332e4d7890352ad83ea9abd3b&#45;&gt;dir_56479e3db7321cb59168f806680f4485 -->
<g id="edge1" class="edge">
<title>dir_ae1b43b332e4d7890352ad83ea9abd3b&#45;&gt;dir_56479e3db7321cb59168f806680f4485</title>
<path fill="none" stroke="black" d="M51,-95.7C51,-87.98 51,-78.71 51,-70.11"/>
<polygon fill="black" stroke="black" points="54.5,-70.1 51,-60.1 47.5,-70.1 54.5,-70.1"/>
<g id="a_edge1&#45;headlabel"><a xlink:href="dir_000010_000008.html" target="_top" xlink:title="2">
<text text-anchor="middle" x="57.34" y="-71.2" font-family="Helvetica,sans-Serif" font-size="10.00">2</text>
</a>
</g>
</g>
</g>
</svg>
