<?xml version="1.0" encoding="UTF-8" standalone="no"?>
<!DOCTYPE svg PUBLIC "-//W3C//DTD SVG 1.1//EN"
 "http://www.w3.org/Graphics/SVG/1.1/DTD/svg11.dtd">
<!-- Generated by graphviz version 2.47.3 (20210619.1520)
 -->
<!-- Title: src Pages: 1 -->
<svg width="176pt" height="220pt"
 viewBox="0.00 0.00 176.00 220.00" xmlns="http://www.w3.org/2000/svg" xmlns:xlink="http://www.w3.org/1999/xlink">
<g id="graph0" class="graph" transform="scale(1 1) rotate(0) translate(4 216)">
<title>src</title>
<polygon fill="white" stroke="transparent" points="-4,4 -4,-216 172,-216 172,4 -4,4"/>
<g id="clust1" class="cluster">
<title>clusterdir_68267d1309a1af8e8297ef4c3efbcdba</title>
<g id="a_clust1"><a xlink:href="dir_68267d1309a1af8e8297ef4c3efbcdba.html" target="_top">
<polygon fill="#eeeeff" stroke="black" points="8,-8 8,-204 160,-204 160,-8 8,-8"/>
</a>
</g>
</g>
<!-- dir_68267d1309a1af8e8297ef4c3efbcdba -->
<g id="node1" class="node">
<title>dir_68267d1309a1af8e8297ef4c3efbcdba</title>
<text text-anchor="middle" x="125" y="-175.5" font-family="Helvetica,sans-Serif" font-size="10.00">src</text>
</g>
<!-- dir_d15d2018b18c79d65d79b7f233abbc93 -->
<g id="node2" class="node">
<title>dir_d15d2018b18c79d65d79b7f233abbc93</title>
<g id="a_node2"><a xlink:href="dir_d15d2018b18c79d65d79b7f233abbc93.html" target="_top" xlink:title="libBtf">
<polygon fill="white" stroke="red" points="70,-124 16,-124 16,-88 70,-88 70,-124"/>
<text text-anchor="middle" x="43" y="-103.5" font-family="Helvetica,sans-Serif" font-size="10.00">libBtf</text>
</a>
</g>
</g>
<!-- dir_b126ede605183bf54c841164c04b7f80 -->
<g id="node3" class="node">
<title>dir_b126ede605183bf54c841164c04b7f80</title>
<g id="a_node3"><a xlink:href="dir_b126ede605183bf54c841164c04b7f80.html" target="_top" xlink:title="libHelper">
<polygon fill="white" stroke="red" points="93,-52 39,-52 39,-16 93,-16 93,-52"/>
<text text-anchor="middle" x="66" y="-31.5" font-family="Helvetica,sans-Serif" font-size="10.00">libHelper</text>
</a>
</g>
</g>
<!-- dir_d15d2018b18c79d65d79b7f233abbc93&#45;&gt;dir_b126ede605183bf54c841164c04b7f80 -->
<g id="edge1" class="edge">
<title>dir_d15d2018b18c79d65d79b7f233abbc93&#45;&gt;dir_b126ede605183bf54c841164c04b7f80</title>
<path fill="none" stroke="black" d="M48.69,-87.7C51.25,-79.9 54.33,-70.51 57.18,-61.83"/>
<polygon fill="black" stroke="black" points="60.58,-62.7 60.38,-52.1 53.93,-60.51 60.58,-62.7"/>
<g id="a_edge1&#45;headlabel"><a xlink:href="dir_000003_000007.html" target="_top" xlink:title="2">
<text text-anchor="middle" x="62.16" y="-64.5" font-family="Helvetica,sans-Serif" font-size="10.00">2</text>
</a>
</g>
</g>
<!-- dir_641dd1d6eec6839bde8723c7512dd2a4 -->
<g id="node4" class="node">
<title>dir_641dd1d6eec6839bde8723c7512dd2a4</title>
<g id="a_node4"><a xlink:href="dir_641dd1d6eec6839bde8723c7512dd2a4.html" target="_top" xlink:title="pybindings">
<polygon fill="white" stroke="red" points="79.5,-196 16.5,-196 16.5,-160 79.5,-160 79.5,-196"/>
<text text-anchor="middle" x="48" y="-175.5" font-family="Helvetica,sans-Serif" font-size="10.00">pybindings</text>
</a>
</g>
</g>
<!-- dir_641dd1d6eec6839bde8723c7512dd2a4&#45;&gt;dir_d15d2018b18c79d65d79b7f233abbc93 -->
<g id="edge3" class="edge">
<title>dir_641dd1d6eec6839bde8723c7512dd2a4&#45;&gt;dir_d15d2018b18c79d65d79b7f233abbc93</title>
<path fill="none" stroke="black" d="M46.76,-159.7C46.21,-151.98 45.55,-142.71 44.94,-134.11"/>
<polygon fill="black" stroke="black" points="48.43,-133.83 44.22,-124.1 41.44,-134.33 48.43,-133.83"/>
<g id="a_edge3&#45;headlabel"><a xlink:href="dir_000011_000003.html" target="_top" xlink:title="1">
<text text-anchor="middle" x="51.51" y="-134.71" font-family="Helvetica,sans-Serif" font-size="10.00">1</text>
</a>
</g>
</g>
<!-- dir_641dd1d6eec6839bde8723c7512dd2a4&#45;&gt;dir_b126ede605183bf54c841164c04b7f80 -->
<g id="edge2" class="edge">
<title>dir_641dd1d6eec6839bde8723c7512dd2a4&#45;&gt;dir_b126ede605183bf54c841164c04b7f80</title>
<path fill="none" stroke="black" d="M61.15,-159.91C67.92,-150.01 75.49,-136.96 79,-124 84.53,-103.59 80.57,-79.87 75.62,-62.05"/>
<polygon fill="black" stroke="black" points="78.91,-60.86 72.65,-52.31 72.22,-62.9 78.91,-60.86"/>
<g id="a_edge2&#45;headlabel"><a xlink:href="dir_000011_000007.html" target="_top" xlink:title="1">
<text text-anchor="middle" x="82.68" y="-60.97" font-family="Helvetica,sans-Serif" font-size="10.00">1</text>
</a>
</g>
</g>
</g>
</svg>
