<?xml version="1.0" encoding="UTF-8" standalone="no"?>
<!DOCTYPE svg PUBLIC "-//W3C//DTD SVG 1.1//EN"
 "http://www.w3.org/Graphics/SVG/1.1/DTD/svg11.dtd">
<!-- Generated by graphviz version 2.47.3 (20210619.1520)
 -->
<!-- Title: src/pybindings/src/libbtf_binding.cpp Pages: 1 -->
<svg width="1900pt" height="375pt"
 viewBox="0.00 0.00 1899.63 375.00" xmlns="http://www.w3.org/2000/svg" xmlns:xlink="http://www.w3.org/1999/xlink">
<g id="graph0" class="graph" transform="scale(1 1) rotate(0) translate(4 371)">
<title>src/pybindings/src/libbtf_binding.cpp</title>
<polygon fill="white" stroke="transparent" points="-4,4 -4,-371 1895.63,-371 1895.63,4 -4,4"/>
<!-- Node1 -->
<g id="node1" class="node">
<title>Node1</title>
<g id="a_node1"><a xlink:title=" ">
<polygon fill="#bfbfbf" stroke="black" points="1573.13,-336.5 1573.13,-366.5 1669.13,-366.5 1669.13,-336.5 1573.13,-336.5"/>
<text text-anchor="start" x="1581.13" y="-354.5" font-family="Helvetica,sans-Serif" font-size="10.00">src/pybindings/src</text>
<text text-anchor="middle" x="1621.13" y="-343.5" font-family="Helvetica,sans-Serif" font-size="10.00">/libbtf_binding.cpp</text>
</a>
</g>
</g>
<!-- Node2 -->
<g id="node2" class="node">
<title>Node2</title>
<g id="a_node2"><a xlink:href="btf_8h.html" target="_top" xlink:title=" ">
<polygon fill="white" stroke="black" points="742.63,-280.5 742.63,-299.5 791.63,-299.5 791.63,-280.5 742.63,-280.5"/>
<text text-anchor="middle" x="767.13" y="-287.5" font-family="Helvetica,sans-Serif" font-size="10.00">btf/btf.h</text>
</a>
</g>
</g>
<!-- Node1&#45;&gt;Node2 -->
<g id="edge1" class="edge">
<title>Node1&#45;&gt;Node2</title>
<path fill="none" stroke="midnightblue" d="M1573.08,-347.15C1418.49,-336.38 936.26,-302.78 802.09,-293.44"/>
<polygon fill="midnightblue" stroke="midnightblue" points="802.18,-289.93 791.97,-292.73 801.7,-296.92 802.18,-289.93"/>
</g>
<!-- Node29 -->
<g id="node29" class="node">
<title>Node29</title>
<g id="a_node29"><a xlink:href="libhelper__binding_8h.html" target="_top" xlink:title=" ">
<polygon fill="white" stroke="black" points="1572.63,-280.5 1572.63,-299.5 1669.63,-299.5 1669.63,-280.5 1572.63,-280.5"/>
<text text-anchor="middle" x="1621.13" y="-287.5" font-family="Helvetica,sans-Serif" font-size="10.00">libhelper_binding.h</text>
</a>
</g>
</g>
<!-- Node1&#45;&gt;Node29 -->
<g id="edge53" class="edge">
<title>Node1&#45;&gt;Node29</title>
<path fill="none" stroke="midnightblue" d="M1621.13,-336.4C1621.13,-328.47 1621.13,-318.46 1621.13,-309.86"/>
<polygon fill="midnightblue" stroke="midnightblue" points="1624.63,-309.66 1621.13,-299.66 1617.63,-309.66 1624.63,-309.66"/>
</g>
<!-- Node30 -->
<g id="node30" class="node">
<title>Node30</title>
<g id="a_node30"><a xlink:title=" ">
<polygon fill="white" stroke="#bfbfbf" points="1406.63,-224.5 1406.63,-243.5 1513.63,-243.5 1513.63,-224.5 1406.63,-224.5"/>
<text text-anchor="middle" x="1460.13" y="-231.5" font-family="Helvetica,sans-Serif" font-size="10.00">pybind11/operators.h</text>
</a>
</g>
</g>
<!-- Node1&#45;&gt;Node30 -->
<g id="edge59" class="edge">
<title>Node1&#45;&gt;Node30</title>
<path fill="none" stroke="midnightblue" d="M1601.39,-336.34C1570.67,-314.3 1511.72,-272.01 1480.57,-249.66"/>
<polygon fill="midnightblue" stroke="midnightblue" points="1482.38,-246.65 1472.22,-243.67 1478.3,-252.34 1482.38,-246.65"/>
</g>
<!-- Node31 -->
<g id="node31" class="node">
<title>Node31</title>
<g id="a_node31"><a xlink:title=" ">
<polygon fill="white" stroke="#bfbfbf" points="1690.13,-224.5 1690.13,-243.5 1796.13,-243.5 1796.13,-224.5 1690.13,-224.5"/>
<text text-anchor="middle" x="1743.13" y="-231.5" font-family="Helvetica,sans-Serif" font-size="10.00">pybind11/pybind11.h</text>
</a>
</g>
</g>
<!-- Node1&#45;&gt;Node31 -->
<g id="edge60" class="edge">
<title>Node1&#45;&gt;Node31</title>
<path fill="none" stroke="midnightblue" d="M1637.93,-336.46C1649.68,-326.51 1665.61,-312.71 1679.13,-300 1696.33,-283.83 1715.2,-264.45 1727.96,-251.08"/>
<polygon fill="midnightblue" stroke="midnightblue" points="1730.7,-253.28 1735.05,-243.62 1725.63,-248.46 1730.7,-253.28"/>
</g>
<!-- Node32 -->
<g id="node32" class="node">
<title>Node32</title>
<g id="a_node32"><a xlink:title=" ">
<polygon fill="white" stroke="#bfbfbf" points="1814.63,-224.5 1814.63,-243.5 1891.63,-243.5 1891.63,-224.5 1814.63,-224.5"/>
<text text-anchor="middle" x="1853.13" y="-231.5" font-family="Helvetica,sans-Serif" font-size="10.00">pybind11/stl.h</text>
</a>
</g>
</g>
<!-- Node1&#45;&gt;Node32 -->
<g id="edge61" class="edge">
<title>Node1&#45;&gt;Node32</title>
<path fill="none" stroke="midnightblue" d="M1649.58,-336.34C1694.91,-313.77 1782.9,-269.97 1826.84,-248.09"/>
<polygon fill="midnightblue" stroke="midnightblue" points="1828.62,-251.11 1836.01,-243.52 1825.5,-244.85 1828.62,-251.11"/>
</g>
<!-- Node3 -->
<g id="node3" class="node">
<title>Node3</title>
<g id="a_node3"><a xlink:title=" ">
<polygon fill="white" stroke="#bfbfbf" points="499.13,-224.5 499.13,-243.5 555.13,-243.5 555.13,-224.5 499.13,-224.5"/>
<text text-anchor="middle" x="527.13" y="-231.5" font-family="Helvetica,sans-Serif" font-size="10.00">algorithm</text>
</a>
</g>
</g>
<!-- Node2&#45;&gt;Node3 -->
<g id="edge2" class="edge">
<title>Node2&#45;&gt;Node3</title>
<path fill="none" stroke="midnightblue" d="M742.41,-283.69C705.87,-275.8 635.04,-260.38 565.24,-244.22"/>
<polygon fill="midnightblue" stroke="midnightblue" points="565.93,-240.79 555.4,-241.94 564.35,-247.61 565.93,-240.79"/>
</g>
<!-- Node4 -->
<g id="node4" class="node">
<title>Node4</title>
<g id="a_node4"><a xlink:title=" ">
<polygon fill="white" stroke="#bfbfbf" points="573.13,-224.5 573.13,-243.5 605.13,-243.5 605.13,-224.5 573.13,-224.5"/>
<text text-anchor="middle" x="589.13" y="-231.5" font-family="Helvetica,sans-Serif" font-size="10.00">any</text>
</a>
</g>
</g>
<!-- Node2&#45;&gt;Node4 -->
<g id="edge3" class="edge">
<title>Node2&#45;&gt;Node4</title>
<path fill="none" stroke="midnightblue" d="M742.38,-281.49C708.79,-271.3 649.06,-253.18 614.93,-242.83"/>
<polygon fill="midnightblue" stroke="midnightblue" points="615.81,-239.44 605.22,-239.88 613.78,-246.13 615.81,-239.44"/>
</g>
<!-- Node5 -->
<g id="node5" class="node">
<title>Node5</title>
<g id="a_node5"><a xlink:title=" ">
<polygon fill="white" stroke="#bfbfbf" points="1358.63,-0.5 1358.63,-19.5 1407.63,-19.5 1407.63,-0.5 1358.63,-0.5"/>
<text text-anchor="middle" x="1383.13" y="-7.5" font-family="Helvetica,sans-Serif" font-size="10.00">fstream</text>
</a>
</g>
</g>
<!-- Node2&#45;&gt;Node5 -->
<g id="edge4" class="edge">
<title>Node2&#45;&gt;Node5</title>
<path fill="none" stroke="midnightblue" d="M791.73,-288.73C882.84,-287.46 1200.67,-280.45 1294.13,-244 1338.11,-226.85 1378.13,-226.21 1378.13,-179 1378.13,-179 1378.13,-179 1378.13,-121 1378.13,-88.91 1380.28,-51.62 1381.76,-29.74"/>
<polygon fill="midnightblue" stroke="midnightblue" points="1385.27,-29.77 1382.48,-19.55 1378.29,-29.28 1385.27,-29.77"/>
</g>
<!-- Node6 -->
<g id="node6" class="node">
<title>Node6</title>
<g id="a_node6"><a xlink:title=" ">
<polygon fill="white" stroke="#bfbfbf" points="1183.13,-0.5 1183.13,-19.5 1237.13,-19.5 1237.13,-0.5 1183.13,-0.5"/>
<text text-anchor="middle" x="1210.13" y="-7.5" font-family="Helvetica,sans-Serif" font-size="10.00">iostream</text>
</a>
</g>
</g>
<!-- Node2&#45;&gt;Node6 -->
<g id="edge5" class="edge">
<title>Node2&#45;&gt;Node6</title>
<path fill="none" stroke="midnightblue" d="M791.69,-288.74C889.26,-287.46 1245.87,-280.31 1279.13,-244 1299.48,-221.78 1229.7,-77.77 1229.13,-76 1224.15,-60.43 1218.98,-42.59 1215.29,-29.55"/>
<polygon fill="midnightblue" stroke="midnightblue" points="1218.64,-28.56 1212.57,-19.87 1211.9,-30.45 1218.64,-28.56"/>
</g>
<!-- Node7 -->
<g id="node7" class="node">
<title>Node7</title>
<g id="a_node7"><a xlink:title=" ">
<polygon fill="white" stroke="#bfbfbf" points="752.63,-224.5 752.63,-243.5 781.63,-243.5 781.63,-224.5 752.63,-224.5"/>
<text text-anchor="middle" x="767.13" y="-231.5" font-family="Helvetica,sans-Serif" font-size="10.00">list</text>
</a>
</g>
</g>
<!-- Node2&#45;&gt;Node7 -->
<g id="edge6" class="edge">
<title>Node2&#45;&gt;Node7</title>
<path fill="none" stroke="midnightblue" d="M767.13,-280.08C767.13,-273.01 767.13,-262.86 767.13,-253.99"/>
<polygon fill="midnightblue" stroke="midnightblue" points="770.63,-253.75 767.13,-243.75 763.63,-253.75 770.63,-253.75"/>
</g>
<!-- Node8 -->
<g id="node8" class="node">
<title>Node8</title>
<g id="a_node8"><a xlink:title=" ">
<polygon fill="white" stroke="#bfbfbf" points="800.13,-224.5 800.13,-243.5 852.13,-243.5 852.13,-224.5 800.13,-224.5"/>
<text text-anchor="middle" x="826.13" y="-231.5" font-family="Helvetica,sans-Serif" font-size="10.00">sstream</text>
</a>
</g>
</g>
<!-- Node2&#45;&gt;Node8 -->
<g id="edge7" class="edge">
<title>Node2&#45;&gt;Node8</title>
<path fill="none" stroke="midnightblue" d="M776.61,-280.32C785.33,-272.34 798.48,-260.31 809.03,-250.65"/>
<polygon fill="midnightblue" stroke="midnightblue" points="811.47,-253.17 816.48,-243.83 806.74,-248 811.47,-253.17"/>
</g>
<!-- Node9 -->
<g id="node9" class="node">
<title>Node9</title>
<g id="a_node9"><a xlink:title=" ">
<polygon fill="white" stroke="#bfbfbf" points="306.63,-0.5 306.63,-19.5 347.63,-19.5 347.63,-0.5 306.63,-0.5"/>
<text text-anchor="middle" x="327.13" y="-7.5" font-family="Helvetica,sans-Serif" font-size="10.00">string</text>
</a>
</g>
</g>
<!-- Node2&#45;&gt;Node9 -->
<g id="edge8" class="edge">
<title>Node2&#45;&gt;Node9</title>
<path fill="none" stroke="midnightblue" d="M742.36,-289.17C619.34,-289.8 77.71,-289.93 20.13,-244 -3.4,-225.23 1.13,-209.1 1.13,-179 1.13,-179 1.13,-179 1.13,-121 1.13,-59.12 214.69,-25.35 296.11,-14.72"/>
<polygon fill="midnightblue" stroke="midnightblue" points="296.77,-18.17 306.24,-13.43 295.88,-11.22 296.77,-18.17"/>
</g>
<!-- Node10 -->
<g id="node10" class="node">
<title>Node10</title>
<g id="a_node10"><a xlink:title=" ">
<polygon fill="white" stroke="#bfbfbf" points="932.13,-224.5 932.13,-243.5 996.13,-243.5 996.13,-224.5 932.13,-224.5"/>
<text text-anchor="middle" x="964.13" y="-231.5" font-family="Helvetica,sans-Serif" font-size="10.00">string_view</text>
</a>
</g>
</g>
<!-- Node2&#45;&gt;Node10 -->
<g id="edge9" class="edge">
<title>Node2&#45;&gt;Node10</title>
<path fill="none" stroke="midnightblue" d="M791.68,-282.27C824.68,-273.23 883.76,-257.03 923.45,-246.15"/>
<polygon fill="midnightblue" stroke="midnightblue" points="924.38,-249.53 933.1,-243.51 922.53,-242.78 924.38,-249.53"/>
</g>
<!-- Node11 -->
<g id="node11" class="node">
<title>Node11</title>
<g id="a_node11"><a xlink:title=" ">
<polygon fill="white" stroke="#bfbfbf" points="1014.63,-224.5 1014.63,-243.5 1097.63,-243.5 1097.63,-224.5 1014.63,-224.5"/>
<text text-anchor="middle" x="1056.13" y="-231.5" font-family="Helvetica,sans-Serif" font-size="10.00">unordered_map</text>
</a>
</g>
</g>
<!-- Node2&#45;&gt;Node11 -->
<g id="edge10" class="edge">
<title>Node2&#45;&gt;Node11</title>
<path fill="none" stroke="midnightblue" d="M791.77,-284.4C838.71,-275.63 941.84,-256.36 1004.51,-244.65"/>
<polygon fill="midnightblue" stroke="midnightblue" points="1005.4,-248.04 1014.59,-242.76 1004.11,-241.16 1005.4,-248.04"/>
</g>
<!-- Node12 -->
<g id="node12" class="node">
<title>Node12</title>
<g id="a_node12"><a xlink:title=" ">
<polygon fill="white" stroke="#bfbfbf" points="1136.13,-112.5 1136.13,-131.5 1214.13,-131.5 1214.13,-112.5 1136.13,-112.5"/>
<text text-anchor="middle" x="1175.13" y="-119.5" font-family="Helvetica,sans-Serif" font-size="10.00">unordered_set</text>
</a>
</g>
</g>
<!-- Node2&#45;&gt;Node12 -->
<g id="edge11" class="edge">
<title>Node2&#45;&gt;Node12</title>
<path fill="none" stroke="midnightblue" d="M791.8,-288.66C887.32,-287.07 1229.2,-278.98 1261.13,-244 1293.36,-208.71 1233.78,-161.06 1198.48,-137.47"/>
<polygon fill="midnightblue" stroke="midnightblue" points="1199.97,-134.27 1189.68,-131.75 1196.16,-140.13 1199.97,-134.27"/>
</g>
<!-- Node13 -->
<g id="node13" class="node">
<title>Node13</title>
<g id="a_node13"><a xlink:title=" ">
<polygon fill="white" stroke="#bfbfbf" points="1116.13,-224.5 1116.13,-243.5 1158.13,-243.5 1158.13,-224.5 1116.13,-224.5"/>
<text text-anchor="middle" x="1137.13" y="-231.5" font-family="Helvetica,sans-Serif" font-size="10.00">vector</text>
</a>
</g>
</g>
<!-- Node2&#45;&gt;Node13 -->
<g id="edge12" class="edge">
<title>Node2&#45;&gt;Node13</title>
<path fill="none" stroke="midnightblue" d="M791.69,-287.11C846.48,-282.59 982.96,-269.77 1105.97,-243.94"/>
<polygon fill="midnightblue" stroke="midnightblue" points="1106.89,-247.33 1115.94,-241.82 1105.43,-240.48 1106.89,-247.33"/>
</g>
<!-- Node14 -->
<g id="node14" class="node">
<title>Node14</title>
<g id="a_node14"><a xlink:href="btf__entity__types_8h.html" target="_top" xlink:title=" ">
<polygon fill="white" stroke="black" points="1128.13,-168.5 1128.13,-187.5 1222.13,-187.5 1222.13,-168.5 1128.13,-168.5"/>
<text text-anchor="middle" x="1175.13" y="-175.5" font-family="Helvetica,sans-Serif" font-size="10.00">btf_entity_types.h</text>
</a>
</g>
</g>
<!-- Node2&#45;&gt;Node14 -->
<g id="edge13" class="edge">
<title>Node2&#45;&gt;Node14</title>
<path fill="none" stroke="midnightblue" d="M791.63,-288.58C884.94,-286.73 1214.34,-277.82 1245.13,-244 1262.73,-224.67 1232.11,-204.5 1205.99,-191.85"/>
<polygon fill="midnightblue" stroke="midnightblue" points="1207.21,-188.56 1196.66,-187.55 1204.27,-194.92 1207.21,-188.56"/>
</g>
<!-- Node15 -->
<g id="node15" class="node">
<title>Node15</title>
<g id="a_node15"><a xlink:href="btf__signal_8h.html" target="_top" xlink:title=" ">
<polygon fill="white" stroke="black" points="335.13,-224.5 335.13,-243.5 401.13,-243.5 401.13,-224.5 335.13,-224.5"/>
<text text-anchor="middle" x="368.13" y="-231.5" font-family="Helvetica,sans-Serif" font-size="10.00">btf_signal.h</text>
</a>
</g>
</g>
<!-- Node2&#45;&gt;Node15 -->
<g id="edge16" class="edge">
<title>Node2&#45;&gt;Node15</title>
<path fill="none" stroke="midnightblue" d="M742.35,-286.62C685.63,-281 541.79,-265.87 411.69,-244.14"/>
<polygon fill="midnightblue" stroke="midnightblue" points="412,-240.65 401.55,-242.43 410.83,-247.55 412,-240.65"/>
</g>
<!-- Node16 -->
<g id="node16" class="node">
<title>Node16</title>
<g id="a_node16"><a xlink:href="common_8h.html" target="_top" xlink:title=" ">
<polygon fill="white" stroke="black" points="524.13,-168.5 524.13,-187.5 586.13,-187.5 586.13,-168.5 524.13,-168.5"/>
<text text-anchor="middle" x="555.13" y="-175.5" font-family="Helvetica,sans-Serif" font-size="10.00">common.h</text>
</a>
</g>
</g>
<!-- Node2&#45;&gt;Node16 -->
<g id="edge28" class="edge">
<title>Node2&#45;&gt;Node16</title>
<path fill="none" stroke="midnightblue" d="M742.46,-280.95C718.92,-272.87 682.75,-259.45 653.13,-244 624.54,-229.08 593.91,-207.82 574.65,-193.73"/>
<polygon fill="midnightblue" stroke="midnightblue" points="576.53,-190.77 566.41,-187.63 572.37,-196.39 576.53,-190.77"/>
</g>
<!-- Node21 -->
<g id="node21" class="node">
<title>Node21</title>
<g id="a_node21"><a xlink:href="core_8h.html" target="_top" xlink:title=" ">
<polygon fill="white" stroke="black" points="870.13,-224.5 870.13,-243.5 914.13,-243.5 914.13,-224.5 870.13,-224.5"/>
<text text-anchor="middle" x="892.13" y="-231.5" font-family="Helvetica,sans-Serif" font-size="10.00">core.h</text>
</a>
</g>
</g>
<!-- Node2&#45;&gt;Node21 -->
<g id="edge29" class="edge">
<title>Node2&#45;&gt;Node21</title>
<path fill="none" stroke="midnightblue" d="M786.94,-280.44C807.42,-271.6 839.62,-257.69 863,-247.59"/>
<polygon fill="midnightblue" stroke="midnightblue" points="864.63,-250.7 872.42,-243.52 861.85,-244.27 864.63,-250.7"/>
</g>
<!-- Node22 -->
<g id="node22" class="node">
<title>Node22</title>
<g id="a_node22"><a xlink:href="os_8h.html" target="_top" xlink:title=" ">
<polygon fill="white" stroke="black" points="114.63,-224.5 114.63,-243.5 149.63,-243.5 149.63,-224.5 114.63,-224.5"/>
<text text-anchor="middle" x="132.13" y="-231.5" font-family="Helvetica,sans-Serif" font-size="10.00">os.h</text>
</a>
</g>
</g>
<!-- Node2&#45;&gt;Node22 -->
<g id="edge31" class="edge">
<title>Node2&#45;&gt;Node22</title>
<path fill="none" stroke="midnightblue" d="M742.45,-289.45C660.37,-290.48 389.2,-290.08 159.73,-243.84"/>
<polygon fill="midnightblue" stroke="midnightblue" points="160.36,-240.4 149.86,-241.82 158.96,-247.26 160.36,-240.4"/>
</g>
<!-- Node23 -->
<g id="node23" class="node">
<title>Node23</title>
<g id="a_node23"><a xlink:href="process_8h.html" target="_top" xlink:title=" ">
<polygon fill="white" stroke="black" points="1176.63,-224.5 1176.63,-243.5 1235.63,-243.5 1235.63,-224.5 1176.63,-224.5"/>
<text text-anchor="middle" x="1206.13" y="-231.5" font-family="Helvetica,sans-Serif" font-size="10.00">process.h</text>
</a>
</g>
</g>
<!-- Node2&#45;&gt;Node23 -->
<g id="edge34" class="edge">
<title>Node2&#45;&gt;Node23</title>
<path fill="none" stroke="midnightblue" d="M792.08,-287.19C853.79,-282.52 1018.64,-268.73 1166.25,-243.96"/>
<polygon fill="midnightblue" stroke="midnightblue" points="1167.12,-247.36 1176.39,-242.23 1165.95,-240.46 1167.12,-247.36"/>
</g>
<!-- Node24 -->
<g id="node24" class="node">
<title>Node24</title>
<g id="a_node24"><a xlink:href="runnable_8h.html" target="_top" xlink:title=" ">
<polygon fill="white" stroke="black" points="419.13,-224.5 419.13,-243.5 481.13,-243.5 481.13,-224.5 419.13,-224.5"/>
<text text-anchor="middle" x="450.13" y="-231.5" font-family="Helvetica,sans-Serif" font-size="10.00">runnable.h</text>
</a>
</g>
</g>
<!-- Node2&#45;&gt;Node24 -->
<g id="edge37" class="edge">
<title>Node2&#45;&gt;Node24</title>
<path fill="none" stroke="midnightblue" d="M742.59,-285.52C695.72,-278.77 590.03,-263.02 491.37,-244.15"/>
<polygon fill="midnightblue" stroke="midnightblue" points="492.02,-240.71 481.54,-242.25 490.69,-247.58 492.02,-240.71"/>
</g>
<!-- Node25 -->
<g id="node25" class="node">
<title>Node25</title>
<g id="a_node25"><a xlink:href="scheduler_8h.html" target="_top" xlink:title=" ">
<polygon fill="white" stroke="black" points="29.63,-224.5 29.63,-243.5 96.63,-243.5 96.63,-224.5 29.63,-224.5"/>
<text text-anchor="middle" x="63.13" y="-231.5" font-family="Helvetica,sans-Serif" font-size="10.00">scheduler.h</text>
</a>
</g>
</g>
<!-- Node2&#45;&gt;Node25 -->
<g id="edge40" class="edge">
<title>Node2&#45;&gt;Node25</title>
<path fill="none" stroke="midnightblue" d="M742.35,-288.59C655.97,-286.91 360.05,-278.89 107.1,-244.1"/>
<polygon fill="midnightblue" stroke="midnightblue" points="107.37,-240.6 96.98,-242.69 106.41,-247.54 107.37,-240.6"/>
</g>
<!-- Node26 -->
<g id="node26" class="node">
<title>Node26</title>
<g id="a_node26"><a xlink:href="semaphore_8h.html" target="_top" xlink:title=" ">
<polygon fill="white" stroke="black" points="661.63,-224.5 661.63,-243.5 734.63,-243.5 734.63,-224.5 661.63,-224.5"/>
<text text-anchor="middle" x="698.13" y="-231.5" font-family="Helvetica,sans-Serif" font-size="10.00">semaphore.h</text>
</a>
</g>
</g>
<!-- Node2&#45;&gt;Node26 -->
<g id="edge43" class="edge">
<title>Node2&#45;&gt;Node26</title>
<path fill="none" stroke="midnightblue" d="M756.05,-280.32C745.65,-272.18 729.87,-259.84 717.41,-250.09"/>
<polygon fill="midnightblue" stroke="midnightblue" points="719.45,-247.24 709.42,-243.83 715.14,-252.75 719.45,-247.24"/>
</g>
<!-- Node27 -->
<g id="node27" class="node">
<title>Node27</title>
<g id="a_node27"><a xlink:href="simulation_8h.html" target="_top" xlink:title=" ">
<polygon fill="white" stroke="black" points="167.63,-224.5 167.63,-243.5 236.63,-243.5 236.63,-224.5 167.63,-224.5"/>
<text text-anchor="middle" x="202.13" y="-231.5" font-family="Helvetica,sans-Serif" font-size="10.00">simulation.h</text>
</a>
</g>
</g>
<!-- Node2&#45;&gt;Node27 -->
<g id="edge47" class="edge">
<title>Node2&#45;&gt;Node27</title>
<path fill="none" stroke="midnightblue" d="M742.6,-287.89C669.05,-284.35 443.81,-271.97 246.62,-243.89"/>
<polygon fill="midnightblue" stroke="midnightblue" points="247.05,-240.42 236.65,-242.45 246.05,-247.34 247.05,-240.42"/>
</g>
<!-- Node28 -->
<g id="node28" class="node">
<title>Node28</title>
<g id="a_node28"><a xlink:href="stimulus_8h.html" target="_top" xlink:title=" ">
<polygon fill="white" stroke="black" points="255.13,-224.5 255.13,-243.5 317.13,-243.5 317.13,-224.5 255.13,-224.5"/>
<text text-anchor="middle" x="286.13" y="-231.5" font-family="Helvetica,sans-Serif" font-size="10.00">stimulus.h</text>
</a>
</g>
</g>
<!-- Node2&#45;&gt;Node28 -->
<g id="edge50" class="edge">
<title>Node2&#45;&gt;Node28</title>
<path fill="none" stroke="midnightblue" d="M742.62,-287.53C676.96,-283.38 491.56,-270.23 327.76,-244.09"/>
<polygon fill="midnightblue" stroke="midnightblue" points="327.94,-240.57 317.51,-242.43 326.82,-247.48 327.94,-240.57"/>
</g>
<!-- Node14&#45;&gt;Node9 -->
<g id="edge14" class="edge">
<title>Node14&#45;&gt;Node9</title>
<path fill="none" stroke="midnightblue" d="M1147.59,-168.43C1076.02,-146.48 877.95,-87.71 709.13,-56 579.82,-31.71 423.28,-18.15 358.02,-13.2"/>
<polygon fill="midnightblue" stroke="midnightblue" points="358.22,-9.7 347.99,-12.45 357.7,-16.68 358.22,-9.7"/>
</g>
<!-- Node14&#45;&gt;Node12 -->
<g id="edge15" class="edge">
<title>Node14&#45;&gt;Node12</title>
<path fill="none" stroke="midnightblue" d="M1175.13,-168.08C1175.13,-161.01 1175.13,-150.86 1175.13,-141.99"/>
<polygon fill="midnightblue" stroke="midnightblue" points="1178.63,-141.75 1175.13,-131.75 1171.63,-141.75 1178.63,-141.75"/>
</g>
<!-- Node15&#45;&gt;Node9 -->
<g id="edge17" class="edge">
<title>Node15&#45;&gt;Node9</title>
<path fill="none" stroke="midnightblue" d="M366.53,-224.3C360.49,-191.63 339.11,-75.87 330.63,-29.96"/>
<polygon fill="midnightblue" stroke="midnightblue" points="334.03,-29.08 328.77,-19.88 327.15,-30.35 334.03,-29.08"/>
</g>
<!-- Node15&#45;&gt;Node16 -->
<g id="edge18" class="edge">
<title>Node15&#45;&gt;Node16</title>
<path fill="none" stroke="midnightblue" d="M397.76,-224.44C429.63,-215.24 480.47,-200.56 515.7,-190.39"/>
<polygon fill="midnightblue" stroke="midnightblue" points="517,-193.65 525.64,-187.52 515.06,-186.93 517,-193.65"/>
</g>
<!-- Node16&#45;&gt;Node6 -->
<g id="edge19" class="edge">
<title>Node16&#45;&gt;Node6</title>
<path fill="none" stroke="midnightblue" d="M586.28,-169.11C694.75,-141.62 1055.6,-50.16 1172.93,-20.43"/>
<polygon fill="midnightblue" stroke="midnightblue" points="1174.04,-23.76 1182.87,-17.91 1172.32,-16.97 1174.04,-23.76"/>
</g>
<!-- Node17 -->
<g id="node17" class="node">
<title>Node17</title>
<g id="a_node17"><a xlink:href="helper_8h.html" target="_top" xlink:title=" ">
<polygon fill="white" stroke="black" points="1270.13,-112.5 1270.13,-131.5 1350.13,-131.5 1350.13,-112.5 1270.13,-112.5"/>
<text text-anchor="middle" x="1310.13" y="-119.5" font-family="Helvetica,sans-Serif" font-size="10.00">helper/helper.h</text>
</a>
</g>
</g>
<!-- Node16&#45;&gt;Node17 -->
<g id="edge20" class="edge">
<title>Node16&#45;&gt;Node17</title>
<path fill="none" stroke="midnightblue" d="M586.46,-175.29C682.03,-169.99 978.19,-152.91 1223.13,-132 1234.95,-130.99 1247.66,-129.76 1259.61,-128.54"/>
<polygon fill="midnightblue" stroke="midnightblue" points="1260.29,-131.98 1269.88,-127.47 1259.57,-125.02 1260.29,-131.98"/>
</g>
<!-- Node18 -->
<g id="node18" class="node">
<title>Node18</title>
<g id="a_node18"><a xlink:href="logging_8h.html" target="_top" xlink:title=" ">
<polygon fill="white" stroke="black" points="1294.13,-56.5 1294.13,-75.5 1350.13,-75.5 1350.13,-56.5 1294.13,-56.5"/>
<text text-anchor="middle" x="1322.13" y="-63.5" font-family="Helvetica,sans-Serif" font-size="10.00">logging.h</text>
</a>
</g>
</g>
<!-- Node17&#45;&gt;Node18 -->
<g id="edge21" class="edge">
<title>Node17&#45;&gt;Node18</title>
<path fill="none" stroke="midnightblue" d="M1312.11,-112.08C1313.7,-104.93 1315.99,-94.64 1317.98,-85.69"/>
<polygon fill="midnightblue" stroke="midnightblue" points="1321.44,-86.27 1320.19,-75.75 1314.6,-84.75 1321.44,-86.27"/>
</g>
<!-- Node20 -->
<g id="node20" class="node">
<title>Node20</title>
<g id="a_node20"><a xlink:href="util_8h.html" target="_top" xlink:title=" ">
<polygon fill="white" stroke="black" points="1238.13,-56.5 1238.13,-75.5 1276.13,-75.5 1276.13,-56.5 1238.13,-56.5"/>
<text text-anchor="middle" x="1257.13" y="-63.5" font-family="Helvetica,sans-Serif" font-size="10.00">util.h</text>
</a>
</g>
</g>
<!-- Node17&#45;&gt;Node20 -->
<g id="edge24" class="edge">
<title>Node17&#45;&gt;Node20</title>
<path fill="none" stroke="midnightblue" d="M1301.38,-112.08C1293.66,-104.22 1282.23,-92.57 1272.92,-83.08"/>
<polygon fill="midnightblue" stroke="midnightblue" points="1275.22,-80.44 1265.72,-75.75 1270.23,-85.34 1275.22,-80.44"/>
</g>
<!-- Node18&#45;&gt;Node6 -->
<g id="edge22" class="edge">
<title>Node18&#45;&gt;Node6</title>
<path fill="none" stroke="midnightblue" d="M1304.14,-56.32C1286.09,-47.62 1258.09,-34.12 1237.33,-24.11"/>
<polygon fill="midnightblue" stroke="midnightblue" points="1238.61,-20.84 1228.08,-19.65 1235.57,-27.15 1238.61,-20.84"/>
</g>
<!-- Node19 -->
<g id="node19" class="node">
<title>Node19</title>
<g id="a_node19"><a xlink:title=" ">
<polygon fill="white" stroke="#bfbfbf" points="1255.63,-0.5 1255.63,-19.5 1340.63,-19.5 1340.63,-0.5 1255.63,-0.5"/>
<text text-anchor="middle" x="1298.13" y="-7.5" font-family="Helvetica,sans-Serif" font-size="10.00">source_location</text>
</a>
</g>
</g>
<!-- Node18&#45;&gt;Node19 -->
<g id="edge23" class="edge">
<title>Node18&#45;&gt;Node19</title>
<path fill="none" stroke="midnightblue" d="M1318.17,-56.08C1314.92,-48.77 1310.21,-38.18 1306.18,-29.1"/>
<polygon fill="midnightblue" stroke="midnightblue" points="1309.28,-27.47 1302.02,-19.75 1302.88,-30.31 1309.28,-27.47"/>
</g>
<!-- Node20&#45;&gt;Node5 -->
<g id="edge25" class="edge">
<title>Node20&#45;&gt;Node5</title>
<path fill="none" stroke="midnightblue" d="M1276.27,-56.8C1296.84,-47.98 1329.8,-33.86 1353.68,-23.62"/>
<polygon fill="midnightblue" stroke="midnightblue" points="1355.17,-26.79 1362.98,-19.64 1352.41,-20.36 1355.17,-26.79"/>
</g>
<!-- Node20&#45;&gt;Node6 -->
<g id="edge26" class="edge">
<title>Node20&#45;&gt;Node6</title>
<path fill="none" stroke="midnightblue" d="M1249.37,-56.08C1242.6,-48.3 1232.59,-36.8 1224.38,-27.37"/>
<polygon fill="midnightblue" stroke="midnightblue" points="1226.95,-25 1217.75,-19.75 1221.67,-29.59 1226.95,-25"/>
</g>
<!-- Node20&#45;&gt;Node9 -->
<g id="edge27" class="edge">
<title>Node20&#45;&gt;Node9</title>
<path fill="none" stroke="midnightblue" d="M1237.71,-63.87C1120.13,-57.05 503.81,-21.26 358.05,-12.8"/>
<polygon fill="midnightblue" stroke="midnightblue" points="357.82,-9.28 347.64,-12.19 357.42,-16.26 357.82,-9.28"/>
</g>
<!-- Node21&#45;&gt;Node16 -->
<g id="edge30" class="edge">
<title>Node21&#45;&gt;Node16</title>
<path fill="none" stroke="midnightblue" d="M869.87,-226.14C866.95,-225.36 863.98,-224.62 861.13,-224 767.34,-203.59 655.32,-189.74 596.27,-183.24"/>
<polygon fill="midnightblue" stroke="midnightblue" points="596.54,-179.75 586.22,-182.15 595.79,-186.71 596.54,-179.75"/>
</g>
<!-- Node22&#45;&gt;Node9 -->
<g id="edge32" class="edge">
<title>Node22&#45;&gt;Node9</title>
<path fill="none" stroke="midnightblue" d="M139.85,-224.14C162.44,-198.22 230.38,-120.32 287.13,-56 295.53,-46.48 304.97,-35.86 312.57,-27.33"/>
<polygon fill="midnightblue" stroke="midnightblue" points="315.4,-29.4 319.45,-19.61 310.18,-24.75 315.4,-29.4"/>
</g>
<!-- Node22&#45;&gt;Node16 -->
<g id="edge33" class="edge">
<title>Node22&#45;&gt;Node16</title>
<path fill="none" stroke="midnightblue" d="M149.88,-226.28C152.62,-225.41 155.43,-224.61 158.13,-224 285.96,-195.01 441.37,-184.3 514.01,-180.68"/>
<polygon fill="midnightblue" stroke="midnightblue" points="514.29,-184.17 524.11,-180.19 513.96,-177.18 514.29,-184.17"/>
</g>
<!-- Node23&#45;&gt;Node14 -->
<g id="edge35" class="edge">
<title>Node23&#45;&gt;Node14</title>
<path fill="none" stroke="midnightblue" d="M1201.01,-224.08C1196.72,-216.61 1190.47,-205.72 1185.19,-196.52"/>
<polygon fill="midnightblue" stroke="midnightblue" points="1188.17,-194.68 1180.16,-187.75 1182.1,-198.17 1188.17,-194.68"/>
</g>
<!-- Node23&#45;&gt;Node16 -->
<g id="edge36" class="edge">
<title>Node23&#45;&gt;Node16</title>
<path fill="none" stroke="midnightblue" d="M1176.41,-225.65C1173.29,-225.02 1170.16,-224.46 1167.13,-224 953.95,-191.76 695.36,-182.37 596.38,-179.85"/>
<polygon fill="midnightblue" stroke="midnightblue" points="596.29,-176.35 586.21,-179.6 596.12,-183.35 596.29,-176.35"/>
</g>
<!-- Node24&#45;&gt;Node9 -->
<g id="edge38" class="edge">
<title>Node24&#45;&gt;Node9</title>
<path fill="none" stroke="midnightblue" d="M445.24,-224.16C430.93,-198.29 387.91,-120.51 352.13,-56 347.09,-46.9 341.46,-36.77 336.82,-28.43"/>
<polygon fill="midnightblue" stroke="midnightblue" points="339.85,-26.66 331.93,-19.62 333.73,-30.07 339.85,-26.66"/>
</g>
<!-- Node24&#45;&gt;Node16 -->
<g id="edge39" class="edge">
<title>Node24&#45;&gt;Node16</title>
<path fill="none" stroke="midnightblue" d="M467,-224.32C483.84,-215.66 509.94,-202.24 529.37,-192.25"/>
<polygon fill="midnightblue" stroke="midnightblue" points="531.01,-195.34 538.3,-187.65 527.81,-189.12 531.01,-195.34"/>
</g>
<!-- Node25&#45;&gt;Node9 -->
<g id="edge41" class="edge">
<title>Node25&#45;&gt;Node9</title>
<path fill="none" stroke="midnightblue" d="M72.69,-224.28C101.48,-198.09 190.14,-118.14 267.13,-56 280.05,-45.57 294.98,-34.37 306.72,-25.75"/>
<polygon fill="midnightblue" stroke="midnightblue" points="308.97,-28.44 314.99,-19.72 304.85,-22.79 308.97,-28.44"/>
</g>
<!-- Node25&#45;&gt;Node16 -->
<g id="edge42" class="edge">
<title>Node25&#45;&gt;Node16</title>
<path fill="none" stroke="midnightblue" d="M97,-225.4C99.74,-224.89 102.48,-224.42 105.13,-224 254.72,-200.57 434.29,-186.9 513.79,-181.59"/>
<polygon fill="midnightblue" stroke="midnightblue" points="514.13,-185.07 523.88,-180.92 513.67,-178.09 514.13,-185.07"/>
</g>
<!-- Node26&#45;&gt;Node9 -->
<g id="edge44" class="edge">
<title>Node26&#45;&gt;Node9</title>
<path fill="none" stroke="midnightblue" d="M684.89,-224.44C665.36,-211.88 627.65,-187.78 595.13,-168 505.7,-113.6 397.79,-51.43 350.86,-24.55"/>
<polygon fill="midnightblue" stroke="midnightblue" points="352.47,-21.44 342.05,-19.51 348.99,-27.51 352.47,-21.44"/>
</g>
<!-- Node26&#45;&gt;Node14 -->
<g id="edge45" class="edge">
<title>Node26&#45;&gt;Node14</title>
<path fill="none" stroke="midnightblue" d="M734.74,-225.53C737.91,-224.98 741.07,-224.46 744.13,-224 877.38,-204.05 1035.13,-189.99 1117.88,-183.34"/>
<polygon fill="midnightblue" stroke="midnightblue" points="1118.39,-186.81 1128.08,-182.53 1117.84,-179.83 1118.39,-186.81"/>
</g>
<!-- Node26&#45;&gt;Node16 -->
<g id="edge46" class="edge">
<title>Node26&#45;&gt;Node16</title>
<path fill="none" stroke="midnightblue" d="M675.47,-224.44C651.73,-215.48 614.22,-201.31 587.39,-191.18"/>
<polygon fill="midnightblue" stroke="midnightblue" points="588.28,-187.77 577.69,-187.52 585.8,-194.32 588.28,-187.77"/>
</g>
<!-- Node27&#45;&gt;Node9 -->
<g id="edge48" class="edge">
<title>Node27&#45;&gt;Node9</title>
<path fill="none" stroke="midnightblue" d="M207.03,-224.3C225.58,-191.36 291.72,-73.9 317.11,-28.81"/>
<polygon fill="midnightblue" stroke="midnightblue" points="320.27,-30.31 322.13,-19.88 314.17,-26.88 320.27,-30.31"/>
</g>
<!-- Node27&#45;&gt;Node16 -->
<g id="edge49" class="edge">
<title>Node27&#45;&gt;Node16</title>
<path fill="none" stroke="midnightblue" d="M236.68,-225.74C239.87,-225.13 243.06,-224.54 246.13,-224 341.6,-207.3 454.41,-191.98 513.79,-184.26"/>
<polygon fill="midnightblue" stroke="midnightblue" points="514.43,-187.7 523.9,-182.95 513.53,-180.76 514.43,-187.7"/>
</g>
<!-- Node28&#45;&gt;Node9 -->
<g id="edge51" class="edge">
<title>Node28&#45;&gt;Node9</title>
<path fill="none" stroke="midnightblue" d="M287.74,-224.3C293.77,-191.63 315.15,-75.87 323.63,-29.96"/>
<polygon fill="midnightblue" stroke="midnightblue" points="327.12,-30.35 325.49,-19.88 320.23,-29.08 327.12,-30.35"/>
</g>
<!-- Node28&#45;&gt;Node16 -->
<g id="edge52" class="edge">
<title>Node28&#45;&gt;Node16</title>
<path fill="none" stroke="midnightblue" d="M317.56,-225.84C320.45,-225.21 323.35,-224.59 326.13,-224 391.74,-210.18 468.22,-195.42 514.1,-186.71"/>
<polygon fill="midnightblue" stroke="midnightblue" points="514.79,-190.15 523.96,-184.85 513.49,-183.27 514.79,-190.15"/>
</g>
<!-- Node29&#45;&gt;Node17 -->
<g id="edge54" class="edge">
<title>Node29&#45;&gt;Node17</title>
<path fill="none" stroke="midnightblue" d="M1609.41,-280.43C1591.37,-267.42 1555.48,-242.28 1523.13,-224 1459.79,-188.22 1381.72,-153.43 1339.92,-135.51"/>
<polygon fill="midnightblue" stroke="midnightblue" points="1341.16,-132.24 1330.59,-131.53 1338.41,-138.68 1341.16,-132.24"/>
</g>
<!-- Node29&#45;&gt;Node30 -->
<g id="edge55" class="edge">
<title>Node29&#45;&gt;Node30</title>
<path fill="none" stroke="midnightblue" d="M1595.62,-280.44C1568.54,-271.36 1525.54,-256.94 1495.26,-246.78"/>
<polygon fill="midnightblue" stroke="midnightblue" points="1496.12,-243.38 1485.52,-243.52 1493.89,-250.01 1496.12,-243.38"/>
</g>
<!-- Node29&#45;&gt;Node31 -->
<g id="edge56" class="edge">
<title>Node29&#45;&gt;Node31</title>
<path fill="none" stroke="midnightblue" d="M1640.46,-280.44C1660.45,-271.6 1691.88,-257.69 1714.7,-247.59"/>
<polygon fill="midnightblue" stroke="midnightblue" points="1716.16,-250.76 1723.89,-243.52 1713.33,-244.36 1716.16,-250.76"/>
</g>
<!-- Node29&#45;&gt;Node32 -->
<g id="edge57" class="edge">
<title>Node29&#45;&gt;Node32</title>
<path fill="none" stroke="midnightblue" d="M1657.89,-280.44C1698.2,-271.06 1762.94,-255.99 1806.72,-245.8"/>
<polygon fill="midnightblue" stroke="midnightblue" points="1807.6,-249.19 1816.54,-243.52 1806.01,-242.37 1807.6,-249.19"/>
</g>
<!-- Node33 -->
<g id="node33" class="node">
<title>Node33</title>
<g id="a_node33"><a xlink:title=" ">
<polygon fill="white" stroke="#bfbfbf" points="1570.63,-224.5 1570.63,-243.5 1671.63,-243.5 1671.63,-224.5 1570.63,-224.5"/>
<text text-anchor="middle" x="1621.13" y="-231.5" font-family="Helvetica,sans-Serif" font-size="10.00">pybind11/stl_bind.h</text>
</a>
</g>
</g>
<!-- Node29&#45;&gt;Node33 -->
<g id="edge58" class="edge">
<title>Node29&#45;&gt;Node33</title>
<path fill="none" stroke="midnightblue" d="M1621.13,-280.08C1621.13,-273.01 1621.13,-262.86 1621.13,-253.99"/>
<polygon fill="midnightblue" stroke="midnightblue" points="1624.63,-253.75 1621.13,-243.75 1617.63,-253.75 1624.63,-253.75"/>
</g>
</g>
</svg>
