<?xml version="1.0" encoding="UTF-8" standalone="no"?>
<!DOCTYPE svg PUBLIC "-//W3C//DTD SVG 1.1//EN"
 "http://www.w3.org/Graphics/SVG/1.1/DTD/svg11.dtd">
<!-- Generated by graphviz version 2.47.3 (20210619.1520)
 -->
<!-- Title: init_pybtfhelper Pages: 1 -->
<svg width="624pt" height="235pt"
 viewBox="0.00 0.00 624.00 235.00" xmlns="http://www.w3.org/2000/svg" xmlns:xlink="http://www.w3.org/1999/xlink">
<g id="graph0" class="graph" transform="scale(1 1) rotate(0) translate(4 231)">
<title>init_pybtfhelper</title>
<polygon fill="white" stroke="transparent" points="-4,4 -4,-231 620,-231 620,4 -4,4"/>
<!-- Node1 -->
<g id="node1" class="node">
<title>Node1</title>
<g id="a_node1"><a xlink:title="Helper function which is called inside the PYBIND11_MODULE macro and adds Python bindings to the C++ ...">
<polygon fill="#bfbfbf" stroke="black" points="0,-119 0,-138 82,-138 82,-119 0,-119"/>
<text text-anchor="middle" x="41" y="-126" font-family="Helvetica,sans-Serif" font-size="10.00">init_pybtfhelper</text>
</a>
</g>
</g>
<!-- Node2 -->
<g id="node2" class="node">
<title>Node2</title>
<g id="a_node2"><a xlink:href="namespacehelper_1_1logging.html#a8405ad51527364dd7ad47a226e4bab85" target="_top" xlink:title="Flushes the log.">
<polygon fill="white" stroke="black" points="312.5,-154 312.5,-173 418.5,-173 418.5,-154 312.5,-154"/>
<text text-anchor="middle" x="365.5" y="-161" font-family="Helvetica,sans-Serif" font-size="10.00">helper::logging::flush</text>
</a>
</g>
</g>
<!-- Node1&#45;&gt;Node2 -->
<g id="edge1" class="edge">
<title>Node1&#45;&gt;Node2</title>
<path fill="none" stroke="midnightblue" d="M74.66,-138.04C87.99,-141.57 103.62,-145.25 118,-147.5 180.24,-157.22 252.2,-161.05 302.24,-162.55"/>
<polygon fill="midnightblue" stroke="midnightblue" points="302.17,-166.05 312.27,-162.83 302.37,-159.06 302.17,-166.05"/>
</g>
<!-- Node4 -->
<g id="node4" class="node">
<title>Node4</title>
<g id="a_node4"><a xlink:href="namespacehelper_1_1logging.html#a07c8ea0d769c17b04f96a11ea545f8e8" target="_top" xlink:title="Initalizes the logging feature.">
<polygon fill="white" stroke="black" points="122,-198 122,-217 254,-217 254,-198 122,-198"/>
<text text-anchor="middle" x="188" y="-205" font-family="Helvetica,sans-Serif" font-size="10.00">helper::logging::initLogging</text>
</a>
</g>
</g>
<!-- Node1&#45;&gt;Node4 -->
<g id="edge3" class="edge">
<title>Node1&#45;&gt;Node4</title>
<path fill="none" stroke="midnightblue" d="M54.09,-138.06C68.65,-149.25 94.12,-167.87 118,-180.5 127.74,-185.65 138.68,-190.38 148.93,-194.39"/>
<polygon fill="midnightblue" stroke="midnightblue" points="147.9,-197.74 158.49,-198 150.38,-191.19 147.9,-197.74"/>
</g>
<!-- Node7 -->
<g id="node7" class="node">
<title>Node7</title>
<g id="a_node7"><a xlink:href="namespacehelper_1_1logging.html#a182d159db05f7638d388b4ee9740af04" target="_top" xlink:title="Writes an error message to the log.">
<polygon fill="white" stroke="black" points="125.5,-43 125.5,-62 250.5,-62 250.5,-43 125.5,-43"/>
<text text-anchor="middle" x="188" y="-50" font-family="Helvetica,sans-Serif" font-size="10.00">helper::logging::printError</text>
</a>
</g>
</g>
<!-- Node1&#45;&gt;Node7 -->
<g id="edge6" class="edge">
<title>Node1&#45;&gt;Node7</title>
<path fill="none" stroke="midnightblue" d="M52.47,-118.59C66.38,-105.93 92.24,-84.14 118,-71.5 122.69,-69.2 127.7,-67.14 132.8,-65.31"/>
<polygon fill="midnightblue" stroke="midnightblue" points="134.26,-68.51 142.66,-62.06 132.06,-61.87 134.26,-68.51"/>
</g>
<!-- Node12 -->
<g id="node12" class="node">
<title>Node12</title>
<g id="a_node12"><a xlink:href="namespacehelper_1_1logging.html#a0e1881bbc937b702aa298c5f5141b79b" target="_top" xlink:title="Writes a trace message to the log.">
<polygon fill="white" stroke="black" points="124,-119 124,-138 252,-138 252,-119 124,-119"/>
<text text-anchor="middle" x="188" y="-126" font-family="Helvetica,sans-Serif" font-size="10.00">helper::logging::printTrace</text>
</a>
</g>
</g>
<!-- Node1&#45;&gt;Node12 -->
<g id="edge12" class="edge">
<title>Node1&#45;&gt;Node12</title>
<path fill="none" stroke="midnightblue" d="M82.01,-128.5C91.95,-128.5 102.93,-128.5 113.93,-128.5"/>
<polygon fill="midnightblue" stroke="midnightblue" points="114,-132 124,-128.5 114,-125 114,-132"/>
</g>
<!-- Node13 -->
<g id="node13" class="node">
<title>Node13</title>
<g id="a_node13"><a xlink:href="namespacehelper_1_1logging.html#a9181c24054b42b4c6b18afff28b762bb" target="_top" xlink:title="Writes a warning message to the log.">
<polygon fill="white" stroke="black" points="118,-81 118,-100 258,-100 258,-81 118,-81"/>
<text text-anchor="middle" x="188" y="-88" font-family="Helvetica,sans-Serif" font-size="10.00">helper::logging::printWarning</text>
</a>
</g>
</g>
<!-- Node1&#45;&gt;Node13 -->
<g id="edge14" class="edge">
<title>Node1&#45;&gt;Node13</title>
<path fill="none" stroke="midnightblue" d="M78.59,-118.91C97.47,-113.96 120.69,-107.88 140.79,-102.61"/>
<polygon fill="midnightblue" stroke="midnightblue" points="141.89,-105.94 150.67,-100.02 140.11,-99.17 141.89,-105.94"/>
</g>
<!-- Node3 -->
<g id="node3" class="node">
<title>Node3</title>
<g id="a_node3"><a xlink:href="classhelper_1_1logging_1_1_global_logger.html#a080a88af50f5861331d887d02324e9c2" target="_top" xlink:title="Gets the logger (ostream).">
<polygon fill="white" stroke="black" points="473,-147.5 473,-177.5 616,-177.5 616,-147.5 473,-147.5"/>
<text text-anchor="start" x="481" y="-165.5" font-family="Helvetica,sans-Serif" font-size="10.00">helper::logging::GlobalLogger</text>
<text text-anchor="middle" x="544.5" y="-154.5" font-family="Helvetica,sans-Serif" font-size="10.00">::getLogger</text>
</a>
</g>
</g>
<!-- Node2&#45;&gt;Node3 -->
<g id="edge2" class="edge">
<title>Node2&#45;&gt;Node3</title>
<path fill="none" stroke="midnightblue" d="M418.65,-163.21C432.4,-163.13 447.57,-163.04 462.46,-162.96"/>
<polygon fill="midnightblue" stroke="midnightblue" points="462.72,-166.46 472.7,-162.9 462.68,-159.46 462.72,-166.46"/>
</g>
<!-- Node5 -->
<g id="node5" class="node">
<title>Node5</title>
<g id="a_node5"><a xlink:href="classhelper_1_1logging_1_1_global_logger.html#ac56da8e28a4323e5a378ae85254ccb95" target="_top" xlink:title="Opens the log file.">
<polygon fill="white" stroke="black" points="294,-194.5 294,-224.5 437,-224.5 437,-194.5 294,-194.5"/>
<text text-anchor="start" x="302" y="-212.5" font-family="Helvetica,sans-Serif" font-size="10.00">helper::logging::GlobalLogger</text>
<text text-anchor="middle" x="365.5" y="-201.5" font-family="Helvetica,sans-Serif" font-size="10.00">::openLogFile</text>
</a>
</g>
</g>
<!-- Node4&#45;&gt;Node5 -->
<g id="edge4" class="edge">
<title>Node4&#45;&gt;Node5</title>
<path fill="none" stroke="midnightblue" d="M254.35,-208.24C263.9,-208.35 273.82,-208.47 283.64,-208.58"/>
<polygon fill="midnightblue" stroke="midnightblue" points="283.76,-212.08 293.8,-208.69 283.84,-205.08 283.76,-212.08"/>
</g>
<!-- Node6 -->
<g id="node6" class="node">
<title>Node6</title>
<g id="a_node6"><a xlink:href="classhelper_1_1logging_1_1_global_logger.html#a5427682435207fff8480cf8b9ce3e178" target="_top" xlink:title="Closes the log file.">
<polygon fill="white" stroke="black" points="473,-196.5 473,-226.5 616,-226.5 616,-196.5 473,-196.5"/>
<text text-anchor="start" x="481" y="-214.5" font-family="Helvetica,sans-Serif" font-size="10.00">helper::logging::GlobalLogger</text>
<text text-anchor="middle" x="544.5" y="-203.5" font-family="Helvetica,sans-Serif" font-size="10.00">::closeLogFile</text>
</a>
</g>
</g>
<!-- Node5&#45;&gt;Node6 -->
<g id="edge5" class="edge">
<title>Node5&#45;&gt;Node6</title>
<path fill="none" stroke="midnightblue" d="M437.22,-210.3C445.57,-210.39 454.14,-210.49 462.62,-210.59"/>
<polygon fill="midnightblue" stroke="midnightblue" points="462.86,-214.09 472.89,-210.7 462.93,-207.09 462.86,-214.09"/>
</g>
<!-- Node8 -->
<g id="node8" class="node">
<title>Node8</title>
<g id="a_node8"><a xlink:href="namespacehelper_1_1logging.html#aadee8ee5d31250ae8288888fa86814a3" target="_top" xlink:title="Prints a log message to the log.">
<polygon fill="white" stroke="black" points="305.5,-81 305.5,-100 425.5,-100 425.5,-81 305.5,-81"/>
<text text-anchor="middle" x="365.5" y="-88" font-family="Helvetica,sans-Serif" font-size="10.00">helper::logging::printLog</text>
</a>
</g>
</g>
<!-- Node7&#45;&gt;Node8 -->
<g id="edge7" class="edge">
<title>Node7&#45;&gt;Node8</title>
<path fill="none" stroke="midnightblue" d="M233.29,-62.09C256.76,-67.17 285.78,-73.46 310.56,-78.82"/>
<polygon fill="midnightblue" stroke="midnightblue" points="310.02,-82.28 320.53,-80.98 311.5,-75.44 310.02,-82.28"/>
</g>
<!-- Node8&#45;&gt;Node3 -->
<g id="edge8" class="edge">
<title>Node8&#45;&gt;Node3</title>
<path fill="none" stroke="midnightblue" d="M387.12,-100.15C408.43,-109.99 442.76,-125.49 473,-137.5 478.41,-139.65 484.09,-141.81 489.78,-143.92"/>
<polygon fill="midnightblue" stroke="midnightblue" points="488.72,-147.26 499.31,-147.4 491.12,-140.68 488.72,-147.26"/>
</g>
<!-- Node9 -->
<g id="node9" class="node">
<title>Node9</title>
<g id="a_node9"><a xlink:href="classhelper_1_1logging_1_1_global_logger.html#a956281901fd88046239494c600e3c5e5" target="_top" xlink:title="Gets the null logger (ostream).">
<polygon fill="white" stroke="black" points="473,-0.5 473,-30.5 616,-30.5 616,-0.5 473,-0.5"/>
<text text-anchor="start" x="481" y="-18.5" font-family="Helvetica,sans-Serif" font-size="10.00">helper::logging::GlobalLogger</text>
<text text-anchor="middle" x="544.5" y="-7.5" font-family="Helvetica,sans-Serif" font-size="10.00">::getNullLogger</text>
</a>
</g>
</g>
<!-- Node8&#45;&gt;Node9 -->
<g id="edge9" class="edge">
<title>Node8&#45;&gt;Node9</title>
<path fill="none" stroke="midnightblue" d="M384.67,-80.98C405.64,-70.2 441.3,-52.43 473,-39.5 477.48,-37.67 482.15,-35.87 486.87,-34.12"/>
<polygon fill="midnightblue" stroke="midnightblue" points="488.35,-37.3 496.57,-30.61 485.97,-30.72 488.35,-37.3"/>
</g>
<!-- Node10 -->
<g id="node10" class="node">
<title>Node10</title>
<g id="a_node10"><a xlink:href="namespacehelper_1_1logging.html#a69b892408158ee6bed51c5aafa694af7" target="_top" xlink:title="Converts the enum LogLevel into string.">
<polygon fill="white" stroke="black" points="484.5,-98.5 484.5,-128.5 604.5,-128.5 604.5,-98.5 484.5,-98.5"/>
<text text-anchor="start" x="492.5" y="-116.5" font-family="Helvetica,sans-Serif" font-size="10.00">helper::logging::logLevel</text>
<text text-anchor="middle" x="544.5" y="-105.5" font-family="Helvetica,sans-Serif" font-size="10.00">ToString</text>
</a>
</g>
</g>
<!-- Node8&#45;&gt;Node10 -->
<g id="edge10" class="edge">
<title>Node8&#45;&gt;Node10</title>
<path fill="none" stroke="midnightblue" d="M425.93,-98.22C441.34,-100.22 458.06,-102.4 473.94,-104.46"/>
<polygon fill="midnightblue" stroke="midnightblue" points="473.86,-107.98 484.23,-105.8 474.76,-101.04 473.86,-107.98"/>
</g>
<!-- Node11 -->
<g id="node11" class="node">
<title>Node11</title>
<g id="a_node11"><a xlink:href="namespacehelper_1_1logging.html#a33b1f83f96be6edb81fa28ddba33179d" target="_top" xlink:title="Gets the source file name out of the path.">
<polygon fill="white" stroke="black" points="477,-49.5 477,-79.5 612,-79.5 612,-49.5 477,-49.5"/>
<text text-anchor="start" x="485" y="-67.5" font-family="Helvetica,sans-Serif" font-size="10.00">helper::logging::stripSource</text>
<text text-anchor="middle" x="544.5" y="-56.5" font-family="Helvetica,sans-Serif" font-size="10.00">FileName</text>
</a>
</g>
</g>
<!-- Node8&#45;&gt;Node11 -->
<g id="edge11" class="edge">
<title>Node8&#45;&gt;Node11</title>
<path fill="none" stroke="midnightblue" d="M425.93,-81.77C439.1,-79.84 453.24,-77.76 466.99,-75.74"/>
<polygon fill="midnightblue" stroke="midnightblue" points="467.52,-79.2 476.91,-74.28 466.51,-72.27 467.52,-79.2"/>
</g>
<!-- Node12&#45;&gt;Node8 -->
<g id="edge13" class="edge">
<title>Node12&#45;&gt;Node8</title>
<path fill="none" stroke="midnightblue" d="M233.29,-118.91C256.76,-113.83 285.78,-107.54 310.56,-102.18"/>
<polygon fill="midnightblue" stroke="midnightblue" points="311.5,-105.56 320.53,-100.02 310.02,-98.72 311.5,-105.56"/>
</g>
<!-- Node13&#45;&gt;Node8 -->
<g id="edge15" class="edge">
<title>Node13&#45;&gt;Node8</title>
<path fill="none" stroke="midnightblue" d="M258.11,-90.5C270.33,-90.5 283.05,-90.5 295.26,-90.5"/>
<polygon fill="midnightblue" stroke="midnightblue" points="295.39,-94 305.39,-90.5 295.39,-87 295.39,-94"/>
</g>
</g>
</svg>
