<?xml version="1.0" encoding="UTF-8" standalone="no"?>
<!DOCTYPE svg PUBLIC "-//W3C//DTD SVG 1.1//EN"
 "http://www.w3.org/Graphics/SVG/1.1/DTD/svg11.dtd">
<!-- Generated by graphviz version 2.47.3 (20210619.1520)
 -->
<!-- Title: src/pybindings/src/libhelper_binding.cpp Pages: 1 -->
<svg width="675pt" height="263pt"
 viewBox="0.00 0.00 675.00 263.00" xmlns="http://www.w3.org/2000/svg" xmlns:xlink="http://www.w3.org/1999/xlink">
<g id="graph0" class="graph" transform="scale(1 1) rotate(0) translate(4 259)">
<title>src/pybindings/src/libhelper_binding.cpp</title>
<polygon fill="white" stroke="transparent" points="-4,4 -4,-259 671,-259 671,4 -4,4"/>
<!-- Node1 -->
<g id="node1" class="node">
<title>Node1</title>
<g id="a_node1"><a xlink:title=" ">
<polygon fill="#bfbfbf" stroke="black" points="344.5,-224.5 344.5,-254.5 454.5,-254.5 454.5,-224.5 344.5,-224.5"/>
<text text-anchor="start" x="352.5" y="-242.5" font-family="Helvetica,sans-Serif" font-size="10.00">src/pybindings/src</text>
<text text-anchor="middle" x="399.5" y="-231.5" font-family="Helvetica,sans-Serif" font-size="10.00">/libhelper_binding.cpp</text>
</a>
</g>
</g>
<!-- Node2 -->
<g id="node2" class="node">
<title>Node2</title>
<g id="a_node2"><a xlink:href="libhelper__binding_8h.html" target="_top" xlink:title=" ">
<polygon fill="white" stroke="black" points="351,-168.5 351,-187.5 448,-187.5 448,-168.5 351,-168.5"/>
<text text-anchor="middle" x="399.5" y="-175.5" font-family="Helvetica,sans-Serif" font-size="10.00">libhelper_binding.h</text>
</a>
</g>
</g>
<!-- Node1&#45;&gt;Node2 -->
<g id="edge1" class="edge">
<title>Node1&#45;&gt;Node2</title>
<path fill="none" stroke="midnightblue" d="M399.5,-224.4C399.5,-216.47 399.5,-206.46 399.5,-197.86"/>
<polygon fill="midnightblue" stroke="midnightblue" points="403,-197.66 399.5,-187.66 396,-197.66 403,-197.66"/>
</g>
<!-- Node3 -->
<g id="node3" class="node">
<title>Node3</title>
<g id="a_node3"><a xlink:href="helper_8h.html" target="_top" xlink:title=" ">
<polygon fill="white" stroke="black" points="122.5,-112.5 122.5,-131.5 202.5,-131.5 202.5,-112.5 122.5,-112.5"/>
<text text-anchor="middle" x="162.5" y="-119.5" font-family="Helvetica,sans-Serif" font-size="10.00">helper/helper.h</text>
</a>
</g>
</g>
<!-- Node2&#45;&gt;Node3 -->
<g id="edge2" class="edge">
<title>Node2&#45;&gt;Node3</title>
<path fill="none" stroke="midnightblue" d="M361.95,-168.44C320.69,-159.04 254.36,-143.93 209.63,-133.74"/>
<polygon fill="midnightblue" stroke="midnightblue" points="210.41,-130.33 199.88,-131.52 208.85,-137.15 210.41,-130.33"/>
</g>
<!-- Node10 -->
<g id="node10" class="node">
<title>Node10</title>
<g id="a_node10"><a xlink:title=" ">
<polygon fill="white" stroke="#bfbfbf" points="221,-112.5 221,-131.5 328,-131.5 328,-112.5 221,-112.5"/>
<text text-anchor="middle" x="274.5" y="-119.5" font-family="Helvetica,sans-Serif" font-size="10.00">pybind11/operators.h</text>
</a>
</g>
</g>
<!-- Node2&#45;&gt;Node10 -->
<g id="edge10" class="edge">
<title>Node2&#45;&gt;Node10</title>
<path fill="none" stroke="midnightblue" d="M379.69,-168.44C359.21,-159.6 327.02,-145.69 303.64,-135.59"/>
<polygon fill="midnightblue" stroke="midnightblue" points="304.78,-132.27 294.21,-131.52 302.01,-138.7 304.78,-132.27"/>
</g>
<!-- Node11 -->
<g id="node11" class="node">
<title>Node11</title>
<g id="a_node11"><a xlink:title=" ">
<polygon fill="white" stroke="#bfbfbf" points="346.5,-112.5 346.5,-131.5 452.5,-131.5 452.5,-112.5 346.5,-112.5"/>
<text text-anchor="middle" x="399.5" y="-119.5" font-family="Helvetica,sans-Serif" font-size="10.00">pybind11/pybind11.h</text>
</a>
</g>
</g>
<!-- Node2&#45;&gt;Node11 -->
<g id="edge11" class="edge">
<title>Node2&#45;&gt;Node11</title>
<path fill="none" stroke="midnightblue" d="M399.5,-168.08C399.5,-161.01 399.5,-150.86 399.5,-141.99"/>
<polygon fill="midnightblue" stroke="midnightblue" points="403,-141.75 399.5,-131.75 396,-141.75 403,-141.75"/>
</g>
<!-- Node12 -->
<g id="node12" class="node">
<title>Node12</title>
<g id="a_node12"><a xlink:title=" ">
<polygon fill="white" stroke="#bfbfbf" points="471,-112.5 471,-131.5 548,-131.5 548,-112.5 471,-112.5"/>
<text text-anchor="middle" x="509.5" y="-119.5" font-family="Helvetica,sans-Serif" font-size="10.00">pybind11/stl.h</text>
</a>
</g>
</g>
<!-- Node2&#45;&gt;Node12 -->
<g id="edge12" class="edge">
<title>Node2&#45;&gt;Node12</title>
<path fill="none" stroke="midnightblue" d="M417.17,-168.32C434.89,-159.62 462.4,-146.12 482.79,-136.11"/>
<polygon fill="midnightblue" stroke="midnightblue" points="484.44,-139.2 491.87,-131.65 481.35,-132.92 484.44,-139.2"/>
</g>
<!-- Node13 -->
<g id="node13" class="node">
<title>Node13</title>
<g id="a_node13"><a xlink:title=" ">
<polygon fill="white" stroke="#bfbfbf" points="566,-112.5 566,-131.5 667,-131.5 667,-112.5 566,-112.5"/>
<text text-anchor="middle" x="616.5" y="-119.5" font-family="Helvetica,sans-Serif" font-size="10.00">pybind11/stl_bind.h</text>
</a>
</g>
</g>
<!-- Node2&#45;&gt;Node13 -->
<g id="edge13" class="edge">
<title>Node2&#45;&gt;Node13</title>
<path fill="none" stroke="midnightblue" d="M433.88,-168.44C471.42,-159.1 531.63,-144.12 572.57,-133.93"/>
<polygon fill="midnightblue" stroke="midnightblue" points="573.42,-137.33 582.28,-131.52 571.73,-130.53 573.42,-137.33"/>
</g>
<!-- Node4 -->
<g id="node4" class="node">
<title>Node4</title>
<g id="a_node4"><a xlink:href="logging_8h.html" target="_top" xlink:title=" ">
<polygon fill="white" stroke="black" points="102.5,-56.5 102.5,-75.5 158.5,-75.5 158.5,-56.5 102.5,-56.5"/>
<text text-anchor="middle" x="130.5" y="-63.5" font-family="Helvetica,sans-Serif" font-size="10.00">logging.h</text>
</a>
</g>
</g>
<!-- Node3&#45;&gt;Node4 -->
<g id="edge3" class="edge">
<title>Node3&#45;&gt;Node4</title>
<path fill="none" stroke="midnightblue" d="M157.22,-112.08C152.79,-104.61 146.34,-93.72 140.88,-84.52"/>
<polygon fill="midnightblue" stroke="midnightblue" points="143.79,-82.57 135.69,-75.75 137.77,-86.14 143.79,-82.57"/>
</g>
<!-- Node7 -->
<g id="node7" class="node">
<title>Node7</title>
<g id="a_node7"><a xlink:href="util_8h.html" target="_top" xlink:title=" ">
<polygon fill="white" stroke="black" points="178.5,-56.5 178.5,-75.5 216.5,-75.5 216.5,-56.5 178.5,-56.5"/>
<text text-anchor="middle" x="197.5" y="-63.5" font-family="Helvetica,sans-Serif" font-size="10.00">util.h</text>
</a>
</g>
</g>
<!-- Node3&#45;&gt;Node7 -->
<g id="edge6" class="edge">
<title>Node3&#45;&gt;Node7</title>
<path fill="none" stroke="midnightblue" d="M168.28,-112.08C173.17,-104.53 180.33,-93.49 186.33,-84.23"/>
<polygon fill="midnightblue" stroke="midnightblue" points="189.33,-86.05 191.83,-75.75 183.45,-82.24 189.33,-86.05"/>
</g>
<!-- Node5 -->
<g id="node5" class="node">
<title>Node5</title>
<g id="a_node5"><a xlink:title=" ">
<polygon fill="white" stroke="#bfbfbf" points="103.5,-0.5 103.5,-19.5 157.5,-19.5 157.5,-0.5 103.5,-0.5"/>
<text text-anchor="middle" x="130.5" y="-7.5" font-family="Helvetica,sans-Serif" font-size="10.00">iostream</text>
</a>
</g>
</g>
<!-- Node4&#45;&gt;Node5 -->
<g id="edge4" class="edge">
<title>Node4&#45;&gt;Node5</title>
<path fill="none" stroke="midnightblue" d="M130.5,-56.08C130.5,-49.01 130.5,-38.86 130.5,-29.99"/>
<polygon fill="midnightblue" stroke="midnightblue" points="134,-29.75 130.5,-19.75 127,-29.75 134,-29.75"/>
</g>
<!-- Node6 -->
<g id="node6" class="node">
<title>Node6</title>
<g id="a_node6"><a xlink:title=" ">
<polygon fill="white" stroke="#bfbfbf" points="0,-0.5 0,-19.5 85,-19.5 85,-0.5 0,-0.5"/>
<text text-anchor="middle" x="42.5" y="-7.5" font-family="Helvetica,sans-Serif" font-size="10.00">source_location</text>
</a>
</g>
</g>
<!-- Node4&#45;&gt;Node6 -->
<g id="edge5" class="edge">
<title>Node4&#45;&gt;Node6</title>
<path fill="none" stroke="midnightblue" d="M116.36,-56.32C102.63,-47.9 81.56,-34.97 65.44,-25.07"/>
<polygon fill="midnightblue" stroke="midnightblue" points="66.96,-21.9 56.6,-19.65 63.3,-27.87 66.96,-21.9"/>
</g>
<!-- Node7&#45;&gt;Node5 -->
<g id="edge8" class="edge">
<title>Node7&#45;&gt;Node5</title>
<path fill="none" stroke="midnightblue" d="M186.74,-56.32C176.73,-48.26 161.61,-36.08 149.57,-26.37"/>
<polygon fill="midnightblue" stroke="midnightblue" points="151.44,-23.38 141.46,-19.83 147.05,-28.83 151.44,-23.38"/>
</g>
<!-- Node8 -->
<g id="node8" class="node">
<title>Node8</title>
<g id="a_node8"><a xlink:title=" ">
<polygon fill="white" stroke="#bfbfbf" points="176,-0.5 176,-19.5 225,-19.5 225,-0.5 176,-0.5"/>
<text text-anchor="middle" x="200.5" y="-7.5" font-family="Helvetica,sans-Serif" font-size="10.00">fstream</text>
</a>
</g>
</g>
<!-- Node7&#45;&gt;Node8 -->
<g id="edge7" class="edge">
<title>Node7&#45;&gt;Node8</title>
<path fill="none" stroke="midnightblue" d="M198,-56.08C198.39,-49.01 198.95,-38.86 199.45,-29.99"/>
<polygon fill="midnightblue" stroke="midnightblue" points="202.95,-29.93 200.01,-19.75 195.96,-29.54 202.95,-29.93"/>
</g>
<!-- Node9 -->
<g id="node9" class="node">
<title>Node9</title>
<g id="a_node9"><a xlink:title=" ">
<polygon fill="white" stroke="#bfbfbf" points="243,-0.5 243,-19.5 284,-19.5 284,-0.5 243,-0.5"/>
<text text-anchor="middle" x="263.5" y="-7.5" font-family="Helvetica,sans-Serif" font-size="10.00">string</text>
</a>
</g>
</g>
<!-- Node7&#45;&gt;Node9 -->
<g id="edge9" class="edge">
<title>Node7&#45;&gt;Node9</title>
<path fill="none" stroke="midnightblue" d="M208.1,-56.32C217.96,-48.26 232.85,-36.08 244.72,-26.37"/>
<polygon fill="midnightblue" stroke="midnightblue" points="247.18,-28.88 252.7,-19.83 242.75,-23.46 247.18,-28.88"/>
</g>
</g>
</svg>
