<?xml version="1.0" encoding="UTF-8" standalone="no"?>
<!DOCTYPE svg PUBLIC "-//W3C//DTD SVG 1.1//EN"
 "http://www.w3.org/Graphics/SVG/1.1/DTD/svg11.dtd">
<!-- Generated by graphviz version 2.47.3 (20210619.1520)
 -->
<!-- Title: helper::logging::logLevelToString Pages: 1 -->
<svg width="949pt" height="704pt"
 viewBox="0.00 0.00 949.00 704.37" xmlns="http://www.w3.org/2000/svg" xmlns:xlink="http://www.w3.org/1999/xlink">
<g id="graph0" class="graph" transform="scale(1 1) rotate(0) translate(4 700.37)">
<title>helper::logging::logLevelToString</title>
<polygon fill="white" stroke="transparent" points="-4,4 -4,-700.37 945,-700.37 945,4 -4,4"/>
<!-- Node1 -->
<g id="node1" class="node">
<title>Node1</title>
<g id="a_node1"><a xlink:title="Converts the enum LogLevel into string.">
<polygon fill="#bfbfbf" stroke="black" points="821,-518.72 821,-548.72 941,-548.72 941,-518.72 821,-518.72"/>
<text text-anchor="start" x="829" y="-536.72" font-family="Helvetica,sans-Serif" font-size="10.00">helper::logging::logLevel</text>
<text text-anchor="middle" x="881" y="-525.72" font-family="Helvetica,sans-Serif" font-size="10.00">ToString</text>
</a>
</g>
</g>
<!-- Node2 -->
<g id="node2" class="node">
<title>Node2</title>
<g id="a_node2"><a xlink:href="namespacehelper_1_1logging.html#aadee8ee5d31250ae8288888fa86814a3" target="_top" xlink:title="Prints a log message to the log.">
<polygon fill="white" stroke="black" points="665,-524.22 665,-543.22 785,-543.22 785,-524.22 665,-524.22"/>
<text text-anchor="middle" x="725" y="-531.22" font-family="Helvetica,sans-Serif" font-size="10.00">helper::logging::printLog</text>
</a>
</g>
</g>
<!-- Node1&#45;&gt;Node2 -->
<g id="edge1" class="edge">
<title>Node1&#45;&gt;Node2</title>
<path fill="none" stroke="midnightblue" d="M810.63,-533.72C802.14,-533.72 793.52,-533.72 785.2,-533.72"/>
<polygon fill="midnightblue" stroke="midnightblue" points="810.9,-537.22 820.9,-533.72 810.9,-530.22 810.9,-537.22"/>
</g>
<!-- Node3 -->
<g id="node3" class="node">
<title>Node3</title>
<g id="a_node3"><a xlink:href="namespacehelper_1_1logging.html#a182d159db05f7638d388b4ee9740af04" target="_top" xlink:title="Writes an error message to the log.">
<polygon fill="white" stroke="black" points="496.5,-600.22 496.5,-619.22 621.5,-619.22 621.5,-600.22 496.5,-600.22"/>
<text text-anchor="middle" x="559" y="-607.22" font-family="Helvetica,sans-Serif" font-size="10.00">helper::logging::printError</text>
</a>
</g>
</g>
<!-- Node2&#45;&gt;Node3 -->
<g id="edge2" class="edge">
<title>Node2&#45;&gt;Node3</title>
<path fill="none" stroke="midnightblue" d="M694.09,-547.58C661.19,-562.82 609.22,-586.91 580.6,-600.17"/>
<polygon fill="midnightblue" stroke="midnightblue" points="695.63,-550.72 703.23,-543.34 692.68,-544.37 695.63,-550.72"/>
</g>
<!-- Node6 -->
<g id="node6" class="node">
<title>Node6</title>
<g id="a_node6"><a xlink:href="namespacehelper_1_1logging.html#a0e1881bbc937b702aa298c5f5141b79b" target="_top" xlink:title="Writes a trace message to the log.">
<polygon fill="white" stroke="black" points="495,-410.22 495,-429.22 623,-429.22 623,-410.22 495,-410.22"/>
<text text-anchor="middle" x="559" y="-417.22" font-family="Helvetica,sans-Serif" font-size="10.00">helper::logging::printTrace</text>
</a>
</g>
</g>
<!-- Node2&#45;&gt;Node6 -->
<g id="edge5" class="edge">
<title>Node2&#45;&gt;Node6</title>
<path fill="none" stroke="midnightblue" d="M701.89,-518.35C667.59,-494.51 602.54,-449.29 574.01,-429.46"/>
<polygon fill="midnightblue" stroke="midnightblue" points="700.09,-521.36 710.3,-524.2 704.09,-515.61 700.09,-521.36"/>
</g>
<!-- Node24 -->
<g id="node24" class="node">
<title>Node24</title>
<g id="a_node24"><a xlink:href="namespacehelper_1_1logging.html#a9181c24054b42b4c6b18afff28b762bb" target="_top" xlink:title="Writes a warning message to the log.">
<polygon fill="white" stroke="black" points="489,-524.22 489,-543.22 629,-543.22 629,-524.22 489,-524.22"/>
<text text-anchor="middle" x="559" y="-531.22" font-family="Helvetica,sans-Serif" font-size="10.00">helper::logging::printWarning</text>
</a>
</g>
</g>
<!-- Node2&#45;&gt;Node24 -->
<g id="edge46" class="edge">
<title>Node2&#45;&gt;Node24</title>
<path fill="none" stroke="midnightblue" d="M654.63,-533.72C646.2,-533.72 637.59,-533.72 629.16,-533.72"/>
<polygon fill="midnightblue" stroke="midnightblue" points="654.79,-537.22 664.79,-533.72 654.79,-530.22 654.79,-537.22"/>
</g>
<!-- Node4 -->
<g id="node4" class="node">
<title>Node4</title>
<g id="a_node4"><a xlink:href="libhelper__binding_8h.html#a2c5a40794af354dc9e9ec0a59b15a093" target="_top" xlink:title="Helper function which is called inside the PYBIND11_MODULE macro and adds Python bindings to the C++ ...">
<polygon fill="white" stroke="black" points="342.5,-638.22 342.5,-657.22 424.5,-657.22 424.5,-638.22 342.5,-638.22"/>
<text text-anchor="middle" x="383.5" y="-645.22" font-family="Helvetica,sans-Serif" font-size="10.00">init_pybtfhelper</text>
</a>
</g>
</g>
<!-- Node3&#45;&gt;Node4 -->
<g id="edge3" class="edge">
<title>Node3&#45;&gt;Node4</title>
<path fill="none" stroke="midnightblue" d="M504.26,-621.49C478.57,-627.11 448.36,-633.73 424.7,-638.91"/>
<polygon fill="midnightblue" stroke="midnightblue" points="505.2,-624.87 514.22,-619.31 503.7,-618.03 505.2,-624.87"/>
</g>
<!-- Node5 -->
<g id="node5" class="node">
<title>Node5</title>
<g id="a_node5"><a xlink:href="libbtf__binding_8cpp.html#adfae743278a01284c171e56ddabf18bd" target="_top" xlink:title="Macro that creates a function that will be called when the module pybtf is imported within python....">
<polygon fill="white" stroke="black" points="0,-372.22 0,-391.22 110,-391.22 110,-372.22 0,-372.22"/>
<text text-anchor="middle" x="55" y="-379.22" font-family="Helvetica,sans-Serif" font-size="10.00">PYBIND11_MODULE</text>
</a>
</g>
</g>
<!-- Node4&#45;&gt;Node5 -->
<g id="edge4" class="edge">
<title>Node4&#45;&gt;Node5</title>
<path fill="none" stroke="midnightblue" d="M355.27,-661.66C307.76,-683.82 208.8,-720.08 146,-673.72 97.77,-638.12 64.55,-437.8 57.43,-391.34"/>
<polygon fill="midnightblue" stroke="midnightblue" points="356.83,-664.8 364.33,-657.32 353.8,-658.49 356.83,-664.8"/>
</g>
<!-- Node6&#45;&gt;Node4 -->
<g id="edge10" class="edge">
<title>Node6&#45;&gt;Node4</title>
<path fill="none" stroke="midnightblue" d="M542.65,-437.29C527.31,-455.58 503.94,-485.57 489,-514.72 465.73,-560.12 488.75,-587.32 453,-623.72 445.32,-631.54 434.95,-636.82 424.6,-640.38"/>
<polygon fill="midnightblue" stroke="midnightblue" points="545.63,-439.19 549.45,-429.31 540.3,-434.65 545.63,-439.19"/>
</g>
<!-- Node7 -->
<g id="node7" class="node">
<title>Node7</title>
<g id="a_node7"><a xlink:href="classbtf_1_1_btf_file.html#a9454b5166914314b2af545df306f4dab" target="_top" xlink:title="Emits a core event. See overloaded function for more information.">
<polygon fill="white" stroke="black" points="328.5,-208.22 328.5,-227.22 438.5,-227.22 438.5,-208.22 328.5,-208.22"/>
<text text-anchor="middle" x="383.5" y="-215.22" font-family="Helvetica,sans-Serif" font-size="10.00">btf::BtfFile::coreEvent</text>
</a>
</g>
</g>
<!-- Node6&#45;&gt;Node7 -->
<g id="edge6" class="edge">
<title>Node6&#45;&gt;Node7</title>
<path fill="none" stroke="midnightblue" d="M552.36,-400.31C540.44,-362.81 509.09,-280.27 453,-236.72 448.03,-232.86 442.32,-229.78 436.36,-227.33"/>
<polygon fill="midnightblue" stroke="midnightblue" points="549.05,-401.47 555.32,-410.01 555.75,-399.43 549.05,-401.47"/>
</g>
<!-- Node9 -->
<g id="node9" class="node">
<title>Node9</title>
<g id="a_node9"><a xlink:href="classbtf_1_1_btf_file.html#a53a53570d80ddcb7d3e762fe219fd019" target="_top" xlink:title="Emits an OS event (source is a core or a process depending on the value of the core_is_source paramet...">
<polygon fill="white" stroke="black" points="333,-170.22 333,-189.22 434,-189.22 434,-170.22 333,-170.22"/>
<text text-anchor="middle" x="383.5" y="-177.22" font-family="Helvetica,sans-Serif" font-size="10.00">btf::BtfFile::osEvent</text>
</a>
</g>
</g>
<!-- Node6&#45;&gt;Node9 -->
<g id="edge11" class="edge">
<title>Node6&#45;&gt;Node9</title>
<path fill="none" stroke="midnightblue" d="M554.35,-399.95C545.32,-356.69 517.78,-253.16 453,-198.72 447.52,-194.11 441.01,-190.62 434.21,-187.97"/>
<polygon fill="midnightblue" stroke="midnightblue" points="550.97,-400.89 556.35,-410.02 557.84,-399.53 550.97,-400.89"/>
</g>
<!-- Node10 -->
<g id="node10" class="node">
<title>Node10</title>
<g id="a_node10"><a xlink:href="classbtf_1_1_btf_file.html#a3f6b54fa6c96e04ce016ab81d1f80901" target="_top" xlink:title="Emits a task event (except migration). See overloaded function for more information.">
<polygon fill="white" stroke="black" points="321,-334.22 321,-353.22 446,-353.22 446,-334.22 321,-334.22"/>
<text text-anchor="middle" x="383.5" y="-341.22" font-family="Helvetica,sans-Serif" font-size="10.00">btf::BtfFile::processEvent</text>
</a>
</g>
</g>
<!-- Node6&#45;&gt;Node10 -->
<g id="edge14" class="edge">
<title>Node6&#45;&gt;Node10</title>
<path fill="none" stroke="midnightblue" d="M534.11,-404.71C513.31,-392.15 482.02,-374.44 453,-362.72 444.07,-359.11 434.23,-355.94 424.85,-353.27"/>
<polygon fill="midnightblue" stroke="midnightblue" points="532.53,-407.85 542.88,-410.08 536.18,-401.88 532.53,-407.85"/>
</g>
<!-- Node12 -->
<g id="node12" class="node">
<title>Node12</title>
<g id="a_node12"><a xlink:href="classbtf_1_1_btf_file.html#a3a7b48f23d0c26343e8b4a2a452319b6" target="_top" xlink:title="Emits a runnable event (source is a core or process depending on the value of the core_is_source para...">
<polygon fill="white" stroke="black" points="319.5,-119.22 319.5,-138.22 447.5,-138.22 447.5,-119.22 319.5,-119.22"/>
<text text-anchor="middle" x="383.5" y="-126.22" font-family="Helvetica,sans-Serif" font-size="10.00">btf::BtfFile::runnableEvent</text>
</a>
</g>
</g>
<!-- Node6&#45;&gt;Node12 -->
<g id="edge18" class="edge">
<title>Node6&#45;&gt;Node12</title>
<path fill="none" stroke="midnightblue" d="M555.06,-400.04C547.05,-352.89 520.74,-232.07 453,-160.72 443.33,-150.53 429.78,-143.27 417.28,-138.27"/>
<polygon fill="midnightblue" stroke="midnightblue" points="551.64,-400.82 556.68,-410.14 558.55,-399.71 551.64,-400.82"/>
</g>
<!-- Node15 -->
<g id="node15" class="node">
<title>Node15</title>
<g id="a_node15"><a xlink:href="classbtf_1_1_btf_file.html#ae1ebfe73fc7c7d04defcb27446a2c4b6" target="_top" xlink:title="Emits a scheduler event. See overloaded function for more information.">
<polygon fill="white" stroke="black" points="317,-448.22 317,-467.22 450,-467.22 450,-448.22 317,-448.22"/>
<text text-anchor="middle" x="383.5" y="-455.22" font-family="Helvetica,sans-Serif" font-size="10.00">btf::BtfFile::schedulerEvent</text>
</a>
</g>
</g>
<!-- Node6&#45;&gt;Node15 -->
<g id="edge23" class="edge">
<title>Node6&#45;&gt;Node15</title>
<path fill="none" stroke="midnightblue" d="M504.34,-431.47C479.81,-436.84 451.12,-443.13 427.97,-448.2"/>
<polygon fill="midnightblue" stroke="midnightblue" points="505.2,-434.87 514.22,-429.31 503.7,-428.03 505.2,-434.87"/>
</g>
<!-- Node16 -->
<g id="node16" class="node">
<title>Node16</title>
<g id="a_node16"><a xlink:href="classbtf_1_1_btf_file.html#ad3520a015342189e2b8969547dedcb43" target="_top" xlink:title="Emits a semaphore event. See overloaded function for more information.">
<polygon fill="white" stroke="black" points="314,-410.22 314,-429.22 453,-429.22 453,-410.22 314,-410.22"/>
<text text-anchor="middle" x="383.5" y="-417.22" font-family="Helvetica,sans-Serif" font-size="10.00">btf::BtfFile::semaphoreEvent</text>
</a>
</g>
</g>
<!-- Node6&#45;&gt;Node16 -->
<g id="edge26" class="edge">
<title>Node6&#45;&gt;Node16</title>
<path fill="none" stroke="midnightblue" d="M484.56,-419.72C474.15,-419.72 463.47,-419.72 453.15,-419.72"/>
<polygon fill="midnightblue" stroke="midnightblue" points="484.87,-423.22 494.87,-419.72 484.87,-416.22 484.87,-423.22"/>
</g>
<!-- Node17 -->
<g id="node17" class="node">
<title>Node17</title>
<g id="a_node17"><a xlink:href="classbtf_1_1_btf_file.html#abd1356570158b60e3bf92fc006adcda8" target="_top" xlink:title="Emits a signal event (source is a core or process depending on the value of the core_is_source parame...">
<polygon fill="white" stroke="black" points="325.5,-372.22 325.5,-391.22 441.5,-391.22 441.5,-372.22 325.5,-372.22"/>
<text text-anchor="middle" x="383.5" y="-379.22" font-family="Helvetica,sans-Serif" font-size="10.00">btf::BtfFile::signalEvent</text>
</a>
</g>
</g>
<!-- Node6&#45;&gt;Node17 -->
<g id="edge29" class="edge">
<title>Node6&#45;&gt;Node17</title>
<path fill="none" stroke="midnightblue" d="M504.34,-407.97C479.81,-402.59 451.12,-396.31 427.97,-391.24"/>
<polygon fill="midnightblue" stroke="midnightblue" points="503.7,-411.41 514.22,-410.13 505.2,-404.57 503.7,-411.41"/>
</g>
<!-- Node18 -->
<g id="node18" class="node">
<title>Node18</title>
<g id="a_node18"><a xlink:href="classbtf_1_1_btf_file.html#a7e534fb0663307cb4fbdacfcfda78308" target="_top" xlink:title="Emits a process creation event. See overloaded function for more information.">
<polygon fill="white" stroke="black" points="155.5,-633.72 155.5,-663.72 268.5,-663.72 268.5,-633.72 155.5,-633.72"/>
<text text-anchor="start" x="163.5" y="-651.72" font-family="Helvetica,sans-Serif" font-size="10.00">btf::BtfFile::simulation</text>
<text text-anchor="middle" x="212" y="-640.72" font-family="Helvetica,sans-Serif" font-size="10.00">EventProcessCreation</text>
</a>
</g>
</g>
<!-- Node6&#45;&gt;Node18 -->
<g id="edge32" class="edge">
<title>Node6&#45;&gt;Node18</title>
<path fill="none" stroke="midnightblue" d="M544.68,-437.25C530.49,-456.11 507.55,-487.12 489,-514.72 472.07,-539.9 476.95,-554.09 453,-572.72 424.06,-595.22 330,-620.87 268.58,-635.87"/>
<polygon fill="midnightblue" stroke="midnightblue" points="547.48,-439.35 550.71,-429.26 541.89,-435.13 547.48,-439.35"/>
</g>
<!-- Node19 -->
<g id="node19" class="node">
<title>Node19</title>
<g id="a_node19"><a xlink:href="classbtf_1_1_btf_file.html#a8e8ea0a0f02b56b5a5622641052a5e98" target="_top" xlink:title="Emits a process name event (e.g. name change or initial name). See overloaded function for more infor...">
<polygon fill="white" stroke="black" points="156.5,-584.72 156.5,-614.72 267.5,-614.72 267.5,-584.72 156.5,-584.72"/>
<text text-anchor="start" x="164.5" y="-602.72" font-family="Helvetica,sans-Serif" font-size="10.00">btf::BtfFile::simulation</text>
<text text-anchor="middle" x="212" y="-591.72" font-family="Helvetica,sans-Serif" font-size="10.00">EventProcessName</text>
</a>
</g>
</g>
<!-- Node6&#45;&gt;Node19 -->
<g id="edge34" class="edge">
<title>Node6&#45;&gt;Node19</title>
<path fill="none" stroke="midnightblue" d="M546.15,-437.98C528.77,-463.3 493.95,-508.76 453,-533.72 395.44,-568.81 318.91,-585.64 267.9,-593.44"/>
<polygon fill="midnightblue" stroke="midnightblue" points="549.28,-439.6 551.94,-429.35 543.46,-435.71 549.28,-439.6"/>
</g>
<!-- Node20 -->
<g id="node20" class="node">
<title>Node20</title>
<g id="a_node20"><a xlink:href="classbtf_1_1_btf_file.html#a4b3c16fb33a93dcc75746a0b828eb040" target="_top" xlink:title="Emits a thread creation event. See overloaded function for more information.">
<polygon fill="white" stroke="black" points="156.5,-535.72 156.5,-565.72 267.5,-565.72 267.5,-535.72 156.5,-535.72"/>
<text text-anchor="start" x="164.5" y="-553.72" font-family="Helvetica,sans-Serif" font-size="10.00">btf::BtfFile::simulation</text>
<text text-anchor="middle" x="212" y="-542.72" font-family="Helvetica,sans-Serif" font-size="10.00">EventThreadCreation</text>
</a>
</g>
</g>
<!-- Node6&#45;&gt;Node20 -->
<g id="edge36" class="edge">
<title>Node6&#45;&gt;Node20</title>
<path fill="none" stroke="midnightblue" d="M541.77,-436.4C522.43,-455.26 488.26,-485.45 453,-501.72 393.15,-529.33 317.79,-541.47 267.64,-546.75"/>
<polygon fill="midnightblue" stroke="midnightblue" points="544.27,-438.85 548.89,-429.31 539.33,-433.89 544.27,-438.85"/>
</g>
<!-- Node21 -->
<g id="node21" class="node">
<title>Node21</title>
<g id="a_node21"><a xlink:href="classbtf_1_1_btf_file.html#ae21ef03719f3af5a72d682bf9ae5d8d9" target="_top" xlink:title="Emits a thread name event (e.g. name change or initial name). See overloaded function for more inform...">
<polygon fill="white" stroke="black" points="156.5,-486.72 156.5,-516.72 267.5,-516.72 267.5,-486.72 156.5,-486.72"/>
<text text-anchor="start" x="164.5" y="-504.72" font-family="Helvetica,sans-Serif" font-size="10.00">btf::BtfFile::simulation</text>
<text text-anchor="middle" x="212" y="-493.72" font-family="Helvetica,sans-Serif" font-size="10.00">EventThreadName</text>
</a>
</g>
</g>
<!-- Node6&#45;&gt;Node21 -->
<g id="edge38" class="edge">
<title>Node6&#45;&gt;Node21</title>
<path fill="none" stroke="midnightblue" d="M535.95,-435.06C515.46,-448.47 483.58,-467.24 453,-476.72 391.38,-495.82 317.04,-500.99 267.59,-502.07"/>
<polygon fill="midnightblue" stroke="midnightblue" points="538.15,-437.79 544.52,-429.32 534.26,-431.98 538.15,-437.79"/>
</g>
<!-- Node22 -->
<g id="node22" class="node">
<title>Node22</title>
<g id="a_node22"><a xlink:href="classbtf_1_1_btf_file.html#aad9571cc39c02a1e460e8c913598abb9" target="_top" xlink:title="Emits a stimulus event. See overloaded function for more information.">
<polygon fill="white" stroke="black" points="319.5,-81.22 319.5,-100.22 447.5,-100.22 447.5,-81.22 319.5,-81.22"/>
<text text-anchor="middle" x="383.5" y="-88.22" font-family="Helvetica,sans-Serif" font-size="10.00">btf::BtfFile::stimulusEvent</text>
</a>
</g>
</g>
<!-- Node6&#45;&gt;Node22 -->
<g id="edge40" class="edge">
<title>Node6&#45;&gt;Node22</title>
<path fill="none" stroke="midnightblue" d="M557.39,-400.19C554.62,-345.79 539.15,-191.18 453,-109.72 448.87,-105.82 444.02,-102.71 438.83,-100.23"/>
<polygon fill="midnightblue" stroke="midnightblue" points="553.9,-400.37 557.81,-410.22 560.89,-400.08 553.9,-400.37"/>
</g>
<!-- Node23 -->
<g id="node23" class="node">
<title>Node23</title>
<g id="a_node23"><a xlink:href="classbtf_1_1_btf_file.html#a66ddf92cf6d3b6f48ca5876d0bdfea20" target="_top" xlink:title="Emits a task migration event. See overloaded function for more information.">
<polygon fill="white" stroke="black" points="321,-246.72 321,-276.72 446,-276.72 446,-246.72 321,-246.72"/>
<text text-anchor="start" x="329" y="-264.72" font-family="Helvetica,sans-Serif" font-size="10.00">btf::BtfFile::taskMigration</text>
<text text-anchor="middle" x="383.5" y="-253.72" font-family="Helvetica,sans-Serif" font-size="10.00">Event</text>
</a>
</g>
</g>
<!-- Node6&#45;&gt;Node23 -->
<g id="edge43" class="edge">
<title>Node6&#45;&gt;Node23</title>
<path fill="none" stroke="midnightblue" d="M547.09,-401.55C530.02,-374.44 494.6,-323.23 453,-291.72 445.34,-285.92 436.39,-280.96 427.53,-276.85"/>
<polygon fill="midnightblue" stroke="midnightblue" points="544.11,-403.39 552.34,-410.06 550.07,-399.71 544.11,-403.39"/>
</g>
<!-- Node7&#45;&gt;Node5 -->
<g id="edge9" class="edge">
<title>Node7&#45;&gt;Node5</title>
<path fill="none" stroke="midnightblue" d="M333.2,-206.28C282.46,-197.35 203.01,-191.49 146,-225.72 89.44,-259.68 64.97,-343.63 58.12,-372.1"/>
<polygon fill="midnightblue" stroke="midnightblue" points="332.78,-209.77 343.26,-208.16 334.07,-202.88 332.78,-209.77"/>
</g>
<!-- Node8 -->
<g id="node8" class="node">
<title>Node8</title>
<g id="a_node8"><a xlink:href="classbtf_1_1_btf_file.html#ae1e0e725a1569e510b767acc6ce2d648" target="_top" xlink:title="Appends the data from a BTF file. Currently only import into an empty BTF file is supported.">
<polygon fill="white" stroke="black" points="146,-258.22 146,-277.22 278,-277.22 278,-258.22 146,-258.22"/>
<text text-anchor="middle" x="212" y="-265.22" font-family="Helvetica,sans-Serif" font-size="10.00">btf::BtfFile::importFromFile</text>
</a>
</g>
</g>
<!-- Node7&#45;&gt;Node8 -->
<g id="edge7" class="edge">
<title>Node7&#45;&gt;Node8</title>
<path fill="none" stroke="midnightblue" d="M337.49,-230.01C329.65,-232.21 321.58,-234.5 314,-236.72 290.23,-243.66 263.44,-251.9 243.43,-258.14"/>
<polygon fill="midnightblue" stroke="midnightblue" points="338.55,-233.35 347.25,-227.3 336.68,-226.61 338.55,-233.35"/>
</g>
<!-- Node8&#45;&gt;Node5 -->
<g id="edge8" class="edge">
<title>Node8&#45;&gt;Node5</title>
<path fill="none" stroke="midnightblue" d="M166.84,-281.07C159.62,-284.08 152.41,-287.62 146,-291.72 110.27,-314.6 77.51,-353.78 63.36,-371.95"/>
<polygon fill="midnightblue" stroke="midnightblue" points="168.55,-284.16 176.63,-277.3 166.04,-277.63 168.55,-284.16"/>
</g>
<!-- Node9&#45;&gt;Node5 -->
<g id="edge13" class="edge">
<title>Node9&#45;&gt;Node5</title>
<path fill="none" stroke="midnightblue" d="M326.88,-168.7C275.48,-161.72 199.24,-159.77 146,-195.72 82.37,-238.67 62.23,-339.79 57.33,-371.81"/>
<polygon fill="midnightblue" stroke="midnightblue" points="326.41,-172.17 336.82,-170.16 327.43,-165.25 326.41,-172.17"/>
</g>
<!-- Node9&#45;&gt;Node8 -->
<g id="edge12" class="edge">
<title>Node9&#45;&gt;Node8</title>
<path fill="none" stroke="midnightblue" d="M329.87,-192.39C324.42,-194.27 319.04,-196.38 314,-198.72 278.76,-215.09 242.29,-243.32 224.36,-258.08"/>
<polygon fill="midnightblue" stroke="midnightblue" points="331.24,-195.63 339.7,-189.25 329.11,-188.96 331.24,-195.63"/>
</g>
<!-- Node10&#45;&gt;Node5 -->
<g id="edge17" class="edge">
<title>Node10&#45;&gt;Node5</title>
<path fill="none" stroke="midnightblue" d="M341.08,-331.6C293.14,-319.58 212.3,-305.49 146,-324.72 114.03,-333.99 82.52,-358.4 66.63,-372.08"/>
<polygon fill="midnightblue" stroke="midnightblue" points="340.23,-335 350.79,-334.13 341.99,-328.22 340.23,-335"/>
</g>
<!-- Node10&#45;&gt;Node8 -->
<g id="edge15" class="edge">
<title>Node10&#45;&gt;Node8</title>
<path fill="none" stroke="midnightblue" d="M339,-330.87C330.49,-327.7 321.8,-323.97 314,-319.72 296.2,-310.02 295.72,-301.57 278,-291.72 267.7,-285.99 255.76,-281.13 244.94,-277.31"/>
<polygon fill="midnightblue" stroke="midnightblue" points="337.88,-334.18 348.47,-334.21 340.21,-327.58 337.88,-334.18"/>
</g>
<!-- Node11 -->
<g id="node11" class="node">
<title>Node11</title>
<g id="a_node11"><a xlink:href="classbtf_1_1_btf_file.html#a67251691e4a66475a4a5a1206687247d" target="_top" xlink:title="Emits an OS event (source is a core or a process depending on the value of the core_is_source paramet...">
<polygon fill="white" stroke="black" points="161.5,-334.22 161.5,-353.22 262.5,-353.22 262.5,-334.22 161.5,-334.22"/>
<text text-anchor="middle" x="212" y="-341.22" font-family="Helvetica,sans-Serif" font-size="10.00">btf::BtfFile::osEvent</text>
</a>
</g>
</g>
<!-- Node10&#45;&gt;Node11 -->
<g id="edge16" class="edge">
<title>Node10&#45;&gt;Node11</title>
<path fill="none" stroke="midnightblue" d="M310.38,-343.72C294.31,-343.72 277.62,-343.72 262.69,-343.72"/>
<polygon fill="midnightblue" stroke="midnightblue" points="310.83,-347.22 320.83,-343.72 310.83,-340.22 310.83,-347.22"/>
</g>
<!-- Node12&#45;&gt;Node5 -->
<g id="edge21" class="edge">
<title>Node12&#45;&gt;Node5</title>
<path fill="none" stroke="midnightblue" d="M309.18,-120.59C258.38,-118.94 191.88,-125.16 146,-160.72 74.61,-216.04 59.54,-337.4 56.64,-372.21"/>
<polygon fill="midnightblue" stroke="midnightblue" points="309.3,-124.1 319.44,-121.04 309.61,-117.11 309.3,-124.1"/>
</g>
<!-- Node12&#45;&gt;Node8 -->
<g id="edge19" class="edge">
<title>Node12&#45;&gt;Node8</title>
<path fill="none" stroke="midnightblue" d="M346.79,-142.33C335.79,-147.31 323.96,-153.53 314,-160.72 273.21,-190.19 235.39,-237.67 220.12,-257.98"/>
<polygon fill="midnightblue" stroke="midnightblue" points="348.39,-145.45 356.18,-138.27 345.62,-139.03 348.39,-145.45"/>
</g>
<!-- Node13 -->
<g id="node13" class="node">
<title>Node13</title>
<g id="a_node13"><a xlink:href="classbtf_1_1_btf_file.html#a64dd3a4762bd03767ebbc380810f1bcb" target="_top" xlink:title="Emits a process event (except task migration).">
<polygon fill="white" stroke="black" points="149.5,-30.22 149.5,-49.22 274.5,-49.22 274.5,-30.22 149.5,-30.22"/>
<text text-anchor="middle" x="212" y="-37.22" font-family="Helvetica,sans-Serif" font-size="10.00">btf::BtfFile::processEvent</text>
</a>
</g>
</g>
<!-- Node12&#45;&gt;Node13 -->
<g id="edge20" class="edge">
<title>Node12&#45;&gt;Node13</title>
<path fill="none" stroke="midnightblue" d="M323.12,-115.15C319.93,-113.53 316.86,-111.73 314,-109.72 291.31,-93.75 300.58,-74.85 278,-58.72 272.55,-54.82 266.3,-51.72 259.88,-49.25"/>
<polygon fill="midnightblue" stroke="midnightblue" points="321.83,-118.4 332.39,-119.2 324.63,-111.98 321.83,-118.4"/>
</g>
<!-- Node14 -->
<g id="node14" class="node">
<title>Node14</title>
<g id="a_node14"><a xlink:href="classbtf_1_1_btf_file.html#a37ac4560542170c72a0e1aad2d8b4753" target="_top" xlink:title="Emits a runnable event (source is a core or process depending on the value of the core_is_source para...">
<polygon fill="white" stroke="black" points="148,-68.22 148,-87.22 276,-87.22 276,-68.22 148,-68.22"/>
<text text-anchor="middle" x="212" y="-75.22" font-family="Helvetica,sans-Serif" font-size="10.00">btf::BtfFile::runnableEvent</text>
</a>
</g>
</g>
<!-- Node12&#45;&gt;Node14 -->
<g id="edge22" class="edge">
<title>Node12&#45;&gt;Node14</title>
<path fill="none" stroke="midnightblue" d="M337.47,-116.48C329.63,-114.28 321.57,-111.97 314,-109.72 289.67,-102.49 262.22,-93.76 242.08,-87.24"/>
<polygon fill="midnightblue" stroke="midnightblue" points="336.66,-119.89 347.23,-119.2 338.54,-113.14 336.66,-119.89"/>
</g>
<!-- Node15&#45;&gt;Node5 -->
<g id="edge25" class="edge">
<title>Node15&#45;&gt;Node5</title>
<path fill="none" stroke="midnightblue" d="M306.91,-448.53C260.06,-441.87 198.93,-431.44 146,-416.72 121.77,-409.98 95.04,-399.12 77.05,-391.29"/>
<polygon fill="midnightblue" stroke="midnightblue" points="306.59,-452.02 316.98,-449.93 307.56,-445.08 306.59,-452.02"/>
</g>
<!-- Node15&#45;&gt;Node8 -->
<g id="edge24" class="edge">
<title>Node15&#45;&gt;Node8</title>
<path fill="none" stroke="midnightblue" d="M318.78,-442.74C317.1,-441.5 315.5,-440.17 314,-438.72 275.77,-401.82 307.05,-369.21 278,-324.72 264.87,-304.61 242.76,-287.37 228.03,-277.27"/>
<polygon fill="midnightblue" stroke="midnightblue" points="317.37,-445.98 327.75,-448.13 320.98,-439.98 317.37,-445.98"/>
</g>
<!-- Node16&#45;&gt;Node5 -->
<g id="edge28" class="edge">
<title>Node16&#45;&gt;Node5</title>
<path fill="none" stroke="midnightblue" d="M303.62,-412.77C257.58,-408.45 198.42,-402.45 146,-395.72 134.39,-394.23 121.98,-392.43 110.19,-390.63"/>
<polygon fill="midnightblue" stroke="midnightblue" points="303.55,-416.28 313.83,-413.72 304.19,-409.31 303.55,-416.28"/>
</g>
<!-- Node16&#45;&gt;Node8 -->
<g id="edge27" class="edge">
<title>Node16&#45;&gt;Node8</title>
<path fill="none" stroke="midnightblue" d="M320.46,-405.39C318.19,-403.97 316.02,-402.42 314,-400.72 285.4,-376.66 300.52,-354.55 278,-324.72 263.35,-305.31 241.21,-287.64 226.93,-277.28"/>
<polygon fill="midnightblue" stroke="midnightblue" points="319.16,-408.66 329.64,-410.18 322.4,-402.45 319.16,-408.66"/>
</g>
<!-- Node17&#45;&gt;Node5 -->
<g id="edge31" class="edge">
<title>Node17&#45;&gt;Node5</title>
<path fill="none" stroke="midnightblue" d="M315.01,-381.72C254.34,-381.72 166.38,-381.72 110.19,-381.72"/>
<polygon fill="midnightblue" stroke="midnightblue" points="315.25,-385.22 325.25,-381.72 315.25,-378.22 315.25,-385.22"/>
</g>
<!-- Node17&#45;&gt;Node8 -->
<g id="edge30" class="edge">
<title>Node17&#45;&gt;Node8</title>
<path fill="none" stroke="midnightblue" d="M325.53,-368.56C321.52,-366.84 317.63,-364.9 314,-362.72 294.06,-350.73 294.76,-340.85 278,-324.72 260.05,-307.44 238.05,-288.6 224.8,-277.49"/>
<polygon fill="midnightblue" stroke="midnightblue" points="324.45,-371.9 335.04,-372.19 326.95,-365.36 324.45,-371.9"/>
</g>
<!-- Node18&#45;&gt;Node5 -->
<g id="edge33" class="edge">
<title>Node18&#45;&gt;Node5</title>
<path fill="none" stroke="midnightblue" d="M149.34,-627.77C148.18,-626.8 147.06,-625.78 146,-624.72 76.62,-555.4 60.14,-427.93 56.77,-391.61"/>
<polygon fill="midnightblue" stroke="midnightblue" points="147.35,-630.65 157.54,-633.56 151.38,-624.93 147.35,-630.65"/>
</g>
<!-- Node19&#45;&gt;Node5 -->
<g id="edge35" class="edge">
<title>Node19&#45;&gt;Node5</title>
<path fill="none" stroke="midnightblue" d="M150.01,-579.08C148.62,-578.02 147.28,-576.9 146,-575.72 87.6,-521.85 63.95,-422.48 57.76,-391.32"/>
<polygon fill="midnightblue" stroke="midnightblue" points="148.18,-582.07 158.46,-584.63 152.02,-576.22 148.18,-582.07"/>
</g>
<!-- Node20&#45;&gt;Node5 -->
<g id="edge37" class="edge">
<title>Node20&#45;&gt;Node5</title>
<path fill="none" stroke="midnightblue" d="M150.93,-530.38C149.22,-529.22 147.57,-528 146,-526.72 98.48,-487.94 68.97,-417.07 59.41,-391.36"/>
<polygon fill="midnightblue" stroke="midnightblue" points="149.48,-533.59 159.87,-535.66 153.04,-527.56 149.48,-533.59"/>
</g>
<!-- Node21&#45;&gt;Node5 -->
<g id="edge39" class="edge">
<title>Node21&#45;&gt;Node5</title>
<path fill="none" stroke="midnightblue" d="M163,-481.94C157.1,-478.83 151.29,-475.4 146,-471.72 111.2,-447.45 77.97,-408.96 63.54,-391.23"/>
<polygon fill="midnightblue" stroke="midnightblue" points="161.79,-485.25 172.3,-486.58 164.91,-478.99 161.79,-485.25"/>
</g>
<!-- Node22&#45;&gt;Node5 -->
<g id="edge42" class="edge">
<title>Node22&#45;&gt;Node5</title>
<path fill="none" stroke="midnightblue" d="M365.17,-74.29C345.72,-57.09 312.37,-31.17 278,-20.72 221.87,-3.66 192.23,15.4 146,-20.72 87.72,-66.25 61.69,-319.19 56.85,-372.04"/>
<polygon fill="midnightblue" stroke="midnightblue" points="362.86,-76.92 372.61,-81.05 367.56,-71.74 362.86,-76.92"/>
</g>
<!-- Node22&#45;&gt;Node8 -->
<g id="edge41" class="edge">
<title>Node22&#45;&gt;Node8</title>
<path fill="none" stroke="midnightblue" d="M322.39,-104.46C319.45,-106.03 316.63,-107.78 314,-109.72 259.01,-150.34 226.27,-230.64 216.28,-258.18"/>
<polygon fill="midnightblue" stroke="midnightblue" points="323.89,-107.63 331.52,-100.28 320.97,-101.27 323.89,-107.63"/>
</g>
<!-- Node23&#45;&gt;Node5 -->
<g id="edge45" class="edge">
<title>Node23&#45;&gt;Node5</title>
<path fill="none" stroke="midnightblue" d="M329.81,-243.94C279.54,-230.27 203.21,-218.36 146,-248.72 95.02,-275.77 67.64,-346.03 59.03,-371.94"/>
<polygon fill="midnightblue" stroke="midnightblue" points="328.93,-247.33 339.51,-246.69 330.84,-240.59 328.93,-247.33"/>
</g>
<!-- Node23&#45;&gt;Node8 -->
<g id="edge44" class="edge">
<title>Node23&#45;&gt;Node8</title>
<path fill="none" stroke="midnightblue" d="M310.58,-264.26C299.78,-264.65 288.7,-265.04 278.05,-265.42"/>
<polygon fill="midnightblue" stroke="midnightblue" points="310.96,-267.75 320.83,-263.9 310.71,-260.76 310.96,-267.75"/>
</g>
<!-- Node24&#45;&gt;Node4 -->
<g id="edge48" class="edge">
<title>Node24&#45;&gt;Node4</title>
<path fill="none" stroke="midnightblue" d="M538.18,-549.64C524.27,-560.93 505.31,-576.53 489,-590.72 472.63,-604.97 471.62,-612.57 453,-623.72 443.05,-629.67 431.41,-634.45 420.57,-638.12"/>
<polygon fill="midnightblue" stroke="midnightblue" points="540.55,-552.23 546.13,-543.22 536.15,-546.78 540.55,-552.23"/>
</g>
<!-- Node24&#45;&gt;Node8 -->
<g id="edge47" class="edge">
<title>Node24&#45;&gt;Node8</title>
<path fill="none" stroke="midnightblue" d="M542.57,-516.19C527.17,-497.93 503.75,-467.97 489,-438.72 465.08,-391.28 491.91,-360.9 453,-324.72 439.22,-311.91 331.25,-289.82 264.9,-277.23"/>
<polygon fill="midnightblue" stroke="midnightblue" points="540.24,-518.85 549.4,-524.15 545.55,-514.29 540.24,-518.85"/>
</g>
</g>
</svg>
