<?xml version="1.0" encoding="UTF-8" standalone="no"?>
<!DOCTYPE svg PUBLIC "-//W3C//DTD SVG 1.1//EN"
 "http://www.w3.org/Graphics/SVG/1.1/DTD/svg11.dtd">
<!-- Generated by graphviz version 2.47.3 (20210619.1520)
 -->
<!-- Title: helper::logging::printTrace Pages: 1 -->
<!--zoomable 719 -->
<svg id="main" version="1.1" xmlns="http://www.w3.org/2000/svg" xmlns:xlink="http://www.w3.org/1999/xlink" xml:space="preserve" onload="init(evt)">
<style type="text/css"><![CDATA[
.edge:hover path { stroke: red; }
.edge:hover polygon { stroke: red; fill: red; }
]]></style>
<script type="text/javascript"><![CDATA[
var edges = document.getElementsByTagName('g');
if (edges && edges.length) {
  for (var i=0;i<edges.length;i++) {
    if (edges[i].id.substr(0,4)=='edge') {
      edges[i].setAttribute('class','edge');
    }
  }
}
]]></script>
        <defs>
                <circle id="rim" cx="0" cy="0" r="7"/>
                <circle id="rim2" cx="0" cy="0" r="3.5"/>
                <g id="zoomPlus">
                        <use xlink:href="#rim" fill="#404040">
                                <set attributeName="fill" to="#808080" begin="zoomplus.mouseover" end="zoomplus.mouseout"/>
                        </use>
                        <path d="M-4,0h8M0,-4v8" fill="none" stroke="white" stroke-width="1.5" pointer-events="none"/>
                </g>
                <g id="zoomMin">
                        <use xlink:href="#rim" fill="#404040">
                                <set attributeName="fill" to="#808080" begin="zoomminus.mouseover" end="zoomminus.mouseout"/>
                        </use>
                        <path d="M-4,0h8" fill="none" stroke="white" stroke-width="1.5" pointer-events="none"/>
                </g>
                <g id="dirArrow">
                        <path fill="none" stroke="white" stroke-width="1.5" d="M0,-3.0v7 M-2.5,-0.5L0,-3.0L2.5,-0.5"/>
                </g>
               <g id="resetDef">
                       <use xlink:href="#rim2" fill="#404040">
                               <set attributeName="fill" to="#808080" begin="reset.mouseover" end="reset.mouseout"/>
                       </use>
               </g>
        </defs>

<script type="text/javascript">
var viewWidth = 625;
var viewHeight = 719;
var sectionId = 'dynsection-10';
</script>
<script xlink:href="svgpan.js"/>
<svg id="graph" class="graph">
<g id="viewport">
<title>helper::logging::printTrace</title>
<polygon fill="white" stroke="transparent" points="-4,4 -4,-715 621,-715 621,4 -4,4"/>
<!-- Node1 -->
<g id="node1" class="node">
<title>Node1</title>
<g id="a_node1"><a xlink:title="Writes a trace message to the log.">
<polygon fill="#bfbfbf" stroke="black" points="489,-344 489,-363 617,-363 617,-344 489,-344"/>
<text text-anchor="middle" x="553" y="-351" font-family="Helvetica,sans-Serif" font-size="10.00">helper::logging::printTrace</text>
</a>
</g>
</g>
<!-- Node2 -->
<g id="node2" class="node">
<title>Node2</title>
<g id="a_node2"><a xlink:href="classbtf_1_1_btf_file.html#a9454b5166914314b2af545df306f4dab" target="_top" xlink:title="Emits a core event. See overloaded function for more information.">
<polygon fill="white" stroke="black" points="328.5,-477 328.5,-496 438.5,-496 438.5,-477 328.5,-477"/>
<text text-anchor="middle" x="383.5" y="-484" font-family="Helvetica,sans-Serif" font-size="10.00">btf::BtfFile::coreEvent</text>
</a>
</g>
</g>
<!-- Node1&#45;&gt;Node2 -->
<g id="edge1" class="edge">
<title>Node1&#45;&gt;Node2</title>
<path fill="none" stroke="midnightblue" d="M541.08,-371.76C524.99,-397.09 492.51,-442.56 453,-467.5 446.84,-471.39 439.89,-474.49 432.82,-476.97"/>
<polygon fill="midnightblue" stroke="midnightblue" points="544.14,-373.48 546.42,-363.13 538.18,-369.79 544.14,-373.48"/>
</g>
<!-- Node5 -->
<g id="node5" class="node">
<title>Node5</title>
<g id="a_node5"><a xlink:href="libhelper__binding_8h.html#a2c5a40794af354dc9e9ec0a59b15a093" target="_top" xlink:title="Helper function which is called inside the PYBIND11_MODULE macro and adds Python bindings to the C++ ...">
<polygon fill="white" stroke="black" points="171,-50 171,-69 253,-69 253,-50 171,-50"/>
<text text-anchor="middle" x="212" y="-57" font-family="Helvetica,sans-Serif" font-size="10.00">init_pybtfhelper</text>
</a>
</g>
</g>
<!-- Node1&#45;&gt;Node5 -->
<g id="edge5" class="edge">
<title>Node1&#45;&gt;Node5</title>
<path fill="none" stroke="midnightblue" d="M547.44,-333.8C537.28,-294.1 509.12,-203.89 453,-152.5 395.66,-99.99 305.39,-75.9 253.45,-65.85"/>
<polygon fill="midnightblue" stroke="midnightblue" points="544.06,-334.7 549.84,-343.58 550.86,-333.04 544.06,-334.7"/>
</g>
<!-- Node6 -->
<g id="node6" class="node">
<title>Node6</title>
<g id="a_node6"><a xlink:href="classbtf_1_1_btf_file.html#a53a53570d80ddcb7d3e762fe219fd019" target="_top" xlink:title="Emits an OS event (source is a core or a process depending on the value of the core_is_source paramet...">
<polygon fill="white" stroke="black" points="333,-401 333,-420 434,-420 434,-401 333,-401"/>
<text text-anchor="middle" x="383.5" y="-408" font-family="Helvetica,sans-Serif" font-size="10.00">btf::BtfFile::osEvent</text>
</a>
</g>
</g>
<!-- Node1&#45;&gt;Node6 -->
<g id="edge7" class="edge">
<title>Node1&#45;&gt;Node6</title>
<path fill="none" stroke="midnightblue" d="M519.55,-366.86C500.36,-374.53 475.48,-384.09 453,-391.5 442.8,-394.86 431.63,-398.13 421.31,-400.99"/>
<polygon fill="midnightblue" stroke="midnightblue" points="521.06,-370.03 529.02,-363.04 518.44,-363.53 521.06,-370.03"/>
</g>
<!-- Node7 -->
<g id="node7" class="node">
<title>Node7</title>
<g id="a_node7"><a xlink:href="classbtf_1_1_btf_file.html#a3f6b54fa6c96e04ce016ab81d1f80901" target="_top" xlink:title="Emits a task event (except migration). See overloaded function for more information.">
<polygon fill="white" stroke="black" points="321,-439 321,-458 446,-458 446,-439 321,-439"/>
<text text-anchor="middle" x="383.5" y="-446" font-family="Helvetica,sans-Serif" font-size="10.00">btf::BtfFile::processEvent</text>
</a>
</g>
</g>
<!-- Node1&#45;&gt;Node7 -->
<g id="edge10" class="edge">
<title>Node1&#45;&gt;Node7</title>
<path fill="none" stroke="midnightblue" d="M534.77,-370.09C516.06,-387.27 484.59,-413.75 453,-429.5 445.38,-433.3 436.89,-436.43 428.56,-438.98"/>
<polygon fill="midnightblue" stroke="midnightblue" points="537.29,-372.53 542.2,-363.15 532.51,-367.42 537.29,-372.53"/>
</g>
<!-- Node9 -->
<g id="node9" class="node">
<title>Node9</title>
<g id="a_node9"><a xlink:href="classbtf_1_1_btf_file.html#a3a7b48f23d0c26343e8b4a2a452319b6" target="_top" xlink:title="Emits a runnable event (source is a core or process depending on the value of the core_is_source para...">
<polygon fill="white" stroke="black" points="319.5,-287 319.5,-306 447.5,-306 447.5,-287 319.5,-287"/>
<text text-anchor="middle" x="383.5" y="-294" font-family="Helvetica,sans-Serif" font-size="10.00">btf::BtfFile::runnableEvent</text>
</a>
</g>
</g>
<!-- Node1&#45;&gt;Node9 -->
<g id="edge14" class="edge">
<title>Node1&#45;&gt;Node9</title>
<path fill="none" stroke="midnightblue" d="M519.55,-340.14C500.36,-332.47 475.48,-322.91 453,-315.5 442.8,-312.14 431.63,-308.87 421.31,-306.01"/>
<polygon fill="midnightblue" stroke="midnightblue" points="518.44,-343.47 529.02,-343.96 521.06,-336.97 518.44,-343.47"/>
</g>
<!-- Node12 -->
<g id="node12" class="node">
<title>Node12</title>
<g id="a_node12"><a xlink:href="classbtf_1_1_btf_file.html#ae1ebfe73fc7c7d04defcb27446a2c4b6" target="_top" xlink:title="Emits a scheduler event. See overloaded function for more information.">
<polygon fill="white" stroke="black" points="317,-363 317,-382 450,-382 450,-363 317,-363"/>
<text text-anchor="middle" x="383.5" y="-370" font-family="Helvetica,sans-Serif" font-size="10.00">btf::BtfFile::schedulerEvent</text>
</a>
</g>
</g>
<!-- Node1&#45;&gt;Node12 -->
<g id="edge19" class="edge">
<title>Node1&#45;&gt;Node12</title>
<path fill="none" stroke="midnightblue" d="M478.52,-361.84C469.07,-362.91 459.45,-364 450.14,-365.05"/>
<polygon fill="midnightblue" stroke="midnightblue" points="479.13,-365.29 488.68,-360.68 478.34,-358.33 479.13,-365.29"/>
</g>
<!-- Node13 -->
<g id="node13" class="node">
<title>Node13</title>
<g id="a_node13"><a xlink:href="classbtf_1_1_btf_file.html#ad3520a015342189e2b8969547dedcb43" target="_top" xlink:title="Emits a semaphore event. See overloaded function for more information.">
<polygon fill="white" stroke="black" points="314,-325 314,-344 453,-344 453,-325 314,-325"/>
<text text-anchor="middle" x="383.5" y="-332" font-family="Helvetica,sans-Serif" font-size="10.00">btf::BtfFile::semaphoreEvent</text>
</a>
</g>
</g>
<!-- Node1&#45;&gt;Node13 -->
<g id="edge22" class="edge">
<title>Node1&#45;&gt;Node13</title>
<path fill="none" stroke="midnightblue" d="M478.52,-345.16C470.11,-344.21 461.57,-343.24 453.23,-342.3"/>
<polygon fill="midnightblue" stroke="midnightblue" points="478.34,-348.67 488.68,-346.32 479.13,-341.71 478.34,-348.67"/>
</g>
<!-- Node14 -->
<g id="node14" class="node">
<title>Node14</title>
<g id="a_node14"><a xlink:href="classbtf_1_1_btf_file.html#abd1356570158b60e3bf92fc006adcda8" target="_top" xlink:title="Emits a signal event (source is a core or process depending on the value of the core_is_source parame...">
<polygon fill="white" stroke="black" points="325.5,-249 325.5,-268 441.5,-268 441.5,-249 325.5,-249"/>
<text text-anchor="middle" x="383.5" y="-256" font-family="Helvetica,sans-Serif" font-size="10.00">btf::BtfFile::signalEvent</text>
</a>
</g>
</g>
<!-- Node1&#45;&gt;Node14 -->
<g id="edge25" class="edge">
<title>Node1&#45;&gt;Node14</title>
<path fill="none" stroke="midnightblue" d="M534.77,-336.91C516.06,-319.73 484.59,-293.25 453,-277.5 445.38,-273.7 436.89,-270.57 428.56,-268.02"/>
<polygon fill="midnightblue" stroke="midnightblue" points="532.51,-339.58 542.2,-343.85 537.29,-334.47 532.51,-339.58"/>
</g>
<!-- Node15 -->
<g id="node15" class="node">
<title>Node15</title>
<g id="a_node15"><a xlink:href="classbtf_1_1_btf_file.html#a7e534fb0663307cb4fbdacfcfda78308" target="_top" xlink:title="Emits a process creation event. See overloaded function for more information.">
<polygon fill="white" stroke="black" points="155.5,-0.5 155.5,-30.5 268.5,-30.5 268.5,-0.5 155.5,-0.5"/>
<text text-anchor="start" x="163.5" y="-18.5" font-family="Helvetica,sans-Serif" font-size="10.00">btf::BtfFile::simulation</text>
<text text-anchor="middle" x="212" y="-7.5" font-family="Helvetica,sans-Serif" font-size="10.00">EventProcessCreation</text>
</a>
</g>
</g>
<!-- Node1&#45;&gt;Node15 -->
<g id="edge28" class="edge">
<title>Node1&#45;&gt;Node15</title>
<path fill="none" stroke="midnightblue" d="M550.94,-333.83C547.15,-283.47 529.93,-148.88 453,-78.5 402.54,-32.34 322.37,-19.2 268.75,-15.88"/>
<polygon fill="midnightblue" stroke="midnightblue" points="547.46,-334.25 551.61,-344 554.45,-333.79 547.46,-334.25"/>
</g>
<!-- Node16 -->
<g id="node16" class="node">
<title>Node16</title>
<g id="a_node16"><a xlink:href="classbtf_1_1_btf_file.html#a8e8ea0a0f02b56b5a5622641052a5e98" target="_top" xlink:title="Emits a process name event (e.g. name change or initial name). See overloaded function for more infor...">
<polygon fill="white" stroke="black" points="156.5,-680.5 156.5,-710.5 267.5,-710.5 267.5,-680.5 156.5,-680.5"/>
<text text-anchor="start" x="164.5" y="-698.5" font-family="Helvetica,sans-Serif" font-size="10.00">btf::BtfFile::simulation</text>
<text text-anchor="middle" x="212" y="-687.5" font-family="Helvetica,sans-Serif" font-size="10.00">EventProcessName</text>
</a>
</g>
</g>
<!-- Node1&#45;&gt;Node16 -->
<g id="edge30" class="edge">
<title>Node1&#45;&gt;Node16</title>
<path fill="none" stroke="midnightblue" d="M549.47,-373.18C542.54,-419.27 519.16,-535.3 453,-601.5 402.39,-652.14 321.29,-676.2 267.59,-687.12"/>
<polygon fill="midnightblue" stroke="midnightblue" points="552.97,-373.43 550.89,-363.04 546.03,-372.46 552.97,-373.43"/>
</g>
<!-- Node17 -->
<g id="node17" class="node">
<title>Node17</title>
<g id="a_node17"><a xlink:href="classbtf_1_1_btf_file.html#a4b3c16fb33a93dcc75746a0b828eb040" target="_top" xlink:title="Emits a thread creation event. See overloaded function for more information.">
<polygon fill="white" stroke="black" points="156.5,-631.5 156.5,-661.5 267.5,-661.5 267.5,-631.5 156.5,-631.5"/>
<text text-anchor="start" x="164.5" y="-649.5" font-family="Helvetica,sans-Serif" font-size="10.00">btf::BtfFile::simulation</text>
<text text-anchor="middle" x="212" y="-638.5" font-family="Helvetica,sans-Serif" font-size="10.00">EventThreadCreation</text>
</a>
</g>
</g>
<!-- Node1&#45;&gt;Node17 -->
<g id="edge32" class="edge">
<title>Node1&#45;&gt;Node17</title>
<path fill="none" stroke="midnightblue" d="M547.27,-373.21C536.86,-412.56 508.38,-501.44 453,-552.5 400.69,-600.73 320.78,-625.31 267.73,-637.01"/>
<polygon fill="midnightblue" stroke="midnightblue" points="550.72,-373.85 549.78,-363.29 543.93,-372.13 550.72,-373.85"/>
</g>
<!-- Node18 -->
<g id="node18" class="node">
<title>Node18</title>
<g id="a_node18"><a xlink:href="classbtf_1_1_btf_file.html#ae21ef03719f3af5a72d682bf9ae5d8d9" target="_top" xlink:title="Emits a thread name event (e.g. name change or initial name). See overloaded function for more inform...">
<polygon fill="white" stroke="black" points="156.5,-582.5 156.5,-612.5 267.5,-612.5 267.5,-582.5 156.5,-582.5"/>
<text text-anchor="start" x="164.5" y="-600.5" font-family="Helvetica,sans-Serif" font-size="10.00">btf::BtfFile::simulation</text>
<text text-anchor="middle" x="212" y="-589.5" font-family="Helvetica,sans-Serif" font-size="10.00">EventThreadName</text>
</a>
</g>
</g>
<!-- Node1&#45;&gt;Node18 -->
<g id="edge34" class="edge">
<title>Node1&#45;&gt;Node18</title>
<path fill="none" stroke="midnightblue" d="M544.25,-372.67C530.47,-404.52 498.77,-468.5 453,-505.5 398.34,-549.68 320.1,-574.32 267.97,-586.74"/>
<polygon fill="midnightblue" stroke="midnightblue" points="547.59,-373.76 548.24,-363.18 541.14,-371.05 547.59,-373.76"/>
</g>
<!-- Node19 -->
<g id="node19" class="node">
<title>Node19</title>
<g id="a_node19"><a xlink:href="classbtf_1_1_btf_file.html#aad9571cc39c02a1e460e8c913598abb9" target="_top" xlink:title="Emits a stimulus event. See overloaded function for more information.">
<polygon fill="white" stroke="black" points="319.5,-211 319.5,-230 447.5,-230 447.5,-211 319.5,-211"/>
<text text-anchor="middle" x="383.5" y="-218" font-family="Helvetica,sans-Serif" font-size="10.00">btf::BtfFile::stimulusEvent</text>
</a>
</g>
</g>
<!-- Node1&#45;&gt;Node19 -->
<g id="edge36" class="edge">
<title>Node1&#45;&gt;Node19</title>
<path fill="none" stroke="midnightblue" d="M541.08,-335.24C524.99,-309.91 492.51,-264.44 453,-239.5 446.84,-235.61 439.89,-232.51 432.82,-230.03"/>
<polygon fill="midnightblue" stroke="midnightblue" points="538.18,-337.21 546.42,-343.87 544.14,-333.52 538.18,-337.21"/>
</g>
<!-- Node20 -->
<g id="node20" class="node">
<title>Node20</title>
<g id="a_node20"><a xlink:href="classbtf_1_1_btf_file.html#a66ddf92cf6d3b6f48ca5876d0bdfea20" target="_top" xlink:title="Emits a task migration event. See overloaded function for more information.">
<polygon fill="white" stroke="black" points="321,-161.5 321,-191.5 446,-191.5 446,-161.5 321,-161.5"/>
<text text-anchor="start" x="329" y="-179.5" font-family="Helvetica,sans-Serif" font-size="10.00">btf::BtfFile::taskMigration</text>
<text text-anchor="middle" x="383.5" y="-168.5" font-family="Helvetica,sans-Serif" font-size="10.00">Event</text>
</a>
</g>
</g>
<!-- Node1&#45;&gt;Node20 -->
<g id="edge39" class="edge">
<title>Node1&#45;&gt;Node20</title>
<path fill="none" stroke="midnightblue" d="M544.32,-334.25C530.63,-302.28 499.07,-238.13 453,-201.5 448.14,-197.64 442.64,-194.34 436.91,-191.53"/>
<polygon fill="midnightblue" stroke="midnightblue" points="541.21,-335.88 548.27,-343.77 547.67,-333.19 541.21,-335.88"/>
</g>
<!-- Node3 -->
<g id="node3" class="node">
<title>Node3</title>
<g id="a_node3"><a xlink:href="classbtf_1_1_btf_file.html#ae1e0e725a1569e510b767acc6ce2d648" target="_top" xlink:title="Appends the data from a BTF file. Currently only import into an empty BTF file is supported.">
<polygon fill="white" stroke="black" points="146,-316 146,-335 278,-335 278,-316 146,-316"/>
<text text-anchor="middle" x="212" y="-323" font-family="Helvetica,sans-Serif" font-size="10.00">btf::BtfFile::importFromFile</text>
</a>
</g>
</g>
<!-- Node2&#45;&gt;Node3 -->
<g id="edge2" class="edge">
<title>Node2&#45;&gt;Node3</title>
<path fill="none" stroke="midnightblue" d="M323.13,-472.91C319.94,-471.31 316.87,-469.51 314,-467.5 262.73,-431.55 228.34,-360.89 217.05,-335.16"/>
<polygon fill="midnightblue" stroke="midnightblue" points="321.84,-476.17 332.4,-476.96 324.64,-469.75 321.84,-476.17"/>
</g>
<!-- Node4 -->
<g id="node4" class="node">
<title>Node4</title>
<g id="a_node4"><a xlink:href="libbtf__binding_8cpp.html#adfae743278a01284c171e56ddabf18bd" target="_top" xlink:title="Macro that creates a function that will be called when the module pybtf is imported within python....">
<polygon fill="white" stroke="black" points="0,-354 0,-373 110,-373 110,-354 0,-354"/>
<text text-anchor="middle" x="55" y="-361" font-family="Helvetica,sans-Serif" font-size="10.00">PYBIND11_MODULE</text>
</a>
</g>
</g>
<!-- Node2&#45;&gt;Node4 -->
<g id="edge4" class="edge">
<title>Node2&#45;&gt;Node4</title>
<path fill="none" stroke="midnightblue" d="M359.33,-501.28C314.75,-527.66 215.31,-576.35 146,-534.5 84.83,-497.57 63.14,-403.71 57.59,-373.23"/>
<polygon fill="midnightblue" stroke="midnightblue" points="361.25,-504.21 367.98,-496.03 357.62,-498.23 361.25,-504.21"/>
</g>
<!-- Node3&#45;&gt;Node4 -->
<g id="edge3" class="edge">
<title>Node3&#45;&gt;Node4</title>
<path fill="none" stroke="midnightblue" d="M161.89,-337.54C140.24,-342.85 115.15,-349 94.83,-353.98"/>
<polygon fill="midnightblue" stroke="midnightblue" points="163.01,-340.87 171.89,-335.09 161.34,-334.07 163.01,-340.87"/>
</g>
<!-- Node5&#45;&gt;Node4 -->
<g id="edge6" class="edge">
<title>Node5&#45;&gt;Node4</title>
<path fill="none" stroke="midnightblue" d="M161.58,-72.13C155.81,-75.15 150.42,-78.88 146,-83.5 67.93,-164.98 57.58,-314.45 56.21,-353.8"/>
<polygon fill="midnightblue" stroke="midnightblue" points="163.17,-75.25 170.85,-67.95 160.3,-68.87 163.17,-75.25"/>
</g>
<!-- Node6&#45;&gt;Node3 -->
<g id="edge8" class="edge">
<title>Node6&#45;&gt;Node3</title>
<path fill="none" stroke="midnightblue" d="M330.56,-397.94C324.88,-396.02 319.26,-393.88 314,-391.5 279.45,-375.88 243.27,-349.35 225.03,-335.15"/>
<polygon fill="midnightblue" stroke="midnightblue" points="329.53,-401.28 340.12,-400.94 331.63,-394.6 329.53,-401.28"/>
</g>
<!-- Node6&#45;&gt;Node4 -->
<g id="edge9" class="edge">
<title>Node6&#45;&gt;Node4</title>
<path fill="none" stroke="midnightblue" d="M322.43,-409.82C274.31,-408.35 205.29,-404.14 146,-392.5 123.29,-388.04 98.29,-379.7 80.42,-373.1"/>
<polygon fill="midnightblue" stroke="midnightblue" points="322.58,-413.33 332.67,-410.1 322.77,-406.33 322.58,-413.33"/>
</g>
<!-- Node7&#45;&gt;Node3 -->
<g id="edge11" class="edge">
<title>Node7&#45;&gt;Node3</title>
<path fill="none" stroke="midnightblue" d="M325.56,-435.29C321.54,-433.58 317.64,-431.66 314,-429.5 271.14,-404.08 234.16,-355.77 219.6,-335.18"/>
<polygon fill="midnightblue" stroke="midnightblue" points="324.49,-438.63 335.09,-438.91 326.98,-432.09 324.49,-438.63"/>
</g>
<!-- Node7&#45;&gt;Node4 -->
<g id="edge13" class="edge">
<title>Node7&#45;&gt;Node4</title>
<path fill="none" stroke="midnightblue" d="M310.58,-444.59C262.88,-440.38 199.46,-431.63 146,-413.5 117.05,-403.68 86.62,-384.67 69.6,-373.13"/>
<polygon fill="midnightblue" stroke="midnightblue" points="310.56,-448.1 320.82,-445.45 311.14,-441.13 310.56,-448.1"/>
</g>
<!-- Node8 -->
<g id="node8" class="node">
<title>Node8</title>
<g id="a_node8"><a xlink:href="classbtf_1_1_btf_file.html#a67251691e4a66475a4a5a1206687247d" target="_top" xlink:title="Emits an OS event (source is a core or a process depending on the value of the core_is_source paramet...">
<polygon fill="white" stroke="black" points="161.5,-506 161.5,-525 262.5,-525 262.5,-506 161.5,-506"/>
<text text-anchor="middle" x="212" y="-513" font-family="Helvetica,sans-Serif" font-size="10.00">btf::BtfFile::osEvent</text>
</a>
</g>
</g>
<!-- Node7&#45;&gt;Node8 -->
<g id="edge12" class="edge">
<title>Node7&#45;&gt;Node8</title>
<path fill="none" stroke="midnightblue" d="M329.9,-461.23C324.44,-463.1 319.05,-465.19 314,-467.5 296.52,-475.5 295.14,-482.78 278,-491.5 267.07,-497.07 254.53,-502.01 243.4,-505.94"/>
<polygon fill="midnightblue" stroke="midnightblue" points="331.26,-464.47 339.73,-458.1 329.14,-457.8 331.26,-464.47"/>
</g>
<!-- Node9&#45;&gt;Node3 -->
<g id="edge15" class="edge">
<title>Node9&#45;&gt;Node3</title>
<path fill="none" stroke="midnightblue" d="M316.32,-307.82C300.54,-310.52 283.87,-313.38 268.62,-315.98"/>
<polygon fill="midnightblue" stroke="midnightblue" points="317.26,-311.21 326.53,-306.08 316.08,-304.31 317.26,-311.21"/>
</g>
<!-- Node9&#45;&gt;Node4 -->
<g id="edge17" class="edge">
<title>Node9&#45;&gt;Node4</title>
<path fill="none" stroke="midnightblue" d="M323.39,-282.88C320.11,-281.28 316.95,-279.49 314,-277.5 292.19,-262.78 301.59,-242.15 278,-230.5 225.39,-204.53 197.82,-203 146,-230.5 95.02,-257.56 67.64,-327.82 59.03,-353.72"/>
<polygon fill="midnightblue" stroke="midnightblue" points="322.31,-286.22 332.89,-286.91 325.05,-279.78 322.31,-286.22"/>
</g>
<!-- Node10 -->
<g id="node10" class="node">
<title>Node10</title>
<g id="a_node10"><a xlink:href="classbtf_1_1_btf_file.html#a64dd3a4762bd03767ebbc380810f1bcb" target="_top" xlink:title="Emits a process event (except task migration).">
<polygon fill="white" stroke="black" points="149.5,-278 149.5,-297 274.5,-297 274.5,-278 149.5,-278"/>
<text text-anchor="middle" x="212" y="-285" font-family="Helvetica,sans-Serif" font-size="10.00">btf::BtfFile::processEvent</text>
</a>
</g>
</g>
<!-- Node9&#45;&gt;Node10 -->
<g id="edge16" class="edge">
<title>Node9&#45;&gt;Node10</title>
<path fill="none" stroke="midnightblue" d="M309.35,-292.62C297.82,-292 286,-291.38 274.76,-290.78"/>
<polygon fill="midnightblue" stroke="midnightblue" points="309.21,-296.11 319.38,-293.15 309.58,-289.12 309.21,-296.11"/>
</g>
<!-- Node11 -->
<g id="node11" class="node">
<title>Node11</title>
<g id="a_node11"><a xlink:href="classbtf_1_1_btf_file.html#a37ac4560542170c72a0e1aad2d8b4753" target="_top" xlink:title="Emits a runnable event (source is a core or process depending on the value of the core_is_source para...">
<polygon fill="white" stroke="black" points="148,-240 148,-259 276,-259 276,-240 148,-240"/>
<text text-anchor="middle" x="212" y="-247" font-family="Helvetica,sans-Serif" font-size="10.00">btf::BtfFile::runnableEvent</text>
</a>
</g>
</g>
<!-- Node9&#45;&gt;Node11 -->
<g id="edge18" class="edge">
<title>Node9&#45;&gt;Node11</title>
<path fill="none" stroke="midnightblue" d="M338.53,-284.31C310.18,-276.45 273.82,-266.36 247.54,-259.08"/>
<polygon fill="midnightblue" stroke="midnightblue" points="337.63,-287.69 348.2,-286.99 339.5,-280.94 337.63,-287.69"/>
</g>
<!-- Node12&#45;&gt;Node3 -->
<g id="edge20" class="edge">
<title>Node12&#45;&gt;Node3</title>
<path fill="none" stroke="midnightblue" d="M338.53,-360.31C310.18,-352.45 273.82,-342.36 247.54,-335.08"/>
<polygon fill="midnightblue" stroke="midnightblue" points="337.63,-363.69 348.2,-362.99 339.5,-356.94 337.63,-363.69"/>
</g>
<!-- Node12&#45;&gt;Node4 -->
<g id="edge21" class="edge">
<title>Node12&#45;&gt;Node4</title>
<path fill="none" stroke="midnightblue" d="M306.91,-377.87C260.43,-380.24 199.69,-381.65 146,-377.5 133.7,-376.55 120.54,-374.88 108.19,-373.01"/>
<polygon fill="midnightblue" stroke="midnightblue" points="307.1,-381.37 316.9,-377.34 306.73,-374.38 307.1,-381.37"/>
</g>
<!-- Node13&#45;&gt;Node3 -->
<g id="edge23" class="edge">
<title>Node13&#45;&gt;Node3</title>
<path fill="none" stroke="midnightblue" d="M303.3,-330.29C294.85,-329.85 286.31,-329.39 278.05,-328.95"/>
<polygon fill="midnightblue" stroke="midnightblue" points="303.39,-333.8 313.56,-330.84 303.76,-326.81 303.39,-333.8"/>
</g>
<!-- Node13&#45;&gt;Node4 -->
<g id="edge24" class="edge">
<title>Node13&#45;&gt;Node4</title>
<path fill="none" stroke="midnightblue" d="M303.76,-342.12C295.07,-342.94 286.35,-343.74 278,-344.5 220.79,-349.69 155.25,-355.25 110.3,-359.01"/>
<polygon fill="midnightblue" stroke="midnightblue" points="304.3,-345.58 313.93,-341.16 303.65,-338.62 304.3,-345.58"/>
</g>
<!-- Node14&#45;&gt;Node3 -->
<g id="edge26" class="edge">
<title>Node14&#45;&gt;Node3</title>
<path fill="none" stroke="midnightblue" d="M328.17,-271.33C323.28,-273.15 318.48,-275.2 314,-277.5 295.72,-286.88 296.21,-296.99 278,-306.5 270.81,-310.26 262.77,-313.37 254.87,-315.91"/>
<polygon fill="midnightblue" stroke="midnightblue" points="329.31,-274.64 337.65,-268.1 327.05,-268.01 329.31,-274.64"/>
</g>
<!-- Node14&#45;&gt;Node4 -->
<g id="edge27" class="edge">
<title>Node14&#45;&gt;Node4</title>
<path fill="none" stroke="midnightblue" d="M326.41,-245.42C322.1,-243.67 317.91,-241.71 314,-239.5 294.83,-228.69 298.45,-213.63 278,-205.5 223.48,-183.83 196.72,-176.02 146,-205.5 88.41,-238.97 64.61,-324.6 58.03,-353.67"/>
<polygon fill="midnightblue" stroke="midnightblue" points="325.36,-248.76 335.95,-248.9 327.75,-242.19 325.36,-248.76"/>
</g>
<!-- Node15&#45;&gt;Node4 -->
<g id="edge29" class="edge">
<title>Node15&#45;&gt;Node4</title>
<path fill="none" stroke="midnightblue" d="M149.83,-36.74C148.48,-37.92 147.2,-39.18 146,-40.5 58.49,-136.78 55.18,-311.14 55.75,-353.86"/>
<polygon fill="midnightblue" stroke="midnightblue" points="152.16,-39.37 158.15,-30.63 148.01,-33.73 152.16,-39.37"/>
</g>
<!-- Node16&#45;&gt;Node4 -->
<g id="edge31" class="edge">
<title>Node16&#45;&gt;Node4</title>
<path fill="none" stroke="midnightblue" d="M148.82,-674.28C147.84,-673.39 146.9,-672.46 146,-671.5 61.26,-580.66 55.86,-414.37 55.88,-373.01"/>
<polygon fill="midnightblue" stroke="midnightblue" points="146.87,-677.19 156.96,-680.4 151.07,-671.59 146.87,-677.19"/>
</g>
<!-- Node17&#45;&gt;Node4 -->
<g id="edge33" class="edge">
<title>Node17&#45;&gt;Node4</title>
<path fill="none" stroke="midnightblue" d="M149.31,-625.58C148.16,-624.6 147.05,-623.57 146,-622.5 72.83,-547.91 58.97,-410.82 56.5,-373.24"/>
<polygon fill="midnightblue" stroke="midnightblue" points="147.29,-628.44 157.46,-631.41 151.36,-622.75 147.29,-628.44"/>
</g>
<!-- Node18&#45;&gt;Node4 -->
<g id="edge35" class="edge">
<title>Node18&#45;&gt;Node4</title>
<path fill="none" stroke="midnightblue" d="M158.17,-577.34C153.76,-574.44 149.61,-571.17 146,-567.5 87.92,-508.43 64.05,-405.56 57.78,-373.4"/>
<polygon fill="midnightblue" stroke="midnightblue" points="156.51,-580.43 166.91,-582.48 160.06,-574.39 156.51,-580.43"/>
</g>
<!-- Node19&#45;&gt;Node3 -->
<g id="edge37" class="edge">
<title>Node19&#45;&gt;Node3</title>
<path fill="none" stroke="midnightblue" d="M321.21,-234.58C318.68,-236.06 316.26,-237.69 314,-239.5 287.59,-260.6 304.26,-285.22 278,-306.5 273.25,-310.35 267.75,-313.42 262,-315.87"/>
<polygon fill="midnightblue" stroke="midnightblue" points="322.78,-237.71 330.18,-230.13 319.67,-231.44 322.78,-237.71"/>
</g>
<!-- Node19&#45;&gt;Node4 -->
<g id="edge38" class="edge">
<title>Node19&#45;&gt;Node4</title>
<path fill="none" stroke="midnightblue" d="M332.11,-208C325.93,-206.04 319.77,-203.86 314,-201.5 297.06,-194.56 295.72,-186.09 278,-181.5 221.21,-166.78 195.84,-150.55 146,-181.5 81.92,-221.3 62.08,-321.74 57.3,-353.62"/>
<polygon fill="midnightblue" stroke="midnightblue" points="331.18,-211.37 341.76,-210.91 333.2,-204.67 331.18,-211.37"/>
</g>
<!-- Node20&#45;&gt;Node3 -->
<g id="edge40" class="edge">
<title>Node20&#45;&gt;Node3</title>
<path fill="none" stroke="midnightblue" d="M318.55,-197.38C316.95,-198.67 315.43,-200.04 314,-201.5 279.46,-236.72 313.68,-272.43 278,-306.5 273.92,-310.4 269.08,-313.5 263.92,-315.97"/>
<polygon fill="midnightblue" stroke="midnightblue" points="320.79,-200.08 327.06,-191.55 316.83,-194.31 320.79,-200.08"/>
</g>
<!-- Node20&#45;&gt;Node4 -->
<g id="edge41" class="edge">
<title>Node20&#45;&gt;Node4</title>
<path fill="none" stroke="midnightblue" d="M336.96,-157.97C286.1,-140.5 203.39,-122.09 146,-159.5 75.63,-205.37 59.89,-320.05 56.73,-353.93"/>
<polygon fill="midnightblue" stroke="midnightblue" points="336.1,-161.37 346.69,-161.43 338.44,-154.78 336.1,-161.37"/>
</g>
</g>
</svg>
        <g id="navigator" transform="translate(0 0)" fill="#404254">
                <rect fill="#f2f5e9" fill-opacity="0.5" stroke="#606060" stroke-width=".5" x="0" y="0" width="60" height="60"/>
                <use id="zoomplus" xlink:href="#zoomPlus" x="17" y="9" onmousedown="handleZoom(evt,'in')"/>
                <use id="zoomminus" xlink:href="#zoomMin" x="42" y="9" onmousedown="handleZoom(evt,'out')"/>
                <use id="reset" xlink:href="#resetDef" x="30" y="36" onmousedown="handleReset()"/>
                <g id="arrowUp" xlink:href="#dirArrow" transform="translate(30 24)" onmousedown="handlePan(0,-1)">
                  <use xlink:href="#rim" fill="#404040">
                        <set attributeName="fill" to="#808080" begin="arrowUp.mouseover" end="arrowUp.mouseout"/>
                  </use>
                  <path fill="none" stroke="white" stroke-width="1.5" d="M0,-3.0v7 M-2.5,-0.5L0,-3.0L2.5,-0.5"/>
                </g>
                <g id="arrowRight" xlink:href="#dirArrow" transform="rotate(90) translate(36 -43)" onmousedown="handlePan(1,0)">
                  <use xlink:href="#rim" fill="#404040">
                        <set attributeName="fill" to="#808080" begin="arrowRight.mouseover" end="arrowRight.mouseout"/>
                  </use>
                  <path fill="none" stroke="white" stroke-width="1.5" d="M0,-3.0v7 M-2.5,-0.5L0,-3.0L2.5,-0.5"/>
                </g>
                <g id="arrowDown" xlink:href="#dirArrow" transform="rotate(180) translate(-30 -48)" onmousedown="handlePan(0,1)">
                  <use xlink:href="#rim" fill="#404040">
                        <set attributeName="fill" to="#808080" begin="arrowDown.mouseover" end="arrowDown.mouseout"/>
                  </use>
                  <path fill="none" stroke="white" stroke-width="1.5" d="M0,-3.0v7 M-2.5,-0.5L0,-3.0L2.5,-0.5"/>
                </g>
                <g id="arrowLeft" xlink:href="#dirArrow" transform="rotate(270) translate(-36 17)" onmousedown="handlePan(-1,0)">
                  <use xlink:href="#rim" fill="#404040">
                        <set attributeName="fill" to="#808080" begin="arrowLeft.mouseover" end="arrowLeft.mouseout"/>
                  </use>
                  <path fill="none" stroke="white" stroke-width="1.5" d="M0,-3.0v7 M-2.5,-0.5L0,-3.0L2.5,-0.5"/>
                </g>
        </g>
        <svg viewBox="0 0 15 15" width="100%" height="30px" preserveAspectRatio="xMaxYMin meet">
         <g id="arrow_out" transform="scale(0.3 0.3)">
          <a xlink:href="namespacehelper_1_1logging_a0e1881bbc937b702aa298c5f5141b79b_icgraph_org.svg" target="_base">
           <rect id="button" ry="5" rx="5" y="6" x="6" height="38" width="38"
                fill="#f2f5e9" fill-opacity="0.5" stroke="#606060" stroke-width="1.0"/>
           <path id="arrow"
             d="M 11.500037,31.436501 C 11.940474,20.09759 22.043105,11.32322 32.158766,21.979434 L 37.068811,17.246167 C 37.068811,17.246167 37.088388,32 37.088388,32 L 22.160133,31.978069 C 22.160133,31.978069 26.997745,27.140456 26.997745,27.140456 C 18.528582,18.264221 13.291696,25.230495 11.500037,31.436501 z"
             style="fill:#404040;"/>
          </a>
         </g>
        </svg>
</svg>
