<?xml version="1.0" encoding="UTF-8" standalone="no"?>
<!DOCTYPE svg PUBLIC "-//W3C//DTD SVG 1.1//EN"
 "http://www.w3.org/Graphics/SVG/1.1/DTD/svg11.dtd">
<!-- Generated by graphviz version 2.47.3 (20210619.1520)
 -->
<!-- Title: helper::logging::printWarning Pages: 1 -->
<svg width="462pt" height="66pt"
 viewBox="0.00 0.00 462.00 66.00" xmlns="http://www.w3.org/2000/svg" xmlns:xlink="http://www.w3.org/1999/xlink">
<g id="graph0" class="graph" transform="scale(1 1) rotate(0) translate(4 62)">
<title>helper::logging::printWarning</title>
<polygon fill="white" stroke="transparent" points="-4,4 -4,-62 458,-62 458,4 -4,4"/>
<!-- Node1 -->
<g id="node1" class="node">
<title>Node1</title>
<g id="a_node1"><a xlink:title="Writes a warning message to the log.">
<polygon fill="#bfbfbf" stroke="black" points="314,-19.5 314,-38.5 454,-38.5 454,-19.5 314,-19.5"/>
<text text-anchor="middle" x="384" y="-26.5" font-family="Helvetica,sans-Serif" font-size="10.00">helper::logging::printWarning</text>
</a>
</g>
</g>
<!-- Node2 -->
<g id="node2" class="node">
<title>Node2</title>
<g id="a_node2"><a xlink:href="classbtf_1_1_btf_file.html#ae1e0e725a1569e510b767acc6ce2d648" target="_top" xlink:title="Appends the data from a BTF file. Currently only import into an empty BTF file is supported.">
<polygon fill="white" stroke="black" points="146,-38.5 146,-57.5 278,-57.5 278,-38.5 146,-38.5"/>
<text text-anchor="middle" x="212" y="-45.5" font-family="Helvetica,sans-Serif" font-size="10.00">btf::BtfFile::importFromFile</text>
</a>
</g>
</g>
<!-- Node1&#45;&gt;Node2 -->
<g id="edge1" class="edge">
<title>Node1&#45;&gt;Node2</title>
<path fill="none" stroke="midnightblue" d="M303.85,-37.85C295.27,-38.8 286.62,-39.77 278.24,-40.71"/>
<polygon fill="midnightblue" stroke="midnightblue" points="304.31,-41.32 313.85,-36.73 303.53,-34.36 304.31,-41.32"/>
</g>
<!-- Node4 -->
<g id="node4" class="node">
<title>Node4</title>
<g id="a_node4"><a xlink:href="libhelper__binding_8h.html#a2c5a40794af354dc9e9ec0a59b15a093" target="_top" xlink:title="Helper function which is called inside the PYBIND11_MODULE macro and adds Python bindings to the C++ ...">
<polygon fill="white" stroke="black" points="171,-0.5 171,-19.5 253,-19.5 253,-0.5 171,-0.5"/>
<text text-anchor="middle" x="212" y="-7.5" font-family="Helvetica,sans-Serif" font-size="10.00">init_pybtfhelper</text>
</a>
</g>
</g>
<!-- Node1&#45;&gt;Node4 -->
<g id="edge3" class="edge">
<title>Node1&#45;&gt;Node4</title>
<path fill="none" stroke="midnightblue" d="M303.64,-20.13C286.19,-18.18 268.42,-16.19 253.29,-14.5"/>
<polygon fill="midnightblue" stroke="midnightblue" points="303.53,-23.64 313.85,-21.27 304.31,-16.68 303.53,-23.64"/>
</g>
<!-- Node3 -->
<g id="node3" class="node">
<title>Node3</title>
<g id="a_node3"><a xlink:href="libbtf__binding_8cpp.html#adfae743278a01284c171e56ddabf18bd" target="_top" xlink:title="Macro that creates a function that will be called when the module pybtf is imported within python....">
<polygon fill="white" stroke="black" points="0,-19.5 0,-38.5 110,-38.5 110,-19.5 0,-19.5"/>
<text text-anchor="middle" x="55" y="-26.5" font-family="Helvetica,sans-Serif" font-size="10.00">PYBIND11_MODULE</text>
</a>
</g>
</g>
<!-- Node2&#45;&gt;Node3 -->
<g id="edge2" class="edge">
<title>Node2&#45;&gt;Node3</title>
<path fill="none" stroke="midnightblue" d="M135.74,-38.77C127.2,-37.73 118.63,-36.68 110.43,-35.67"/>
<polygon fill="midnightblue" stroke="midnightblue" points="135.36,-42.25 145.72,-40 136.22,-35.31 135.36,-42.25"/>
</g>
<!-- Node4&#45;&gt;Node3 -->
<g id="edge4" class="edge">
<title>Node4&#45;&gt;Node3</title>
<path fill="none" stroke="midnightblue" d="M160.4,-16.2C144.31,-18.18 126.45,-20.36 110.12,-22.37"/>
<polygon fill="midnightblue" stroke="midnightblue" points="161.18,-19.63 170.68,-14.94 160.33,-12.69 161.18,-19.63"/>
</g>
</g>
</svg>
