<?xml version="1.0" encoding="UTF-8" standalone="no"?>
<!DOCTYPE svg PUBLIC "-//W3C//DTD SVG 1.1//EN"
 "http://www.w3.org/Graphics/SVG/1.1/DTD/svg11.dtd">
<!-- Generated by graphviz version 2.47.3 (20210619.1520)
 -->
<!-- Title: btf::Events Pages: 1 -->
<svg width="548pt" height="249pt"
 viewBox="0.00 0.00 548.00 248.50" xmlns="http://www.w3.org/2000/svg" xmlns:xlink="http://www.w3.org/1999/xlink">
<g id="graph0" class="graph" transform="scale(1 1) rotate(0) translate(4 244.5)">
<title>btf::Events</title>
<polygon fill="white" stroke="transparent" points="-4,4 -4,-244.5 544,-244.5 544,4 -4,4"/>
<!-- Node1 -->
<g id="node1" class="node">
<title>Node1</title>
<g id="a_node1"><a xlink:title="Default Constructor which is assumed to be a BtfEntry with a Core event.">
<polygon fill="#bfbfbf" stroke="black" points="478,-107 478,-126 540,-126 540,-107 478,-107"/>
<text text-anchor="middle" x="509" y="-114" font-family="Helvetica,sans-Serif" font-size="10.00">btf::Events</text>
</a>
</g>
</g>
<!-- Node2 -->
<g id="node2" class="node">
<title>Node2</title>
<g id="a_node2"><a xlink:href="classbtf_1_1_btf_file.html#ac5d7ec6b90a8f97ccfb08a725c84b242" target="_top" xlink:title="Emits a comment.">
<polygon fill="white" stroke="black" points="324.5,-202 324.5,-221 431.5,-221 431.5,-202 324.5,-202"/>
<text text-anchor="middle" x="378" y="-209" font-family="Helvetica,sans-Serif" font-size="10.00">btf::BtfFile::comment</text>
</a>
</g>
</g>
<!-- Node1&#45;&gt;Node2 -->
<g id="edge1" class="edge">
<title>Node1&#45;&gt;Node2</title>
<path fill="none" stroke="midnightblue" d="M496.53,-134.86C484.83,-152.14 465.15,-177.52 442,-192.5 436.05,-196.35 429.29,-199.45 422.46,-201.93"/>
<polygon fill="midnightblue" stroke="midnightblue" points="499.64,-136.5 502.18,-126.22 493.78,-132.68 499.64,-136.5"/>
</g>
<!-- Node5 -->
<g id="node5" class="node">
<title>Node5</title>
<g id="a_node5"><a xlink:href="classbtf_1_1_btf_file.html#a67251691e4a66475a4a5a1206687247d" target="_top" xlink:title="Emits an OS event.">
<polygon fill="white" stroke="black" points="327.5,-164 327.5,-183 428.5,-183 428.5,-164 327.5,-164"/>
<text text-anchor="middle" x="378" y="-171" font-family="Helvetica,sans-Serif" font-size="10.00">btf::BtfFile::osEvent</text>
</a>
</g>
</g>
<!-- Node1&#45;&gt;Node5 -->
<g id="edge5" class="edge">
<title>Node1&#45;&gt;Node5</title>
<path fill="none" stroke="midnightblue" d="M484.83,-131.59C472.47,-139.19 456.8,-148.11 442,-154.5 433.71,-158.08 424.54,-161.26 415.82,-163.94"/>
<polygon fill="midnightblue" stroke="midnightblue" points="486.96,-134.39 493.56,-126.11 483.23,-128.46 486.96,-134.39"/>
</g>
<!-- Node6 -->
<g id="node6" class="node">
<title>Node6</title>
<g id="a_node6"><a xlink:href="classbtf_1_1_btf_file.html#a896b211a7dc7ae186bc40def24118d63" target="_top" xlink:title="Emits a runnable event (source is a core).">
<polygon fill="white" stroke="black" points="314,-126 314,-145 442,-145 442,-126 314,-126"/>
<text text-anchor="middle" x="378" y="-133" font-family="Helvetica,sans-Serif" font-size="10.00">btf::BtfFile::runnableEvent</text>
</a>
</g>
</g>
<!-- Node1&#45;&gt;Node6 -->
<g id="edge6" class="edge">
<title>Node1&#45;&gt;Node6</title>
<path fill="none" stroke="midnightblue" d="M467.78,-122.42C459.61,-123.63 450.84,-124.92 442.09,-126.21"/>
<polygon fill="midnightblue" stroke="midnightblue" points="468.37,-125.87 477.76,-120.95 467.35,-118.95 468.37,-125.87"/>
</g>
<!-- Node7 -->
<g id="node7" class="node">
<title>Node7</title>
<g id="a_node7"><a xlink:href="classbtf_1_1_btf_file.html#a8b5cdb386d659ce9c1976610184c84b0" target="_top" xlink:title="Emits a signal event (source is a core).">
<polygon fill="white" stroke="black" points="320,-88 320,-107 436,-107 436,-88 320,-88"/>
<text text-anchor="middle" x="378" y="-95" font-family="Helvetica,sans-Serif" font-size="10.00">btf::BtfFile::signalEvent</text>
</a>
</g>
</g>
<!-- Node1&#45;&gt;Node7 -->
<g id="edge7" class="edge">
<title>Node1&#45;&gt;Node7</title>
<path fill="none" stroke="midnightblue" d="M467.71,-110.57C457.7,-109.09 446.79,-107.48 436.15,-105.92"/>
<polygon fill="midnightblue" stroke="midnightblue" points="467.35,-114.05 477.76,-112.05 468.37,-107.13 467.35,-114.05"/>
</g>
<!-- Node8 -->
<g id="node8" class="node">
<title>Node8</title>
<g id="a_node8"><a xlink:href="classbtf_1_1_btf_file.html#a6a833a5294de45b581ce786bb4ca5416" target="_top" xlink:title="Emits a task event (except migration).">
<polygon fill="white" stroke="black" points="323,-50 323,-69 433,-69 433,-50 323,-50"/>
<text text-anchor="middle" x="378" y="-57" font-family="Helvetica,sans-Serif" font-size="10.00">btf::BtfFile::taskEvent</text>
</a>
</g>
</g>
<!-- Node1&#45;&gt;Node8 -->
<g id="edge8" class="edge">
<title>Node1&#45;&gt;Node8</title>
<path fill="none" stroke="midnightblue" d="M484.83,-101.41C472.47,-93.81 456.8,-84.89 442,-78.5 433.71,-74.92 424.54,-71.74 415.82,-69.06"/>
<polygon fill="midnightblue" stroke="midnightblue" points="483.23,-104.54 493.56,-106.89 486.96,-98.61 483.23,-104.54"/>
</g>
<!-- Node9 -->
<g id="node9" class="node">
<title>Node9</title>
<g id="a_node9"><a xlink:href="classbtf_1_1_btf_file.html#a30d8ad8f86ef7f49cc97ce4ff61ab783" target="_top" xlink:title="Emits a task migration event.">
<polygon fill="white" stroke="black" points="315.5,-0.5 315.5,-30.5 440.5,-30.5 440.5,-0.5 315.5,-0.5"/>
<text text-anchor="start" x="323.5" y="-18.5" font-family="Helvetica,sans-Serif" font-size="10.00">btf::BtfFile::taskMigration</text>
<text text-anchor="middle" x="378" y="-7.5" font-family="Helvetica,sans-Serif" font-size="10.00">Event</text>
</a>
</g>
</g>
<!-- Node1&#45;&gt;Node9 -->
<g id="edge9" class="edge">
<title>Node1&#45;&gt;Node9</title>
<path fill="none" stroke="midnightblue" d="M496.05,-98.29C484.12,-81.34 464.37,-56.36 442,-40.5 436.72,-36.76 430.8,-33.47 424.76,-30.61"/>
<polygon fill="midnightblue" stroke="midnightblue" points="493.31,-100.49 501.84,-106.78 499.1,-96.54 493.31,-100.49"/>
</g>
<!-- Node3 -->
<g id="node3" class="node">
<title>Node3</title>
<g id="a_node3"><a xlink:href="classbtf_1_1_btf_file.html#ae1e0e725a1569e510b767acc6ce2d648" target="_top" xlink:title="Appends the data from a BTF file. Currently only import into an empty BTF file is supported.">
<polygon fill="white" stroke="black" points="146,-221 146,-240 278,-240 278,-221 146,-221"/>
<text text-anchor="middle" x="212" y="-228" font-family="Helvetica,sans-Serif" font-size="10.00">btf::BtfFile::importFromFile</text>
</a>
</g>
</g>
<!-- Node2&#45;&gt;Node3 -->
<g id="edge2" class="edge">
<title>Node2&#45;&gt;Node3</title>
<path fill="none" stroke="midnightblue" d="M314.02,-218.8C302.23,-220.16 289.89,-221.59 278.05,-222.96"/>
<polygon fill="midnightblue" stroke="midnightblue" points="314.68,-222.24 324.21,-217.62 313.87,-215.29 314.68,-222.24"/>
</g>
<!-- Node4 -->
<g id="node4" class="node">
<title>Node4</title>
<g id="a_node4"><a xlink:href="libbtf__binding_8cpp.html#adfae743278a01284c171e56ddabf18bd" target="_top" xlink:title="Macro that creates a function that will be called when the module pybtf is imported within python....">
<polygon fill="white" stroke="black" points="0,-202 0,-221 110,-221 110,-202 0,-202"/>
<text text-anchor="middle" x="55" y="-209" font-family="Helvetica,sans-Serif" font-size="10.00">PYBIND11_MODULE</text>
</a>
</g>
</g>
<!-- Node2&#45;&gt;Node4 -->
<g id="edge4" class="edge">
<title>Node2&#45;&gt;Node4</title>
<path fill="none" stroke="midnightblue" d="M314.34,-211.5C254.87,-211.5 166.45,-211.5 110.02,-211.5"/>
<polygon fill="midnightblue" stroke="midnightblue" points="314.35,-215 324.35,-211.5 314.35,-208 314.35,-215"/>
</g>
<!-- Node3&#45;&gt;Node4 -->
<g id="edge3" class="edge">
<title>Node3&#45;&gt;Node4</title>
<path fill="none" stroke="midnightblue" d="M135.74,-221.27C127.2,-220.23 118.63,-219.18 110.43,-218.17"/>
<polygon fill="midnightblue" stroke="midnightblue" points="135.36,-224.75 145.72,-222.5 136.22,-217.81 135.36,-224.75"/>
</g>
</g>
</svg>
