<?xml version="1.0" encoding="UTF-8" standalone="no"?>
<!DOCTYPE svg PUBLIC "-//W3C//DTD SVG 1.1//EN"
 "http://www.w3.org/Graphics/SVG/1.1/DTD/svg11.dtd">
<!-- Generated by graphviz version 2.47.3 (20210619.1520)
 -->
<!-- Title: helper::logging::printWarning Pages: 1 -->
<svg width="626pt" height="79pt"
 viewBox="0.00 0.00 626.00 78.91" xmlns="http://www.w3.org/2000/svg" xmlns:xlink="http://www.w3.org/1999/xlink">
<g id="graph0" class="graph" transform="scale(1 1) rotate(0) translate(4 74.91)">
<title>helper::logging::printWarning</title>
<polygon fill="white" stroke="transparent" points="-4,4 -4,-74.91 622,-74.91 622,4 -4,4"/>
<!-- Node1 -->
<g id="node1" class="node">
<title>Node1</title>
<g id="a_node1"><a xlink:title="Writes a warning message to the log.">
<polygon fill="#bfbfbf" stroke="black" points="478,-38.5 478,-57.5 618,-57.5 618,-38.5 478,-38.5"/>
<text text-anchor="middle" x="548" y="-45.5" font-family="Helvetica,sans-Serif" font-size="10.00">helper::logging::printWarning</text>
</a>
</g>
</g>
<!-- Node2 -->
<g id="node2" class="node">
<title>Node2</title>
<g id="a_node2"><a xlink:href="classbtf_1_1_btf_file.html#ae1e0e725a1569e510b767acc6ce2d648" target="_top" xlink:title="Appends the data from a BTF file. Currently only import into an empty BTF file is supported.">
<polygon fill="white" stroke="black" points="146,-38.5 146,-57.5 278,-57.5 278,-38.5 146,-38.5"/>
<text text-anchor="middle" x="212" y="-45.5" font-family="Helvetica,sans-Serif" font-size="10.00">btf::BtfFile::importFromFile</text>
</a>
</g>
</g>
<!-- Node1&#45;&gt;Node2 -->
<g id="edge1" class="edge">
<title>Node1&#45;&gt;Node2</title>
<path fill="none" stroke="midnightblue" d="M494.24,-59.45C477.61,-62.55 459.11,-65.46 442,-67 385.34,-72.09 370.64,-72.28 314,-67 294.1,-65.14 272.28,-61.28 254.03,-57.51"/>
<polygon fill="midnightblue" stroke="midnightblue" points="495.16,-62.84 504.32,-57.51 493.84,-55.96 495.16,-62.84"/>
</g>
<!-- Node4 -->
<g id="node4" class="node">
<title>Node4</title>
<g id="a_node4"><a xlink:href="libhelper__binding_8h.html#a2c5a40794af354dc9e9ec0a59b15a093" target="_top" xlink:title="Helper function which is called inside the PYBIND11_MODULE macro and adds Python bindings to the C++ ...">
<polygon fill="white" stroke="black" points="171,-0.5 171,-19.5 253,-19.5 253,-0.5 171,-0.5"/>
<text text-anchor="middle" x="212" y="-7.5" font-family="Helvetica,sans-Serif" font-size="10.00">init_pybtfhelper</text>
</a>
</g>
</g>
<!-- Node1&#45;&gt;Node4 -->
<g id="edge3" class="edge">
<title>Node1&#45;&gt;Node4</title>
<path fill="none" stroke="midnightblue" d="M489.88,-36.63C474.39,-33.83 457.59,-31.05 442,-29 376.15,-20.33 299.08,-14.9 253.25,-12.16"/>
<polygon fill="midnightblue" stroke="midnightblue" points="489.38,-40.1 499.85,-38.47 490.65,-33.22 489.38,-40.1"/>
</g>
<!-- Node5 -->
<g id="node5" class="node">
<title>Node5</title>
<g id="a_node5"><a xlink:href="classbtf_1_1_btf_file.html#aad9571cc39c02a1e460e8c913598abb9" target="_top" xlink:title="Emits a stimulus event. See overloaded function for more information.">
<polygon fill="white" stroke="black" points="314,-38.5 314,-57.5 442,-57.5 442,-38.5 314,-38.5"/>
<text text-anchor="middle" x="378" y="-45.5" font-family="Helvetica,sans-Serif" font-size="10.00">btf::BtfFile::stimulusEvent</text>
</a>
</g>
</g>
<!-- Node1&#45;&gt;Node5 -->
<g id="edge5" class="edge">
<title>Node1&#45;&gt;Node5</title>
<path fill="none" stroke="midnightblue" d="M467.43,-48C458.97,-48 450.45,-48 442.22,-48"/>
<polygon fill="midnightblue" stroke="midnightblue" points="467.7,-51.5 477.7,-48 467.7,-44.5 467.7,-51.5"/>
</g>
<!-- Node3 -->
<g id="node3" class="node">
<title>Node3</title>
<g id="a_node3"><a xlink:href="libbtf__binding_8cpp.html#adfae743278a01284c171e56ddabf18bd" target="_top" xlink:title="Macro that creates a function that will be called when the module pybtf is imported within python....">
<polygon fill="white" stroke="black" points="0,-19.5 0,-38.5 110,-38.5 110,-19.5 0,-19.5"/>
<text text-anchor="middle" x="55" y="-26.5" font-family="Helvetica,sans-Serif" font-size="10.00">PYBIND11_MODULE</text>
</a>
</g>
</g>
<!-- Node2&#45;&gt;Node3 -->
<g id="edge2" class="edge">
<title>Node2&#45;&gt;Node3</title>
<path fill="none" stroke="midnightblue" d="M135.74,-38.77C127.2,-37.73 118.63,-36.68 110.43,-35.67"/>
<polygon fill="midnightblue" stroke="midnightblue" points="135.36,-42.25 145.72,-40 136.22,-35.31 135.36,-42.25"/>
</g>
<!-- Node4&#45;&gt;Node3 -->
<g id="edge4" class="edge">
<title>Node4&#45;&gt;Node3</title>
<path fill="none" stroke="midnightblue" d="M160.4,-16.2C144.31,-18.18 126.45,-20.36 110.12,-22.37"/>
<polygon fill="midnightblue" stroke="midnightblue" points="161.18,-19.63 170.68,-14.94 160.33,-12.69 161.18,-19.63"/>
</g>
<!-- Node5&#45;&gt;Node2 -->
<g id="edge6" class="edge">
<title>Node5&#45;&gt;Node2</title>
<path fill="none" stroke="midnightblue" d="M303.4,-48C294.98,-48 286.44,-48 278.13,-48"/>
<polygon fill="midnightblue" stroke="midnightblue" points="303.59,-51.5 313.59,-48 303.59,-44.5 303.59,-51.5"/>
</g>
</g>
</svg>
