<?xml version="1.0" encoding="UTF-8" standalone="no"?>
<!DOCTYPE svg PUBLIC "-//W3C//DTD SVG 1.1//EN"
 "http://www.w3.org/Graphics/SVG/1.1/DTD/svg11.dtd">
<!-- Generated by graphviz version 2.47.3 (20210619.1520)
 -->
<!-- Title: btf::toString Pages: 1 -->
<svg width="225pt" height="66pt"
 viewBox="0.00 0.00 225.00 66.00" xmlns="http://www.w3.org/2000/svg" xmlns:xlink="http://www.w3.org/1999/xlink">
<g id="graph0" class="graph" transform="scale(1 1) rotate(0) translate(4 62)">
<title>btf::toString</title>
<polygon fill="white" stroke="transparent" points="-4,4 -4,-62 221,-62 221,4 -4,4"/>
<!-- Node1 -->
<g id="node1" class="node">
<title>Node1</title>
<g id="a_node1"><a xlink:title="Converts a BtfEntry into string.">
<polygon fill="#bfbfbf" stroke="black" points="0,-19.5 0,-38.5 67,-38.5 67,-19.5 0,-19.5"/>
<text text-anchor="middle" x="33.5" y="-26.5" font-family="Helvetica,sans-Serif" font-size="10.00">btf::toString</text>
</a>
</g>
</g>
<!-- Node2 -->
<g id="node2" class="node">
<title>Node2</title>
<g id="a_node2"><a xlink:href="namespacebtf.html#a6baf1b32b87e1c30ff1ab04904a03490" target="_top" xlink:title="Converts the enum EntityTypes into string.">
<polygon fill="white" stroke="black" points="103,-38.5 103,-57.5 217,-57.5 217,-38.5 103,-38.5"/>
<text text-anchor="middle" x="160" y="-45.5" font-family="Helvetica,sans-Serif" font-size="10.00">btf::entityTypeToString</text>
</a>
</g>
</g>
<!-- Node1&#45;&gt;Node2 -->
<g id="edge1" class="edge">
<title>Node1&#45;&gt;Node2</title>
<path fill="none" stroke="midnightblue" d="M67.21,-33.99C75.17,-35.21 83.96,-36.55 92.86,-37.91"/>
<polygon fill="midnightblue" stroke="midnightblue" points="92.51,-41.39 102.92,-39.44 93.56,-34.47 92.51,-41.39"/>
</g>
<!-- Node3 -->
<g id="node3" class="node">
<title>Node3</title>
<g id="a_node3"><a xlink:href="namespacebtf.html#aaf131b3b38b37d7cd87b82fddcb27e39" target="_top" xlink:title="Converts union Events into string according to the type_ of the BtfEntry.">
<polygon fill="white" stroke="black" points="114,-0.5 114,-19.5 206,-19.5 206,-0.5 114,-0.5"/>
<text text-anchor="middle" x="160" y="-7.5" font-family="Helvetica,sans-Serif" font-size="10.00">btf::eventToString</text>
</a>
</g>
</g>
<!-- Node1&#45;&gt;Node3 -->
<g id="edge2" class="edge">
<title>Node1&#45;&gt;Node3</title>
<path fill="none" stroke="midnightblue" d="M67.21,-24.01C78.47,-22.29 91.4,-20.32 103.94,-18.4"/>
<polygon fill="midnightblue" stroke="midnightblue" points="104.51,-21.86 113.87,-16.89 103.46,-14.94 104.51,-21.86"/>
</g>
</g>
</svg>
