<?xml version="1.0" encoding="UTF-8" standalone="no"?>
<!DOCTYPE svg PUBLIC "-//W3C//DTD SVG 1.1//EN"
 "http://www.w3.org/Graphics/SVG/1.1/DTD/svg11.dtd">
<!-- Generated by graphviz version 2.47.3 (20210619.1520)
 -->
<!-- Title: helper::logging::printError Pages: 1 -->
<svg width="468pt" height="186pt"
 viewBox="0.00 0.00 468.00 186.00" xmlns="http://www.w3.org/2000/svg" xmlns:xlink="http://www.w3.org/1999/xlink">
<g id="graph0" class="graph" transform="scale(1 1) rotate(0) translate(4 182)">
<title>helper::logging::printError</title>
<polygon fill="white" stroke="transparent" points="-4,4 -4,-182 464,-182 464,4 -4,4"/>
<!-- Node1 -->
<g id="node1" class="node">
<title>Node1</title>
<g id="a_node1"><a xlink:title="Writes an error message to the log.">
<polygon fill="#bfbfbf" stroke="black" points="0,-79 0,-98 125,-98 125,-79 0,-79"/>
<text text-anchor="middle" x="62.5" y="-86" font-family="Helvetica,sans-Serif" font-size="10.00">helper::logging::printError</text>
</a>
</g>
</g>
<!-- Node2 -->
<g id="node2" class="node">
<title>Node2</title>
<g id="a_node2"><a xlink:href="namespacehelper_1_1logging.html#aadee8ee5d31250ae8288888fa86814a3" target="_top" xlink:title="Prints a log message to the log.">
<polygon fill="white" stroke="black" points="161,-79 161,-98 281,-98 281,-79 161,-79"/>
<text text-anchor="middle" x="221" y="-86" font-family="Helvetica,sans-Serif" font-size="10.00">helper::logging::printLog</text>
</a>
</g>
</g>
<!-- Node1&#45;&gt;Node2 -->
<g id="edge1" class="edge">
<title>Node1&#45;&gt;Node2</title>
<path fill="none" stroke="midnightblue" d="M125.35,-88.5C133.67,-88.5 142.26,-88.5 150.7,-88.5"/>
<polygon fill="midnightblue" stroke="midnightblue" points="150.89,-92 160.89,-88.5 150.89,-85 150.89,-92"/>
</g>
<!-- Node3 -->
<g id="node3" class="node">
<title>Node3</title>
<g id="a_node3"><a xlink:href="classhelper_1_1logging_1_1_global_logger.html#a080a88af50f5861331d887d02324e9c2" target="_top" xlink:title="Gets the logger (ostream).">
<polygon fill="white" stroke="black" points="317,-147.5 317,-177.5 460,-177.5 460,-147.5 317,-147.5"/>
<text text-anchor="start" x="325" y="-165.5" font-family="Helvetica,sans-Serif" font-size="10.00">helper::logging::GlobalLogger</text>
<text text-anchor="middle" x="388.5" y="-154.5" font-family="Helvetica,sans-Serif" font-size="10.00">::getLogger</text>
</a>
</g>
</g>
<!-- Node2&#45;&gt;Node3 -->
<g id="edge2" class="edge">
<title>Node2&#45;&gt;Node3</title>
<path fill="none" stroke="midnightblue" d="M238.43,-98.16C257.07,-108.88 288.58,-126.27 317,-138.5 321.37,-140.38 325.94,-142.22 330.57,-143.98"/>
<polygon fill="midnightblue" stroke="midnightblue" points="329.5,-147.32 340.09,-147.5 331.92,-140.75 329.5,-147.32"/>
</g>
<!-- Node4 -->
<g id="node4" class="node">
<title>Node4</title>
<g id="a_node4"><a xlink:href="classhelper_1_1logging_1_1_global_logger.html#a956281901fd88046239494c600e3c5e5" target="_top" xlink:title="Gets the null logger (ostream).">
<polygon fill="white" stroke="black" points="317,-98.5 317,-128.5 460,-128.5 460,-98.5 317,-98.5"/>
<text text-anchor="start" x="325" y="-116.5" font-family="Helvetica,sans-Serif" font-size="10.00">helper::logging::GlobalLogger</text>
<text text-anchor="middle" x="388.5" y="-105.5" font-family="Helvetica,sans-Serif" font-size="10.00">::getNullLogger</text>
</a>
</g>
</g>
<!-- Node2&#45;&gt;Node4 -->
<g id="edge3" class="edge">
<title>Node2&#45;&gt;Node4</title>
<path fill="none" stroke="midnightblue" d="M281.28,-97.45C289.55,-98.7 298.16,-100 306.73,-101.3"/>
<polygon fill="midnightblue" stroke="midnightblue" points="306.36,-104.78 316.77,-102.82 307.4,-97.86 306.36,-104.78"/>
</g>
<!-- Node5 -->
<g id="node5" class="node">
<title>Node5</title>
<g id="a_node5"><a xlink:href="namespacehelper_1_1logging.html#a69b892408158ee6bed51c5aafa694af7" target="_top" xlink:title="Converts the enum LogLevel into string.">
<polygon fill="white" stroke="black" points="328.5,-49.5 328.5,-79.5 448.5,-79.5 448.5,-49.5 328.5,-49.5"/>
<text text-anchor="start" x="336.5" y="-67.5" font-family="Helvetica,sans-Serif" font-size="10.00">helper::logging::logLevel</text>
<text text-anchor="middle" x="388.5" y="-56.5" font-family="Helvetica,sans-Serif" font-size="10.00">ToString</text>
</a>
</g>
</g>
<!-- Node2&#45;&gt;Node5 -->
<g id="edge4" class="edge">
<title>Node2&#45;&gt;Node5</title>
<path fill="none" stroke="midnightblue" d="M281.28,-79.9C293.24,-78.17 305.91,-76.33 318.17,-74.55"/>
<polygon fill="midnightblue" stroke="midnightblue" points="318.96,-77.98 328.35,-73.08 317.96,-71.05 318.96,-77.98"/>
</g>
<!-- Node6 -->
<g id="node6" class="node">
<title>Node6</title>
<g id="a_node6"><a xlink:href="namespacehelper_1_1logging.html#a33b1f83f96be6edb81fa28ddba33179d" target="_top" xlink:title="Gets the source file name out of the path.">
<polygon fill="white" stroke="black" points="321,-0.5 321,-30.5 456,-30.5 456,-0.5 321,-0.5"/>
<text text-anchor="start" x="329" y="-18.5" font-family="Helvetica,sans-Serif" font-size="10.00">helper::logging::stripSource</text>
<text text-anchor="middle" x="388.5" y="-7.5" font-family="Helvetica,sans-Serif" font-size="10.00">FileName</text>
</a>
</g>
</g>
<!-- Node2&#45;&gt;Node6 -->
<g id="edge5" class="edge">
<title>Node2&#45;&gt;Node6</title>
<path fill="none" stroke="midnightblue" d="M239.19,-78.98C257.99,-68.77 289.14,-52.42 317,-40.5 322.07,-38.33 327.41,-36.19 332.77,-34.13"/>
<polygon fill="midnightblue" stroke="midnightblue" points="334.28,-37.31 342.42,-30.52 331.82,-30.75 334.28,-37.31"/>
</g>
</g>
</svg>
