<?xml version="1.0" encoding="UTF-8" standalone="no"?>
<!DOCTYPE svg PUBLIC "-//W3C//DTD SVG 1.1//EN"
 "http://www.w3.org/Graphics/SVG/1.1/DTD/svg11.dtd">
<!-- Generated by graphviz version 2.47.3 (20210619.1520)
 -->
<!-- Title: helper::logging::printWarning Pages: 1 -->
<svg width="483pt" height="186pt"
 viewBox="0.00 0.00 483.00 186.00" xmlns="http://www.w3.org/2000/svg" xmlns:xlink="http://www.w3.org/1999/xlink">
<g id="graph0" class="graph" transform="scale(1 1) rotate(0) translate(4 182)">
<title>helper::logging::printWarning</title>
<polygon fill="white" stroke="transparent" points="-4,4 -4,-182 479,-182 479,4 -4,4"/>
<!-- Node1 -->
<g id="node1" class="node">
<title>Node1</title>
<g id="a_node1"><a xlink:title="Writes a warning message to the log.">
<polygon fill="#bfbfbf" stroke="black" points="0,-79 0,-98 140,-98 140,-79 0,-79"/>
<text text-anchor="middle" x="70" y="-86" font-family="Helvetica,sans-Serif" font-size="10.00">helper::logging::printWarning</text>
</a>
</g>
</g>
<!-- Node2 -->
<g id="node2" class="node">
<title>Node2</title>
<g id="a_node2"><a xlink:href="namespacehelper_1_1logging.html#aadee8ee5d31250ae8288888fa86814a3" target="_top" xlink:title="Prints a log message to the log.">
<polygon fill="white" stroke="black" points="176,-79 176,-98 296,-98 296,-79 176,-79"/>
<text text-anchor="middle" x="236" y="-86" font-family="Helvetica,sans-Serif" font-size="10.00">helper::logging::printLog</text>
</a>
</g>
</g>
<!-- Node1&#45;&gt;Node2 -->
<g id="edge1" class="edge">
<title>Node1&#45;&gt;Node2</title>
<path fill="none" stroke="midnightblue" d="M140.08,-88.5C148.54,-88.5 157.19,-88.5 165.66,-88.5"/>
<polygon fill="midnightblue" stroke="midnightblue" points="165.87,-92 175.87,-88.5 165.87,-85 165.87,-92"/>
</g>
<!-- Node3 -->
<g id="node3" class="node">
<title>Node3</title>
<g id="a_node3"><a xlink:href="classhelper_1_1logging_1_1_global_logger.html#a080a88af50f5861331d887d02324e9c2" target="_top" xlink:title="Gets the logger (ostream).">
<polygon fill="white" stroke="black" points="332,-147.5 332,-177.5 475,-177.5 475,-147.5 332,-147.5"/>
<text text-anchor="start" x="340" y="-165.5" font-family="Helvetica,sans-Serif" font-size="10.00">helper::logging::GlobalLogger</text>
<text text-anchor="middle" x="403.5" y="-154.5" font-family="Helvetica,sans-Serif" font-size="10.00">::getLogger</text>
</a>
</g>
</g>
<!-- Node2&#45;&gt;Node3 -->
<g id="edge2" class="edge">
<title>Node2&#45;&gt;Node3</title>
<path fill="none" stroke="midnightblue" d="M253.43,-98.16C272.07,-108.88 303.58,-126.27 332,-138.5 336.37,-140.38 340.94,-142.22 345.57,-143.98"/>
<polygon fill="midnightblue" stroke="midnightblue" points="344.5,-147.32 355.09,-147.5 346.92,-140.75 344.5,-147.32"/>
</g>
<!-- Node4 -->
<g id="node4" class="node">
<title>Node4</title>
<g id="a_node4"><a xlink:href="classhelper_1_1logging_1_1_global_logger.html#a956281901fd88046239494c600e3c5e5" target="_top" xlink:title="Gets the null logger (ostream).">
<polygon fill="white" stroke="black" points="332,-98.5 332,-128.5 475,-128.5 475,-98.5 332,-98.5"/>
<text text-anchor="start" x="340" y="-116.5" font-family="Helvetica,sans-Serif" font-size="10.00">helper::logging::GlobalLogger</text>
<text text-anchor="middle" x="403.5" y="-105.5" font-family="Helvetica,sans-Serif" font-size="10.00">::getNullLogger</text>
</a>
</g>
</g>
<!-- Node2&#45;&gt;Node4 -->
<g id="edge3" class="edge">
<title>Node2&#45;&gt;Node4</title>
<path fill="none" stroke="midnightblue" d="M296.28,-97.45C304.55,-98.7 313.16,-100 321.73,-101.3"/>
<polygon fill="midnightblue" stroke="midnightblue" points="321.36,-104.78 331.77,-102.82 322.4,-97.86 321.36,-104.78"/>
</g>
<!-- Node5 -->
<g id="node5" class="node">
<title>Node5</title>
<g id="a_node5"><a xlink:href="namespacehelper_1_1logging.html#a69b892408158ee6bed51c5aafa694af7" target="_top" xlink:title="Converts the enum LogLevel into string.">
<polygon fill="white" stroke="black" points="343.5,-49.5 343.5,-79.5 463.5,-79.5 463.5,-49.5 343.5,-49.5"/>
<text text-anchor="start" x="351.5" y="-67.5" font-family="Helvetica,sans-Serif" font-size="10.00">helper::logging::logLevel</text>
<text text-anchor="middle" x="403.5" y="-56.5" font-family="Helvetica,sans-Serif" font-size="10.00">ToString</text>
</a>
</g>
</g>
<!-- Node2&#45;&gt;Node5 -->
<g id="edge4" class="edge">
<title>Node2&#45;&gt;Node5</title>
<path fill="none" stroke="midnightblue" d="M296.28,-79.9C308.24,-78.17 320.91,-76.33 333.17,-74.55"/>
<polygon fill="midnightblue" stroke="midnightblue" points="333.96,-77.98 343.35,-73.08 332.96,-71.05 333.96,-77.98"/>
</g>
<!-- Node6 -->
<g id="node6" class="node">
<title>Node6</title>
<g id="a_node6"><a xlink:href="namespacehelper_1_1logging.html#a33b1f83f96be6edb81fa28ddba33179d" target="_top" xlink:title="Gets the source file name out of the path.">
<polygon fill="white" stroke="black" points="336,-0.5 336,-30.5 471,-30.5 471,-0.5 336,-0.5"/>
<text text-anchor="start" x="344" y="-18.5" font-family="Helvetica,sans-Serif" font-size="10.00">helper::logging::stripSource</text>
<text text-anchor="middle" x="403.5" y="-7.5" font-family="Helvetica,sans-Serif" font-size="10.00">FileName</text>
</a>
</g>
</g>
<!-- Node2&#45;&gt;Node6 -->
<g id="edge5" class="edge">
<title>Node2&#45;&gt;Node6</title>
<path fill="none" stroke="midnightblue" d="M254.19,-78.98C272.99,-68.77 304.14,-52.42 332,-40.5 337.07,-38.33 342.41,-36.19 347.77,-34.13"/>
<polygon fill="midnightblue" stroke="midnightblue" points="349.28,-37.31 357.42,-30.52 346.82,-30.75 349.28,-37.31"/>
</g>
</g>
</svg>
