<?xml version="1.0" encoding="UTF-8" standalone="no"?>
<!DOCTYPE svg PUBLIC "-//W3C//DTD SVG 1.1//EN"
 "http://www.w3.org/Graphics/SVG/1.1/DTD/svg11.dtd">
<!-- Generated by graphviz version 2.47.3 (20210619.1520)
 -->
<!-- Title: helper::logging::initLogging Pages: 1 -->
<svg width="498pt" height="39pt"
 viewBox="0.00 0.00 498.00 39.00" xmlns="http://www.w3.org/2000/svg" xmlns:xlink="http://www.w3.org/1999/xlink">
<g id="graph0" class="graph" transform="scale(1 1) rotate(0) translate(4 35)">
<title>helper::logging::initLogging</title>
<polygon fill="white" stroke="transparent" points="-4,4 -4,-35 494,-35 494,4 -4,4"/>
<!-- Node1 -->
<g id="node1" class="node">
<title>Node1</title>
<g id="a_node1"><a xlink:title="Initalizes the logging feature.">
<polygon fill="#bfbfbf" stroke="black" points="0,-6 0,-25 132,-25 132,-6 0,-6"/>
<text text-anchor="middle" x="66" y="-13" font-family="Helvetica,sans-Serif" font-size="10.00">helper::logging::initLogging</text>
</a>
</g>
</g>
<!-- Node2 -->
<g id="node2" class="node">
<title>Node2</title>
<g id="a_node2"><a xlink:href="classhelper_1_1logging_1_1_global_logger.html#ac56da8e28a4323e5a378ae85254ccb95" target="_top" xlink:title="Opens the log file.">
<polygon fill="white" stroke="black" points="168,-0.5 168,-30.5 311,-30.5 311,-0.5 168,-0.5"/>
<text text-anchor="start" x="176" y="-18.5" font-family="Helvetica,sans-Serif" font-size="10.00">helper::logging::GlobalLogger</text>
<text text-anchor="middle" x="239.5" y="-7.5" font-family="Helvetica,sans-Serif" font-size="10.00">::openLogFile</text>
</a>
</g>
</g>
<!-- Node1&#45;&gt;Node2 -->
<g id="edge1" class="edge">
<title>Node1&#45;&gt;Node2</title>
<path fill="none" stroke="midnightblue" d="M132.33,-15.5C140.69,-15.5 149.34,-15.5 157.91,-15.5"/>
<polygon fill="midnightblue" stroke="midnightblue" points="157.93,-19 167.93,-15.5 157.93,-12 157.93,-19"/>
</g>
<!-- Node3 -->
<g id="node3" class="node">
<title>Node3</title>
<g id="a_node3"><a xlink:href="classhelper_1_1logging_1_1_global_logger.html#a5427682435207fff8480cf8b9ce3e178" target="_top" xlink:title="Closes the log file.">
<polygon fill="white" stroke="black" points="347,-0.5 347,-30.5 490,-30.5 490,-0.5 347,-0.5"/>
<text text-anchor="start" x="355" y="-18.5" font-family="Helvetica,sans-Serif" font-size="10.00">helper::logging::GlobalLogger</text>
<text text-anchor="middle" x="418.5" y="-7.5" font-family="Helvetica,sans-Serif" font-size="10.00">::closeLogFile</text>
</a>
</g>
</g>
<!-- Node2&#45;&gt;Node3 -->
<g id="edge2" class="edge">
<title>Node2&#45;&gt;Node3</title>
<path fill="none" stroke="midnightblue" d="M311.22,-15.5C319.57,-15.5 328.14,-15.5 336.62,-15.5"/>
<polygon fill="midnightblue" stroke="midnightblue" points="336.89,-19 346.89,-15.5 336.89,-12 336.89,-19"/>
</g>
</g>
</svg>
