<?xml version="1.0" encoding="UTF-8" standalone="no"?>
<!DOCTYPE svg PUBLIC "-//W3C//DTD SVG 1.1//EN"
 "http://www.w3.org/Graphics/SVG/1.1/DTD/svg11.dtd">
<!-- Generated by graphviz version 2.47.3 (20210619.1520)
 -->
<!-- Title: helper::logging::initLogging Pages: 1 -->
<svg width="404pt" height="28pt"
 viewBox="0.00 0.00 404.00 28.00" xmlns="http://www.w3.org/2000/svg" xmlns:xlink="http://www.w3.org/1999/xlink">
<g id="graph0" class="graph" transform="scale(1 1) rotate(0) translate(4 24)">
<title>helper::logging::initLogging</title>
<polygon fill="white" stroke="transparent" points="-4,4 -4,-24 400,-24 400,4 -4,4"/>
<!-- Node1 -->
<g id="node1" class="node">
<title>Node1</title>
<g id="a_node1"><a xlink:title="Initalizes the logging feature.">
<polygon fill="#bfbfbf" stroke="black" points="264,-0.5 264,-19.5 396,-19.5 396,-0.5 264,-0.5"/>
<text text-anchor="middle" x="330" y="-7.5" font-family="Helvetica,sans-Serif" font-size="10.00">helper::logging::initLogging</text>
</a>
</g>
</g>
<!-- Node2 -->
<g id="node2" class="node">
<title>Node2</title>
<g id="a_node2"><a xlink:href="libhelper__binding_8h.html#a2c5a40794af354dc9e9ec0a59b15a093" target="_top" xlink:title="Helper function which is called inside the PYBIND11_MODULE macro and adds Python bindings to the C++ ...">
<polygon fill="white" stroke="black" points="146,-0.5 146,-19.5 228,-19.5 228,-0.5 146,-0.5"/>
<text text-anchor="middle" x="187" y="-7.5" font-family="Helvetica,sans-Serif" font-size="10.00">init_pybtfhelper</text>
</a>
</g>
</g>
<!-- Node1&#45;&gt;Node2 -->
<g id="edge1" class="edge">
<title>Node1&#45;&gt;Node2</title>
<path fill="none" stroke="midnightblue" d="M253.62,-10C244.9,-10 236.29,-10 228.3,-10"/>
<polygon fill="midnightblue" stroke="midnightblue" points="253.87,-13.5 263.87,-10 253.87,-6.5 253.87,-13.5"/>
</g>
<!-- Node3 -->
<g id="node3" class="node">
<title>Node3</title>
<g id="a_node3"><a xlink:href="libbtf__binding_8cpp.html#adfae743278a01284c171e56ddabf18bd" target="_top" xlink:title="Macro that creates a function that will be called when the module pybtf is imported within python....">
<polygon fill="white" stroke="black" points="0,-0.5 0,-19.5 110,-19.5 110,-0.5 0,-0.5"/>
<text text-anchor="middle" x="55" y="-7.5" font-family="Helvetica,sans-Serif" font-size="10.00">PYBIND11_MODULE</text>
</a>
</g>
</g>
<!-- Node2&#45;&gt;Node3 -->
<g id="edge2" class="edge">
<title>Node2&#45;&gt;Node3</title>
<path fill="none" stroke="midnightblue" d="M135.84,-10C127.39,-10 118.59,-10 110.04,-10"/>
<polygon fill="midnightblue" stroke="midnightblue" points="135.93,-13.5 145.93,-10 135.93,-6.5 135.93,-13.5"/>
</g>
</g>
</svg>
