<?xml version="1.0" encoding="UTF-8" standalone="no"?>
<!DOCTYPE svg PUBLIC "-//W3C//DTD SVG 1.1//EN"
 "http://www.w3.org/Graphics/SVG/1.1/DTD/svg11.dtd">
<!-- Generated by graphviz version 2.47.3 (20210619.1520)
 -->
<!-- Title: src/libBtf/include/btf/process.h Pages: 1 -->
<svg width="310pt" height="173pt"
 viewBox="0.00 0.00 310.00 173.00" xmlns="http://www.w3.org/2000/svg" xmlns:xlink="http://www.w3.org/1999/xlink">
<g id="graph0" class="graph" transform="scale(1 1) rotate(0) translate(4 169)">
<title>src/libBtf/include/btf/process.h</title>
<polygon fill="white" stroke="transparent" points="-4,4 -4,-169 306,-169 306,4 -4,4"/>
<!-- Node1 -->
<g id="node1" class="node">
<title>Node1</title>
<g id="a_node1"><a xlink:title=" ">
<polygon fill="#bfbfbf" stroke="black" points="129.5,-134.5 129.5,-164.5 218.5,-164.5 218.5,-134.5 129.5,-134.5"/>
<text text-anchor="start" x="137.5" y="-152.5" font-family="Helvetica,sans-Serif" font-size="10.00">src/libBtf/include</text>
<text text-anchor="middle" x="174" y="-141.5" font-family="Helvetica,sans-Serif" font-size="10.00">/btf/process.h</text>
</a>
</g>
</g>
<!-- Node2 -->
<g id="node2" class="node">
<title>Node2</title>
<g id="a_node2"><a xlink:href="btf_8h.html" target="_top" xlink:title=" ">
<polygon fill="white" stroke="black" points="66.5,-67.5 66.5,-97.5 155.5,-97.5 155.5,-67.5 66.5,-67.5"/>
<text text-anchor="start" x="74.5" y="-85.5" font-family="Helvetica,sans-Serif" font-size="10.00">src/libBtf/include</text>
<text text-anchor="middle" x="111" y="-74.5" font-family="Helvetica,sans-Serif" font-size="10.00">/btf/btf.h</text>
</a>
</g>
</g>
<!-- Node1&#45;&gt;Node2 -->
<g id="edge1" class="edge">
<title>Node1&#45;&gt;Node2</title>
<path fill="none" stroke="midnightblue" d="M153.19,-127.02C143.8,-117.34 132.98,-106.17 124.64,-97.58"/>
<polygon fill="midnightblue" stroke="midnightblue" points="150.86,-129.65 160.33,-134.4 155.88,-124.78 150.86,-129.65"/>
</g>
<!-- Node5 -->
<g id="node5" class="node">
<title>Node5</title>
<g id="a_node5"><a xlink:href="process_8cpp.html" target="_top" xlink:title=" ">
<polygon fill="white" stroke="black" points="174,-73 174,-92 302,-92 302,-73 174,-73"/>
<text text-anchor="middle" x="238" y="-80" font-family="Helvetica,sans-Serif" font-size="10.00">src/libBtf/src/process.cpp</text>
</a>
</g>
</g>
<!-- Node1&#45;&gt;Node5 -->
<g id="edge4" class="edge">
<title>Node1&#45;&gt;Node5</title>
<path fill="none" stroke="midnightblue" d="M195.17,-127C206.85,-115.13 220.72,-101.05 229.44,-92.19"/>
<polygon fill="midnightblue" stroke="midnightblue" points="192.41,-124.81 187.89,-134.4 197.4,-129.73 192.41,-124.81"/>
</g>
<!-- Node3 -->
<g id="node3" class="node">
<title>Node3</title>
<g id="a_node3"><a xlink:href="btf_8cpp.html" target="_top" xlink:title=" ">
<polygon fill="white" stroke="black" points="0,-6 0,-25 104,-25 104,-6 0,-6"/>
<text text-anchor="middle" x="52" y="-13" font-family="Helvetica,sans-Serif" font-size="10.00">src/libBtf/src/btf.cpp</text>
</a>
</g>
</g>
<!-- Node2&#45;&gt;Node3 -->
<g id="edge2" class="edge">
<title>Node2&#45;&gt;Node3</title>
<path fill="none" stroke="midnightblue" d="M91.17,-59.66C80.47,-47.86 67.85,-33.97 59.89,-25.19"/>
<polygon fill="midnightblue" stroke="midnightblue" points="88.89,-62.34 98.2,-67.4 94.07,-57.64 88.89,-62.34"/>
</g>
<!-- Node4 -->
<g id="node4" class="node">
<title>Node4</title>
<g id="a_node4"><a xlink:href="libbtf__binding_8cpp.html" target="_top" xlink:title=" ">
<polygon fill="white" stroke="black" points="122,-0.5 122,-30.5 218,-30.5 218,-0.5 122,-0.5"/>
<text text-anchor="start" x="130" y="-18.5" font-family="Helvetica,sans-Serif" font-size="10.00">src/pybindings/src</text>
<text text-anchor="middle" x="170" y="-7.5" font-family="Helvetica,sans-Serif" font-size="10.00">/libbtf_binding.cpp</text>
</a>
</g>
</g>
<!-- Node2&#45;&gt;Node4 -->
<g id="edge3" class="edge">
<title>Node2&#45;&gt;Node4</title>
<path fill="none" stroke="midnightblue" d="M130.75,-59.74C139.48,-50.12 149.5,-39.09 157.22,-30.58"/>
<polygon fill="midnightblue" stroke="midnightblue" points="127.93,-57.64 123.8,-67.4 133.11,-62.34 127.93,-57.64"/>
</g>
</g>
</svg>
