<?xml version="1.0" encoding="UTF-8" standalone="no"?>
<!DOCTYPE svg PUBLIC "-//W3C//DTD SVG 1.1//EN"
 "http://www.w3.org/Graphics/SVG/1.1/DTD/svg11.dtd">
<!-- Generated by graphviz version 2.47.3 (20210619.1520)
 -->
<!-- Title: src/libBtf/include/btf/process.h Pages: 1 -->
<svg width="292pt" height="263pt"
 viewBox="0.00 0.00 292.00 263.00" xmlns="http://www.w3.org/2000/svg" xmlns:xlink="http://www.w3.org/1999/xlink">
<g id="graph0" class="graph" transform="scale(1 1) rotate(0) translate(4 259)">
<title>src/libBtf/include/btf/process.h</title>
<polygon fill="white" stroke="transparent" points="-4,4 -4,-259 288,-259 288,4 -4,4"/>
<!-- Node1 -->
<g id="node1" class="node">
<title>Node1</title>
<g id="a_node1"><a xlink:title=" ">
<polygon fill="#bfbfbf" stroke="black" points="75,-224.5 75,-254.5 164,-254.5 164,-224.5 75,-224.5"/>
<text text-anchor="start" x="83" y="-242.5" font-family="Helvetica,sans-Serif" font-size="10.00">src/libBtf/include</text>
<text text-anchor="middle" x="119.5" y="-231.5" font-family="Helvetica,sans-Serif" font-size="10.00">/btf/process.h</text>
</a>
</g>
</g>
<!-- Node2 -->
<g id="node2" class="node">
<title>Node2</title>
<g id="a_node2"><a xlink:href="btf__entity__types_8h.html" target="_top" xlink:title=" ">
<polygon fill="white" stroke="black" points="24.5,-168.5 24.5,-187.5 118.5,-187.5 118.5,-168.5 24.5,-168.5"/>
<text text-anchor="middle" x="71.5" y="-175.5" font-family="Helvetica,sans-Serif" font-size="10.00">btf_entity_types.h</text>
</a>
</g>
</g>
<!-- Node1&#45;&gt;Node2 -->
<g id="edge1" class="edge">
<title>Node1&#45;&gt;Node2</title>
<path fill="none" stroke="midnightblue" d="M108.12,-224.4C101.15,-215.75 92.19,-204.64 84.87,-195.58"/>
<polygon fill="midnightblue" stroke="midnightblue" points="87.49,-193.24 78.48,-187.66 82.04,-197.64 87.49,-193.24"/>
</g>
<!-- Node5 -->
<g id="node5" class="node">
<title>Node5</title>
<g id="a_node5"><a xlink:href="common_8h.html" target="_top" xlink:title=" ">
<polygon fill="white" stroke="black" points="136.5,-168.5 136.5,-187.5 198.5,-187.5 198.5,-168.5 136.5,-168.5"/>
<text text-anchor="middle" x="167.5" y="-175.5" font-family="Helvetica,sans-Serif" font-size="10.00">common.h</text>
</a>
</g>
</g>
<!-- Node1&#45;&gt;Node5 -->
<g id="edge4" class="edge">
<title>Node1&#45;&gt;Node5</title>
<path fill="none" stroke="midnightblue" d="M130.88,-224.4C137.85,-215.75 146.81,-204.64 154.13,-195.58"/>
<polygon fill="midnightblue" stroke="midnightblue" points="156.96,-197.64 160.52,-187.66 151.51,-193.24 156.96,-197.64"/>
</g>
<!-- Node3 -->
<g id="node3" class="node">
<title>Node3</title>
<g id="a_node3"><a xlink:title=" ">
<polygon fill="white" stroke="#bfbfbf" points="0,-0.5 0,-19.5 41,-19.5 41,-0.5 0,-0.5"/>
<text text-anchor="middle" x="20.5" y="-7.5" font-family="Helvetica,sans-Serif" font-size="10.00">string</text>
</a>
</g>
</g>
<!-- Node2&#45;&gt;Node3 -->
<g id="edge2" class="edge">
<title>Node2&#45;&gt;Node3</title>
<path fill="none" stroke="midnightblue" d="M63.25,-168.49C55.53,-159.98 44.32,-146.16 38.5,-132 24.41,-97.75 21.16,-54.01 20.53,-29.61"/>
<polygon fill="midnightblue" stroke="midnightblue" points="24.03,-29.53 20.39,-19.58 17.03,-29.63 24.03,-29.53"/>
</g>
<!-- Node4 -->
<g id="node4" class="node">
<title>Node4</title>
<g id="a_node4"><a xlink:title=" ">
<polygon fill="white" stroke="#bfbfbf" points="47.5,-112.5 47.5,-131.5 125.5,-131.5 125.5,-112.5 47.5,-112.5"/>
<text text-anchor="middle" x="86.5" y="-119.5" font-family="Helvetica,sans-Serif" font-size="10.00">unordered_set</text>
</a>
</g>
</g>
<!-- Node2&#45;&gt;Node4 -->
<g id="edge3" class="edge">
<title>Node2&#45;&gt;Node4</title>
<path fill="none" stroke="midnightblue" d="M73.98,-168.08C75.99,-160.85 78.89,-150.41 81.39,-141.4"/>
<polygon fill="midnightblue" stroke="midnightblue" points="84.76,-142.32 84.07,-131.75 78.02,-140.45 84.76,-142.32"/>
</g>
<!-- Node6 -->
<g id="node6" class="node">
<title>Node6</title>
<g id="a_node6"><a xlink:title=" ">
<polygon fill="white" stroke="#bfbfbf" points="126.5,-0.5 126.5,-19.5 180.5,-19.5 180.5,-0.5 126.5,-0.5"/>
<text text-anchor="middle" x="153.5" y="-7.5" font-family="Helvetica,sans-Serif" font-size="10.00">iostream</text>
</a>
</g>
</g>
<!-- Node5&#45;&gt;Node6 -->
<g id="edge5" class="edge">
<title>Node5&#45;&gt;Node6</title>
<path fill="none" stroke="midnightblue" d="M166.75,-168.08C164.54,-141.95 158.07,-65.21 155.07,-29.58"/>
<polygon fill="midnightblue" stroke="midnightblue" points="158.55,-29.24 154.22,-19.57 151.58,-29.83 158.55,-29.24"/>
</g>
<!-- Node7 -->
<g id="node7" class="node">
<title>Node7</title>
<g id="a_node7"><a xlink:href="helper_8h.html" target="_top" xlink:title=" ">
<polygon fill="white" stroke="black" points="181.5,-112.5 181.5,-131.5 261.5,-131.5 261.5,-112.5 181.5,-112.5"/>
<text text-anchor="middle" x="221.5" y="-119.5" font-family="Helvetica,sans-Serif" font-size="10.00">helper/helper.h</text>
</a>
</g>
</g>
<!-- Node5&#45;&gt;Node7 -->
<g id="edge6" class="edge">
<title>Node5&#45;&gt;Node7</title>
<path fill="none" stroke="midnightblue" d="M176.42,-168.08C184.28,-160.22 195.93,-148.57 205.42,-139.08"/>
<polygon fill="midnightblue" stroke="midnightblue" points="208.15,-141.3 212.75,-131.75 203.2,-136.35 208.15,-141.3"/>
</g>
<!-- Node8 -->
<g id="node8" class="node">
<title>Node8</title>
<g id="a_node8"><a xlink:href="logging_8h.html" target="_top" xlink:title=" ">
<polygon fill="white" stroke="black" points="193.5,-56.5 193.5,-75.5 249.5,-75.5 249.5,-56.5 193.5,-56.5"/>
<text text-anchor="middle" x="221.5" y="-63.5" font-family="Helvetica,sans-Serif" font-size="10.00">logging.h</text>
</a>
</g>
</g>
<!-- Node7&#45;&gt;Node8 -->
<g id="edge7" class="edge">
<title>Node7&#45;&gt;Node8</title>
<path fill="none" stroke="midnightblue" d="M221.5,-112.08C221.5,-105.01 221.5,-94.86 221.5,-85.99"/>
<polygon fill="midnightblue" stroke="midnightblue" points="225,-85.75 221.5,-75.75 218,-85.75 225,-85.75"/>
</g>
<!-- Node10 -->
<g id="node10" class="node">
<title>Node10</title>
<g id="a_node10"><a xlink:href="util_8h.html" target="_top" xlink:title=" ">
<polygon fill="white" stroke="black" points="75.5,-56.5 75.5,-75.5 113.5,-75.5 113.5,-56.5 75.5,-56.5"/>
<text text-anchor="middle" x="94.5" y="-63.5" font-family="Helvetica,sans-Serif" font-size="10.00">util.h</text>
</a>
</g>
</g>
<!-- Node7&#45;&gt;Node10 -->
<g id="edge10" class="edge">
<title>Node7&#45;&gt;Node10</title>
<path fill="none" stroke="midnightblue" d="M201.38,-112.44C180.23,-103.45 146.79,-89.23 122.95,-79.1"/>
<polygon fill="midnightblue" stroke="midnightblue" points="124.27,-75.86 113.7,-75.16 121.53,-82.3 124.27,-75.86"/>
</g>
<!-- Node8&#45;&gt;Node6 -->
<g id="edge8" class="edge">
<title>Node8&#45;&gt;Node6</title>
<path fill="none" stroke="midnightblue" d="M210.57,-56.32C200.33,-48.18 184.78,-35.84 172.5,-26.09"/>
<polygon fill="midnightblue" stroke="midnightblue" points="174.63,-23.31 164.62,-19.83 170.28,-28.79 174.63,-23.31"/>
</g>
<!-- Node9 -->
<g id="node9" class="node">
<title>Node9</title>
<g id="a_node9"><a xlink:title=" ">
<polygon fill="white" stroke="#bfbfbf" points="199,-0.5 199,-19.5 284,-19.5 284,-0.5 199,-0.5"/>
<text text-anchor="middle" x="241.5" y="-7.5" font-family="Helvetica,sans-Serif" font-size="10.00">source_location</text>
</a>
</g>
</g>
<!-- Node8&#45;&gt;Node9 -->
<g id="edge9" class="edge">
<title>Node8&#45;&gt;Node9</title>
<path fill="none" stroke="midnightblue" d="M224.8,-56.08C227.48,-48.85 231.35,-38.41 234.69,-29.4"/>
<polygon fill="midnightblue" stroke="midnightblue" points="238.07,-30.34 238.26,-19.75 231.5,-27.91 238.07,-30.34"/>
</g>
<!-- Node10&#45;&gt;Node3 -->
<g id="edge13" class="edge">
<title>Node10&#45;&gt;Node3</title>
<path fill="none" stroke="midnightblue" d="M82.61,-56.32C71.35,-48.11 54.21,-35.6 40.79,-25.81"/>
<polygon fill="midnightblue" stroke="midnightblue" points="42.75,-22.9 32.61,-19.83 38.62,-28.56 42.75,-22.9"/>
</g>
<!-- Node10&#45;&gt;Node6 -->
<g id="edge12" class="edge">
<title>Node10&#45;&gt;Node6</title>
<path fill="none" stroke="midnightblue" d="M103.98,-56.32C112.7,-48.34 125.84,-36.31 136.4,-26.65"/>
<polygon fill="midnightblue" stroke="midnightblue" points="138.83,-29.17 143.85,-19.83 134.11,-24 138.83,-29.17"/>
</g>
<!-- Node11 -->
<g id="node11" class="node">
<title>Node11</title>
<g id="a_node11"><a xlink:title=" ">
<polygon fill="white" stroke="#bfbfbf" points="59,-0.5 59,-19.5 108,-19.5 108,-0.5 59,-0.5"/>
<text text-anchor="middle" x="83.5" y="-7.5" font-family="Helvetica,sans-Serif" font-size="10.00">fstream</text>
</a>
</g>
</g>
<!-- Node10&#45;&gt;Node11 -->
<g id="edge11" class="edge">
<title>Node10&#45;&gt;Node11</title>
<path fill="none" stroke="midnightblue" d="M92.68,-56.08C91.23,-48.93 89.13,-38.64 87.31,-29.69"/>
<polygon fill="midnightblue" stroke="midnightblue" points="90.71,-28.85 85.28,-19.75 83.85,-30.25 90.71,-28.85"/>
</g>
</g>
</svg>
