<?xml version="1.0" encoding="UTF-8" standalone="no"?>
<!DOCTYPE svg PUBLIC "-//W3C//DTD SVG 1.1//EN"
 "http://www.w3.org/Graphics/SVG/1.1/DTD/svg11.dtd">
<!-- Generated by graphviz version 2.47.3 (20210619.1520)
 -->
<!-- Title: src/libBtf/src/process.cpp Pages: 1 -->
<svg width="409pt" height="308pt"
 viewBox="0.00 0.00 408.50 308.00" xmlns="http://www.w3.org/2000/svg" xmlns:xlink="http://www.w3.org/1999/xlink">
<g id="graph0" class="graph" transform="scale(1 1) rotate(0) translate(4 304)">
<title>src/libBtf/src/process.cpp</title>
<polygon fill="white" stroke="transparent" points="-4,4 -4,-304 404.5,-304 404.5,4 -4,4"/>
<!-- Node1 -->
<g id="node1" class="node">
<title>Node1</title>
<g id="a_node1"><a xlink:title=" ">
<polygon fill="#bfbfbf" stroke="black" points="49,-280.5 49,-299.5 177,-299.5 177,-280.5 49,-280.5"/>
<text text-anchor="middle" x="113" y="-287.5" font-family="Helvetica,sans-Serif" font-size="10.00">src/libBtf/src/process.cpp</text>
</a>
</g>
</g>
<!-- Node2 -->
<g id="node2" class="node">
<title>Node2</title>
<g id="a_node2"><a xlink:href="process_8h.html" target="_top" xlink:title=" ">
<polygon fill="white" stroke="black" points="76.5,-224.5 76.5,-243.5 149.5,-243.5 149.5,-224.5 76.5,-224.5"/>
<text text-anchor="middle" x="113" y="-231.5" font-family="Helvetica,sans-Serif" font-size="10.00">btf/process.h</text>
</a>
</g>
</g>
<!-- Node1&#45;&gt;Node2 -->
<g id="edge1" class="edge">
<title>Node1&#45;&gt;Node2</title>
<path fill="none" stroke="midnightblue" d="M113,-280.08C113,-273.01 113,-262.86 113,-253.99"/>
<polygon fill="midnightblue" stroke="midnightblue" points="116.5,-253.75 113,-243.75 109.5,-253.75 116.5,-253.75"/>
</g>
<!-- Node4 -->
<g id="node4" class="node">
<title>Node4</title>
<g id="a_node4"><a xlink:title=" ">
<polygon fill="white" stroke="#bfbfbf" points="17.5,-0.5 17.5,-19.5 58.5,-19.5 58.5,-0.5 17.5,-0.5"/>
<text text-anchor="middle" x="38" y="-7.5" font-family="Helvetica,sans-Serif" font-size="10.00">string</text>
</a>
</g>
</g>
<!-- Node1&#45;&gt;Node4 -->
<g id="edge15" class="edge">
<title>Node1&#45;&gt;Node4</title>
<path fill="none" stroke="midnightblue" d="M92.8,-280.49C60.3,-265.29 0,-230.2 0,-179 0,-179 0,-179 0,-121 0,-86.81 16.6,-49.76 27.86,-28.57"/>
<polygon fill="midnightblue" stroke="midnightblue" points="30.95,-30.22 32.72,-19.77 24.82,-26.83 30.95,-30.22"/>
</g>
<!-- Node6 -->
<g id="node6" class="node">
<title>Node6</title>
<g id="a_node6"><a xlink:href="common_8h.html" target="_top" xlink:title=" ">
<polygon fill="white" stroke="black" points="170,-168.5 170,-187.5 232,-187.5 232,-168.5 170,-168.5"/>
<text text-anchor="middle" x="201" y="-175.5" font-family="Helvetica,sans-Serif" font-size="10.00">common.h</text>
</a>
</g>
</g>
<!-- Node1&#45;&gt;Node6 -->
<g id="edge16" class="edge">
<title>Node1&#45;&gt;Node6</title>
<path fill="none" stroke="midnightblue" d="M122.88,-280.21C132.4,-271.49 146.96,-257.52 158,-244 170.4,-228.82 182.53,-210.01 190.73,-196.54"/>
<polygon fill="midnightblue" stroke="midnightblue" points="193.83,-198.18 195.95,-187.8 187.82,-194.59 193.83,-198.18"/>
</g>
<!-- Node3 -->
<g id="node3" class="node">
<title>Node3</title>
<g id="a_node3"><a xlink:href="btf__entity__types_8h.html" target="_top" xlink:title=" ">
<polygon fill="white" stroke="black" points="58,-168.5 58,-187.5 152,-187.5 152,-168.5 58,-168.5"/>
<text text-anchor="middle" x="105" y="-175.5" font-family="Helvetica,sans-Serif" font-size="10.00">btf_entity_types.h</text>
</a>
</g>
</g>
<!-- Node2&#45;&gt;Node3 -->
<g id="edge2" class="edge">
<title>Node2&#45;&gt;Node3</title>
<path fill="none" stroke="midnightblue" d="M111.68,-224.08C110.62,-216.93 109.09,-206.64 107.77,-197.69"/>
<polygon fill="midnightblue" stroke="midnightblue" points="111.22,-197.13 106.3,-187.75 104.3,-198.16 111.22,-197.13"/>
</g>
<!-- Node2&#45;&gt;Node6 -->
<g id="edge5" class="edge">
<title>Node2&#45;&gt;Node6</title>
<path fill="none" stroke="midnightblue" d="M127.14,-224.32C140.87,-215.9 161.94,-202.97 178.06,-193.07"/>
<polygon fill="midnightblue" stroke="midnightblue" points="180.2,-195.87 186.9,-187.65 176.54,-189.9 180.2,-195.87"/>
</g>
<!-- Node3&#45;&gt;Node4 -->
<g id="edge3" class="edge">
<title>Node3&#45;&gt;Node4</title>
<path fill="none" stroke="midnightblue" d="M91.69,-168.35C80.52,-160.33 65.12,-147.35 57,-132 39.57,-99.06 37.1,-54.52 37.28,-29.69"/>
<polygon fill="midnightblue" stroke="midnightblue" points="40.78,-29.58 37.51,-19.51 33.78,-29.42 40.78,-29.58"/>
</g>
<!-- Node5 -->
<g id="node5" class="node">
<title>Node5</title>
<g id="a_node5"><a xlink:title=" ">
<polygon fill="white" stroke="#bfbfbf" points="66,-112.5 66,-131.5 144,-131.5 144,-112.5 66,-112.5"/>
<text text-anchor="middle" x="105" y="-119.5" font-family="Helvetica,sans-Serif" font-size="10.00">unordered_set</text>
</a>
</g>
</g>
<!-- Node3&#45;&gt;Node5 -->
<g id="edge4" class="edge">
<title>Node3&#45;&gt;Node5</title>
<path fill="none" stroke="midnightblue" d="M105,-168.08C105,-161.01 105,-150.86 105,-141.99"/>
<polygon fill="midnightblue" stroke="midnightblue" points="108.5,-141.75 105,-131.75 101.5,-141.75 108.5,-141.75"/>
</g>
<!-- Node7 -->
<g id="node7" class="node">
<title>Node7</title>
<g id="a_node7"><a xlink:title=" ">
<polygon fill="white" stroke="#bfbfbf" points="243,-0.5 243,-19.5 297,-19.5 297,-0.5 243,-0.5"/>
<text text-anchor="middle" x="270" y="-7.5" font-family="Helvetica,sans-Serif" font-size="10.00">iostream</text>
</a>
</g>
</g>
<!-- Node6&#45;&gt;Node7 -->
<g id="edge6" class="edge">
<title>Node6&#45;&gt;Node7</title>
<path fill="none" stroke="midnightblue" d="M214.86,-168.48C226.5,-160.54 242.54,-147.6 251,-132 268.76,-99.24 271.11,-54.63 270.82,-29.75"/>
<polygon fill="midnightblue" stroke="midnightblue" points="274.32,-29.43 270.54,-19.53 267.32,-29.63 274.32,-29.43"/>
</g>
<!-- Node8 -->
<g id="node8" class="node">
<title>Node8</title>
<g id="a_node8"><a xlink:href="helper_8h.html" target="_top" xlink:title=" ">
<polygon fill="white" stroke="black" points="162,-112.5 162,-131.5 242,-131.5 242,-112.5 162,-112.5"/>
<text text-anchor="middle" x="202" y="-119.5" font-family="Helvetica,sans-Serif" font-size="10.00">helper/helper.h</text>
</a>
</g>
</g>
<!-- Node6&#45;&gt;Node8 -->
<g id="edge7" class="edge">
<title>Node6&#45;&gt;Node8</title>
<path fill="none" stroke="midnightblue" d="M201.17,-168.08C201.3,-161.01 201.48,-150.86 201.65,-141.99"/>
<polygon fill="midnightblue" stroke="midnightblue" points="205.15,-141.81 201.84,-131.75 198.15,-141.68 205.15,-141.81"/>
</g>
<!-- Node9 -->
<g id="node9" class="node">
<title>Node9</title>
<g id="a_node9"><a xlink:href="logging_8h.html" target="_top" xlink:title=" ">
<polygon fill="white" stroke="black" points="298,-56.5 298,-75.5 354,-75.5 354,-56.5 298,-56.5"/>
<text text-anchor="middle" x="326" y="-63.5" font-family="Helvetica,sans-Serif" font-size="10.00">logging.h</text>
</a>
</g>
</g>
<!-- Node8&#45;&gt;Node9 -->
<g id="edge8" class="edge">
<title>Node8&#45;&gt;Node9</title>
<path fill="none" stroke="midnightblue" d="M221.65,-112.44C241.96,-103.6 273.9,-89.69 297.1,-79.59"/>
<polygon fill="midnightblue" stroke="midnightblue" points="298.67,-82.72 306.44,-75.52 295.88,-76.3 298.67,-82.72"/>
</g>
<!-- Node11 -->
<g id="node11" class="node">
<title>Node11</title>
<g id="a_node11"><a xlink:href="util_8h.html" target="_top" xlink:title=" ">
<polygon fill="white" stroke="black" points="182,-56.5 182,-75.5 220,-75.5 220,-56.5 182,-56.5"/>
<text text-anchor="middle" x="201" y="-63.5" font-family="Helvetica,sans-Serif" font-size="10.00">util.h</text>
</a>
</g>
</g>
<!-- Node8&#45;&gt;Node11 -->
<g id="edge11" class="edge">
<title>Node8&#45;&gt;Node11</title>
<path fill="none" stroke="midnightblue" d="M201.83,-112.08C201.7,-105.01 201.52,-94.86 201.35,-85.99"/>
<polygon fill="midnightblue" stroke="midnightblue" points="204.85,-85.68 201.16,-75.75 197.85,-85.81 204.85,-85.68"/>
</g>
<!-- Node9&#45;&gt;Node7 -->
<g id="edge9" class="edge">
<title>Node9&#45;&gt;Node7</title>
<path fill="none" stroke="midnightblue" d="M317,-56.32C308.81,-48.42 296.49,-36.55 286.53,-26.94"/>
<polygon fill="midnightblue" stroke="midnightblue" points="288.79,-24.26 279.16,-19.83 283.93,-29.29 288.79,-24.26"/>
</g>
<!-- Node10 -->
<g id="node10" class="node">
<title>Node10</title>
<g id="a_node10"><a xlink:title=" ">
<polygon fill="white" stroke="#bfbfbf" points="315.5,-0.5 315.5,-19.5 400.5,-19.5 400.5,-0.5 315.5,-0.5"/>
<text text-anchor="middle" x="358" y="-7.5" font-family="Helvetica,sans-Serif" font-size="10.00">source_location</text>
</a>
</g>
</g>
<!-- Node9&#45;&gt;Node10 -->
<g id="edge10" class="edge">
<title>Node9&#45;&gt;Node10</title>
<path fill="none" stroke="midnightblue" d="M331.28,-56.08C335.71,-48.61 342.16,-37.72 347.62,-28.52"/>
<polygon fill="midnightblue" stroke="midnightblue" points="350.73,-30.14 352.81,-19.75 344.71,-26.57 350.73,-30.14"/>
</g>
<!-- Node11&#45;&gt;Node4 -->
<g id="edge14" class="edge">
<title>Node11&#45;&gt;Node4</title>
<path fill="none" stroke="midnightblue" d="M181.98,-58.7C154.05,-49.45 101.65,-32.09 68.36,-21.06"/>
<polygon fill="midnightblue" stroke="midnightblue" points="69.28,-17.68 58.69,-17.85 67.08,-24.32 69.28,-17.68"/>
</g>
<!-- Node11&#45;&gt;Node7 -->
<g id="edge13" class="edge">
<title>Node11&#45;&gt;Node7</title>
<path fill="none" stroke="midnightblue" d="M212.09,-56.32C222.49,-48.18 238.26,-35.84 250.72,-26.09"/>
<polygon fill="midnightblue" stroke="midnightblue" points="252.99,-28.75 258.71,-19.83 248.68,-23.24 252.99,-28.75"/>
</g>
<!-- Node12 -->
<g id="node12" class="node">
<title>Node12</title>
<g id="a_node12"><a xlink:title=" ">
<polygon fill="white" stroke="#bfbfbf" points="175.5,-0.5 175.5,-19.5 224.5,-19.5 224.5,-0.5 175.5,-0.5"/>
<text text-anchor="middle" x="200" y="-7.5" font-family="Helvetica,sans-Serif" font-size="10.00">fstream</text>
</a>
</g>
</g>
<!-- Node11&#45;&gt;Node12 -->
<g id="edge12" class="edge">
<title>Node11&#45;&gt;Node12</title>
<path fill="none" stroke="midnightblue" d="M200.83,-56.08C200.7,-49.01 200.52,-38.86 200.35,-29.99"/>
<polygon fill="midnightblue" stroke="midnightblue" points="203.85,-29.68 200.16,-19.75 196.85,-29.81 203.85,-29.68"/>
</g>
</g>
</svg>
