<?xml version="1.0" encoding="UTF-8" standalone="no"?>
<!DOCTYPE svg PUBLIC "-//W3C//DTD SVG 1.1//EN"
 "http://www.w3.org/Graphics/SVG/1.1/DTD/svg11.dtd">
<!-- Generated by graphviz version 2.47.3 (20210619.1520)
 -->
<!-- Title: src/libBtf/src/runnable.cpp Pages: 1 -->
<svg width="292pt" height="308pt"
 viewBox="0.00 0.00 292.00 308.00" xmlns="http://www.w3.org/2000/svg" xmlns:xlink="http://www.w3.org/1999/xlink">
<g id="graph0" class="graph" transform="scale(1 1) rotate(0) translate(4 304)">
<title>src/libBtf/src/runnable.cpp</title>
<polygon fill="white" stroke="transparent" points="-4,4 -4,-304 288,-304 288,4 -4,4"/>
<!-- Node1 -->
<g id="node1" class="node">
<title>Node1</title>
<g id="a_node1"><a xlink:title=" ">
<polygon fill="#bfbfbf" stroke="black" points="10.5,-280.5 10.5,-299.5 140.5,-299.5 140.5,-280.5 10.5,-280.5"/>
<text text-anchor="middle" x="75.5" y="-287.5" font-family="Helvetica,sans-Serif" font-size="10.00">src/libBtf/src/runnable.cpp</text>
</a>
</g>
</g>
<!-- Node2 -->
<g id="node2" class="node">
<title>Node2</title>
<g id="a_node2"><a xlink:href="runnable_8h.html" target="_top" xlink:title=" ">
<polygon fill="white" stroke="black" points="38,-224.5 38,-243.5 113,-243.5 113,-224.5 38,-224.5"/>
<text text-anchor="middle" x="75.5" y="-231.5" font-family="Helvetica,sans-Serif" font-size="10.00">btf/runnable.h</text>
</a>
</g>
</g>
<!-- Node1&#45;&gt;Node2 -->
<g id="edge1" class="edge">
<title>Node1&#45;&gt;Node2</title>
<path fill="none" stroke="midnightblue" d="M75.5,-280.08C75.5,-273.01 75.5,-262.86 75.5,-253.99"/>
<polygon fill="midnightblue" stroke="midnightblue" points="79,-253.75 75.5,-243.75 72,-253.75 79,-253.75"/>
</g>
<!-- Node3 -->
<g id="node3" class="node">
<title>Node3</title>
<g id="a_node3"><a xlink:title=" ">
<polygon fill="white" stroke="#bfbfbf" points="0,-0.5 0,-19.5 41,-19.5 41,-0.5 0,-0.5"/>
<text text-anchor="middle" x="20.5" y="-7.5" font-family="Helvetica,sans-Serif" font-size="10.00">string</text>
</a>
</g>
</g>
<!-- Node1&#45;&gt;Node3 -->
<g id="edge13" class="edge">
<title>Node1&#45;&gt;Node3</title>
<path fill="none" stroke="midnightblue" d="M63.36,-280.34C52.7,-272.13 37.53,-258.87 28.5,-244 12.88,-218.27 9.5,-209.1 9.5,-179 9.5,-179 9.5,-179 9.5,-121 9.5,-88.79 14.23,-51.53 17.48,-29.69"/>
<polygon fill="midnightblue" stroke="midnightblue" points="20.99,-29.95 19.06,-19.53 14.07,-28.87 20.99,-29.95"/>
</g>
<!-- Node4 -->
<g id="node4" class="node">
<title>Node4</title>
<g id="a_node4"><a xlink:href="common_8h.html" target="_top" xlink:title=" ">
<polygon fill="white" stroke="black" points="110.5,-168.5 110.5,-187.5 172.5,-187.5 172.5,-168.5 110.5,-168.5"/>
<text text-anchor="middle" x="141.5" y="-175.5" font-family="Helvetica,sans-Serif" font-size="10.00">common.h</text>
</a>
</g>
</g>
<!-- Node1&#45;&gt;Node4 -->
<g id="edge14" class="edge">
<title>Node1&#45;&gt;Node4</title>
<path fill="none" stroke="midnightblue" d="M87.32,-280.26C97.72,-271.99 112.54,-258.69 121.5,-244 130.24,-229.67 135.44,-211.2 138.34,-197.62"/>
<polygon fill="midnightblue" stroke="midnightblue" points="141.82,-198.03 140.26,-187.55 134.95,-196.72 141.82,-198.03"/>
</g>
<!-- Node2&#45;&gt;Node3 -->
<g id="edge2" class="edge">
<title>Node2&#45;&gt;Node3</title>
<path fill="none" stroke="midnightblue" d="M73.34,-224.3C65.23,-191.56 36.45,-75.38 25.12,-29.67"/>
<polygon fill="midnightblue" stroke="midnightblue" points="28.5,-28.75 22.7,-19.88 21.71,-30.43 28.5,-28.75"/>
</g>
<!-- Node2&#45;&gt;Node4 -->
<g id="edge3" class="edge">
<title>Node2&#45;&gt;Node4</title>
<path fill="none" stroke="midnightblue" d="M86.1,-224.32C95.96,-216.26 110.85,-204.08 122.72,-194.37"/>
<polygon fill="midnightblue" stroke="midnightblue" points="125.18,-196.88 130.7,-187.83 120.75,-191.46 125.18,-196.88"/>
</g>
<!-- Node5 -->
<g id="node5" class="node">
<title>Node5</title>
<g id="a_node5"><a xlink:title=" ">
<polygon fill="white" stroke="#bfbfbf" points="126.5,-0.5 126.5,-19.5 180.5,-19.5 180.5,-0.5 126.5,-0.5"/>
<text text-anchor="middle" x="153.5" y="-7.5" font-family="Helvetica,sans-Serif" font-size="10.00">iostream</text>
</a>
</g>
</g>
<!-- Node4&#45;&gt;Node5 -->
<g id="edge4" class="edge">
<title>Node4&#45;&gt;Node5</title>
<path fill="none" stroke="midnightblue" d="M142.15,-168.08C144.03,-141.95 149.58,-65.21 152.16,-29.58"/>
<polygon fill="midnightblue" stroke="midnightblue" points="155.65,-29.79 152.88,-19.57 148.67,-29.29 155.65,-29.79"/>
</g>
<!-- Node6 -->
<g id="node6" class="node">
<title>Node6</title>
<g id="a_node6"><a xlink:href="helper_8h.html" target="_top" xlink:title=" ">
<polygon fill="white" stroke="black" points="169.5,-112.5 169.5,-131.5 249.5,-131.5 249.5,-112.5 169.5,-112.5"/>
<text text-anchor="middle" x="209.5" y="-119.5" font-family="Helvetica,sans-Serif" font-size="10.00">helper/helper.h</text>
</a>
</g>
</g>
<!-- Node4&#45;&gt;Node6 -->
<g id="edge5" class="edge">
<title>Node4&#45;&gt;Node6</title>
<path fill="none" stroke="midnightblue" d="M152.43,-168.32C162.67,-160.18 178.22,-147.84 190.5,-138.09"/>
<polygon fill="midnightblue" stroke="midnightblue" points="192.72,-140.79 198.38,-131.83 188.37,-135.31 192.72,-140.79"/>
</g>
<!-- Node7 -->
<g id="node7" class="node">
<title>Node7</title>
<g id="a_node7"><a xlink:href="logging_8h.html" target="_top" xlink:title=" ">
<polygon fill="white" stroke="black" points="181.5,-56.5 181.5,-75.5 237.5,-75.5 237.5,-56.5 181.5,-56.5"/>
<text text-anchor="middle" x="209.5" y="-63.5" font-family="Helvetica,sans-Serif" font-size="10.00">logging.h</text>
</a>
</g>
</g>
<!-- Node6&#45;&gt;Node7 -->
<g id="edge6" class="edge">
<title>Node6&#45;&gt;Node7</title>
<path fill="none" stroke="midnightblue" d="M209.5,-112.08C209.5,-105.01 209.5,-94.86 209.5,-85.99"/>
<polygon fill="midnightblue" stroke="midnightblue" points="213,-85.75 209.5,-75.75 206,-85.75 213,-85.75"/>
</g>
<!-- Node9 -->
<g id="node9" class="node">
<title>Node9</title>
<g id="a_node9"><a xlink:href="util_8h.html" target="_top" xlink:title=" ">
<polygon fill="white" stroke="black" points="75.5,-56.5 75.5,-75.5 113.5,-75.5 113.5,-56.5 75.5,-56.5"/>
<text text-anchor="middle" x="94.5" y="-63.5" font-family="Helvetica,sans-Serif" font-size="10.00">util.h</text>
</a>
</g>
</g>
<!-- Node6&#45;&gt;Node9 -->
<g id="edge9" class="edge">
<title>Node6&#45;&gt;Node9</title>
<path fill="none" stroke="midnightblue" d="M191.28,-112.44C172.6,-103.68 143.34,-89.94 121.88,-79.86"/>
<polygon fill="midnightblue" stroke="midnightblue" points="123.18,-76.6 112.64,-75.52 120.2,-82.93 123.18,-76.6"/>
</g>
<!-- Node7&#45;&gt;Node5 -->
<g id="edge7" class="edge">
<title>Node7&#45;&gt;Node5</title>
<path fill="none" stroke="midnightblue" d="M200.5,-56.32C192.31,-48.42 179.99,-36.55 170.03,-26.94"/>
<polygon fill="midnightblue" stroke="midnightblue" points="172.29,-24.26 162.66,-19.83 167.43,-29.29 172.29,-24.26"/>
</g>
<!-- Node8 -->
<g id="node8" class="node">
<title>Node8</title>
<g id="a_node8"><a xlink:title=" ">
<polygon fill="white" stroke="#bfbfbf" points="199,-0.5 199,-19.5 284,-19.5 284,-0.5 199,-0.5"/>
<text text-anchor="middle" x="241.5" y="-7.5" font-family="Helvetica,sans-Serif" font-size="10.00">source_location</text>
</a>
</g>
</g>
<!-- Node7&#45;&gt;Node8 -->
<g id="edge8" class="edge">
<title>Node7&#45;&gt;Node8</title>
<path fill="none" stroke="midnightblue" d="M214.78,-56.08C219.21,-48.61 225.66,-37.72 231.12,-28.52"/>
<polygon fill="midnightblue" stroke="midnightblue" points="234.23,-30.14 236.31,-19.75 228.21,-26.57 234.23,-30.14"/>
</g>
<!-- Node9&#45;&gt;Node3 -->
<g id="edge12" class="edge">
<title>Node9&#45;&gt;Node3</title>
<path fill="none" stroke="midnightblue" d="M82.61,-56.32C71.35,-48.11 54.21,-35.6 40.79,-25.81"/>
<polygon fill="midnightblue" stroke="midnightblue" points="42.75,-22.9 32.61,-19.83 38.62,-28.56 42.75,-22.9"/>
</g>
<!-- Node9&#45;&gt;Node5 -->
<g id="edge11" class="edge">
<title>Node9&#45;&gt;Node5</title>
<path fill="none" stroke="midnightblue" d="M103.98,-56.32C112.7,-48.34 125.84,-36.31 136.4,-26.65"/>
<polygon fill="midnightblue" stroke="midnightblue" points="138.83,-29.17 143.85,-19.83 134.11,-24 138.83,-29.17"/>
</g>
<!-- Node10 -->
<g id="node10" class="node">
<title>Node10</title>
<g id="a_node10"><a xlink:title=" ">
<polygon fill="white" stroke="#bfbfbf" points="59,-0.5 59,-19.5 108,-19.5 108,-0.5 59,-0.5"/>
<text text-anchor="middle" x="83.5" y="-7.5" font-family="Helvetica,sans-Serif" font-size="10.00">fstream</text>
</a>
</g>
</g>
<!-- Node9&#45;&gt;Node10 -->
<g id="edge10" class="edge">
<title>Node9&#45;&gt;Node10</title>
<path fill="none" stroke="midnightblue" d="M92.68,-56.08C91.23,-48.93 89.13,-38.64 87.31,-29.69"/>
<polygon fill="midnightblue" stroke="midnightblue" points="90.71,-28.85 85.28,-19.75 83.85,-30.25 90.71,-28.85"/>
</g>
</g>
</svg>
