<?xml version="1.0" encoding="UTF-8" standalone="no"?>
<!DOCTYPE svg PUBLIC "-//W3C//DTD SVG 1.1//EN"
 "http://www.w3.org/Graphics/SVG/1.1/DTD/svg11.dtd">
<!-- Generated by graphviz version 2.47.3 (20210619.1520)
 -->
<!-- Title: src/libBtf/src/semaphore.cpp Pages: 1 -->
<svg width="349pt" height="308pt"
 viewBox="0.00 0.00 348.50 308.00" xmlns="http://www.w3.org/2000/svg" xmlns:xlink="http://www.w3.org/1999/xlink">
<g id="graph0" class="graph" transform="scale(1 1) rotate(0) translate(4 304)">
<title>src/libBtf/src/semaphore.cpp</title>
<polygon fill="white" stroke="transparent" points="-4,4 -4,-304 344.5,-304 344.5,4 -4,4"/>
<!-- Node1 -->
<g id="node1" class="node">
<title>Node1</title>
<g id="a_node1"><a xlink:title=" ">
<polygon fill="#bfbfbf" stroke="black" points="42.5,-280.5 42.5,-299.5 183.5,-299.5 183.5,-280.5 42.5,-280.5"/>
<text text-anchor="middle" x="113" y="-287.5" font-family="Helvetica,sans-Serif" font-size="10.00">src/libBtf/src/semaphore.cpp</text>
</a>
</g>
</g>
<!-- Node2 -->
<g id="node2" class="node">
<title>Node2</title>
<g id="a_node2"><a xlink:href="semaphore_8h.html" target="_top" xlink:title=" ">
<polygon fill="white" stroke="black" points="70,-224.5 70,-243.5 156,-243.5 156,-224.5 70,-224.5"/>
<text text-anchor="middle" x="113" y="-231.5" font-family="Helvetica,sans-Serif" font-size="10.00">btf/semaphore.h</text>
</a>
</g>
</g>
<!-- Node1&#45;&gt;Node2 -->
<g id="edge1" class="edge">
<title>Node1&#45;&gt;Node2</title>
<path fill="none" stroke="midnightblue" d="M113,-280.08C113,-273.01 113,-262.86 113,-253.99"/>
<polygon fill="midnightblue" stroke="midnightblue" points="116.5,-253.75 113,-243.75 109.5,-253.75 116.5,-253.75"/>
</g>
<!-- Node3 -->
<g id="node3" class="node">
<title>Node3</title>
<g id="a_node3"><a xlink:title=" ">
<polygon fill="white" stroke="#bfbfbf" points="36.5,-0.5 36.5,-19.5 77.5,-19.5 77.5,-0.5 36.5,-0.5"/>
<text text-anchor="middle" x="57" y="-7.5" font-family="Helvetica,sans-Serif" font-size="10.00">string</text>
</a>
</g>
</g>
<!-- Node1&#45;&gt;Node3 -->
<g id="edge16" class="edge">
<title>Node1&#45;&gt;Node3</title>
<path fill="none" stroke="midnightblue" d="M92.8,-280.49C60.3,-265.29 0,-230.2 0,-179 0,-179 0,-179 0,-121 0,-84.3 25.32,-47.66 42.21,-27.3"/>
<polygon fill="midnightblue" stroke="midnightblue" points="44.95,-29.48 48.83,-19.62 39.65,-24.9 44.95,-29.48"/>
</g>
<!-- Node6 -->
<g id="node6" class="node">
<title>Node6</title>
<g id="a_node6"><a xlink:href="common_8h.html" target="_top" xlink:title=" ">
<polygon fill="white" stroke="black" points="178,-168.5 178,-187.5 240,-187.5 240,-168.5 178,-168.5"/>
<text text-anchor="middle" x="209" y="-175.5" font-family="Helvetica,sans-Serif" font-size="10.00">common.h</text>
</a>
</g>
</g>
<!-- Node1&#45;&gt;Node6 -->
<g id="edge17" class="edge">
<title>Node1&#45;&gt;Node6</title>
<path fill="none" stroke="midnightblue" d="M124.52,-280.47C135.6,-271.94 152.47,-258.1 165,-244 178.25,-229.08 190.74,-209.96 199,-196.32"/>
<polygon fill="midnightblue" stroke="midnightblue" points="202.14,-197.89 204.22,-187.51 196.12,-194.33 202.14,-197.89"/>
</g>
<!-- Node2&#45;&gt;Node3 -->
<g id="edge2" class="edge">
<title>Node2&#45;&gt;Node3</title>
<path fill="none" stroke="midnightblue" d="M95.5,-224.46C82.21,-216.92 64.92,-204.53 57,-188 31.7,-135.22 44.05,-63 52.03,-29.48"/>
<polygon fill="midnightblue" stroke="midnightblue" points="55.45,-30.24 54.5,-19.68 48.66,-28.52 55.45,-30.24"/>
</g>
<!-- Node4 -->
<g id="node4" class="node">
<title>Node4</title>
<g id="a_node4"><a xlink:href="btf__entity__types_8h.html" target="_top" xlink:title=" ">
<polygon fill="white" stroke="black" points="66,-168.5 66,-187.5 160,-187.5 160,-168.5 66,-168.5"/>
<text text-anchor="middle" x="113" y="-175.5" font-family="Helvetica,sans-Serif" font-size="10.00">btf_entity_types.h</text>
</a>
</g>
</g>
<!-- Node2&#45;&gt;Node4 -->
<g id="edge3" class="edge">
<title>Node2&#45;&gt;Node4</title>
<path fill="none" stroke="midnightblue" d="M113,-224.08C113,-217.01 113,-206.86 113,-197.99"/>
<polygon fill="midnightblue" stroke="midnightblue" points="116.5,-197.75 113,-187.75 109.5,-197.75 116.5,-197.75"/>
</g>
<!-- Node2&#45;&gt;Node6 -->
<g id="edge6" class="edge">
<title>Node2&#45;&gt;Node6</title>
<path fill="none" stroke="midnightblue" d="M128.42,-224.32C143.54,-215.82 166.82,-202.73 184.47,-192.8"/>
<polygon fill="midnightblue" stroke="midnightblue" points="186.61,-195.61 193.61,-187.65 183.18,-189.51 186.61,-195.61"/>
</g>
<!-- Node4&#45;&gt;Node3 -->
<g id="edge4" class="edge">
<title>Node4&#45;&gt;Node3</title>
<path fill="none" stroke="midnightblue" d="M109.35,-168.45C105.57,-159.45 99.58,-144.84 95,-132 82.17,-96.01 69.28,-53.22 62.3,-29.38"/>
<polygon fill="midnightblue" stroke="midnightblue" points="65.6,-28.21 59.45,-19.58 58.88,-30.16 65.6,-28.21"/>
</g>
<!-- Node5 -->
<g id="node5" class="node">
<title>Node5</title>
<g id="a_node5"><a xlink:title=" ">
<polygon fill="white" stroke="#bfbfbf" points="104,-112.5 104,-131.5 182,-131.5 182,-112.5 104,-112.5"/>
<text text-anchor="middle" x="143" y="-119.5" font-family="Helvetica,sans-Serif" font-size="10.00">unordered_set</text>
</a>
</g>
</g>
<!-- Node4&#45;&gt;Node5 -->
<g id="edge5" class="edge">
<title>Node4&#45;&gt;Node5</title>
<path fill="none" stroke="midnightblue" d="M117.95,-168.08C122.1,-160.61 128.15,-149.72 133.27,-140.52"/>
<polygon fill="midnightblue" stroke="midnightblue" points="136.34,-142.19 138.14,-131.75 130.22,-138.79 136.34,-142.19"/>
</g>
<!-- Node7 -->
<g id="node7" class="node">
<title>Node7</title>
<g id="a_node7"><a xlink:title=" ">
<polygon fill="white" stroke="#bfbfbf" points="183,-0.5 183,-19.5 237,-19.5 237,-0.5 183,-0.5"/>
<text text-anchor="middle" x="210" y="-7.5" font-family="Helvetica,sans-Serif" font-size="10.00">iostream</text>
</a>
</g>
</g>
<!-- Node6&#45;&gt;Node7 -->
<g id="edge7" class="edge">
<title>Node6&#45;&gt;Node7</title>
<path fill="none" stroke="midnightblue" d="M209.05,-168.08C209.21,-141.95 209.67,-65.21 209.89,-29.58"/>
<polygon fill="midnightblue" stroke="midnightblue" points="213.39,-29.59 209.95,-19.57 206.39,-29.55 213.39,-29.59"/>
</g>
<!-- Node8 -->
<g id="node8" class="node">
<title>Node8</title>
<g id="a_node8"><a xlink:href="helper_8h.html" target="_top" xlink:title=" ">
<polygon fill="white" stroke="black" points="238,-112.5 238,-131.5 318,-131.5 318,-112.5 238,-112.5"/>
<text text-anchor="middle" x="278" y="-119.5" font-family="Helvetica,sans-Serif" font-size="10.00">helper/helper.h</text>
</a>
</g>
</g>
<!-- Node6&#45;&gt;Node8 -->
<g id="edge8" class="edge">
<title>Node6&#45;&gt;Node8</title>
<path fill="none" stroke="midnightblue" d="M220.09,-168.32C230.49,-160.18 246.26,-147.84 258.72,-138.09"/>
<polygon fill="midnightblue" stroke="midnightblue" points="260.99,-140.75 266.71,-131.83 256.68,-135.24 260.99,-140.75"/>
</g>
<!-- Node9 -->
<g id="node9" class="node">
<title>Node9</title>
<g id="a_node9"><a xlink:href="logging_8h.html" target="_top" xlink:title=" ">
<polygon fill="white" stroke="black" points="250,-56.5 250,-75.5 306,-75.5 306,-56.5 250,-56.5"/>
<text text-anchor="middle" x="278" y="-63.5" font-family="Helvetica,sans-Serif" font-size="10.00">logging.h</text>
</a>
</g>
</g>
<!-- Node8&#45;&gt;Node9 -->
<g id="edge9" class="edge">
<title>Node8&#45;&gt;Node9</title>
<path fill="none" stroke="midnightblue" d="M278,-112.08C278,-105.01 278,-94.86 278,-85.99"/>
<polygon fill="midnightblue" stroke="midnightblue" points="281.5,-85.75 278,-75.75 274.5,-85.75 281.5,-85.75"/>
</g>
<!-- Node11 -->
<g id="node11" class="node">
<title>Node11</title>
<g id="a_node11"><a xlink:href="util_8h.html" target="_top" xlink:title=" ">
<polygon fill="white" stroke="black" points="133,-56.5 133,-75.5 171,-75.5 171,-56.5 133,-56.5"/>
<text text-anchor="middle" x="152" y="-63.5" font-family="Helvetica,sans-Serif" font-size="10.00">util.h</text>
</a>
</g>
</g>
<!-- Node8&#45;&gt;Node11 -->
<g id="edge12" class="edge">
<title>Node8&#45;&gt;Node11</title>
<path fill="none" stroke="midnightblue" d="M258.03,-112.44C237.15,-103.49 204.17,-89.36 180.54,-79.23"/>
<polygon fill="midnightblue" stroke="midnightblue" points="181.62,-75.89 171.05,-75.16 178.86,-82.32 181.62,-75.89"/>
</g>
<!-- Node9&#45;&gt;Node7 -->
<g id="edge10" class="edge">
<title>Node9&#45;&gt;Node7</title>
<path fill="none" stroke="midnightblue" d="M267.07,-56.32C256.83,-48.18 241.28,-35.84 229,-26.09"/>
<polygon fill="midnightblue" stroke="midnightblue" points="231.13,-23.31 221.12,-19.83 226.78,-28.79 231.13,-23.31"/>
</g>
<!-- Node10 -->
<g id="node10" class="node">
<title>Node10</title>
<g id="a_node10"><a xlink:title=" ">
<polygon fill="white" stroke="#bfbfbf" points="255.5,-0.5 255.5,-19.5 340.5,-19.5 340.5,-0.5 255.5,-0.5"/>
<text text-anchor="middle" x="298" y="-7.5" font-family="Helvetica,sans-Serif" font-size="10.00">source_location</text>
</a>
</g>
</g>
<!-- Node9&#45;&gt;Node10 -->
<g id="edge11" class="edge">
<title>Node9&#45;&gt;Node10</title>
<path fill="none" stroke="midnightblue" d="M281.3,-56.08C283.98,-48.85 287.85,-38.41 291.19,-29.4"/>
<polygon fill="midnightblue" stroke="midnightblue" points="294.57,-30.34 294.76,-19.75 288,-27.91 294.57,-30.34"/>
</g>
<!-- Node11&#45;&gt;Node3 -->
<g id="edge15" class="edge">
<title>Node11&#45;&gt;Node3</title>
<path fill="none" stroke="midnightblue" d="M136.74,-56.32C121.78,-47.82 98.75,-34.73 81.27,-24.8"/>
<polygon fill="midnightblue" stroke="midnightblue" points="82.65,-21.55 72.23,-19.65 79.19,-27.64 82.65,-21.55"/>
</g>
<!-- Node11&#45;&gt;Node7 -->
<g id="edge14" class="edge">
<title>Node11&#45;&gt;Node7</title>
<path fill="none" stroke="midnightblue" d="M161.32,-56.32C169.89,-48.34 182.81,-36.31 193.19,-26.65"/>
<polygon fill="midnightblue" stroke="midnightblue" points="195.58,-29.21 200.51,-19.83 190.81,-24.09 195.58,-29.21"/>
</g>
<!-- Node12 -->
<g id="node12" class="node">
<title>Node12</title>
<g id="a_node12"><a xlink:title=" ">
<polygon fill="white" stroke="#bfbfbf" points="115.5,-0.5 115.5,-19.5 164.5,-19.5 164.5,-0.5 115.5,-0.5"/>
<text text-anchor="middle" x="140" y="-7.5" font-family="Helvetica,sans-Serif" font-size="10.00">fstream</text>
</a>
</g>
</g>
<!-- Node11&#45;&gt;Node12 -->
<g id="edge13" class="edge">
<title>Node11&#45;&gt;Node12</title>
<path fill="none" stroke="midnightblue" d="M150.02,-56.08C148.43,-48.93 146.14,-38.64 144.15,-29.69"/>
<polygon fill="midnightblue" stroke="midnightblue" points="147.53,-28.75 141.94,-19.75 140.7,-30.27 147.53,-28.75"/>
</g>
</g>
</svg>
