<?xml version="1.0" encoding="UTF-8" standalone="no"?>
<!DOCTYPE svg PUBLIC "-//W3C//DTD SVG 1.1//EN"
 "http://www.w3.org/Graphics/SVG/1.1/DTD/svg11.dtd">
<!-- Generated by graphviz version 2.47.3 (20210619.1520)
 -->
<!-- Title: src/libBtf/include/btf/semaphore.h Pages: 1 -->
<svg width="397pt" height="263pt"
 viewBox="0.00 0.00 396.50 263.00" xmlns="http://www.w3.org/2000/svg" xmlns:xlink="http://www.w3.org/1999/xlink">
<g id="graph0" class="graph" transform="scale(1 1) rotate(0) translate(4 259)">
<title>src/libBtf/include/btf/semaphore.h</title>
<polygon fill="white" stroke="transparent" points="-4,4 -4,-259 392.5,-259 392.5,4 -4,4"/>
<!-- Node1 -->
<g id="node1" class="node">
<title>Node1</title>
<g id="a_node1"><a xlink:title=" ">
<polygon fill="#bfbfbf" stroke="black" points="77.5,-224.5 77.5,-254.5 166.5,-254.5 166.5,-224.5 77.5,-224.5"/>
<text text-anchor="start" x="85.5" y="-242.5" font-family="Helvetica,sans-Serif" font-size="10.00">src/libBtf/include</text>
<text text-anchor="middle" x="122" y="-231.5" font-family="Helvetica,sans-Serif" font-size="10.00">/btf/semaphore.h</text>
</a>
</g>
</g>
<!-- Node2 -->
<g id="node2" class="node">
<title>Node2</title>
<g id="a_node2"><a xlink:title=" ">
<polygon fill="white" stroke="#bfbfbf" points="101.5,-0.5 101.5,-19.5 142.5,-19.5 142.5,-0.5 101.5,-0.5"/>
<text text-anchor="middle" x="122" y="-7.5" font-family="Helvetica,sans-Serif" font-size="10.00">string</text>
</a>
</g>
</g>
<!-- Node1&#45;&gt;Node2 -->
<g id="edge1" class="edge">
<title>Node1&#45;&gt;Node2</title>
<path fill="none" stroke="midnightblue" d="M122,-224.27C122,-184.89 122,-74.49 122,-29.97"/>
<polygon fill="midnightblue" stroke="midnightblue" points="125.5,-29.93 122,-19.93 118.5,-29.93 125.5,-29.93"/>
</g>
<!-- Node3 -->
<g id="node3" class="node">
<title>Node3</title>
<g id="a_node3"><a xlink:href="btf__entity__types_8h.html" target="_top" xlink:title=" ">
<polygon fill="white" stroke="black" points="0,-168.5 0,-187.5 94,-187.5 94,-168.5 0,-168.5"/>
<text text-anchor="middle" x="47" y="-175.5" font-family="Helvetica,sans-Serif" font-size="10.00">btf_entity_types.h</text>
</a>
</g>
</g>
<!-- Node1&#45;&gt;Node3 -->
<g id="edge2" class="edge">
<title>Node1&#45;&gt;Node3</title>
<path fill="none" stroke="midnightblue" d="M104.23,-224.4C92.65,-215.22 77.58,-203.26 65.8,-193.92"/>
<polygon fill="midnightblue" stroke="midnightblue" points="67.92,-191.13 57.91,-187.66 63.57,-196.61 67.92,-191.13"/>
</g>
<!-- Node5 -->
<g id="node5" class="node">
<title>Node5</title>
<g id="a_node5"><a xlink:href="common_8h.html" target="_top" xlink:title=" ">
<polygon fill="white" stroke="black" points="159,-168.5 159,-187.5 221,-187.5 221,-168.5 159,-168.5"/>
<text text-anchor="middle" x="190" y="-175.5" font-family="Helvetica,sans-Serif" font-size="10.00">common.h</text>
</a>
</g>
</g>
<!-- Node1&#45;&gt;Node5 -->
<g id="edge5" class="edge">
<title>Node1&#45;&gt;Node5</title>
<path fill="none" stroke="midnightblue" d="M138.12,-224.4C148.4,-215.4 161.75,-203.72 172.33,-194.47"/>
<polygon fill="midnightblue" stroke="midnightblue" points="174.88,-196.88 180.11,-187.66 170.27,-191.61 174.88,-196.88"/>
</g>
<!-- Node3&#45;&gt;Node2 -->
<g id="edge3" class="edge">
<title>Node3&#45;&gt;Node2</title>
<path fill="none" stroke="midnightblue" d="M35.16,-168.35C20.15,-156.26 -2.67,-133.37 7,-112 25.21,-71.76 68.25,-41.2 96.2,-24.71"/>
<polygon fill="midnightblue" stroke="midnightblue" points="98.1,-27.66 105.05,-19.66 94.63,-21.58 98.1,-27.66"/>
</g>
<!-- Node4 -->
<g id="node4" class="node">
<title>Node4</title>
<g id="a_node4"><a xlink:title=" ">
<polygon fill="white" stroke="#bfbfbf" points="16,-112.5 16,-131.5 94,-131.5 94,-112.5 16,-112.5"/>
<text text-anchor="middle" x="55" y="-119.5" font-family="Helvetica,sans-Serif" font-size="10.00">unordered_set</text>
</a>
</g>
</g>
<!-- Node3&#45;&gt;Node4 -->
<g id="edge4" class="edge">
<title>Node3&#45;&gt;Node4</title>
<path fill="none" stroke="midnightblue" d="M48.32,-168.08C49.38,-160.93 50.91,-150.64 52.23,-141.69"/>
<polygon fill="midnightblue" stroke="midnightblue" points="55.7,-142.16 53.7,-131.75 48.78,-141.13 55.7,-142.16"/>
</g>
<!-- Node6 -->
<g id="node6" class="node">
<title>Node6</title>
<g id="a_node6"><a xlink:title=" ">
<polygon fill="white" stroke="#bfbfbf" points="231,-0.5 231,-19.5 285,-19.5 285,-0.5 231,-0.5"/>
<text text-anchor="middle" x="258" y="-7.5" font-family="Helvetica,sans-Serif" font-size="10.00">iostream</text>
</a>
</g>
</g>
<!-- Node5&#45;&gt;Node6 -->
<g id="edge6" class="edge">
<title>Node5&#45;&gt;Node6</title>
<path fill="none" stroke="midnightblue" d="M203.59,-168.42C214.99,-160.44 230.71,-147.48 239,-132 256.6,-99.15 259.01,-54.57 258.77,-29.72"/>
<polygon fill="midnightblue" stroke="midnightblue" points="262.27,-29.43 258.52,-19.52 255.27,-29.6 262.27,-29.43"/>
</g>
<!-- Node7 -->
<g id="node7" class="node">
<title>Node7</title>
<g id="a_node7"><a xlink:href="helper_8h.html" target="_top" xlink:title=" ">
<polygon fill="white" stroke="black" points="150,-112.5 150,-131.5 230,-131.5 230,-112.5 150,-112.5"/>
<text text-anchor="middle" x="190" y="-119.5" font-family="Helvetica,sans-Serif" font-size="10.00">helper/helper.h</text>
</a>
</g>
</g>
<!-- Node5&#45;&gt;Node7 -->
<g id="edge7" class="edge">
<title>Node5&#45;&gt;Node7</title>
<path fill="none" stroke="midnightblue" d="M190,-168.08C190,-161.01 190,-150.86 190,-141.99"/>
<polygon fill="midnightblue" stroke="midnightblue" points="193.5,-141.75 190,-131.75 186.5,-141.75 193.5,-141.75"/>
</g>
<!-- Node8 -->
<g id="node8" class="node">
<title>Node8</title>
<g id="a_node8"><a xlink:href="logging_8h.html" target="_top" xlink:title=" ">
<polygon fill="white" stroke="black" points="286,-56.5 286,-75.5 342,-75.5 342,-56.5 286,-56.5"/>
<text text-anchor="middle" x="314" y="-63.5" font-family="Helvetica,sans-Serif" font-size="10.00">logging.h</text>
</a>
</g>
</g>
<!-- Node7&#45;&gt;Node8 -->
<g id="edge8" class="edge">
<title>Node7&#45;&gt;Node8</title>
<path fill="none" stroke="midnightblue" d="M209.65,-112.44C229.96,-103.6 261.9,-89.69 285.1,-79.59"/>
<polygon fill="midnightblue" stroke="midnightblue" points="286.67,-82.72 294.44,-75.52 283.88,-76.3 286.67,-82.72"/>
</g>
<!-- Node10 -->
<g id="node10" class="node">
<title>Node10</title>
<g id="a_node10"><a xlink:href="util_8h.html" target="_top" xlink:title=" ">
<polygon fill="white" stroke="black" points="170,-56.5 170,-75.5 208,-75.5 208,-56.5 170,-56.5"/>
<text text-anchor="middle" x="189" y="-63.5" font-family="Helvetica,sans-Serif" font-size="10.00">util.h</text>
</a>
</g>
</g>
<!-- Node7&#45;&gt;Node10 -->
<g id="edge11" class="edge">
<title>Node7&#45;&gt;Node10</title>
<path fill="none" stroke="midnightblue" d="M189.83,-112.08C189.7,-105.01 189.52,-94.86 189.35,-85.99"/>
<polygon fill="midnightblue" stroke="midnightblue" points="192.85,-85.68 189.16,-75.75 185.85,-85.81 192.85,-85.68"/>
</g>
<!-- Node8&#45;&gt;Node6 -->
<g id="edge9" class="edge">
<title>Node8&#45;&gt;Node6</title>
<path fill="none" stroke="midnightblue" d="M305,-56.32C296.81,-48.42 284.49,-36.55 274.53,-26.94"/>
<polygon fill="midnightblue" stroke="midnightblue" points="276.79,-24.26 267.16,-19.83 271.93,-29.29 276.79,-24.26"/>
</g>
<!-- Node9 -->
<g id="node9" class="node">
<title>Node9</title>
<g id="a_node9"><a xlink:title=" ">
<polygon fill="white" stroke="#bfbfbf" points="303.5,-0.5 303.5,-19.5 388.5,-19.5 388.5,-0.5 303.5,-0.5"/>
<text text-anchor="middle" x="346" y="-7.5" font-family="Helvetica,sans-Serif" font-size="10.00">source_location</text>
</a>
</g>
</g>
<!-- Node8&#45;&gt;Node9 -->
<g id="edge10" class="edge">
<title>Node8&#45;&gt;Node9</title>
<path fill="none" stroke="midnightblue" d="M319.28,-56.08C323.71,-48.61 330.16,-37.72 335.62,-28.52"/>
<polygon fill="midnightblue" stroke="midnightblue" points="338.73,-30.14 340.81,-19.75 332.71,-26.57 338.73,-30.14"/>
</g>
<!-- Node10&#45;&gt;Node2 -->
<g id="edge14" class="edge">
<title>Node10&#45;&gt;Node2</title>
<path fill="none" stroke="midnightblue" d="M178.24,-56.32C168.23,-48.26 153.11,-36.08 141.07,-26.37"/>
<polygon fill="midnightblue" stroke="midnightblue" points="142.94,-23.38 132.96,-19.83 138.55,-28.83 142.94,-23.38"/>
</g>
<!-- Node10&#45;&gt;Node6 -->
<g id="edge13" class="edge">
<title>Node10&#45;&gt;Node6</title>
<path fill="none" stroke="midnightblue" d="M200.09,-56.32C210.49,-48.18 226.26,-35.84 238.72,-26.09"/>
<polygon fill="midnightblue" stroke="midnightblue" points="240.99,-28.75 246.71,-19.83 236.68,-23.24 240.99,-28.75"/>
</g>
<!-- Node11 -->
<g id="node11" class="node">
<title>Node11</title>
<g id="a_node11"><a xlink:title=" ">
<polygon fill="white" stroke="#bfbfbf" points="163.5,-0.5 163.5,-19.5 212.5,-19.5 212.5,-0.5 163.5,-0.5"/>
<text text-anchor="middle" x="188" y="-7.5" font-family="Helvetica,sans-Serif" font-size="10.00">fstream</text>
</a>
</g>
</g>
<!-- Node10&#45;&gt;Node11 -->
<g id="edge12" class="edge">
<title>Node10&#45;&gt;Node11</title>
<path fill="none" stroke="midnightblue" d="M188.83,-56.08C188.7,-49.01 188.52,-38.86 188.35,-29.99"/>
<polygon fill="midnightblue" stroke="midnightblue" points="191.85,-29.68 188.16,-19.75 184.85,-29.81 191.85,-29.68"/>
</g>
</g>
</svg>
