<?xml version="1.0" encoding="UTF-8" standalone="no"?>
<!DOCTYPE svg PUBLIC "-//W3C//DTD SVG 1.1//EN"
 "http://www.w3.org/Graphics/SVG/1.1/DTD/svg11.dtd">
<!-- Generated by graphviz version 2.47.3 (20210619.1520)
 -->
<!-- Title: src/libBtf/include/btf/semaphore.h Pages: 1 -->
<svg width="323pt" height="173pt"
 viewBox="0.00 0.00 322.50 173.00" xmlns="http://www.w3.org/2000/svg" xmlns:xlink="http://www.w3.org/1999/xlink">
<g id="graph0" class="graph" transform="scale(1 1) rotate(0) translate(4 169)">
<title>src/libBtf/include/btf/semaphore.h</title>
<polygon fill="white" stroke="transparent" points="-4,4 -4,-169 318.5,-169 318.5,4 -4,4"/>
<!-- Node1 -->
<g id="node1" class="node">
<title>Node1</title>
<g id="a_node1"><a xlink:title=" ">
<polygon fill="#bfbfbf" stroke="black" points="132.5,-134.5 132.5,-164.5 221.5,-164.5 221.5,-134.5 132.5,-134.5"/>
<text text-anchor="start" x="140.5" y="-152.5" font-family="Helvetica,sans-Serif" font-size="10.00">src/libBtf/include</text>
<text text-anchor="middle" x="177" y="-141.5" font-family="Helvetica,sans-Serif" font-size="10.00">/btf/semaphore.h</text>
</a>
</g>
</g>
<!-- Node2 -->
<g id="node2" class="node">
<title>Node2</title>
<g id="a_node2"><a xlink:href="btf_8h.html" target="_top" xlink:title=" ">
<polygon fill="white" stroke="black" points="66.5,-67.5 66.5,-97.5 155.5,-97.5 155.5,-67.5 66.5,-67.5"/>
<text text-anchor="start" x="74.5" y="-85.5" font-family="Helvetica,sans-Serif" font-size="10.00">src/libBtf/include</text>
<text text-anchor="middle" x="111" y="-74.5" font-family="Helvetica,sans-Serif" font-size="10.00">/btf/btf.h</text>
</a>
</g>
</g>
<!-- Node1&#45;&gt;Node2 -->
<g id="edge1" class="edge">
<title>Node1&#45;&gt;Node2</title>
<path fill="none" stroke="midnightblue" d="M155.49,-127.31C145.59,-117.56 134.11,-106.26 125.29,-97.58"/>
<polygon fill="midnightblue" stroke="midnightblue" points="153.1,-129.87 162.68,-134.4 158.01,-124.89 153.1,-129.87"/>
</g>
<!-- Node5 -->
<g id="node5" class="node">
<title>Node5</title>
<g id="a_node5"><a xlink:href="semaphore_8cpp.html" target="_top" xlink:title=" ">
<polygon fill="white" stroke="black" points="173.5,-73 173.5,-92 314.5,-92 314.5,-73 173.5,-73"/>
<text text-anchor="middle" x="244" y="-80" font-family="Helvetica,sans-Serif" font-size="10.00">src/libBtf/src/semaphore.cpp</text>
</a>
</g>
</g>
<!-- Node1&#45;&gt;Node5 -->
<g id="edge4" class="edge">
<title>Node1&#45;&gt;Node5</title>
<path fill="none" stroke="midnightblue" d="M198.82,-127.34C211.12,-115.4 225.82,-101.14 235.04,-92.19"/>
<polygon fill="midnightblue" stroke="midnightblue" points="196.28,-124.92 191.54,-134.4 201.15,-129.94 196.28,-124.92"/>
</g>
<!-- Node3 -->
<g id="node3" class="node">
<title>Node3</title>
<g id="a_node3"><a xlink:href="btf_8cpp.html" target="_top" xlink:title=" ">
<polygon fill="white" stroke="black" points="0,-6 0,-25 104,-25 104,-6 0,-6"/>
<text text-anchor="middle" x="52" y="-13" font-family="Helvetica,sans-Serif" font-size="10.00">src/libBtf/src/btf.cpp</text>
</a>
</g>
</g>
<!-- Node2&#45;&gt;Node3 -->
<g id="edge2" class="edge">
<title>Node2&#45;&gt;Node3</title>
<path fill="none" stroke="midnightblue" d="M91.17,-59.66C80.47,-47.86 67.85,-33.97 59.89,-25.19"/>
<polygon fill="midnightblue" stroke="midnightblue" points="88.89,-62.34 98.2,-67.4 94.07,-57.64 88.89,-62.34"/>
</g>
<!-- Node4 -->
<g id="node4" class="node">
<title>Node4</title>
<g id="a_node4"><a xlink:href="libbtf__binding_8cpp.html" target="_top" xlink:title=" ">
<polygon fill="white" stroke="black" points="122,-0.5 122,-30.5 218,-30.5 218,-0.5 122,-0.5"/>
<text text-anchor="start" x="130" y="-18.5" font-family="Helvetica,sans-Serif" font-size="10.00">src/pybindings/src</text>
<text text-anchor="middle" x="170" y="-7.5" font-family="Helvetica,sans-Serif" font-size="10.00">/libbtf_binding.cpp</text>
</a>
</g>
</g>
<!-- Node2&#45;&gt;Node4 -->
<g id="edge3" class="edge">
<title>Node2&#45;&gt;Node4</title>
<path fill="none" stroke="midnightblue" d="M130.75,-59.74C139.48,-50.12 149.5,-39.09 157.22,-30.58"/>
<polygon fill="midnightblue" stroke="midnightblue" points="127.93,-57.64 123.8,-67.4 133.11,-62.34 127.93,-57.64"/>
</g>
</g>
</svg>
