<?xml version="1.0" encoding="UTF-8" standalone="no"?>
<!DOCTYPE svg PUBLIC "-//W3C//DTD SVG 1.1//EN"
 "http://www.w3.org/Graphics/SVG/1.1/DTD/svg11.dtd">
<!-- Generated by graphviz version 2.47.3 (20210619.1520)
 -->
<!-- Title: src/libHelper/include/helper/util.h Pages: 1 -->
<svg width="1616pt" height="374pt"
 viewBox="0.00 0.00 1616.02 374.00" xmlns="http://www.w3.org/2000/svg" xmlns:xlink="http://www.w3.org/1999/xlink">
<g id="graph0" class="graph" transform="scale(1 1) rotate(0) translate(4 370)">
<title>src/libHelper/include/helper/util.h</title>
<polygon fill="white" stroke="transparent" points="-4,4 -4,-370 1612.02,-370 1612.02,4 -4,4"/>
<!-- Node1 -->
<g id="node1" class="node">
<title>Node1</title>
<g id="a_node1"><a xlink:title=" ">
<polygon fill="#bfbfbf" stroke="black" points="682.02,-335.5 682.02,-365.5 786.02,-365.5 786.02,-335.5 682.02,-335.5"/>
<text text-anchor="start" x="690.02" y="-353.5" font-family="Helvetica,sans-Serif" font-size="10.00">src/libHelper/include</text>
<text text-anchor="middle" x="734.02" y="-342.5" font-family="Helvetica,sans-Serif" font-size="10.00">/helper/util.h</text>
</a>
</g>
</g>
<!-- Node2 -->
<g id="node2" class="node">
<title>Node2</title>
<g id="a_node2"><a xlink:href="helper_8h.html" target="_top" xlink:title=" ">
<polygon fill="white" stroke="black" points="617.02,-268.5 617.02,-298.5 721.02,-298.5 721.02,-268.5 617.02,-268.5"/>
<text text-anchor="start" x="625.02" y="-286.5" font-family="Helvetica,sans-Serif" font-size="10.00">src/libHelper/include</text>
<text text-anchor="middle" x="669.02" y="-275.5" font-family="Helvetica,sans-Serif" font-size="10.00">/helper/helper.h</text>
</a>
</g>
</g>
<!-- Node1&#45;&gt;Node2 -->
<g id="edge1" class="edge">
<title>Node1&#45;&gt;Node2</title>
<path fill="none" stroke="midnightblue" d="M712.83,-328.31C703.08,-318.56 691.78,-307.26 683.1,-298.58"/>
<polygon fill="midnightblue" stroke="midnightblue" points="710.37,-330.8 719.92,-335.4 715.32,-325.85 710.37,-330.8"/>
</g>
<!-- Node29 -->
<g id="node29" class="node">
<title>Node29</title>
<g id="a_node29"><a xlink:href="util_8cpp.html" target="_top" xlink:title=" ">
<polygon fill="white" stroke="black" points="739.02,-274 739.02,-293 861.02,-293 861.02,-274 739.02,-274"/>
<text text-anchor="middle" x="800.02" y="-281" font-family="Helvetica,sans-Serif" font-size="10.00">src/libHelper/src/util.cpp</text>
</a>
</g>
</g>
<!-- Node1&#45;&gt;Node29 -->
<g id="edge42" class="edge">
<title>Node1&#45;&gt;Node29</title>
<path fill="none" stroke="midnightblue" d="M755.51,-328.34C767.63,-316.4 782.11,-302.14 791.19,-293.19"/>
<polygon fill="midnightblue" stroke="midnightblue" points="753.01,-325.89 748.34,-335.4 757.92,-330.87 753.01,-325.89"/>
</g>
<!-- Node3 -->
<g id="node3" class="node">
<title>Node3</title>
<g id="a_node3"><a xlink:href="common_8h.html" target="_top" xlink:title=" ">
<polygon fill="white" stroke="black" points="624.52,-201.5 624.52,-231.5 713.52,-231.5 713.52,-201.5 624.52,-201.5"/>
<text text-anchor="start" x="632.52" y="-219.5" font-family="Helvetica,sans-Serif" font-size="10.00">src/libBtf/include</text>
<text text-anchor="middle" x="669.02" y="-208.5" font-family="Helvetica,sans-Serif" font-size="10.00">/btf/common.h</text>
</a>
</g>
</g>
<!-- Node2&#45;&gt;Node3 -->
<g id="edge2" class="edge">
<title>Node2&#45;&gt;Node3</title>
<path fill="none" stroke="midnightblue" d="M669.02,-258.11C669.02,-249.15 669.02,-239.32 669.02,-231.58"/>
<polygon fill="midnightblue" stroke="midnightblue" points="665.52,-258.4 669.02,-268.4 672.52,-258.4 665.52,-258.4"/>
</g>
<!-- Node5 -->
<g id="node5" class="node">
<title>Node5</title>
<g id="a_node5"><a xlink:href="btf_8cpp.html" target="_top" xlink:title=" ">
<polygon fill="white" stroke="black" points="412.02,-6 412.02,-25 516.02,-25 516.02,-6 412.02,-6"/>
<text text-anchor="middle" x="464.02" y="-13" font-family="Helvetica,sans-Serif" font-size="10.00">src/libBtf/src/btf.cpp</text>
</a>
</g>
</g>
<!-- Node2&#45;&gt;Node5 -->
<g id="edge38" class="edge">
<title>Node2&#45;&gt;Node5</title>
<path fill="none" stroke="midnightblue" d="M606.6,-276.28C452.59,-259.35 62.83,-206.27 6.02,-98 -0.38,-85.8 -3.17,-77.26 6.02,-67 32.71,-37.21 297.24,-23.14 411.69,-18.42"/>
<polygon fill="midnightblue" stroke="midnightblue" points="606.52,-279.79 616.84,-277.39 607.27,-272.83 606.52,-279.79"/>
</g>
<!-- Node27 -->
<g id="node27" class="node">
<title>Node27</title>
<g id="a_node27"><a xlink:href="libhelper__binding_8h.html" target="_top" xlink:title=" ">
<polygon fill="white" stroke="black" points="1413.52,-201.5 1413.52,-231.5 1526.52,-231.5 1526.52,-201.5 1413.52,-201.5"/>
<text text-anchor="start" x="1421.52" y="-219.5" font-family="Helvetica,sans-Serif" font-size="10.00">src/pybindings/include</text>
<text text-anchor="middle" x="1470.02" y="-208.5" font-family="Helvetica,sans-Serif" font-size="10.00">/libhelper_binding.h</text>
</a>
</g>
</g>
<!-- Node2&#45;&gt;Node27 -->
<g id="edge39" class="edge">
<title>Node2&#45;&gt;Node27</title>
<path fill="none" stroke="midnightblue" d="M731.15,-268C990.8,-229.33 1290.8,-220.34 1413.51,-218.18"/>
<polygon fill="midnightblue" stroke="midnightblue" points="730.52,-264.56 721.15,-269.51 731.56,-271.48 730.52,-264.56"/>
</g>
<!-- Node4 -->
<g id="node4" class="node">
<title>Node4</title>
<g id="a_node4"><a xlink:href="btf_8h.html" target="_top" xlink:title=" ">
<polygon fill="white" stroke="black" points="617.52,-67.5 617.52,-97.5 706.52,-97.5 706.52,-67.5 617.52,-67.5"/>
<text text-anchor="start" x="625.52" y="-85.5" font-family="Helvetica,sans-Serif" font-size="10.00">src/libBtf/include</text>
<text text-anchor="middle" x="662.02" y="-74.5" font-family="Helvetica,sans-Serif" font-size="10.00">/btf/btf.h</text>
</a>
</g>
</g>
<!-- Node3&#45;&gt;Node4 -->
<g id="edge3" class="edge">
<title>Node3&#45;&gt;Node4</title>
<path fill="none" stroke="midnightblue" d="M638.77,-195.02C629.34,-186.9 620.09,-176.68 615.02,-165 609.54,-152.36 609.98,-146.82 615.02,-134 620.72,-119.51 632.75,-106.71 643.21,-97.63"/>
<polygon fill="midnightblue" stroke="midnightblue" points="636.66,-197.81 646.65,-201.35 641.04,-192.36 636.66,-197.81"/>
</g>
<!-- Node7 -->
<g id="node7" class="node">
<title>Node7</title>
<g id="a_node7"><a xlink:href="btf__signal_8h.html" target="_top" xlink:title=" ">
<polygon fill="white" stroke="black" points="731.52,-134.5 731.52,-164.5 820.52,-164.5 820.52,-134.5 731.52,-134.5"/>
<text text-anchor="start" x="739.52" y="-152.5" font-family="Helvetica,sans-Serif" font-size="10.00">src/libBtf/include</text>
<text text-anchor="middle" x="776.02" y="-141.5" font-family="Helvetica,sans-Serif" font-size="10.00">/btf/btf_signal.h</text>
</a>
</g>
</g>
<!-- Node3&#45;&gt;Node7 -->
<g id="edge6" class="edge">
<title>Node3&#45;&gt;Node7</title>
<path fill="none" stroke="midnightblue" d="M701.1,-196.02C717.75,-185.9 737.72,-173.77 752.85,-164.58"/>
<polygon fill="midnightblue" stroke="midnightblue" points="698.97,-193.21 692.24,-201.4 702.6,-199.2 698.97,-193.21"/>
</g>
<!-- Node9 -->
<g id="node9" class="node">
<title>Node9</title>
<g id="a_node9"><a xlink:href="core_8h.html" target="_top" xlink:title=" ">
<polygon fill="white" stroke="black" points="838.52,-134.5 838.52,-164.5 927.52,-164.5 927.52,-134.5 838.52,-134.5"/>
<text text-anchor="start" x="846.52" y="-152.5" font-family="Helvetica,sans-Serif" font-size="10.00">src/libBtf/include</text>
<text text-anchor="middle" x="883.02" y="-141.5" font-family="Helvetica,sans-Serif" font-size="10.00">/btf/core.h</text>
</a>
</g>
</g>
<!-- Node3&#45;&gt;Node9 -->
<g id="edge9" class="edge">
<title>Node3&#45;&gt;Node9</title>
<path fill="none" stroke="midnightblue" d="M723.38,-198.99C759.01,-188.17 805.01,-174.19 838.48,-164.03"/>
<polygon fill="midnightblue" stroke="midnightblue" points="722.17,-195.7 713.62,-201.95 724.21,-202.4 722.17,-195.7"/>
</g>
<!-- Node11 -->
<g id="node11" class="node">
<title>Node11</title>
<g id="a_node11"><a xlink:href="os_8h.html" target="_top" xlink:title=" ">
<polygon fill="white" stroke="black" points="945.52,-134.5 945.52,-164.5 1034.52,-164.5 1034.52,-134.5 945.52,-134.5"/>
<text text-anchor="start" x="953.52" y="-152.5" font-family="Helvetica,sans-Serif" font-size="10.00">src/libBtf/include</text>
<text text-anchor="middle" x="990.02" y="-141.5" font-family="Helvetica,sans-Serif" font-size="10.00">/btf/os.h</text>
</a>
</g>
</g>
<!-- Node3&#45;&gt;Node11 -->
<g id="edge12" class="edge">
<title>Node3&#45;&gt;Node11</title>
<path fill="none" stroke="midnightblue" d="M723.94,-206.49C778.3,-197.26 863.77,-181.89 937.02,-165 939.72,-164.38 942.48,-163.71 945.27,-163.02"/>
<polygon fill="midnightblue" stroke="midnightblue" points="723.1,-203.08 713.83,-208.2 724.27,-209.98 723.1,-203.08"/>
</g>
<!-- Node13 -->
<g id="node13" class="node">
<title>Node13</title>
<g id="a_node13"><a xlink:href="process_8h.html" target="_top" xlink:title=" ">
<polygon fill="white" stroke="black" points="157.52,-134.5 157.52,-164.5 246.52,-164.5 246.52,-134.5 157.52,-134.5"/>
<text text-anchor="start" x="165.52" y="-152.5" font-family="Helvetica,sans-Serif" font-size="10.00">src/libBtf/include</text>
<text text-anchor="middle" x="202.02" y="-141.5" font-family="Helvetica,sans-Serif" font-size="10.00">/btf/process.h</text>
</a>
</g>
</g>
<!-- Node3&#45;&gt;Node13 -->
<g id="edge15" class="edge">
<title>Node3&#45;&gt;Node13</title>
<path fill="none" stroke="midnightblue" d="M613.98,-211.35C534.28,-204.77 382.34,-190.04 255.02,-165 252.31,-164.47 249.53,-163.87 246.73,-163.22"/>
<polygon fill="midnightblue" stroke="midnightblue" points="614.02,-214.87 624.27,-212.19 614.59,-207.89 614.02,-214.87"/>
</g>
<!-- Node14 -->
<g id="node14" class="node">
<title>Node14</title>
<g id="a_node14"><a xlink:href="process_8cpp.html" target="_top" xlink:title=" ">
<polygon fill="white" stroke="black" points="15.02,-73 15.02,-92 143.02,-92 143.02,-73 15.02,-73"/>
<text text-anchor="middle" x="79.02" y="-80" font-family="Helvetica,sans-Serif" font-size="10.00">src/libBtf/src/process.cpp</text>
</a>
</g>
</g>
<!-- Node3&#45;&gt;Node14 -->
<g id="edge35" class="edge">
<title>Node3&#45;&gt;Node14</title>
<path fill="none" stroke="midnightblue" d="M614.09,-215.91C495.16,-215.9 218.1,-210.8 138.02,-165 108.3,-148 89.51,-109.26 82.33,-92.03"/>
<polygon fill="midnightblue" stroke="midnightblue" points="614.42,-219.41 624.42,-215.9 614.41,-212.41 614.42,-219.41"/>
</g>
<!-- Node15 -->
<g id="node15" class="node">
<title>Node15</title>
<g id="a_node15"><a xlink:href="runnable_8h.html" target="_top" xlink:title=" ">
<polygon fill="white" stroke="black" points="264.52,-134.5 264.52,-164.5 353.52,-164.5 353.52,-134.5 264.52,-134.5"/>
<text text-anchor="start" x="272.52" y="-152.5" font-family="Helvetica,sans-Serif" font-size="10.00">src/libBtf/include</text>
<text text-anchor="middle" x="309.02" y="-141.5" font-family="Helvetica,sans-Serif" font-size="10.00">/btf/runnable.h</text>
</a>
</g>
</g>
<!-- Node3&#45;&gt;Node15 -->
<g id="edge18" class="edge">
<title>Node3&#45;&gt;Node15</title>
<path fill="none" stroke="midnightblue" d="M614.24,-208.24C552.58,-199.67 449.57,-184.12 362.02,-165 359.32,-164.41 356.55,-163.77 353.76,-163.09"/>
<polygon fill="midnightblue" stroke="midnightblue" points="614.13,-211.76 624.52,-209.66 615.09,-204.83 614.13,-211.76"/>
</g>
<!-- Node16 -->
<g id="node16" class="node">
<title>Node16</title>
<g id="a_node16"><a xlink:href="runnable_8cpp.html" target="_top" xlink:title=" ">
<polygon fill="white" stroke="black" points="161.02,-73 161.02,-92 291.02,-92 291.02,-73 161.02,-73"/>
<text text-anchor="middle" x="226.02" y="-80" font-family="Helvetica,sans-Serif" font-size="10.00">src/libBtf/src/runnable.cpp</text>
</a>
</g>
</g>
<!-- Node3&#45;&gt;Node16 -->
<g id="edge36" class="edge">
<title>Node3&#45;&gt;Node16</title>
<path fill="none" stroke="midnightblue" d="M613.97,-214.26C486.37,-210.81 178.92,-199.03 148.02,-165 123.41,-137.88 176.37,-106.89 206.71,-92.16"/>
<polygon fill="midnightblue" stroke="midnightblue" points="614.2,-217.77 624.29,-214.53 614.39,-210.77 614.2,-217.77"/>
</g>
<!-- Node17 -->
<g id="node17" class="node">
<title>Node17</title>
<g id="a_node17"><a xlink:href="scheduler_8h.html" target="_top" xlink:title=" ">
<polygon fill="white" stroke="black" points="371.52,-134.5 371.52,-164.5 460.52,-164.5 460.52,-134.5 371.52,-134.5"/>
<text text-anchor="start" x="379.52" y="-152.5" font-family="Helvetica,sans-Serif" font-size="10.00">src/libBtf/include</text>
<text text-anchor="middle" x="416.02" y="-141.5" font-family="Helvetica,sans-Serif" font-size="10.00">/btf/scheduler.h</text>
</a>
</g>
</g>
<!-- Node3&#45;&gt;Node17 -->
<g id="edge21" class="edge">
<title>Node3&#45;&gt;Node17</title>
<path fill="none" stroke="midnightblue" d="M614.59,-202.06C574.33,-192.05 518.19,-177.93 469.02,-165 466.25,-164.27 463.41,-163.52 460.54,-162.75"/>
<polygon fill="midnightblue" stroke="midnightblue" points="613.92,-205.5 624.47,-204.52 615.61,-198.71 613.92,-205.5"/>
</g>
<!-- Node19 -->
<g id="node19" class="node">
<title>Node19</title>
<g id="a_node19"><a xlink:href="semaphore_8h.html" target="_top" xlink:title=" ">
<polygon fill="white" stroke="black" points="1314.52,-134.5 1314.52,-164.5 1403.52,-164.5 1403.52,-134.5 1314.52,-134.5"/>
<text text-anchor="start" x="1322.52" y="-152.5" font-family="Helvetica,sans-Serif" font-size="10.00">src/libBtf/include</text>
<text text-anchor="middle" x="1359.02" y="-141.5" font-family="Helvetica,sans-Serif" font-size="10.00">/btf/semaphore.h</text>
</a>
</g>
</g>
<!-- Node3&#45;&gt;Node19 -->
<g id="edge24" class="edge">
<title>Node3&#45;&gt;Node19</title>
<path fill="none" stroke="midnightblue" d="M724.06,-214.61C834.98,-212.05 1092.97,-202.25 1306.02,-165 1308.75,-164.52 1311.54,-163.97 1314.34,-163.36"/>
<polygon fill="midnightblue" stroke="midnightblue" points="723.71,-211.12 713.79,-214.83 723.86,-218.11 723.71,-211.12"/>
</g>
<!-- Node20 -->
<g id="node20" class="node">
<title>Node20</title>
<g id="a_node20"><a xlink:href="semaphore_8cpp.html" target="_top" xlink:title=" ">
<polygon fill="white" stroke="black" points="1294.52,-73 1294.52,-92 1435.52,-92 1435.52,-73 1294.52,-73"/>
<text text-anchor="middle" x="1365.02" y="-80" font-family="Helvetica,sans-Serif" font-size="10.00">src/libBtf/src/semaphore.cpp</text>
</a>
</g>
</g>
<!-- Node3&#45;&gt;Node20 -->
<g id="edge37" class="edge">
<title>Node3&#45;&gt;Node20</title>
<path fill="none" stroke="midnightblue" d="M723.89,-215.98C887.93,-216.86 1366.24,-215.07 1413.02,-165 1434.44,-142.08 1397.18,-108 1376.88,-92.16"/>
<polygon fill="midnightblue" stroke="midnightblue" points="723.56,-212.48 713.54,-215.92 723.52,-219.48 723.56,-212.48"/>
</g>
<!-- Node21 -->
<g id="node21" class="node">
<title>Node21</title>
<g id="a_node21"><a xlink:href="simulation_8h.html" target="_top" xlink:title=" ">
<polygon fill="white" stroke="black" points="478.52,-134.5 478.52,-164.5 567.52,-164.5 567.52,-134.5 478.52,-134.5"/>
<text text-anchor="start" x="486.52" y="-152.5" font-family="Helvetica,sans-Serif" font-size="10.00">src/libBtf/include</text>
<text text-anchor="middle" x="523.02" y="-141.5" font-family="Helvetica,sans-Serif" font-size="10.00">/btf/simulation.h</text>
</a>
</g>
</g>
<!-- Node3&#45;&gt;Node21 -->
<g id="edge27" class="edge">
<title>Node3&#45;&gt;Node21</title>
<path fill="none" stroke="midnightblue" d="M628.07,-197.27C604.82,-186.92 576.15,-174.15 554.64,-164.58"/>
<polygon fill="midnightblue" stroke="midnightblue" points="626.78,-200.53 637.34,-201.4 629.63,-194.13 626.78,-200.53"/>
</g>
<!-- Node23 -->
<g id="node23" class="node">
<title>Node23</title>
<g id="a_node23"><a xlink:href="stimulus_8h.html" target="_top" xlink:title=" ">
<polygon fill="white" stroke="black" points="624.52,-134.5 624.52,-164.5 713.52,-164.5 713.52,-134.5 624.52,-134.5"/>
<text text-anchor="start" x="632.52" y="-152.5" font-family="Helvetica,sans-Serif" font-size="10.00">src/libBtf/include</text>
<text text-anchor="middle" x="669.02" y="-141.5" font-family="Helvetica,sans-Serif" font-size="10.00">/btf/stimulus.h</text>
</a>
</g>
</g>
<!-- Node3&#45;&gt;Node23 -->
<g id="edge30" class="edge">
<title>Node3&#45;&gt;Node23</title>
<path fill="none" stroke="midnightblue" d="M669.02,-191.11C669.02,-182.15 669.02,-172.32 669.02,-164.58"/>
<polygon fill="midnightblue" stroke="midnightblue" points="665.52,-191.4 669.02,-201.4 672.52,-191.4 665.52,-191.4"/>
</g>
<!-- Node25 -->
<g id="node25" class="node">
<title>Node25</title>
<g id="a_node25"><a xlink:href="btf__entity__types_8cpp.html" target="_top" xlink:title=" ">
<polygon fill="white" stroke="black" points="1053.02,-134.5 1053.02,-164.5 1147.02,-164.5 1147.02,-134.5 1053.02,-134.5"/>
<text text-anchor="start" x="1061.02" y="-152.5" font-family="Helvetica,sans-Serif" font-size="10.00">src/libBtf/src/btf</text>
<text text-anchor="middle" x="1100.02" y="-141.5" font-family="Helvetica,sans-Serif" font-size="10.00">_entity_types.cpp</text>
</a>
</g>
</g>
<!-- Node3&#45;&gt;Node25 -->
<g id="edge33" class="edge">
<title>Node3&#45;&gt;Node25</title>
<path fill="none" stroke="midnightblue" d="M724.14,-210.16C797.55,-202.58 931.27,-187.11 1044.02,-165 1046.88,-164.44 1049.81,-163.82 1052.76,-163.16"/>
<polygon fill="midnightblue" stroke="midnightblue" points="723.35,-206.72 713.75,-211.22 724.06,-213.69 723.35,-206.72"/>
</g>
<!-- Node26 -->
<g id="node26" class="node">
<title>Node26</title>
<g id="a_node26"><a xlink:href="common_8cpp.html" target="_top" xlink:title=" ">
<polygon fill="white" stroke="black" points="1165.52,-140 1165.52,-159 1296.52,-159 1296.52,-140 1165.52,-140"/>
<text text-anchor="middle" x="1231.02" y="-147" font-family="Helvetica,sans-Serif" font-size="10.00">src/libBtf/src/common.cpp</text>
</a>
</g>
</g>
<!-- Node3&#45;&gt;Node26 -->
<g id="edge34" class="edge">
<title>Node3&#45;&gt;Node26</title>
<path fill="none" stroke="midnightblue" d="M723.85,-211.39C814.22,-204.27 999.97,-188.13 1156.02,-165 1167.17,-163.35 1179.19,-161.19 1190.26,-159.05"/>
<polygon fill="midnightblue" stroke="midnightblue" points="723.53,-207.91 713.84,-212.17 724.08,-214.88 723.53,-207.91"/>
</g>
<!-- Node4&#45;&gt;Node5 -->
<g id="edge4" class="edge">
<title>Node4&#45;&gt;Node5</title>
<path fill="none" stroke="midnightblue" d="M609.53,-64.27C570.95,-51.6 520.18,-34.93 489.94,-25.01"/>
<polygon fill="midnightblue" stroke="midnightblue" points="608.47,-67.6 619.06,-67.4 610.65,-60.95 608.47,-67.6"/>
</g>
<!-- Node6 -->
<g id="node6" class="node">
<title>Node6</title>
<g id="a_node6"><a xlink:href="libbtf__binding_8cpp.html" target="_top" xlink:title=" ">
<polygon fill="white" stroke="black" points="812.02,-0.5 812.02,-30.5 908.02,-30.5 908.02,-0.5 812.02,-0.5"/>
<text text-anchor="start" x="820.02" y="-18.5" font-family="Helvetica,sans-Serif" font-size="10.00">src/pybindings/src</text>
<text text-anchor="middle" x="860.02" y="-7.5" font-family="Helvetica,sans-Serif" font-size="10.00">/libbtf_binding.cpp</text>
</a>
</g>
</g>
<!-- Node4&#45;&gt;Node6 -->
<g id="edge5" class="edge">
<title>Node4&#45;&gt;Node6</title>
<path fill="none" stroke="midnightblue" d="M714.64,-64.23C746.67,-53.71 787.06,-40.45 817.14,-30.58"/>
<polygon fill="midnightblue" stroke="midnightblue" points="713.39,-60.95 704.99,-67.4 715.58,-67.6 713.39,-60.95"/>
</g>
<!-- Node7&#45;&gt;Node4 -->
<g id="edge7" class="edge">
<title>Node7&#45;&gt;Node4</title>
<path fill="none" stroke="midnightblue" d="M742.34,-129.3C724.5,-119.12 702.98,-106.85 686.71,-97.58"/>
<polygon fill="midnightblue" stroke="midnightblue" points="740.87,-132.48 751.29,-134.4 744.33,-126.4 740.87,-132.48"/>
</g>
<!-- Node8 -->
<g id="node8" class="node">
<title>Node8</title>
<g id="a_node8"><a xlink:href="btf__signal_8cpp.html" target="_top" xlink:title=" ">
<polygon fill="white" stroke="black" points="873.52,-67.5 873.52,-97.5 958.52,-97.5 958.52,-67.5 873.52,-67.5"/>
<text text-anchor="start" x="881.52" y="-85.5" font-family="Helvetica,sans-Serif" font-size="10.00">src/libBtf/src/btf</text>
<text text-anchor="middle" x="916.02" y="-74.5" font-family="Helvetica,sans-Serif" font-size="10.00">_signal.cpp</text>
</a>
</g>
</g>
<!-- Node7&#45;&gt;Node8 -->
<g id="edge8" class="edge">
<title>Node7&#45;&gt;Node8</title>
<path fill="none" stroke="midnightblue" d="M815.59,-130.13C837.83,-119.8 865.17,-107.11 885.7,-97.58"/>
<polygon fill="midnightblue" stroke="midnightblue" points="814,-127.01 806.4,-134.4 816.94,-133.36 814,-127.01"/>
</g>
<!-- Node9&#45;&gt;Node4 -->
<g id="edge10" class="edge">
<title>Node9&#45;&gt;Node4</title>
<path fill="none" stroke="midnightblue" d="M828.55,-132.48C791.05,-121.45 741.86,-106.98 706.68,-96.63"/>
<polygon fill="midnightblue" stroke="midnightblue" points="827.72,-135.88 838.3,-135.35 829.69,-129.17 827.72,-135.88"/>
</g>
<!-- Node10 -->
<g id="node10" class="node">
<title>Node10</title>
<g id="a_node10"><a xlink:href="core_8cpp.html" target="_top" xlink:title=" ">
<polygon fill="white" stroke="black" points="977.02,-73 977.02,-92 1089.02,-92 1089.02,-73 977.02,-73"/>
<text text-anchor="middle" x="1033.02" y="-80" font-family="Helvetica,sans-Serif" font-size="10.00">src/libBtf/src/core.cpp</text>
</a>
</g>
</g>
<!-- Node9&#45;&gt;Node10 -->
<g id="edge11" class="edge">
<title>Node9&#45;&gt;Node10</title>
<path fill="none" stroke="midnightblue" d="M925.03,-130.3C953.96,-117.76 991.06,-101.68 1013.39,-92.01"/>
<polygon fill="midnightblue" stroke="midnightblue" points="923.35,-127.21 915.57,-134.4 926.14,-133.63 923.35,-127.21"/>
</g>
<!-- Node11&#45;&gt;Node4 -->
<g id="edge13" class="edge">
<title>Node11&#45;&gt;Node4</title>
<path fill="none" stroke="midnightblue" d="M935.33,-133.76C838,-113.2 810.18,-118.26 716.02,-98 712.99,-97.35 709.86,-96.63 706.73,-95.88"/>
<polygon fill="midnightblue" stroke="midnightblue" points="934.77,-137.22 945.28,-135.9 936.24,-130.38 934.77,-137.22"/>
</g>
<!-- Node12 -->
<g id="node12" class="node">
<title>Node12</title>
<g id="a_node12"><a xlink:href="os_8cpp.html" target="_top" xlink:title=" ">
<polygon fill="white" stroke="black" points="1107.02,-73 1107.02,-92 1211.02,-92 1211.02,-73 1107.02,-73"/>
<text text-anchor="middle" x="1159.02" y="-80" font-family="Helvetica,sans-Serif" font-size="10.00">src/libBtf/src/os.cpp</text>
</a>
</g>
</g>
<!-- Node11&#45;&gt;Node12 -->
<g id="edge14" class="edge">
<title>Node11&#45;&gt;Node12</title>
<path fill="none" stroke="midnightblue" d="M1036.08,-130.78C1068.85,-118.18 1111.42,-101.81 1136.9,-92.01"/>
<polygon fill="midnightblue" stroke="midnightblue" points="1034.77,-127.54 1026.69,-134.4 1037.28,-134.07 1034.77,-127.54"/>
</g>
<!-- Node13&#45;&gt;Node4 -->
<g id="edge16" class="edge">
<title>Node13&#45;&gt;Node4</title>
<path fill="none" stroke="midnightblue" d="M256.62,-133.89C411.86,-105.95 456.1,-125.96 608.02,-98 611.08,-97.44 614.21,-96.79 617.36,-96.09"/>
<polygon fill="midnightblue" stroke="midnightblue" points="255.92,-130.46 246.72,-135.71 257.19,-137.35 255.92,-130.46"/>
</g>
<!-- Node13&#45;&gt;Node14 -->
<g id="edge17" class="edge">
<title>Node13&#45;&gt;Node14</title>
<path fill="none" stroke="midnightblue" d="M166.33,-129.64C142.8,-117.2 113.11,-101.51 95.12,-92.01"/>
<polygon fill="midnightblue" stroke="midnightblue" points="164.86,-132.82 175.33,-134.4 168.13,-126.63 164.86,-132.82"/>
</g>
<!-- Node15&#45;&gt;Node4 -->
<g id="edge19" class="edge">
<title>Node15&#45;&gt;Node4</title>
<path fill="none" stroke="midnightblue" d="M363.76,-133.79C471.98,-111.88 502.98,-119.71 608.02,-98 611.06,-97.37 614.19,-96.67 617.33,-95.93"/>
<polygon fill="midnightblue" stroke="midnightblue" points="362.83,-130.4 353.75,-135.85 364.25,-137.26 362.83,-130.4"/>
</g>
<!-- Node15&#45;&gt;Node16 -->
<g id="edge20" class="edge">
<title>Node15&#45;&gt;Node16</title>
<path fill="none" stroke="midnightblue" d="M282.86,-128.01C267.45,-115.94 248.76,-101.3 237.12,-92.19"/>
<polygon fill="midnightblue" stroke="midnightblue" points="280.98,-130.99 291.01,-134.4 285.3,-125.47 280.98,-130.99"/>
</g>
<!-- Node17&#45;&gt;Node4 -->
<g id="edge22" class="edge">
<title>Node17&#45;&gt;Node4</title>
<path fill="none" stroke="midnightblue" d="M470.44,-133.64C532.33,-117.23 549.33,-113.48 608.02,-98 611.03,-97.21 614.12,-96.39 617.24,-95.56"/>
<polygon fill="midnightblue" stroke="midnightblue" points="469.31,-130.32 460.54,-136.27 471.11,-137.09 469.31,-130.32"/>
</g>
<!-- Node18 -->
<g id="node18" class="node">
<title>Node18</title>
<g id="a_node18"><a xlink:href="scheduler_8cpp.html" target="_top" xlink:title=" ">
<polygon fill="white" stroke="black" points="309.52,-73 309.52,-92 444.52,-92 444.52,-73 309.52,-73"/>
<text text-anchor="middle" x="377.02" y="-80" font-family="Helvetica,sans-Serif" font-size="10.00">src/libBtf/src/scheduler.cpp</text>
</a>
</g>
</g>
<!-- Node17&#45;&gt;Node18 -->
<g id="edge23" class="edge">
<title>Node17&#45;&gt;Node18</title>
<path fill="none" stroke="midnightblue" d="M402.3,-125.63C395.36,-114.07 387.35,-100.71 382.24,-92.19"/>
<polygon fill="midnightblue" stroke="midnightblue" points="399.41,-127.62 407.56,-134.4 405.42,-124.02 399.41,-127.62"/>
</g>
<!-- Node19&#45;&gt;Node4 -->
<g id="edge25" class="edge">
<title>Node19&#45;&gt;Node4</title>
<path fill="none" stroke="midnightblue" d="M1304.25,-133.93C1044.99,-92.34 972.02,-139.74 716.02,-98 712.96,-97.5 709.81,-96.9 706.66,-96.23"/>
<polygon fill="midnightblue" stroke="midnightblue" points="1303.91,-137.42 1314.35,-135.58 1305.04,-130.52 1303.91,-137.42"/>
</g>
<!-- Node19&#45;&gt;Node20 -->
<g id="edge26" class="edge">
<title>Node19&#45;&gt;Node20</title>
<path fill="none" stroke="midnightblue" d="M1361.26,-124.25C1362.3,-113.02 1363.46,-100.38 1364.22,-92.19"/>
<polygon fill="midnightblue" stroke="midnightblue" points="1357.76,-124.12 1360.32,-134.4 1364.73,-124.76 1357.76,-124.12"/>
</g>
<!-- Node21&#45;&gt;Node4 -->
<g id="edge28" class="edge">
<title>Node21&#45;&gt;Node4</title>
<path fill="none" stroke="midnightblue" d="M562.3,-130.13C584.39,-119.8 611.53,-107.11 631.92,-97.58"/>
<polygon fill="midnightblue" stroke="midnightblue" points="560.76,-126.99 553.18,-134.4 563.72,-133.33 560.76,-126.99"/>
</g>
<!-- Node22 -->
<g id="node22" class="node">
<title>Node22</title>
<g id="a_node22"><a xlink:href="simulation_8cpp.html" target="_top" xlink:title=" ">
<polygon fill="white" stroke="black" points="462.52,-73 462.52,-92 599.52,-92 599.52,-73 462.52,-73"/>
<text text-anchor="middle" x="531.02" y="-80" font-family="Helvetica,sans-Serif" font-size="10.00">src/libBtf/src/simulation.cpp</text>
</a>
</g>
</g>
<!-- Node21&#45;&gt;Node22 -->
<g id="edge29" class="edge">
<title>Node21&#45;&gt;Node22</title>
<path fill="none" stroke="midnightblue" d="M526.01,-124.25C527.39,-113.02 528.95,-100.38 529.95,-92.19"/>
<polygon fill="midnightblue" stroke="midnightblue" points="522.51,-124.04 524.76,-134.4 529.45,-124.9 522.51,-124.04"/>
</g>
<!-- Node23&#45;&gt;Node4 -->
<g id="edge31" class="edge">
<title>Node23&#45;&gt;Node4</title>
<path fill="none" stroke="midnightblue" d="M666.43,-124.4C665.45,-115.37 664.38,-105.41 663.54,-97.58"/>
<polygon fill="midnightblue" stroke="midnightblue" points="662.95,-124.83 667.5,-134.4 669.91,-124.08 662.95,-124.83"/>
</g>
<!-- Node24 -->
<g id="node24" class="node">
<title>Node24</title>
<g id="a_node24"><a xlink:href="stimulus_8cpp.html" target="_top" xlink:title=" ">
<polygon fill="white" stroke="black" points="725.02,-73 725.02,-92 855.02,-92 855.02,-73 725.02,-73"/>
<text text-anchor="middle" x="790.02" y="-80" font-family="Helvetica,sans-Serif" font-size="10.00">src/libBtf/src/stimulus.cpp</text>
</a>
</g>
</g>
<!-- Node23&#45;&gt;Node24 -->
<g id="edge32" class="edge">
<title>Node23&#45;&gt;Node24</title>
<path fill="none" stroke="midnightblue" d="M704.13,-129.64C727.28,-117.2 756.49,-101.51 774.19,-92.01"/>
<polygon fill="midnightblue" stroke="midnightblue" points="702.43,-126.58 695.28,-134.4 705.74,-132.75 702.43,-126.58"/>
</g>
<!-- Node27&#45;&gt;Node6 -->
<g id="edge40" class="edge">
<title>Node27&#45;&gt;Node6</title>
<path fill="none" stroke="midnightblue" d="M1474.01,-191.27C1477.95,-157.95 1479.21,-98.53 1445.02,-67 1405.92,-30.93 1041.61,-20.11 908.46,-17.34"/>
<polygon fill="midnightblue" stroke="midnightblue" points="1470.5,-191.11 1472.61,-201.49 1477.43,-192.06 1470.5,-191.11"/>
</g>
<!-- Node28 -->
<g id="node28" class="node">
<title>Node28</title>
<g id="a_node28"><a xlink:href="libhelper__binding_8cpp.html" target="_top" xlink:title=" ">
<polygon fill="white" stroke="black" points="1498.02,-134.5 1498.02,-164.5 1608.02,-164.5 1608.02,-134.5 1498.02,-134.5"/>
<text text-anchor="start" x="1506.02" y="-152.5" font-family="Helvetica,sans-Serif" font-size="10.00">src/pybindings/src</text>
<text text-anchor="middle" x="1553.02" y="-141.5" font-family="Helvetica,sans-Serif" font-size="10.00">/libhelper_binding.cpp</text>
</a>
</g>
</g>
<!-- Node27&#45;&gt;Node28 -->
<g id="edge41" class="edge">
<title>Node27&#45;&gt;Node28</title>
<path fill="none" stroke="midnightblue" d="M1495.99,-195.17C1508.68,-185.23 1523.63,-173.51 1535.05,-164.58"/>
<polygon fill="midnightblue" stroke="midnightblue" points="1493.75,-192.47 1488.03,-201.4 1498.06,-197.99 1493.75,-192.47"/>
</g>
</g>
</svg>
